G04 (created by PCBNEW-RS274X (2011-07-19)-testing) date Tue 14 Feb 2012 11:01:29 AM PST*
G01*
G70*
G90*
%MOIN*%
G04 Gerber Fmt 3.4, Leading zero omitted, Abs format*
%FSLAX34Y34*%
G04 APERTURE LIST*
%ADD10C,0.006000*%
%ADD11C,0.012000*%
%ADD12C,0.015000*%
%ADD13C,0.010000*%
%ADD14C,0.008000*%
%ADD15C,0.011300*%
%ADD16C,0.003500*%
G04 APERTURE END LIST*
G54D10*
G54D11*
X81874Y-36814D02*
X81074Y-36814D01*
X81074Y-36414D02*
X81074Y-36300D01*
X81112Y-36242D01*
X81188Y-36185D01*
X81340Y-36157D01*
X81607Y-36157D01*
X81760Y-36185D01*
X81836Y-36242D01*
X81874Y-36300D01*
X81874Y-36414D01*
X81836Y-36471D01*
X81760Y-36528D01*
X81607Y-36557D01*
X81340Y-36557D01*
X81188Y-36528D01*
X81112Y-36471D01*
X81074Y-36414D01*
X81874Y-35099D02*
X81493Y-35299D01*
X81874Y-35442D02*
X81074Y-35442D01*
X81074Y-35214D01*
X81112Y-35156D01*
X81150Y-35128D01*
X81226Y-35099D01*
X81340Y-35099D01*
X81417Y-35128D01*
X81455Y-35156D01*
X81493Y-35214D01*
X81493Y-35442D01*
X81874Y-34756D02*
X81836Y-34814D01*
X81798Y-34842D01*
X81721Y-34871D01*
X81493Y-34871D01*
X81417Y-34842D01*
X81379Y-34814D01*
X81340Y-34756D01*
X81340Y-34671D01*
X81379Y-34614D01*
X81417Y-34585D01*
X81493Y-34556D01*
X81721Y-34556D01*
X81798Y-34585D01*
X81836Y-34614D01*
X81874Y-34671D01*
X81874Y-34756D01*
X81874Y-34042D02*
X81074Y-34042D01*
X81836Y-34042D02*
X81874Y-34099D01*
X81874Y-34213D01*
X81836Y-34271D01*
X81798Y-34299D01*
X81721Y-34328D01*
X81493Y-34328D01*
X81417Y-34299D01*
X81379Y-34271D01*
X81340Y-34213D01*
X81340Y-34099D01*
X81379Y-34042D01*
X81836Y-33528D02*
X81874Y-33585D01*
X81874Y-33699D01*
X81836Y-33756D01*
X81760Y-33785D01*
X81455Y-33785D01*
X81379Y-33756D01*
X81340Y-33699D01*
X81340Y-33585D01*
X81379Y-33528D01*
X81455Y-33499D01*
X81531Y-33499D01*
X81607Y-33785D01*
X81874Y-33156D02*
X81836Y-33214D01*
X81798Y-33242D01*
X81721Y-33271D01*
X81493Y-33271D01*
X81417Y-33242D01*
X81379Y-33214D01*
X81340Y-33156D01*
X81340Y-33071D01*
X81379Y-33014D01*
X81417Y-32985D01*
X81493Y-32956D01*
X81721Y-32956D01*
X81798Y-32985D01*
X81836Y-33014D01*
X81874Y-33071D01*
X81874Y-33156D01*
X81874Y-32242D02*
X81074Y-32242D01*
X81340Y-31956D02*
X81874Y-31956D01*
X81417Y-31956D02*
X81379Y-31928D01*
X81340Y-31870D01*
X81340Y-31785D01*
X81379Y-31728D01*
X81455Y-31699D01*
X81874Y-31699D01*
X81836Y-31156D02*
X81874Y-31213D01*
X81874Y-31327D01*
X81836Y-31385D01*
X81798Y-31413D01*
X81721Y-31442D01*
X81493Y-31442D01*
X81417Y-31413D01*
X81379Y-31385D01*
X81340Y-31327D01*
X81340Y-31213D01*
X81379Y-31156D01*
X80386Y-37385D02*
X80424Y-37299D01*
X80424Y-37156D01*
X80386Y-37099D01*
X80348Y-37070D01*
X80271Y-37042D01*
X80195Y-37042D01*
X80119Y-37070D01*
X80081Y-37099D01*
X80043Y-37156D01*
X80005Y-37270D01*
X79967Y-37328D01*
X79929Y-37356D01*
X79852Y-37385D01*
X79776Y-37385D01*
X79700Y-37356D01*
X79662Y-37328D01*
X79624Y-37270D01*
X79624Y-37128D01*
X79662Y-37042D01*
X80386Y-36814D02*
X80424Y-36728D01*
X80424Y-36585D01*
X80386Y-36528D01*
X80348Y-36499D01*
X80271Y-36471D01*
X80195Y-36471D01*
X80119Y-36499D01*
X80081Y-36528D01*
X80043Y-36585D01*
X80005Y-36699D01*
X79967Y-36757D01*
X79929Y-36785D01*
X79852Y-36814D01*
X79776Y-36814D01*
X79700Y-36785D01*
X79662Y-36757D01*
X79624Y-36699D01*
X79624Y-36557D01*
X79662Y-36471D01*
X80424Y-35871D02*
X80043Y-36071D01*
X80424Y-36214D02*
X79624Y-36214D01*
X79624Y-35986D01*
X79662Y-35928D01*
X79700Y-35900D01*
X79776Y-35871D01*
X79890Y-35871D01*
X79967Y-35900D01*
X80005Y-35928D01*
X80043Y-35986D01*
X80043Y-36214D01*
X80424Y-35157D02*
X79624Y-35157D01*
X80424Y-34814D01*
X79624Y-34814D01*
X80195Y-34557D02*
X80195Y-34271D01*
X80424Y-34614D02*
X79624Y-34414D01*
X80424Y-34214D01*
X80424Y-34014D02*
X79624Y-34014D01*
X80424Y-33671D01*
X79624Y-33671D01*
X79624Y-33271D02*
X79624Y-33157D01*
X79662Y-33099D01*
X79738Y-33042D01*
X79890Y-33014D01*
X80157Y-33014D01*
X80310Y-33042D01*
X80386Y-33099D01*
X80424Y-33157D01*
X80424Y-33271D01*
X80386Y-33328D01*
X80310Y-33385D01*
X80157Y-33414D01*
X79890Y-33414D01*
X79738Y-33385D01*
X79662Y-33328D01*
X79624Y-33271D01*
X79624Y-32385D02*
X80424Y-32185D01*
X79624Y-31985D01*
X80424Y-31471D02*
X80424Y-31814D01*
X80424Y-31642D02*
X79624Y-31642D01*
X79738Y-31699D01*
X79814Y-31757D01*
X79852Y-31814D01*
X80348Y-31214D02*
X80386Y-31186D01*
X80424Y-31214D01*
X80386Y-31243D01*
X80348Y-31214D01*
X80424Y-31214D01*
X80424Y-30614D02*
X80424Y-30957D01*
X80424Y-30785D02*
X79624Y-30785D01*
X79738Y-30842D01*
X79814Y-30900D01*
X79852Y-30957D01*
X76872Y-46419D02*
X77329Y-46419D01*
X77100Y-46724D02*
X77100Y-46114D01*
X75422Y-46419D02*
X75879Y-46419D01*
X70872Y-46419D02*
X71329Y-46419D01*
X71100Y-46724D02*
X71100Y-46114D01*
X69422Y-46419D02*
X69879Y-46419D01*
X64822Y-46419D02*
X65279Y-46419D01*
X65050Y-46724D02*
X65050Y-46114D01*
X63422Y-46419D02*
X63879Y-46419D01*
X58872Y-46369D02*
X59329Y-46369D01*
X59100Y-46674D02*
X59100Y-46064D01*
X57422Y-46419D02*
X57879Y-46419D01*
X52822Y-46419D02*
X53279Y-46419D01*
X53050Y-46724D02*
X53050Y-46114D01*
X51422Y-46419D02*
X51879Y-46419D01*
X46872Y-46419D02*
X47329Y-46419D01*
X47100Y-46724D02*
X47100Y-46114D01*
X45422Y-46419D02*
X45879Y-46419D01*
X40872Y-46419D02*
X41329Y-46419D01*
X41100Y-46724D02*
X41100Y-46114D01*
X39422Y-46419D02*
X39879Y-46419D01*
X34872Y-46419D02*
X35329Y-46419D01*
X35100Y-46724D02*
X35100Y-46114D01*
X33422Y-46419D02*
X33879Y-46419D01*
G54D12*
X45000Y-35000D02*
X44998Y-34957D01*
X44992Y-34914D01*
X44982Y-34871D01*
X44969Y-34829D01*
X44953Y-34789D01*
X44933Y-34751D01*
X44909Y-34714D01*
X44883Y-34679D01*
X44853Y-34647D01*
X44821Y-34617D01*
X44786Y-34591D01*
X44750Y-34567D01*
X44711Y-34547D01*
X44671Y-34531D01*
X44629Y-34518D01*
X44586Y-34508D01*
X44543Y-34502D01*
X44500Y-34500D01*
X44500Y-34500D02*
X44457Y-34502D01*
X44414Y-34508D01*
X44371Y-34518D01*
X44329Y-34531D01*
X44289Y-34547D01*
X44251Y-34567D01*
X44214Y-34591D01*
X44179Y-34617D01*
X44147Y-34647D01*
X44117Y-34679D01*
X44091Y-34714D01*
X44067Y-34751D01*
X44047Y-34789D01*
X44031Y-34829D01*
X44018Y-34871D01*
X44008Y-34914D01*
X44002Y-34957D01*
X44000Y-35000D01*
X42000Y-35000D02*
X44000Y-35000D01*
X47000Y-35000D02*
X45000Y-35000D01*
X47000Y-35000D02*
X47000Y-20000D01*
X47000Y-20000D02*
X42000Y-20000D01*
X42000Y-20000D02*
X42000Y-35000D01*
G54D11*
X36100Y-36350D02*
X38900Y-36350D01*
X38900Y-36350D02*
X38900Y-37150D01*
X38900Y-37150D02*
X36100Y-37150D01*
X36100Y-37150D02*
X36100Y-36350D01*
X36100Y-36550D02*
X36300Y-36350D01*
G54D12*
X61500Y-32500D02*
X61500Y-32500D01*
X61500Y-32500D02*
X61000Y-32500D01*
X61000Y-32500D02*
X61000Y-31500D01*
X61000Y-31500D02*
X61500Y-31500D01*
X61500Y-33000D02*
X52500Y-33000D01*
X52500Y-33000D02*
X52500Y-31000D01*
X52500Y-31000D02*
X61500Y-31000D01*
X61500Y-31000D02*
X61500Y-33000D01*
X74500Y-32500D02*
X74500Y-32500D01*
X74500Y-32500D02*
X74000Y-32500D01*
X74000Y-32500D02*
X74000Y-31500D01*
X74000Y-31500D02*
X74500Y-31500D01*
X74500Y-33000D02*
X65500Y-33000D01*
X65500Y-33000D02*
X65500Y-31000D01*
X65500Y-31000D02*
X74500Y-31000D01*
X74500Y-31000D02*
X74500Y-33000D01*
G54D13*
X78530Y-48000D02*
X78530Y-49000D01*
G54D10*
X79610Y-48884D02*
X79642Y-48842D01*
X79670Y-48798D01*
X79694Y-48751D01*
X79714Y-48703D01*
X79730Y-48653D01*
X79741Y-48602D01*
X79747Y-48550D01*
X79750Y-48500D01*
X79749Y-48500D02*
X79746Y-48448D01*
X79739Y-48396D01*
X79728Y-48345D01*
X79712Y-48296D01*
X79692Y-48247D01*
X79668Y-48201D01*
X79640Y-48157D01*
X79608Y-48115D01*
X79597Y-48103D01*
X78551Y-48500D02*
X78554Y-48552D01*
X78561Y-48604D01*
X78572Y-48655D01*
X78588Y-48704D01*
X78608Y-48753D01*
X78632Y-48799D01*
X78660Y-48843D01*
X78692Y-48885D01*
X78696Y-48889D01*
X78690Y-48116D02*
X78658Y-48158D01*
X78630Y-48202D01*
X78606Y-48249D01*
X78586Y-48297D01*
X78570Y-48347D01*
X78559Y-48398D01*
X78553Y-48450D01*
X78550Y-48500D01*
X78663Y-48849D02*
X78695Y-48890D01*
X78731Y-48928D01*
X78770Y-48963D01*
X78812Y-48995D01*
X78856Y-49022D01*
X78903Y-49046D01*
X78951Y-49065D01*
X79001Y-49081D01*
X79053Y-49091D01*
X79104Y-49098D01*
X79150Y-49100D01*
X79150Y-49100D02*
X79202Y-49097D01*
X79254Y-49090D01*
X79305Y-49079D01*
X79355Y-49063D01*
X79403Y-49043D01*
X79450Y-49019D01*
X79494Y-48991D01*
X79535Y-48959D01*
X79574Y-48924D01*
X79609Y-48885D01*
X79629Y-48860D01*
X79150Y-47901D02*
X79098Y-47904D01*
X79046Y-47911D01*
X78995Y-47922D01*
X78946Y-47938D01*
X78897Y-47958D01*
X78851Y-47982D01*
X78807Y-48010D01*
X78765Y-48042D01*
X78727Y-48077D01*
X78692Y-48115D01*
X78678Y-48133D01*
X79623Y-48132D02*
X79589Y-48092D01*
X79552Y-48055D01*
X79511Y-48022D01*
X79468Y-47992D01*
X79423Y-47966D01*
X79375Y-47945D01*
X79326Y-47927D01*
X79275Y-47914D01*
X79224Y-47905D01*
X79171Y-47901D01*
X79150Y-47900D01*
X79150Y-48750D02*
X79171Y-48749D01*
X79193Y-48746D01*
X79214Y-48741D01*
X79235Y-48734D01*
X79255Y-48726D01*
X79275Y-48716D01*
X79293Y-48704D01*
X79310Y-48691D01*
X79326Y-48676D01*
X79341Y-48660D01*
X79354Y-48643D01*
X79366Y-48624D01*
X79376Y-48605D01*
X79384Y-48585D01*
X79391Y-48564D01*
X79396Y-48543D01*
X79399Y-48521D01*
X79400Y-48500D01*
X79150Y-48900D02*
X79184Y-48898D01*
X79219Y-48893D01*
X79253Y-48886D01*
X79286Y-48875D01*
X79319Y-48862D01*
X79350Y-48846D01*
X79379Y-48827D01*
X79407Y-48806D01*
X79432Y-48782D01*
X79456Y-48757D01*
X79477Y-48729D01*
X79496Y-48699D01*
X79512Y-48669D01*
X79525Y-48636D01*
X79536Y-48603D01*
X79543Y-48569D01*
X79548Y-48534D01*
X79550Y-48500D01*
X79150Y-48250D02*
X79129Y-48251D01*
X79107Y-48254D01*
X79086Y-48259D01*
X79065Y-48266D01*
X79045Y-48274D01*
X79026Y-48284D01*
X79007Y-48296D01*
X78990Y-48309D01*
X78974Y-48324D01*
X78959Y-48340D01*
X78946Y-48357D01*
X78934Y-48376D01*
X78924Y-48395D01*
X78916Y-48415D01*
X78909Y-48436D01*
X78904Y-48457D01*
X78901Y-48479D01*
X78900Y-48500D01*
X79150Y-48100D02*
X79116Y-48102D01*
X79081Y-48107D01*
X79047Y-48114D01*
X79014Y-48125D01*
X78981Y-48138D01*
X78951Y-48154D01*
X78921Y-48173D01*
X78893Y-48194D01*
X78868Y-48218D01*
X78844Y-48243D01*
X78823Y-48271D01*
X78804Y-48301D01*
X78788Y-48331D01*
X78775Y-48364D01*
X78764Y-48397D01*
X78757Y-48431D01*
X78752Y-48466D01*
X78750Y-48500D01*
G54D13*
X78537Y-49013D02*
X78584Y-49064D01*
X78635Y-49111D01*
X78690Y-49154D01*
X78749Y-49192D01*
X78811Y-49224D01*
X78876Y-49251D01*
X78942Y-49272D01*
X79010Y-49287D01*
X79079Y-49296D01*
X79149Y-49299D01*
X79150Y-49300D01*
X79150Y-49299D02*
X79219Y-49295D01*
X79288Y-49286D01*
X79356Y-49271D01*
X79423Y-49250D01*
X79487Y-49224D01*
X79549Y-49191D01*
X79608Y-49154D01*
X79663Y-49112D01*
X79714Y-49064D01*
X79762Y-49013D01*
X79804Y-48958D01*
X79841Y-48899D01*
X79854Y-48876D01*
X79149Y-47703D02*
X79080Y-47706D01*
X79011Y-47715D01*
X78943Y-47730D01*
X78876Y-47751D01*
X78812Y-47778D01*
X78750Y-47810D01*
X78692Y-47848D01*
X78636Y-47890D01*
X78585Y-47937D01*
X78541Y-47985D01*
X79844Y-48103D02*
X79806Y-48044D01*
X79764Y-47988D01*
X79717Y-47937D01*
X79666Y-47889D01*
X79611Y-47847D01*
X79552Y-47809D01*
X79490Y-47777D01*
X79426Y-47750D01*
X79359Y-47728D01*
X79291Y-47713D01*
X79222Y-47704D01*
X79152Y-47701D01*
X79150Y-47700D01*
X79854Y-48879D02*
X79884Y-48816D01*
X79909Y-48751D01*
X79928Y-48684D01*
X79941Y-48615D01*
X79948Y-48546D01*
X79950Y-48500D01*
X79949Y-48500D02*
X79945Y-48431D01*
X79936Y-48362D01*
X79921Y-48294D01*
X79900Y-48227D01*
X79874Y-48163D01*
X79841Y-48101D01*
X79830Y-48082D01*
X66530Y-48000D02*
X66530Y-49000D01*
G54D10*
X67610Y-48884D02*
X67642Y-48842D01*
X67670Y-48798D01*
X67694Y-48751D01*
X67714Y-48703D01*
X67730Y-48653D01*
X67741Y-48602D01*
X67747Y-48550D01*
X67750Y-48500D01*
X67749Y-48500D02*
X67746Y-48448D01*
X67739Y-48396D01*
X67728Y-48345D01*
X67712Y-48296D01*
X67692Y-48247D01*
X67668Y-48201D01*
X67640Y-48157D01*
X67608Y-48115D01*
X67597Y-48103D01*
X66551Y-48500D02*
X66554Y-48552D01*
X66561Y-48604D01*
X66572Y-48655D01*
X66588Y-48704D01*
X66608Y-48753D01*
X66632Y-48799D01*
X66660Y-48843D01*
X66692Y-48885D01*
X66696Y-48889D01*
X66690Y-48116D02*
X66658Y-48158D01*
X66630Y-48202D01*
X66606Y-48249D01*
X66586Y-48297D01*
X66570Y-48347D01*
X66559Y-48398D01*
X66553Y-48450D01*
X66550Y-48500D01*
X66663Y-48849D02*
X66695Y-48890D01*
X66731Y-48928D01*
X66770Y-48963D01*
X66812Y-48995D01*
X66856Y-49022D01*
X66903Y-49046D01*
X66951Y-49065D01*
X67001Y-49081D01*
X67053Y-49091D01*
X67104Y-49098D01*
X67150Y-49100D01*
X67150Y-49100D02*
X67202Y-49097D01*
X67254Y-49090D01*
X67305Y-49079D01*
X67355Y-49063D01*
X67403Y-49043D01*
X67450Y-49019D01*
X67494Y-48991D01*
X67535Y-48959D01*
X67574Y-48924D01*
X67609Y-48885D01*
X67629Y-48860D01*
X67150Y-47901D02*
X67098Y-47904D01*
X67046Y-47911D01*
X66995Y-47922D01*
X66946Y-47938D01*
X66897Y-47958D01*
X66851Y-47982D01*
X66807Y-48010D01*
X66765Y-48042D01*
X66727Y-48077D01*
X66692Y-48115D01*
X66678Y-48133D01*
X67623Y-48132D02*
X67589Y-48092D01*
X67552Y-48055D01*
X67511Y-48022D01*
X67468Y-47992D01*
X67423Y-47966D01*
X67375Y-47945D01*
X67326Y-47927D01*
X67275Y-47914D01*
X67224Y-47905D01*
X67171Y-47901D01*
X67150Y-47900D01*
X67150Y-48750D02*
X67171Y-48749D01*
X67193Y-48746D01*
X67214Y-48741D01*
X67235Y-48734D01*
X67255Y-48726D01*
X67275Y-48716D01*
X67293Y-48704D01*
X67310Y-48691D01*
X67326Y-48676D01*
X67341Y-48660D01*
X67354Y-48643D01*
X67366Y-48624D01*
X67376Y-48605D01*
X67384Y-48585D01*
X67391Y-48564D01*
X67396Y-48543D01*
X67399Y-48521D01*
X67400Y-48500D01*
X67150Y-48900D02*
X67184Y-48898D01*
X67219Y-48893D01*
X67253Y-48886D01*
X67286Y-48875D01*
X67319Y-48862D01*
X67350Y-48846D01*
X67379Y-48827D01*
X67407Y-48806D01*
X67432Y-48782D01*
X67456Y-48757D01*
X67477Y-48729D01*
X67496Y-48699D01*
X67512Y-48669D01*
X67525Y-48636D01*
X67536Y-48603D01*
X67543Y-48569D01*
X67548Y-48534D01*
X67550Y-48500D01*
X67150Y-48250D02*
X67129Y-48251D01*
X67107Y-48254D01*
X67086Y-48259D01*
X67065Y-48266D01*
X67045Y-48274D01*
X67026Y-48284D01*
X67007Y-48296D01*
X66990Y-48309D01*
X66974Y-48324D01*
X66959Y-48340D01*
X66946Y-48357D01*
X66934Y-48376D01*
X66924Y-48395D01*
X66916Y-48415D01*
X66909Y-48436D01*
X66904Y-48457D01*
X66901Y-48479D01*
X66900Y-48500D01*
X67150Y-48100D02*
X67116Y-48102D01*
X67081Y-48107D01*
X67047Y-48114D01*
X67014Y-48125D01*
X66981Y-48138D01*
X66951Y-48154D01*
X66921Y-48173D01*
X66893Y-48194D01*
X66868Y-48218D01*
X66844Y-48243D01*
X66823Y-48271D01*
X66804Y-48301D01*
X66788Y-48331D01*
X66775Y-48364D01*
X66764Y-48397D01*
X66757Y-48431D01*
X66752Y-48466D01*
X66750Y-48500D01*
G54D13*
X66537Y-49013D02*
X66584Y-49064D01*
X66635Y-49111D01*
X66690Y-49154D01*
X66749Y-49192D01*
X66811Y-49224D01*
X66876Y-49251D01*
X66942Y-49272D01*
X67010Y-49287D01*
X67079Y-49296D01*
X67149Y-49299D01*
X67150Y-49300D01*
X67150Y-49299D02*
X67219Y-49295D01*
X67288Y-49286D01*
X67356Y-49271D01*
X67423Y-49250D01*
X67487Y-49224D01*
X67549Y-49191D01*
X67608Y-49154D01*
X67663Y-49112D01*
X67714Y-49064D01*
X67762Y-49013D01*
X67804Y-48958D01*
X67841Y-48899D01*
X67854Y-48876D01*
X67149Y-47703D02*
X67080Y-47706D01*
X67011Y-47715D01*
X66943Y-47730D01*
X66876Y-47751D01*
X66812Y-47778D01*
X66750Y-47810D01*
X66692Y-47848D01*
X66636Y-47890D01*
X66585Y-47937D01*
X66541Y-47985D01*
X67844Y-48103D02*
X67806Y-48044D01*
X67764Y-47988D01*
X67717Y-47937D01*
X67666Y-47889D01*
X67611Y-47847D01*
X67552Y-47809D01*
X67490Y-47777D01*
X67426Y-47750D01*
X67359Y-47728D01*
X67291Y-47713D01*
X67222Y-47704D01*
X67152Y-47701D01*
X67150Y-47700D01*
X67854Y-48879D02*
X67884Y-48816D01*
X67909Y-48751D01*
X67928Y-48684D01*
X67941Y-48615D01*
X67948Y-48546D01*
X67950Y-48500D01*
X67949Y-48500D02*
X67945Y-48431D01*
X67936Y-48362D01*
X67921Y-48294D01*
X67900Y-48227D01*
X67874Y-48163D01*
X67841Y-48101D01*
X67830Y-48082D01*
X72530Y-48000D02*
X72530Y-49000D01*
G54D10*
X73610Y-48884D02*
X73642Y-48842D01*
X73670Y-48798D01*
X73694Y-48751D01*
X73714Y-48703D01*
X73730Y-48653D01*
X73741Y-48602D01*
X73747Y-48550D01*
X73750Y-48500D01*
X73749Y-48500D02*
X73746Y-48448D01*
X73739Y-48396D01*
X73728Y-48345D01*
X73712Y-48296D01*
X73692Y-48247D01*
X73668Y-48201D01*
X73640Y-48157D01*
X73608Y-48115D01*
X73597Y-48103D01*
X72551Y-48500D02*
X72554Y-48552D01*
X72561Y-48604D01*
X72572Y-48655D01*
X72588Y-48704D01*
X72608Y-48753D01*
X72632Y-48799D01*
X72660Y-48843D01*
X72692Y-48885D01*
X72696Y-48889D01*
X72690Y-48116D02*
X72658Y-48158D01*
X72630Y-48202D01*
X72606Y-48249D01*
X72586Y-48297D01*
X72570Y-48347D01*
X72559Y-48398D01*
X72553Y-48450D01*
X72550Y-48500D01*
X72663Y-48849D02*
X72695Y-48890D01*
X72731Y-48928D01*
X72770Y-48963D01*
X72812Y-48995D01*
X72856Y-49022D01*
X72903Y-49046D01*
X72951Y-49065D01*
X73001Y-49081D01*
X73053Y-49091D01*
X73104Y-49098D01*
X73150Y-49100D01*
X73150Y-49100D02*
X73202Y-49097D01*
X73254Y-49090D01*
X73305Y-49079D01*
X73355Y-49063D01*
X73403Y-49043D01*
X73450Y-49019D01*
X73494Y-48991D01*
X73535Y-48959D01*
X73574Y-48924D01*
X73609Y-48885D01*
X73629Y-48860D01*
X73150Y-47901D02*
X73098Y-47904D01*
X73046Y-47911D01*
X72995Y-47922D01*
X72946Y-47938D01*
X72897Y-47958D01*
X72851Y-47982D01*
X72807Y-48010D01*
X72765Y-48042D01*
X72727Y-48077D01*
X72692Y-48115D01*
X72678Y-48133D01*
X73623Y-48132D02*
X73589Y-48092D01*
X73552Y-48055D01*
X73511Y-48022D01*
X73468Y-47992D01*
X73423Y-47966D01*
X73375Y-47945D01*
X73326Y-47927D01*
X73275Y-47914D01*
X73224Y-47905D01*
X73171Y-47901D01*
X73150Y-47900D01*
X73150Y-48750D02*
X73171Y-48749D01*
X73193Y-48746D01*
X73214Y-48741D01*
X73235Y-48734D01*
X73255Y-48726D01*
X73275Y-48716D01*
X73293Y-48704D01*
X73310Y-48691D01*
X73326Y-48676D01*
X73341Y-48660D01*
X73354Y-48643D01*
X73366Y-48624D01*
X73376Y-48605D01*
X73384Y-48585D01*
X73391Y-48564D01*
X73396Y-48543D01*
X73399Y-48521D01*
X73400Y-48500D01*
X73150Y-48900D02*
X73184Y-48898D01*
X73219Y-48893D01*
X73253Y-48886D01*
X73286Y-48875D01*
X73319Y-48862D01*
X73350Y-48846D01*
X73379Y-48827D01*
X73407Y-48806D01*
X73432Y-48782D01*
X73456Y-48757D01*
X73477Y-48729D01*
X73496Y-48699D01*
X73512Y-48669D01*
X73525Y-48636D01*
X73536Y-48603D01*
X73543Y-48569D01*
X73548Y-48534D01*
X73550Y-48500D01*
X73150Y-48250D02*
X73129Y-48251D01*
X73107Y-48254D01*
X73086Y-48259D01*
X73065Y-48266D01*
X73045Y-48274D01*
X73026Y-48284D01*
X73007Y-48296D01*
X72990Y-48309D01*
X72974Y-48324D01*
X72959Y-48340D01*
X72946Y-48357D01*
X72934Y-48376D01*
X72924Y-48395D01*
X72916Y-48415D01*
X72909Y-48436D01*
X72904Y-48457D01*
X72901Y-48479D01*
X72900Y-48500D01*
X73150Y-48100D02*
X73116Y-48102D01*
X73081Y-48107D01*
X73047Y-48114D01*
X73014Y-48125D01*
X72981Y-48138D01*
X72951Y-48154D01*
X72921Y-48173D01*
X72893Y-48194D01*
X72868Y-48218D01*
X72844Y-48243D01*
X72823Y-48271D01*
X72804Y-48301D01*
X72788Y-48331D01*
X72775Y-48364D01*
X72764Y-48397D01*
X72757Y-48431D01*
X72752Y-48466D01*
X72750Y-48500D01*
G54D13*
X72537Y-49013D02*
X72584Y-49064D01*
X72635Y-49111D01*
X72690Y-49154D01*
X72749Y-49192D01*
X72811Y-49224D01*
X72876Y-49251D01*
X72942Y-49272D01*
X73010Y-49287D01*
X73079Y-49296D01*
X73149Y-49299D01*
X73150Y-49300D01*
X73150Y-49299D02*
X73219Y-49295D01*
X73288Y-49286D01*
X73356Y-49271D01*
X73423Y-49250D01*
X73487Y-49224D01*
X73549Y-49191D01*
X73608Y-49154D01*
X73663Y-49112D01*
X73714Y-49064D01*
X73762Y-49013D01*
X73804Y-48958D01*
X73841Y-48899D01*
X73854Y-48876D01*
X73149Y-47703D02*
X73080Y-47706D01*
X73011Y-47715D01*
X72943Y-47730D01*
X72876Y-47751D01*
X72812Y-47778D01*
X72750Y-47810D01*
X72692Y-47848D01*
X72636Y-47890D01*
X72585Y-47937D01*
X72541Y-47985D01*
X73844Y-48103D02*
X73806Y-48044D01*
X73764Y-47988D01*
X73717Y-47937D01*
X73666Y-47889D01*
X73611Y-47847D01*
X73552Y-47809D01*
X73490Y-47777D01*
X73426Y-47750D01*
X73359Y-47728D01*
X73291Y-47713D01*
X73222Y-47704D01*
X73152Y-47701D01*
X73150Y-47700D01*
X73854Y-48879D02*
X73884Y-48816D01*
X73909Y-48751D01*
X73928Y-48684D01*
X73941Y-48615D01*
X73948Y-48546D01*
X73950Y-48500D01*
X73949Y-48500D02*
X73945Y-48431D01*
X73936Y-48362D01*
X73921Y-48294D01*
X73900Y-48227D01*
X73874Y-48163D01*
X73841Y-48101D01*
X73830Y-48082D01*
X60530Y-48000D02*
X60530Y-49000D01*
G54D10*
X61610Y-48884D02*
X61642Y-48842D01*
X61670Y-48798D01*
X61694Y-48751D01*
X61714Y-48703D01*
X61730Y-48653D01*
X61741Y-48602D01*
X61747Y-48550D01*
X61750Y-48500D01*
X61749Y-48500D02*
X61746Y-48448D01*
X61739Y-48396D01*
X61728Y-48345D01*
X61712Y-48296D01*
X61692Y-48247D01*
X61668Y-48201D01*
X61640Y-48157D01*
X61608Y-48115D01*
X61597Y-48103D01*
X60551Y-48500D02*
X60554Y-48552D01*
X60561Y-48604D01*
X60572Y-48655D01*
X60588Y-48704D01*
X60608Y-48753D01*
X60632Y-48799D01*
X60660Y-48843D01*
X60692Y-48885D01*
X60696Y-48889D01*
X60690Y-48116D02*
X60658Y-48158D01*
X60630Y-48202D01*
X60606Y-48249D01*
X60586Y-48297D01*
X60570Y-48347D01*
X60559Y-48398D01*
X60553Y-48450D01*
X60550Y-48500D01*
X60663Y-48849D02*
X60695Y-48890D01*
X60731Y-48928D01*
X60770Y-48963D01*
X60812Y-48995D01*
X60856Y-49022D01*
X60903Y-49046D01*
X60951Y-49065D01*
X61001Y-49081D01*
X61053Y-49091D01*
X61104Y-49098D01*
X61150Y-49100D01*
X61150Y-49100D02*
X61202Y-49097D01*
X61254Y-49090D01*
X61305Y-49079D01*
X61355Y-49063D01*
X61403Y-49043D01*
X61450Y-49019D01*
X61494Y-48991D01*
X61535Y-48959D01*
X61574Y-48924D01*
X61609Y-48885D01*
X61629Y-48860D01*
X61150Y-47901D02*
X61098Y-47904D01*
X61046Y-47911D01*
X60995Y-47922D01*
X60946Y-47938D01*
X60897Y-47958D01*
X60851Y-47982D01*
X60807Y-48010D01*
X60765Y-48042D01*
X60727Y-48077D01*
X60692Y-48115D01*
X60678Y-48133D01*
X61623Y-48132D02*
X61589Y-48092D01*
X61552Y-48055D01*
X61511Y-48022D01*
X61468Y-47992D01*
X61423Y-47966D01*
X61375Y-47945D01*
X61326Y-47927D01*
X61275Y-47914D01*
X61224Y-47905D01*
X61171Y-47901D01*
X61150Y-47900D01*
X61150Y-48750D02*
X61171Y-48749D01*
X61193Y-48746D01*
X61214Y-48741D01*
X61235Y-48734D01*
X61255Y-48726D01*
X61275Y-48716D01*
X61293Y-48704D01*
X61310Y-48691D01*
X61326Y-48676D01*
X61341Y-48660D01*
X61354Y-48643D01*
X61366Y-48624D01*
X61376Y-48605D01*
X61384Y-48585D01*
X61391Y-48564D01*
X61396Y-48543D01*
X61399Y-48521D01*
X61400Y-48500D01*
X61150Y-48900D02*
X61184Y-48898D01*
X61219Y-48893D01*
X61253Y-48886D01*
X61286Y-48875D01*
X61319Y-48862D01*
X61350Y-48846D01*
X61379Y-48827D01*
X61407Y-48806D01*
X61432Y-48782D01*
X61456Y-48757D01*
X61477Y-48729D01*
X61496Y-48699D01*
X61512Y-48669D01*
X61525Y-48636D01*
X61536Y-48603D01*
X61543Y-48569D01*
X61548Y-48534D01*
X61550Y-48500D01*
X61150Y-48250D02*
X61129Y-48251D01*
X61107Y-48254D01*
X61086Y-48259D01*
X61065Y-48266D01*
X61045Y-48274D01*
X61026Y-48284D01*
X61007Y-48296D01*
X60990Y-48309D01*
X60974Y-48324D01*
X60959Y-48340D01*
X60946Y-48357D01*
X60934Y-48376D01*
X60924Y-48395D01*
X60916Y-48415D01*
X60909Y-48436D01*
X60904Y-48457D01*
X60901Y-48479D01*
X60900Y-48500D01*
X61150Y-48100D02*
X61116Y-48102D01*
X61081Y-48107D01*
X61047Y-48114D01*
X61014Y-48125D01*
X60981Y-48138D01*
X60951Y-48154D01*
X60921Y-48173D01*
X60893Y-48194D01*
X60868Y-48218D01*
X60844Y-48243D01*
X60823Y-48271D01*
X60804Y-48301D01*
X60788Y-48331D01*
X60775Y-48364D01*
X60764Y-48397D01*
X60757Y-48431D01*
X60752Y-48466D01*
X60750Y-48500D01*
G54D13*
X60537Y-49013D02*
X60584Y-49064D01*
X60635Y-49111D01*
X60690Y-49154D01*
X60749Y-49192D01*
X60811Y-49224D01*
X60876Y-49251D01*
X60942Y-49272D01*
X61010Y-49287D01*
X61079Y-49296D01*
X61149Y-49299D01*
X61150Y-49300D01*
X61150Y-49299D02*
X61219Y-49295D01*
X61288Y-49286D01*
X61356Y-49271D01*
X61423Y-49250D01*
X61487Y-49224D01*
X61549Y-49191D01*
X61608Y-49154D01*
X61663Y-49112D01*
X61714Y-49064D01*
X61762Y-49013D01*
X61804Y-48958D01*
X61841Y-48899D01*
X61854Y-48876D01*
X61149Y-47703D02*
X61080Y-47706D01*
X61011Y-47715D01*
X60943Y-47730D01*
X60876Y-47751D01*
X60812Y-47778D01*
X60750Y-47810D01*
X60692Y-47848D01*
X60636Y-47890D01*
X60585Y-47937D01*
X60541Y-47985D01*
X61844Y-48103D02*
X61806Y-48044D01*
X61764Y-47988D01*
X61717Y-47937D01*
X61666Y-47889D01*
X61611Y-47847D01*
X61552Y-47809D01*
X61490Y-47777D01*
X61426Y-47750D01*
X61359Y-47728D01*
X61291Y-47713D01*
X61222Y-47704D01*
X61152Y-47701D01*
X61150Y-47700D01*
X61854Y-48879D02*
X61884Y-48816D01*
X61909Y-48751D01*
X61928Y-48684D01*
X61941Y-48615D01*
X61948Y-48546D01*
X61950Y-48500D01*
X61949Y-48500D02*
X61945Y-48431D01*
X61936Y-48362D01*
X61921Y-48294D01*
X61900Y-48227D01*
X61874Y-48163D01*
X61841Y-48101D01*
X61830Y-48082D01*
X42530Y-48000D02*
X42530Y-49000D01*
G54D10*
X43610Y-48884D02*
X43642Y-48842D01*
X43670Y-48798D01*
X43694Y-48751D01*
X43714Y-48703D01*
X43730Y-48653D01*
X43741Y-48602D01*
X43747Y-48550D01*
X43750Y-48500D01*
X43749Y-48500D02*
X43746Y-48448D01*
X43739Y-48396D01*
X43728Y-48345D01*
X43712Y-48296D01*
X43692Y-48247D01*
X43668Y-48201D01*
X43640Y-48157D01*
X43608Y-48115D01*
X43597Y-48103D01*
X42551Y-48500D02*
X42554Y-48552D01*
X42561Y-48604D01*
X42572Y-48655D01*
X42588Y-48704D01*
X42608Y-48753D01*
X42632Y-48799D01*
X42660Y-48843D01*
X42692Y-48885D01*
X42696Y-48889D01*
X42690Y-48116D02*
X42658Y-48158D01*
X42630Y-48202D01*
X42606Y-48249D01*
X42586Y-48297D01*
X42570Y-48347D01*
X42559Y-48398D01*
X42553Y-48450D01*
X42550Y-48500D01*
X42663Y-48849D02*
X42695Y-48890D01*
X42731Y-48928D01*
X42770Y-48963D01*
X42812Y-48995D01*
X42856Y-49022D01*
X42903Y-49046D01*
X42951Y-49065D01*
X43001Y-49081D01*
X43053Y-49091D01*
X43104Y-49098D01*
X43150Y-49100D01*
X43150Y-49100D02*
X43202Y-49097D01*
X43254Y-49090D01*
X43305Y-49079D01*
X43355Y-49063D01*
X43403Y-49043D01*
X43450Y-49019D01*
X43494Y-48991D01*
X43535Y-48959D01*
X43574Y-48924D01*
X43609Y-48885D01*
X43629Y-48860D01*
X43150Y-47901D02*
X43098Y-47904D01*
X43046Y-47911D01*
X42995Y-47922D01*
X42946Y-47938D01*
X42897Y-47958D01*
X42851Y-47982D01*
X42807Y-48010D01*
X42765Y-48042D01*
X42727Y-48077D01*
X42692Y-48115D01*
X42678Y-48133D01*
X43623Y-48132D02*
X43589Y-48092D01*
X43552Y-48055D01*
X43511Y-48022D01*
X43468Y-47992D01*
X43423Y-47966D01*
X43375Y-47945D01*
X43326Y-47927D01*
X43275Y-47914D01*
X43224Y-47905D01*
X43171Y-47901D01*
X43150Y-47900D01*
X43150Y-48750D02*
X43171Y-48749D01*
X43193Y-48746D01*
X43214Y-48741D01*
X43235Y-48734D01*
X43255Y-48726D01*
X43275Y-48716D01*
X43293Y-48704D01*
X43310Y-48691D01*
X43326Y-48676D01*
X43341Y-48660D01*
X43354Y-48643D01*
X43366Y-48624D01*
X43376Y-48605D01*
X43384Y-48585D01*
X43391Y-48564D01*
X43396Y-48543D01*
X43399Y-48521D01*
X43400Y-48500D01*
X43150Y-48900D02*
X43184Y-48898D01*
X43219Y-48893D01*
X43253Y-48886D01*
X43286Y-48875D01*
X43319Y-48862D01*
X43350Y-48846D01*
X43379Y-48827D01*
X43407Y-48806D01*
X43432Y-48782D01*
X43456Y-48757D01*
X43477Y-48729D01*
X43496Y-48699D01*
X43512Y-48669D01*
X43525Y-48636D01*
X43536Y-48603D01*
X43543Y-48569D01*
X43548Y-48534D01*
X43550Y-48500D01*
X43150Y-48250D02*
X43129Y-48251D01*
X43107Y-48254D01*
X43086Y-48259D01*
X43065Y-48266D01*
X43045Y-48274D01*
X43026Y-48284D01*
X43007Y-48296D01*
X42990Y-48309D01*
X42974Y-48324D01*
X42959Y-48340D01*
X42946Y-48357D01*
X42934Y-48376D01*
X42924Y-48395D01*
X42916Y-48415D01*
X42909Y-48436D01*
X42904Y-48457D01*
X42901Y-48479D01*
X42900Y-48500D01*
X43150Y-48100D02*
X43116Y-48102D01*
X43081Y-48107D01*
X43047Y-48114D01*
X43014Y-48125D01*
X42981Y-48138D01*
X42951Y-48154D01*
X42921Y-48173D01*
X42893Y-48194D01*
X42868Y-48218D01*
X42844Y-48243D01*
X42823Y-48271D01*
X42804Y-48301D01*
X42788Y-48331D01*
X42775Y-48364D01*
X42764Y-48397D01*
X42757Y-48431D01*
X42752Y-48466D01*
X42750Y-48500D01*
G54D13*
X42537Y-49013D02*
X42584Y-49064D01*
X42635Y-49111D01*
X42690Y-49154D01*
X42749Y-49192D01*
X42811Y-49224D01*
X42876Y-49251D01*
X42942Y-49272D01*
X43010Y-49287D01*
X43079Y-49296D01*
X43149Y-49299D01*
X43150Y-49300D01*
X43150Y-49299D02*
X43219Y-49295D01*
X43288Y-49286D01*
X43356Y-49271D01*
X43423Y-49250D01*
X43487Y-49224D01*
X43549Y-49191D01*
X43608Y-49154D01*
X43663Y-49112D01*
X43714Y-49064D01*
X43762Y-49013D01*
X43804Y-48958D01*
X43841Y-48899D01*
X43854Y-48876D01*
X43149Y-47703D02*
X43080Y-47706D01*
X43011Y-47715D01*
X42943Y-47730D01*
X42876Y-47751D01*
X42812Y-47778D01*
X42750Y-47810D01*
X42692Y-47848D01*
X42636Y-47890D01*
X42585Y-47937D01*
X42541Y-47985D01*
X43844Y-48103D02*
X43806Y-48044D01*
X43764Y-47988D01*
X43717Y-47937D01*
X43666Y-47889D01*
X43611Y-47847D01*
X43552Y-47809D01*
X43490Y-47777D01*
X43426Y-47750D01*
X43359Y-47728D01*
X43291Y-47713D01*
X43222Y-47704D01*
X43152Y-47701D01*
X43150Y-47700D01*
X43854Y-48879D02*
X43884Y-48816D01*
X43909Y-48751D01*
X43928Y-48684D01*
X43941Y-48615D01*
X43948Y-48546D01*
X43950Y-48500D01*
X43949Y-48500D02*
X43945Y-48431D01*
X43936Y-48362D01*
X43921Y-48294D01*
X43900Y-48227D01*
X43874Y-48163D01*
X43841Y-48101D01*
X43830Y-48082D01*
X36530Y-48000D02*
X36530Y-49000D01*
G54D10*
X37610Y-48884D02*
X37642Y-48842D01*
X37670Y-48798D01*
X37694Y-48751D01*
X37714Y-48703D01*
X37730Y-48653D01*
X37741Y-48602D01*
X37747Y-48550D01*
X37750Y-48500D01*
X37749Y-48500D02*
X37746Y-48448D01*
X37739Y-48396D01*
X37728Y-48345D01*
X37712Y-48296D01*
X37692Y-48247D01*
X37668Y-48201D01*
X37640Y-48157D01*
X37608Y-48115D01*
X37597Y-48103D01*
X36551Y-48500D02*
X36554Y-48552D01*
X36561Y-48604D01*
X36572Y-48655D01*
X36588Y-48704D01*
X36608Y-48753D01*
X36632Y-48799D01*
X36660Y-48843D01*
X36692Y-48885D01*
X36696Y-48889D01*
X36690Y-48116D02*
X36658Y-48158D01*
X36630Y-48202D01*
X36606Y-48249D01*
X36586Y-48297D01*
X36570Y-48347D01*
X36559Y-48398D01*
X36553Y-48450D01*
X36550Y-48500D01*
X36663Y-48849D02*
X36695Y-48890D01*
X36731Y-48928D01*
X36770Y-48963D01*
X36812Y-48995D01*
X36856Y-49022D01*
X36903Y-49046D01*
X36951Y-49065D01*
X37001Y-49081D01*
X37053Y-49091D01*
X37104Y-49098D01*
X37150Y-49100D01*
X37150Y-49100D02*
X37202Y-49097D01*
X37254Y-49090D01*
X37305Y-49079D01*
X37355Y-49063D01*
X37403Y-49043D01*
X37450Y-49019D01*
X37494Y-48991D01*
X37535Y-48959D01*
X37574Y-48924D01*
X37609Y-48885D01*
X37629Y-48860D01*
X37150Y-47901D02*
X37098Y-47904D01*
X37046Y-47911D01*
X36995Y-47922D01*
X36946Y-47938D01*
X36897Y-47958D01*
X36851Y-47982D01*
X36807Y-48010D01*
X36765Y-48042D01*
X36727Y-48077D01*
X36692Y-48115D01*
X36678Y-48133D01*
X37623Y-48132D02*
X37589Y-48092D01*
X37552Y-48055D01*
X37511Y-48022D01*
X37468Y-47992D01*
X37423Y-47966D01*
X37375Y-47945D01*
X37326Y-47927D01*
X37275Y-47914D01*
X37224Y-47905D01*
X37171Y-47901D01*
X37150Y-47900D01*
X37150Y-48750D02*
X37171Y-48749D01*
X37193Y-48746D01*
X37214Y-48741D01*
X37235Y-48734D01*
X37255Y-48726D01*
X37275Y-48716D01*
X37293Y-48704D01*
X37310Y-48691D01*
X37326Y-48676D01*
X37341Y-48660D01*
X37354Y-48643D01*
X37366Y-48624D01*
X37376Y-48605D01*
X37384Y-48585D01*
X37391Y-48564D01*
X37396Y-48543D01*
X37399Y-48521D01*
X37400Y-48500D01*
X37150Y-48900D02*
X37184Y-48898D01*
X37219Y-48893D01*
X37253Y-48886D01*
X37286Y-48875D01*
X37319Y-48862D01*
X37350Y-48846D01*
X37379Y-48827D01*
X37407Y-48806D01*
X37432Y-48782D01*
X37456Y-48757D01*
X37477Y-48729D01*
X37496Y-48699D01*
X37512Y-48669D01*
X37525Y-48636D01*
X37536Y-48603D01*
X37543Y-48569D01*
X37548Y-48534D01*
X37550Y-48500D01*
X37150Y-48250D02*
X37129Y-48251D01*
X37107Y-48254D01*
X37086Y-48259D01*
X37065Y-48266D01*
X37045Y-48274D01*
X37026Y-48284D01*
X37007Y-48296D01*
X36990Y-48309D01*
X36974Y-48324D01*
X36959Y-48340D01*
X36946Y-48357D01*
X36934Y-48376D01*
X36924Y-48395D01*
X36916Y-48415D01*
X36909Y-48436D01*
X36904Y-48457D01*
X36901Y-48479D01*
X36900Y-48500D01*
X37150Y-48100D02*
X37116Y-48102D01*
X37081Y-48107D01*
X37047Y-48114D01*
X37014Y-48125D01*
X36981Y-48138D01*
X36951Y-48154D01*
X36921Y-48173D01*
X36893Y-48194D01*
X36868Y-48218D01*
X36844Y-48243D01*
X36823Y-48271D01*
X36804Y-48301D01*
X36788Y-48331D01*
X36775Y-48364D01*
X36764Y-48397D01*
X36757Y-48431D01*
X36752Y-48466D01*
X36750Y-48500D01*
G54D13*
X36537Y-49013D02*
X36584Y-49064D01*
X36635Y-49111D01*
X36690Y-49154D01*
X36749Y-49192D01*
X36811Y-49224D01*
X36876Y-49251D01*
X36942Y-49272D01*
X37010Y-49287D01*
X37079Y-49296D01*
X37149Y-49299D01*
X37150Y-49300D01*
X37150Y-49299D02*
X37219Y-49295D01*
X37288Y-49286D01*
X37356Y-49271D01*
X37423Y-49250D01*
X37487Y-49224D01*
X37549Y-49191D01*
X37608Y-49154D01*
X37663Y-49112D01*
X37714Y-49064D01*
X37762Y-49013D01*
X37804Y-48958D01*
X37841Y-48899D01*
X37854Y-48876D01*
X37149Y-47703D02*
X37080Y-47706D01*
X37011Y-47715D01*
X36943Y-47730D01*
X36876Y-47751D01*
X36812Y-47778D01*
X36750Y-47810D01*
X36692Y-47848D01*
X36636Y-47890D01*
X36585Y-47937D01*
X36541Y-47985D01*
X37844Y-48103D02*
X37806Y-48044D01*
X37764Y-47988D01*
X37717Y-47937D01*
X37666Y-47889D01*
X37611Y-47847D01*
X37552Y-47809D01*
X37490Y-47777D01*
X37426Y-47750D01*
X37359Y-47728D01*
X37291Y-47713D01*
X37222Y-47704D01*
X37152Y-47701D01*
X37150Y-47700D01*
X37854Y-48879D02*
X37884Y-48816D01*
X37909Y-48751D01*
X37928Y-48684D01*
X37941Y-48615D01*
X37948Y-48546D01*
X37950Y-48500D01*
X37949Y-48500D02*
X37945Y-48431D01*
X37936Y-48362D01*
X37921Y-48294D01*
X37900Y-48227D01*
X37874Y-48163D01*
X37841Y-48101D01*
X37830Y-48082D01*
X54530Y-48000D02*
X54530Y-49000D01*
G54D10*
X55610Y-48884D02*
X55642Y-48842D01*
X55670Y-48798D01*
X55694Y-48751D01*
X55714Y-48703D01*
X55730Y-48653D01*
X55741Y-48602D01*
X55747Y-48550D01*
X55750Y-48500D01*
X55749Y-48500D02*
X55746Y-48448D01*
X55739Y-48396D01*
X55728Y-48345D01*
X55712Y-48296D01*
X55692Y-48247D01*
X55668Y-48201D01*
X55640Y-48157D01*
X55608Y-48115D01*
X55597Y-48103D01*
X54551Y-48500D02*
X54554Y-48552D01*
X54561Y-48604D01*
X54572Y-48655D01*
X54588Y-48704D01*
X54608Y-48753D01*
X54632Y-48799D01*
X54660Y-48843D01*
X54692Y-48885D01*
X54696Y-48889D01*
X54690Y-48116D02*
X54658Y-48158D01*
X54630Y-48202D01*
X54606Y-48249D01*
X54586Y-48297D01*
X54570Y-48347D01*
X54559Y-48398D01*
X54553Y-48450D01*
X54550Y-48500D01*
X54663Y-48849D02*
X54695Y-48890D01*
X54731Y-48928D01*
X54770Y-48963D01*
X54812Y-48995D01*
X54856Y-49022D01*
X54903Y-49046D01*
X54951Y-49065D01*
X55001Y-49081D01*
X55053Y-49091D01*
X55104Y-49098D01*
X55150Y-49100D01*
X55150Y-49100D02*
X55202Y-49097D01*
X55254Y-49090D01*
X55305Y-49079D01*
X55355Y-49063D01*
X55403Y-49043D01*
X55450Y-49019D01*
X55494Y-48991D01*
X55535Y-48959D01*
X55574Y-48924D01*
X55609Y-48885D01*
X55629Y-48860D01*
X55150Y-47901D02*
X55098Y-47904D01*
X55046Y-47911D01*
X54995Y-47922D01*
X54946Y-47938D01*
X54897Y-47958D01*
X54851Y-47982D01*
X54807Y-48010D01*
X54765Y-48042D01*
X54727Y-48077D01*
X54692Y-48115D01*
X54678Y-48133D01*
X55623Y-48132D02*
X55589Y-48092D01*
X55552Y-48055D01*
X55511Y-48022D01*
X55468Y-47992D01*
X55423Y-47966D01*
X55375Y-47945D01*
X55326Y-47927D01*
X55275Y-47914D01*
X55224Y-47905D01*
X55171Y-47901D01*
X55150Y-47900D01*
X55150Y-48750D02*
X55171Y-48749D01*
X55193Y-48746D01*
X55214Y-48741D01*
X55235Y-48734D01*
X55255Y-48726D01*
X55275Y-48716D01*
X55293Y-48704D01*
X55310Y-48691D01*
X55326Y-48676D01*
X55341Y-48660D01*
X55354Y-48643D01*
X55366Y-48624D01*
X55376Y-48605D01*
X55384Y-48585D01*
X55391Y-48564D01*
X55396Y-48543D01*
X55399Y-48521D01*
X55400Y-48500D01*
X55150Y-48900D02*
X55184Y-48898D01*
X55219Y-48893D01*
X55253Y-48886D01*
X55286Y-48875D01*
X55319Y-48862D01*
X55350Y-48846D01*
X55379Y-48827D01*
X55407Y-48806D01*
X55432Y-48782D01*
X55456Y-48757D01*
X55477Y-48729D01*
X55496Y-48699D01*
X55512Y-48669D01*
X55525Y-48636D01*
X55536Y-48603D01*
X55543Y-48569D01*
X55548Y-48534D01*
X55550Y-48500D01*
X55150Y-48250D02*
X55129Y-48251D01*
X55107Y-48254D01*
X55086Y-48259D01*
X55065Y-48266D01*
X55045Y-48274D01*
X55026Y-48284D01*
X55007Y-48296D01*
X54990Y-48309D01*
X54974Y-48324D01*
X54959Y-48340D01*
X54946Y-48357D01*
X54934Y-48376D01*
X54924Y-48395D01*
X54916Y-48415D01*
X54909Y-48436D01*
X54904Y-48457D01*
X54901Y-48479D01*
X54900Y-48500D01*
X55150Y-48100D02*
X55116Y-48102D01*
X55081Y-48107D01*
X55047Y-48114D01*
X55014Y-48125D01*
X54981Y-48138D01*
X54951Y-48154D01*
X54921Y-48173D01*
X54893Y-48194D01*
X54868Y-48218D01*
X54844Y-48243D01*
X54823Y-48271D01*
X54804Y-48301D01*
X54788Y-48331D01*
X54775Y-48364D01*
X54764Y-48397D01*
X54757Y-48431D01*
X54752Y-48466D01*
X54750Y-48500D01*
G54D13*
X54537Y-49013D02*
X54584Y-49064D01*
X54635Y-49111D01*
X54690Y-49154D01*
X54749Y-49192D01*
X54811Y-49224D01*
X54876Y-49251D01*
X54942Y-49272D01*
X55010Y-49287D01*
X55079Y-49296D01*
X55149Y-49299D01*
X55150Y-49300D01*
X55150Y-49299D02*
X55219Y-49295D01*
X55288Y-49286D01*
X55356Y-49271D01*
X55423Y-49250D01*
X55487Y-49224D01*
X55549Y-49191D01*
X55608Y-49154D01*
X55663Y-49112D01*
X55714Y-49064D01*
X55762Y-49013D01*
X55804Y-48958D01*
X55841Y-48899D01*
X55854Y-48876D01*
X55149Y-47703D02*
X55080Y-47706D01*
X55011Y-47715D01*
X54943Y-47730D01*
X54876Y-47751D01*
X54812Y-47778D01*
X54750Y-47810D01*
X54692Y-47848D01*
X54636Y-47890D01*
X54585Y-47937D01*
X54541Y-47985D01*
X55844Y-48103D02*
X55806Y-48044D01*
X55764Y-47988D01*
X55717Y-47937D01*
X55666Y-47889D01*
X55611Y-47847D01*
X55552Y-47809D01*
X55490Y-47777D01*
X55426Y-47750D01*
X55359Y-47728D01*
X55291Y-47713D01*
X55222Y-47704D01*
X55152Y-47701D01*
X55150Y-47700D01*
X55854Y-48879D02*
X55884Y-48816D01*
X55909Y-48751D01*
X55928Y-48684D01*
X55941Y-48615D01*
X55948Y-48546D01*
X55950Y-48500D01*
X55949Y-48500D02*
X55945Y-48431D01*
X55936Y-48362D01*
X55921Y-48294D01*
X55900Y-48227D01*
X55874Y-48163D01*
X55841Y-48101D01*
X55830Y-48082D01*
X48530Y-48000D02*
X48530Y-49000D01*
G54D10*
X49610Y-48884D02*
X49642Y-48842D01*
X49670Y-48798D01*
X49694Y-48751D01*
X49714Y-48703D01*
X49730Y-48653D01*
X49741Y-48602D01*
X49747Y-48550D01*
X49750Y-48500D01*
X49749Y-48500D02*
X49746Y-48448D01*
X49739Y-48396D01*
X49728Y-48345D01*
X49712Y-48296D01*
X49692Y-48247D01*
X49668Y-48201D01*
X49640Y-48157D01*
X49608Y-48115D01*
X49597Y-48103D01*
X48551Y-48500D02*
X48554Y-48552D01*
X48561Y-48604D01*
X48572Y-48655D01*
X48588Y-48704D01*
X48608Y-48753D01*
X48632Y-48799D01*
X48660Y-48843D01*
X48692Y-48885D01*
X48696Y-48889D01*
X48690Y-48116D02*
X48658Y-48158D01*
X48630Y-48202D01*
X48606Y-48249D01*
X48586Y-48297D01*
X48570Y-48347D01*
X48559Y-48398D01*
X48553Y-48450D01*
X48550Y-48500D01*
X48663Y-48849D02*
X48695Y-48890D01*
X48731Y-48928D01*
X48770Y-48963D01*
X48812Y-48995D01*
X48856Y-49022D01*
X48903Y-49046D01*
X48951Y-49065D01*
X49001Y-49081D01*
X49053Y-49091D01*
X49104Y-49098D01*
X49150Y-49100D01*
X49150Y-49100D02*
X49202Y-49097D01*
X49254Y-49090D01*
X49305Y-49079D01*
X49355Y-49063D01*
X49403Y-49043D01*
X49450Y-49019D01*
X49494Y-48991D01*
X49535Y-48959D01*
X49574Y-48924D01*
X49609Y-48885D01*
X49629Y-48860D01*
X49150Y-47901D02*
X49098Y-47904D01*
X49046Y-47911D01*
X48995Y-47922D01*
X48946Y-47938D01*
X48897Y-47958D01*
X48851Y-47982D01*
X48807Y-48010D01*
X48765Y-48042D01*
X48727Y-48077D01*
X48692Y-48115D01*
X48678Y-48133D01*
X49623Y-48132D02*
X49589Y-48092D01*
X49552Y-48055D01*
X49511Y-48022D01*
X49468Y-47992D01*
X49423Y-47966D01*
X49375Y-47945D01*
X49326Y-47927D01*
X49275Y-47914D01*
X49224Y-47905D01*
X49171Y-47901D01*
X49150Y-47900D01*
X49150Y-48750D02*
X49171Y-48749D01*
X49193Y-48746D01*
X49214Y-48741D01*
X49235Y-48734D01*
X49255Y-48726D01*
X49275Y-48716D01*
X49293Y-48704D01*
X49310Y-48691D01*
X49326Y-48676D01*
X49341Y-48660D01*
X49354Y-48643D01*
X49366Y-48624D01*
X49376Y-48605D01*
X49384Y-48585D01*
X49391Y-48564D01*
X49396Y-48543D01*
X49399Y-48521D01*
X49400Y-48500D01*
X49150Y-48900D02*
X49184Y-48898D01*
X49219Y-48893D01*
X49253Y-48886D01*
X49286Y-48875D01*
X49319Y-48862D01*
X49350Y-48846D01*
X49379Y-48827D01*
X49407Y-48806D01*
X49432Y-48782D01*
X49456Y-48757D01*
X49477Y-48729D01*
X49496Y-48699D01*
X49512Y-48669D01*
X49525Y-48636D01*
X49536Y-48603D01*
X49543Y-48569D01*
X49548Y-48534D01*
X49550Y-48500D01*
X49150Y-48250D02*
X49129Y-48251D01*
X49107Y-48254D01*
X49086Y-48259D01*
X49065Y-48266D01*
X49045Y-48274D01*
X49026Y-48284D01*
X49007Y-48296D01*
X48990Y-48309D01*
X48974Y-48324D01*
X48959Y-48340D01*
X48946Y-48357D01*
X48934Y-48376D01*
X48924Y-48395D01*
X48916Y-48415D01*
X48909Y-48436D01*
X48904Y-48457D01*
X48901Y-48479D01*
X48900Y-48500D01*
X49150Y-48100D02*
X49116Y-48102D01*
X49081Y-48107D01*
X49047Y-48114D01*
X49014Y-48125D01*
X48981Y-48138D01*
X48951Y-48154D01*
X48921Y-48173D01*
X48893Y-48194D01*
X48868Y-48218D01*
X48844Y-48243D01*
X48823Y-48271D01*
X48804Y-48301D01*
X48788Y-48331D01*
X48775Y-48364D01*
X48764Y-48397D01*
X48757Y-48431D01*
X48752Y-48466D01*
X48750Y-48500D01*
G54D13*
X48537Y-49013D02*
X48584Y-49064D01*
X48635Y-49111D01*
X48690Y-49154D01*
X48749Y-49192D01*
X48811Y-49224D01*
X48876Y-49251D01*
X48942Y-49272D01*
X49010Y-49287D01*
X49079Y-49296D01*
X49149Y-49299D01*
X49150Y-49300D01*
X49150Y-49299D02*
X49219Y-49295D01*
X49288Y-49286D01*
X49356Y-49271D01*
X49423Y-49250D01*
X49487Y-49224D01*
X49549Y-49191D01*
X49608Y-49154D01*
X49663Y-49112D01*
X49714Y-49064D01*
X49762Y-49013D01*
X49804Y-48958D01*
X49841Y-48899D01*
X49854Y-48876D01*
X49149Y-47703D02*
X49080Y-47706D01*
X49011Y-47715D01*
X48943Y-47730D01*
X48876Y-47751D01*
X48812Y-47778D01*
X48750Y-47810D01*
X48692Y-47848D01*
X48636Y-47890D01*
X48585Y-47937D01*
X48541Y-47985D01*
X49844Y-48103D02*
X49806Y-48044D01*
X49764Y-47988D01*
X49717Y-47937D01*
X49666Y-47889D01*
X49611Y-47847D01*
X49552Y-47809D01*
X49490Y-47777D01*
X49426Y-47750D01*
X49359Y-47728D01*
X49291Y-47713D01*
X49222Y-47704D01*
X49152Y-47701D01*
X49150Y-47700D01*
X49854Y-48879D02*
X49884Y-48816D01*
X49909Y-48751D01*
X49928Y-48684D01*
X49941Y-48615D01*
X49948Y-48546D01*
X49950Y-48500D01*
X49949Y-48500D02*
X49945Y-48431D01*
X49936Y-48362D01*
X49921Y-48294D01*
X49900Y-48227D01*
X49874Y-48163D01*
X49841Y-48101D01*
X49830Y-48082D01*
G54D10*
X34750Y-36250D02*
X34750Y-37250D01*
X34750Y-37250D02*
X32750Y-37250D01*
X32750Y-37250D02*
X32750Y-36250D01*
X32750Y-36250D02*
X34750Y-36250D01*
X67000Y-21000D02*
X67000Y-22000D01*
X67000Y-22000D02*
X64000Y-22000D01*
X64000Y-22000D02*
X64000Y-21000D01*
X64000Y-21000D02*
X67000Y-21000D01*
G54D12*
X62250Y-22000D02*
X62250Y-21000D01*
X62250Y-21000D02*
X58250Y-21000D01*
X58250Y-21000D02*
X58250Y-22000D01*
X58250Y-22000D02*
X62250Y-22000D01*
G54D11*
X38250Y-34250D02*
X37850Y-34250D01*
X37850Y-34250D02*
X37850Y-34650D01*
X37850Y-34650D02*
X34650Y-34650D01*
X34650Y-34650D02*
X34650Y-33850D01*
X34650Y-33850D02*
X37850Y-33850D01*
X37850Y-33850D02*
X37850Y-34250D01*
X37850Y-34450D02*
X37650Y-34650D01*
X34250Y-34250D02*
X34650Y-34250D01*
G54D12*
X31600Y-31050D02*
X35200Y-31050D01*
X35200Y-31050D02*
X35200Y-23050D01*
X35200Y-23050D02*
X31600Y-23050D01*
X31600Y-23050D02*
X31600Y-31050D01*
X35400Y-29050D02*
X36000Y-29550D01*
X36000Y-29550D02*
X36000Y-28550D01*
X36000Y-28550D02*
X35400Y-29050D01*
X35750Y-43500D02*
X32250Y-43500D01*
X32250Y-43500D02*
X32250Y-41500D01*
X32250Y-41500D02*
X35750Y-41500D01*
X35750Y-41500D02*
X35750Y-43500D01*
X35750Y-42750D02*
X35250Y-42750D01*
X35250Y-42750D02*
X35250Y-42250D01*
X35250Y-42250D02*
X35750Y-42250D01*
X41750Y-43500D02*
X38250Y-43500D01*
X38250Y-43500D02*
X38250Y-41500D01*
X38250Y-41500D02*
X41750Y-41500D01*
X41750Y-41500D02*
X41750Y-43500D01*
X41750Y-42750D02*
X41250Y-42750D01*
X41250Y-42750D02*
X41250Y-42250D01*
X41250Y-42250D02*
X41750Y-42250D01*
X47750Y-43500D02*
X44250Y-43500D01*
X44250Y-43500D02*
X44250Y-41500D01*
X44250Y-41500D02*
X47750Y-41500D01*
X47750Y-41500D02*
X47750Y-43500D01*
X47750Y-42750D02*
X47250Y-42750D01*
X47250Y-42750D02*
X47250Y-42250D01*
X47250Y-42250D02*
X47750Y-42250D01*
X53750Y-43500D02*
X50250Y-43500D01*
X50250Y-43500D02*
X50250Y-41500D01*
X50250Y-41500D02*
X53750Y-41500D01*
X53750Y-41500D02*
X53750Y-43500D01*
X53750Y-42750D02*
X53250Y-42750D01*
X53250Y-42750D02*
X53250Y-42250D01*
X53250Y-42250D02*
X53750Y-42250D01*
X59750Y-43500D02*
X56250Y-43500D01*
X56250Y-43500D02*
X56250Y-41500D01*
X56250Y-41500D02*
X59750Y-41500D01*
X59750Y-41500D02*
X59750Y-43500D01*
X59750Y-42750D02*
X59250Y-42750D01*
X59250Y-42750D02*
X59250Y-42250D01*
X59250Y-42250D02*
X59750Y-42250D01*
X65750Y-43500D02*
X62250Y-43500D01*
X62250Y-43500D02*
X62250Y-41500D01*
X62250Y-41500D02*
X65750Y-41500D01*
X65750Y-41500D02*
X65750Y-43500D01*
X65750Y-42750D02*
X65250Y-42750D01*
X65250Y-42750D02*
X65250Y-42250D01*
X65250Y-42250D02*
X65750Y-42250D01*
X71750Y-43500D02*
X68250Y-43500D01*
X68250Y-43500D02*
X68250Y-41500D01*
X68250Y-41500D02*
X71750Y-41500D01*
X71750Y-41500D02*
X71750Y-43500D01*
X71750Y-42750D02*
X71250Y-42750D01*
X71250Y-42750D02*
X71250Y-42250D01*
X71250Y-42250D02*
X71750Y-42250D01*
X77750Y-43500D02*
X74250Y-43500D01*
X74250Y-43500D02*
X74250Y-41500D01*
X74250Y-41500D02*
X77750Y-41500D01*
X77750Y-41500D02*
X77750Y-43500D01*
X77750Y-42750D02*
X77250Y-42750D01*
X77250Y-42750D02*
X77250Y-42250D01*
X77250Y-42250D02*
X77750Y-42250D01*
X35850Y-49850D02*
X35850Y-47150D01*
X35850Y-47150D02*
X32650Y-47150D01*
X32650Y-47150D02*
X32650Y-49850D01*
X32650Y-49850D02*
X35850Y-49850D01*
X41850Y-49850D02*
X41850Y-47150D01*
X41850Y-47150D02*
X38650Y-47150D01*
X38650Y-47150D02*
X38650Y-49850D01*
X38650Y-49850D02*
X41850Y-49850D01*
X47850Y-49850D02*
X47850Y-47150D01*
X47850Y-47150D02*
X44650Y-47150D01*
X44650Y-47150D02*
X44650Y-49850D01*
X44650Y-49850D02*
X47850Y-49850D01*
X53850Y-49850D02*
X53850Y-47150D01*
X53850Y-47150D02*
X50650Y-47150D01*
X50650Y-47150D02*
X50650Y-49850D01*
X50650Y-49850D02*
X53850Y-49850D01*
X59850Y-49850D02*
X59850Y-47150D01*
X59850Y-47150D02*
X56650Y-47150D01*
X56650Y-47150D02*
X56650Y-49850D01*
X56650Y-49850D02*
X59850Y-49850D01*
X65850Y-49850D02*
X65850Y-47150D01*
X65850Y-47150D02*
X62650Y-47150D01*
X62650Y-47150D02*
X62650Y-49850D01*
X62650Y-49850D02*
X65850Y-49850D01*
X71850Y-49850D02*
X71850Y-47150D01*
X71850Y-47150D02*
X68650Y-47150D01*
X68650Y-47150D02*
X68650Y-49850D01*
X68650Y-49850D02*
X71850Y-49850D01*
X77850Y-49850D02*
X77850Y-47150D01*
X77850Y-47150D02*
X74650Y-47150D01*
X74650Y-47150D02*
X74650Y-49850D01*
X74650Y-49850D02*
X77850Y-49850D01*
G54D11*
X56500Y-22000D02*
X56500Y-21000D01*
X51500Y-21000D02*
X51500Y-22000D01*
X56500Y-22000D02*
X51500Y-22000D01*
X51500Y-21000D02*
X56500Y-21000D01*
G54D12*
X78200Y-19650D02*
X74800Y-19650D01*
X78200Y-19950D02*
X78200Y-19650D01*
X74800Y-19650D02*
X74800Y-19950D01*
X78200Y-21150D02*
X74800Y-21150D01*
X78200Y-24950D02*
X74800Y-24950D01*
X74800Y-19950D02*
X74800Y-24950D01*
X78200Y-19950D02*
X78200Y-24950D01*
G54D11*
X45143Y-27707D02*
X45629Y-27707D01*
X45686Y-27679D01*
X45714Y-27650D01*
X45743Y-27593D01*
X45743Y-27479D01*
X45714Y-27421D01*
X45686Y-27393D01*
X45629Y-27364D01*
X45143Y-27364D01*
X45743Y-26764D02*
X45743Y-27107D01*
X45743Y-26935D02*
X45143Y-26935D01*
X45229Y-26992D01*
X45286Y-27050D01*
X45314Y-27107D01*
X43571Y-31008D02*
X43571Y-30722D01*
X43743Y-31065D02*
X43143Y-30865D01*
X43743Y-30665D01*
X43743Y-30122D02*
X43457Y-30322D01*
X43743Y-30465D02*
X43143Y-30465D01*
X43143Y-30237D01*
X43171Y-30179D01*
X43200Y-30151D01*
X43257Y-30122D01*
X43343Y-30122D01*
X43400Y-30151D01*
X43429Y-30179D01*
X43457Y-30237D01*
X43457Y-30465D01*
X43743Y-29865D02*
X43143Y-29865D01*
X43143Y-29722D01*
X43171Y-29637D01*
X43229Y-29579D01*
X43286Y-29551D01*
X43400Y-29522D01*
X43486Y-29522D01*
X43600Y-29551D01*
X43657Y-29579D01*
X43714Y-29637D01*
X43743Y-29722D01*
X43743Y-29865D01*
X43143Y-29265D02*
X43629Y-29265D01*
X43686Y-29237D01*
X43714Y-29208D01*
X43743Y-29151D01*
X43743Y-29037D01*
X43714Y-28979D01*
X43686Y-28951D01*
X43629Y-28922D01*
X43143Y-28922D01*
X43743Y-28636D02*
X43143Y-28636D01*
X43743Y-28350D02*
X43143Y-28350D01*
X43743Y-28007D01*
X43143Y-28007D01*
X43143Y-27607D02*
X43143Y-27493D01*
X43171Y-27435D01*
X43229Y-27378D01*
X43343Y-27350D01*
X43543Y-27350D01*
X43657Y-27378D01*
X43714Y-27435D01*
X43743Y-27493D01*
X43743Y-27607D01*
X43714Y-27664D01*
X43657Y-27721D01*
X43543Y-27750D01*
X43343Y-27750D01*
X43229Y-27721D01*
X43171Y-27664D01*
X43143Y-27607D01*
X43800Y-27235D02*
X43800Y-26778D01*
X43743Y-26635D02*
X43143Y-26635D01*
X43743Y-26292D01*
X43143Y-26292D01*
X43571Y-26035D02*
X43571Y-25749D01*
X43743Y-26092D02*
X43143Y-25892D01*
X43743Y-25692D01*
X43743Y-25492D02*
X43143Y-25492D01*
X43743Y-25149D01*
X43143Y-25149D01*
X43143Y-24749D02*
X43143Y-24635D01*
X43171Y-24577D01*
X43229Y-24520D01*
X43343Y-24492D01*
X43543Y-24492D01*
X43657Y-24520D01*
X43714Y-24577D01*
X43743Y-24635D01*
X43743Y-24749D01*
X43714Y-24806D01*
X43657Y-24863D01*
X43543Y-24892D01*
X43343Y-24892D01*
X43229Y-24863D01*
X43171Y-24806D01*
X43143Y-24749D01*
G54D14*
X37434Y-36124D02*
X37415Y-36143D01*
X37358Y-36162D01*
X37320Y-36162D01*
X37262Y-36143D01*
X37224Y-36105D01*
X37205Y-36067D01*
X37186Y-35990D01*
X37186Y-35933D01*
X37205Y-35857D01*
X37224Y-35819D01*
X37262Y-35781D01*
X37320Y-35762D01*
X37358Y-35762D01*
X37415Y-35781D01*
X37434Y-35800D01*
X37815Y-36162D02*
X37586Y-36162D01*
X37700Y-36162D02*
X37700Y-35762D01*
X37662Y-35819D01*
X37624Y-35857D01*
X37586Y-35876D01*
G54D15*
X51200Y-32993D02*
X51050Y-32707D01*
X50943Y-32993D02*
X50943Y-32393D01*
X51115Y-32393D01*
X51157Y-32421D01*
X51179Y-32450D01*
X51200Y-32507D01*
X51200Y-32593D01*
X51179Y-32650D01*
X51157Y-32679D01*
X51115Y-32707D01*
X50943Y-32707D01*
X51393Y-32993D02*
X51393Y-32393D01*
X51565Y-32393D01*
X51607Y-32421D01*
X51629Y-32450D01*
X51650Y-32507D01*
X51650Y-32593D01*
X51629Y-32650D01*
X51607Y-32679D01*
X51565Y-32707D01*
X51393Y-32707D01*
X51822Y-32450D02*
X51843Y-32421D01*
X51886Y-32393D01*
X51993Y-32393D01*
X52036Y-32421D01*
X52057Y-32450D01*
X52079Y-32507D01*
X52079Y-32564D01*
X52057Y-32650D01*
X51800Y-32993D01*
X52079Y-32993D01*
X64200Y-32993D02*
X64050Y-32707D01*
X63943Y-32993D02*
X63943Y-32393D01*
X64115Y-32393D01*
X64157Y-32421D01*
X64179Y-32450D01*
X64200Y-32507D01*
X64200Y-32593D01*
X64179Y-32650D01*
X64157Y-32679D01*
X64115Y-32707D01*
X63943Y-32707D01*
X64393Y-32993D02*
X64393Y-32393D01*
X64565Y-32393D01*
X64607Y-32421D01*
X64629Y-32450D01*
X64650Y-32507D01*
X64650Y-32593D01*
X64629Y-32650D01*
X64607Y-32679D01*
X64565Y-32707D01*
X64393Y-32707D01*
X65079Y-32993D02*
X64822Y-32993D01*
X64950Y-32993D02*
X64950Y-32393D01*
X64907Y-32479D01*
X64865Y-32536D01*
X64822Y-32564D01*
G54D16*
X78328Y-49721D02*
X78328Y-49421D01*
X78400Y-49421D01*
X78443Y-49436D01*
X78471Y-49464D01*
X78486Y-49493D01*
X78500Y-49550D01*
X78500Y-49593D01*
X78486Y-49650D01*
X78471Y-49679D01*
X78443Y-49707D01*
X78400Y-49721D01*
X78328Y-49721D01*
X78786Y-49721D02*
X78614Y-49721D01*
X78700Y-49721D02*
X78700Y-49421D01*
X78671Y-49464D01*
X78643Y-49493D01*
X78614Y-49507D01*
X79057Y-47621D02*
X78914Y-47621D01*
X78914Y-47321D01*
X79157Y-47464D02*
X79257Y-47464D01*
X79300Y-47621D02*
X79157Y-47621D01*
X79157Y-47321D01*
X79300Y-47321D01*
X79428Y-47621D02*
X79428Y-47321D01*
X79500Y-47321D01*
X79543Y-47336D01*
X79571Y-47364D01*
X79586Y-47393D01*
X79600Y-47450D01*
X79600Y-47493D01*
X79586Y-47550D01*
X79571Y-47579D01*
X79543Y-47607D01*
X79500Y-47621D01*
X79428Y-47621D01*
X66328Y-49721D02*
X66328Y-49421D01*
X66400Y-49421D01*
X66443Y-49436D01*
X66471Y-49464D01*
X66486Y-49493D01*
X66500Y-49550D01*
X66500Y-49593D01*
X66486Y-49650D01*
X66471Y-49679D01*
X66443Y-49707D01*
X66400Y-49721D01*
X66328Y-49721D01*
X66600Y-49421D02*
X66786Y-49421D01*
X66686Y-49536D01*
X66728Y-49536D01*
X66757Y-49550D01*
X66771Y-49564D01*
X66786Y-49593D01*
X66786Y-49664D01*
X66771Y-49693D01*
X66757Y-49707D01*
X66728Y-49721D01*
X66643Y-49721D01*
X66614Y-49707D01*
X66600Y-49693D01*
X67057Y-47621D02*
X66914Y-47621D01*
X66914Y-47321D01*
X67157Y-47464D02*
X67257Y-47464D01*
X67300Y-47621D02*
X67157Y-47621D01*
X67157Y-47321D01*
X67300Y-47321D01*
X67428Y-47621D02*
X67428Y-47321D01*
X67500Y-47321D01*
X67543Y-47336D01*
X67571Y-47364D01*
X67586Y-47393D01*
X67600Y-47450D01*
X67600Y-47493D01*
X67586Y-47550D01*
X67571Y-47579D01*
X67543Y-47607D01*
X67500Y-47621D01*
X67428Y-47621D01*
X72328Y-49721D02*
X72328Y-49421D01*
X72400Y-49421D01*
X72443Y-49436D01*
X72471Y-49464D01*
X72486Y-49493D01*
X72500Y-49550D01*
X72500Y-49593D01*
X72486Y-49650D01*
X72471Y-49679D01*
X72443Y-49707D01*
X72400Y-49721D01*
X72328Y-49721D01*
X72614Y-49450D02*
X72628Y-49436D01*
X72657Y-49421D01*
X72728Y-49421D01*
X72757Y-49436D01*
X72771Y-49450D01*
X72786Y-49479D01*
X72786Y-49507D01*
X72771Y-49550D01*
X72600Y-49721D01*
X72786Y-49721D01*
X73057Y-47621D02*
X72914Y-47621D01*
X72914Y-47321D01*
X73157Y-47464D02*
X73257Y-47464D01*
X73300Y-47621D02*
X73157Y-47621D01*
X73157Y-47321D01*
X73300Y-47321D01*
X73428Y-47621D02*
X73428Y-47321D01*
X73500Y-47321D01*
X73543Y-47336D01*
X73571Y-47364D01*
X73586Y-47393D01*
X73600Y-47450D01*
X73600Y-47493D01*
X73586Y-47550D01*
X73571Y-47579D01*
X73543Y-47607D01*
X73500Y-47621D01*
X73428Y-47621D01*
X60328Y-49721D02*
X60328Y-49421D01*
X60400Y-49421D01*
X60443Y-49436D01*
X60471Y-49464D01*
X60486Y-49493D01*
X60500Y-49550D01*
X60500Y-49593D01*
X60486Y-49650D01*
X60471Y-49679D01*
X60443Y-49707D01*
X60400Y-49721D01*
X60328Y-49721D01*
X60757Y-49521D02*
X60757Y-49721D01*
X60686Y-49407D02*
X60614Y-49621D01*
X60800Y-49621D01*
X61057Y-47621D02*
X60914Y-47621D01*
X60914Y-47321D01*
X61157Y-47464D02*
X61257Y-47464D01*
X61300Y-47621D02*
X61157Y-47621D01*
X61157Y-47321D01*
X61300Y-47321D01*
X61428Y-47621D02*
X61428Y-47321D01*
X61500Y-47321D01*
X61543Y-47336D01*
X61571Y-47364D01*
X61586Y-47393D01*
X61600Y-47450D01*
X61600Y-47493D01*
X61586Y-47550D01*
X61571Y-47579D01*
X61543Y-47607D01*
X61500Y-47621D01*
X61428Y-47621D01*
X42328Y-49721D02*
X42328Y-49421D01*
X42400Y-49421D01*
X42443Y-49436D01*
X42471Y-49464D01*
X42486Y-49493D01*
X42500Y-49550D01*
X42500Y-49593D01*
X42486Y-49650D01*
X42471Y-49679D01*
X42443Y-49707D01*
X42400Y-49721D01*
X42328Y-49721D01*
X42600Y-49421D02*
X42800Y-49421D01*
X42671Y-49721D01*
X43057Y-47621D02*
X42914Y-47621D01*
X42914Y-47321D01*
X43157Y-47464D02*
X43257Y-47464D01*
X43300Y-47621D02*
X43157Y-47621D01*
X43157Y-47321D01*
X43300Y-47321D01*
X43428Y-47621D02*
X43428Y-47321D01*
X43500Y-47321D01*
X43543Y-47336D01*
X43571Y-47364D01*
X43586Y-47393D01*
X43600Y-47450D01*
X43600Y-47493D01*
X43586Y-47550D01*
X43571Y-47579D01*
X43543Y-47607D01*
X43500Y-47621D01*
X43428Y-47621D01*
X36328Y-49721D02*
X36328Y-49421D01*
X36400Y-49421D01*
X36443Y-49436D01*
X36471Y-49464D01*
X36486Y-49493D01*
X36500Y-49550D01*
X36500Y-49593D01*
X36486Y-49650D01*
X36471Y-49679D01*
X36443Y-49707D01*
X36400Y-49721D01*
X36328Y-49721D01*
X36671Y-49550D02*
X36643Y-49536D01*
X36628Y-49521D01*
X36614Y-49493D01*
X36614Y-49479D01*
X36628Y-49450D01*
X36643Y-49436D01*
X36671Y-49421D01*
X36728Y-49421D01*
X36757Y-49436D01*
X36771Y-49450D01*
X36786Y-49479D01*
X36786Y-49493D01*
X36771Y-49521D01*
X36757Y-49536D01*
X36728Y-49550D01*
X36671Y-49550D01*
X36643Y-49564D01*
X36628Y-49579D01*
X36614Y-49607D01*
X36614Y-49664D01*
X36628Y-49693D01*
X36643Y-49707D01*
X36671Y-49721D01*
X36728Y-49721D01*
X36757Y-49707D01*
X36771Y-49693D01*
X36786Y-49664D01*
X36786Y-49607D01*
X36771Y-49579D01*
X36757Y-49564D01*
X36728Y-49550D01*
X37057Y-47621D02*
X36914Y-47621D01*
X36914Y-47321D01*
X37157Y-47464D02*
X37257Y-47464D01*
X37300Y-47621D02*
X37157Y-47621D01*
X37157Y-47321D01*
X37300Y-47321D01*
X37428Y-47621D02*
X37428Y-47321D01*
X37500Y-47321D01*
X37543Y-47336D01*
X37571Y-47364D01*
X37586Y-47393D01*
X37600Y-47450D01*
X37600Y-47493D01*
X37586Y-47550D01*
X37571Y-47579D01*
X37543Y-47607D01*
X37500Y-47621D01*
X37428Y-47621D01*
X54328Y-49721D02*
X54328Y-49421D01*
X54400Y-49421D01*
X54443Y-49436D01*
X54471Y-49464D01*
X54486Y-49493D01*
X54500Y-49550D01*
X54500Y-49593D01*
X54486Y-49650D01*
X54471Y-49679D01*
X54443Y-49707D01*
X54400Y-49721D01*
X54328Y-49721D01*
X54771Y-49421D02*
X54628Y-49421D01*
X54614Y-49564D01*
X54628Y-49550D01*
X54657Y-49536D01*
X54728Y-49536D01*
X54757Y-49550D01*
X54771Y-49564D01*
X54786Y-49593D01*
X54786Y-49664D01*
X54771Y-49693D01*
X54757Y-49707D01*
X54728Y-49721D01*
X54657Y-49721D01*
X54628Y-49707D01*
X54614Y-49693D01*
X55057Y-47621D02*
X54914Y-47621D01*
X54914Y-47321D01*
X55157Y-47464D02*
X55257Y-47464D01*
X55300Y-47621D02*
X55157Y-47621D01*
X55157Y-47321D01*
X55300Y-47321D01*
X55428Y-47621D02*
X55428Y-47321D01*
X55500Y-47321D01*
X55543Y-47336D01*
X55571Y-47364D01*
X55586Y-47393D01*
X55600Y-47450D01*
X55600Y-47493D01*
X55586Y-47550D01*
X55571Y-47579D01*
X55543Y-47607D01*
X55500Y-47621D01*
X55428Y-47621D01*
X48328Y-49721D02*
X48328Y-49421D01*
X48400Y-49421D01*
X48443Y-49436D01*
X48471Y-49464D01*
X48486Y-49493D01*
X48500Y-49550D01*
X48500Y-49593D01*
X48486Y-49650D01*
X48471Y-49679D01*
X48443Y-49707D01*
X48400Y-49721D01*
X48328Y-49721D01*
X48757Y-49421D02*
X48700Y-49421D01*
X48671Y-49436D01*
X48657Y-49450D01*
X48628Y-49493D01*
X48614Y-49550D01*
X48614Y-49664D01*
X48628Y-49693D01*
X48643Y-49707D01*
X48671Y-49721D01*
X48728Y-49721D01*
X48757Y-49707D01*
X48771Y-49693D01*
X48786Y-49664D01*
X48786Y-49593D01*
X48771Y-49564D01*
X48757Y-49550D01*
X48728Y-49536D01*
X48671Y-49536D01*
X48643Y-49550D01*
X48628Y-49564D01*
X48614Y-49593D01*
X49057Y-47621D02*
X48914Y-47621D01*
X48914Y-47321D01*
X49157Y-47464D02*
X49257Y-47464D01*
X49300Y-47621D02*
X49157Y-47621D01*
X49157Y-47321D01*
X49300Y-47321D01*
X49428Y-47621D02*
X49428Y-47321D01*
X49500Y-47321D01*
X49543Y-47336D01*
X49571Y-47364D01*
X49586Y-47393D01*
X49600Y-47450D01*
X49600Y-47493D01*
X49586Y-47550D01*
X49571Y-47579D01*
X49543Y-47607D01*
X49500Y-47621D01*
X49428Y-47621D01*
G54D10*
X33528Y-37621D02*
X33528Y-37321D01*
X33643Y-37321D01*
X33671Y-37336D01*
X33686Y-37350D01*
X33700Y-37379D01*
X33700Y-37421D01*
X33686Y-37450D01*
X33671Y-37464D01*
X33643Y-37479D01*
X33528Y-37479D01*
X33957Y-37421D02*
X33957Y-37621D01*
X33886Y-37307D02*
X33814Y-37521D01*
X34000Y-37521D01*
X63205Y-21662D02*
X63205Y-21262D01*
X63434Y-21662D02*
X63262Y-21433D01*
X63434Y-21262D02*
X63205Y-21490D01*
X63815Y-21662D02*
X63586Y-21662D01*
X63700Y-21662D02*
X63700Y-21262D01*
X63662Y-21319D01*
X63624Y-21357D01*
X63586Y-21376D01*
G54D14*
X57455Y-21662D02*
X57455Y-21262D01*
X57608Y-21262D01*
X57646Y-21281D01*
X57665Y-21300D01*
X57684Y-21338D01*
X57684Y-21395D01*
X57665Y-21433D01*
X57646Y-21452D01*
X57608Y-21471D01*
X57455Y-21471D01*
X57817Y-21262D02*
X58065Y-21262D01*
X57931Y-21414D01*
X57989Y-21414D01*
X58027Y-21433D01*
X58046Y-21452D01*
X58065Y-21490D01*
X58065Y-21586D01*
X58046Y-21624D01*
X58027Y-21643D01*
X57989Y-21662D01*
X57874Y-21662D01*
X57836Y-21643D01*
X57817Y-21624D01*
X36167Y-33473D02*
X36000Y-33211D01*
X35881Y-33473D02*
X35881Y-32923D01*
X36072Y-32923D01*
X36119Y-32949D01*
X36143Y-32975D01*
X36167Y-33027D01*
X36167Y-33106D01*
X36143Y-33158D01*
X36119Y-33185D01*
X36072Y-33211D01*
X35881Y-33211D01*
X36643Y-33473D02*
X36357Y-33473D01*
X36500Y-33473D02*
X36500Y-32923D01*
X36452Y-33001D01*
X36405Y-33054D01*
X36357Y-33080D01*
G54D13*
X31262Y-27345D02*
X30862Y-27345D01*
X30862Y-27192D01*
X30881Y-27154D01*
X30900Y-27135D01*
X30938Y-27116D01*
X30995Y-27116D01*
X31033Y-27135D01*
X31052Y-27154D01*
X31071Y-27192D01*
X31071Y-27345D01*
X30900Y-26964D02*
X30881Y-26945D01*
X30862Y-26907D01*
X30862Y-26811D01*
X30881Y-26773D01*
X30900Y-26754D01*
X30938Y-26735D01*
X30976Y-26735D01*
X31033Y-26754D01*
X31262Y-26983D01*
X31262Y-26735D01*
X31900Y-29164D02*
X31881Y-29145D01*
X31862Y-29107D01*
X31862Y-29011D01*
X31881Y-28973D01*
X31900Y-28954D01*
X31938Y-28935D01*
X31976Y-28935D01*
X32033Y-28954D01*
X32262Y-29183D01*
X32262Y-28935D01*
X32262Y-25126D02*
X32262Y-25355D01*
X32262Y-25241D02*
X31862Y-25241D01*
X31919Y-25279D01*
X31957Y-25317D01*
X31976Y-25355D01*
X31862Y-24879D02*
X31862Y-24840D01*
X31881Y-24802D01*
X31900Y-24783D01*
X31938Y-24764D01*
X32014Y-24745D01*
X32110Y-24745D01*
X32186Y-24764D01*
X32224Y-24783D01*
X32243Y-24802D01*
X32262Y-24840D01*
X32262Y-24879D01*
X32243Y-24917D01*
X32224Y-24936D01*
X32186Y-24955D01*
X32110Y-24974D01*
X32014Y-24974D01*
X31938Y-24955D01*
X31900Y-24936D01*
X31881Y-24917D01*
X31862Y-24879D01*
X34962Y-25126D02*
X34962Y-25050D01*
X34943Y-25011D01*
X34924Y-24992D01*
X34867Y-24954D01*
X34790Y-24935D01*
X34638Y-24935D01*
X34600Y-24954D01*
X34581Y-24973D01*
X34562Y-25011D01*
X34562Y-25088D01*
X34581Y-25126D01*
X34600Y-25145D01*
X34638Y-25164D01*
X34733Y-25164D01*
X34771Y-25145D01*
X34790Y-25126D01*
X34810Y-25088D01*
X34810Y-25011D01*
X34790Y-24973D01*
X34771Y-24954D01*
X34733Y-24935D01*
X36054Y-42805D02*
X36661Y-42805D01*
X36732Y-42786D01*
X36768Y-42767D01*
X36804Y-42729D01*
X36804Y-42652D01*
X36768Y-42614D01*
X36732Y-42595D01*
X36661Y-42576D01*
X36054Y-42576D01*
X36804Y-42367D02*
X36804Y-42291D01*
X36768Y-42252D01*
X36732Y-42233D01*
X36625Y-42195D01*
X36482Y-42176D01*
X36196Y-42176D01*
X36125Y-42195D01*
X36089Y-42214D01*
X36054Y-42252D01*
X36054Y-42329D01*
X36089Y-42367D01*
X36125Y-42386D01*
X36196Y-42405D01*
X36375Y-42405D01*
X36446Y-42386D01*
X36482Y-42367D01*
X36518Y-42329D01*
X36518Y-42252D01*
X36482Y-42214D01*
X36446Y-42195D01*
X36375Y-42176D01*
X42054Y-42805D02*
X42661Y-42805D01*
X42732Y-42786D01*
X42768Y-42767D01*
X42804Y-42729D01*
X42804Y-42652D01*
X42768Y-42614D01*
X42732Y-42595D01*
X42661Y-42576D01*
X42054Y-42576D01*
X42375Y-42329D02*
X42339Y-42367D01*
X42304Y-42386D01*
X42232Y-42405D01*
X42196Y-42405D01*
X42125Y-42386D01*
X42089Y-42367D01*
X42054Y-42329D01*
X42054Y-42252D01*
X42089Y-42214D01*
X42125Y-42195D01*
X42196Y-42176D01*
X42232Y-42176D01*
X42304Y-42195D01*
X42339Y-42214D01*
X42375Y-42252D01*
X42375Y-42329D01*
X42411Y-42367D01*
X42446Y-42386D01*
X42518Y-42405D01*
X42661Y-42405D01*
X42732Y-42386D01*
X42768Y-42367D01*
X42804Y-42329D01*
X42804Y-42252D01*
X42768Y-42214D01*
X42732Y-42195D01*
X42661Y-42176D01*
X42518Y-42176D01*
X42446Y-42195D01*
X42411Y-42214D01*
X42375Y-42252D01*
X48054Y-42805D02*
X48661Y-42805D01*
X48732Y-42786D01*
X48768Y-42767D01*
X48804Y-42729D01*
X48804Y-42652D01*
X48768Y-42614D01*
X48732Y-42595D01*
X48661Y-42576D01*
X48054Y-42576D01*
X48054Y-42424D02*
X48054Y-42157D01*
X48804Y-42329D01*
X54054Y-42805D02*
X54661Y-42805D01*
X54732Y-42786D01*
X54768Y-42767D01*
X54804Y-42729D01*
X54804Y-42652D01*
X54768Y-42614D01*
X54732Y-42595D01*
X54661Y-42576D01*
X54054Y-42576D01*
X54054Y-42214D02*
X54054Y-42291D01*
X54089Y-42329D01*
X54125Y-42348D01*
X54232Y-42386D01*
X54375Y-42405D01*
X54661Y-42405D01*
X54732Y-42386D01*
X54768Y-42367D01*
X54804Y-42329D01*
X54804Y-42252D01*
X54768Y-42214D01*
X54732Y-42195D01*
X54661Y-42176D01*
X54482Y-42176D01*
X54411Y-42195D01*
X54375Y-42214D01*
X54339Y-42252D01*
X54339Y-42329D01*
X54375Y-42367D01*
X54411Y-42386D01*
X54482Y-42405D01*
X60054Y-42805D02*
X60661Y-42805D01*
X60732Y-42786D01*
X60768Y-42767D01*
X60804Y-42729D01*
X60804Y-42652D01*
X60768Y-42614D01*
X60732Y-42595D01*
X60661Y-42576D01*
X60054Y-42576D01*
X60054Y-42195D02*
X60054Y-42386D01*
X60411Y-42405D01*
X60375Y-42386D01*
X60339Y-42348D01*
X60339Y-42252D01*
X60375Y-42214D01*
X60411Y-42195D01*
X60482Y-42176D01*
X60661Y-42176D01*
X60732Y-42195D01*
X60768Y-42214D01*
X60804Y-42252D01*
X60804Y-42348D01*
X60768Y-42386D01*
X60732Y-42405D01*
X66054Y-42805D02*
X66661Y-42805D01*
X66732Y-42786D01*
X66768Y-42767D01*
X66804Y-42729D01*
X66804Y-42652D01*
X66768Y-42614D01*
X66732Y-42595D01*
X66661Y-42576D01*
X66054Y-42576D01*
X66304Y-42214D02*
X66804Y-42214D01*
X66018Y-42310D02*
X66554Y-42405D01*
X66554Y-42157D01*
X72054Y-42805D02*
X72661Y-42805D01*
X72732Y-42786D01*
X72768Y-42767D01*
X72804Y-42729D01*
X72804Y-42652D01*
X72768Y-42614D01*
X72732Y-42595D01*
X72661Y-42576D01*
X72054Y-42576D01*
X72054Y-42424D02*
X72054Y-42176D01*
X72339Y-42310D01*
X72339Y-42252D01*
X72375Y-42214D01*
X72411Y-42195D01*
X72482Y-42176D01*
X72661Y-42176D01*
X72732Y-42195D01*
X72768Y-42214D01*
X72804Y-42252D01*
X72804Y-42367D01*
X72768Y-42405D01*
X72732Y-42424D01*
X78054Y-42805D02*
X78661Y-42805D01*
X78732Y-42786D01*
X78768Y-42767D01*
X78804Y-42729D01*
X78804Y-42652D01*
X78768Y-42614D01*
X78732Y-42595D01*
X78661Y-42576D01*
X78054Y-42576D01*
X78125Y-42405D02*
X78089Y-42386D01*
X78054Y-42348D01*
X78054Y-42252D01*
X78089Y-42214D01*
X78125Y-42195D01*
X78196Y-42176D01*
X78268Y-42176D01*
X78375Y-42195D01*
X78804Y-42424D01*
X78804Y-42176D01*
G54D11*
X31022Y-46743D02*
X31022Y-46143D01*
X31250Y-46143D01*
X31308Y-46171D01*
X31336Y-46200D01*
X31365Y-46257D01*
X31365Y-46343D01*
X31336Y-46400D01*
X31308Y-46429D01*
X31250Y-46457D01*
X31022Y-46457D01*
X31936Y-46743D02*
X31593Y-46743D01*
X31765Y-46743D02*
X31765Y-46143D01*
X31708Y-46229D01*
X31650Y-46286D01*
X31593Y-46314D01*
X32164Y-46200D02*
X32193Y-46171D01*
X32250Y-46143D01*
X32393Y-46143D01*
X32450Y-46171D01*
X32479Y-46200D01*
X32507Y-46257D01*
X32507Y-46314D01*
X32479Y-46400D01*
X32136Y-46743D01*
X32507Y-46743D01*
X37272Y-46743D02*
X37272Y-46143D01*
X37500Y-46143D01*
X37558Y-46171D01*
X37586Y-46200D01*
X37615Y-46257D01*
X37615Y-46343D01*
X37586Y-46400D01*
X37558Y-46429D01*
X37500Y-46457D01*
X37272Y-46457D01*
X38186Y-46743D02*
X37843Y-46743D01*
X38015Y-46743D02*
X38015Y-46143D01*
X37958Y-46229D01*
X37900Y-46286D01*
X37843Y-46314D01*
X38757Y-46743D02*
X38414Y-46743D01*
X38586Y-46743D02*
X38586Y-46143D01*
X38529Y-46229D01*
X38471Y-46286D01*
X38414Y-46314D01*
X43022Y-46743D02*
X43022Y-46143D01*
X43250Y-46143D01*
X43308Y-46171D01*
X43336Y-46200D01*
X43365Y-46257D01*
X43365Y-46343D01*
X43336Y-46400D01*
X43308Y-46429D01*
X43250Y-46457D01*
X43022Y-46457D01*
X43936Y-46743D02*
X43593Y-46743D01*
X43765Y-46743D02*
X43765Y-46143D01*
X43708Y-46229D01*
X43650Y-46286D01*
X43593Y-46314D01*
X44307Y-46143D02*
X44364Y-46143D01*
X44421Y-46171D01*
X44450Y-46200D01*
X44479Y-46257D01*
X44507Y-46371D01*
X44507Y-46514D01*
X44479Y-46629D01*
X44450Y-46686D01*
X44421Y-46714D01*
X44364Y-46743D01*
X44307Y-46743D01*
X44250Y-46714D01*
X44221Y-46686D01*
X44193Y-46629D01*
X44164Y-46514D01*
X44164Y-46371D01*
X44193Y-46257D01*
X44221Y-46200D01*
X44250Y-46171D01*
X44307Y-46143D01*
X49808Y-46743D02*
X49808Y-46143D01*
X50036Y-46143D01*
X50094Y-46171D01*
X50122Y-46200D01*
X50151Y-46257D01*
X50151Y-46343D01*
X50122Y-46400D01*
X50094Y-46429D01*
X50036Y-46457D01*
X49808Y-46457D01*
X50436Y-46743D02*
X50551Y-46743D01*
X50608Y-46714D01*
X50636Y-46686D01*
X50694Y-46600D01*
X50722Y-46486D01*
X50722Y-46257D01*
X50694Y-46200D01*
X50665Y-46171D01*
X50608Y-46143D01*
X50494Y-46143D01*
X50436Y-46171D01*
X50408Y-46200D01*
X50379Y-46257D01*
X50379Y-46400D01*
X50408Y-46457D01*
X50436Y-46486D01*
X50494Y-46514D01*
X50608Y-46514D01*
X50665Y-46486D01*
X50694Y-46457D01*
X50722Y-46400D01*
X55808Y-46743D02*
X55808Y-46143D01*
X56036Y-46143D01*
X56094Y-46171D01*
X56122Y-46200D01*
X56151Y-46257D01*
X56151Y-46343D01*
X56122Y-46400D01*
X56094Y-46429D01*
X56036Y-46457D01*
X55808Y-46457D01*
X56494Y-46400D02*
X56436Y-46371D01*
X56408Y-46343D01*
X56379Y-46286D01*
X56379Y-46257D01*
X56408Y-46200D01*
X56436Y-46171D01*
X56494Y-46143D01*
X56608Y-46143D01*
X56665Y-46171D01*
X56694Y-46200D01*
X56722Y-46257D01*
X56722Y-46286D01*
X56694Y-46343D01*
X56665Y-46371D01*
X56608Y-46400D01*
X56494Y-46400D01*
X56436Y-46429D01*
X56408Y-46457D01*
X56379Y-46514D01*
X56379Y-46629D01*
X56408Y-46686D01*
X56436Y-46714D01*
X56494Y-46743D01*
X56608Y-46743D01*
X56665Y-46714D01*
X56694Y-46686D01*
X56722Y-46629D01*
X56722Y-46514D01*
X56694Y-46457D01*
X56665Y-46429D01*
X56608Y-46400D01*
X61808Y-46743D02*
X61808Y-46143D01*
X62036Y-46143D01*
X62094Y-46171D01*
X62122Y-46200D01*
X62151Y-46257D01*
X62151Y-46343D01*
X62122Y-46400D01*
X62094Y-46429D01*
X62036Y-46457D01*
X61808Y-46457D01*
X62351Y-46143D02*
X62751Y-46143D01*
X62494Y-46743D01*
X67808Y-46743D02*
X67808Y-46143D01*
X68036Y-46143D01*
X68094Y-46171D01*
X68122Y-46200D01*
X68151Y-46257D01*
X68151Y-46343D01*
X68122Y-46400D01*
X68094Y-46429D01*
X68036Y-46457D01*
X67808Y-46457D01*
X68665Y-46143D02*
X68551Y-46143D01*
X68494Y-46171D01*
X68465Y-46200D01*
X68408Y-46286D01*
X68379Y-46400D01*
X68379Y-46629D01*
X68408Y-46686D01*
X68436Y-46714D01*
X68494Y-46743D01*
X68608Y-46743D01*
X68665Y-46714D01*
X68694Y-46686D01*
X68722Y-46629D01*
X68722Y-46486D01*
X68694Y-46429D01*
X68665Y-46400D01*
X68608Y-46371D01*
X68494Y-46371D01*
X68436Y-46400D01*
X68408Y-46429D01*
X68379Y-46486D01*
X73808Y-46743D02*
X73808Y-46143D01*
X74036Y-46143D01*
X74094Y-46171D01*
X74122Y-46200D01*
X74151Y-46257D01*
X74151Y-46343D01*
X74122Y-46400D01*
X74094Y-46429D01*
X74036Y-46457D01*
X73808Y-46457D01*
X74694Y-46143D02*
X74408Y-46143D01*
X74379Y-46429D01*
X74408Y-46400D01*
X74465Y-46371D01*
X74608Y-46371D01*
X74665Y-46400D01*
X74694Y-46429D01*
X74722Y-46486D01*
X74722Y-46629D01*
X74694Y-46686D01*
X74665Y-46714D01*
X74608Y-46743D01*
X74465Y-46743D01*
X74408Y-46714D01*
X74379Y-46686D01*
G54D14*
X50705Y-21662D02*
X50705Y-21262D01*
X50858Y-21262D01*
X50896Y-21281D01*
X50915Y-21300D01*
X50934Y-21338D01*
X50934Y-21395D01*
X50915Y-21433D01*
X50896Y-21452D01*
X50858Y-21471D01*
X50705Y-21471D01*
X51315Y-21662D02*
X51086Y-21662D01*
X51200Y-21662D02*
X51200Y-21262D01*
X51162Y-21319D01*
X51124Y-21357D01*
X51086Y-21376D01*
G54D13*
X78862Y-23145D02*
X78462Y-23145D01*
X78862Y-22916D02*
X78633Y-23088D01*
X78462Y-22916D02*
X78690Y-23145D01*
X78500Y-22764D02*
X78481Y-22745D01*
X78462Y-22707D01*
X78462Y-22611D01*
X78481Y-22573D01*
X78500Y-22554D01*
X78538Y-22535D01*
X78576Y-22535D01*
X78633Y-22554D01*
X78862Y-22783D01*
X78862Y-22535D01*
X74424Y-21597D02*
X74443Y-21616D01*
X74462Y-21673D01*
X74462Y-21711D01*
X74443Y-21769D01*
X74405Y-21807D01*
X74367Y-21826D01*
X74290Y-21845D01*
X74233Y-21845D01*
X74157Y-21826D01*
X74119Y-21807D01*
X74081Y-21769D01*
X74062Y-21711D01*
X74062Y-21673D01*
X74081Y-21616D01*
X74100Y-21597D01*
X74062Y-21350D02*
X74062Y-21273D01*
X74081Y-21235D01*
X74119Y-21197D01*
X74195Y-21178D01*
X74329Y-21178D01*
X74405Y-21197D01*
X74443Y-21235D01*
X74462Y-21273D01*
X74462Y-21350D01*
X74443Y-21388D01*
X74405Y-21426D01*
X74329Y-21445D01*
X74195Y-21445D01*
X74119Y-21426D01*
X74081Y-21388D01*
X74062Y-21350D01*
X74462Y-21007D02*
X74062Y-21007D01*
X74462Y-20778D01*
X74062Y-20778D01*
X74462Y-20588D02*
X74062Y-20588D01*
X74462Y-20359D01*
X74062Y-20359D01*
X74500Y-20264D02*
X74500Y-19959D01*
X74062Y-19902D02*
X74062Y-19654D01*
X74214Y-19788D01*
X74214Y-19730D01*
X74233Y-19692D01*
X74252Y-19673D01*
X74290Y-19654D01*
X74386Y-19654D01*
X74424Y-19673D01*
X74443Y-19692D01*
X74462Y-19730D01*
X74462Y-19845D01*
X74443Y-19883D01*
X74424Y-19902D01*
M02*
