M48
;DRILL file {PCBnew (2011-07-19)-testing} date Tue 14 Feb 2012 11:01:37 AM PST
;FORMAT={2:4/ absolute / inch / suppress trailing zeros}
FMAT,2
INCH,LZ
T1C0.025
T2C0.032
T3C0.039
T4C0.039
T5C0.040
T6C0.110
T7C0.120
T8C0.130
%
G90
G05
M72
T1
X05395Y-0295
X05455Y-02905
X0551Y-0286
X0556Y-0281
X05635Y-0276
X0568Y-0271
X0574Y-02665
X058325Y-024525
X06165Y-03545
X06515Y-03075
T2
X033Y-041
X033Y-044
X034Y-041
X034Y-044
X03425Y-03425
X035Y-041
X035Y-044
X0365Y-03675
X03675Y-0485
X03775Y-0485
X03825Y-03425
X0385Y-03675
X039Y-041
X039Y-044
X04Y-041
X04Y-044
X041Y-041
X041Y-044
X04275Y-0485
X04375Y-0485
X045Y-041
X045Y-044
X046Y-041
X046Y-044
X047Y-041
X047Y-044
X04875Y-0485
X04975Y-0485
X051Y-041
X051Y-044
X052Y-041
X052Y-044
X053Y-041
X053Y-044
X0535Y-0305
X0535Y-0335
X0545Y-0305
X0545Y-0335
X05475Y-0485
X0555Y-0305
X0555Y-0335
X05575Y-0485
X0565Y-0305
X0565Y-0335
X057Y-041
X057Y-044
X0575Y-0305
X0575Y-0335
X058Y-041
X058Y-044
X0585Y-0305
X0585Y-0335
X059Y-041
X059Y-044
X0595Y-0305
X0595Y-0335
X0605Y-0305
X0605Y-0335
X06075Y-0485
X06175Y-0485
X063Y-041
X063Y-044
X064Y-041
X064Y-044
X065Y-041
X065Y-044
X0665Y-0305
X0665Y-0335
X06675Y-0485
X0675Y-0305
X0675Y-0335
X06775Y-0485
X0685Y-0305
X0685Y-0335
X069Y-041
X069Y-044
X0695Y-0305
X0695Y-0335
X07Y-041
X07Y-044
X0705Y-0305
X0705Y-0335
X071Y-041
X071Y-044
X0715Y-0305
X0715Y-0335
X0725Y-0305
X0725Y-0335
X07275Y-0485
X0735Y-0305
X0735Y-0335
X07375Y-0485
X075Y-041
X075Y-044
X076Y-041
X076Y-044
X077Y-041
X077Y-044
X07875Y-0485
X07975Y-0485
T3
X0329Y-02505
X0329Y-02605
X0329Y-02705
X0329Y-02805
X0329Y-02905
X0339Y-02505
X0339Y-02605
X0339Y-02705
X0339Y-02805
X0339Y-02905
X0415Y-0205
X0415Y-0215
X0415Y-0225
X0415Y-0235
X0415Y-0245
X0415Y-0255
X0415Y-0265
X0415Y-0275
X0415Y-0285
X0415Y-0295
X0415Y-0305
X0415Y-0315
X0415Y-0325
X0415Y-0335
X0415Y-0345
X0475Y-0205
X0475Y-0215
X0475Y-0225
X0475Y-0235
X0475Y-0245
X0475Y-0255
X0475Y-0265
X0475Y-0275
X0475Y-0285
X0475Y-0295
X0475Y-0305
X0475Y-0315
X0475Y-0325
X0475Y-0335
X0475Y-0345
T4
X033561Y-0485
X034939Y-0485
X039561Y-0485
X040939Y-0485
X045561Y-0485
X046939Y-0485
X051561Y-0485
X052939Y-0485
X057561Y-0485
X058939Y-0485
X063561Y-0485
X064939Y-0485
X069561Y-0485
X070939Y-0485
X075561Y-0485
X076939Y-0485
T5
X03325Y-03675
X03425Y-03675
X052Y-0215
X053Y-0215
X054Y-0215
X055Y-0215
X056Y-0215
X05875Y-0215
X05975Y-0215
X06075Y-0215
X06175Y-0215
X0645Y-0215
X0655Y-0215
X0665Y-0215
T6
X074531Y-02365
X0765Y-02275
T7
X03075Y-0205
X03075Y-049
X08175Y-0205
X08175Y-049
T8
X0765Y-02523
T0
M30
