M48
;DRILL file {Pcbnew (2013-jul-07)-stable} date Wed 25 Oct 2017 08:44:41 AM PDT
;FORMAT={-:-/ absolute / inch / decimal}
FMAT,2
INCH,TZ
T1C0.025
T2C0.032
T3C0.039
T4C0.039
T5C0.040
T6C0.110
T7C0.120
T8C0.130
%
G90
G05
M72
T1
X5.395Y-2.95
X5.455Y-2.905
X5.51Y-2.86
X5.56Y-2.81
X5.635Y-2.76
X5.68Y-2.71
X5.74Y-2.665
X5.8325Y-2.4525
X6.165Y-3.545
X6.515Y-3.075
T2
X3.3Y-4.1
X3.3Y-4.4
X3.4Y-4.1
X3.4Y-4.4
X3.425Y-3.425
X3.5Y-4.1
X3.5Y-4.4
X3.65Y-3.675
X3.675Y-4.85
X3.775Y-4.85
X3.825Y-3.425
X3.85Y-3.675
X3.9Y-4.1
X3.9Y-4.4
X4.Y-4.1
X4.Y-4.4
X4.1Y-4.1
X4.1Y-4.4
X4.275Y-4.85
X4.375Y-4.85
X4.5Y-4.1
X4.5Y-4.4
X4.6Y-4.1
X4.6Y-4.4
X4.7Y-4.1
X4.7Y-4.4
X4.875Y-4.85
X4.975Y-4.85
X5.1Y-4.1
X5.1Y-4.4
X5.2Y-4.1
X5.2Y-4.4
X5.3Y-4.1
X5.3Y-4.4
X5.35Y-3.05
X5.35Y-3.35
X5.45Y-3.05
X5.45Y-3.35
X5.475Y-4.85
X5.55Y-3.05
X5.55Y-3.35
X5.575Y-4.85
X5.65Y-3.05
X5.65Y-3.35
X5.7Y-4.1
X5.7Y-4.4
X5.75Y-3.05
X5.75Y-3.35
X5.8Y-4.1
X5.8Y-4.4
X5.85Y-3.05
X5.85Y-3.35
X5.9Y-4.1
X5.9Y-4.4
X5.95Y-3.05
X5.95Y-3.35
X6.05Y-3.05
X6.05Y-3.35
X6.075Y-4.85
X6.175Y-4.85
X6.3Y-4.1
X6.3Y-4.4
X6.4Y-4.1
X6.4Y-4.4
X6.5Y-4.1
X6.5Y-4.4
X6.65Y-3.05
X6.65Y-3.35
X6.675Y-4.85
X6.75Y-3.05
X6.75Y-3.35
X6.775Y-4.85
X6.85Y-3.05
X6.85Y-3.35
X6.9Y-4.1
X6.9Y-4.4
X6.95Y-3.05
X6.95Y-3.35
X7.Y-4.1
X7.Y-4.4
X7.05Y-3.05
X7.05Y-3.35
X7.1Y-4.1
X7.1Y-4.4
X7.15Y-3.05
X7.15Y-3.35
X7.25Y-3.05
X7.25Y-3.35
X7.275Y-4.85
X7.35Y-3.05
X7.35Y-3.35
X7.375Y-4.85
X7.5Y-4.1
X7.5Y-4.4
X7.6Y-4.1
X7.6Y-4.4
X7.7Y-4.1
X7.7Y-4.4
X7.875Y-4.85
X7.975Y-4.85
T3
X3.29Y-2.505
X3.29Y-2.605
X3.29Y-2.705
X3.29Y-2.805
X3.29Y-2.905
X3.39Y-2.505
X3.39Y-2.605
X3.39Y-2.705
X3.39Y-2.805
X3.39Y-2.905
X4.15Y-2.05
X4.15Y-2.15
X4.15Y-2.25
X4.15Y-2.35
X4.15Y-2.45
X4.15Y-2.55
X4.15Y-2.65
X4.15Y-2.75
X4.15Y-2.85
X4.15Y-2.95
X4.15Y-3.05
X4.15Y-3.15
X4.15Y-3.25
X4.15Y-3.35
X4.15Y-3.45
X4.75Y-2.05
X4.75Y-2.15
X4.75Y-2.25
X4.75Y-2.35
X4.75Y-2.45
X4.75Y-2.55
X4.75Y-2.65
X4.75Y-2.75
X4.75Y-2.85
X4.75Y-2.95
X4.75Y-3.05
X4.75Y-3.15
X4.75Y-3.25
X4.75Y-3.35
X4.75Y-3.45
T4
X3.3561Y-4.85
X3.4939Y-4.85
X3.9561Y-4.85
X4.0939Y-4.85
X4.5561Y-4.85
X4.6939Y-4.85
X5.1561Y-4.85
X5.2939Y-4.85
X5.7561Y-4.85
X5.8939Y-4.85
X6.3561Y-4.85
X6.4939Y-4.85
X6.9561Y-4.85
X7.0939Y-4.85
X7.5561Y-4.85
X7.6939Y-4.85
T5
X3.325Y-3.675
X3.425Y-3.675
X5.2Y-2.15
X5.3Y-2.15
X5.4Y-2.15
X5.5Y-2.15
X5.6Y-2.15
X5.875Y-2.15
X5.975Y-2.15
X6.075Y-2.15
X6.175Y-2.15
X6.45Y-2.15
X6.55Y-2.15
X6.65Y-2.15
T6
X7.4531Y-2.365
X7.65Y-2.275
T7
X3.075Y-2.05
X3.075Y-4.9
X8.175Y-2.05
X8.175Y-4.9
T8
X7.65Y-2.523
T0
M30
