G04 (created by PCBNEW (2013-jul-07)-stable) date Tue 24 Oct 2017 02:27:38 PM PDT*
%MOIN*%
G04 Gerber Fmt 3.4, Leading zero omitted, Abs format*
%FSLAX34Y34*%
G01*
G70*
G90*
G04 APERTURE LIST*
%ADD10C,0.00590551*%
%ADD11C,0.012*%
%ADD12C,0.015*%
%ADD13C,0.006*%
%ADD14C,0.01*%
%ADD15C,0.008*%
%ADD16C,0.01125*%
%ADD17C,0.0113*%
%ADD18C,0.0035*%
G04 APERTURE END LIST*
G54D10*
G54D11*
X81873Y-36814D02*
X81073Y-36814D01*
X81073Y-36414D02*
X81073Y-36299D01*
X81111Y-36242D01*
X81188Y-36185D01*
X81340Y-36157D01*
X81607Y-36157D01*
X81759Y-36185D01*
X81835Y-36242D01*
X81873Y-36299D01*
X81873Y-36414D01*
X81835Y-36471D01*
X81759Y-36528D01*
X81607Y-36557D01*
X81340Y-36557D01*
X81188Y-36528D01*
X81111Y-36471D01*
X81073Y-36414D01*
X81873Y-35100D02*
X81492Y-35300D01*
X81873Y-35442D02*
X81073Y-35442D01*
X81073Y-35214D01*
X81111Y-35157D01*
X81150Y-35128D01*
X81226Y-35100D01*
X81340Y-35100D01*
X81416Y-35128D01*
X81454Y-35157D01*
X81492Y-35214D01*
X81492Y-35442D01*
X81873Y-34757D02*
X81835Y-34814D01*
X81797Y-34842D01*
X81721Y-34871D01*
X81492Y-34871D01*
X81416Y-34842D01*
X81378Y-34814D01*
X81340Y-34757D01*
X81340Y-34671D01*
X81378Y-34614D01*
X81416Y-34585D01*
X81492Y-34557D01*
X81721Y-34557D01*
X81797Y-34585D01*
X81835Y-34614D01*
X81873Y-34671D01*
X81873Y-34757D01*
X81873Y-34042D02*
X81073Y-34042D01*
X81835Y-34042D02*
X81873Y-34100D01*
X81873Y-34214D01*
X81835Y-34271D01*
X81797Y-34300D01*
X81721Y-34328D01*
X81492Y-34328D01*
X81416Y-34300D01*
X81378Y-34271D01*
X81340Y-34214D01*
X81340Y-34100D01*
X81378Y-34042D01*
X81835Y-33528D02*
X81873Y-33585D01*
X81873Y-33700D01*
X81835Y-33757D01*
X81759Y-33785D01*
X81454Y-33785D01*
X81378Y-33757D01*
X81340Y-33700D01*
X81340Y-33585D01*
X81378Y-33528D01*
X81454Y-33500D01*
X81530Y-33500D01*
X81607Y-33785D01*
X81873Y-33157D02*
X81835Y-33214D01*
X81797Y-33242D01*
X81721Y-33271D01*
X81492Y-33271D01*
X81416Y-33242D01*
X81378Y-33214D01*
X81340Y-33157D01*
X81340Y-33071D01*
X81378Y-33014D01*
X81416Y-32985D01*
X81492Y-32957D01*
X81721Y-32957D01*
X81797Y-32985D01*
X81835Y-33014D01*
X81873Y-33071D01*
X81873Y-33157D01*
X81873Y-32242D02*
X81073Y-32242D01*
X81340Y-31957D02*
X81873Y-31957D01*
X81416Y-31957D02*
X81378Y-31928D01*
X81340Y-31871D01*
X81340Y-31785D01*
X81378Y-31728D01*
X81454Y-31700D01*
X81873Y-31700D01*
X81835Y-31157D02*
X81873Y-31214D01*
X81873Y-31328D01*
X81835Y-31385D01*
X81797Y-31414D01*
X81721Y-31442D01*
X81492Y-31442D01*
X81416Y-31414D01*
X81378Y-31385D01*
X81340Y-31328D01*
X81340Y-31214D01*
X81378Y-31157D01*
X80385Y-37385D02*
X80423Y-37300D01*
X80423Y-37157D01*
X80385Y-37100D01*
X80347Y-37071D01*
X80271Y-37042D01*
X80195Y-37042D01*
X80119Y-37071D01*
X80080Y-37100D01*
X80042Y-37157D01*
X80004Y-37271D01*
X79966Y-37328D01*
X79928Y-37357D01*
X79852Y-37385D01*
X79776Y-37385D01*
X79700Y-37357D01*
X79661Y-37328D01*
X79623Y-37271D01*
X79623Y-37128D01*
X79661Y-37042D01*
X80385Y-36814D02*
X80423Y-36728D01*
X80423Y-36585D01*
X80385Y-36528D01*
X80347Y-36500D01*
X80271Y-36471D01*
X80195Y-36471D01*
X80119Y-36500D01*
X80080Y-36528D01*
X80042Y-36585D01*
X80004Y-36700D01*
X79966Y-36757D01*
X79928Y-36785D01*
X79852Y-36814D01*
X79776Y-36814D01*
X79700Y-36785D01*
X79661Y-36757D01*
X79623Y-36700D01*
X79623Y-36557D01*
X79661Y-36471D01*
X80423Y-35871D02*
X80042Y-36071D01*
X80423Y-36214D02*
X79623Y-36214D01*
X79623Y-35985D01*
X79661Y-35928D01*
X79700Y-35899D01*
X79776Y-35871D01*
X79890Y-35871D01*
X79966Y-35899D01*
X80004Y-35928D01*
X80042Y-35985D01*
X80042Y-36214D01*
X80423Y-35157D02*
X79623Y-35157D01*
X80423Y-34814D01*
X79623Y-34814D01*
X80195Y-34557D02*
X80195Y-34271D01*
X80423Y-34614D02*
X79623Y-34414D01*
X80423Y-34214D01*
X80423Y-34014D02*
X79623Y-34014D01*
X80423Y-33671D01*
X79623Y-33671D01*
X79623Y-33271D02*
X79623Y-33157D01*
X79661Y-33100D01*
X79738Y-33042D01*
X79890Y-33014D01*
X80157Y-33014D01*
X80309Y-33042D01*
X80385Y-33100D01*
X80423Y-33157D01*
X80423Y-33271D01*
X80385Y-33328D01*
X80309Y-33385D01*
X80157Y-33414D01*
X79890Y-33414D01*
X79738Y-33385D01*
X79661Y-33328D01*
X79623Y-33271D01*
X79623Y-32385D02*
X80423Y-32185D01*
X79623Y-31985D01*
X80423Y-31471D02*
X80423Y-31814D01*
X80423Y-31642D02*
X79623Y-31642D01*
X79738Y-31700D01*
X79814Y-31757D01*
X79852Y-31814D01*
X80347Y-31214D02*
X80385Y-31185D01*
X80423Y-31214D01*
X80385Y-31242D01*
X80347Y-31214D01*
X80423Y-31214D01*
X79700Y-30957D02*
X79661Y-30928D01*
X79623Y-30871D01*
X79623Y-30728D01*
X79661Y-30671D01*
X79700Y-30642D01*
X79776Y-30614D01*
X79852Y-30614D01*
X79966Y-30642D01*
X80423Y-30985D01*
X80423Y-30614D01*
X76871Y-46419D02*
X77328Y-46419D01*
X77100Y-46723D02*
X77100Y-46114D01*
X75421Y-46419D02*
X75878Y-46419D01*
X70871Y-46419D02*
X71328Y-46419D01*
X71100Y-46723D02*
X71100Y-46114D01*
X69421Y-46419D02*
X69878Y-46419D01*
X64821Y-46419D02*
X65278Y-46419D01*
X65050Y-46723D02*
X65050Y-46114D01*
X63421Y-46419D02*
X63878Y-46419D01*
X58871Y-46369D02*
X59328Y-46369D01*
X59100Y-46673D02*
X59100Y-46064D01*
X57421Y-46419D02*
X57878Y-46419D01*
X52821Y-46419D02*
X53278Y-46419D01*
X53050Y-46723D02*
X53050Y-46114D01*
X51421Y-46419D02*
X51878Y-46419D01*
X46871Y-46419D02*
X47328Y-46419D01*
X47100Y-46723D02*
X47100Y-46114D01*
X45421Y-46419D02*
X45878Y-46419D01*
X40871Y-46419D02*
X41328Y-46419D01*
X41100Y-46723D02*
X41100Y-46114D01*
X39421Y-46419D02*
X39878Y-46419D01*
X34871Y-46419D02*
X35328Y-46419D01*
X35100Y-46723D02*
X35100Y-46114D01*
X33421Y-46419D02*
X33878Y-46419D01*
G54D12*
X45000Y-35000D02*
G75*
G03X44500Y-34500I-500J0D01*
G74*
G01*
X44500Y-34500D02*
G75*
G03X44000Y-35000I0J-500D01*
G74*
G01*
X42000Y-35000D02*
X44000Y-35000D01*
X47000Y-35000D02*
X45000Y-35000D01*
X47000Y-35000D02*
X47000Y-20000D01*
X47000Y-20000D02*
X42000Y-20000D01*
X42000Y-20000D02*
X42000Y-35000D01*
G54D11*
X36100Y-36350D02*
X38900Y-36350D01*
X38900Y-36350D02*
X38900Y-37150D01*
X38900Y-37150D02*
X36100Y-37150D01*
X36100Y-37150D02*
X36100Y-36350D01*
X36100Y-36550D02*
X36300Y-36350D01*
G54D12*
X61500Y-32500D02*
X61500Y-32500D01*
X61500Y-32500D02*
X61000Y-32500D01*
X61000Y-32500D02*
X61000Y-31500D01*
X61000Y-31500D02*
X61500Y-31500D01*
X61500Y-33000D02*
X52500Y-33000D01*
X52500Y-33000D02*
X52500Y-31000D01*
X52500Y-31000D02*
X61500Y-31000D01*
X61500Y-31000D02*
X61500Y-33000D01*
X74500Y-32500D02*
X74500Y-32500D01*
X74500Y-32500D02*
X74000Y-32500D01*
X74000Y-32500D02*
X74000Y-31500D01*
X74000Y-31500D02*
X74500Y-31500D01*
X74500Y-33000D02*
X65500Y-33000D01*
X65500Y-33000D02*
X65500Y-31000D01*
X65500Y-31000D02*
X74500Y-31000D01*
X74500Y-31000D02*
X74500Y-33000D01*
G54D13*
X34750Y-36250D02*
X34750Y-37250D01*
X34750Y-37250D02*
X32750Y-37250D01*
X32750Y-37250D02*
X32750Y-36250D01*
X32750Y-36250D02*
X34750Y-36250D01*
X67000Y-21000D02*
X67000Y-22000D01*
X67000Y-22000D02*
X64000Y-22000D01*
X64000Y-22000D02*
X64000Y-21000D01*
X64000Y-21000D02*
X67000Y-21000D01*
G54D12*
X62250Y-22000D02*
X62250Y-21000D01*
X62250Y-21000D02*
X58250Y-21000D01*
X58250Y-21000D02*
X58250Y-22000D01*
X58250Y-22000D02*
X62250Y-22000D01*
G54D11*
X38250Y-34250D02*
X37850Y-34250D01*
X37850Y-34250D02*
X37850Y-34650D01*
X37850Y-34650D02*
X34650Y-34650D01*
X34650Y-34650D02*
X34650Y-33850D01*
X34650Y-33850D02*
X37850Y-33850D01*
X37850Y-33850D02*
X37850Y-34250D01*
X37850Y-34450D02*
X37650Y-34650D01*
X34250Y-34250D02*
X34650Y-34250D01*
G54D12*
X31600Y-31050D02*
X35200Y-31050D01*
X35200Y-31050D02*
X35200Y-23050D01*
X35200Y-23050D02*
X31600Y-23050D01*
X31600Y-23050D02*
X31600Y-31050D01*
X35400Y-29050D02*
X36000Y-29550D01*
X36000Y-29550D02*
X36000Y-28550D01*
X36000Y-28550D02*
X35400Y-29050D01*
X35750Y-43500D02*
X32250Y-43500D01*
X32250Y-43500D02*
X32250Y-41500D01*
X32250Y-41500D02*
X35750Y-41500D01*
X35750Y-41500D02*
X35750Y-43500D01*
X35750Y-42750D02*
X35250Y-42750D01*
X35250Y-42750D02*
X35250Y-42250D01*
X35250Y-42250D02*
X35750Y-42250D01*
X41750Y-43500D02*
X38250Y-43500D01*
X38250Y-43500D02*
X38250Y-41500D01*
X38250Y-41500D02*
X41750Y-41500D01*
X41750Y-41500D02*
X41750Y-43500D01*
X41750Y-42750D02*
X41250Y-42750D01*
X41250Y-42750D02*
X41250Y-42250D01*
X41250Y-42250D02*
X41750Y-42250D01*
X47750Y-43500D02*
X44250Y-43500D01*
X44250Y-43500D02*
X44250Y-41500D01*
X44250Y-41500D02*
X47750Y-41500D01*
X47750Y-41500D02*
X47750Y-43500D01*
X47750Y-42750D02*
X47250Y-42750D01*
X47250Y-42750D02*
X47250Y-42250D01*
X47250Y-42250D02*
X47750Y-42250D01*
X53750Y-43500D02*
X50250Y-43500D01*
X50250Y-43500D02*
X50250Y-41500D01*
X50250Y-41500D02*
X53750Y-41500D01*
X53750Y-41500D02*
X53750Y-43500D01*
X53750Y-42750D02*
X53250Y-42750D01*
X53250Y-42750D02*
X53250Y-42250D01*
X53250Y-42250D02*
X53750Y-42250D01*
X59750Y-43500D02*
X56250Y-43500D01*
X56250Y-43500D02*
X56250Y-41500D01*
X56250Y-41500D02*
X59750Y-41500D01*
X59750Y-41500D02*
X59750Y-43500D01*
X59750Y-42750D02*
X59250Y-42750D01*
X59250Y-42750D02*
X59250Y-42250D01*
X59250Y-42250D02*
X59750Y-42250D01*
X65750Y-43500D02*
X62250Y-43500D01*
X62250Y-43500D02*
X62250Y-41500D01*
X62250Y-41500D02*
X65750Y-41500D01*
X65750Y-41500D02*
X65750Y-43500D01*
X65750Y-42750D02*
X65250Y-42750D01*
X65250Y-42750D02*
X65250Y-42250D01*
X65250Y-42250D02*
X65750Y-42250D01*
X71750Y-43500D02*
X68250Y-43500D01*
X68250Y-43500D02*
X68250Y-41500D01*
X68250Y-41500D02*
X71750Y-41500D01*
X71750Y-41500D02*
X71750Y-43500D01*
X71750Y-42750D02*
X71250Y-42750D01*
X71250Y-42750D02*
X71250Y-42250D01*
X71250Y-42250D02*
X71750Y-42250D01*
X77750Y-43500D02*
X74250Y-43500D01*
X74250Y-43500D02*
X74250Y-41500D01*
X74250Y-41500D02*
X77750Y-41500D01*
X77750Y-41500D02*
X77750Y-43500D01*
X77750Y-42750D02*
X77250Y-42750D01*
X77250Y-42750D02*
X77250Y-42250D01*
X77250Y-42250D02*
X77750Y-42250D01*
X35850Y-49850D02*
X35850Y-47150D01*
X35850Y-47150D02*
X32650Y-47150D01*
X32650Y-47150D02*
X32650Y-49850D01*
X32650Y-49850D02*
X35850Y-49850D01*
X41850Y-49850D02*
X41850Y-47150D01*
X41850Y-47150D02*
X38650Y-47150D01*
X38650Y-47150D02*
X38650Y-49850D01*
X38650Y-49850D02*
X41850Y-49850D01*
X47850Y-49850D02*
X47850Y-47150D01*
X47850Y-47150D02*
X44650Y-47150D01*
X44650Y-47150D02*
X44650Y-49850D01*
X44650Y-49850D02*
X47850Y-49850D01*
X53850Y-49850D02*
X53850Y-47150D01*
X53850Y-47150D02*
X50650Y-47150D01*
X50650Y-47150D02*
X50650Y-49850D01*
X50650Y-49850D02*
X53850Y-49850D01*
X59850Y-49850D02*
X59850Y-47150D01*
X59850Y-47150D02*
X56650Y-47150D01*
X56650Y-47150D02*
X56650Y-49850D01*
X56650Y-49850D02*
X59850Y-49850D01*
X65850Y-49850D02*
X65850Y-47150D01*
X65850Y-47150D02*
X62650Y-47150D01*
X62650Y-47150D02*
X62650Y-49850D01*
X62650Y-49850D02*
X65850Y-49850D01*
X71850Y-49850D02*
X71850Y-47150D01*
X71850Y-47150D02*
X68650Y-47150D01*
X68650Y-47150D02*
X68650Y-49850D01*
X68650Y-49850D02*
X71850Y-49850D01*
X77850Y-49850D02*
X77850Y-47150D01*
X77850Y-47150D02*
X74650Y-47150D01*
X74650Y-47150D02*
X74650Y-49850D01*
X74650Y-49850D02*
X77850Y-49850D01*
G54D11*
X56500Y-22000D02*
X56500Y-21000D01*
X51500Y-21000D02*
X51500Y-22000D01*
X56500Y-22000D02*
X51500Y-22000D01*
X51500Y-21000D02*
X56500Y-21000D01*
G54D12*
X78200Y-19650D02*
X74800Y-19650D01*
X78200Y-19950D02*
X78200Y-19650D01*
X74800Y-19650D02*
X74800Y-19950D01*
X78200Y-21150D02*
X74800Y-21150D01*
X78200Y-24950D02*
X74800Y-24950D01*
X74800Y-19950D02*
X74800Y-24950D01*
X78200Y-19950D02*
X78200Y-24950D01*
G54D14*
X48530Y-48000D02*
X48530Y-49000D01*
G54D13*
X49610Y-48884D02*
G75*
G03X49750Y-48500I-460J384D01*
G74*
G01*
X49749Y-48500D02*
G75*
G03X49598Y-48102I-599J0D01*
G74*
G01*
X48550Y-48500D02*
G75*
G03X48694Y-48889I599J0D01*
G74*
G01*
X48689Y-48115D02*
G75*
G03X48550Y-48500I460J-384D01*
G74*
G01*
X48662Y-48849D02*
G75*
G03X49150Y-49100I487J349D01*
G74*
G01*
X49150Y-49100D02*
G75*
G03X49629Y-48860I0J600D01*
G74*
G01*
X49150Y-47900D02*
G75*
G03X48677Y-48131I0J-599D01*
G74*
G01*
X49623Y-48131D02*
G75*
G03X49150Y-47900I-473J-368D01*
G74*
G01*
X49150Y-48750D02*
G75*
G03X49400Y-48500I0J250D01*
G74*
G01*
X49150Y-48900D02*
G75*
G03X49550Y-48500I0J400D01*
G74*
G01*
X49150Y-48250D02*
G75*
G03X48900Y-48500I0J-250D01*
G74*
G01*
X49150Y-48100D02*
G75*
G03X48750Y-48500I0J-400D01*
G74*
G01*
G54D14*
X48536Y-49013D02*
G75*
G03X49150Y-49300I613J513D01*
G74*
G01*
X49150Y-49299D02*
G75*
G03X49854Y-48876I0J799D01*
G74*
G01*
X49148Y-47701D02*
G75*
G03X48539Y-47984I1J-798D01*
G74*
G01*
X49844Y-48102D02*
G75*
G03X49150Y-47700I-694J-397D01*
G74*
G01*
X49854Y-48879D02*
G75*
G03X49950Y-48500I-704J379D01*
G74*
G01*
X49949Y-48500D02*
G75*
G03X49831Y-48081I-799J0D01*
G74*
G01*
X54530Y-48000D02*
X54530Y-49000D01*
G54D13*
X55610Y-48884D02*
G75*
G03X55750Y-48500I-460J384D01*
G74*
G01*
X55749Y-48500D02*
G75*
G03X55598Y-48102I-599J0D01*
G74*
G01*
X54550Y-48500D02*
G75*
G03X54694Y-48889I599J0D01*
G74*
G01*
X54689Y-48115D02*
G75*
G03X54550Y-48500I460J-384D01*
G74*
G01*
X54662Y-48849D02*
G75*
G03X55150Y-49100I487J349D01*
G74*
G01*
X55150Y-49100D02*
G75*
G03X55629Y-48860I0J600D01*
G74*
G01*
X55150Y-47900D02*
G75*
G03X54677Y-48131I0J-599D01*
G74*
G01*
X55623Y-48131D02*
G75*
G03X55150Y-47900I-473J-368D01*
G74*
G01*
X55150Y-48750D02*
G75*
G03X55400Y-48500I0J250D01*
G74*
G01*
X55150Y-48900D02*
G75*
G03X55550Y-48500I0J400D01*
G74*
G01*
X55150Y-48250D02*
G75*
G03X54900Y-48500I0J-250D01*
G74*
G01*
X55150Y-48100D02*
G75*
G03X54750Y-48500I0J-400D01*
G74*
G01*
G54D14*
X54536Y-49013D02*
G75*
G03X55150Y-49300I613J513D01*
G74*
G01*
X55150Y-49299D02*
G75*
G03X55854Y-48876I0J799D01*
G74*
G01*
X55148Y-47701D02*
G75*
G03X54539Y-47984I1J-798D01*
G74*
G01*
X55844Y-48102D02*
G75*
G03X55150Y-47700I-694J-397D01*
G74*
G01*
X55854Y-48879D02*
G75*
G03X55950Y-48500I-704J379D01*
G74*
G01*
X55949Y-48500D02*
G75*
G03X55831Y-48081I-799J0D01*
G74*
G01*
X36530Y-48000D02*
X36530Y-49000D01*
G54D13*
X37610Y-48884D02*
G75*
G03X37750Y-48500I-460J384D01*
G74*
G01*
X37749Y-48500D02*
G75*
G03X37598Y-48102I-599J0D01*
G74*
G01*
X36550Y-48500D02*
G75*
G03X36694Y-48889I599J0D01*
G74*
G01*
X36689Y-48115D02*
G75*
G03X36550Y-48500I460J-384D01*
G74*
G01*
X36662Y-48849D02*
G75*
G03X37150Y-49100I487J349D01*
G74*
G01*
X37150Y-49100D02*
G75*
G03X37629Y-48860I0J600D01*
G74*
G01*
X37150Y-47900D02*
G75*
G03X36677Y-48131I0J-599D01*
G74*
G01*
X37623Y-48131D02*
G75*
G03X37150Y-47900I-473J-368D01*
G74*
G01*
X37150Y-48750D02*
G75*
G03X37400Y-48500I0J250D01*
G74*
G01*
X37150Y-48900D02*
G75*
G03X37550Y-48500I0J400D01*
G74*
G01*
X37150Y-48250D02*
G75*
G03X36900Y-48500I0J-250D01*
G74*
G01*
X37150Y-48100D02*
G75*
G03X36750Y-48500I0J-400D01*
G74*
G01*
G54D14*
X36536Y-49013D02*
G75*
G03X37150Y-49300I613J513D01*
G74*
G01*
X37150Y-49299D02*
G75*
G03X37854Y-48876I0J799D01*
G74*
G01*
X37148Y-47701D02*
G75*
G03X36539Y-47984I1J-798D01*
G74*
G01*
X37844Y-48102D02*
G75*
G03X37150Y-47700I-694J-397D01*
G74*
G01*
X37854Y-48879D02*
G75*
G03X37950Y-48500I-704J379D01*
G74*
G01*
X37949Y-48500D02*
G75*
G03X37831Y-48081I-799J0D01*
G74*
G01*
X42530Y-48000D02*
X42530Y-49000D01*
G54D13*
X43610Y-48884D02*
G75*
G03X43750Y-48500I-460J384D01*
G74*
G01*
X43749Y-48500D02*
G75*
G03X43598Y-48102I-599J0D01*
G74*
G01*
X42550Y-48500D02*
G75*
G03X42694Y-48889I599J0D01*
G74*
G01*
X42689Y-48115D02*
G75*
G03X42550Y-48500I460J-384D01*
G74*
G01*
X42662Y-48849D02*
G75*
G03X43150Y-49100I487J349D01*
G74*
G01*
X43150Y-49100D02*
G75*
G03X43629Y-48860I0J600D01*
G74*
G01*
X43150Y-47900D02*
G75*
G03X42677Y-48131I0J-599D01*
G74*
G01*
X43623Y-48131D02*
G75*
G03X43150Y-47900I-473J-368D01*
G74*
G01*
X43150Y-48750D02*
G75*
G03X43400Y-48500I0J250D01*
G74*
G01*
X43150Y-48900D02*
G75*
G03X43550Y-48500I0J400D01*
G74*
G01*
X43150Y-48250D02*
G75*
G03X42900Y-48500I0J-250D01*
G74*
G01*
X43150Y-48100D02*
G75*
G03X42750Y-48500I0J-400D01*
G74*
G01*
G54D14*
X42536Y-49013D02*
G75*
G03X43150Y-49300I613J513D01*
G74*
G01*
X43150Y-49299D02*
G75*
G03X43854Y-48876I0J799D01*
G74*
G01*
X43148Y-47701D02*
G75*
G03X42539Y-47984I1J-798D01*
G74*
G01*
X43844Y-48102D02*
G75*
G03X43150Y-47700I-694J-397D01*
G74*
G01*
X43854Y-48879D02*
G75*
G03X43950Y-48500I-704J379D01*
G74*
G01*
X43949Y-48500D02*
G75*
G03X43831Y-48081I-799J0D01*
G74*
G01*
X60530Y-48000D02*
X60530Y-49000D01*
G54D13*
X61610Y-48884D02*
G75*
G03X61750Y-48500I-460J384D01*
G74*
G01*
X61749Y-48500D02*
G75*
G03X61598Y-48102I-599J0D01*
G74*
G01*
X60550Y-48500D02*
G75*
G03X60694Y-48889I599J0D01*
G74*
G01*
X60689Y-48115D02*
G75*
G03X60550Y-48500I460J-384D01*
G74*
G01*
X60662Y-48849D02*
G75*
G03X61150Y-49100I487J349D01*
G74*
G01*
X61150Y-49100D02*
G75*
G03X61629Y-48860I0J600D01*
G74*
G01*
X61150Y-47900D02*
G75*
G03X60677Y-48131I0J-599D01*
G74*
G01*
X61623Y-48131D02*
G75*
G03X61150Y-47900I-473J-368D01*
G74*
G01*
X61150Y-48750D02*
G75*
G03X61400Y-48500I0J250D01*
G74*
G01*
X61150Y-48900D02*
G75*
G03X61550Y-48500I0J400D01*
G74*
G01*
X61150Y-48250D02*
G75*
G03X60900Y-48500I0J-250D01*
G74*
G01*
X61150Y-48100D02*
G75*
G03X60750Y-48500I0J-400D01*
G74*
G01*
G54D14*
X60536Y-49013D02*
G75*
G03X61150Y-49300I613J513D01*
G74*
G01*
X61150Y-49299D02*
G75*
G03X61854Y-48876I0J799D01*
G74*
G01*
X61148Y-47701D02*
G75*
G03X60539Y-47984I1J-798D01*
G74*
G01*
X61844Y-48102D02*
G75*
G03X61150Y-47700I-694J-397D01*
G74*
G01*
X61854Y-48879D02*
G75*
G03X61950Y-48500I-704J379D01*
G74*
G01*
X61949Y-48500D02*
G75*
G03X61831Y-48081I-799J0D01*
G74*
G01*
X72530Y-48000D02*
X72530Y-49000D01*
G54D13*
X73610Y-48884D02*
G75*
G03X73750Y-48500I-460J384D01*
G74*
G01*
X73749Y-48500D02*
G75*
G03X73598Y-48102I-599J0D01*
G74*
G01*
X72550Y-48500D02*
G75*
G03X72694Y-48889I599J0D01*
G74*
G01*
X72689Y-48115D02*
G75*
G03X72550Y-48500I460J-384D01*
G74*
G01*
X72662Y-48849D02*
G75*
G03X73150Y-49100I487J349D01*
G74*
G01*
X73150Y-49100D02*
G75*
G03X73629Y-48860I0J600D01*
G74*
G01*
X73150Y-47900D02*
G75*
G03X72677Y-48131I0J-599D01*
G74*
G01*
X73623Y-48131D02*
G75*
G03X73150Y-47900I-473J-368D01*
G74*
G01*
X73150Y-48750D02*
G75*
G03X73400Y-48500I0J250D01*
G74*
G01*
X73150Y-48900D02*
G75*
G03X73550Y-48500I0J400D01*
G74*
G01*
X73150Y-48250D02*
G75*
G03X72900Y-48500I0J-250D01*
G74*
G01*
X73150Y-48100D02*
G75*
G03X72750Y-48500I0J-400D01*
G74*
G01*
G54D14*
X72536Y-49013D02*
G75*
G03X73150Y-49300I613J513D01*
G74*
G01*
X73150Y-49299D02*
G75*
G03X73854Y-48876I0J799D01*
G74*
G01*
X73148Y-47701D02*
G75*
G03X72539Y-47984I1J-798D01*
G74*
G01*
X73844Y-48102D02*
G75*
G03X73150Y-47700I-694J-397D01*
G74*
G01*
X73854Y-48879D02*
G75*
G03X73950Y-48500I-704J379D01*
G74*
G01*
X73949Y-48500D02*
G75*
G03X73831Y-48081I-799J0D01*
G74*
G01*
X66530Y-48000D02*
X66530Y-49000D01*
G54D13*
X67610Y-48884D02*
G75*
G03X67750Y-48500I-460J384D01*
G74*
G01*
X67749Y-48500D02*
G75*
G03X67598Y-48102I-599J0D01*
G74*
G01*
X66550Y-48500D02*
G75*
G03X66694Y-48889I599J0D01*
G74*
G01*
X66689Y-48115D02*
G75*
G03X66550Y-48500I460J-384D01*
G74*
G01*
X66662Y-48849D02*
G75*
G03X67150Y-49100I487J349D01*
G74*
G01*
X67150Y-49100D02*
G75*
G03X67629Y-48860I0J600D01*
G74*
G01*
X67150Y-47900D02*
G75*
G03X66677Y-48131I0J-599D01*
G74*
G01*
X67623Y-48131D02*
G75*
G03X67150Y-47900I-473J-368D01*
G74*
G01*
X67150Y-48750D02*
G75*
G03X67400Y-48500I0J250D01*
G74*
G01*
X67150Y-48900D02*
G75*
G03X67550Y-48500I0J400D01*
G74*
G01*
X67150Y-48250D02*
G75*
G03X66900Y-48500I0J-250D01*
G74*
G01*
X67150Y-48100D02*
G75*
G03X66750Y-48500I0J-400D01*
G74*
G01*
G54D14*
X66536Y-49013D02*
G75*
G03X67150Y-49300I613J513D01*
G74*
G01*
X67150Y-49299D02*
G75*
G03X67854Y-48876I0J799D01*
G74*
G01*
X67148Y-47701D02*
G75*
G03X66539Y-47984I1J-798D01*
G74*
G01*
X67844Y-48102D02*
G75*
G03X67150Y-47700I-694J-397D01*
G74*
G01*
X67854Y-48879D02*
G75*
G03X67950Y-48500I-704J379D01*
G74*
G01*
X67949Y-48500D02*
G75*
G03X67831Y-48081I-799J0D01*
G74*
G01*
X78530Y-48000D02*
X78530Y-49000D01*
G54D13*
X79610Y-48884D02*
G75*
G03X79750Y-48500I-460J384D01*
G74*
G01*
X79749Y-48500D02*
G75*
G03X79598Y-48102I-599J0D01*
G74*
G01*
X78550Y-48500D02*
G75*
G03X78694Y-48889I599J0D01*
G74*
G01*
X78689Y-48115D02*
G75*
G03X78550Y-48500I460J-384D01*
G74*
G01*
X78662Y-48849D02*
G75*
G03X79150Y-49100I487J349D01*
G74*
G01*
X79150Y-49100D02*
G75*
G03X79629Y-48860I0J600D01*
G74*
G01*
X79150Y-47900D02*
G75*
G03X78677Y-48131I0J-599D01*
G74*
G01*
X79623Y-48131D02*
G75*
G03X79150Y-47900I-473J-368D01*
G74*
G01*
X79150Y-48750D02*
G75*
G03X79400Y-48500I0J250D01*
G74*
G01*
X79150Y-48900D02*
G75*
G03X79550Y-48500I0J400D01*
G74*
G01*
X79150Y-48250D02*
G75*
G03X78900Y-48500I0J-250D01*
G74*
G01*
X79150Y-48100D02*
G75*
G03X78750Y-48500I0J-400D01*
G74*
G01*
G54D14*
X78536Y-49013D02*
G75*
G03X79150Y-49300I613J513D01*
G74*
G01*
X79150Y-49299D02*
G75*
G03X79854Y-48876I0J799D01*
G74*
G01*
X79148Y-47701D02*
G75*
G03X78539Y-47984I1J-798D01*
G74*
G01*
X79844Y-48102D02*
G75*
G03X79150Y-47700I-694J-397D01*
G74*
G01*
X79854Y-48879D02*
G75*
G03X79950Y-48500I-704J379D01*
G74*
G01*
X79949Y-48500D02*
G75*
G03X79831Y-48081I-799J0D01*
G74*
G01*
G54D11*
X45142Y-27707D02*
X45628Y-27707D01*
X45685Y-27678D01*
X45714Y-27650D01*
X45742Y-27592D01*
X45742Y-27478D01*
X45714Y-27421D01*
X45685Y-27392D01*
X45628Y-27364D01*
X45142Y-27364D01*
X45742Y-26764D02*
X45742Y-27107D01*
X45742Y-26935D02*
X45142Y-26935D01*
X45228Y-26992D01*
X45285Y-27050D01*
X45314Y-27107D01*
X43571Y-31007D02*
X43571Y-30721D01*
X43742Y-31064D02*
X43142Y-30864D01*
X43742Y-30664D01*
X43742Y-30121D02*
X43457Y-30321D01*
X43742Y-30464D02*
X43142Y-30464D01*
X43142Y-30235D01*
X43171Y-30178D01*
X43200Y-30149D01*
X43257Y-30121D01*
X43342Y-30121D01*
X43400Y-30149D01*
X43428Y-30178D01*
X43457Y-30235D01*
X43457Y-30464D01*
X43742Y-29864D02*
X43142Y-29864D01*
X43142Y-29721D01*
X43171Y-29635D01*
X43228Y-29578D01*
X43285Y-29549D01*
X43400Y-29521D01*
X43485Y-29521D01*
X43600Y-29549D01*
X43657Y-29578D01*
X43714Y-29635D01*
X43742Y-29721D01*
X43742Y-29864D01*
X43142Y-29264D02*
X43628Y-29264D01*
X43685Y-29235D01*
X43714Y-29207D01*
X43742Y-29149D01*
X43742Y-29035D01*
X43714Y-28978D01*
X43685Y-28949D01*
X43628Y-28921D01*
X43142Y-28921D01*
X43742Y-28635D02*
X43142Y-28635D01*
X43742Y-28349D02*
X43142Y-28349D01*
X43742Y-28007D01*
X43142Y-28007D01*
X43142Y-27607D02*
X43142Y-27492D01*
X43171Y-27435D01*
X43228Y-27378D01*
X43342Y-27349D01*
X43542Y-27349D01*
X43657Y-27378D01*
X43714Y-27435D01*
X43742Y-27492D01*
X43742Y-27607D01*
X43714Y-27664D01*
X43657Y-27721D01*
X43542Y-27749D01*
X43342Y-27749D01*
X43228Y-27721D01*
X43171Y-27664D01*
X43142Y-27607D01*
X43800Y-27235D02*
X43800Y-26778D01*
X43742Y-26635D02*
X43142Y-26635D01*
X43742Y-26292D01*
X43142Y-26292D01*
X43571Y-26035D02*
X43571Y-25750D01*
X43742Y-26092D02*
X43142Y-25892D01*
X43742Y-25692D01*
X43742Y-25492D02*
X43142Y-25492D01*
X43742Y-25150D01*
X43142Y-25150D01*
X43142Y-24750D02*
X43142Y-24635D01*
X43171Y-24578D01*
X43228Y-24521D01*
X43342Y-24492D01*
X43542Y-24492D01*
X43657Y-24521D01*
X43714Y-24578D01*
X43742Y-24635D01*
X43742Y-24750D01*
X43714Y-24807D01*
X43657Y-24864D01*
X43542Y-24892D01*
X43342Y-24892D01*
X43228Y-24864D01*
X43171Y-24807D01*
X43142Y-24750D01*
G54D15*
X37433Y-36123D02*
X37414Y-36142D01*
X37357Y-36161D01*
X37319Y-36161D01*
X37261Y-36142D01*
X37223Y-36104D01*
X37204Y-36066D01*
X37185Y-35990D01*
X37185Y-35933D01*
X37204Y-35857D01*
X37223Y-35819D01*
X37261Y-35780D01*
X37319Y-35761D01*
X37357Y-35761D01*
X37414Y-35780D01*
X37433Y-35800D01*
X37814Y-36161D02*
X37585Y-36161D01*
X37700Y-36161D02*
X37700Y-35761D01*
X37661Y-35819D01*
X37623Y-35857D01*
X37585Y-35876D01*
G54D16*
X51200Y-32992D02*
X51050Y-32707D01*
X50942Y-32992D02*
X50942Y-32392D01*
X51114Y-32392D01*
X51157Y-32421D01*
X51178Y-32450D01*
X51200Y-32507D01*
X51200Y-32592D01*
X51178Y-32650D01*
X51157Y-32678D01*
X51114Y-32707D01*
X50942Y-32707D01*
X51392Y-32992D02*
X51392Y-32392D01*
X51564Y-32392D01*
X51607Y-32421D01*
X51628Y-32450D01*
X51650Y-32507D01*
X51650Y-32592D01*
X51628Y-32650D01*
X51607Y-32678D01*
X51564Y-32707D01*
X51392Y-32707D01*
X51821Y-32450D02*
X51842Y-32421D01*
X51885Y-32392D01*
X51992Y-32392D01*
X52035Y-32421D01*
X52057Y-32450D01*
X52078Y-32507D01*
X52078Y-32564D01*
X52057Y-32650D01*
X51800Y-32992D01*
X52078Y-32992D01*
G54D17*
G54D16*
X64200Y-32992D02*
X64050Y-32707D01*
X63942Y-32992D02*
X63942Y-32392D01*
X64114Y-32392D01*
X64157Y-32421D01*
X64178Y-32450D01*
X64200Y-32507D01*
X64200Y-32592D01*
X64178Y-32650D01*
X64157Y-32678D01*
X64114Y-32707D01*
X63942Y-32707D01*
X64392Y-32992D02*
X64392Y-32392D01*
X64564Y-32392D01*
X64607Y-32421D01*
X64628Y-32450D01*
X64650Y-32507D01*
X64650Y-32592D01*
X64628Y-32650D01*
X64607Y-32678D01*
X64564Y-32707D01*
X64392Y-32707D01*
X65078Y-32992D02*
X64821Y-32992D01*
X64950Y-32992D02*
X64950Y-32392D01*
X64907Y-32478D01*
X64864Y-32535D01*
X64821Y-32564D01*
G54D17*
G54D13*
X33528Y-37621D02*
X33528Y-37321D01*
X33642Y-37321D01*
X33671Y-37335D01*
X33685Y-37350D01*
X33700Y-37378D01*
X33700Y-37421D01*
X33685Y-37450D01*
X33671Y-37464D01*
X33642Y-37478D01*
X33528Y-37478D01*
X33957Y-37421D02*
X33957Y-37621D01*
X33885Y-37307D02*
X33814Y-37521D01*
X34000Y-37521D01*
X63204Y-21661D02*
X63204Y-21261D01*
X63433Y-21661D02*
X63261Y-21433D01*
X63433Y-21261D02*
X63204Y-21490D01*
X63814Y-21661D02*
X63585Y-21661D01*
X63700Y-21661D02*
X63700Y-21261D01*
X63661Y-21319D01*
X63623Y-21357D01*
X63585Y-21376D01*
G54D15*
X57454Y-21661D02*
X57454Y-21261D01*
X57607Y-21261D01*
X57645Y-21280D01*
X57664Y-21300D01*
X57683Y-21338D01*
X57683Y-21395D01*
X57664Y-21433D01*
X57645Y-21452D01*
X57607Y-21471D01*
X57454Y-21471D01*
X57816Y-21261D02*
X58064Y-21261D01*
X57930Y-21414D01*
X57988Y-21414D01*
X58026Y-21433D01*
X58045Y-21452D01*
X58064Y-21490D01*
X58064Y-21585D01*
X58045Y-21623D01*
X58026Y-21642D01*
X57988Y-21661D01*
X57873Y-21661D01*
X57835Y-21642D01*
X57816Y-21623D01*
X36166Y-33472D02*
X36000Y-33210D01*
X35880Y-33472D02*
X35880Y-32922D01*
X36071Y-32922D01*
X36119Y-32948D01*
X36142Y-32975D01*
X36166Y-33027D01*
X36166Y-33105D01*
X36142Y-33158D01*
X36119Y-33184D01*
X36071Y-33210D01*
X35880Y-33210D01*
X36642Y-33472D02*
X36357Y-33472D01*
X36500Y-33472D02*
X36500Y-32922D01*
X36452Y-33001D01*
X36404Y-33053D01*
X36357Y-33079D01*
G54D14*
X31261Y-27345D02*
X30861Y-27345D01*
X30861Y-27192D01*
X30880Y-27154D01*
X30900Y-27135D01*
X30938Y-27116D01*
X30995Y-27116D01*
X31033Y-27135D01*
X31052Y-27154D01*
X31071Y-27192D01*
X31071Y-27345D01*
X30900Y-26964D02*
X30880Y-26945D01*
X30861Y-26907D01*
X30861Y-26811D01*
X30880Y-26773D01*
X30900Y-26754D01*
X30938Y-26735D01*
X30976Y-26735D01*
X31033Y-26754D01*
X31261Y-26983D01*
X31261Y-26735D01*
X31900Y-29164D02*
X31880Y-29145D01*
X31861Y-29107D01*
X31861Y-29011D01*
X31880Y-28973D01*
X31900Y-28954D01*
X31938Y-28935D01*
X31976Y-28935D01*
X32033Y-28954D01*
X32261Y-29183D01*
X32261Y-28935D01*
X32261Y-25126D02*
X32261Y-25354D01*
X32261Y-25240D02*
X31861Y-25240D01*
X31919Y-25278D01*
X31957Y-25316D01*
X31976Y-25354D01*
X31861Y-24878D02*
X31861Y-24840D01*
X31880Y-24802D01*
X31900Y-24783D01*
X31938Y-24764D01*
X32014Y-24745D01*
X32109Y-24745D01*
X32185Y-24764D01*
X32223Y-24783D01*
X32242Y-24802D01*
X32261Y-24840D01*
X32261Y-24878D01*
X32242Y-24916D01*
X32223Y-24935D01*
X32185Y-24954D01*
X32109Y-24973D01*
X32014Y-24973D01*
X31938Y-24954D01*
X31900Y-24935D01*
X31880Y-24916D01*
X31861Y-24878D01*
X34961Y-25126D02*
X34961Y-25049D01*
X34942Y-25011D01*
X34923Y-24992D01*
X34866Y-24954D01*
X34790Y-24935D01*
X34638Y-24935D01*
X34600Y-24954D01*
X34580Y-24973D01*
X34561Y-25011D01*
X34561Y-25088D01*
X34580Y-25126D01*
X34600Y-25145D01*
X34638Y-25164D01*
X34733Y-25164D01*
X34771Y-25145D01*
X34790Y-25126D01*
X34809Y-25088D01*
X34809Y-25011D01*
X34790Y-24973D01*
X34771Y-24954D01*
X34733Y-24935D01*
X36053Y-42804D02*
X36660Y-42804D01*
X36732Y-42785D01*
X36767Y-42766D01*
X36803Y-42728D01*
X36803Y-42652D01*
X36767Y-42614D01*
X36732Y-42595D01*
X36660Y-42576D01*
X36053Y-42576D01*
X36803Y-42366D02*
X36803Y-42290D01*
X36767Y-42252D01*
X36732Y-42233D01*
X36625Y-42195D01*
X36482Y-42176D01*
X36196Y-42176D01*
X36125Y-42195D01*
X36089Y-42214D01*
X36053Y-42252D01*
X36053Y-42328D01*
X36089Y-42366D01*
X36125Y-42385D01*
X36196Y-42404D01*
X36375Y-42404D01*
X36446Y-42385D01*
X36482Y-42366D01*
X36517Y-42328D01*
X36517Y-42252D01*
X36482Y-42214D01*
X36446Y-42195D01*
X36375Y-42176D01*
X42053Y-42804D02*
X42660Y-42804D01*
X42732Y-42785D01*
X42767Y-42766D01*
X42803Y-42728D01*
X42803Y-42652D01*
X42767Y-42614D01*
X42732Y-42595D01*
X42660Y-42576D01*
X42053Y-42576D01*
X42375Y-42328D02*
X42339Y-42366D01*
X42303Y-42385D01*
X42232Y-42404D01*
X42196Y-42404D01*
X42125Y-42385D01*
X42089Y-42366D01*
X42053Y-42328D01*
X42053Y-42252D01*
X42089Y-42214D01*
X42125Y-42195D01*
X42196Y-42176D01*
X42232Y-42176D01*
X42303Y-42195D01*
X42339Y-42214D01*
X42375Y-42252D01*
X42375Y-42328D01*
X42410Y-42366D01*
X42446Y-42385D01*
X42517Y-42404D01*
X42660Y-42404D01*
X42732Y-42385D01*
X42767Y-42366D01*
X42803Y-42328D01*
X42803Y-42252D01*
X42767Y-42214D01*
X42732Y-42195D01*
X42660Y-42176D01*
X42517Y-42176D01*
X42446Y-42195D01*
X42410Y-42214D01*
X42375Y-42252D01*
X48053Y-42804D02*
X48660Y-42804D01*
X48732Y-42785D01*
X48767Y-42766D01*
X48803Y-42728D01*
X48803Y-42652D01*
X48767Y-42614D01*
X48732Y-42595D01*
X48660Y-42576D01*
X48053Y-42576D01*
X48053Y-42423D02*
X48053Y-42157D01*
X48803Y-42328D01*
X54053Y-42804D02*
X54660Y-42804D01*
X54732Y-42785D01*
X54767Y-42766D01*
X54803Y-42728D01*
X54803Y-42652D01*
X54767Y-42614D01*
X54732Y-42595D01*
X54660Y-42576D01*
X54053Y-42576D01*
X54053Y-42214D02*
X54053Y-42290D01*
X54089Y-42328D01*
X54125Y-42347D01*
X54232Y-42385D01*
X54375Y-42404D01*
X54660Y-42404D01*
X54732Y-42385D01*
X54767Y-42366D01*
X54803Y-42328D01*
X54803Y-42252D01*
X54767Y-42214D01*
X54732Y-42195D01*
X54660Y-42176D01*
X54482Y-42176D01*
X54410Y-42195D01*
X54375Y-42214D01*
X54339Y-42252D01*
X54339Y-42328D01*
X54375Y-42366D01*
X54410Y-42385D01*
X54482Y-42404D01*
X60053Y-42804D02*
X60660Y-42804D01*
X60732Y-42785D01*
X60767Y-42766D01*
X60803Y-42728D01*
X60803Y-42652D01*
X60767Y-42614D01*
X60732Y-42595D01*
X60660Y-42576D01*
X60053Y-42576D01*
X60053Y-42195D02*
X60053Y-42385D01*
X60410Y-42404D01*
X60375Y-42385D01*
X60339Y-42347D01*
X60339Y-42252D01*
X60375Y-42214D01*
X60410Y-42195D01*
X60482Y-42176D01*
X60660Y-42176D01*
X60732Y-42195D01*
X60767Y-42214D01*
X60803Y-42252D01*
X60803Y-42347D01*
X60767Y-42385D01*
X60732Y-42404D01*
X66053Y-42804D02*
X66660Y-42804D01*
X66732Y-42785D01*
X66767Y-42766D01*
X66803Y-42728D01*
X66803Y-42652D01*
X66767Y-42614D01*
X66732Y-42595D01*
X66660Y-42576D01*
X66053Y-42576D01*
X66303Y-42214D02*
X66803Y-42214D01*
X66017Y-42309D02*
X66553Y-42404D01*
X66553Y-42157D01*
X72053Y-42804D02*
X72660Y-42804D01*
X72732Y-42785D01*
X72767Y-42766D01*
X72803Y-42728D01*
X72803Y-42652D01*
X72767Y-42614D01*
X72732Y-42595D01*
X72660Y-42576D01*
X72053Y-42576D01*
X72053Y-42423D02*
X72053Y-42176D01*
X72339Y-42309D01*
X72339Y-42252D01*
X72375Y-42214D01*
X72410Y-42195D01*
X72482Y-42176D01*
X72660Y-42176D01*
X72732Y-42195D01*
X72767Y-42214D01*
X72803Y-42252D01*
X72803Y-42366D01*
X72767Y-42404D01*
X72732Y-42423D01*
X78053Y-42804D02*
X78660Y-42804D01*
X78732Y-42785D01*
X78767Y-42766D01*
X78803Y-42728D01*
X78803Y-42652D01*
X78767Y-42614D01*
X78732Y-42595D01*
X78660Y-42576D01*
X78053Y-42576D01*
X78125Y-42404D02*
X78089Y-42385D01*
X78053Y-42347D01*
X78053Y-42252D01*
X78089Y-42214D01*
X78125Y-42195D01*
X78196Y-42176D01*
X78267Y-42176D01*
X78375Y-42195D01*
X78803Y-42423D01*
X78803Y-42176D01*
G54D11*
X31021Y-46742D02*
X31021Y-46142D01*
X31250Y-46142D01*
X31307Y-46171D01*
X31335Y-46200D01*
X31364Y-46257D01*
X31364Y-46342D01*
X31335Y-46400D01*
X31307Y-46428D01*
X31250Y-46457D01*
X31021Y-46457D01*
X31935Y-46742D02*
X31592Y-46742D01*
X31764Y-46742D02*
X31764Y-46142D01*
X31707Y-46228D01*
X31650Y-46285D01*
X31592Y-46314D01*
X32164Y-46200D02*
X32192Y-46171D01*
X32250Y-46142D01*
X32392Y-46142D01*
X32450Y-46171D01*
X32478Y-46200D01*
X32507Y-46257D01*
X32507Y-46314D01*
X32478Y-46400D01*
X32135Y-46742D01*
X32507Y-46742D01*
X37271Y-46742D02*
X37271Y-46142D01*
X37500Y-46142D01*
X37557Y-46171D01*
X37585Y-46200D01*
X37614Y-46257D01*
X37614Y-46342D01*
X37585Y-46400D01*
X37557Y-46428D01*
X37500Y-46457D01*
X37271Y-46457D01*
X38185Y-46742D02*
X37842Y-46742D01*
X38014Y-46742D02*
X38014Y-46142D01*
X37957Y-46228D01*
X37900Y-46285D01*
X37842Y-46314D01*
X38757Y-46742D02*
X38414Y-46742D01*
X38585Y-46742D02*
X38585Y-46142D01*
X38528Y-46228D01*
X38471Y-46285D01*
X38414Y-46314D01*
X43021Y-46742D02*
X43021Y-46142D01*
X43250Y-46142D01*
X43307Y-46171D01*
X43335Y-46200D01*
X43364Y-46257D01*
X43364Y-46342D01*
X43335Y-46400D01*
X43307Y-46428D01*
X43250Y-46457D01*
X43021Y-46457D01*
X43935Y-46742D02*
X43592Y-46742D01*
X43764Y-46742D02*
X43764Y-46142D01*
X43707Y-46228D01*
X43650Y-46285D01*
X43592Y-46314D01*
X44307Y-46142D02*
X44364Y-46142D01*
X44421Y-46171D01*
X44450Y-46200D01*
X44478Y-46257D01*
X44507Y-46371D01*
X44507Y-46514D01*
X44478Y-46628D01*
X44450Y-46685D01*
X44421Y-46714D01*
X44364Y-46742D01*
X44307Y-46742D01*
X44250Y-46714D01*
X44221Y-46685D01*
X44192Y-46628D01*
X44164Y-46514D01*
X44164Y-46371D01*
X44192Y-46257D01*
X44221Y-46200D01*
X44250Y-46171D01*
X44307Y-46142D01*
X49807Y-46742D02*
X49807Y-46142D01*
X50035Y-46142D01*
X50092Y-46171D01*
X50121Y-46200D01*
X50150Y-46257D01*
X50150Y-46342D01*
X50121Y-46400D01*
X50092Y-46428D01*
X50035Y-46457D01*
X49807Y-46457D01*
X50435Y-46742D02*
X50550Y-46742D01*
X50607Y-46714D01*
X50635Y-46685D01*
X50692Y-46600D01*
X50721Y-46485D01*
X50721Y-46257D01*
X50692Y-46200D01*
X50664Y-46171D01*
X50607Y-46142D01*
X50492Y-46142D01*
X50435Y-46171D01*
X50407Y-46200D01*
X50378Y-46257D01*
X50378Y-46400D01*
X50407Y-46457D01*
X50435Y-46485D01*
X50492Y-46514D01*
X50607Y-46514D01*
X50664Y-46485D01*
X50692Y-46457D01*
X50721Y-46400D01*
X55807Y-46742D02*
X55807Y-46142D01*
X56035Y-46142D01*
X56092Y-46171D01*
X56121Y-46200D01*
X56150Y-46257D01*
X56150Y-46342D01*
X56121Y-46400D01*
X56092Y-46428D01*
X56035Y-46457D01*
X55807Y-46457D01*
X56492Y-46400D02*
X56435Y-46371D01*
X56407Y-46342D01*
X56378Y-46285D01*
X56378Y-46257D01*
X56407Y-46200D01*
X56435Y-46171D01*
X56492Y-46142D01*
X56607Y-46142D01*
X56664Y-46171D01*
X56692Y-46200D01*
X56721Y-46257D01*
X56721Y-46285D01*
X56692Y-46342D01*
X56664Y-46371D01*
X56607Y-46400D01*
X56492Y-46400D01*
X56435Y-46428D01*
X56407Y-46457D01*
X56378Y-46514D01*
X56378Y-46628D01*
X56407Y-46685D01*
X56435Y-46714D01*
X56492Y-46742D01*
X56607Y-46742D01*
X56664Y-46714D01*
X56692Y-46685D01*
X56721Y-46628D01*
X56721Y-46514D01*
X56692Y-46457D01*
X56664Y-46428D01*
X56607Y-46400D01*
X61807Y-46742D02*
X61807Y-46142D01*
X62035Y-46142D01*
X62092Y-46171D01*
X62121Y-46200D01*
X62150Y-46257D01*
X62150Y-46342D01*
X62121Y-46400D01*
X62092Y-46428D01*
X62035Y-46457D01*
X61807Y-46457D01*
X62350Y-46142D02*
X62750Y-46142D01*
X62492Y-46742D01*
X67807Y-46742D02*
X67807Y-46142D01*
X68035Y-46142D01*
X68092Y-46171D01*
X68121Y-46200D01*
X68150Y-46257D01*
X68150Y-46342D01*
X68121Y-46400D01*
X68092Y-46428D01*
X68035Y-46457D01*
X67807Y-46457D01*
X68664Y-46142D02*
X68550Y-46142D01*
X68492Y-46171D01*
X68464Y-46200D01*
X68407Y-46285D01*
X68378Y-46400D01*
X68378Y-46628D01*
X68407Y-46685D01*
X68435Y-46714D01*
X68492Y-46742D01*
X68607Y-46742D01*
X68664Y-46714D01*
X68692Y-46685D01*
X68721Y-46628D01*
X68721Y-46485D01*
X68692Y-46428D01*
X68664Y-46400D01*
X68607Y-46371D01*
X68492Y-46371D01*
X68435Y-46400D01*
X68407Y-46428D01*
X68378Y-46485D01*
X73807Y-46742D02*
X73807Y-46142D01*
X74035Y-46142D01*
X74092Y-46171D01*
X74121Y-46200D01*
X74150Y-46257D01*
X74150Y-46342D01*
X74121Y-46400D01*
X74092Y-46428D01*
X74035Y-46457D01*
X73807Y-46457D01*
X74692Y-46142D02*
X74407Y-46142D01*
X74378Y-46428D01*
X74407Y-46400D01*
X74464Y-46371D01*
X74607Y-46371D01*
X74664Y-46400D01*
X74692Y-46428D01*
X74721Y-46485D01*
X74721Y-46628D01*
X74692Y-46685D01*
X74664Y-46714D01*
X74607Y-46742D01*
X74464Y-46742D01*
X74407Y-46714D01*
X74378Y-46685D01*
G54D15*
X50704Y-21661D02*
X50704Y-21261D01*
X50857Y-21261D01*
X50895Y-21280D01*
X50914Y-21300D01*
X50933Y-21338D01*
X50933Y-21395D01*
X50914Y-21433D01*
X50895Y-21452D01*
X50857Y-21471D01*
X50704Y-21471D01*
X51314Y-21661D02*
X51085Y-21661D01*
X51200Y-21661D02*
X51200Y-21261D01*
X51161Y-21319D01*
X51123Y-21357D01*
X51085Y-21376D01*
G54D14*
X78861Y-23145D02*
X78461Y-23145D01*
X78861Y-22916D02*
X78633Y-23088D01*
X78461Y-22916D02*
X78690Y-23145D01*
X78500Y-22764D02*
X78480Y-22745D01*
X78461Y-22707D01*
X78461Y-22611D01*
X78480Y-22573D01*
X78500Y-22554D01*
X78538Y-22535D01*
X78576Y-22535D01*
X78633Y-22554D01*
X78861Y-22783D01*
X78861Y-22535D01*
X74423Y-21597D02*
X74442Y-21616D01*
X74461Y-21673D01*
X74461Y-21711D01*
X74442Y-21769D01*
X74404Y-21807D01*
X74366Y-21826D01*
X74290Y-21845D01*
X74233Y-21845D01*
X74157Y-21826D01*
X74119Y-21807D01*
X74080Y-21769D01*
X74061Y-21711D01*
X74061Y-21673D01*
X74080Y-21616D01*
X74100Y-21597D01*
X74061Y-21349D02*
X74061Y-21273D01*
X74080Y-21235D01*
X74119Y-21197D01*
X74195Y-21178D01*
X74328Y-21178D01*
X74404Y-21197D01*
X74442Y-21235D01*
X74461Y-21273D01*
X74461Y-21349D01*
X74442Y-21388D01*
X74404Y-21426D01*
X74328Y-21445D01*
X74195Y-21445D01*
X74119Y-21426D01*
X74080Y-21388D01*
X74061Y-21349D01*
X74461Y-21007D02*
X74061Y-21007D01*
X74461Y-20778D01*
X74061Y-20778D01*
X74461Y-20588D02*
X74061Y-20588D01*
X74461Y-20359D01*
X74061Y-20359D01*
X74500Y-20264D02*
X74500Y-19959D01*
X74061Y-19902D02*
X74061Y-19654D01*
X74214Y-19788D01*
X74214Y-19730D01*
X74233Y-19692D01*
X74252Y-19673D01*
X74290Y-19654D01*
X74385Y-19654D01*
X74423Y-19673D01*
X74442Y-19692D01*
X74461Y-19730D01*
X74461Y-19845D01*
X74442Y-19883D01*
X74423Y-19902D01*
G54D18*
X48328Y-49721D02*
X48328Y-49421D01*
X48400Y-49421D01*
X48442Y-49435D01*
X48471Y-49464D01*
X48485Y-49492D01*
X48500Y-49550D01*
X48500Y-49592D01*
X48485Y-49650D01*
X48471Y-49678D01*
X48442Y-49707D01*
X48400Y-49721D01*
X48328Y-49721D01*
X48757Y-49421D02*
X48700Y-49421D01*
X48671Y-49435D01*
X48657Y-49450D01*
X48628Y-49492D01*
X48614Y-49550D01*
X48614Y-49664D01*
X48628Y-49692D01*
X48642Y-49707D01*
X48671Y-49721D01*
X48728Y-49721D01*
X48757Y-49707D01*
X48771Y-49692D01*
X48785Y-49664D01*
X48785Y-49592D01*
X48771Y-49564D01*
X48757Y-49550D01*
X48728Y-49535D01*
X48671Y-49535D01*
X48642Y-49550D01*
X48628Y-49564D01*
X48614Y-49592D01*
X49057Y-47621D02*
X48914Y-47621D01*
X48914Y-47321D01*
X49157Y-47464D02*
X49257Y-47464D01*
X49300Y-47621D02*
X49157Y-47621D01*
X49157Y-47321D01*
X49300Y-47321D01*
X49428Y-47621D02*
X49428Y-47321D01*
X49500Y-47321D01*
X49542Y-47335D01*
X49571Y-47364D01*
X49585Y-47392D01*
X49600Y-47450D01*
X49600Y-47492D01*
X49585Y-47550D01*
X49571Y-47578D01*
X49542Y-47607D01*
X49500Y-47621D01*
X49428Y-47621D01*
X54328Y-49721D02*
X54328Y-49421D01*
X54400Y-49421D01*
X54442Y-49435D01*
X54471Y-49464D01*
X54485Y-49492D01*
X54500Y-49550D01*
X54500Y-49592D01*
X54485Y-49650D01*
X54471Y-49678D01*
X54442Y-49707D01*
X54400Y-49721D01*
X54328Y-49721D01*
X54771Y-49421D02*
X54628Y-49421D01*
X54614Y-49564D01*
X54628Y-49550D01*
X54657Y-49535D01*
X54728Y-49535D01*
X54757Y-49550D01*
X54771Y-49564D01*
X54785Y-49592D01*
X54785Y-49664D01*
X54771Y-49692D01*
X54757Y-49707D01*
X54728Y-49721D01*
X54657Y-49721D01*
X54628Y-49707D01*
X54614Y-49692D01*
X55057Y-47621D02*
X54914Y-47621D01*
X54914Y-47321D01*
X55157Y-47464D02*
X55257Y-47464D01*
X55300Y-47621D02*
X55157Y-47621D01*
X55157Y-47321D01*
X55300Y-47321D01*
X55428Y-47621D02*
X55428Y-47321D01*
X55500Y-47321D01*
X55542Y-47335D01*
X55571Y-47364D01*
X55585Y-47392D01*
X55600Y-47450D01*
X55600Y-47492D01*
X55585Y-47550D01*
X55571Y-47578D01*
X55542Y-47607D01*
X55500Y-47621D01*
X55428Y-47621D01*
X36328Y-49721D02*
X36328Y-49421D01*
X36400Y-49421D01*
X36442Y-49435D01*
X36471Y-49464D01*
X36485Y-49492D01*
X36500Y-49550D01*
X36500Y-49592D01*
X36485Y-49650D01*
X36471Y-49678D01*
X36442Y-49707D01*
X36400Y-49721D01*
X36328Y-49721D01*
X36671Y-49550D02*
X36642Y-49535D01*
X36628Y-49521D01*
X36614Y-49492D01*
X36614Y-49478D01*
X36628Y-49450D01*
X36642Y-49435D01*
X36671Y-49421D01*
X36728Y-49421D01*
X36757Y-49435D01*
X36771Y-49450D01*
X36785Y-49478D01*
X36785Y-49492D01*
X36771Y-49521D01*
X36757Y-49535D01*
X36728Y-49550D01*
X36671Y-49550D01*
X36642Y-49564D01*
X36628Y-49578D01*
X36614Y-49607D01*
X36614Y-49664D01*
X36628Y-49692D01*
X36642Y-49707D01*
X36671Y-49721D01*
X36728Y-49721D01*
X36757Y-49707D01*
X36771Y-49692D01*
X36785Y-49664D01*
X36785Y-49607D01*
X36771Y-49578D01*
X36757Y-49564D01*
X36728Y-49550D01*
X37057Y-47621D02*
X36914Y-47621D01*
X36914Y-47321D01*
X37157Y-47464D02*
X37257Y-47464D01*
X37300Y-47621D02*
X37157Y-47621D01*
X37157Y-47321D01*
X37300Y-47321D01*
X37428Y-47621D02*
X37428Y-47321D01*
X37500Y-47321D01*
X37542Y-47335D01*
X37571Y-47364D01*
X37585Y-47392D01*
X37600Y-47450D01*
X37600Y-47492D01*
X37585Y-47550D01*
X37571Y-47578D01*
X37542Y-47607D01*
X37500Y-47621D01*
X37428Y-47621D01*
X42328Y-49721D02*
X42328Y-49421D01*
X42400Y-49421D01*
X42442Y-49435D01*
X42471Y-49464D01*
X42485Y-49492D01*
X42500Y-49550D01*
X42500Y-49592D01*
X42485Y-49650D01*
X42471Y-49678D01*
X42442Y-49707D01*
X42400Y-49721D01*
X42328Y-49721D01*
X42600Y-49421D02*
X42800Y-49421D01*
X42671Y-49721D01*
X43057Y-47621D02*
X42914Y-47621D01*
X42914Y-47321D01*
X43157Y-47464D02*
X43257Y-47464D01*
X43300Y-47621D02*
X43157Y-47621D01*
X43157Y-47321D01*
X43300Y-47321D01*
X43428Y-47621D02*
X43428Y-47321D01*
X43500Y-47321D01*
X43542Y-47335D01*
X43571Y-47364D01*
X43585Y-47392D01*
X43600Y-47450D01*
X43600Y-47492D01*
X43585Y-47550D01*
X43571Y-47578D01*
X43542Y-47607D01*
X43500Y-47621D01*
X43428Y-47621D01*
X60328Y-49721D02*
X60328Y-49421D01*
X60400Y-49421D01*
X60442Y-49435D01*
X60471Y-49464D01*
X60485Y-49492D01*
X60500Y-49550D01*
X60500Y-49592D01*
X60485Y-49650D01*
X60471Y-49678D01*
X60442Y-49707D01*
X60400Y-49721D01*
X60328Y-49721D01*
X60757Y-49521D02*
X60757Y-49721D01*
X60685Y-49407D02*
X60614Y-49621D01*
X60800Y-49621D01*
X61057Y-47621D02*
X60914Y-47621D01*
X60914Y-47321D01*
X61157Y-47464D02*
X61257Y-47464D01*
X61300Y-47621D02*
X61157Y-47621D01*
X61157Y-47321D01*
X61300Y-47321D01*
X61428Y-47621D02*
X61428Y-47321D01*
X61500Y-47321D01*
X61542Y-47335D01*
X61571Y-47364D01*
X61585Y-47392D01*
X61600Y-47450D01*
X61600Y-47492D01*
X61585Y-47550D01*
X61571Y-47578D01*
X61542Y-47607D01*
X61500Y-47621D01*
X61428Y-47621D01*
X72328Y-49721D02*
X72328Y-49421D01*
X72400Y-49421D01*
X72442Y-49435D01*
X72471Y-49464D01*
X72485Y-49492D01*
X72500Y-49550D01*
X72500Y-49592D01*
X72485Y-49650D01*
X72471Y-49678D01*
X72442Y-49707D01*
X72400Y-49721D01*
X72328Y-49721D01*
X72614Y-49450D02*
X72628Y-49435D01*
X72657Y-49421D01*
X72728Y-49421D01*
X72757Y-49435D01*
X72771Y-49450D01*
X72785Y-49478D01*
X72785Y-49507D01*
X72771Y-49550D01*
X72600Y-49721D01*
X72785Y-49721D01*
X73057Y-47621D02*
X72914Y-47621D01*
X72914Y-47321D01*
X73157Y-47464D02*
X73257Y-47464D01*
X73300Y-47621D02*
X73157Y-47621D01*
X73157Y-47321D01*
X73300Y-47321D01*
X73428Y-47621D02*
X73428Y-47321D01*
X73500Y-47321D01*
X73542Y-47335D01*
X73571Y-47364D01*
X73585Y-47392D01*
X73600Y-47450D01*
X73600Y-47492D01*
X73585Y-47550D01*
X73571Y-47578D01*
X73542Y-47607D01*
X73500Y-47621D01*
X73428Y-47621D01*
X66328Y-49721D02*
X66328Y-49421D01*
X66400Y-49421D01*
X66442Y-49435D01*
X66471Y-49464D01*
X66485Y-49492D01*
X66500Y-49550D01*
X66500Y-49592D01*
X66485Y-49650D01*
X66471Y-49678D01*
X66442Y-49707D01*
X66400Y-49721D01*
X66328Y-49721D01*
X66600Y-49421D02*
X66785Y-49421D01*
X66685Y-49535D01*
X66728Y-49535D01*
X66757Y-49550D01*
X66771Y-49564D01*
X66785Y-49592D01*
X66785Y-49664D01*
X66771Y-49692D01*
X66757Y-49707D01*
X66728Y-49721D01*
X66642Y-49721D01*
X66614Y-49707D01*
X66600Y-49692D01*
X67057Y-47621D02*
X66914Y-47621D01*
X66914Y-47321D01*
X67157Y-47464D02*
X67257Y-47464D01*
X67300Y-47621D02*
X67157Y-47621D01*
X67157Y-47321D01*
X67300Y-47321D01*
X67428Y-47621D02*
X67428Y-47321D01*
X67500Y-47321D01*
X67542Y-47335D01*
X67571Y-47364D01*
X67585Y-47392D01*
X67600Y-47450D01*
X67600Y-47492D01*
X67585Y-47550D01*
X67571Y-47578D01*
X67542Y-47607D01*
X67500Y-47621D01*
X67428Y-47621D01*
X78328Y-49721D02*
X78328Y-49421D01*
X78400Y-49421D01*
X78442Y-49435D01*
X78471Y-49464D01*
X78485Y-49492D01*
X78500Y-49550D01*
X78500Y-49592D01*
X78485Y-49650D01*
X78471Y-49678D01*
X78442Y-49707D01*
X78400Y-49721D01*
X78328Y-49721D01*
X78785Y-49721D02*
X78614Y-49721D01*
X78700Y-49721D02*
X78700Y-49421D01*
X78671Y-49464D01*
X78642Y-49492D01*
X78614Y-49507D01*
X79057Y-47621D02*
X78914Y-47621D01*
X78914Y-47321D01*
X79157Y-47464D02*
X79257Y-47464D01*
X79300Y-47621D02*
X79157Y-47621D01*
X79157Y-47321D01*
X79300Y-47321D01*
X79428Y-47621D02*
X79428Y-47321D01*
X79500Y-47321D01*
X79542Y-47335D01*
X79571Y-47364D01*
X79585Y-47392D01*
X79600Y-47450D01*
X79600Y-47492D01*
X79585Y-47550D01*
X79571Y-47578D01*
X79542Y-47607D01*
X79500Y-47621D01*
X79428Y-47621D01*
M02*
