G04 (created by PCBNEW (2013-jul-07)-stable) date Mon 06 Apr 2015 09:25:55 PM PDT*
%MOIN*%
G04 Gerber Fmt 3.4, Leading zero omitted, Abs format*
%FSLAX34Y34*%
G01*
G70*
G90*
G04 APERTURE LIST*
%ADD10C,0.00590551*%
%ADD11R,0.069X0.06*%
%ADD12C,0.069*%
%ADD13C,0.055*%
%ADD14R,0.055X0.055*%
%ADD15R,0.06X0.06*%
%ADD16C,0.06*%
%ADD17R,0.07X0.07*%
%ADD18C,0.07*%
%ADD19C,0.13*%
%ADD20R,0.063X0.063*%
%ADD21C,0.063*%
%ADD22C,0.189*%
%ADD23R,0.189X0.189*%
%ADD24C,0.066*%
%ADD25C,0.035*%
%ADD26C,0.02*%
%ADD27C,0.04*%
%ADD28C,0.01*%
G04 APERTURE END LIST*
G54D10*
G54D11*
X47500Y-34500D03*
G54D12*
X47500Y-33500D03*
X47500Y-32500D03*
X47500Y-31500D03*
X47500Y-30500D03*
X47500Y-29500D03*
X47500Y-28500D03*
X47500Y-27500D03*
X47500Y-26500D03*
X47500Y-25500D03*
X47500Y-24500D03*
X47500Y-23500D03*
X47500Y-22500D03*
X47500Y-21500D03*
X47500Y-20500D03*
X41500Y-20500D03*
X41500Y-21500D03*
X41500Y-22500D03*
X41500Y-23500D03*
X41500Y-24500D03*
X41500Y-25500D03*
X41500Y-26500D03*
X41500Y-27500D03*
X41500Y-28500D03*
X41500Y-29500D03*
X41500Y-30500D03*
X41500Y-31500D03*
X41500Y-32500D03*
X41500Y-33500D03*
X41500Y-34500D03*
G54D13*
X35270Y-32875D03*
X37270Y-32875D03*
G54D14*
X59935Y-27070D03*
G54D13*
X58935Y-27070D03*
X57935Y-27070D03*
X56935Y-27070D03*
X55935Y-27070D03*
X54935Y-27070D03*
X53935Y-27070D03*
X52935Y-27070D03*
X52935Y-30070D03*
X53935Y-30070D03*
X54935Y-30070D03*
X55935Y-30070D03*
X56935Y-30070D03*
X57935Y-30070D03*
X58935Y-30070D03*
X59935Y-30070D03*
G54D14*
X72000Y-27000D03*
G54D13*
X71000Y-27000D03*
X70000Y-27000D03*
X69000Y-27000D03*
X68000Y-27000D03*
X67000Y-27000D03*
X66000Y-27000D03*
X65000Y-27000D03*
X65000Y-30000D03*
X66000Y-30000D03*
X67000Y-30000D03*
X68000Y-30000D03*
X69000Y-30000D03*
X70000Y-30000D03*
X71000Y-30000D03*
X72000Y-30000D03*
G54D15*
X33335Y-32875D03*
G54D16*
X32335Y-32875D03*
G54D15*
X66500Y-21500D03*
G54D16*
X65500Y-21500D03*
X64500Y-21500D03*
G54D15*
X61750Y-21500D03*
G54D16*
X60750Y-21500D03*
X59750Y-21500D03*
X58750Y-21500D03*
X36500Y-30750D03*
X32500Y-30750D03*
G54D17*
X34975Y-26600D03*
G54D18*
X33975Y-26600D03*
X34975Y-25600D03*
X33975Y-25600D03*
X34975Y-24600D03*
X33975Y-24600D03*
X34975Y-23600D03*
X33975Y-23600D03*
X34975Y-22600D03*
X33975Y-22600D03*
G54D19*
X30750Y-49000D03*
X81750Y-20500D03*
X81750Y-49000D03*
X30750Y-20500D03*
G54D14*
X36250Y-37000D03*
G54D13*
X35250Y-37000D03*
X34250Y-37000D03*
X34250Y-40000D03*
X35250Y-40000D03*
X36250Y-40000D03*
G54D14*
X42250Y-37000D03*
G54D13*
X41250Y-37000D03*
X40250Y-37000D03*
X40250Y-40000D03*
X41250Y-40000D03*
X42250Y-40000D03*
G54D14*
X48250Y-37000D03*
G54D13*
X47250Y-37000D03*
X46250Y-37000D03*
X46250Y-40000D03*
X47250Y-40000D03*
X48250Y-40000D03*
G54D14*
X54250Y-37000D03*
G54D13*
X53250Y-37000D03*
X52250Y-37000D03*
X52250Y-40000D03*
X53250Y-40000D03*
X54250Y-40000D03*
G54D14*
X60250Y-37000D03*
G54D13*
X59250Y-37000D03*
X58250Y-37000D03*
X58250Y-40000D03*
X59250Y-40000D03*
X60250Y-40000D03*
G54D14*
X66250Y-37000D03*
G54D13*
X65250Y-37000D03*
X64250Y-37000D03*
X64250Y-40000D03*
X65250Y-40000D03*
X66250Y-40000D03*
G54D14*
X72250Y-37000D03*
G54D13*
X71250Y-37000D03*
X70250Y-37000D03*
X70250Y-40000D03*
X71250Y-40000D03*
X72250Y-40000D03*
G54D14*
X78250Y-37000D03*
G54D13*
X77250Y-37000D03*
X76250Y-37000D03*
X76250Y-40000D03*
X77250Y-40000D03*
X78250Y-40000D03*
G54D20*
X34939Y-48500D03*
G54D21*
X33561Y-48500D03*
G54D20*
X40939Y-48500D03*
G54D21*
X39561Y-48500D03*
G54D20*
X46939Y-48500D03*
G54D21*
X45561Y-48500D03*
G54D20*
X52939Y-48500D03*
G54D21*
X51561Y-48500D03*
G54D20*
X58939Y-48500D03*
G54D21*
X57561Y-48500D03*
G54D20*
X64939Y-48500D03*
G54D21*
X63561Y-48500D03*
G54D20*
X70939Y-48500D03*
G54D21*
X69561Y-48500D03*
G54D20*
X76939Y-48500D03*
G54D21*
X75561Y-48500D03*
G54D15*
X56000Y-21500D03*
G54D16*
X55000Y-21500D03*
X54000Y-21500D03*
X53000Y-21500D03*
X52000Y-21500D03*
G54D22*
X76500Y-22750D03*
G54D23*
X76500Y-25230D03*
G54D22*
X74531Y-23650D03*
G54D13*
X33500Y-44500D03*
X33500Y-42500D03*
X39500Y-44500D03*
X39500Y-42500D03*
X45500Y-44500D03*
X45500Y-42500D03*
X51500Y-44500D03*
X51500Y-42500D03*
X57500Y-44500D03*
X57500Y-42500D03*
X63500Y-44500D03*
X63500Y-42500D03*
X69500Y-44500D03*
X69500Y-42500D03*
X75500Y-44500D03*
X75500Y-42500D03*
X35250Y-42000D03*
X35250Y-45000D03*
X41250Y-42000D03*
X41250Y-45000D03*
X47250Y-42000D03*
X47250Y-45000D03*
X53250Y-42000D03*
X53250Y-45000D03*
X59250Y-42000D03*
X59250Y-45000D03*
X65250Y-42000D03*
X65250Y-45000D03*
X71250Y-42000D03*
X71250Y-45000D03*
X77250Y-42000D03*
X77250Y-45000D03*
X43000Y-45000D03*
X43000Y-42000D03*
X49000Y-45000D03*
X49000Y-42000D03*
X55000Y-45000D03*
X55000Y-42000D03*
X61000Y-45000D03*
X61000Y-42000D03*
X67000Y-45000D03*
X67000Y-42000D03*
X73000Y-45000D03*
X73000Y-42000D03*
X79000Y-45000D03*
X79000Y-42000D03*
X37000Y-45000D03*
X37000Y-42000D03*
G54D24*
X49750Y-48500D03*
X48750Y-48500D03*
X55750Y-48500D03*
X54750Y-48500D03*
X37750Y-48500D03*
X36750Y-48500D03*
X43750Y-48500D03*
X42750Y-48500D03*
X61750Y-48500D03*
X60750Y-48500D03*
X73750Y-48500D03*
X72750Y-48500D03*
X67750Y-48500D03*
X66750Y-48500D03*
X79750Y-48500D03*
X78750Y-48500D03*
G54D25*
X45520Y-33122D03*
X60025Y-27712D03*
X33592Y-27609D03*
X46927Y-36077D03*
G54D26*
X36500Y-28675D02*
X36500Y-30750D01*
X34975Y-27150D02*
X36500Y-28675D01*
X34975Y-26600D02*
X34975Y-27150D01*
X43897Y-31500D02*
X45520Y-33122D01*
X41500Y-31500D02*
X43897Y-31500D01*
X61750Y-21500D02*
X61750Y-22000D01*
X60128Y-27712D02*
X60025Y-27712D01*
X60559Y-27280D02*
X60128Y-27712D01*
X60559Y-23190D02*
X60559Y-27280D01*
X61750Y-22000D02*
X60559Y-23190D01*
G54D27*
X34939Y-47361D02*
X34939Y-48500D01*
X36100Y-46200D02*
X34939Y-47361D01*
X36100Y-44100D02*
X36100Y-46200D01*
X35250Y-43250D02*
X36100Y-44100D01*
X35250Y-42000D02*
X35250Y-43250D01*
X40938Y-47461D02*
X40938Y-47980D01*
X42100Y-46300D02*
X40938Y-47461D01*
X42100Y-43300D02*
X42100Y-46300D01*
X41250Y-42450D02*
X42100Y-43300D01*
X41250Y-42000D02*
X41250Y-42450D01*
X40938Y-47980D02*
X40938Y-48500D01*
G54D26*
X40939Y-47980D02*
X40939Y-48500D01*
X40938Y-47980D02*
X40939Y-47980D01*
G54D27*
X46938Y-47461D02*
X46938Y-47980D01*
X48100Y-46300D02*
X46938Y-47461D01*
X48100Y-43800D02*
X48100Y-46300D01*
X47250Y-42950D02*
X48100Y-43800D01*
X47250Y-42000D02*
X47250Y-42950D01*
X46938Y-47980D02*
X46938Y-48500D01*
G54D26*
X46939Y-47980D02*
X46939Y-48500D01*
X46938Y-47980D02*
X46939Y-47980D01*
G54D27*
X52938Y-46861D02*
X52938Y-47680D01*
X54100Y-45700D02*
X52938Y-46861D01*
X54100Y-43500D02*
X54100Y-45700D01*
X53250Y-42650D02*
X54100Y-43500D01*
X53250Y-42000D02*
X53250Y-42650D01*
X52938Y-47680D02*
X52938Y-48500D01*
G54D26*
X52939Y-47680D02*
X52939Y-48500D01*
X52938Y-47680D02*
X52939Y-47680D01*
G54D27*
X58938Y-47061D02*
X58938Y-47780D01*
X60100Y-45900D02*
X58938Y-47061D01*
X60100Y-43700D02*
X60100Y-45900D01*
X59250Y-42850D02*
X60100Y-43700D01*
X59250Y-42000D02*
X59250Y-42850D01*
X58938Y-47780D02*
X58938Y-48500D01*
G54D26*
X58939Y-47780D02*
X58939Y-48500D01*
X58938Y-47780D02*
X58939Y-47780D01*
G54D27*
X64938Y-47461D02*
X64938Y-47980D01*
X66100Y-46300D02*
X64938Y-47461D01*
X66100Y-43600D02*
X66100Y-46300D01*
X65250Y-42750D02*
X66100Y-43600D01*
X65250Y-42000D02*
X65250Y-42750D01*
X64938Y-47980D02*
X64938Y-48500D01*
G54D26*
X64939Y-47980D02*
X64939Y-48500D01*
X64938Y-47980D02*
X64939Y-47980D01*
G54D27*
X70938Y-46861D02*
X70938Y-47680D01*
X72100Y-45700D02*
X70938Y-46861D01*
X72100Y-43600D02*
X72100Y-45700D01*
X71250Y-42750D02*
X72100Y-43600D01*
X71250Y-42000D02*
X71250Y-42750D01*
X70938Y-47680D02*
X70938Y-48500D01*
G54D26*
X70939Y-47680D02*
X70939Y-48500D01*
X70938Y-47680D02*
X70939Y-47680D01*
G54D27*
X76938Y-47261D02*
X76938Y-47880D01*
X78100Y-46100D02*
X76938Y-47261D01*
X78100Y-43400D02*
X78100Y-46100D01*
X77250Y-42550D02*
X78100Y-43400D01*
X77250Y-42000D02*
X77250Y-42550D01*
X76938Y-47880D02*
X76938Y-48500D01*
G54D26*
X76939Y-47880D02*
X76939Y-48500D01*
X76938Y-47880D02*
X76939Y-47880D01*
X38043Y-22043D02*
X41500Y-25500D01*
X33744Y-22043D02*
X38043Y-22043D01*
X33422Y-22365D02*
X33744Y-22043D01*
X33422Y-23047D02*
X33422Y-22365D01*
X33975Y-23600D02*
X33422Y-23047D01*
X37600Y-24600D02*
X41500Y-28500D01*
X34975Y-24600D02*
X37600Y-24600D01*
X33424Y-27442D02*
X33592Y-27609D01*
X33424Y-26150D02*
X33424Y-27442D01*
X33975Y-25600D02*
X33424Y-26150D01*
X39875Y-30500D02*
X41500Y-30500D01*
X34975Y-25600D02*
X39875Y-30500D01*
X44054Y-19945D02*
X41500Y-22500D01*
X57195Y-19945D02*
X44054Y-19945D01*
X58750Y-21500D02*
X57195Y-19945D01*
X52912Y-28087D02*
X47500Y-33500D01*
X60183Y-28087D02*
X52912Y-28087D01*
X61625Y-26645D02*
X60183Y-28087D01*
X61625Y-23647D02*
X61625Y-26645D01*
X64277Y-20995D02*
X61625Y-23647D01*
X65995Y-20995D02*
X64277Y-20995D01*
X66500Y-21500D02*
X65995Y-20995D01*
X53114Y-28885D02*
X47500Y-34500D01*
X59842Y-28885D02*
X53114Y-28885D01*
X65500Y-23228D02*
X59842Y-28885D01*
X65500Y-21500D02*
X65500Y-23228D01*
X48001Y-22001D02*
X47500Y-21500D01*
X53498Y-22001D02*
X48001Y-22001D01*
X54000Y-21500D02*
X53498Y-22001D01*
X49454Y-27545D02*
X47500Y-29500D01*
X53459Y-27545D02*
X49454Y-27545D01*
X53935Y-27070D02*
X53459Y-27545D01*
X48424Y-26575D02*
X47500Y-27500D01*
X55440Y-26575D02*
X48424Y-26575D01*
X55935Y-27070D02*
X55440Y-26575D01*
X47727Y-26272D02*
X47500Y-26500D01*
X56137Y-26272D02*
X47727Y-26272D01*
X56935Y-27070D02*
X56137Y-26272D01*
X56365Y-25500D02*
X57935Y-27070D01*
X47500Y-25500D02*
X56365Y-25500D01*
X56365Y-24500D02*
X47500Y-24500D01*
X58935Y-27070D02*
X56365Y-24500D01*
X56038Y-23500D02*
X47500Y-23500D01*
X59459Y-26921D02*
X56038Y-23500D01*
X59459Y-27070D02*
X59459Y-26921D01*
X59935Y-27070D02*
X59459Y-27070D01*
X74530Y-25700D02*
X74530Y-23650D01*
X77250Y-28420D02*
X74530Y-25700D01*
X77250Y-37000D02*
X77250Y-28420D01*
X41250Y-35528D02*
X42070Y-34708D01*
X41250Y-37000D02*
X41250Y-35528D01*
X42070Y-34070D02*
X41500Y-33500D01*
X42070Y-34708D02*
X42070Y-34070D01*
X47250Y-37000D02*
X44958Y-34708D01*
X44958Y-34708D02*
X42070Y-34708D01*
X47500Y-31673D02*
X47500Y-31500D01*
X44958Y-34215D02*
X47500Y-31673D01*
X44958Y-34708D02*
X44958Y-34215D01*
X33975Y-29580D02*
X33975Y-26600D01*
X37270Y-32875D02*
X33975Y-29580D01*
X59725Y-37475D02*
X59250Y-37000D01*
X64774Y-37475D02*
X59725Y-37475D01*
X65250Y-37000D02*
X64774Y-37475D01*
X43298Y-49048D02*
X42750Y-48500D01*
X48201Y-49048D02*
X43298Y-49048D01*
X48750Y-48500D02*
X48201Y-49048D01*
X60250Y-33384D02*
X56935Y-30070D01*
X60250Y-37000D02*
X60250Y-33384D01*
X46927Y-36077D02*
X52935Y-30070D01*
X42250Y-37000D02*
X42725Y-37000D01*
X47725Y-36279D02*
X53935Y-30070D01*
X47725Y-37201D02*
X47725Y-36279D01*
X47447Y-37479D02*
X47725Y-37201D01*
X43204Y-37479D02*
X47447Y-37479D01*
X42725Y-37000D02*
X43204Y-37479D01*
X55935Y-34839D02*
X55935Y-30070D01*
X54250Y-36524D02*
X55935Y-34839D01*
X54250Y-37000D02*
X54250Y-36524D01*
X66250Y-37000D02*
X66250Y-36700D01*
X57935Y-30485D02*
X57935Y-30070D01*
X58515Y-31065D02*
X57935Y-30485D01*
X60615Y-31065D02*
X58515Y-31065D01*
X66250Y-36700D02*
X60615Y-31065D01*
X48250Y-37000D02*
X48250Y-36524D01*
X54704Y-30070D02*
X48250Y-36524D01*
X54935Y-30070D02*
X54704Y-30070D01*
X64588Y-29588D02*
X65000Y-30000D01*
X55740Y-29588D02*
X64588Y-29588D01*
X55435Y-29893D02*
X55740Y-29588D01*
X55435Y-30657D02*
X55435Y-29893D01*
X47877Y-38214D02*
X55435Y-30657D01*
X43340Y-38214D02*
X47877Y-38214D01*
X41750Y-39805D02*
X43340Y-38214D01*
X41750Y-40522D02*
X41750Y-39805D01*
X40268Y-42003D02*
X41750Y-40522D01*
X40268Y-45981D02*
X40268Y-42003D01*
X37750Y-48500D02*
X40268Y-45981D01*
X79750Y-43609D02*
X79750Y-48500D01*
X76750Y-40609D02*
X79750Y-43609D01*
X76750Y-34750D02*
X76750Y-40609D01*
X72000Y-30000D02*
X76750Y-34750D01*
X69000Y-36119D02*
X69000Y-30000D01*
X65749Y-39369D02*
X69000Y-36119D01*
X65749Y-40609D02*
X65749Y-39369D01*
X64623Y-41735D02*
X65749Y-40609D01*
X64623Y-45626D02*
X64623Y-41735D01*
X61750Y-48500D02*
X64623Y-45626D01*
X32500Y-30750D02*
X32500Y-32369D01*
X32335Y-32534D02*
X32500Y-32369D01*
X32335Y-32875D02*
X32335Y-32534D01*
X34764Y-32369D02*
X35270Y-32875D01*
X32500Y-32369D02*
X34764Y-32369D01*
X59414Y-30549D02*
X58935Y-30070D01*
X65140Y-30549D02*
X59414Y-30549D01*
X65500Y-30189D02*
X65140Y-30549D01*
X65500Y-29812D02*
X65500Y-30189D01*
X65787Y-29524D02*
X65500Y-29812D01*
X70198Y-29524D02*
X65787Y-29524D01*
X70500Y-29826D02*
X70198Y-29524D01*
X70500Y-34774D02*
X70500Y-29826D01*
X72250Y-36524D02*
X70500Y-34774D01*
X72250Y-37000D02*
X72250Y-36524D01*
X68000Y-36083D02*
X68000Y-30000D01*
X66255Y-37828D02*
X68000Y-36083D01*
X64846Y-37828D02*
X66255Y-37828D01*
X61733Y-40941D02*
X64846Y-37828D01*
X59635Y-40941D02*
X61733Y-40941D01*
X58719Y-41857D02*
X59635Y-40941D01*
X58719Y-45530D02*
X58719Y-41857D01*
X55750Y-48500D02*
X58719Y-45530D01*
X70000Y-36000D02*
X70000Y-30000D01*
X67750Y-38250D02*
X70000Y-36000D01*
X67750Y-48500D02*
X67750Y-38250D01*
X73750Y-32750D02*
X71000Y-30000D01*
X73750Y-48500D02*
X73750Y-32750D01*
G54D10*
G36*
X34051Y-26605D02*
X33980Y-26676D01*
X33975Y-26670D01*
X33969Y-26676D01*
X33898Y-26605D01*
X33904Y-26600D01*
X33898Y-26594D01*
X33969Y-26523D01*
X33975Y-26529D01*
X33980Y-26523D01*
X34051Y-26594D01*
X34045Y-26600D01*
X34051Y-26605D01*
X34051Y-26605D01*
G37*
G54D28*
X34051Y-26605D02*
X33980Y-26676D01*
X33975Y-26670D01*
X33969Y-26676D01*
X33898Y-26605D01*
X33904Y-26600D01*
X33898Y-26594D01*
X33969Y-26523D01*
X33975Y-26529D01*
X33980Y-26523D01*
X34051Y-26594D01*
X34045Y-26600D01*
X34051Y-26605D01*
G54D10*
G36*
X65150Y-23083D02*
X64869Y-23363D01*
X64869Y-21940D01*
X64500Y-21570D01*
X64130Y-21940D01*
X64152Y-22064D01*
X64394Y-22154D01*
X64652Y-22144D01*
X64847Y-22064D01*
X64869Y-21940D01*
X64869Y-23363D01*
X61975Y-26257D01*
X61975Y-23792D01*
X63931Y-21836D01*
X63935Y-21847D01*
X64059Y-21869D01*
X64429Y-21500D01*
X64423Y-21494D01*
X64494Y-21423D01*
X64500Y-21429D01*
X64505Y-21423D01*
X64576Y-21494D01*
X64570Y-21500D01*
X64940Y-21869D01*
X65064Y-21847D01*
X65065Y-21843D01*
X65150Y-21927D01*
X65150Y-23083D01*
X65150Y-23083D01*
G37*
G54D28*
X65150Y-23083D02*
X64869Y-23363D01*
X64869Y-21940D01*
X64500Y-21570D01*
X64130Y-21940D01*
X64152Y-22064D01*
X64394Y-22154D01*
X64652Y-22144D01*
X64847Y-22064D01*
X64869Y-21940D01*
X64869Y-23363D01*
X61975Y-26257D01*
X61975Y-23792D01*
X63931Y-21836D01*
X63935Y-21847D01*
X64059Y-21869D01*
X64429Y-21500D01*
X64423Y-21494D01*
X64494Y-21423D01*
X64500Y-21429D01*
X64505Y-21423D01*
X64576Y-21494D01*
X64570Y-21500D01*
X64940Y-21869D01*
X65064Y-21847D01*
X65065Y-21843D01*
X65150Y-21927D01*
X65150Y-23083D01*
G54D10*
G36*
X82425Y-48402D02*
X82260Y-48237D01*
X81929Y-48100D01*
X81571Y-48099D01*
X81240Y-48236D01*
X80987Y-48489D01*
X80850Y-48820D01*
X80849Y-49178D01*
X80986Y-49509D01*
X81152Y-49675D01*
X79141Y-49675D01*
X79141Y-48962D01*
X78750Y-48570D01*
X78679Y-48641D01*
X78679Y-48500D01*
X78287Y-48108D01*
X78161Y-48133D01*
X78065Y-48387D01*
X78074Y-48657D01*
X78161Y-48866D01*
X78287Y-48891D01*
X78679Y-48500D01*
X78679Y-48641D01*
X78358Y-48962D01*
X78383Y-49088D01*
X78637Y-49184D01*
X78907Y-49175D01*
X79116Y-49088D01*
X79141Y-48962D01*
X79141Y-49675D01*
X76126Y-49675D01*
X76126Y-48388D01*
X76040Y-48180D01*
X76025Y-48165D01*
X76025Y-44396D01*
X76025Y-42396D01*
X75945Y-42203D01*
X75797Y-42055D01*
X75604Y-41975D01*
X75396Y-41974D01*
X75203Y-42054D01*
X75055Y-42202D01*
X74975Y-42395D01*
X74974Y-42603D01*
X75054Y-42797D01*
X75202Y-42944D01*
X75395Y-43024D01*
X75603Y-43025D01*
X75797Y-42945D01*
X75944Y-42797D01*
X76024Y-42604D01*
X76025Y-42396D01*
X76025Y-44396D01*
X75945Y-44203D01*
X75797Y-44055D01*
X75604Y-43975D01*
X75396Y-43974D01*
X75203Y-44054D01*
X75055Y-44202D01*
X74975Y-44395D01*
X74974Y-44603D01*
X75054Y-44797D01*
X75202Y-44944D01*
X75395Y-45024D01*
X75603Y-45025D01*
X75797Y-44945D01*
X75944Y-44797D01*
X76024Y-44604D01*
X76025Y-44396D01*
X76025Y-48165D01*
X75881Y-48021D01*
X75673Y-47935D01*
X75449Y-47934D01*
X75241Y-48020D01*
X75082Y-48179D01*
X74996Y-48387D01*
X74995Y-48611D01*
X75081Y-48819D01*
X75240Y-48978D01*
X75448Y-49064D01*
X75672Y-49065D01*
X75880Y-48979D01*
X76039Y-48820D01*
X76125Y-48612D01*
X76126Y-48388D01*
X76126Y-49675D01*
X73141Y-49675D01*
X73141Y-48962D01*
X72750Y-48570D01*
X72679Y-48641D01*
X72679Y-48500D01*
X72287Y-48108D01*
X72161Y-48133D01*
X72065Y-48387D01*
X72074Y-48657D01*
X72161Y-48866D01*
X72287Y-48891D01*
X72679Y-48500D01*
X72679Y-48641D01*
X72358Y-48962D01*
X72383Y-49088D01*
X72637Y-49184D01*
X72907Y-49175D01*
X73116Y-49088D01*
X73141Y-48962D01*
X73141Y-49675D01*
X70126Y-49675D01*
X70126Y-48388D01*
X70040Y-48180D01*
X70025Y-48165D01*
X70025Y-44396D01*
X70025Y-42396D01*
X69945Y-42203D01*
X69797Y-42055D01*
X69604Y-41975D01*
X69396Y-41974D01*
X69203Y-42054D01*
X69055Y-42202D01*
X68975Y-42395D01*
X68974Y-42603D01*
X69054Y-42797D01*
X69202Y-42944D01*
X69395Y-43024D01*
X69603Y-43025D01*
X69797Y-42945D01*
X69944Y-42797D01*
X70024Y-42604D01*
X70025Y-42396D01*
X70025Y-44396D01*
X69945Y-44203D01*
X69797Y-44055D01*
X69604Y-43975D01*
X69396Y-43974D01*
X69203Y-44054D01*
X69055Y-44202D01*
X68975Y-44395D01*
X68974Y-44603D01*
X69054Y-44797D01*
X69202Y-44944D01*
X69395Y-45024D01*
X69603Y-45025D01*
X69797Y-44945D01*
X69944Y-44797D01*
X70024Y-44604D01*
X70025Y-44396D01*
X70025Y-48165D01*
X69881Y-48021D01*
X69673Y-47935D01*
X69449Y-47934D01*
X69241Y-48020D01*
X69082Y-48179D01*
X68996Y-48387D01*
X68995Y-48611D01*
X69081Y-48819D01*
X69240Y-48978D01*
X69448Y-49064D01*
X69672Y-49065D01*
X69880Y-48979D01*
X70039Y-48820D01*
X70125Y-48612D01*
X70126Y-48388D01*
X70126Y-49675D01*
X67141Y-49675D01*
X67141Y-48962D01*
X66750Y-48570D01*
X66679Y-48641D01*
X66679Y-48500D01*
X66287Y-48108D01*
X66161Y-48133D01*
X66065Y-48387D01*
X66074Y-48657D01*
X66161Y-48866D01*
X66287Y-48891D01*
X66679Y-48500D01*
X66679Y-48641D01*
X66358Y-48962D01*
X66383Y-49088D01*
X66637Y-49184D01*
X66907Y-49175D01*
X67116Y-49088D01*
X67141Y-48962D01*
X67141Y-49675D01*
X64126Y-49675D01*
X64126Y-48388D01*
X64040Y-48180D01*
X63881Y-48021D01*
X63673Y-47935D01*
X63449Y-47934D01*
X63241Y-48020D01*
X63082Y-48179D01*
X62996Y-48387D01*
X62995Y-48611D01*
X63081Y-48819D01*
X63240Y-48978D01*
X63448Y-49064D01*
X63672Y-49065D01*
X63880Y-48979D01*
X64039Y-48820D01*
X64125Y-48612D01*
X64126Y-48388D01*
X64126Y-49675D01*
X61141Y-49675D01*
X61141Y-48962D01*
X60750Y-48570D01*
X60679Y-48641D01*
X60679Y-48500D01*
X60287Y-48108D01*
X60161Y-48133D01*
X60065Y-48387D01*
X60074Y-48657D01*
X60161Y-48866D01*
X60287Y-48891D01*
X60679Y-48500D01*
X60679Y-48641D01*
X60358Y-48962D01*
X60383Y-49088D01*
X60637Y-49184D01*
X60907Y-49175D01*
X61116Y-49088D01*
X61141Y-48962D01*
X61141Y-49675D01*
X58126Y-49675D01*
X58126Y-48388D01*
X58040Y-48180D01*
X57881Y-48021D01*
X57673Y-47935D01*
X57449Y-47934D01*
X57241Y-48020D01*
X57082Y-48179D01*
X56996Y-48387D01*
X56995Y-48611D01*
X57081Y-48819D01*
X57240Y-48978D01*
X57448Y-49064D01*
X57672Y-49065D01*
X57880Y-48979D01*
X58039Y-48820D01*
X58125Y-48612D01*
X58126Y-48388D01*
X58126Y-49675D01*
X55141Y-49675D01*
X55141Y-48962D01*
X54750Y-48570D01*
X54679Y-48641D01*
X54679Y-48500D01*
X54287Y-48108D01*
X54161Y-48133D01*
X54065Y-48387D01*
X54074Y-48657D01*
X54161Y-48866D01*
X54287Y-48891D01*
X54679Y-48500D01*
X54679Y-48641D01*
X54358Y-48962D01*
X54383Y-49088D01*
X54637Y-49184D01*
X54907Y-49175D01*
X55116Y-49088D01*
X55141Y-48962D01*
X55141Y-49675D01*
X52126Y-49675D01*
X52126Y-48388D01*
X52040Y-48180D01*
X52025Y-48165D01*
X52025Y-44396D01*
X52025Y-42396D01*
X51945Y-42203D01*
X51797Y-42055D01*
X51604Y-41975D01*
X51396Y-41974D01*
X51203Y-42054D01*
X51055Y-42202D01*
X50975Y-42395D01*
X50974Y-42603D01*
X51054Y-42797D01*
X51202Y-42944D01*
X51395Y-43024D01*
X51603Y-43025D01*
X51797Y-42945D01*
X51944Y-42797D01*
X52024Y-42604D01*
X52025Y-42396D01*
X52025Y-44396D01*
X51945Y-44203D01*
X51797Y-44055D01*
X51604Y-43975D01*
X51396Y-43974D01*
X51203Y-44054D01*
X51055Y-44202D01*
X50975Y-44395D01*
X50974Y-44603D01*
X51054Y-44797D01*
X51202Y-44944D01*
X51395Y-45024D01*
X51603Y-45025D01*
X51797Y-44945D01*
X51944Y-44797D01*
X52024Y-44604D01*
X52025Y-44396D01*
X52025Y-48165D01*
X51881Y-48021D01*
X51673Y-47935D01*
X51449Y-47934D01*
X51241Y-48020D01*
X51082Y-48179D01*
X50996Y-48387D01*
X50995Y-48611D01*
X51081Y-48819D01*
X51240Y-48978D01*
X51448Y-49064D01*
X51672Y-49065D01*
X51880Y-48979D01*
X52039Y-48820D01*
X52125Y-48612D01*
X52126Y-48388D01*
X52126Y-49675D01*
X50330Y-49675D01*
X50330Y-48385D01*
X50241Y-48171D01*
X50078Y-48008D01*
X49865Y-47920D01*
X49635Y-47919D01*
X49525Y-47965D01*
X49525Y-44896D01*
X49525Y-41896D01*
X49445Y-41703D01*
X49297Y-41555D01*
X49104Y-41475D01*
X48896Y-41474D01*
X48775Y-41524D01*
X48775Y-39896D01*
X48695Y-39703D01*
X48547Y-39555D01*
X48354Y-39475D01*
X48146Y-39474D01*
X47953Y-39554D01*
X47805Y-39702D01*
X47749Y-39835D01*
X47695Y-39703D01*
X47547Y-39555D01*
X47354Y-39475D01*
X47146Y-39474D01*
X46953Y-39554D01*
X46805Y-39702D01*
X46749Y-39835D01*
X46695Y-39703D01*
X46547Y-39555D01*
X46354Y-39475D01*
X46146Y-39474D01*
X45953Y-39554D01*
X45805Y-39702D01*
X45725Y-39895D01*
X45724Y-40103D01*
X45804Y-40297D01*
X45952Y-40444D01*
X46145Y-40524D01*
X46353Y-40525D01*
X46547Y-40445D01*
X46694Y-40297D01*
X46750Y-40164D01*
X46804Y-40297D01*
X46952Y-40444D01*
X47145Y-40524D01*
X47353Y-40525D01*
X47547Y-40445D01*
X47694Y-40297D01*
X47750Y-40164D01*
X47804Y-40297D01*
X47952Y-40444D01*
X48145Y-40524D01*
X48353Y-40525D01*
X48547Y-40445D01*
X48694Y-40297D01*
X48774Y-40104D01*
X48775Y-39896D01*
X48775Y-41524D01*
X48703Y-41554D01*
X48555Y-41702D01*
X48475Y-41895D01*
X48474Y-42103D01*
X48554Y-42297D01*
X48702Y-42444D01*
X48895Y-42524D01*
X49103Y-42525D01*
X49297Y-42445D01*
X49444Y-42297D01*
X49524Y-42104D01*
X49525Y-41896D01*
X49525Y-44896D01*
X49445Y-44703D01*
X49297Y-44555D01*
X49104Y-44475D01*
X48896Y-44474D01*
X48703Y-44554D01*
X48555Y-44702D01*
X48550Y-44714D01*
X48550Y-43800D01*
X48515Y-43627D01*
X48418Y-43481D01*
X47700Y-42763D01*
X47700Y-42285D01*
X47774Y-42104D01*
X47775Y-41896D01*
X47695Y-41703D01*
X47547Y-41555D01*
X47354Y-41475D01*
X47146Y-41474D01*
X46953Y-41554D01*
X46805Y-41702D01*
X46725Y-41895D01*
X46724Y-42103D01*
X46800Y-42285D01*
X46800Y-42950D01*
X46834Y-43122D01*
X46931Y-43268D01*
X47650Y-43986D01*
X47650Y-44657D01*
X47547Y-44555D01*
X47354Y-44475D01*
X47146Y-44474D01*
X46953Y-44554D01*
X46805Y-44702D01*
X46725Y-44895D01*
X46724Y-45103D01*
X46804Y-45297D01*
X46952Y-45444D01*
X47145Y-45524D01*
X47353Y-45525D01*
X47547Y-45445D01*
X47650Y-45342D01*
X47650Y-46113D01*
X46620Y-47142D01*
X46523Y-47288D01*
X46488Y-47461D01*
X46488Y-47970D01*
X46482Y-47972D01*
X46412Y-48043D01*
X46374Y-48135D01*
X46373Y-48234D01*
X46373Y-48864D01*
X46411Y-48956D01*
X46482Y-49026D01*
X46574Y-49064D01*
X46673Y-49065D01*
X47303Y-49065D01*
X47395Y-49027D01*
X47465Y-48956D01*
X47503Y-48864D01*
X47504Y-48765D01*
X47504Y-48135D01*
X47466Y-48043D01*
X47395Y-47973D01*
X47388Y-47970D01*
X47388Y-47647D01*
X48418Y-46618D01*
X48418Y-46618D01*
X48418Y-46618D01*
X48515Y-46472D01*
X48515Y-46472D01*
X48549Y-46300D01*
X48550Y-46300D01*
X48550Y-45285D01*
X48554Y-45297D01*
X48702Y-45444D01*
X48895Y-45524D01*
X49103Y-45525D01*
X49297Y-45445D01*
X49444Y-45297D01*
X49524Y-45104D01*
X49525Y-44896D01*
X49525Y-47965D01*
X49421Y-48008D01*
X49302Y-48126D01*
X49212Y-48108D01*
X49141Y-48179D01*
X49141Y-48037D01*
X49116Y-47911D01*
X48862Y-47815D01*
X48592Y-47824D01*
X48383Y-47911D01*
X48358Y-48037D01*
X48750Y-48429D01*
X49141Y-48037D01*
X49141Y-48179D01*
X48820Y-48500D01*
X49212Y-48891D01*
X49303Y-48873D01*
X49421Y-48991D01*
X49634Y-49079D01*
X49864Y-49080D01*
X50078Y-48991D01*
X50241Y-48828D01*
X50329Y-48615D01*
X50330Y-48385D01*
X50330Y-49675D01*
X49141Y-49675D01*
X49141Y-48962D01*
X48750Y-48570D01*
X48679Y-48641D01*
X48679Y-48500D01*
X48287Y-48108D01*
X48161Y-48133D01*
X48065Y-48387D01*
X48074Y-48657D01*
X48161Y-48866D01*
X48287Y-48891D01*
X48679Y-48500D01*
X48679Y-48641D01*
X48358Y-48962D01*
X48383Y-49088D01*
X48637Y-49184D01*
X48907Y-49175D01*
X49116Y-49088D01*
X49141Y-48962D01*
X49141Y-49675D01*
X46126Y-49675D01*
X46126Y-48388D01*
X46040Y-48180D01*
X46025Y-48165D01*
X46025Y-44396D01*
X46025Y-42396D01*
X45945Y-42203D01*
X45797Y-42055D01*
X45604Y-41975D01*
X45396Y-41974D01*
X45203Y-42054D01*
X45055Y-42202D01*
X44975Y-42395D01*
X44974Y-42603D01*
X45054Y-42797D01*
X45202Y-42944D01*
X45395Y-43024D01*
X45603Y-43025D01*
X45797Y-42945D01*
X45944Y-42797D01*
X46024Y-42604D01*
X46025Y-42396D01*
X46025Y-44396D01*
X45945Y-44203D01*
X45797Y-44055D01*
X45604Y-43975D01*
X45396Y-43974D01*
X45203Y-44054D01*
X45055Y-44202D01*
X44975Y-44395D01*
X44974Y-44603D01*
X45054Y-44797D01*
X45202Y-44944D01*
X45395Y-45024D01*
X45603Y-45025D01*
X45797Y-44945D01*
X45944Y-44797D01*
X46024Y-44604D01*
X46025Y-44396D01*
X46025Y-48165D01*
X45881Y-48021D01*
X45673Y-47935D01*
X45449Y-47934D01*
X45241Y-48020D01*
X45082Y-48179D01*
X44996Y-48387D01*
X44995Y-48611D01*
X45081Y-48819D01*
X45240Y-48978D01*
X45448Y-49064D01*
X45672Y-49065D01*
X45880Y-48979D01*
X46039Y-48820D01*
X46125Y-48612D01*
X46126Y-48388D01*
X46126Y-49675D01*
X44330Y-49675D01*
X44330Y-48385D01*
X44241Y-48171D01*
X44078Y-48008D01*
X43865Y-47920D01*
X43635Y-47919D01*
X43421Y-48008D01*
X43302Y-48126D01*
X43212Y-48108D01*
X43141Y-48179D01*
X43141Y-48037D01*
X43116Y-47911D01*
X42862Y-47815D01*
X42592Y-47824D01*
X42383Y-47911D01*
X42358Y-48037D01*
X42750Y-48429D01*
X43141Y-48037D01*
X43141Y-48179D01*
X42820Y-48500D01*
X43212Y-48891D01*
X43303Y-48873D01*
X43421Y-48991D01*
X43634Y-49079D01*
X43864Y-49080D01*
X44078Y-48991D01*
X44241Y-48828D01*
X44329Y-48615D01*
X44330Y-48385D01*
X44330Y-49675D01*
X43141Y-49675D01*
X43141Y-48962D01*
X42750Y-48570D01*
X42679Y-48641D01*
X42679Y-48500D01*
X42287Y-48108D01*
X42161Y-48133D01*
X42065Y-48387D01*
X42074Y-48657D01*
X42161Y-48866D01*
X42287Y-48891D01*
X42679Y-48500D01*
X42679Y-48641D01*
X42358Y-48962D01*
X42383Y-49088D01*
X42637Y-49184D01*
X42907Y-49175D01*
X43116Y-49088D01*
X43141Y-48962D01*
X43141Y-49675D01*
X40126Y-49675D01*
X40126Y-48388D01*
X40040Y-48180D01*
X39881Y-48021D01*
X39673Y-47935D01*
X39449Y-47934D01*
X39241Y-48020D01*
X39082Y-48179D01*
X38996Y-48387D01*
X38995Y-48611D01*
X39081Y-48819D01*
X39240Y-48978D01*
X39448Y-49064D01*
X39672Y-49065D01*
X39880Y-48979D01*
X40039Y-48820D01*
X40125Y-48612D01*
X40126Y-48388D01*
X40126Y-49675D01*
X37141Y-49675D01*
X37141Y-48962D01*
X36750Y-48570D01*
X36679Y-48641D01*
X36679Y-48500D01*
X36287Y-48108D01*
X36161Y-48133D01*
X36065Y-48387D01*
X36074Y-48657D01*
X36161Y-48866D01*
X36287Y-48891D01*
X36679Y-48500D01*
X36679Y-48641D01*
X36358Y-48962D01*
X36383Y-49088D01*
X36637Y-49184D01*
X36907Y-49175D01*
X37116Y-49088D01*
X37141Y-48962D01*
X37141Y-49675D01*
X34126Y-49675D01*
X34126Y-48388D01*
X34040Y-48180D01*
X34025Y-48165D01*
X34025Y-44396D01*
X34025Y-42396D01*
X33945Y-42203D01*
X33797Y-42055D01*
X33604Y-41975D01*
X33396Y-41974D01*
X33203Y-42054D01*
X33055Y-42202D01*
X32975Y-42395D01*
X32974Y-42603D01*
X33054Y-42797D01*
X33202Y-42944D01*
X33395Y-43024D01*
X33603Y-43025D01*
X33797Y-42945D01*
X33944Y-42797D01*
X34024Y-42604D01*
X34025Y-42396D01*
X34025Y-44396D01*
X33945Y-44203D01*
X33797Y-44055D01*
X33604Y-43975D01*
X33396Y-43974D01*
X33203Y-44054D01*
X33055Y-44202D01*
X32975Y-44395D01*
X32974Y-44603D01*
X33054Y-44797D01*
X33202Y-44944D01*
X33395Y-45024D01*
X33603Y-45025D01*
X33797Y-44945D01*
X33944Y-44797D01*
X34024Y-44604D01*
X34025Y-44396D01*
X34025Y-48165D01*
X33881Y-48021D01*
X33673Y-47935D01*
X33449Y-47934D01*
X33241Y-48020D01*
X33082Y-48179D01*
X32996Y-48387D01*
X32995Y-48611D01*
X33081Y-48819D01*
X33240Y-48978D01*
X33448Y-49064D01*
X33672Y-49065D01*
X33880Y-48979D01*
X34039Y-48820D01*
X34125Y-48612D01*
X34126Y-48388D01*
X34126Y-49675D01*
X31347Y-49675D01*
X31512Y-49510D01*
X31649Y-49179D01*
X31650Y-48821D01*
X31513Y-48490D01*
X31260Y-48237D01*
X30929Y-48100D01*
X30571Y-48099D01*
X30240Y-48236D01*
X30075Y-48402D01*
X30075Y-21097D01*
X30239Y-21262D01*
X30570Y-21399D01*
X30928Y-21400D01*
X31259Y-21263D01*
X31512Y-21010D01*
X31649Y-20679D01*
X31650Y-20321D01*
X31513Y-19990D01*
X31347Y-19825D01*
X43680Y-19825D01*
X42095Y-21409D01*
X42095Y-21382D01*
X42004Y-21163D01*
X41841Y-20999D01*
X42004Y-20837D01*
X42094Y-20618D01*
X42095Y-20382D01*
X42004Y-20163D01*
X41837Y-19995D01*
X41618Y-19905D01*
X41382Y-19904D01*
X41163Y-19995D01*
X40995Y-20162D01*
X40905Y-20381D01*
X40904Y-20617D01*
X40995Y-20836D01*
X41158Y-21000D01*
X40995Y-21162D01*
X40905Y-21381D01*
X40904Y-21617D01*
X40995Y-21836D01*
X41158Y-22000D01*
X40995Y-22162D01*
X40905Y-22381D01*
X40904Y-22617D01*
X40995Y-22836D01*
X41158Y-23000D01*
X40995Y-23162D01*
X40905Y-23381D01*
X40904Y-23617D01*
X40995Y-23836D01*
X41158Y-24000D01*
X40995Y-24162D01*
X40905Y-24381D01*
X40905Y-24410D01*
X38290Y-21795D01*
X38177Y-21719D01*
X38043Y-21693D01*
X33744Y-21693D01*
X33610Y-21719D01*
X33497Y-21795D01*
X33174Y-22118D01*
X33098Y-22232D01*
X33072Y-22365D01*
X33072Y-23047D01*
X33098Y-23181D01*
X33174Y-23294D01*
X33375Y-23495D01*
X33374Y-23718D01*
X33466Y-23939D01*
X33626Y-24100D01*
X33466Y-24259D01*
X33375Y-24480D01*
X33374Y-24718D01*
X33466Y-24939D01*
X33626Y-25100D01*
X33466Y-25259D01*
X33375Y-25480D01*
X33374Y-25705D01*
X33177Y-25902D01*
X33101Y-26016D01*
X33074Y-26150D01*
X33074Y-27442D01*
X33101Y-27576D01*
X33166Y-27674D01*
X33166Y-27693D01*
X33231Y-27849D01*
X33350Y-27969D01*
X33507Y-28034D01*
X33676Y-28034D01*
X33832Y-27969D01*
X33952Y-27850D01*
X34016Y-27694D01*
X34017Y-27525D01*
X33952Y-27369D01*
X33886Y-27303D01*
X34135Y-27295D01*
X34353Y-27205D01*
X34381Y-27076D01*
X34443Y-27139D01*
X34452Y-27130D01*
X34483Y-27161D01*
X34575Y-27199D01*
X34634Y-27200D01*
X34651Y-27284D01*
X34727Y-27397D01*
X36150Y-28820D01*
X36150Y-30322D01*
X36034Y-30438D01*
X35950Y-30640D01*
X35949Y-30858D01*
X36033Y-31061D01*
X36188Y-31215D01*
X36390Y-31299D01*
X36608Y-31300D01*
X36811Y-31216D01*
X36965Y-31061D01*
X37049Y-30859D01*
X37050Y-30641D01*
X36966Y-30438D01*
X36850Y-30322D01*
X36850Y-28675D01*
X36823Y-28541D01*
X36747Y-28427D01*
X35474Y-27154D01*
X35536Y-27091D01*
X35574Y-26999D01*
X35575Y-26900D01*
X35575Y-26695D01*
X39627Y-30747D01*
X39627Y-30747D01*
X39741Y-30823D01*
X39874Y-30849D01*
X39875Y-30850D01*
X41008Y-30850D01*
X41158Y-31000D01*
X40995Y-31162D01*
X40905Y-31381D01*
X40904Y-31617D01*
X40995Y-31836D01*
X41158Y-32000D01*
X40995Y-32162D01*
X40905Y-32381D01*
X40904Y-32617D01*
X40995Y-32836D01*
X41113Y-32954D01*
X41097Y-33026D01*
X41500Y-33429D01*
X41902Y-33026D01*
X41886Y-32954D01*
X42004Y-32837D01*
X42094Y-32618D01*
X42095Y-32382D01*
X42004Y-32163D01*
X41841Y-31999D01*
X41991Y-31850D01*
X43752Y-31850D01*
X45095Y-33192D01*
X45095Y-33207D01*
X45159Y-33363D01*
X45279Y-33483D01*
X45435Y-33547D01*
X45604Y-33547D01*
X45760Y-33483D01*
X45880Y-33363D01*
X45945Y-33207D01*
X45945Y-33038D01*
X45880Y-32882D01*
X45761Y-32762D01*
X45605Y-32697D01*
X45590Y-32697D01*
X44144Y-31252D01*
X44031Y-31176D01*
X43897Y-31150D01*
X41991Y-31150D01*
X41841Y-30999D01*
X42004Y-30837D01*
X42094Y-30618D01*
X42095Y-30382D01*
X42004Y-30163D01*
X41841Y-29999D01*
X42004Y-29837D01*
X42094Y-29618D01*
X42095Y-29382D01*
X42004Y-29163D01*
X41841Y-28999D01*
X42004Y-28837D01*
X42094Y-28618D01*
X42095Y-28382D01*
X42004Y-28163D01*
X41841Y-27999D01*
X42004Y-27837D01*
X42094Y-27618D01*
X42095Y-27382D01*
X42004Y-27163D01*
X41841Y-26999D01*
X42004Y-26837D01*
X42094Y-26618D01*
X42095Y-26382D01*
X42004Y-26163D01*
X41841Y-25999D01*
X42004Y-25837D01*
X42094Y-25618D01*
X42095Y-25382D01*
X42004Y-25163D01*
X41841Y-24999D01*
X42004Y-24837D01*
X42094Y-24618D01*
X42095Y-24382D01*
X42004Y-24163D01*
X41841Y-23999D01*
X42004Y-23837D01*
X42094Y-23618D01*
X42095Y-23382D01*
X42004Y-23163D01*
X41841Y-22999D01*
X42004Y-22837D01*
X42094Y-22618D01*
X42095Y-22399D01*
X44199Y-20295D01*
X46940Y-20295D01*
X46905Y-20381D01*
X46904Y-20617D01*
X46995Y-20836D01*
X47158Y-21000D01*
X46995Y-21162D01*
X46905Y-21381D01*
X46904Y-21617D01*
X46995Y-21836D01*
X47158Y-22000D01*
X46995Y-22162D01*
X46905Y-22381D01*
X46904Y-22617D01*
X46995Y-22836D01*
X47158Y-23000D01*
X46995Y-23162D01*
X46905Y-23381D01*
X46904Y-23617D01*
X46995Y-23836D01*
X47158Y-24000D01*
X46995Y-24162D01*
X46905Y-24381D01*
X46904Y-24617D01*
X46995Y-24836D01*
X47158Y-25000D01*
X46995Y-25162D01*
X46905Y-25381D01*
X46904Y-25617D01*
X46995Y-25836D01*
X47158Y-26000D01*
X46995Y-26162D01*
X46905Y-26381D01*
X46904Y-26617D01*
X46995Y-26836D01*
X47158Y-27000D01*
X46995Y-27162D01*
X46905Y-27381D01*
X46904Y-27617D01*
X46995Y-27836D01*
X47158Y-28000D01*
X46995Y-28162D01*
X46905Y-28381D01*
X46904Y-28617D01*
X46995Y-28836D01*
X47158Y-29000D01*
X46995Y-29162D01*
X46905Y-29381D01*
X46904Y-29617D01*
X46995Y-29836D01*
X47158Y-30000D01*
X46995Y-30162D01*
X46905Y-30381D01*
X46904Y-30617D01*
X46995Y-30836D01*
X47113Y-30954D01*
X47097Y-31026D01*
X47500Y-31429D01*
X47902Y-31026D01*
X47886Y-30954D01*
X48004Y-30837D01*
X48094Y-30618D01*
X48095Y-30382D01*
X48004Y-30163D01*
X47841Y-29999D01*
X48004Y-29837D01*
X48094Y-29618D01*
X48095Y-29399D01*
X49599Y-27895D01*
X52609Y-27895D01*
X48198Y-32306D01*
X48198Y-31616D01*
X48190Y-31340D01*
X48101Y-31124D01*
X47973Y-31097D01*
X47570Y-31500D01*
X47973Y-31902D01*
X48101Y-31875D01*
X48198Y-31616D01*
X48198Y-32306D01*
X48095Y-32409D01*
X48095Y-32382D01*
X48004Y-32163D01*
X47886Y-32045D01*
X47902Y-31973D01*
X47500Y-31570D01*
X47429Y-31641D01*
X47429Y-31500D01*
X47026Y-31097D01*
X46898Y-31124D01*
X46801Y-31383D01*
X46809Y-31659D01*
X46898Y-31875D01*
X47026Y-31902D01*
X47429Y-31500D01*
X47429Y-31641D01*
X47097Y-31973D01*
X47113Y-32045D01*
X46995Y-32162D01*
X46905Y-32381D01*
X46904Y-32617D01*
X46995Y-32836D01*
X47158Y-33000D01*
X46995Y-33162D01*
X46905Y-33381D01*
X46904Y-33617D01*
X46995Y-33836D01*
X47108Y-33949D01*
X47105Y-33949D01*
X47013Y-33987D01*
X46943Y-34058D01*
X46905Y-34150D01*
X46904Y-34249D01*
X46904Y-34849D01*
X46942Y-34941D01*
X47013Y-35011D01*
X47105Y-35049D01*
X47204Y-35050D01*
X47460Y-35050D01*
X46857Y-35652D01*
X46843Y-35652D01*
X46686Y-35717D01*
X46567Y-35836D01*
X46502Y-35992D01*
X46502Y-36161D01*
X46566Y-36318D01*
X46686Y-36437D01*
X46842Y-36502D01*
X46909Y-36502D01*
X46898Y-36577D01*
X47250Y-36929D01*
X47255Y-36923D01*
X47326Y-36994D01*
X47320Y-37000D01*
X47326Y-37005D01*
X47255Y-37076D01*
X47250Y-37070D01*
X47244Y-37076D01*
X47173Y-37005D01*
X47179Y-37000D01*
X46827Y-36648D01*
X46706Y-36667D01*
X46693Y-36701D01*
X46547Y-36555D01*
X46354Y-36475D01*
X46146Y-36474D01*
X45953Y-36554D01*
X45805Y-36702D01*
X45725Y-36895D01*
X45724Y-37103D01*
X45735Y-37129D01*
X43349Y-37129D01*
X42972Y-36752D01*
X42859Y-36676D01*
X42768Y-36658D01*
X42768Y-36658D01*
X42737Y-36583D01*
X42666Y-36513D01*
X42574Y-36475D01*
X42475Y-36474D01*
X42198Y-36474D01*
X42198Y-33616D01*
X42190Y-33340D01*
X42101Y-33124D01*
X41973Y-33097D01*
X41570Y-33500D01*
X41973Y-33902D01*
X42101Y-33875D01*
X42198Y-33616D01*
X42198Y-36474D01*
X42095Y-36474D01*
X42095Y-34382D01*
X42004Y-34163D01*
X41886Y-34045D01*
X41902Y-33973D01*
X41500Y-33570D01*
X41429Y-33641D01*
X41429Y-33500D01*
X41026Y-33097D01*
X40898Y-33124D01*
X40801Y-33383D01*
X40809Y-33659D01*
X40898Y-33875D01*
X41026Y-33902D01*
X41429Y-33500D01*
X41429Y-33641D01*
X41097Y-33973D01*
X41113Y-34045D01*
X40995Y-34162D01*
X40905Y-34381D01*
X40904Y-34617D01*
X40995Y-34836D01*
X41162Y-35004D01*
X41381Y-35094D01*
X41617Y-35095D01*
X41836Y-35004D01*
X42004Y-34837D01*
X42094Y-34618D01*
X42095Y-34382D01*
X42095Y-36474D01*
X41925Y-36474D01*
X41833Y-36512D01*
X41763Y-36583D01*
X41732Y-36657D01*
X41672Y-36648D01*
X41601Y-36718D01*
X41601Y-36577D01*
X41582Y-36456D01*
X41349Y-36370D01*
X41101Y-36380D01*
X40917Y-36456D01*
X40898Y-36577D01*
X41250Y-36929D01*
X41601Y-36577D01*
X41601Y-36718D01*
X41320Y-37000D01*
X41672Y-37351D01*
X41732Y-37342D01*
X41762Y-37416D01*
X41833Y-37486D01*
X41925Y-37524D01*
X42024Y-37525D01*
X42574Y-37525D01*
X42666Y-37487D01*
X42691Y-37461D01*
X42956Y-37726D01*
X43070Y-37802D01*
X43204Y-37829D01*
X47447Y-37829D01*
X47581Y-37802D01*
X47581Y-37802D01*
X47694Y-37726D01*
X47904Y-37516D01*
X47925Y-37524D01*
X48024Y-37525D01*
X48072Y-37525D01*
X47732Y-37864D01*
X43340Y-37864D01*
X43207Y-37891D01*
X43093Y-37966D01*
X41601Y-39458D01*
X41601Y-37422D01*
X41250Y-37070D01*
X41179Y-37141D01*
X41179Y-37000D01*
X40827Y-36648D01*
X40706Y-36667D01*
X40693Y-36701D01*
X40547Y-36555D01*
X40354Y-36475D01*
X40146Y-36474D01*
X39953Y-36554D01*
X39805Y-36702D01*
X39725Y-36895D01*
X39724Y-37103D01*
X39804Y-37297D01*
X39952Y-37444D01*
X40145Y-37524D01*
X40353Y-37525D01*
X40547Y-37445D01*
X40692Y-37299D01*
X40706Y-37332D01*
X40827Y-37351D01*
X41179Y-37000D01*
X41179Y-37141D01*
X40898Y-37422D01*
X40917Y-37543D01*
X41150Y-37629D01*
X41398Y-37619D01*
X41582Y-37543D01*
X41601Y-37422D01*
X41601Y-39458D01*
X41517Y-39542D01*
X41354Y-39475D01*
X41146Y-39474D01*
X40953Y-39554D01*
X40805Y-39702D01*
X40749Y-39835D01*
X40695Y-39703D01*
X40547Y-39555D01*
X40354Y-39475D01*
X40146Y-39474D01*
X39953Y-39554D01*
X39805Y-39702D01*
X39725Y-39895D01*
X39724Y-40103D01*
X39804Y-40297D01*
X39952Y-40444D01*
X40145Y-40524D01*
X40353Y-40525D01*
X40547Y-40445D01*
X40694Y-40297D01*
X40750Y-40164D01*
X40804Y-40297D01*
X40952Y-40444D01*
X41145Y-40524D01*
X41252Y-40525D01*
X40021Y-41755D01*
X39945Y-41869D01*
X39918Y-42003D01*
X39918Y-42176D01*
X39797Y-42055D01*
X39604Y-41975D01*
X39396Y-41974D01*
X39203Y-42054D01*
X39055Y-42202D01*
X38975Y-42395D01*
X38974Y-42603D01*
X39054Y-42797D01*
X39202Y-42944D01*
X39395Y-43024D01*
X39603Y-43025D01*
X39797Y-42945D01*
X39918Y-42823D01*
X39918Y-44176D01*
X39797Y-44055D01*
X39604Y-43975D01*
X39396Y-43974D01*
X39203Y-44054D01*
X39055Y-44202D01*
X38975Y-44395D01*
X38974Y-44603D01*
X39054Y-44797D01*
X39202Y-44944D01*
X39395Y-45024D01*
X39603Y-45025D01*
X39797Y-44945D01*
X39918Y-44823D01*
X39918Y-45836D01*
X37899Y-47855D01*
X37899Y-32974D01*
X37889Y-32726D01*
X37813Y-32542D01*
X37692Y-32523D01*
X37621Y-32593D01*
X37621Y-32452D01*
X37602Y-32331D01*
X37369Y-32245D01*
X37121Y-32255D01*
X36937Y-32331D01*
X36918Y-32452D01*
X37270Y-32804D01*
X37621Y-32452D01*
X37621Y-32593D01*
X37340Y-32875D01*
X37692Y-33226D01*
X37813Y-33207D01*
X37899Y-32974D01*
X37899Y-47855D01*
X37834Y-47920D01*
X37635Y-47919D01*
X37621Y-47925D01*
X37621Y-33297D01*
X37270Y-32945D01*
X37199Y-33016D01*
X37199Y-32875D01*
X36847Y-32523D01*
X36726Y-32542D01*
X36640Y-32775D01*
X36650Y-33023D01*
X36726Y-33207D01*
X36847Y-33226D01*
X37199Y-32875D01*
X37199Y-33016D01*
X36918Y-33297D01*
X36937Y-33418D01*
X37170Y-33504D01*
X37418Y-33494D01*
X37602Y-33418D01*
X37621Y-33297D01*
X37621Y-47925D01*
X37525Y-47965D01*
X37525Y-44896D01*
X37525Y-41896D01*
X37445Y-41703D01*
X37297Y-41555D01*
X37104Y-41475D01*
X36896Y-41474D01*
X36775Y-41524D01*
X36775Y-39896D01*
X36775Y-39895D01*
X36775Y-37225D01*
X36775Y-36675D01*
X36737Y-36583D01*
X36666Y-36513D01*
X36574Y-36475D01*
X36475Y-36474D01*
X35925Y-36474D01*
X35833Y-36512D01*
X35795Y-36551D01*
X35795Y-32771D01*
X35715Y-32578D01*
X35567Y-32430D01*
X35374Y-32350D01*
X35239Y-32349D01*
X35012Y-32122D01*
X34898Y-32046D01*
X34764Y-32019D01*
X32850Y-32019D01*
X32850Y-31177D01*
X32965Y-31061D01*
X33049Y-30859D01*
X33050Y-30641D01*
X32966Y-30438D01*
X32811Y-30284D01*
X32609Y-30200D01*
X32391Y-30199D01*
X32188Y-30283D01*
X32034Y-30438D01*
X31950Y-30640D01*
X31949Y-30858D01*
X32033Y-31061D01*
X32150Y-31177D01*
X32150Y-32224D01*
X32087Y-32287D01*
X32011Y-32400D01*
X32006Y-32425D01*
X31869Y-32563D01*
X31785Y-32765D01*
X31784Y-32983D01*
X31868Y-33186D01*
X32023Y-33340D01*
X32225Y-33424D01*
X32443Y-33425D01*
X32646Y-33341D01*
X32784Y-33202D01*
X32784Y-33224D01*
X32822Y-33316D01*
X32893Y-33386D01*
X32985Y-33424D01*
X33084Y-33425D01*
X33684Y-33425D01*
X33776Y-33387D01*
X33846Y-33316D01*
X33884Y-33224D01*
X33885Y-33125D01*
X33885Y-32719D01*
X34619Y-32719D01*
X34745Y-32845D01*
X34744Y-32978D01*
X34824Y-33172D01*
X34972Y-33319D01*
X35165Y-33399D01*
X35373Y-33400D01*
X35567Y-33320D01*
X35714Y-33172D01*
X35794Y-32979D01*
X35795Y-32771D01*
X35795Y-36551D01*
X35763Y-36583D01*
X35732Y-36657D01*
X35672Y-36648D01*
X35601Y-36718D01*
X35601Y-36577D01*
X35582Y-36456D01*
X35349Y-36370D01*
X35101Y-36380D01*
X34917Y-36456D01*
X34898Y-36577D01*
X35250Y-36929D01*
X35601Y-36577D01*
X35601Y-36718D01*
X35320Y-37000D01*
X35672Y-37351D01*
X35732Y-37342D01*
X35762Y-37416D01*
X35833Y-37486D01*
X35925Y-37524D01*
X36024Y-37525D01*
X36574Y-37525D01*
X36666Y-37487D01*
X36736Y-37416D01*
X36774Y-37324D01*
X36775Y-37225D01*
X36775Y-39895D01*
X36695Y-39703D01*
X36547Y-39555D01*
X36354Y-39475D01*
X36146Y-39474D01*
X35953Y-39554D01*
X35805Y-39702D01*
X35749Y-39835D01*
X35695Y-39703D01*
X35601Y-39609D01*
X35601Y-37422D01*
X35250Y-37070D01*
X35179Y-37141D01*
X35179Y-37000D01*
X34827Y-36648D01*
X34706Y-36667D01*
X34693Y-36701D01*
X34547Y-36555D01*
X34354Y-36475D01*
X34146Y-36474D01*
X33953Y-36554D01*
X33805Y-36702D01*
X33725Y-36895D01*
X33724Y-37103D01*
X33804Y-37297D01*
X33952Y-37444D01*
X34145Y-37524D01*
X34353Y-37525D01*
X34547Y-37445D01*
X34692Y-37299D01*
X34706Y-37332D01*
X34827Y-37351D01*
X35179Y-37000D01*
X35179Y-37141D01*
X34898Y-37422D01*
X34917Y-37543D01*
X35150Y-37629D01*
X35398Y-37619D01*
X35582Y-37543D01*
X35601Y-37422D01*
X35601Y-39609D01*
X35547Y-39555D01*
X35354Y-39475D01*
X35146Y-39474D01*
X34953Y-39554D01*
X34805Y-39702D01*
X34749Y-39835D01*
X34695Y-39703D01*
X34547Y-39555D01*
X34354Y-39475D01*
X34146Y-39474D01*
X33953Y-39554D01*
X33805Y-39702D01*
X33725Y-39895D01*
X33724Y-40103D01*
X33804Y-40297D01*
X33952Y-40444D01*
X34145Y-40524D01*
X34353Y-40525D01*
X34547Y-40445D01*
X34694Y-40297D01*
X34750Y-40164D01*
X34804Y-40297D01*
X34952Y-40444D01*
X35145Y-40524D01*
X35353Y-40525D01*
X35547Y-40445D01*
X35694Y-40297D01*
X35750Y-40164D01*
X35804Y-40297D01*
X35952Y-40444D01*
X36145Y-40524D01*
X36353Y-40525D01*
X36547Y-40445D01*
X36694Y-40297D01*
X36774Y-40104D01*
X36775Y-39896D01*
X36775Y-41524D01*
X36703Y-41554D01*
X36555Y-41702D01*
X36475Y-41895D01*
X36474Y-42103D01*
X36554Y-42297D01*
X36702Y-42444D01*
X36895Y-42524D01*
X37103Y-42525D01*
X37297Y-42445D01*
X37444Y-42297D01*
X37524Y-42104D01*
X37525Y-41896D01*
X37525Y-44896D01*
X37445Y-44703D01*
X37297Y-44555D01*
X37104Y-44475D01*
X36896Y-44474D01*
X36703Y-44554D01*
X36555Y-44702D01*
X36550Y-44714D01*
X36550Y-44100D01*
X36515Y-43927D01*
X36418Y-43781D01*
X35700Y-43063D01*
X35700Y-42285D01*
X35774Y-42104D01*
X35775Y-41896D01*
X35695Y-41703D01*
X35547Y-41555D01*
X35354Y-41475D01*
X35146Y-41474D01*
X34953Y-41554D01*
X34805Y-41702D01*
X34725Y-41895D01*
X34724Y-42103D01*
X34800Y-42285D01*
X34800Y-43250D01*
X34834Y-43422D01*
X34931Y-43568D01*
X35650Y-44286D01*
X35650Y-44657D01*
X35547Y-44555D01*
X35354Y-44475D01*
X35146Y-44474D01*
X34953Y-44554D01*
X34805Y-44702D01*
X34725Y-44895D01*
X34724Y-45103D01*
X34804Y-45297D01*
X34952Y-45444D01*
X35145Y-45524D01*
X35353Y-45525D01*
X35547Y-45445D01*
X35650Y-45342D01*
X35650Y-46013D01*
X34620Y-47042D01*
X34523Y-47188D01*
X34489Y-47361D01*
X34489Y-47970D01*
X34482Y-47972D01*
X34412Y-48043D01*
X34374Y-48135D01*
X34373Y-48234D01*
X34373Y-48864D01*
X34411Y-48956D01*
X34482Y-49026D01*
X34574Y-49064D01*
X34673Y-49065D01*
X35303Y-49065D01*
X35395Y-49027D01*
X35465Y-48956D01*
X35503Y-48864D01*
X35504Y-48765D01*
X35504Y-48135D01*
X35466Y-48043D01*
X35395Y-47973D01*
X35389Y-47970D01*
X35389Y-47547D01*
X36418Y-46518D01*
X36515Y-46372D01*
X36550Y-46200D01*
X36550Y-46199D01*
X36550Y-45285D01*
X36554Y-45297D01*
X36702Y-45444D01*
X36895Y-45524D01*
X37103Y-45525D01*
X37297Y-45445D01*
X37444Y-45297D01*
X37524Y-45104D01*
X37525Y-44896D01*
X37525Y-47965D01*
X37421Y-48008D01*
X37302Y-48126D01*
X37212Y-48108D01*
X37141Y-48179D01*
X37141Y-48037D01*
X37116Y-47911D01*
X36862Y-47815D01*
X36592Y-47824D01*
X36383Y-47911D01*
X36358Y-48037D01*
X36750Y-48429D01*
X37141Y-48037D01*
X37141Y-48179D01*
X36820Y-48500D01*
X37212Y-48891D01*
X37303Y-48873D01*
X37421Y-48991D01*
X37634Y-49079D01*
X37864Y-49080D01*
X38078Y-48991D01*
X38241Y-48828D01*
X38329Y-48615D01*
X38330Y-48414D01*
X40516Y-46228D01*
X40516Y-46228D01*
X40516Y-46228D01*
X40592Y-46115D01*
X40618Y-45981D01*
X40618Y-45981D01*
X40618Y-42148D01*
X40724Y-42042D01*
X40724Y-42103D01*
X40800Y-42285D01*
X40800Y-42450D01*
X40834Y-42622D01*
X40931Y-42768D01*
X41650Y-43486D01*
X41650Y-44657D01*
X41547Y-44555D01*
X41354Y-44475D01*
X41146Y-44474D01*
X40953Y-44554D01*
X40805Y-44702D01*
X40725Y-44895D01*
X40724Y-45103D01*
X40804Y-45297D01*
X40952Y-45444D01*
X41145Y-45524D01*
X41353Y-45525D01*
X41547Y-45445D01*
X41650Y-45342D01*
X41650Y-46113D01*
X40620Y-47142D01*
X40523Y-47288D01*
X40488Y-47461D01*
X40488Y-47970D01*
X40482Y-47972D01*
X40412Y-48043D01*
X40374Y-48135D01*
X40373Y-48234D01*
X40373Y-48864D01*
X40411Y-48956D01*
X40482Y-49026D01*
X40574Y-49064D01*
X40673Y-49065D01*
X41303Y-49065D01*
X41395Y-49027D01*
X41465Y-48956D01*
X41503Y-48864D01*
X41504Y-48765D01*
X41504Y-48135D01*
X41466Y-48043D01*
X41395Y-47973D01*
X41388Y-47970D01*
X41388Y-47647D01*
X42418Y-46618D01*
X42418Y-46618D01*
X42418Y-46618D01*
X42515Y-46472D01*
X42515Y-46472D01*
X42549Y-46300D01*
X42550Y-46300D01*
X42550Y-45285D01*
X42554Y-45297D01*
X42702Y-45444D01*
X42895Y-45524D01*
X43103Y-45525D01*
X43297Y-45445D01*
X43444Y-45297D01*
X43524Y-45104D01*
X43525Y-44896D01*
X43525Y-41896D01*
X43445Y-41703D01*
X43297Y-41555D01*
X43104Y-41475D01*
X42896Y-41474D01*
X42703Y-41554D01*
X42555Y-41702D01*
X42475Y-41895D01*
X42474Y-42103D01*
X42554Y-42297D01*
X42702Y-42444D01*
X42895Y-42524D01*
X43103Y-42525D01*
X43297Y-42445D01*
X43444Y-42297D01*
X43524Y-42104D01*
X43525Y-41896D01*
X43525Y-44896D01*
X43445Y-44703D01*
X43297Y-44555D01*
X43104Y-44475D01*
X42896Y-44474D01*
X42703Y-44554D01*
X42555Y-44702D01*
X42550Y-44714D01*
X42550Y-43300D01*
X42515Y-43127D01*
X42418Y-42981D01*
X41706Y-42269D01*
X41774Y-42104D01*
X41775Y-41896D01*
X41695Y-41703D01*
X41547Y-41555D01*
X41354Y-41475D01*
X41292Y-41475D01*
X41997Y-40769D01*
X41997Y-40769D01*
X41997Y-40769D01*
X42073Y-40656D01*
X42100Y-40522D01*
X42099Y-40522D01*
X42100Y-40522D01*
X42100Y-40506D01*
X42145Y-40524D01*
X42353Y-40525D01*
X42547Y-40445D01*
X42694Y-40297D01*
X42774Y-40104D01*
X42775Y-39896D01*
X42695Y-39703D01*
X42547Y-39555D01*
X42510Y-39539D01*
X43485Y-38564D01*
X47877Y-38564D01*
X48011Y-38537D01*
X48011Y-38537D01*
X48125Y-38461D01*
X55585Y-31002D01*
X55585Y-34694D01*
X54002Y-36277D01*
X53926Y-36390D01*
X53908Y-36481D01*
X53908Y-36481D01*
X53833Y-36512D01*
X53763Y-36583D01*
X53732Y-36657D01*
X53672Y-36648D01*
X53601Y-36718D01*
X53601Y-36577D01*
X53582Y-36456D01*
X53349Y-36370D01*
X53101Y-36380D01*
X52917Y-36456D01*
X52898Y-36577D01*
X53250Y-36929D01*
X53601Y-36577D01*
X53601Y-36718D01*
X53320Y-37000D01*
X53672Y-37351D01*
X53732Y-37342D01*
X53762Y-37416D01*
X53833Y-37486D01*
X53925Y-37524D01*
X54024Y-37525D01*
X54574Y-37525D01*
X54666Y-37487D01*
X54736Y-37416D01*
X54774Y-37324D01*
X54775Y-37225D01*
X54775Y-36675D01*
X54737Y-36583D01*
X54711Y-36558D01*
X56182Y-35087D01*
X56258Y-34973D01*
X56258Y-34973D01*
X56285Y-34839D01*
X56285Y-30462D01*
X56379Y-30367D01*
X56435Y-30234D01*
X56489Y-30367D01*
X56637Y-30514D01*
X56830Y-30594D01*
X56965Y-30595D01*
X59900Y-33529D01*
X59900Y-36485D01*
X59833Y-36512D01*
X59763Y-36583D01*
X59732Y-36657D01*
X59672Y-36648D01*
X59601Y-36718D01*
X59601Y-36577D01*
X59582Y-36456D01*
X59349Y-36370D01*
X59101Y-36380D01*
X58917Y-36456D01*
X58898Y-36577D01*
X59250Y-36929D01*
X59601Y-36577D01*
X59601Y-36718D01*
X59320Y-37000D01*
X59672Y-37351D01*
X59732Y-37342D01*
X59762Y-37416D01*
X59833Y-37486D01*
X59925Y-37524D01*
X60024Y-37525D01*
X60574Y-37525D01*
X60666Y-37487D01*
X60736Y-37416D01*
X60774Y-37324D01*
X60775Y-37225D01*
X60775Y-36675D01*
X60737Y-36583D01*
X60666Y-36513D01*
X60600Y-36485D01*
X60600Y-33384D01*
X60573Y-33251D01*
X60573Y-33251D01*
X60497Y-33137D01*
X58775Y-31415D01*
X60470Y-31415D01*
X65470Y-36414D01*
X65349Y-36370D01*
X65101Y-36380D01*
X64917Y-36456D01*
X64898Y-36577D01*
X65250Y-36929D01*
X65255Y-36923D01*
X65326Y-36994D01*
X65320Y-37000D01*
X65672Y-37351D01*
X65732Y-37342D01*
X65762Y-37416D01*
X65824Y-37478D01*
X65593Y-37478D01*
X65601Y-37422D01*
X65250Y-37070D01*
X65179Y-37141D01*
X65179Y-37000D01*
X64827Y-36648D01*
X64706Y-36667D01*
X64693Y-36701D01*
X64547Y-36555D01*
X64354Y-36475D01*
X64146Y-36474D01*
X63953Y-36554D01*
X63805Y-36702D01*
X63725Y-36895D01*
X63724Y-37103D01*
X63804Y-37297D01*
X63952Y-37444D01*
X64145Y-37524D01*
X64353Y-37525D01*
X64547Y-37445D01*
X64692Y-37299D01*
X64706Y-37332D01*
X64827Y-37351D01*
X65179Y-37000D01*
X65179Y-37141D01*
X64898Y-37422D01*
X64906Y-37478D01*
X64846Y-37478D01*
X64712Y-37505D01*
X64598Y-37580D01*
X64598Y-37580D01*
X61588Y-40591D01*
X60775Y-40591D01*
X60775Y-39896D01*
X60695Y-39703D01*
X60547Y-39555D01*
X60354Y-39475D01*
X60146Y-39474D01*
X59953Y-39554D01*
X59805Y-39702D01*
X59749Y-39835D01*
X59695Y-39703D01*
X59601Y-39609D01*
X59601Y-37422D01*
X59250Y-37070D01*
X59179Y-37141D01*
X59179Y-37000D01*
X58827Y-36648D01*
X58706Y-36667D01*
X58693Y-36701D01*
X58547Y-36555D01*
X58354Y-36475D01*
X58146Y-36474D01*
X57953Y-36554D01*
X57805Y-36702D01*
X57725Y-36895D01*
X57724Y-37103D01*
X57804Y-37297D01*
X57952Y-37444D01*
X58145Y-37524D01*
X58353Y-37525D01*
X58547Y-37445D01*
X58692Y-37299D01*
X58706Y-37332D01*
X58827Y-37351D01*
X59179Y-37000D01*
X59179Y-37141D01*
X58898Y-37422D01*
X58917Y-37543D01*
X59150Y-37629D01*
X59398Y-37619D01*
X59582Y-37543D01*
X59601Y-37422D01*
X59601Y-39609D01*
X59547Y-39555D01*
X59354Y-39475D01*
X59146Y-39474D01*
X58953Y-39554D01*
X58805Y-39702D01*
X58749Y-39835D01*
X58695Y-39703D01*
X58547Y-39555D01*
X58354Y-39475D01*
X58146Y-39474D01*
X57953Y-39554D01*
X57805Y-39702D01*
X57725Y-39895D01*
X57724Y-40103D01*
X57804Y-40297D01*
X57952Y-40444D01*
X58145Y-40524D01*
X58353Y-40525D01*
X58547Y-40445D01*
X58694Y-40297D01*
X58750Y-40164D01*
X58804Y-40297D01*
X58952Y-40444D01*
X59145Y-40524D01*
X59353Y-40525D01*
X59547Y-40445D01*
X59694Y-40297D01*
X59750Y-40164D01*
X59804Y-40297D01*
X59952Y-40444D01*
X60145Y-40524D01*
X60353Y-40525D01*
X60547Y-40445D01*
X60694Y-40297D01*
X60774Y-40104D01*
X60775Y-39896D01*
X60775Y-40591D01*
X59635Y-40591D01*
X59501Y-40617D01*
X59388Y-40693D01*
X59388Y-40693D01*
X59388Y-40693D01*
X58472Y-41609D01*
X58396Y-41723D01*
X58369Y-41857D01*
X58369Y-45385D01*
X58025Y-45729D01*
X58025Y-44396D01*
X58025Y-42396D01*
X57945Y-42203D01*
X57797Y-42055D01*
X57604Y-41975D01*
X57396Y-41974D01*
X57203Y-42054D01*
X57055Y-42202D01*
X56975Y-42395D01*
X56974Y-42603D01*
X57054Y-42797D01*
X57202Y-42944D01*
X57395Y-43024D01*
X57603Y-43025D01*
X57797Y-42945D01*
X57944Y-42797D01*
X58024Y-42604D01*
X58025Y-42396D01*
X58025Y-44396D01*
X57945Y-44203D01*
X57797Y-44055D01*
X57604Y-43975D01*
X57396Y-43974D01*
X57203Y-44054D01*
X57055Y-44202D01*
X56975Y-44395D01*
X56974Y-44603D01*
X57054Y-44797D01*
X57202Y-44944D01*
X57395Y-45024D01*
X57603Y-45025D01*
X57797Y-44945D01*
X57944Y-44797D01*
X58024Y-44604D01*
X58025Y-44396D01*
X58025Y-45729D01*
X55834Y-47920D01*
X55635Y-47919D01*
X55525Y-47965D01*
X55525Y-44896D01*
X55525Y-41896D01*
X55445Y-41703D01*
X55297Y-41555D01*
X55104Y-41475D01*
X54896Y-41474D01*
X54775Y-41524D01*
X54775Y-39896D01*
X54695Y-39703D01*
X54547Y-39555D01*
X54354Y-39475D01*
X54146Y-39474D01*
X53953Y-39554D01*
X53805Y-39702D01*
X53749Y-39835D01*
X53695Y-39703D01*
X53601Y-39609D01*
X53601Y-37422D01*
X53250Y-37070D01*
X53179Y-37141D01*
X53179Y-37000D01*
X52827Y-36648D01*
X52706Y-36667D01*
X52693Y-36701D01*
X52547Y-36555D01*
X52354Y-36475D01*
X52146Y-36474D01*
X51953Y-36554D01*
X51805Y-36702D01*
X51725Y-36895D01*
X51724Y-37103D01*
X51804Y-37297D01*
X51952Y-37444D01*
X52145Y-37524D01*
X52353Y-37525D01*
X52547Y-37445D01*
X52692Y-37299D01*
X52706Y-37332D01*
X52827Y-37351D01*
X53179Y-37000D01*
X53179Y-37141D01*
X52898Y-37422D01*
X52917Y-37543D01*
X53150Y-37629D01*
X53398Y-37619D01*
X53582Y-37543D01*
X53601Y-37422D01*
X53601Y-39609D01*
X53547Y-39555D01*
X53354Y-39475D01*
X53146Y-39474D01*
X52953Y-39554D01*
X52805Y-39702D01*
X52749Y-39835D01*
X52695Y-39703D01*
X52547Y-39555D01*
X52354Y-39475D01*
X52146Y-39474D01*
X51953Y-39554D01*
X51805Y-39702D01*
X51725Y-39895D01*
X51724Y-40103D01*
X51804Y-40297D01*
X51952Y-40444D01*
X52145Y-40524D01*
X52353Y-40525D01*
X52547Y-40445D01*
X52694Y-40297D01*
X52750Y-40164D01*
X52804Y-40297D01*
X52952Y-40444D01*
X53145Y-40524D01*
X53353Y-40525D01*
X53547Y-40445D01*
X53694Y-40297D01*
X53750Y-40164D01*
X53804Y-40297D01*
X53952Y-40444D01*
X54145Y-40524D01*
X54353Y-40525D01*
X54547Y-40445D01*
X54694Y-40297D01*
X54774Y-40104D01*
X54775Y-39896D01*
X54775Y-41524D01*
X54703Y-41554D01*
X54555Y-41702D01*
X54475Y-41895D01*
X54474Y-42103D01*
X54554Y-42297D01*
X54702Y-42444D01*
X54895Y-42524D01*
X55103Y-42525D01*
X55297Y-42445D01*
X55444Y-42297D01*
X55524Y-42104D01*
X55525Y-41896D01*
X55525Y-44896D01*
X55445Y-44703D01*
X55297Y-44555D01*
X55104Y-44475D01*
X54896Y-44474D01*
X54703Y-44554D01*
X54555Y-44702D01*
X54550Y-44714D01*
X54550Y-43500D01*
X54515Y-43327D01*
X54418Y-43181D01*
X53700Y-42463D01*
X53700Y-42285D01*
X53774Y-42104D01*
X53775Y-41896D01*
X53695Y-41703D01*
X53547Y-41555D01*
X53354Y-41475D01*
X53146Y-41474D01*
X52953Y-41554D01*
X52805Y-41702D01*
X52725Y-41895D01*
X52724Y-42103D01*
X52800Y-42285D01*
X52800Y-42650D01*
X52834Y-42822D01*
X52931Y-42968D01*
X53650Y-43686D01*
X53650Y-44657D01*
X53547Y-44555D01*
X53354Y-44475D01*
X53146Y-44474D01*
X52953Y-44554D01*
X52805Y-44702D01*
X52725Y-44895D01*
X52724Y-45103D01*
X52804Y-45297D01*
X52952Y-45444D01*
X53145Y-45524D01*
X53353Y-45525D01*
X53547Y-45445D01*
X53650Y-45342D01*
X53650Y-45513D01*
X52620Y-46542D01*
X52523Y-46688D01*
X52488Y-46861D01*
X52488Y-47680D01*
X52488Y-47970D01*
X52482Y-47972D01*
X52412Y-48043D01*
X52374Y-48135D01*
X52373Y-48234D01*
X52373Y-48864D01*
X52411Y-48956D01*
X52482Y-49026D01*
X52574Y-49064D01*
X52673Y-49065D01*
X53303Y-49065D01*
X53395Y-49027D01*
X53465Y-48956D01*
X53503Y-48864D01*
X53504Y-48765D01*
X53504Y-48135D01*
X53466Y-48043D01*
X53395Y-47973D01*
X53388Y-47970D01*
X53388Y-47680D01*
X53388Y-47047D01*
X54418Y-46018D01*
X54418Y-46018D01*
X54418Y-46018D01*
X54515Y-45872D01*
X54515Y-45872D01*
X54549Y-45700D01*
X54550Y-45700D01*
X54550Y-45285D01*
X54554Y-45297D01*
X54702Y-45444D01*
X54895Y-45524D01*
X55103Y-45525D01*
X55297Y-45445D01*
X55444Y-45297D01*
X55524Y-45104D01*
X55525Y-44896D01*
X55525Y-47965D01*
X55421Y-48008D01*
X55302Y-48126D01*
X55212Y-48108D01*
X55141Y-48179D01*
X55141Y-48037D01*
X55116Y-47911D01*
X54862Y-47815D01*
X54592Y-47824D01*
X54383Y-47911D01*
X54358Y-48037D01*
X54750Y-48429D01*
X55141Y-48037D01*
X55141Y-48179D01*
X54820Y-48500D01*
X55212Y-48891D01*
X55303Y-48873D01*
X55421Y-48991D01*
X55634Y-49079D01*
X55864Y-49080D01*
X56078Y-48991D01*
X56241Y-48828D01*
X56329Y-48615D01*
X56330Y-48414D01*
X58967Y-45777D01*
X58967Y-45777D01*
X58967Y-45777D01*
X59043Y-45664D01*
X59069Y-45530D01*
X59069Y-45530D01*
X59069Y-45530D01*
X59069Y-45493D01*
X59145Y-45524D01*
X59353Y-45525D01*
X59547Y-45445D01*
X59650Y-45342D01*
X59650Y-45713D01*
X58620Y-46742D01*
X58523Y-46888D01*
X58488Y-47061D01*
X58488Y-47780D01*
X58488Y-47970D01*
X58482Y-47972D01*
X58412Y-48043D01*
X58374Y-48135D01*
X58373Y-48234D01*
X58373Y-48864D01*
X58411Y-48956D01*
X58482Y-49026D01*
X58574Y-49064D01*
X58673Y-49065D01*
X59303Y-49065D01*
X59395Y-49027D01*
X59465Y-48956D01*
X59503Y-48864D01*
X59504Y-48765D01*
X59504Y-48135D01*
X59466Y-48043D01*
X59395Y-47973D01*
X59388Y-47970D01*
X59388Y-47780D01*
X59388Y-47247D01*
X60418Y-46218D01*
X60418Y-46218D01*
X60418Y-46218D01*
X60515Y-46072D01*
X60515Y-46072D01*
X60549Y-45900D01*
X60550Y-45900D01*
X60550Y-45285D01*
X60554Y-45297D01*
X60702Y-45444D01*
X60895Y-45524D01*
X61103Y-45525D01*
X61297Y-45445D01*
X61444Y-45297D01*
X61524Y-45104D01*
X61525Y-44896D01*
X61525Y-41896D01*
X61445Y-41703D01*
X61297Y-41555D01*
X61104Y-41475D01*
X60896Y-41474D01*
X60703Y-41554D01*
X60555Y-41702D01*
X60475Y-41895D01*
X60474Y-42103D01*
X60554Y-42297D01*
X60702Y-42444D01*
X60895Y-42524D01*
X61103Y-42525D01*
X61297Y-42445D01*
X61444Y-42297D01*
X61524Y-42104D01*
X61525Y-41896D01*
X61525Y-44896D01*
X61445Y-44703D01*
X61297Y-44555D01*
X61104Y-44475D01*
X60896Y-44474D01*
X60703Y-44554D01*
X60555Y-44702D01*
X60550Y-44714D01*
X60550Y-43700D01*
X60515Y-43527D01*
X60418Y-43381D01*
X59700Y-42663D01*
X59700Y-42285D01*
X59774Y-42104D01*
X59775Y-41896D01*
X59695Y-41703D01*
X59547Y-41555D01*
X59525Y-41546D01*
X59780Y-41291D01*
X61733Y-41291D01*
X61867Y-41264D01*
X61867Y-41264D01*
X61980Y-41188D01*
X64991Y-38178D01*
X66255Y-38178D01*
X66389Y-38151D01*
X66389Y-38151D01*
X66502Y-38075D01*
X68247Y-36331D01*
X68323Y-36217D01*
X68350Y-36083D01*
X68350Y-30392D01*
X68444Y-30297D01*
X68500Y-30164D01*
X68554Y-30297D01*
X68650Y-30392D01*
X68650Y-35974D01*
X65502Y-39121D01*
X65426Y-39235D01*
X65399Y-39369D01*
X65399Y-39493D01*
X65354Y-39475D01*
X65146Y-39474D01*
X64953Y-39554D01*
X64805Y-39702D01*
X64749Y-39835D01*
X64695Y-39703D01*
X64547Y-39555D01*
X64354Y-39475D01*
X64146Y-39474D01*
X63953Y-39554D01*
X63805Y-39702D01*
X63725Y-39895D01*
X63724Y-40103D01*
X63804Y-40297D01*
X63952Y-40444D01*
X64145Y-40524D01*
X64353Y-40525D01*
X64547Y-40445D01*
X64694Y-40297D01*
X64750Y-40164D01*
X64804Y-40297D01*
X64952Y-40444D01*
X65145Y-40524D01*
X65339Y-40525D01*
X64376Y-41488D01*
X64300Y-41602D01*
X64273Y-41735D01*
X64273Y-45481D01*
X64025Y-45729D01*
X64025Y-44396D01*
X64025Y-42396D01*
X63945Y-42203D01*
X63797Y-42055D01*
X63604Y-41975D01*
X63396Y-41974D01*
X63203Y-42054D01*
X63055Y-42202D01*
X62975Y-42395D01*
X62974Y-42603D01*
X63054Y-42797D01*
X63202Y-42944D01*
X63395Y-43024D01*
X63603Y-43025D01*
X63797Y-42945D01*
X63944Y-42797D01*
X64024Y-42604D01*
X64025Y-42396D01*
X64025Y-44396D01*
X63945Y-44203D01*
X63797Y-44055D01*
X63604Y-43975D01*
X63396Y-43974D01*
X63203Y-44054D01*
X63055Y-44202D01*
X62975Y-44395D01*
X62974Y-44603D01*
X63054Y-44797D01*
X63202Y-44944D01*
X63395Y-45024D01*
X63603Y-45025D01*
X63797Y-44945D01*
X63944Y-44797D01*
X64024Y-44604D01*
X64025Y-44396D01*
X64025Y-45729D01*
X61834Y-47920D01*
X61635Y-47919D01*
X61421Y-48008D01*
X61302Y-48126D01*
X61212Y-48108D01*
X61141Y-48179D01*
X61141Y-48037D01*
X61116Y-47911D01*
X60862Y-47815D01*
X60592Y-47824D01*
X60383Y-47911D01*
X60358Y-48037D01*
X60750Y-48429D01*
X61141Y-48037D01*
X61141Y-48179D01*
X60820Y-48500D01*
X61212Y-48891D01*
X61303Y-48873D01*
X61421Y-48991D01*
X61634Y-49079D01*
X61864Y-49080D01*
X62078Y-48991D01*
X62241Y-48828D01*
X62329Y-48615D01*
X62330Y-48414D01*
X64871Y-45873D01*
X64947Y-45760D01*
X64973Y-45626D01*
X64973Y-45453D01*
X65145Y-45524D01*
X65353Y-45525D01*
X65547Y-45445D01*
X65650Y-45342D01*
X65650Y-46113D01*
X64620Y-47142D01*
X64523Y-47288D01*
X64488Y-47461D01*
X64488Y-47970D01*
X64482Y-47972D01*
X64412Y-48043D01*
X64374Y-48135D01*
X64373Y-48234D01*
X64373Y-48864D01*
X64411Y-48956D01*
X64482Y-49026D01*
X64574Y-49064D01*
X64673Y-49065D01*
X65303Y-49065D01*
X65395Y-49027D01*
X65465Y-48956D01*
X65503Y-48864D01*
X65504Y-48765D01*
X65504Y-48135D01*
X65466Y-48043D01*
X65395Y-47973D01*
X65388Y-47970D01*
X65388Y-47647D01*
X66418Y-46618D01*
X66418Y-46618D01*
X66418Y-46618D01*
X66515Y-46472D01*
X66515Y-46472D01*
X66549Y-46300D01*
X66550Y-46300D01*
X66550Y-45285D01*
X66554Y-45297D01*
X66702Y-45444D01*
X66895Y-45524D01*
X67103Y-45525D01*
X67297Y-45445D01*
X67400Y-45342D01*
X67400Y-48029D01*
X67302Y-48126D01*
X67212Y-48108D01*
X67141Y-48179D01*
X67141Y-48037D01*
X67116Y-47911D01*
X66862Y-47815D01*
X66592Y-47824D01*
X66383Y-47911D01*
X66358Y-48037D01*
X66750Y-48429D01*
X67141Y-48037D01*
X67141Y-48179D01*
X66820Y-48500D01*
X67212Y-48891D01*
X67303Y-48873D01*
X67421Y-48991D01*
X67634Y-49079D01*
X67864Y-49080D01*
X68078Y-48991D01*
X68241Y-48828D01*
X68329Y-48615D01*
X68330Y-48385D01*
X68241Y-48171D01*
X68100Y-48029D01*
X68100Y-38394D01*
X70247Y-36247D01*
X70323Y-36133D01*
X70350Y-36000D01*
X70350Y-35119D01*
X71788Y-36558D01*
X71763Y-36583D01*
X71732Y-36657D01*
X71672Y-36648D01*
X71601Y-36718D01*
X71601Y-36577D01*
X71582Y-36456D01*
X71349Y-36370D01*
X71101Y-36380D01*
X70917Y-36456D01*
X70898Y-36577D01*
X71250Y-36929D01*
X71601Y-36577D01*
X71601Y-36718D01*
X71320Y-37000D01*
X71672Y-37351D01*
X71732Y-37342D01*
X71762Y-37416D01*
X71833Y-37486D01*
X71925Y-37524D01*
X72024Y-37525D01*
X72574Y-37525D01*
X72666Y-37487D01*
X72736Y-37416D01*
X72774Y-37324D01*
X72775Y-37225D01*
X72775Y-36675D01*
X72737Y-36583D01*
X72666Y-36513D01*
X72591Y-36481D01*
X72573Y-36390D01*
X72497Y-36277D01*
X70850Y-34629D01*
X70850Y-30506D01*
X70895Y-30524D01*
X71030Y-30525D01*
X73400Y-32894D01*
X73400Y-41657D01*
X73297Y-41555D01*
X73104Y-41475D01*
X72896Y-41474D01*
X72775Y-41524D01*
X72775Y-39896D01*
X72695Y-39703D01*
X72547Y-39555D01*
X72354Y-39475D01*
X72146Y-39474D01*
X71953Y-39554D01*
X71805Y-39702D01*
X71749Y-39835D01*
X71695Y-39703D01*
X71601Y-39609D01*
X71601Y-37422D01*
X71250Y-37070D01*
X71179Y-37141D01*
X71179Y-37000D01*
X70827Y-36648D01*
X70706Y-36667D01*
X70693Y-36701D01*
X70547Y-36555D01*
X70354Y-36475D01*
X70146Y-36474D01*
X69953Y-36554D01*
X69805Y-36702D01*
X69725Y-36895D01*
X69724Y-37103D01*
X69804Y-37297D01*
X69952Y-37444D01*
X70145Y-37524D01*
X70353Y-37525D01*
X70547Y-37445D01*
X70692Y-37299D01*
X70706Y-37332D01*
X70827Y-37351D01*
X71179Y-37000D01*
X71179Y-37141D01*
X70898Y-37422D01*
X70917Y-37543D01*
X71150Y-37629D01*
X71398Y-37619D01*
X71582Y-37543D01*
X71601Y-37422D01*
X71601Y-39609D01*
X71547Y-39555D01*
X71354Y-39475D01*
X71146Y-39474D01*
X70953Y-39554D01*
X70805Y-39702D01*
X70749Y-39835D01*
X70695Y-39703D01*
X70547Y-39555D01*
X70354Y-39475D01*
X70146Y-39474D01*
X69953Y-39554D01*
X69805Y-39702D01*
X69725Y-39895D01*
X69724Y-40103D01*
X69804Y-40297D01*
X69952Y-40444D01*
X70145Y-40524D01*
X70353Y-40525D01*
X70547Y-40445D01*
X70694Y-40297D01*
X70750Y-40164D01*
X70804Y-40297D01*
X70952Y-40444D01*
X71145Y-40524D01*
X71353Y-40525D01*
X71547Y-40445D01*
X71694Y-40297D01*
X71750Y-40164D01*
X71804Y-40297D01*
X71952Y-40444D01*
X72145Y-40524D01*
X72353Y-40525D01*
X72547Y-40445D01*
X72694Y-40297D01*
X72774Y-40104D01*
X72775Y-39896D01*
X72775Y-41524D01*
X72703Y-41554D01*
X72555Y-41702D01*
X72475Y-41895D01*
X72474Y-42103D01*
X72554Y-42297D01*
X72702Y-42444D01*
X72895Y-42524D01*
X73103Y-42525D01*
X73297Y-42445D01*
X73400Y-42342D01*
X73400Y-44657D01*
X73297Y-44555D01*
X73104Y-44475D01*
X72896Y-44474D01*
X72703Y-44554D01*
X72555Y-44702D01*
X72550Y-44714D01*
X72550Y-43600D01*
X72515Y-43427D01*
X72418Y-43281D01*
X71700Y-42563D01*
X71700Y-42285D01*
X71774Y-42104D01*
X71775Y-41896D01*
X71695Y-41703D01*
X71547Y-41555D01*
X71354Y-41475D01*
X71146Y-41474D01*
X70953Y-41554D01*
X70805Y-41702D01*
X70725Y-41895D01*
X70724Y-42103D01*
X70800Y-42285D01*
X70800Y-42750D01*
X70834Y-42922D01*
X70931Y-43068D01*
X71650Y-43786D01*
X71650Y-44657D01*
X71547Y-44555D01*
X71354Y-44475D01*
X71146Y-44474D01*
X70953Y-44554D01*
X70805Y-44702D01*
X70725Y-44895D01*
X70724Y-45103D01*
X70804Y-45297D01*
X70952Y-45444D01*
X71145Y-45524D01*
X71353Y-45525D01*
X71547Y-45445D01*
X71650Y-45342D01*
X71650Y-45513D01*
X70620Y-46542D01*
X70523Y-46688D01*
X70488Y-46861D01*
X70488Y-47680D01*
X70488Y-47970D01*
X70482Y-47972D01*
X70412Y-48043D01*
X70374Y-48135D01*
X70373Y-48234D01*
X70373Y-48864D01*
X70411Y-48956D01*
X70482Y-49026D01*
X70574Y-49064D01*
X70673Y-49065D01*
X71303Y-49065D01*
X71395Y-49027D01*
X71465Y-48956D01*
X71503Y-48864D01*
X71504Y-48765D01*
X71504Y-48135D01*
X71466Y-48043D01*
X71395Y-47973D01*
X71388Y-47970D01*
X71388Y-47680D01*
X71388Y-47047D01*
X72418Y-46018D01*
X72418Y-46018D01*
X72418Y-46018D01*
X72515Y-45872D01*
X72515Y-45872D01*
X72549Y-45700D01*
X72550Y-45700D01*
X72550Y-45285D01*
X72554Y-45297D01*
X72702Y-45444D01*
X72895Y-45524D01*
X73103Y-45525D01*
X73297Y-45445D01*
X73400Y-45342D01*
X73400Y-48029D01*
X73302Y-48126D01*
X73212Y-48108D01*
X73141Y-48179D01*
X73141Y-48037D01*
X73116Y-47911D01*
X72862Y-47815D01*
X72592Y-47824D01*
X72383Y-47911D01*
X72358Y-48037D01*
X72750Y-48429D01*
X73141Y-48037D01*
X73141Y-48179D01*
X72820Y-48500D01*
X73212Y-48891D01*
X73303Y-48873D01*
X73421Y-48991D01*
X73634Y-49079D01*
X73864Y-49080D01*
X74078Y-48991D01*
X74241Y-48828D01*
X74329Y-48615D01*
X74330Y-48385D01*
X74241Y-48171D01*
X74100Y-48029D01*
X74100Y-32750D01*
X74099Y-32749D01*
X74100Y-32749D01*
X74073Y-32616D01*
X73997Y-32502D01*
X73997Y-32502D01*
X72019Y-30525D01*
X72030Y-30525D01*
X76400Y-34894D01*
X76400Y-36493D01*
X76354Y-36475D01*
X76146Y-36474D01*
X75953Y-36554D01*
X75805Y-36702D01*
X75725Y-36895D01*
X75724Y-37103D01*
X75804Y-37297D01*
X75952Y-37444D01*
X76145Y-37524D01*
X76353Y-37525D01*
X76400Y-37506D01*
X76400Y-39493D01*
X76354Y-39475D01*
X76146Y-39474D01*
X75953Y-39554D01*
X75805Y-39702D01*
X75725Y-39895D01*
X75724Y-40103D01*
X75804Y-40297D01*
X75952Y-40444D01*
X76145Y-40524D01*
X76353Y-40525D01*
X76400Y-40506D01*
X76400Y-40609D01*
X76426Y-40743D01*
X76502Y-40857D01*
X77127Y-41482D01*
X76953Y-41554D01*
X76805Y-41702D01*
X76725Y-41895D01*
X76724Y-42103D01*
X76800Y-42285D01*
X76800Y-42550D01*
X76834Y-42722D01*
X76931Y-42868D01*
X77650Y-43586D01*
X77650Y-44657D01*
X77547Y-44555D01*
X77354Y-44475D01*
X77146Y-44474D01*
X76953Y-44554D01*
X76805Y-44702D01*
X76725Y-44895D01*
X76724Y-45103D01*
X76804Y-45297D01*
X76952Y-45444D01*
X77145Y-45524D01*
X77353Y-45525D01*
X77547Y-45445D01*
X77650Y-45342D01*
X77650Y-45913D01*
X76620Y-46942D01*
X76523Y-47088D01*
X76488Y-47261D01*
X76488Y-47880D01*
X76488Y-47970D01*
X76482Y-47972D01*
X76412Y-48043D01*
X76374Y-48135D01*
X76373Y-48234D01*
X76373Y-48864D01*
X76411Y-48956D01*
X76482Y-49026D01*
X76574Y-49064D01*
X76673Y-49065D01*
X77303Y-49065D01*
X77395Y-49027D01*
X77465Y-48956D01*
X77503Y-48864D01*
X77504Y-48765D01*
X77504Y-48135D01*
X77466Y-48043D01*
X77395Y-47973D01*
X77388Y-47970D01*
X77388Y-47880D01*
X77388Y-47447D01*
X78418Y-46418D01*
X78418Y-46418D01*
X78418Y-46418D01*
X78515Y-46272D01*
X78515Y-46272D01*
X78549Y-46100D01*
X78550Y-46100D01*
X78550Y-45285D01*
X78554Y-45297D01*
X78702Y-45444D01*
X78895Y-45524D01*
X79103Y-45525D01*
X79297Y-45445D01*
X79400Y-45342D01*
X79400Y-48029D01*
X79302Y-48126D01*
X79212Y-48108D01*
X79141Y-48179D01*
X79141Y-48037D01*
X79116Y-47911D01*
X78862Y-47815D01*
X78592Y-47824D01*
X78383Y-47911D01*
X78358Y-48037D01*
X78750Y-48429D01*
X79141Y-48037D01*
X79141Y-48179D01*
X78820Y-48500D01*
X79212Y-48891D01*
X79303Y-48873D01*
X79421Y-48991D01*
X79634Y-49079D01*
X79864Y-49080D01*
X80078Y-48991D01*
X80241Y-48828D01*
X80329Y-48615D01*
X80330Y-48385D01*
X80241Y-48171D01*
X80100Y-48029D01*
X80100Y-43609D01*
X80073Y-43475D01*
X79997Y-43362D01*
X79143Y-42508D01*
X79297Y-42445D01*
X79444Y-42297D01*
X79524Y-42104D01*
X79525Y-41896D01*
X79445Y-41703D01*
X79297Y-41555D01*
X79104Y-41475D01*
X78896Y-41474D01*
X78703Y-41554D01*
X78555Y-41702D01*
X78491Y-41856D01*
X77160Y-40524D01*
X77353Y-40525D01*
X77547Y-40445D01*
X77694Y-40297D01*
X77750Y-40164D01*
X77804Y-40297D01*
X77952Y-40444D01*
X78145Y-40524D01*
X78353Y-40525D01*
X78547Y-40445D01*
X78694Y-40297D01*
X78774Y-40104D01*
X78775Y-39896D01*
X78775Y-39895D01*
X78775Y-37225D01*
X78775Y-36675D01*
X78737Y-36583D01*
X78666Y-36513D01*
X78574Y-36475D01*
X78475Y-36474D01*
X77925Y-36474D01*
X77833Y-36512D01*
X77795Y-36551D01*
X77795Y-22494D01*
X77598Y-22017D01*
X77596Y-22014D01*
X77406Y-21914D01*
X77335Y-21985D01*
X77335Y-21843D01*
X77235Y-21653D01*
X76759Y-21455D01*
X76244Y-21454D01*
X75767Y-21651D01*
X75764Y-21653D01*
X75664Y-21843D01*
X76500Y-22679D01*
X77335Y-21843D01*
X77335Y-21985D01*
X76570Y-22750D01*
X77406Y-23585D01*
X77596Y-23485D01*
X77794Y-23009D01*
X77795Y-22494D01*
X77795Y-36551D01*
X77763Y-36583D01*
X77732Y-36657D01*
X77695Y-36651D01*
X77695Y-26125D01*
X77695Y-24235D01*
X77657Y-24143D01*
X77586Y-24073D01*
X77494Y-24035D01*
X77395Y-24034D01*
X76780Y-24034D01*
X77232Y-23848D01*
X77235Y-23846D01*
X77335Y-23656D01*
X76500Y-22820D01*
X76494Y-22826D01*
X76423Y-22755D01*
X76429Y-22750D01*
X75593Y-21914D01*
X75403Y-22014D01*
X75205Y-22490D01*
X75205Y-22527D01*
X74790Y-22355D01*
X74275Y-22354D01*
X73798Y-22551D01*
X73795Y-22553D01*
X73695Y-22743D01*
X74531Y-23579D01*
X74536Y-23573D01*
X74607Y-23644D01*
X74601Y-23650D01*
X74607Y-23655D01*
X74536Y-23726D01*
X74531Y-23720D01*
X74460Y-23791D01*
X74460Y-23650D01*
X73624Y-22814D01*
X73434Y-22914D01*
X73236Y-23390D01*
X73235Y-23905D01*
X73432Y-24382D01*
X73434Y-24385D01*
X73624Y-24485D01*
X74460Y-23650D01*
X74460Y-23791D01*
X73695Y-24556D01*
X73795Y-24746D01*
X74271Y-24944D01*
X74786Y-24945D01*
X75263Y-24748D01*
X75266Y-24746D01*
X75304Y-24673D01*
X75304Y-26224D01*
X75342Y-26316D01*
X75413Y-26386D01*
X75505Y-26424D01*
X75604Y-26425D01*
X77494Y-26425D01*
X77586Y-26387D01*
X77656Y-26316D01*
X77694Y-26224D01*
X77695Y-26125D01*
X77695Y-36651D01*
X77672Y-36648D01*
X77320Y-37000D01*
X77672Y-37351D01*
X77732Y-37342D01*
X77762Y-37416D01*
X77833Y-37486D01*
X77925Y-37524D01*
X78024Y-37525D01*
X78574Y-37525D01*
X78666Y-37487D01*
X78736Y-37416D01*
X78774Y-37324D01*
X78775Y-37225D01*
X78775Y-39895D01*
X78695Y-39703D01*
X78547Y-39555D01*
X78354Y-39475D01*
X78146Y-39474D01*
X77953Y-39554D01*
X77805Y-39702D01*
X77749Y-39835D01*
X77695Y-39703D01*
X77547Y-39555D01*
X77354Y-39475D01*
X77146Y-39474D01*
X77100Y-39493D01*
X77100Y-37610D01*
X77150Y-37629D01*
X77398Y-37619D01*
X77582Y-37543D01*
X77601Y-37422D01*
X77250Y-37070D01*
X77244Y-37076D01*
X77173Y-37005D01*
X77179Y-37000D01*
X77173Y-36994D01*
X77244Y-36923D01*
X77250Y-36929D01*
X77601Y-36577D01*
X77582Y-36456D01*
X77349Y-36370D01*
X77101Y-36380D01*
X77100Y-36380D01*
X77100Y-34750D01*
X77073Y-34616D01*
X76997Y-34502D01*
X76997Y-34502D01*
X72524Y-30029D01*
X72525Y-29896D01*
X72525Y-29895D01*
X72525Y-27225D01*
X72525Y-26675D01*
X72487Y-26583D01*
X72416Y-26513D01*
X72324Y-26475D01*
X72225Y-26474D01*
X71675Y-26474D01*
X71583Y-26512D01*
X71513Y-26583D01*
X71475Y-26675D01*
X71474Y-26774D01*
X71474Y-26774D01*
X71445Y-26703D01*
X71297Y-26555D01*
X71104Y-26475D01*
X70896Y-26474D01*
X70703Y-26554D01*
X70555Y-26702D01*
X70499Y-26835D01*
X70445Y-26703D01*
X70297Y-26555D01*
X70104Y-26475D01*
X69896Y-26474D01*
X69703Y-26554D01*
X69555Y-26702D01*
X69499Y-26835D01*
X69445Y-26703D01*
X69297Y-26555D01*
X69104Y-26475D01*
X68896Y-26474D01*
X68703Y-26554D01*
X68555Y-26702D01*
X68499Y-26835D01*
X68445Y-26703D01*
X68297Y-26555D01*
X68104Y-26475D01*
X67896Y-26474D01*
X67703Y-26554D01*
X67555Y-26702D01*
X67499Y-26835D01*
X67445Y-26703D01*
X67297Y-26555D01*
X67104Y-26475D01*
X66896Y-26474D01*
X66703Y-26554D01*
X66555Y-26702D01*
X66499Y-26835D01*
X66445Y-26703D01*
X66297Y-26555D01*
X66104Y-26475D01*
X65896Y-26474D01*
X65703Y-26554D01*
X65555Y-26702D01*
X65499Y-26835D01*
X65445Y-26703D01*
X65297Y-26555D01*
X65104Y-26475D01*
X64896Y-26474D01*
X64703Y-26554D01*
X64555Y-26702D01*
X64475Y-26895D01*
X64474Y-27103D01*
X64554Y-27297D01*
X64702Y-27444D01*
X64895Y-27524D01*
X65103Y-27525D01*
X65297Y-27445D01*
X65444Y-27297D01*
X65500Y-27164D01*
X65554Y-27297D01*
X65702Y-27444D01*
X65895Y-27524D01*
X66103Y-27525D01*
X66297Y-27445D01*
X66444Y-27297D01*
X66500Y-27164D01*
X66554Y-27297D01*
X66702Y-27444D01*
X66895Y-27524D01*
X67103Y-27525D01*
X67297Y-27445D01*
X67444Y-27297D01*
X67500Y-27164D01*
X67554Y-27297D01*
X67702Y-27444D01*
X67895Y-27524D01*
X68103Y-27525D01*
X68297Y-27445D01*
X68444Y-27297D01*
X68500Y-27164D01*
X68554Y-27297D01*
X68702Y-27444D01*
X68895Y-27524D01*
X69103Y-27525D01*
X69297Y-27445D01*
X69444Y-27297D01*
X69500Y-27164D01*
X69554Y-27297D01*
X69702Y-27444D01*
X69895Y-27524D01*
X70103Y-27525D01*
X70297Y-27445D01*
X70444Y-27297D01*
X70500Y-27164D01*
X70554Y-27297D01*
X70702Y-27444D01*
X70895Y-27524D01*
X71103Y-27525D01*
X71297Y-27445D01*
X71444Y-27297D01*
X71474Y-27225D01*
X71474Y-27324D01*
X71512Y-27416D01*
X71583Y-27486D01*
X71675Y-27524D01*
X71774Y-27525D01*
X72324Y-27525D01*
X72416Y-27487D01*
X72486Y-27416D01*
X72524Y-27324D01*
X72525Y-27225D01*
X72525Y-29895D01*
X72445Y-29703D01*
X72297Y-29555D01*
X72104Y-29475D01*
X71896Y-29474D01*
X71703Y-29554D01*
X71555Y-29702D01*
X71499Y-29835D01*
X71445Y-29703D01*
X71297Y-29555D01*
X71104Y-29475D01*
X70896Y-29474D01*
X70717Y-29548D01*
X70445Y-29277D01*
X70332Y-29201D01*
X70198Y-29174D01*
X65787Y-29174D01*
X65653Y-29201D01*
X65540Y-29277D01*
X65272Y-29544D01*
X65104Y-29475D01*
X64969Y-29474D01*
X64835Y-29341D01*
X64722Y-29265D01*
X64588Y-29238D01*
X55740Y-29238D01*
X55606Y-29265D01*
X55492Y-29341D01*
X55492Y-29341D01*
X55492Y-29341D01*
X55215Y-29618D01*
X55039Y-29545D01*
X54831Y-29544D01*
X54638Y-29624D01*
X54490Y-29772D01*
X54473Y-29811D01*
X54457Y-29822D01*
X54417Y-29862D01*
X54380Y-29773D01*
X54232Y-29625D01*
X54039Y-29545D01*
X53831Y-29544D01*
X53638Y-29624D01*
X53490Y-29772D01*
X53435Y-29905D01*
X53380Y-29773D01*
X53232Y-29625D01*
X53039Y-29545D01*
X52949Y-29545D01*
X53259Y-29235D01*
X59842Y-29235D01*
X59976Y-29208D01*
X59976Y-29208D01*
X60090Y-29132D01*
X65747Y-23475D01*
X65823Y-23362D01*
X65850Y-23228D01*
X65850Y-21927D01*
X65949Y-21827D01*
X65949Y-21849D01*
X65987Y-21941D01*
X66058Y-22011D01*
X66150Y-22049D01*
X66249Y-22050D01*
X66849Y-22050D01*
X66941Y-22012D01*
X67011Y-21941D01*
X67049Y-21849D01*
X67050Y-21750D01*
X67050Y-21150D01*
X67012Y-21058D01*
X66941Y-20988D01*
X66849Y-20950D01*
X66750Y-20949D01*
X66444Y-20949D01*
X66243Y-20748D01*
X66129Y-20672D01*
X65995Y-20645D01*
X64277Y-20645D01*
X64143Y-20672D01*
X64029Y-20748D01*
X61378Y-23400D01*
X61302Y-23513D01*
X61275Y-23647D01*
X61275Y-26500D01*
X60909Y-26866D01*
X60909Y-23335D01*
X61997Y-22247D01*
X62073Y-22134D01*
X62073Y-22134D01*
X62090Y-22050D01*
X62099Y-22050D01*
X62191Y-22012D01*
X62261Y-21941D01*
X62299Y-21849D01*
X62300Y-21750D01*
X62300Y-21150D01*
X62262Y-21058D01*
X62191Y-20988D01*
X62099Y-20950D01*
X62000Y-20949D01*
X61400Y-20949D01*
X61308Y-20987D01*
X61238Y-21058D01*
X61200Y-21150D01*
X61200Y-21172D01*
X61061Y-21034D01*
X60859Y-20950D01*
X60641Y-20949D01*
X60438Y-21033D01*
X60315Y-21156D01*
X60314Y-21152D01*
X60190Y-21130D01*
X60119Y-21200D01*
X60119Y-21059D01*
X60097Y-20935D01*
X59855Y-20845D01*
X59597Y-20855D01*
X59402Y-20935D01*
X59380Y-21059D01*
X59750Y-21429D01*
X60119Y-21059D01*
X60119Y-21200D01*
X59820Y-21500D01*
X60190Y-21869D01*
X60314Y-21847D01*
X60315Y-21843D01*
X60438Y-21965D01*
X60640Y-22049D01*
X60858Y-22050D01*
X61061Y-21966D01*
X61199Y-21827D01*
X61199Y-21849D01*
X61237Y-21941D01*
X61275Y-21979D01*
X60312Y-22942D01*
X60236Y-23056D01*
X60209Y-23190D01*
X60209Y-26544D01*
X60160Y-26544D01*
X60119Y-26544D01*
X60119Y-21940D01*
X59750Y-21570D01*
X59380Y-21940D01*
X59402Y-22064D01*
X59644Y-22154D01*
X59902Y-22144D01*
X60097Y-22064D01*
X60119Y-21940D01*
X60119Y-26544D01*
X59610Y-26544D01*
X59587Y-26554D01*
X56650Y-23616D01*
X56650Y-21730D01*
X56650Y-21269D01*
X56649Y-21130D01*
X56596Y-21001D01*
X56498Y-20903D01*
X56369Y-20849D01*
X56137Y-20850D01*
X56050Y-20937D01*
X56050Y-21450D01*
X56562Y-21450D01*
X56650Y-21362D01*
X56650Y-21269D01*
X56650Y-21730D01*
X56650Y-21637D01*
X56562Y-21550D01*
X56050Y-21550D01*
X56050Y-22062D01*
X56137Y-22150D01*
X56369Y-22150D01*
X56498Y-22096D01*
X56596Y-21998D01*
X56649Y-21869D01*
X56650Y-21730D01*
X56650Y-23616D01*
X56285Y-23252D01*
X56172Y-23176D01*
X56038Y-23150D01*
X47991Y-23150D01*
X47841Y-22999D01*
X48004Y-22837D01*
X48094Y-22618D01*
X48095Y-22382D01*
X48082Y-22351D01*
X53498Y-22351D01*
X53632Y-22325D01*
X53632Y-22325D01*
X53745Y-22249D01*
X53945Y-22049D01*
X54108Y-22050D01*
X54311Y-21966D01*
X54465Y-21811D01*
X54499Y-21730D01*
X54533Y-21811D01*
X54688Y-21965D01*
X54890Y-22049D01*
X55108Y-22050D01*
X55311Y-21966D01*
X55367Y-21910D01*
X55403Y-21998D01*
X55502Y-22096D01*
X55630Y-22150D01*
X55862Y-22150D01*
X55950Y-22062D01*
X55950Y-21550D01*
X55942Y-21550D01*
X55942Y-21450D01*
X55950Y-21450D01*
X55950Y-20937D01*
X55862Y-20850D01*
X55630Y-20849D01*
X55502Y-20903D01*
X55403Y-21001D01*
X55367Y-21089D01*
X55311Y-21034D01*
X55109Y-20950D01*
X54891Y-20949D01*
X54688Y-21033D01*
X54534Y-21188D01*
X54500Y-21269D01*
X54466Y-21188D01*
X54311Y-21034D01*
X54109Y-20950D01*
X53891Y-20949D01*
X53688Y-21033D01*
X53534Y-21188D01*
X53500Y-21269D01*
X53466Y-21188D01*
X53311Y-21034D01*
X53109Y-20950D01*
X52891Y-20949D01*
X52688Y-21033D01*
X52534Y-21188D01*
X52500Y-21269D01*
X52466Y-21188D01*
X52311Y-21034D01*
X52109Y-20950D01*
X51891Y-20949D01*
X51688Y-21033D01*
X51534Y-21188D01*
X51450Y-21390D01*
X51449Y-21608D01*
X51467Y-21651D01*
X48146Y-21651D01*
X48094Y-21599D01*
X48095Y-21382D01*
X48004Y-21163D01*
X47841Y-20999D01*
X48004Y-20837D01*
X48094Y-20618D01*
X48095Y-20382D01*
X48059Y-20295D01*
X57050Y-20295D01*
X58200Y-21445D01*
X58199Y-21608D01*
X58283Y-21811D01*
X58438Y-21965D01*
X58640Y-22049D01*
X58858Y-22050D01*
X59061Y-21966D01*
X59184Y-21843D01*
X59185Y-21847D01*
X59309Y-21869D01*
X59679Y-21500D01*
X59309Y-21130D01*
X59185Y-21152D01*
X59184Y-21156D01*
X59061Y-21034D01*
X58859Y-20950D01*
X58694Y-20949D01*
X57569Y-19825D01*
X81152Y-19825D01*
X80987Y-19989D01*
X80850Y-20320D01*
X80849Y-20678D01*
X80986Y-21009D01*
X81239Y-21262D01*
X81570Y-21399D01*
X81928Y-21400D01*
X82259Y-21263D01*
X82425Y-21097D01*
X82425Y-48402D01*
X82425Y-48402D01*
G37*
G54D28*
X82425Y-48402D02*
X82260Y-48237D01*
X81929Y-48100D01*
X81571Y-48099D01*
X81240Y-48236D01*
X80987Y-48489D01*
X80850Y-48820D01*
X80849Y-49178D01*
X80986Y-49509D01*
X81152Y-49675D01*
X79141Y-49675D01*
X79141Y-48962D01*
X78750Y-48570D01*
X78679Y-48641D01*
X78679Y-48500D01*
X78287Y-48108D01*
X78161Y-48133D01*
X78065Y-48387D01*
X78074Y-48657D01*
X78161Y-48866D01*
X78287Y-48891D01*
X78679Y-48500D01*
X78679Y-48641D01*
X78358Y-48962D01*
X78383Y-49088D01*
X78637Y-49184D01*
X78907Y-49175D01*
X79116Y-49088D01*
X79141Y-48962D01*
X79141Y-49675D01*
X76126Y-49675D01*
X76126Y-48388D01*
X76040Y-48180D01*
X76025Y-48165D01*
X76025Y-44396D01*
X76025Y-42396D01*
X75945Y-42203D01*
X75797Y-42055D01*
X75604Y-41975D01*
X75396Y-41974D01*
X75203Y-42054D01*
X75055Y-42202D01*
X74975Y-42395D01*
X74974Y-42603D01*
X75054Y-42797D01*
X75202Y-42944D01*
X75395Y-43024D01*
X75603Y-43025D01*
X75797Y-42945D01*
X75944Y-42797D01*
X76024Y-42604D01*
X76025Y-42396D01*
X76025Y-44396D01*
X75945Y-44203D01*
X75797Y-44055D01*
X75604Y-43975D01*
X75396Y-43974D01*
X75203Y-44054D01*
X75055Y-44202D01*
X74975Y-44395D01*
X74974Y-44603D01*
X75054Y-44797D01*
X75202Y-44944D01*
X75395Y-45024D01*
X75603Y-45025D01*
X75797Y-44945D01*
X75944Y-44797D01*
X76024Y-44604D01*
X76025Y-44396D01*
X76025Y-48165D01*
X75881Y-48021D01*
X75673Y-47935D01*
X75449Y-47934D01*
X75241Y-48020D01*
X75082Y-48179D01*
X74996Y-48387D01*
X74995Y-48611D01*
X75081Y-48819D01*
X75240Y-48978D01*
X75448Y-49064D01*
X75672Y-49065D01*
X75880Y-48979D01*
X76039Y-48820D01*
X76125Y-48612D01*
X76126Y-48388D01*
X76126Y-49675D01*
X73141Y-49675D01*
X73141Y-48962D01*
X72750Y-48570D01*
X72679Y-48641D01*
X72679Y-48500D01*
X72287Y-48108D01*
X72161Y-48133D01*
X72065Y-48387D01*
X72074Y-48657D01*
X72161Y-48866D01*
X72287Y-48891D01*
X72679Y-48500D01*
X72679Y-48641D01*
X72358Y-48962D01*
X72383Y-49088D01*
X72637Y-49184D01*
X72907Y-49175D01*
X73116Y-49088D01*
X73141Y-48962D01*
X73141Y-49675D01*
X70126Y-49675D01*
X70126Y-48388D01*
X70040Y-48180D01*
X70025Y-48165D01*
X70025Y-44396D01*
X70025Y-42396D01*
X69945Y-42203D01*
X69797Y-42055D01*
X69604Y-41975D01*
X69396Y-41974D01*
X69203Y-42054D01*
X69055Y-42202D01*
X68975Y-42395D01*
X68974Y-42603D01*
X69054Y-42797D01*
X69202Y-42944D01*
X69395Y-43024D01*
X69603Y-43025D01*
X69797Y-42945D01*
X69944Y-42797D01*
X70024Y-42604D01*
X70025Y-42396D01*
X70025Y-44396D01*
X69945Y-44203D01*
X69797Y-44055D01*
X69604Y-43975D01*
X69396Y-43974D01*
X69203Y-44054D01*
X69055Y-44202D01*
X68975Y-44395D01*
X68974Y-44603D01*
X69054Y-44797D01*
X69202Y-44944D01*
X69395Y-45024D01*
X69603Y-45025D01*
X69797Y-44945D01*
X69944Y-44797D01*
X70024Y-44604D01*
X70025Y-44396D01*
X70025Y-48165D01*
X69881Y-48021D01*
X69673Y-47935D01*
X69449Y-47934D01*
X69241Y-48020D01*
X69082Y-48179D01*
X68996Y-48387D01*
X68995Y-48611D01*
X69081Y-48819D01*
X69240Y-48978D01*
X69448Y-49064D01*
X69672Y-49065D01*
X69880Y-48979D01*
X70039Y-48820D01*
X70125Y-48612D01*
X70126Y-48388D01*
X70126Y-49675D01*
X67141Y-49675D01*
X67141Y-48962D01*
X66750Y-48570D01*
X66679Y-48641D01*
X66679Y-48500D01*
X66287Y-48108D01*
X66161Y-48133D01*
X66065Y-48387D01*
X66074Y-48657D01*
X66161Y-48866D01*
X66287Y-48891D01*
X66679Y-48500D01*
X66679Y-48641D01*
X66358Y-48962D01*
X66383Y-49088D01*
X66637Y-49184D01*
X66907Y-49175D01*
X67116Y-49088D01*
X67141Y-48962D01*
X67141Y-49675D01*
X64126Y-49675D01*
X64126Y-48388D01*
X64040Y-48180D01*
X63881Y-48021D01*
X63673Y-47935D01*
X63449Y-47934D01*
X63241Y-48020D01*
X63082Y-48179D01*
X62996Y-48387D01*
X62995Y-48611D01*
X63081Y-48819D01*
X63240Y-48978D01*
X63448Y-49064D01*
X63672Y-49065D01*
X63880Y-48979D01*
X64039Y-48820D01*
X64125Y-48612D01*
X64126Y-48388D01*
X64126Y-49675D01*
X61141Y-49675D01*
X61141Y-48962D01*
X60750Y-48570D01*
X60679Y-48641D01*
X60679Y-48500D01*
X60287Y-48108D01*
X60161Y-48133D01*
X60065Y-48387D01*
X60074Y-48657D01*
X60161Y-48866D01*
X60287Y-48891D01*
X60679Y-48500D01*
X60679Y-48641D01*
X60358Y-48962D01*
X60383Y-49088D01*
X60637Y-49184D01*
X60907Y-49175D01*
X61116Y-49088D01*
X61141Y-48962D01*
X61141Y-49675D01*
X58126Y-49675D01*
X58126Y-48388D01*
X58040Y-48180D01*
X57881Y-48021D01*
X57673Y-47935D01*
X57449Y-47934D01*
X57241Y-48020D01*
X57082Y-48179D01*
X56996Y-48387D01*
X56995Y-48611D01*
X57081Y-48819D01*
X57240Y-48978D01*
X57448Y-49064D01*
X57672Y-49065D01*
X57880Y-48979D01*
X58039Y-48820D01*
X58125Y-48612D01*
X58126Y-48388D01*
X58126Y-49675D01*
X55141Y-49675D01*
X55141Y-48962D01*
X54750Y-48570D01*
X54679Y-48641D01*
X54679Y-48500D01*
X54287Y-48108D01*
X54161Y-48133D01*
X54065Y-48387D01*
X54074Y-48657D01*
X54161Y-48866D01*
X54287Y-48891D01*
X54679Y-48500D01*
X54679Y-48641D01*
X54358Y-48962D01*
X54383Y-49088D01*
X54637Y-49184D01*
X54907Y-49175D01*
X55116Y-49088D01*
X55141Y-48962D01*
X55141Y-49675D01*
X52126Y-49675D01*
X52126Y-48388D01*
X52040Y-48180D01*
X52025Y-48165D01*
X52025Y-44396D01*
X52025Y-42396D01*
X51945Y-42203D01*
X51797Y-42055D01*
X51604Y-41975D01*
X51396Y-41974D01*
X51203Y-42054D01*
X51055Y-42202D01*
X50975Y-42395D01*
X50974Y-42603D01*
X51054Y-42797D01*
X51202Y-42944D01*
X51395Y-43024D01*
X51603Y-43025D01*
X51797Y-42945D01*
X51944Y-42797D01*
X52024Y-42604D01*
X52025Y-42396D01*
X52025Y-44396D01*
X51945Y-44203D01*
X51797Y-44055D01*
X51604Y-43975D01*
X51396Y-43974D01*
X51203Y-44054D01*
X51055Y-44202D01*
X50975Y-44395D01*
X50974Y-44603D01*
X51054Y-44797D01*
X51202Y-44944D01*
X51395Y-45024D01*
X51603Y-45025D01*
X51797Y-44945D01*
X51944Y-44797D01*
X52024Y-44604D01*
X52025Y-44396D01*
X52025Y-48165D01*
X51881Y-48021D01*
X51673Y-47935D01*
X51449Y-47934D01*
X51241Y-48020D01*
X51082Y-48179D01*
X50996Y-48387D01*
X50995Y-48611D01*
X51081Y-48819D01*
X51240Y-48978D01*
X51448Y-49064D01*
X51672Y-49065D01*
X51880Y-48979D01*
X52039Y-48820D01*
X52125Y-48612D01*
X52126Y-48388D01*
X52126Y-49675D01*
X50330Y-49675D01*
X50330Y-48385D01*
X50241Y-48171D01*
X50078Y-48008D01*
X49865Y-47920D01*
X49635Y-47919D01*
X49525Y-47965D01*
X49525Y-44896D01*
X49525Y-41896D01*
X49445Y-41703D01*
X49297Y-41555D01*
X49104Y-41475D01*
X48896Y-41474D01*
X48775Y-41524D01*
X48775Y-39896D01*
X48695Y-39703D01*
X48547Y-39555D01*
X48354Y-39475D01*
X48146Y-39474D01*
X47953Y-39554D01*
X47805Y-39702D01*
X47749Y-39835D01*
X47695Y-39703D01*
X47547Y-39555D01*
X47354Y-39475D01*
X47146Y-39474D01*
X46953Y-39554D01*
X46805Y-39702D01*
X46749Y-39835D01*
X46695Y-39703D01*
X46547Y-39555D01*
X46354Y-39475D01*
X46146Y-39474D01*
X45953Y-39554D01*
X45805Y-39702D01*
X45725Y-39895D01*
X45724Y-40103D01*
X45804Y-40297D01*
X45952Y-40444D01*
X46145Y-40524D01*
X46353Y-40525D01*
X46547Y-40445D01*
X46694Y-40297D01*
X46750Y-40164D01*
X46804Y-40297D01*
X46952Y-40444D01*
X47145Y-40524D01*
X47353Y-40525D01*
X47547Y-40445D01*
X47694Y-40297D01*
X47750Y-40164D01*
X47804Y-40297D01*
X47952Y-40444D01*
X48145Y-40524D01*
X48353Y-40525D01*
X48547Y-40445D01*
X48694Y-40297D01*
X48774Y-40104D01*
X48775Y-39896D01*
X48775Y-41524D01*
X48703Y-41554D01*
X48555Y-41702D01*
X48475Y-41895D01*
X48474Y-42103D01*
X48554Y-42297D01*
X48702Y-42444D01*
X48895Y-42524D01*
X49103Y-42525D01*
X49297Y-42445D01*
X49444Y-42297D01*
X49524Y-42104D01*
X49525Y-41896D01*
X49525Y-44896D01*
X49445Y-44703D01*
X49297Y-44555D01*
X49104Y-44475D01*
X48896Y-44474D01*
X48703Y-44554D01*
X48555Y-44702D01*
X48550Y-44714D01*
X48550Y-43800D01*
X48515Y-43627D01*
X48418Y-43481D01*
X47700Y-42763D01*
X47700Y-42285D01*
X47774Y-42104D01*
X47775Y-41896D01*
X47695Y-41703D01*
X47547Y-41555D01*
X47354Y-41475D01*
X47146Y-41474D01*
X46953Y-41554D01*
X46805Y-41702D01*
X46725Y-41895D01*
X46724Y-42103D01*
X46800Y-42285D01*
X46800Y-42950D01*
X46834Y-43122D01*
X46931Y-43268D01*
X47650Y-43986D01*
X47650Y-44657D01*
X47547Y-44555D01*
X47354Y-44475D01*
X47146Y-44474D01*
X46953Y-44554D01*
X46805Y-44702D01*
X46725Y-44895D01*
X46724Y-45103D01*
X46804Y-45297D01*
X46952Y-45444D01*
X47145Y-45524D01*
X47353Y-45525D01*
X47547Y-45445D01*
X47650Y-45342D01*
X47650Y-46113D01*
X46620Y-47142D01*
X46523Y-47288D01*
X46488Y-47461D01*
X46488Y-47970D01*
X46482Y-47972D01*
X46412Y-48043D01*
X46374Y-48135D01*
X46373Y-48234D01*
X46373Y-48864D01*
X46411Y-48956D01*
X46482Y-49026D01*
X46574Y-49064D01*
X46673Y-49065D01*
X47303Y-49065D01*
X47395Y-49027D01*
X47465Y-48956D01*
X47503Y-48864D01*
X47504Y-48765D01*
X47504Y-48135D01*
X47466Y-48043D01*
X47395Y-47973D01*
X47388Y-47970D01*
X47388Y-47647D01*
X48418Y-46618D01*
X48418Y-46618D01*
X48418Y-46618D01*
X48515Y-46472D01*
X48515Y-46472D01*
X48549Y-46300D01*
X48550Y-46300D01*
X48550Y-45285D01*
X48554Y-45297D01*
X48702Y-45444D01*
X48895Y-45524D01*
X49103Y-45525D01*
X49297Y-45445D01*
X49444Y-45297D01*
X49524Y-45104D01*
X49525Y-44896D01*
X49525Y-47965D01*
X49421Y-48008D01*
X49302Y-48126D01*
X49212Y-48108D01*
X49141Y-48179D01*
X49141Y-48037D01*
X49116Y-47911D01*
X48862Y-47815D01*
X48592Y-47824D01*
X48383Y-47911D01*
X48358Y-48037D01*
X48750Y-48429D01*
X49141Y-48037D01*
X49141Y-48179D01*
X48820Y-48500D01*
X49212Y-48891D01*
X49303Y-48873D01*
X49421Y-48991D01*
X49634Y-49079D01*
X49864Y-49080D01*
X50078Y-48991D01*
X50241Y-48828D01*
X50329Y-48615D01*
X50330Y-48385D01*
X50330Y-49675D01*
X49141Y-49675D01*
X49141Y-48962D01*
X48750Y-48570D01*
X48679Y-48641D01*
X48679Y-48500D01*
X48287Y-48108D01*
X48161Y-48133D01*
X48065Y-48387D01*
X48074Y-48657D01*
X48161Y-48866D01*
X48287Y-48891D01*
X48679Y-48500D01*
X48679Y-48641D01*
X48358Y-48962D01*
X48383Y-49088D01*
X48637Y-49184D01*
X48907Y-49175D01*
X49116Y-49088D01*
X49141Y-48962D01*
X49141Y-49675D01*
X46126Y-49675D01*
X46126Y-48388D01*
X46040Y-48180D01*
X46025Y-48165D01*
X46025Y-44396D01*
X46025Y-42396D01*
X45945Y-42203D01*
X45797Y-42055D01*
X45604Y-41975D01*
X45396Y-41974D01*
X45203Y-42054D01*
X45055Y-42202D01*
X44975Y-42395D01*
X44974Y-42603D01*
X45054Y-42797D01*
X45202Y-42944D01*
X45395Y-43024D01*
X45603Y-43025D01*
X45797Y-42945D01*
X45944Y-42797D01*
X46024Y-42604D01*
X46025Y-42396D01*
X46025Y-44396D01*
X45945Y-44203D01*
X45797Y-44055D01*
X45604Y-43975D01*
X45396Y-43974D01*
X45203Y-44054D01*
X45055Y-44202D01*
X44975Y-44395D01*
X44974Y-44603D01*
X45054Y-44797D01*
X45202Y-44944D01*
X45395Y-45024D01*
X45603Y-45025D01*
X45797Y-44945D01*
X45944Y-44797D01*
X46024Y-44604D01*
X46025Y-44396D01*
X46025Y-48165D01*
X45881Y-48021D01*
X45673Y-47935D01*
X45449Y-47934D01*
X45241Y-48020D01*
X45082Y-48179D01*
X44996Y-48387D01*
X44995Y-48611D01*
X45081Y-48819D01*
X45240Y-48978D01*
X45448Y-49064D01*
X45672Y-49065D01*
X45880Y-48979D01*
X46039Y-48820D01*
X46125Y-48612D01*
X46126Y-48388D01*
X46126Y-49675D01*
X44330Y-49675D01*
X44330Y-48385D01*
X44241Y-48171D01*
X44078Y-48008D01*
X43865Y-47920D01*
X43635Y-47919D01*
X43421Y-48008D01*
X43302Y-48126D01*
X43212Y-48108D01*
X43141Y-48179D01*
X43141Y-48037D01*
X43116Y-47911D01*
X42862Y-47815D01*
X42592Y-47824D01*
X42383Y-47911D01*
X42358Y-48037D01*
X42750Y-48429D01*
X43141Y-48037D01*
X43141Y-48179D01*
X42820Y-48500D01*
X43212Y-48891D01*
X43303Y-48873D01*
X43421Y-48991D01*
X43634Y-49079D01*
X43864Y-49080D01*
X44078Y-48991D01*
X44241Y-48828D01*
X44329Y-48615D01*
X44330Y-48385D01*
X44330Y-49675D01*
X43141Y-49675D01*
X43141Y-48962D01*
X42750Y-48570D01*
X42679Y-48641D01*
X42679Y-48500D01*
X42287Y-48108D01*
X42161Y-48133D01*
X42065Y-48387D01*
X42074Y-48657D01*
X42161Y-48866D01*
X42287Y-48891D01*
X42679Y-48500D01*
X42679Y-48641D01*
X42358Y-48962D01*
X42383Y-49088D01*
X42637Y-49184D01*
X42907Y-49175D01*
X43116Y-49088D01*
X43141Y-48962D01*
X43141Y-49675D01*
X40126Y-49675D01*
X40126Y-48388D01*
X40040Y-48180D01*
X39881Y-48021D01*
X39673Y-47935D01*
X39449Y-47934D01*
X39241Y-48020D01*
X39082Y-48179D01*
X38996Y-48387D01*
X38995Y-48611D01*
X39081Y-48819D01*
X39240Y-48978D01*
X39448Y-49064D01*
X39672Y-49065D01*
X39880Y-48979D01*
X40039Y-48820D01*
X40125Y-48612D01*
X40126Y-48388D01*
X40126Y-49675D01*
X37141Y-49675D01*
X37141Y-48962D01*
X36750Y-48570D01*
X36679Y-48641D01*
X36679Y-48500D01*
X36287Y-48108D01*
X36161Y-48133D01*
X36065Y-48387D01*
X36074Y-48657D01*
X36161Y-48866D01*
X36287Y-48891D01*
X36679Y-48500D01*
X36679Y-48641D01*
X36358Y-48962D01*
X36383Y-49088D01*
X36637Y-49184D01*
X36907Y-49175D01*
X37116Y-49088D01*
X37141Y-48962D01*
X37141Y-49675D01*
X34126Y-49675D01*
X34126Y-48388D01*
X34040Y-48180D01*
X34025Y-48165D01*
X34025Y-44396D01*
X34025Y-42396D01*
X33945Y-42203D01*
X33797Y-42055D01*
X33604Y-41975D01*
X33396Y-41974D01*
X33203Y-42054D01*
X33055Y-42202D01*
X32975Y-42395D01*
X32974Y-42603D01*
X33054Y-42797D01*
X33202Y-42944D01*
X33395Y-43024D01*
X33603Y-43025D01*
X33797Y-42945D01*
X33944Y-42797D01*
X34024Y-42604D01*
X34025Y-42396D01*
X34025Y-44396D01*
X33945Y-44203D01*
X33797Y-44055D01*
X33604Y-43975D01*
X33396Y-43974D01*
X33203Y-44054D01*
X33055Y-44202D01*
X32975Y-44395D01*
X32974Y-44603D01*
X33054Y-44797D01*
X33202Y-44944D01*
X33395Y-45024D01*
X33603Y-45025D01*
X33797Y-44945D01*
X33944Y-44797D01*
X34024Y-44604D01*
X34025Y-44396D01*
X34025Y-48165D01*
X33881Y-48021D01*
X33673Y-47935D01*
X33449Y-47934D01*
X33241Y-48020D01*
X33082Y-48179D01*
X32996Y-48387D01*
X32995Y-48611D01*
X33081Y-48819D01*
X33240Y-48978D01*
X33448Y-49064D01*
X33672Y-49065D01*
X33880Y-48979D01*
X34039Y-48820D01*
X34125Y-48612D01*
X34126Y-48388D01*
X34126Y-49675D01*
X31347Y-49675D01*
X31512Y-49510D01*
X31649Y-49179D01*
X31650Y-48821D01*
X31513Y-48490D01*
X31260Y-48237D01*
X30929Y-48100D01*
X30571Y-48099D01*
X30240Y-48236D01*
X30075Y-48402D01*
X30075Y-21097D01*
X30239Y-21262D01*
X30570Y-21399D01*
X30928Y-21400D01*
X31259Y-21263D01*
X31512Y-21010D01*
X31649Y-20679D01*
X31650Y-20321D01*
X31513Y-19990D01*
X31347Y-19825D01*
X43680Y-19825D01*
X42095Y-21409D01*
X42095Y-21382D01*
X42004Y-21163D01*
X41841Y-20999D01*
X42004Y-20837D01*
X42094Y-20618D01*
X42095Y-20382D01*
X42004Y-20163D01*
X41837Y-19995D01*
X41618Y-19905D01*
X41382Y-19904D01*
X41163Y-19995D01*
X40995Y-20162D01*
X40905Y-20381D01*
X40904Y-20617D01*
X40995Y-20836D01*
X41158Y-21000D01*
X40995Y-21162D01*
X40905Y-21381D01*
X40904Y-21617D01*
X40995Y-21836D01*
X41158Y-22000D01*
X40995Y-22162D01*
X40905Y-22381D01*
X40904Y-22617D01*
X40995Y-22836D01*
X41158Y-23000D01*
X40995Y-23162D01*
X40905Y-23381D01*
X40904Y-23617D01*
X40995Y-23836D01*
X41158Y-24000D01*
X40995Y-24162D01*
X40905Y-24381D01*
X40905Y-24410D01*
X38290Y-21795D01*
X38177Y-21719D01*
X38043Y-21693D01*
X33744Y-21693D01*
X33610Y-21719D01*
X33497Y-21795D01*
X33174Y-22118D01*
X33098Y-22232D01*
X33072Y-22365D01*
X33072Y-23047D01*
X33098Y-23181D01*
X33174Y-23294D01*
X33375Y-23495D01*
X33374Y-23718D01*
X33466Y-23939D01*
X33626Y-24100D01*
X33466Y-24259D01*
X33375Y-24480D01*
X33374Y-24718D01*
X33466Y-24939D01*
X33626Y-25100D01*
X33466Y-25259D01*
X33375Y-25480D01*
X33374Y-25705D01*
X33177Y-25902D01*
X33101Y-26016D01*
X33074Y-26150D01*
X33074Y-27442D01*
X33101Y-27576D01*
X33166Y-27674D01*
X33166Y-27693D01*
X33231Y-27849D01*
X33350Y-27969D01*
X33507Y-28034D01*
X33676Y-28034D01*
X33832Y-27969D01*
X33952Y-27850D01*
X34016Y-27694D01*
X34017Y-27525D01*
X33952Y-27369D01*
X33886Y-27303D01*
X34135Y-27295D01*
X34353Y-27205D01*
X34381Y-27076D01*
X34443Y-27139D01*
X34452Y-27130D01*
X34483Y-27161D01*
X34575Y-27199D01*
X34634Y-27200D01*
X34651Y-27284D01*
X34727Y-27397D01*
X36150Y-28820D01*
X36150Y-30322D01*
X36034Y-30438D01*
X35950Y-30640D01*
X35949Y-30858D01*
X36033Y-31061D01*
X36188Y-31215D01*
X36390Y-31299D01*
X36608Y-31300D01*
X36811Y-31216D01*
X36965Y-31061D01*
X37049Y-30859D01*
X37050Y-30641D01*
X36966Y-30438D01*
X36850Y-30322D01*
X36850Y-28675D01*
X36823Y-28541D01*
X36747Y-28427D01*
X35474Y-27154D01*
X35536Y-27091D01*
X35574Y-26999D01*
X35575Y-26900D01*
X35575Y-26695D01*
X39627Y-30747D01*
X39627Y-30747D01*
X39741Y-30823D01*
X39874Y-30849D01*
X39875Y-30850D01*
X41008Y-30850D01*
X41158Y-31000D01*
X40995Y-31162D01*
X40905Y-31381D01*
X40904Y-31617D01*
X40995Y-31836D01*
X41158Y-32000D01*
X40995Y-32162D01*
X40905Y-32381D01*
X40904Y-32617D01*
X40995Y-32836D01*
X41113Y-32954D01*
X41097Y-33026D01*
X41500Y-33429D01*
X41902Y-33026D01*
X41886Y-32954D01*
X42004Y-32837D01*
X42094Y-32618D01*
X42095Y-32382D01*
X42004Y-32163D01*
X41841Y-31999D01*
X41991Y-31850D01*
X43752Y-31850D01*
X45095Y-33192D01*
X45095Y-33207D01*
X45159Y-33363D01*
X45279Y-33483D01*
X45435Y-33547D01*
X45604Y-33547D01*
X45760Y-33483D01*
X45880Y-33363D01*
X45945Y-33207D01*
X45945Y-33038D01*
X45880Y-32882D01*
X45761Y-32762D01*
X45605Y-32697D01*
X45590Y-32697D01*
X44144Y-31252D01*
X44031Y-31176D01*
X43897Y-31150D01*
X41991Y-31150D01*
X41841Y-30999D01*
X42004Y-30837D01*
X42094Y-30618D01*
X42095Y-30382D01*
X42004Y-30163D01*
X41841Y-29999D01*
X42004Y-29837D01*
X42094Y-29618D01*
X42095Y-29382D01*
X42004Y-29163D01*
X41841Y-28999D01*
X42004Y-28837D01*
X42094Y-28618D01*
X42095Y-28382D01*
X42004Y-28163D01*
X41841Y-27999D01*
X42004Y-27837D01*
X42094Y-27618D01*
X42095Y-27382D01*
X42004Y-27163D01*
X41841Y-26999D01*
X42004Y-26837D01*
X42094Y-26618D01*
X42095Y-26382D01*
X42004Y-26163D01*
X41841Y-25999D01*
X42004Y-25837D01*
X42094Y-25618D01*
X42095Y-25382D01*
X42004Y-25163D01*
X41841Y-24999D01*
X42004Y-24837D01*
X42094Y-24618D01*
X42095Y-24382D01*
X42004Y-24163D01*
X41841Y-23999D01*
X42004Y-23837D01*
X42094Y-23618D01*
X42095Y-23382D01*
X42004Y-23163D01*
X41841Y-22999D01*
X42004Y-22837D01*
X42094Y-22618D01*
X42095Y-22399D01*
X44199Y-20295D01*
X46940Y-20295D01*
X46905Y-20381D01*
X46904Y-20617D01*
X46995Y-20836D01*
X47158Y-21000D01*
X46995Y-21162D01*
X46905Y-21381D01*
X46904Y-21617D01*
X46995Y-21836D01*
X47158Y-22000D01*
X46995Y-22162D01*
X46905Y-22381D01*
X46904Y-22617D01*
X46995Y-22836D01*
X47158Y-23000D01*
X46995Y-23162D01*
X46905Y-23381D01*
X46904Y-23617D01*
X46995Y-23836D01*
X47158Y-24000D01*
X46995Y-24162D01*
X46905Y-24381D01*
X46904Y-24617D01*
X46995Y-24836D01*
X47158Y-25000D01*
X46995Y-25162D01*
X46905Y-25381D01*
X46904Y-25617D01*
X46995Y-25836D01*
X47158Y-26000D01*
X46995Y-26162D01*
X46905Y-26381D01*
X46904Y-26617D01*
X46995Y-26836D01*
X47158Y-27000D01*
X46995Y-27162D01*
X46905Y-27381D01*
X46904Y-27617D01*
X46995Y-27836D01*
X47158Y-28000D01*
X46995Y-28162D01*
X46905Y-28381D01*
X46904Y-28617D01*
X46995Y-28836D01*
X47158Y-29000D01*
X46995Y-29162D01*
X46905Y-29381D01*
X46904Y-29617D01*
X46995Y-29836D01*
X47158Y-30000D01*
X46995Y-30162D01*
X46905Y-30381D01*
X46904Y-30617D01*
X46995Y-30836D01*
X47113Y-30954D01*
X47097Y-31026D01*
X47500Y-31429D01*
X47902Y-31026D01*
X47886Y-30954D01*
X48004Y-30837D01*
X48094Y-30618D01*
X48095Y-30382D01*
X48004Y-30163D01*
X47841Y-29999D01*
X48004Y-29837D01*
X48094Y-29618D01*
X48095Y-29399D01*
X49599Y-27895D01*
X52609Y-27895D01*
X48198Y-32306D01*
X48198Y-31616D01*
X48190Y-31340D01*
X48101Y-31124D01*
X47973Y-31097D01*
X47570Y-31500D01*
X47973Y-31902D01*
X48101Y-31875D01*
X48198Y-31616D01*
X48198Y-32306D01*
X48095Y-32409D01*
X48095Y-32382D01*
X48004Y-32163D01*
X47886Y-32045D01*
X47902Y-31973D01*
X47500Y-31570D01*
X47429Y-31641D01*
X47429Y-31500D01*
X47026Y-31097D01*
X46898Y-31124D01*
X46801Y-31383D01*
X46809Y-31659D01*
X46898Y-31875D01*
X47026Y-31902D01*
X47429Y-31500D01*
X47429Y-31641D01*
X47097Y-31973D01*
X47113Y-32045D01*
X46995Y-32162D01*
X46905Y-32381D01*
X46904Y-32617D01*
X46995Y-32836D01*
X47158Y-33000D01*
X46995Y-33162D01*
X46905Y-33381D01*
X46904Y-33617D01*
X46995Y-33836D01*
X47108Y-33949D01*
X47105Y-33949D01*
X47013Y-33987D01*
X46943Y-34058D01*
X46905Y-34150D01*
X46904Y-34249D01*
X46904Y-34849D01*
X46942Y-34941D01*
X47013Y-35011D01*
X47105Y-35049D01*
X47204Y-35050D01*
X47460Y-35050D01*
X46857Y-35652D01*
X46843Y-35652D01*
X46686Y-35717D01*
X46567Y-35836D01*
X46502Y-35992D01*
X46502Y-36161D01*
X46566Y-36318D01*
X46686Y-36437D01*
X46842Y-36502D01*
X46909Y-36502D01*
X46898Y-36577D01*
X47250Y-36929D01*
X47255Y-36923D01*
X47326Y-36994D01*
X47320Y-37000D01*
X47326Y-37005D01*
X47255Y-37076D01*
X47250Y-37070D01*
X47244Y-37076D01*
X47173Y-37005D01*
X47179Y-37000D01*
X46827Y-36648D01*
X46706Y-36667D01*
X46693Y-36701D01*
X46547Y-36555D01*
X46354Y-36475D01*
X46146Y-36474D01*
X45953Y-36554D01*
X45805Y-36702D01*
X45725Y-36895D01*
X45724Y-37103D01*
X45735Y-37129D01*
X43349Y-37129D01*
X42972Y-36752D01*
X42859Y-36676D01*
X42768Y-36658D01*
X42768Y-36658D01*
X42737Y-36583D01*
X42666Y-36513D01*
X42574Y-36475D01*
X42475Y-36474D01*
X42198Y-36474D01*
X42198Y-33616D01*
X42190Y-33340D01*
X42101Y-33124D01*
X41973Y-33097D01*
X41570Y-33500D01*
X41973Y-33902D01*
X42101Y-33875D01*
X42198Y-33616D01*
X42198Y-36474D01*
X42095Y-36474D01*
X42095Y-34382D01*
X42004Y-34163D01*
X41886Y-34045D01*
X41902Y-33973D01*
X41500Y-33570D01*
X41429Y-33641D01*
X41429Y-33500D01*
X41026Y-33097D01*
X40898Y-33124D01*
X40801Y-33383D01*
X40809Y-33659D01*
X40898Y-33875D01*
X41026Y-33902D01*
X41429Y-33500D01*
X41429Y-33641D01*
X41097Y-33973D01*
X41113Y-34045D01*
X40995Y-34162D01*
X40905Y-34381D01*
X40904Y-34617D01*
X40995Y-34836D01*
X41162Y-35004D01*
X41381Y-35094D01*
X41617Y-35095D01*
X41836Y-35004D01*
X42004Y-34837D01*
X42094Y-34618D01*
X42095Y-34382D01*
X42095Y-36474D01*
X41925Y-36474D01*
X41833Y-36512D01*
X41763Y-36583D01*
X41732Y-36657D01*
X41672Y-36648D01*
X41601Y-36718D01*
X41601Y-36577D01*
X41582Y-36456D01*
X41349Y-36370D01*
X41101Y-36380D01*
X40917Y-36456D01*
X40898Y-36577D01*
X41250Y-36929D01*
X41601Y-36577D01*
X41601Y-36718D01*
X41320Y-37000D01*
X41672Y-37351D01*
X41732Y-37342D01*
X41762Y-37416D01*
X41833Y-37486D01*
X41925Y-37524D01*
X42024Y-37525D01*
X42574Y-37525D01*
X42666Y-37487D01*
X42691Y-37461D01*
X42956Y-37726D01*
X43070Y-37802D01*
X43204Y-37829D01*
X47447Y-37829D01*
X47581Y-37802D01*
X47581Y-37802D01*
X47694Y-37726D01*
X47904Y-37516D01*
X47925Y-37524D01*
X48024Y-37525D01*
X48072Y-37525D01*
X47732Y-37864D01*
X43340Y-37864D01*
X43207Y-37891D01*
X43093Y-37966D01*
X41601Y-39458D01*
X41601Y-37422D01*
X41250Y-37070D01*
X41179Y-37141D01*
X41179Y-37000D01*
X40827Y-36648D01*
X40706Y-36667D01*
X40693Y-36701D01*
X40547Y-36555D01*
X40354Y-36475D01*
X40146Y-36474D01*
X39953Y-36554D01*
X39805Y-36702D01*
X39725Y-36895D01*
X39724Y-37103D01*
X39804Y-37297D01*
X39952Y-37444D01*
X40145Y-37524D01*
X40353Y-37525D01*
X40547Y-37445D01*
X40692Y-37299D01*
X40706Y-37332D01*
X40827Y-37351D01*
X41179Y-37000D01*
X41179Y-37141D01*
X40898Y-37422D01*
X40917Y-37543D01*
X41150Y-37629D01*
X41398Y-37619D01*
X41582Y-37543D01*
X41601Y-37422D01*
X41601Y-39458D01*
X41517Y-39542D01*
X41354Y-39475D01*
X41146Y-39474D01*
X40953Y-39554D01*
X40805Y-39702D01*
X40749Y-39835D01*
X40695Y-39703D01*
X40547Y-39555D01*
X40354Y-39475D01*
X40146Y-39474D01*
X39953Y-39554D01*
X39805Y-39702D01*
X39725Y-39895D01*
X39724Y-40103D01*
X39804Y-40297D01*
X39952Y-40444D01*
X40145Y-40524D01*
X40353Y-40525D01*
X40547Y-40445D01*
X40694Y-40297D01*
X40750Y-40164D01*
X40804Y-40297D01*
X40952Y-40444D01*
X41145Y-40524D01*
X41252Y-40525D01*
X40021Y-41755D01*
X39945Y-41869D01*
X39918Y-42003D01*
X39918Y-42176D01*
X39797Y-42055D01*
X39604Y-41975D01*
X39396Y-41974D01*
X39203Y-42054D01*
X39055Y-42202D01*
X38975Y-42395D01*
X38974Y-42603D01*
X39054Y-42797D01*
X39202Y-42944D01*
X39395Y-43024D01*
X39603Y-43025D01*
X39797Y-42945D01*
X39918Y-42823D01*
X39918Y-44176D01*
X39797Y-44055D01*
X39604Y-43975D01*
X39396Y-43974D01*
X39203Y-44054D01*
X39055Y-44202D01*
X38975Y-44395D01*
X38974Y-44603D01*
X39054Y-44797D01*
X39202Y-44944D01*
X39395Y-45024D01*
X39603Y-45025D01*
X39797Y-44945D01*
X39918Y-44823D01*
X39918Y-45836D01*
X37899Y-47855D01*
X37899Y-32974D01*
X37889Y-32726D01*
X37813Y-32542D01*
X37692Y-32523D01*
X37621Y-32593D01*
X37621Y-32452D01*
X37602Y-32331D01*
X37369Y-32245D01*
X37121Y-32255D01*
X36937Y-32331D01*
X36918Y-32452D01*
X37270Y-32804D01*
X37621Y-32452D01*
X37621Y-32593D01*
X37340Y-32875D01*
X37692Y-33226D01*
X37813Y-33207D01*
X37899Y-32974D01*
X37899Y-47855D01*
X37834Y-47920D01*
X37635Y-47919D01*
X37621Y-47925D01*
X37621Y-33297D01*
X37270Y-32945D01*
X37199Y-33016D01*
X37199Y-32875D01*
X36847Y-32523D01*
X36726Y-32542D01*
X36640Y-32775D01*
X36650Y-33023D01*
X36726Y-33207D01*
X36847Y-33226D01*
X37199Y-32875D01*
X37199Y-33016D01*
X36918Y-33297D01*
X36937Y-33418D01*
X37170Y-33504D01*
X37418Y-33494D01*
X37602Y-33418D01*
X37621Y-33297D01*
X37621Y-47925D01*
X37525Y-47965D01*
X37525Y-44896D01*
X37525Y-41896D01*
X37445Y-41703D01*
X37297Y-41555D01*
X37104Y-41475D01*
X36896Y-41474D01*
X36775Y-41524D01*
X36775Y-39896D01*
X36775Y-39895D01*
X36775Y-37225D01*
X36775Y-36675D01*
X36737Y-36583D01*
X36666Y-36513D01*
X36574Y-36475D01*
X36475Y-36474D01*
X35925Y-36474D01*
X35833Y-36512D01*
X35795Y-36551D01*
X35795Y-32771D01*
X35715Y-32578D01*
X35567Y-32430D01*
X35374Y-32350D01*
X35239Y-32349D01*
X35012Y-32122D01*
X34898Y-32046D01*
X34764Y-32019D01*
X32850Y-32019D01*
X32850Y-31177D01*
X32965Y-31061D01*
X33049Y-30859D01*
X33050Y-30641D01*
X32966Y-30438D01*
X32811Y-30284D01*
X32609Y-30200D01*
X32391Y-30199D01*
X32188Y-30283D01*
X32034Y-30438D01*
X31950Y-30640D01*
X31949Y-30858D01*
X32033Y-31061D01*
X32150Y-31177D01*
X32150Y-32224D01*
X32087Y-32287D01*
X32011Y-32400D01*
X32006Y-32425D01*
X31869Y-32563D01*
X31785Y-32765D01*
X31784Y-32983D01*
X31868Y-33186D01*
X32023Y-33340D01*
X32225Y-33424D01*
X32443Y-33425D01*
X32646Y-33341D01*
X32784Y-33202D01*
X32784Y-33224D01*
X32822Y-33316D01*
X32893Y-33386D01*
X32985Y-33424D01*
X33084Y-33425D01*
X33684Y-33425D01*
X33776Y-33387D01*
X33846Y-33316D01*
X33884Y-33224D01*
X33885Y-33125D01*
X33885Y-32719D01*
X34619Y-32719D01*
X34745Y-32845D01*
X34744Y-32978D01*
X34824Y-33172D01*
X34972Y-33319D01*
X35165Y-33399D01*
X35373Y-33400D01*
X35567Y-33320D01*
X35714Y-33172D01*
X35794Y-32979D01*
X35795Y-32771D01*
X35795Y-36551D01*
X35763Y-36583D01*
X35732Y-36657D01*
X35672Y-36648D01*
X35601Y-36718D01*
X35601Y-36577D01*
X35582Y-36456D01*
X35349Y-36370D01*
X35101Y-36380D01*
X34917Y-36456D01*
X34898Y-36577D01*
X35250Y-36929D01*
X35601Y-36577D01*
X35601Y-36718D01*
X35320Y-37000D01*
X35672Y-37351D01*
X35732Y-37342D01*
X35762Y-37416D01*
X35833Y-37486D01*
X35925Y-37524D01*
X36024Y-37525D01*
X36574Y-37525D01*
X36666Y-37487D01*
X36736Y-37416D01*
X36774Y-37324D01*
X36775Y-37225D01*
X36775Y-39895D01*
X36695Y-39703D01*
X36547Y-39555D01*
X36354Y-39475D01*
X36146Y-39474D01*
X35953Y-39554D01*
X35805Y-39702D01*
X35749Y-39835D01*
X35695Y-39703D01*
X35601Y-39609D01*
X35601Y-37422D01*
X35250Y-37070D01*
X35179Y-37141D01*
X35179Y-37000D01*
X34827Y-36648D01*
X34706Y-36667D01*
X34693Y-36701D01*
X34547Y-36555D01*
X34354Y-36475D01*
X34146Y-36474D01*
X33953Y-36554D01*
X33805Y-36702D01*
X33725Y-36895D01*
X33724Y-37103D01*
X33804Y-37297D01*
X33952Y-37444D01*
X34145Y-37524D01*
X34353Y-37525D01*
X34547Y-37445D01*
X34692Y-37299D01*
X34706Y-37332D01*
X34827Y-37351D01*
X35179Y-37000D01*
X35179Y-37141D01*
X34898Y-37422D01*
X34917Y-37543D01*
X35150Y-37629D01*
X35398Y-37619D01*
X35582Y-37543D01*
X35601Y-37422D01*
X35601Y-39609D01*
X35547Y-39555D01*
X35354Y-39475D01*
X35146Y-39474D01*
X34953Y-39554D01*
X34805Y-39702D01*
X34749Y-39835D01*
X34695Y-39703D01*
X34547Y-39555D01*
X34354Y-39475D01*
X34146Y-39474D01*
X33953Y-39554D01*
X33805Y-39702D01*
X33725Y-39895D01*
X33724Y-40103D01*
X33804Y-40297D01*
X33952Y-40444D01*
X34145Y-40524D01*
X34353Y-40525D01*
X34547Y-40445D01*
X34694Y-40297D01*
X34750Y-40164D01*
X34804Y-40297D01*
X34952Y-40444D01*
X35145Y-40524D01*
X35353Y-40525D01*
X35547Y-40445D01*
X35694Y-40297D01*
X35750Y-40164D01*
X35804Y-40297D01*
X35952Y-40444D01*
X36145Y-40524D01*
X36353Y-40525D01*
X36547Y-40445D01*
X36694Y-40297D01*
X36774Y-40104D01*
X36775Y-39896D01*
X36775Y-41524D01*
X36703Y-41554D01*
X36555Y-41702D01*
X36475Y-41895D01*
X36474Y-42103D01*
X36554Y-42297D01*
X36702Y-42444D01*
X36895Y-42524D01*
X37103Y-42525D01*
X37297Y-42445D01*
X37444Y-42297D01*
X37524Y-42104D01*
X37525Y-41896D01*
X37525Y-44896D01*
X37445Y-44703D01*
X37297Y-44555D01*
X37104Y-44475D01*
X36896Y-44474D01*
X36703Y-44554D01*
X36555Y-44702D01*
X36550Y-44714D01*
X36550Y-44100D01*
X36515Y-43927D01*
X36418Y-43781D01*
X35700Y-43063D01*
X35700Y-42285D01*
X35774Y-42104D01*
X35775Y-41896D01*
X35695Y-41703D01*
X35547Y-41555D01*
X35354Y-41475D01*
X35146Y-41474D01*
X34953Y-41554D01*
X34805Y-41702D01*
X34725Y-41895D01*
X34724Y-42103D01*
X34800Y-42285D01*
X34800Y-43250D01*
X34834Y-43422D01*
X34931Y-43568D01*
X35650Y-44286D01*
X35650Y-44657D01*
X35547Y-44555D01*
X35354Y-44475D01*
X35146Y-44474D01*
X34953Y-44554D01*
X34805Y-44702D01*
X34725Y-44895D01*
X34724Y-45103D01*
X34804Y-45297D01*
X34952Y-45444D01*
X35145Y-45524D01*
X35353Y-45525D01*
X35547Y-45445D01*
X35650Y-45342D01*
X35650Y-46013D01*
X34620Y-47042D01*
X34523Y-47188D01*
X34489Y-47361D01*
X34489Y-47970D01*
X34482Y-47972D01*
X34412Y-48043D01*
X34374Y-48135D01*
X34373Y-48234D01*
X34373Y-48864D01*
X34411Y-48956D01*
X34482Y-49026D01*
X34574Y-49064D01*
X34673Y-49065D01*
X35303Y-49065D01*
X35395Y-49027D01*
X35465Y-48956D01*
X35503Y-48864D01*
X35504Y-48765D01*
X35504Y-48135D01*
X35466Y-48043D01*
X35395Y-47973D01*
X35389Y-47970D01*
X35389Y-47547D01*
X36418Y-46518D01*
X36515Y-46372D01*
X36550Y-46200D01*
X36550Y-46199D01*
X36550Y-45285D01*
X36554Y-45297D01*
X36702Y-45444D01*
X36895Y-45524D01*
X37103Y-45525D01*
X37297Y-45445D01*
X37444Y-45297D01*
X37524Y-45104D01*
X37525Y-44896D01*
X37525Y-47965D01*
X37421Y-48008D01*
X37302Y-48126D01*
X37212Y-48108D01*
X37141Y-48179D01*
X37141Y-48037D01*
X37116Y-47911D01*
X36862Y-47815D01*
X36592Y-47824D01*
X36383Y-47911D01*
X36358Y-48037D01*
X36750Y-48429D01*
X37141Y-48037D01*
X37141Y-48179D01*
X36820Y-48500D01*
X37212Y-48891D01*
X37303Y-48873D01*
X37421Y-48991D01*
X37634Y-49079D01*
X37864Y-49080D01*
X38078Y-48991D01*
X38241Y-48828D01*
X38329Y-48615D01*
X38330Y-48414D01*
X40516Y-46228D01*
X40516Y-46228D01*
X40516Y-46228D01*
X40592Y-46115D01*
X40618Y-45981D01*
X40618Y-45981D01*
X40618Y-42148D01*
X40724Y-42042D01*
X40724Y-42103D01*
X40800Y-42285D01*
X40800Y-42450D01*
X40834Y-42622D01*
X40931Y-42768D01*
X41650Y-43486D01*
X41650Y-44657D01*
X41547Y-44555D01*
X41354Y-44475D01*
X41146Y-44474D01*
X40953Y-44554D01*
X40805Y-44702D01*
X40725Y-44895D01*
X40724Y-45103D01*
X40804Y-45297D01*
X40952Y-45444D01*
X41145Y-45524D01*
X41353Y-45525D01*
X41547Y-45445D01*
X41650Y-45342D01*
X41650Y-46113D01*
X40620Y-47142D01*
X40523Y-47288D01*
X40488Y-47461D01*
X40488Y-47970D01*
X40482Y-47972D01*
X40412Y-48043D01*
X40374Y-48135D01*
X40373Y-48234D01*
X40373Y-48864D01*
X40411Y-48956D01*
X40482Y-49026D01*
X40574Y-49064D01*
X40673Y-49065D01*
X41303Y-49065D01*
X41395Y-49027D01*
X41465Y-48956D01*
X41503Y-48864D01*
X41504Y-48765D01*
X41504Y-48135D01*
X41466Y-48043D01*
X41395Y-47973D01*
X41388Y-47970D01*
X41388Y-47647D01*
X42418Y-46618D01*
X42418Y-46618D01*
X42418Y-46618D01*
X42515Y-46472D01*
X42515Y-46472D01*
X42549Y-46300D01*
X42550Y-46300D01*
X42550Y-45285D01*
X42554Y-45297D01*
X42702Y-45444D01*
X42895Y-45524D01*
X43103Y-45525D01*
X43297Y-45445D01*
X43444Y-45297D01*
X43524Y-45104D01*
X43525Y-44896D01*
X43525Y-41896D01*
X43445Y-41703D01*
X43297Y-41555D01*
X43104Y-41475D01*
X42896Y-41474D01*
X42703Y-41554D01*
X42555Y-41702D01*
X42475Y-41895D01*
X42474Y-42103D01*
X42554Y-42297D01*
X42702Y-42444D01*
X42895Y-42524D01*
X43103Y-42525D01*
X43297Y-42445D01*
X43444Y-42297D01*
X43524Y-42104D01*
X43525Y-41896D01*
X43525Y-44896D01*
X43445Y-44703D01*
X43297Y-44555D01*
X43104Y-44475D01*
X42896Y-44474D01*
X42703Y-44554D01*
X42555Y-44702D01*
X42550Y-44714D01*
X42550Y-43300D01*
X42515Y-43127D01*
X42418Y-42981D01*
X41706Y-42269D01*
X41774Y-42104D01*
X41775Y-41896D01*
X41695Y-41703D01*
X41547Y-41555D01*
X41354Y-41475D01*
X41292Y-41475D01*
X41997Y-40769D01*
X41997Y-40769D01*
X41997Y-40769D01*
X42073Y-40656D01*
X42100Y-40522D01*
X42099Y-40522D01*
X42100Y-40522D01*
X42100Y-40506D01*
X42145Y-40524D01*
X42353Y-40525D01*
X42547Y-40445D01*
X42694Y-40297D01*
X42774Y-40104D01*
X42775Y-39896D01*
X42695Y-39703D01*
X42547Y-39555D01*
X42510Y-39539D01*
X43485Y-38564D01*
X47877Y-38564D01*
X48011Y-38537D01*
X48011Y-38537D01*
X48125Y-38461D01*
X55585Y-31002D01*
X55585Y-34694D01*
X54002Y-36277D01*
X53926Y-36390D01*
X53908Y-36481D01*
X53908Y-36481D01*
X53833Y-36512D01*
X53763Y-36583D01*
X53732Y-36657D01*
X53672Y-36648D01*
X53601Y-36718D01*
X53601Y-36577D01*
X53582Y-36456D01*
X53349Y-36370D01*
X53101Y-36380D01*
X52917Y-36456D01*
X52898Y-36577D01*
X53250Y-36929D01*
X53601Y-36577D01*
X53601Y-36718D01*
X53320Y-37000D01*
X53672Y-37351D01*
X53732Y-37342D01*
X53762Y-37416D01*
X53833Y-37486D01*
X53925Y-37524D01*
X54024Y-37525D01*
X54574Y-37525D01*
X54666Y-37487D01*
X54736Y-37416D01*
X54774Y-37324D01*
X54775Y-37225D01*
X54775Y-36675D01*
X54737Y-36583D01*
X54711Y-36558D01*
X56182Y-35087D01*
X56258Y-34973D01*
X56258Y-34973D01*
X56285Y-34839D01*
X56285Y-30462D01*
X56379Y-30367D01*
X56435Y-30234D01*
X56489Y-30367D01*
X56637Y-30514D01*
X56830Y-30594D01*
X56965Y-30595D01*
X59900Y-33529D01*
X59900Y-36485D01*
X59833Y-36512D01*
X59763Y-36583D01*
X59732Y-36657D01*
X59672Y-36648D01*
X59601Y-36718D01*
X59601Y-36577D01*
X59582Y-36456D01*
X59349Y-36370D01*
X59101Y-36380D01*
X58917Y-36456D01*
X58898Y-36577D01*
X59250Y-36929D01*
X59601Y-36577D01*
X59601Y-36718D01*
X59320Y-37000D01*
X59672Y-37351D01*
X59732Y-37342D01*
X59762Y-37416D01*
X59833Y-37486D01*
X59925Y-37524D01*
X60024Y-37525D01*
X60574Y-37525D01*
X60666Y-37487D01*
X60736Y-37416D01*
X60774Y-37324D01*
X60775Y-37225D01*
X60775Y-36675D01*
X60737Y-36583D01*
X60666Y-36513D01*
X60600Y-36485D01*
X60600Y-33384D01*
X60573Y-33251D01*
X60573Y-33251D01*
X60497Y-33137D01*
X58775Y-31415D01*
X60470Y-31415D01*
X65470Y-36414D01*
X65349Y-36370D01*
X65101Y-36380D01*
X64917Y-36456D01*
X64898Y-36577D01*
X65250Y-36929D01*
X65255Y-36923D01*
X65326Y-36994D01*
X65320Y-37000D01*
X65672Y-37351D01*
X65732Y-37342D01*
X65762Y-37416D01*
X65824Y-37478D01*
X65593Y-37478D01*
X65601Y-37422D01*
X65250Y-37070D01*
X65179Y-37141D01*
X65179Y-37000D01*
X64827Y-36648D01*
X64706Y-36667D01*
X64693Y-36701D01*
X64547Y-36555D01*
X64354Y-36475D01*
X64146Y-36474D01*
X63953Y-36554D01*
X63805Y-36702D01*
X63725Y-36895D01*
X63724Y-37103D01*
X63804Y-37297D01*
X63952Y-37444D01*
X64145Y-37524D01*
X64353Y-37525D01*
X64547Y-37445D01*
X64692Y-37299D01*
X64706Y-37332D01*
X64827Y-37351D01*
X65179Y-37000D01*
X65179Y-37141D01*
X64898Y-37422D01*
X64906Y-37478D01*
X64846Y-37478D01*
X64712Y-37505D01*
X64598Y-37580D01*
X64598Y-37580D01*
X61588Y-40591D01*
X60775Y-40591D01*
X60775Y-39896D01*
X60695Y-39703D01*
X60547Y-39555D01*
X60354Y-39475D01*
X60146Y-39474D01*
X59953Y-39554D01*
X59805Y-39702D01*
X59749Y-39835D01*
X59695Y-39703D01*
X59601Y-39609D01*
X59601Y-37422D01*
X59250Y-37070D01*
X59179Y-37141D01*
X59179Y-37000D01*
X58827Y-36648D01*
X58706Y-36667D01*
X58693Y-36701D01*
X58547Y-36555D01*
X58354Y-36475D01*
X58146Y-36474D01*
X57953Y-36554D01*
X57805Y-36702D01*
X57725Y-36895D01*
X57724Y-37103D01*
X57804Y-37297D01*
X57952Y-37444D01*
X58145Y-37524D01*
X58353Y-37525D01*
X58547Y-37445D01*
X58692Y-37299D01*
X58706Y-37332D01*
X58827Y-37351D01*
X59179Y-37000D01*
X59179Y-37141D01*
X58898Y-37422D01*
X58917Y-37543D01*
X59150Y-37629D01*
X59398Y-37619D01*
X59582Y-37543D01*
X59601Y-37422D01*
X59601Y-39609D01*
X59547Y-39555D01*
X59354Y-39475D01*
X59146Y-39474D01*
X58953Y-39554D01*
X58805Y-39702D01*
X58749Y-39835D01*
X58695Y-39703D01*
X58547Y-39555D01*
X58354Y-39475D01*
X58146Y-39474D01*
X57953Y-39554D01*
X57805Y-39702D01*
X57725Y-39895D01*
X57724Y-40103D01*
X57804Y-40297D01*
X57952Y-40444D01*
X58145Y-40524D01*
X58353Y-40525D01*
X58547Y-40445D01*
X58694Y-40297D01*
X58750Y-40164D01*
X58804Y-40297D01*
X58952Y-40444D01*
X59145Y-40524D01*
X59353Y-40525D01*
X59547Y-40445D01*
X59694Y-40297D01*
X59750Y-40164D01*
X59804Y-40297D01*
X59952Y-40444D01*
X60145Y-40524D01*
X60353Y-40525D01*
X60547Y-40445D01*
X60694Y-40297D01*
X60774Y-40104D01*
X60775Y-39896D01*
X60775Y-40591D01*
X59635Y-40591D01*
X59501Y-40617D01*
X59388Y-40693D01*
X59388Y-40693D01*
X59388Y-40693D01*
X58472Y-41609D01*
X58396Y-41723D01*
X58369Y-41857D01*
X58369Y-45385D01*
X58025Y-45729D01*
X58025Y-44396D01*
X58025Y-42396D01*
X57945Y-42203D01*
X57797Y-42055D01*
X57604Y-41975D01*
X57396Y-41974D01*
X57203Y-42054D01*
X57055Y-42202D01*
X56975Y-42395D01*
X56974Y-42603D01*
X57054Y-42797D01*
X57202Y-42944D01*
X57395Y-43024D01*
X57603Y-43025D01*
X57797Y-42945D01*
X57944Y-42797D01*
X58024Y-42604D01*
X58025Y-42396D01*
X58025Y-44396D01*
X57945Y-44203D01*
X57797Y-44055D01*
X57604Y-43975D01*
X57396Y-43974D01*
X57203Y-44054D01*
X57055Y-44202D01*
X56975Y-44395D01*
X56974Y-44603D01*
X57054Y-44797D01*
X57202Y-44944D01*
X57395Y-45024D01*
X57603Y-45025D01*
X57797Y-44945D01*
X57944Y-44797D01*
X58024Y-44604D01*
X58025Y-44396D01*
X58025Y-45729D01*
X55834Y-47920D01*
X55635Y-47919D01*
X55525Y-47965D01*
X55525Y-44896D01*
X55525Y-41896D01*
X55445Y-41703D01*
X55297Y-41555D01*
X55104Y-41475D01*
X54896Y-41474D01*
X54775Y-41524D01*
X54775Y-39896D01*
X54695Y-39703D01*
X54547Y-39555D01*
X54354Y-39475D01*
X54146Y-39474D01*
X53953Y-39554D01*
X53805Y-39702D01*
X53749Y-39835D01*
X53695Y-39703D01*
X53601Y-39609D01*
X53601Y-37422D01*
X53250Y-37070D01*
X53179Y-37141D01*
X53179Y-37000D01*
X52827Y-36648D01*
X52706Y-36667D01*
X52693Y-36701D01*
X52547Y-36555D01*
X52354Y-36475D01*
X52146Y-36474D01*
X51953Y-36554D01*
X51805Y-36702D01*
X51725Y-36895D01*
X51724Y-37103D01*
X51804Y-37297D01*
X51952Y-37444D01*
X52145Y-37524D01*
X52353Y-37525D01*
X52547Y-37445D01*
X52692Y-37299D01*
X52706Y-37332D01*
X52827Y-37351D01*
X53179Y-37000D01*
X53179Y-37141D01*
X52898Y-37422D01*
X52917Y-37543D01*
X53150Y-37629D01*
X53398Y-37619D01*
X53582Y-37543D01*
X53601Y-37422D01*
X53601Y-39609D01*
X53547Y-39555D01*
X53354Y-39475D01*
X53146Y-39474D01*
X52953Y-39554D01*
X52805Y-39702D01*
X52749Y-39835D01*
X52695Y-39703D01*
X52547Y-39555D01*
X52354Y-39475D01*
X52146Y-39474D01*
X51953Y-39554D01*
X51805Y-39702D01*
X51725Y-39895D01*
X51724Y-40103D01*
X51804Y-40297D01*
X51952Y-40444D01*
X52145Y-40524D01*
X52353Y-40525D01*
X52547Y-40445D01*
X52694Y-40297D01*
X52750Y-40164D01*
X52804Y-40297D01*
X52952Y-40444D01*
X53145Y-40524D01*
X53353Y-40525D01*
X53547Y-40445D01*
X53694Y-40297D01*
X53750Y-40164D01*
X53804Y-40297D01*
X53952Y-40444D01*
X54145Y-40524D01*
X54353Y-40525D01*
X54547Y-40445D01*
X54694Y-40297D01*
X54774Y-40104D01*
X54775Y-39896D01*
X54775Y-41524D01*
X54703Y-41554D01*
X54555Y-41702D01*
X54475Y-41895D01*
X54474Y-42103D01*
X54554Y-42297D01*
X54702Y-42444D01*
X54895Y-42524D01*
X55103Y-42525D01*
X55297Y-42445D01*
X55444Y-42297D01*
X55524Y-42104D01*
X55525Y-41896D01*
X55525Y-44896D01*
X55445Y-44703D01*
X55297Y-44555D01*
X55104Y-44475D01*
X54896Y-44474D01*
X54703Y-44554D01*
X54555Y-44702D01*
X54550Y-44714D01*
X54550Y-43500D01*
X54515Y-43327D01*
X54418Y-43181D01*
X53700Y-42463D01*
X53700Y-42285D01*
X53774Y-42104D01*
X53775Y-41896D01*
X53695Y-41703D01*
X53547Y-41555D01*
X53354Y-41475D01*
X53146Y-41474D01*
X52953Y-41554D01*
X52805Y-41702D01*
X52725Y-41895D01*
X52724Y-42103D01*
X52800Y-42285D01*
X52800Y-42650D01*
X52834Y-42822D01*
X52931Y-42968D01*
X53650Y-43686D01*
X53650Y-44657D01*
X53547Y-44555D01*
X53354Y-44475D01*
X53146Y-44474D01*
X52953Y-44554D01*
X52805Y-44702D01*
X52725Y-44895D01*
X52724Y-45103D01*
X52804Y-45297D01*
X52952Y-45444D01*
X53145Y-45524D01*
X53353Y-45525D01*
X53547Y-45445D01*
X53650Y-45342D01*
X53650Y-45513D01*
X52620Y-46542D01*
X52523Y-46688D01*
X52488Y-46861D01*
X52488Y-47680D01*
X52488Y-47970D01*
X52482Y-47972D01*
X52412Y-48043D01*
X52374Y-48135D01*
X52373Y-48234D01*
X52373Y-48864D01*
X52411Y-48956D01*
X52482Y-49026D01*
X52574Y-49064D01*
X52673Y-49065D01*
X53303Y-49065D01*
X53395Y-49027D01*
X53465Y-48956D01*
X53503Y-48864D01*
X53504Y-48765D01*
X53504Y-48135D01*
X53466Y-48043D01*
X53395Y-47973D01*
X53388Y-47970D01*
X53388Y-47680D01*
X53388Y-47047D01*
X54418Y-46018D01*
X54418Y-46018D01*
X54418Y-46018D01*
X54515Y-45872D01*
X54515Y-45872D01*
X54549Y-45700D01*
X54550Y-45700D01*
X54550Y-45285D01*
X54554Y-45297D01*
X54702Y-45444D01*
X54895Y-45524D01*
X55103Y-45525D01*
X55297Y-45445D01*
X55444Y-45297D01*
X55524Y-45104D01*
X55525Y-44896D01*
X55525Y-47965D01*
X55421Y-48008D01*
X55302Y-48126D01*
X55212Y-48108D01*
X55141Y-48179D01*
X55141Y-48037D01*
X55116Y-47911D01*
X54862Y-47815D01*
X54592Y-47824D01*
X54383Y-47911D01*
X54358Y-48037D01*
X54750Y-48429D01*
X55141Y-48037D01*
X55141Y-48179D01*
X54820Y-48500D01*
X55212Y-48891D01*
X55303Y-48873D01*
X55421Y-48991D01*
X55634Y-49079D01*
X55864Y-49080D01*
X56078Y-48991D01*
X56241Y-48828D01*
X56329Y-48615D01*
X56330Y-48414D01*
X58967Y-45777D01*
X58967Y-45777D01*
X58967Y-45777D01*
X59043Y-45664D01*
X59069Y-45530D01*
X59069Y-45530D01*
X59069Y-45530D01*
X59069Y-45493D01*
X59145Y-45524D01*
X59353Y-45525D01*
X59547Y-45445D01*
X59650Y-45342D01*
X59650Y-45713D01*
X58620Y-46742D01*
X58523Y-46888D01*
X58488Y-47061D01*
X58488Y-47780D01*
X58488Y-47970D01*
X58482Y-47972D01*
X58412Y-48043D01*
X58374Y-48135D01*
X58373Y-48234D01*
X58373Y-48864D01*
X58411Y-48956D01*
X58482Y-49026D01*
X58574Y-49064D01*
X58673Y-49065D01*
X59303Y-49065D01*
X59395Y-49027D01*
X59465Y-48956D01*
X59503Y-48864D01*
X59504Y-48765D01*
X59504Y-48135D01*
X59466Y-48043D01*
X59395Y-47973D01*
X59388Y-47970D01*
X59388Y-47780D01*
X59388Y-47247D01*
X60418Y-46218D01*
X60418Y-46218D01*
X60418Y-46218D01*
X60515Y-46072D01*
X60515Y-46072D01*
X60549Y-45900D01*
X60550Y-45900D01*
X60550Y-45285D01*
X60554Y-45297D01*
X60702Y-45444D01*
X60895Y-45524D01*
X61103Y-45525D01*
X61297Y-45445D01*
X61444Y-45297D01*
X61524Y-45104D01*
X61525Y-44896D01*
X61525Y-41896D01*
X61445Y-41703D01*
X61297Y-41555D01*
X61104Y-41475D01*
X60896Y-41474D01*
X60703Y-41554D01*
X60555Y-41702D01*
X60475Y-41895D01*
X60474Y-42103D01*
X60554Y-42297D01*
X60702Y-42444D01*
X60895Y-42524D01*
X61103Y-42525D01*
X61297Y-42445D01*
X61444Y-42297D01*
X61524Y-42104D01*
X61525Y-41896D01*
X61525Y-44896D01*
X61445Y-44703D01*
X61297Y-44555D01*
X61104Y-44475D01*
X60896Y-44474D01*
X60703Y-44554D01*
X60555Y-44702D01*
X60550Y-44714D01*
X60550Y-43700D01*
X60515Y-43527D01*
X60418Y-43381D01*
X59700Y-42663D01*
X59700Y-42285D01*
X59774Y-42104D01*
X59775Y-41896D01*
X59695Y-41703D01*
X59547Y-41555D01*
X59525Y-41546D01*
X59780Y-41291D01*
X61733Y-41291D01*
X61867Y-41264D01*
X61867Y-41264D01*
X61980Y-41188D01*
X64991Y-38178D01*
X66255Y-38178D01*
X66389Y-38151D01*
X66389Y-38151D01*
X66502Y-38075D01*
X68247Y-36331D01*
X68323Y-36217D01*
X68350Y-36083D01*
X68350Y-30392D01*
X68444Y-30297D01*
X68500Y-30164D01*
X68554Y-30297D01*
X68650Y-30392D01*
X68650Y-35974D01*
X65502Y-39121D01*
X65426Y-39235D01*
X65399Y-39369D01*
X65399Y-39493D01*
X65354Y-39475D01*
X65146Y-39474D01*
X64953Y-39554D01*
X64805Y-39702D01*
X64749Y-39835D01*
X64695Y-39703D01*
X64547Y-39555D01*
X64354Y-39475D01*
X64146Y-39474D01*
X63953Y-39554D01*
X63805Y-39702D01*
X63725Y-39895D01*
X63724Y-40103D01*
X63804Y-40297D01*
X63952Y-40444D01*
X64145Y-40524D01*
X64353Y-40525D01*
X64547Y-40445D01*
X64694Y-40297D01*
X64750Y-40164D01*
X64804Y-40297D01*
X64952Y-40444D01*
X65145Y-40524D01*
X65339Y-40525D01*
X64376Y-41488D01*
X64300Y-41602D01*
X64273Y-41735D01*
X64273Y-45481D01*
X64025Y-45729D01*
X64025Y-44396D01*
X64025Y-42396D01*
X63945Y-42203D01*
X63797Y-42055D01*
X63604Y-41975D01*
X63396Y-41974D01*
X63203Y-42054D01*
X63055Y-42202D01*
X62975Y-42395D01*
X62974Y-42603D01*
X63054Y-42797D01*
X63202Y-42944D01*
X63395Y-43024D01*
X63603Y-43025D01*
X63797Y-42945D01*
X63944Y-42797D01*
X64024Y-42604D01*
X64025Y-42396D01*
X64025Y-44396D01*
X63945Y-44203D01*
X63797Y-44055D01*
X63604Y-43975D01*
X63396Y-43974D01*
X63203Y-44054D01*
X63055Y-44202D01*
X62975Y-44395D01*
X62974Y-44603D01*
X63054Y-44797D01*
X63202Y-44944D01*
X63395Y-45024D01*
X63603Y-45025D01*
X63797Y-44945D01*
X63944Y-44797D01*
X64024Y-44604D01*
X64025Y-44396D01*
X64025Y-45729D01*
X61834Y-47920D01*
X61635Y-47919D01*
X61421Y-48008D01*
X61302Y-48126D01*
X61212Y-48108D01*
X61141Y-48179D01*
X61141Y-48037D01*
X61116Y-47911D01*
X60862Y-47815D01*
X60592Y-47824D01*
X60383Y-47911D01*
X60358Y-48037D01*
X60750Y-48429D01*
X61141Y-48037D01*
X61141Y-48179D01*
X60820Y-48500D01*
X61212Y-48891D01*
X61303Y-48873D01*
X61421Y-48991D01*
X61634Y-49079D01*
X61864Y-49080D01*
X62078Y-48991D01*
X62241Y-48828D01*
X62329Y-48615D01*
X62330Y-48414D01*
X64871Y-45873D01*
X64947Y-45760D01*
X64973Y-45626D01*
X64973Y-45453D01*
X65145Y-45524D01*
X65353Y-45525D01*
X65547Y-45445D01*
X65650Y-45342D01*
X65650Y-46113D01*
X64620Y-47142D01*
X64523Y-47288D01*
X64488Y-47461D01*
X64488Y-47970D01*
X64482Y-47972D01*
X64412Y-48043D01*
X64374Y-48135D01*
X64373Y-48234D01*
X64373Y-48864D01*
X64411Y-48956D01*
X64482Y-49026D01*
X64574Y-49064D01*
X64673Y-49065D01*
X65303Y-49065D01*
X65395Y-49027D01*
X65465Y-48956D01*
X65503Y-48864D01*
X65504Y-48765D01*
X65504Y-48135D01*
X65466Y-48043D01*
X65395Y-47973D01*
X65388Y-47970D01*
X65388Y-47647D01*
X66418Y-46618D01*
X66418Y-46618D01*
X66418Y-46618D01*
X66515Y-46472D01*
X66515Y-46472D01*
X66549Y-46300D01*
X66550Y-46300D01*
X66550Y-45285D01*
X66554Y-45297D01*
X66702Y-45444D01*
X66895Y-45524D01*
X67103Y-45525D01*
X67297Y-45445D01*
X67400Y-45342D01*
X67400Y-48029D01*
X67302Y-48126D01*
X67212Y-48108D01*
X67141Y-48179D01*
X67141Y-48037D01*
X67116Y-47911D01*
X66862Y-47815D01*
X66592Y-47824D01*
X66383Y-47911D01*
X66358Y-48037D01*
X66750Y-48429D01*
X67141Y-48037D01*
X67141Y-48179D01*
X66820Y-48500D01*
X67212Y-48891D01*
X67303Y-48873D01*
X67421Y-48991D01*
X67634Y-49079D01*
X67864Y-49080D01*
X68078Y-48991D01*
X68241Y-48828D01*
X68329Y-48615D01*
X68330Y-48385D01*
X68241Y-48171D01*
X68100Y-48029D01*
X68100Y-38394D01*
X70247Y-36247D01*
X70323Y-36133D01*
X70350Y-36000D01*
X70350Y-35119D01*
X71788Y-36558D01*
X71763Y-36583D01*
X71732Y-36657D01*
X71672Y-36648D01*
X71601Y-36718D01*
X71601Y-36577D01*
X71582Y-36456D01*
X71349Y-36370D01*
X71101Y-36380D01*
X70917Y-36456D01*
X70898Y-36577D01*
X71250Y-36929D01*
X71601Y-36577D01*
X71601Y-36718D01*
X71320Y-37000D01*
X71672Y-37351D01*
X71732Y-37342D01*
X71762Y-37416D01*
X71833Y-37486D01*
X71925Y-37524D01*
X72024Y-37525D01*
X72574Y-37525D01*
X72666Y-37487D01*
X72736Y-37416D01*
X72774Y-37324D01*
X72775Y-37225D01*
X72775Y-36675D01*
X72737Y-36583D01*
X72666Y-36513D01*
X72591Y-36481D01*
X72573Y-36390D01*
X72497Y-36277D01*
X70850Y-34629D01*
X70850Y-30506D01*
X70895Y-30524D01*
X71030Y-30525D01*
X73400Y-32894D01*
X73400Y-41657D01*
X73297Y-41555D01*
X73104Y-41475D01*
X72896Y-41474D01*
X72775Y-41524D01*
X72775Y-39896D01*
X72695Y-39703D01*
X72547Y-39555D01*
X72354Y-39475D01*
X72146Y-39474D01*
X71953Y-39554D01*
X71805Y-39702D01*
X71749Y-39835D01*
X71695Y-39703D01*
X71601Y-39609D01*
X71601Y-37422D01*
X71250Y-37070D01*
X71179Y-37141D01*
X71179Y-37000D01*
X70827Y-36648D01*
X70706Y-36667D01*
X70693Y-36701D01*
X70547Y-36555D01*
X70354Y-36475D01*
X70146Y-36474D01*
X69953Y-36554D01*
X69805Y-36702D01*
X69725Y-36895D01*
X69724Y-37103D01*
X69804Y-37297D01*
X69952Y-37444D01*
X70145Y-37524D01*
X70353Y-37525D01*
X70547Y-37445D01*
X70692Y-37299D01*
X70706Y-37332D01*
X70827Y-37351D01*
X71179Y-37000D01*
X71179Y-37141D01*
X70898Y-37422D01*
X70917Y-37543D01*
X71150Y-37629D01*
X71398Y-37619D01*
X71582Y-37543D01*
X71601Y-37422D01*
X71601Y-39609D01*
X71547Y-39555D01*
X71354Y-39475D01*
X71146Y-39474D01*
X70953Y-39554D01*
X70805Y-39702D01*
X70749Y-39835D01*
X70695Y-39703D01*
X70547Y-39555D01*
X70354Y-39475D01*
X70146Y-39474D01*
X69953Y-39554D01*
X69805Y-39702D01*
X69725Y-39895D01*
X69724Y-40103D01*
X69804Y-40297D01*
X69952Y-40444D01*
X70145Y-40524D01*
X70353Y-40525D01*
X70547Y-40445D01*
X70694Y-40297D01*
X70750Y-40164D01*
X70804Y-40297D01*
X70952Y-40444D01*
X71145Y-40524D01*
X71353Y-40525D01*
X71547Y-40445D01*
X71694Y-40297D01*
X71750Y-40164D01*
X71804Y-40297D01*
X71952Y-40444D01*
X72145Y-40524D01*
X72353Y-40525D01*
X72547Y-40445D01*
X72694Y-40297D01*
X72774Y-40104D01*
X72775Y-39896D01*
X72775Y-41524D01*
X72703Y-41554D01*
X72555Y-41702D01*
X72475Y-41895D01*
X72474Y-42103D01*
X72554Y-42297D01*
X72702Y-42444D01*
X72895Y-42524D01*
X73103Y-42525D01*
X73297Y-42445D01*
X73400Y-42342D01*
X73400Y-44657D01*
X73297Y-44555D01*
X73104Y-44475D01*
X72896Y-44474D01*
X72703Y-44554D01*
X72555Y-44702D01*
X72550Y-44714D01*
X72550Y-43600D01*
X72515Y-43427D01*
X72418Y-43281D01*
X71700Y-42563D01*
X71700Y-42285D01*
X71774Y-42104D01*
X71775Y-41896D01*
X71695Y-41703D01*
X71547Y-41555D01*
X71354Y-41475D01*
X71146Y-41474D01*
X70953Y-41554D01*
X70805Y-41702D01*
X70725Y-41895D01*
X70724Y-42103D01*
X70800Y-42285D01*
X70800Y-42750D01*
X70834Y-42922D01*
X70931Y-43068D01*
X71650Y-43786D01*
X71650Y-44657D01*
X71547Y-44555D01*
X71354Y-44475D01*
X71146Y-44474D01*
X70953Y-44554D01*
X70805Y-44702D01*
X70725Y-44895D01*
X70724Y-45103D01*
X70804Y-45297D01*
X70952Y-45444D01*
X71145Y-45524D01*
X71353Y-45525D01*
X71547Y-45445D01*
X71650Y-45342D01*
X71650Y-45513D01*
X70620Y-46542D01*
X70523Y-46688D01*
X70488Y-46861D01*
X70488Y-47680D01*
X70488Y-47970D01*
X70482Y-47972D01*
X70412Y-48043D01*
X70374Y-48135D01*
X70373Y-48234D01*
X70373Y-48864D01*
X70411Y-48956D01*
X70482Y-49026D01*
X70574Y-49064D01*
X70673Y-49065D01*
X71303Y-49065D01*
X71395Y-49027D01*
X71465Y-48956D01*
X71503Y-48864D01*
X71504Y-48765D01*
X71504Y-48135D01*
X71466Y-48043D01*
X71395Y-47973D01*
X71388Y-47970D01*
X71388Y-47680D01*
X71388Y-47047D01*
X72418Y-46018D01*
X72418Y-46018D01*
X72418Y-46018D01*
X72515Y-45872D01*
X72515Y-45872D01*
X72549Y-45700D01*
X72550Y-45700D01*
X72550Y-45285D01*
X72554Y-45297D01*
X72702Y-45444D01*
X72895Y-45524D01*
X73103Y-45525D01*
X73297Y-45445D01*
X73400Y-45342D01*
X73400Y-48029D01*
X73302Y-48126D01*
X73212Y-48108D01*
X73141Y-48179D01*
X73141Y-48037D01*
X73116Y-47911D01*
X72862Y-47815D01*
X72592Y-47824D01*
X72383Y-47911D01*
X72358Y-48037D01*
X72750Y-48429D01*
X73141Y-48037D01*
X73141Y-48179D01*
X72820Y-48500D01*
X73212Y-48891D01*
X73303Y-48873D01*
X73421Y-48991D01*
X73634Y-49079D01*
X73864Y-49080D01*
X74078Y-48991D01*
X74241Y-48828D01*
X74329Y-48615D01*
X74330Y-48385D01*
X74241Y-48171D01*
X74100Y-48029D01*
X74100Y-32750D01*
X74099Y-32749D01*
X74100Y-32749D01*
X74073Y-32616D01*
X73997Y-32502D01*
X73997Y-32502D01*
X72019Y-30525D01*
X72030Y-30525D01*
X76400Y-34894D01*
X76400Y-36493D01*
X76354Y-36475D01*
X76146Y-36474D01*
X75953Y-36554D01*
X75805Y-36702D01*
X75725Y-36895D01*
X75724Y-37103D01*
X75804Y-37297D01*
X75952Y-37444D01*
X76145Y-37524D01*
X76353Y-37525D01*
X76400Y-37506D01*
X76400Y-39493D01*
X76354Y-39475D01*
X76146Y-39474D01*
X75953Y-39554D01*
X75805Y-39702D01*
X75725Y-39895D01*
X75724Y-40103D01*
X75804Y-40297D01*
X75952Y-40444D01*
X76145Y-40524D01*
X76353Y-40525D01*
X76400Y-40506D01*
X76400Y-40609D01*
X76426Y-40743D01*
X76502Y-40857D01*
X77127Y-41482D01*
X76953Y-41554D01*
X76805Y-41702D01*
X76725Y-41895D01*
X76724Y-42103D01*
X76800Y-42285D01*
X76800Y-42550D01*
X76834Y-42722D01*
X76931Y-42868D01*
X77650Y-43586D01*
X77650Y-44657D01*
X77547Y-44555D01*
X77354Y-44475D01*
X77146Y-44474D01*
X76953Y-44554D01*
X76805Y-44702D01*
X76725Y-44895D01*
X76724Y-45103D01*
X76804Y-45297D01*
X76952Y-45444D01*
X77145Y-45524D01*
X77353Y-45525D01*
X77547Y-45445D01*
X77650Y-45342D01*
X77650Y-45913D01*
X76620Y-46942D01*
X76523Y-47088D01*
X76488Y-47261D01*
X76488Y-47880D01*
X76488Y-47970D01*
X76482Y-47972D01*
X76412Y-48043D01*
X76374Y-48135D01*
X76373Y-48234D01*
X76373Y-48864D01*
X76411Y-48956D01*
X76482Y-49026D01*
X76574Y-49064D01*
X76673Y-49065D01*
X77303Y-49065D01*
X77395Y-49027D01*
X77465Y-48956D01*
X77503Y-48864D01*
X77504Y-48765D01*
X77504Y-48135D01*
X77466Y-48043D01*
X77395Y-47973D01*
X77388Y-47970D01*
X77388Y-47880D01*
X77388Y-47447D01*
X78418Y-46418D01*
X78418Y-46418D01*
X78418Y-46418D01*
X78515Y-46272D01*
X78515Y-46272D01*
X78549Y-46100D01*
X78550Y-46100D01*
X78550Y-45285D01*
X78554Y-45297D01*
X78702Y-45444D01*
X78895Y-45524D01*
X79103Y-45525D01*
X79297Y-45445D01*
X79400Y-45342D01*
X79400Y-48029D01*
X79302Y-48126D01*
X79212Y-48108D01*
X79141Y-48179D01*
X79141Y-48037D01*
X79116Y-47911D01*
X78862Y-47815D01*
X78592Y-47824D01*
X78383Y-47911D01*
X78358Y-48037D01*
X78750Y-48429D01*
X79141Y-48037D01*
X79141Y-48179D01*
X78820Y-48500D01*
X79212Y-48891D01*
X79303Y-48873D01*
X79421Y-48991D01*
X79634Y-49079D01*
X79864Y-49080D01*
X80078Y-48991D01*
X80241Y-48828D01*
X80329Y-48615D01*
X80330Y-48385D01*
X80241Y-48171D01*
X80100Y-48029D01*
X80100Y-43609D01*
X80073Y-43475D01*
X79997Y-43362D01*
X79143Y-42508D01*
X79297Y-42445D01*
X79444Y-42297D01*
X79524Y-42104D01*
X79525Y-41896D01*
X79445Y-41703D01*
X79297Y-41555D01*
X79104Y-41475D01*
X78896Y-41474D01*
X78703Y-41554D01*
X78555Y-41702D01*
X78491Y-41856D01*
X77160Y-40524D01*
X77353Y-40525D01*
X77547Y-40445D01*
X77694Y-40297D01*
X77750Y-40164D01*
X77804Y-40297D01*
X77952Y-40444D01*
X78145Y-40524D01*
X78353Y-40525D01*
X78547Y-40445D01*
X78694Y-40297D01*
X78774Y-40104D01*
X78775Y-39896D01*
X78775Y-39895D01*
X78775Y-37225D01*
X78775Y-36675D01*
X78737Y-36583D01*
X78666Y-36513D01*
X78574Y-36475D01*
X78475Y-36474D01*
X77925Y-36474D01*
X77833Y-36512D01*
X77795Y-36551D01*
X77795Y-22494D01*
X77598Y-22017D01*
X77596Y-22014D01*
X77406Y-21914D01*
X77335Y-21985D01*
X77335Y-21843D01*
X77235Y-21653D01*
X76759Y-21455D01*
X76244Y-21454D01*
X75767Y-21651D01*
X75764Y-21653D01*
X75664Y-21843D01*
X76500Y-22679D01*
X77335Y-21843D01*
X77335Y-21985D01*
X76570Y-22750D01*
X77406Y-23585D01*
X77596Y-23485D01*
X77794Y-23009D01*
X77795Y-22494D01*
X77795Y-36551D01*
X77763Y-36583D01*
X77732Y-36657D01*
X77695Y-36651D01*
X77695Y-26125D01*
X77695Y-24235D01*
X77657Y-24143D01*
X77586Y-24073D01*
X77494Y-24035D01*
X77395Y-24034D01*
X76780Y-24034D01*
X77232Y-23848D01*
X77235Y-23846D01*
X77335Y-23656D01*
X76500Y-22820D01*
X76494Y-22826D01*
X76423Y-22755D01*
X76429Y-22750D01*
X75593Y-21914D01*
X75403Y-22014D01*
X75205Y-22490D01*
X75205Y-22527D01*
X74790Y-22355D01*
X74275Y-22354D01*
X73798Y-22551D01*
X73795Y-22553D01*
X73695Y-22743D01*
X74531Y-23579D01*
X74536Y-23573D01*
X74607Y-23644D01*
X74601Y-23650D01*
X74607Y-23655D01*
X74536Y-23726D01*
X74531Y-23720D01*
X74460Y-23791D01*
X74460Y-23650D01*
X73624Y-22814D01*
X73434Y-22914D01*
X73236Y-23390D01*
X73235Y-23905D01*
X73432Y-24382D01*
X73434Y-24385D01*
X73624Y-24485D01*
X74460Y-23650D01*
X74460Y-23791D01*
X73695Y-24556D01*
X73795Y-24746D01*
X74271Y-24944D01*
X74786Y-24945D01*
X75263Y-24748D01*
X75266Y-24746D01*
X75304Y-24673D01*
X75304Y-26224D01*
X75342Y-26316D01*
X75413Y-26386D01*
X75505Y-26424D01*
X75604Y-26425D01*
X77494Y-26425D01*
X77586Y-26387D01*
X77656Y-26316D01*
X77694Y-26224D01*
X77695Y-26125D01*
X77695Y-36651D01*
X77672Y-36648D01*
X77320Y-37000D01*
X77672Y-37351D01*
X77732Y-37342D01*
X77762Y-37416D01*
X77833Y-37486D01*
X77925Y-37524D01*
X78024Y-37525D01*
X78574Y-37525D01*
X78666Y-37487D01*
X78736Y-37416D01*
X78774Y-37324D01*
X78775Y-37225D01*
X78775Y-39895D01*
X78695Y-39703D01*
X78547Y-39555D01*
X78354Y-39475D01*
X78146Y-39474D01*
X77953Y-39554D01*
X77805Y-39702D01*
X77749Y-39835D01*
X77695Y-39703D01*
X77547Y-39555D01*
X77354Y-39475D01*
X77146Y-39474D01*
X77100Y-39493D01*
X77100Y-37610D01*
X77150Y-37629D01*
X77398Y-37619D01*
X77582Y-37543D01*
X77601Y-37422D01*
X77250Y-37070D01*
X77244Y-37076D01*
X77173Y-37005D01*
X77179Y-37000D01*
X77173Y-36994D01*
X77244Y-36923D01*
X77250Y-36929D01*
X77601Y-36577D01*
X77582Y-36456D01*
X77349Y-36370D01*
X77101Y-36380D01*
X77100Y-36380D01*
X77100Y-34750D01*
X77073Y-34616D01*
X76997Y-34502D01*
X76997Y-34502D01*
X72524Y-30029D01*
X72525Y-29896D01*
X72525Y-29895D01*
X72525Y-27225D01*
X72525Y-26675D01*
X72487Y-26583D01*
X72416Y-26513D01*
X72324Y-26475D01*
X72225Y-26474D01*
X71675Y-26474D01*
X71583Y-26512D01*
X71513Y-26583D01*
X71475Y-26675D01*
X71474Y-26774D01*
X71474Y-26774D01*
X71445Y-26703D01*
X71297Y-26555D01*
X71104Y-26475D01*
X70896Y-26474D01*
X70703Y-26554D01*
X70555Y-26702D01*
X70499Y-26835D01*
X70445Y-26703D01*
X70297Y-26555D01*
X70104Y-26475D01*
X69896Y-26474D01*
X69703Y-26554D01*
X69555Y-26702D01*
X69499Y-26835D01*
X69445Y-26703D01*
X69297Y-26555D01*
X69104Y-26475D01*
X68896Y-26474D01*
X68703Y-26554D01*
X68555Y-26702D01*
X68499Y-26835D01*
X68445Y-26703D01*
X68297Y-26555D01*
X68104Y-26475D01*
X67896Y-26474D01*
X67703Y-26554D01*
X67555Y-26702D01*
X67499Y-26835D01*
X67445Y-26703D01*
X67297Y-26555D01*
X67104Y-26475D01*
X66896Y-26474D01*
X66703Y-26554D01*
X66555Y-26702D01*
X66499Y-26835D01*
X66445Y-26703D01*
X66297Y-26555D01*
X66104Y-26475D01*
X65896Y-26474D01*
X65703Y-26554D01*
X65555Y-26702D01*
X65499Y-26835D01*
X65445Y-26703D01*
X65297Y-26555D01*
X65104Y-26475D01*
X64896Y-26474D01*
X64703Y-26554D01*
X64555Y-26702D01*
X64475Y-26895D01*
X64474Y-27103D01*
X64554Y-27297D01*
X64702Y-27444D01*
X64895Y-27524D01*
X65103Y-27525D01*
X65297Y-27445D01*
X65444Y-27297D01*
X65500Y-27164D01*
X65554Y-27297D01*
X65702Y-27444D01*
X65895Y-27524D01*
X66103Y-27525D01*
X66297Y-27445D01*
X66444Y-27297D01*
X66500Y-27164D01*
X66554Y-27297D01*
X66702Y-27444D01*
X66895Y-27524D01*
X67103Y-27525D01*
X67297Y-27445D01*
X67444Y-27297D01*
X67500Y-27164D01*
X67554Y-27297D01*
X67702Y-27444D01*
X67895Y-27524D01*
X68103Y-27525D01*
X68297Y-27445D01*
X68444Y-27297D01*
X68500Y-27164D01*
X68554Y-27297D01*
X68702Y-27444D01*
X68895Y-27524D01*
X69103Y-27525D01*
X69297Y-27445D01*
X69444Y-27297D01*
X69500Y-27164D01*
X69554Y-27297D01*
X69702Y-27444D01*
X69895Y-27524D01*
X70103Y-27525D01*
X70297Y-27445D01*
X70444Y-27297D01*
X70500Y-27164D01*
X70554Y-27297D01*
X70702Y-27444D01*
X70895Y-27524D01*
X71103Y-27525D01*
X71297Y-27445D01*
X71444Y-27297D01*
X71474Y-27225D01*
X71474Y-27324D01*
X71512Y-27416D01*
X71583Y-27486D01*
X71675Y-27524D01*
X71774Y-27525D01*
X72324Y-27525D01*
X72416Y-27487D01*
X72486Y-27416D01*
X72524Y-27324D01*
X72525Y-27225D01*
X72525Y-29895D01*
X72445Y-29703D01*
X72297Y-29555D01*
X72104Y-29475D01*
X71896Y-29474D01*
X71703Y-29554D01*
X71555Y-29702D01*
X71499Y-29835D01*
X71445Y-29703D01*
X71297Y-29555D01*
X71104Y-29475D01*
X70896Y-29474D01*
X70717Y-29548D01*
X70445Y-29277D01*
X70332Y-29201D01*
X70198Y-29174D01*
X65787Y-29174D01*
X65653Y-29201D01*
X65540Y-29277D01*
X65272Y-29544D01*
X65104Y-29475D01*
X64969Y-29474D01*
X64835Y-29341D01*
X64722Y-29265D01*
X64588Y-29238D01*
X55740Y-29238D01*
X55606Y-29265D01*
X55492Y-29341D01*
X55492Y-29341D01*
X55492Y-29341D01*
X55215Y-29618D01*
X55039Y-29545D01*
X54831Y-29544D01*
X54638Y-29624D01*
X54490Y-29772D01*
X54473Y-29811D01*
X54457Y-29822D01*
X54417Y-29862D01*
X54380Y-29773D01*
X54232Y-29625D01*
X54039Y-29545D01*
X53831Y-29544D01*
X53638Y-29624D01*
X53490Y-29772D01*
X53435Y-29905D01*
X53380Y-29773D01*
X53232Y-29625D01*
X53039Y-29545D01*
X52949Y-29545D01*
X53259Y-29235D01*
X59842Y-29235D01*
X59976Y-29208D01*
X59976Y-29208D01*
X60090Y-29132D01*
X65747Y-23475D01*
X65823Y-23362D01*
X65850Y-23228D01*
X65850Y-21927D01*
X65949Y-21827D01*
X65949Y-21849D01*
X65987Y-21941D01*
X66058Y-22011D01*
X66150Y-22049D01*
X66249Y-22050D01*
X66849Y-22050D01*
X66941Y-22012D01*
X67011Y-21941D01*
X67049Y-21849D01*
X67050Y-21750D01*
X67050Y-21150D01*
X67012Y-21058D01*
X66941Y-20988D01*
X66849Y-20950D01*
X66750Y-20949D01*
X66444Y-20949D01*
X66243Y-20748D01*
X66129Y-20672D01*
X65995Y-20645D01*
X64277Y-20645D01*
X64143Y-20672D01*
X64029Y-20748D01*
X61378Y-23400D01*
X61302Y-23513D01*
X61275Y-23647D01*
X61275Y-26500D01*
X60909Y-26866D01*
X60909Y-23335D01*
X61997Y-22247D01*
X62073Y-22134D01*
X62073Y-22134D01*
X62090Y-22050D01*
X62099Y-22050D01*
X62191Y-22012D01*
X62261Y-21941D01*
X62299Y-21849D01*
X62300Y-21750D01*
X62300Y-21150D01*
X62262Y-21058D01*
X62191Y-20988D01*
X62099Y-20950D01*
X62000Y-20949D01*
X61400Y-20949D01*
X61308Y-20987D01*
X61238Y-21058D01*
X61200Y-21150D01*
X61200Y-21172D01*
X61061Y-21034D01*
X60859Y-20950D01*
X60641Y-20949D01*
X60438Y-21033D01*
X60315Y-21156D01*
X60314Y-21152D01*
X60190Y-21130D01*
X60119Y-21200D01*
X60119Y-21059D01*
X60097Y-20935D01*
X59855Y-20845D01*
X59597Y-20855D01*
X59402Y-20935D01*
X59380Y-21059D01*
X59750Y-21429D01*
X60119Y-21059D01*
X60119Y-21200D01*
X59820Y-21500D01*
X60190Y-21869D01*
X60314Y-21847D01*
X60315Y-21843D01*
X60438Y-21965D01*
X60640Y-22049D01*
X60858Y-22050D01*
X61061Y-21966D01*
X61199Y-21827D01*
X61199Y-21849D01*
X61237Y-21941D01*
X61275Y-21979D01*
X60312Y-22942D01*
X60236Y-23056D01*
X60209Y-23190D01*
X60209Y-26544D01*
X60160Y-26544D01*
X60119Y-26544D01*
X60119Y-21940D01*
X59750Y-21570D01*
X59380Y-21940D01*
X59402Y-22064D01*
X59644Y-22154D01*
X59902Y-22144D01*
X60097Y-22064D01*
X60119Y-21940D01*
X60119Y-26544D01*
X59610Y-26544D01*
X59587Y-26554D01*
X56650Y-23616D01*
X56650Y-21730D01*
X56650Y-21269D01*
X56649Y-21130D01*
X56596Y-21001D01*
X56498Y-20903D01*
X56369Y-20849D01*
X56137Y-20850D01*
X56050Y-20937D01*
X56050Y-21450D01*
X56562Y-21450D01*
X56650Y-21362D01*
X56650Y-21269D01*
X56650Y-21730D01*
X56650Y-21637D01*
X56562Y-21550D01*
X56050Y-21550D01*
X56050Y-22062D01*
X56137Y-22150D01*
X56369Y-22150D01*
X56498Y-22096D01*
X56596Y-21998D01*
X56649Y-21869D01*
X56650Y-21730D01*
X56650Y-23616D01*
X56285Y-23252D01*
X56172Y-23176D01*
X56038Y-23150D01*
X47991Y-23150D01*
X47841Y-22999D01*
X48004Y-22837D01*
X48094Y-22618D01*
X48095Y-22382D01*
X48082Y-22351D01*
X53498Y-22351D01*
X53632Y-22325D01*
X53632Y-22325D01*
X53745Y-22249D01*
X53945Y-22049D01*
X54108Y-22050D01*
X54311Y-21966D01*
X54465Y-21811D01*
X54499Y-21730D01*
X54533Y-21811D01*
X54688Y-21965D01*
X54890Y-22049D01*
X55108Y-22050D01*
X55311Y-21966D01*
X55367Y-21910D01*
X55403Y-21998D01*
X55502Y-22096D01*
X55630Y-22150D01*
X55862Y-22150D01*
X55950Y-22062D01*
X55950Y-21550D01*
X55942Y-21550D01*
X55942Y-21450D01*
X55950Y-21450D01*
X55950Y-20937D01*
X55862Y-20850D01*
X55630Y-20849D01*
X55502Y-20903D01*
X55403Y-21001D01*
X55367Y-21089D01*
X55311Y-21034D01*
X55109Y-20950D01*
X54891Y-20949D01*
X54688Y-21033D01*
X54534Y-21188D01*
X54500Y-21269D01*
X54466Y-21188D01*
X54311Y-21034D01*
X54109Y-20950D01*
X53891Y-20949D01*
X53688Y-21033D01*
X53534Y-21188D01*
X53500Y-21269D01*
X53466Y-21188D01*
X53311Y-21034D01*
X53109Y-20950D01*
X52891Y-20949D01*
X52688Y-21033D01*
X52534Y-21188D01*
X52500Y-21269D01*
X52466Y-21188D01*
X52311Y-21034D01*
X52109Y-20950D01*
X51891Y-20949D01*
X51688Y-21033D01*
X51534Y-21188D01*
X51450Y-21390D01*
X51449Y-21608D01*
X51467Y-21651D01*
X48146Y-21651D01*
X48094Y-21599D01*
X48095Y-21382D01*
X48004Y-21163D01*
X47841Y-20999D01*
X48004Y-20837D01*
X48094Y-20618D01*
X48095Y-20382D01*
X48059Y-20295D01*
X57050Y-20295D01*
X58200Y-21445D01*
X58199Y-21608D01*
X58283Y-21811D01*
X58438Y-21965D01*
X58640Y-22049D01*
X58858Y-22050D01*
X59061Y-21966D01*
X59184Y-21843D01*
X59185Y-21847D01*
X59309Y-21869D01*
X59679Y-21500D01*
X59309Y-21130D01*
X59185Y-21152D01*
X59184Y-21156D01*
X59061Y-21034D01*
X58859Y-20950D01*
X58694Y-20949D01*
X57569Y-19825D01*
X81152Y-19825D01*
X80987Y-19989D01*
X80850Y-20320D01*
X80849Y-20678D01*
X80986Y-21009D01*
X81239Y-21262D01*
X81570Y-21399D01*
X81928Y-21400D01*
X82259Y-21263D01*
X82425Y-21097D01*
X82425Y-48402D01*
M02*
