M48
;DRILL file {Pcbnew (2013-jul-07)-stable} date Mon 06 Apr 2015 09:25:59 PM PDT
;FORMAT={-:-/ absolute / inch / decimal}
FMAT,2
INCH,TZ
T1C0.025
T2C0.032
T3C0.039
T4C0.039
T5C0.040
T6C0.110
T7C0.120
T8C0.130
%
G90
G05
M72
T1
X3.3592Y-2.7609
X4.552Y-3.3123
X4.6927Y-3.6078
X6.0026Y-2.7712
T2
X3.25Y-3.075
X3.35Y-4.25
X3.35Y-4.45
X3.425Y-3.7
X3.425Y-4.
X3.525Y-3.7
X3.525Y-4.
X3.525Y-4.2
X3.525Y-4.5
X3.527Y-3.2875
X3.625Y-3.7
X3.625Y-4.
X3.65Y-3.075
X3.675Y-4.85
X3.7Y-4.2
X3.7Y-4.5
X3.727Y-3.2875
X3.775Y-4.85
X3.95Y-4.25
X3.95Y-4.45
X4.025Y-3.7
X4.025Y-4.
X4.125Y-3.7
X4.125Y-4.
X4.125Y-4.2
X4.125Y-4.5
X4.225Y-3.7
X4.225Y-4.
X4.275Y-4.85
X4.3Y-4.2
X4.3Y-4.5
X4.375Y-4.85
X4.55Y-4.25
X4.55Y-4.45
X4.625Y-3.7
X4.625Y-4.
X4.725Y-3.7
X4.725Y-4.
X4.725Y-4.2
X4.725Y-4.5
X4.825Y-3.7
X4.825Y-4.
X4.875Y-4.85
X4.9Y-4.2
X4.9Y-4.5
X4.975Y-4.85
X5.15Y-4.25
X5.15Y-4.45
X5.225Y-3.7
X5.225Y-4.
X5.2935Y-2.707
X5.2935Y-3.007
X5.325Y-3.7
X5.325Y-4.
X5.325Y-4.2
X5.325Y-4.5
X5.3935Y-2.707
X5.3935Y-3.007
X5.425Y-3.7
X5.425Y-4.
X5.475Y-4.85
X5.4935Y-2.707
X5.4935Y-3.007
X5.5Y-4.2
X5.5Y-4.5
X5.575Y-4.85
X5.5935Y-2.707
X5.5935Y-3.007
X5.6935Y-2.707
X5.6935Y-3.007
X5.75Y-4.25
X5.75Y-4.45
X5.7935Y-2.707
X5.7935Y-3.007
X5.825Y-3.7
X5.825Y-4.
X5.8935Y-2.707
X5.8935Y-3.007
X5.925Y-3.7
X5.925Y-4.
X5.925Y-4.2
X5.925Y-4.5
X5.9935Y-2.707
X5.9935Y-3.007
X6.025Y-3.7
X6.025Y-4.
X6.075Y-4.85
X6.1Y-4.2
X6.1Y-4.5
X6.175Y-4.85
X6.35Y-4.25
X6.35Y-4.45
X6.425Y-3.7
X6.425Y-4.
X6.5Y-2.7
X6.5Y-3.
X6.525Y-3.7
X6.525Y-4.
X6.525Y-4.2
X6.525Y-4.5
X6.6Y-2.7
X6.6Y-3.
X6.625Y-3.7
X6.625Y-4.
X6.675Y-4.85
X6.7Y-2.7
X6.7Y-3.
X6.7Y-4.2
X6.7Y-4.5
X6.775Y-4.85
X6.8Y-2.7
X6.8Y-3.
X6.9Y-2.7
X6.9Y-3.
X6.95Y-4.25
X6.95Y-4.45
X7.Y-2.7
X7.Y-3.
X7.025Y-3.7
X7.025Y-4.
X7.1Y-2.7
X7.1Y-3.
X7.125Y-3.7
X7.125Y-4.
X7.125Y-4.2
X7.125Y-4.5
X7.2Y-2.7
X7.2Y-3.
X7.225Y-3.7
X7.225Y-4.
X7.275Y-4.85
X7.3Y-4.2
X7.3Y-4.5
X7.375Y-4.85
X7.55Y-4.25
X7.55Y-4.45
X7.625Y-3.7
X7.625Y-4.
X7.725Y-3.7
X7.725Y-4.
X7.725Y-4.2
X7.725Y-4.5
X7.825Y-3.7
X7.825Y-4.
X7.875Y-4.85
X7.9Y-4.2
X7.9Y-4.5
X7.975Y-4.85
T3
X3.3975Y-2.26
X3.3975Y-2.36
X3.3975Y-2.46
X3.3975Y-2.56
X3.3975Y-2.66
X3.4975Y-2.26
X3.4975Y-2.36
X3.4975Y-2.46
X3.4975Y-2.56
X3.4975Y-2.66
X4.15Y-2.05
X4.15Y-2.15
X4.15Y-2.25
X4.15Y-2.35
X4.15Y-2.45
X4.15Y-2.55
X4.15Y-2.65
X4.15Y-2.75
X4.15Y-2.85
X4.15Y-2.95
X4.15Y-3.05
X4.15Y-3.15
X4.15Y-3.25
X4.15Y-3.35
X4.15Y-3.45
X4.75Y-2.05
X4.75Y-2.15
X4.75Y-2.25
X4.75Y-2.35
X4.75Y-2.45
X4.75Y-2.55
X4.75Y-2.65
X4.75Y-2.75
X4.75Y-2.85
X4.75Y-2.95
X4.75Y-3.05
X4.75Y-3.15
X4.75Y-3.25
X4.75Y-3.35
X4.75Y-3.45
T4
X3.3561Y-4.85
X3.4939Y-4.85
X3.9561Y-4.85
X4.0939Y-4.85
X4.5561Y-4.85
X4.6939Y-4.85
X5.1561Y-4.85
X5.2939Y-4.85
X5.7561Y-4.85
X5.8939Y-4.85
X6.3561Y-4.85
X6.4939Y-4.85
X6.9561Y-4.85
X7.0939Y-4.85
X7.5561Y-4.85
X7.6939Y-4.85
T5
X3.2335Y-3.2875
X3.3335Y-3.2875
X5.2Y-2.15
X5.3Y-2.15
X5.4Y-2.15
X5.5Y-2.15
X5.6Y-2.15
X5.875Y-2.15
X5.975Y-2.15
X6.075Y-2.15
X6.175Y-2.15
X6.45Y-2.15
X6.55Y-2.15
X6.65Y-2.15
T6
X7.4531Y-2.365
X7.65Y-2.275
T7
X3.075Y-2.05
X3.075Y-4.9
X8.175Y-2.05
X8.175Y-4.9
T8
X7.65Y-2.523
T0
M30
