G04 (created by PCBNEW (2013-jul-07)-stable) date Mon 06 Apr 2015 09:25:55 PM PDT*
%MOIN*%
G04 Gerber Fmt 3.4, Leading zero omitted, Abs format*
%FSLAX34Y34*%
G01*
G70*
G90*
G04 APERTURE LIST*
%ADD10C,0.00590551*%
%ADD11R,0.069X0.06*%
%ADD12C,0.069*%
%ADD13C,0.055*%
%ADD14R,0.055X0.055*%
%ADD15R,0.06X0.06*%
%ADD16C,0.06*%
%ADD17R,0.07X0.07*%
%ADD18C,0.07*%
%ADD19C,0.13*%
%ADD20R,0.063X0.063*%
%ADD21C,0.063*%
%ADD22C,0.189*%
%ADD23R,0.189X0.189*%
%ADD24C,0.066*%
%ADD25C,0.035*%
%ADD26C,0.02*%
%ADD27C,0.04*%
%ADD28C,0.01*%
G04 APERTURE END LIST*
G54D10*
G54D11*
X47500Y-34500D03*
G54D12*
X47500Y-33500D03*
X47500Y-32500D03*
X47500Y-31500D03*
X47500Y-30500D03*
X47500Y-29500D03*
X47500Y-28500D03*
X47500Y-27500D03*
X47500Y-26500D03*
X47500Y-25500D03*
X47500Y-24500D03*
X47500Y-23500D03*
X47500Y-22500D03*
X47500Y-21500D03*
X47500Y-20500D03*
X41500Y-20500D03*
X41500Y-21500D03*
X41500Y-22500D03*
X41500Y-23500D03*
X41500Y-24500D03*
X41500Y-25500D03*
X41500Y-26500D03*
X41500Y-27500D03*
X41500Y-28500D03*
X41500Y-29500D03*
X41500Y-30500D03*
X41500Y-31500D03*
X41500Y-32500D03*
X41500Y-33500D03*
X41500Y-34500D03*
G54D13*
X35270Y-32875D03*
X37270Y-32875D03*
G54D14*
X59935Y-27070D03*
G54D13*
X58935Y-27070D03*
X57935Y-27070D03*
X56935Y-27070D03*
X55935Y-27070D03*
X54935Y-27070D03*
X53935Y-27070D03*
X52935Y-27070D03*
X52935Y-30070D03*
X53935Y-30070D03*
X54935Y-30070D03*
X55935Y-30070D03*
X56935Y-30070D03*
X57935Y-30070D03*
X58935Y-30070D03*
X59935Y-30070D03*
G54D14*
X72000Y-27000D03*
G54D13*
X71000Y-27000D03*
X70000Y-27000D03*
X69000Y-27000D03*
X68000Y-27000D03*
X67000Y-27000D03*
X66000Y-27000D03*
X65000Y-27000D03*
X65000Y-30000D03*
X66000Y-30000D03*
X67000Y-30000D03*
X68000Y-30000D03*
X69000Y-30000D03*
X70000Y-30000D03*
X71000Y-30000D03*
X72000Y-30000D03*
G54D15*
X33335Y-32875D03*
G54D16*
X32335Y-32875D03*
G54D15*
X66500Y-21500D03*
G54D16*
X65500Y-21500D03*
X64500Y-21500D03*
G54D15*
X61750Y-21500D03*
G54D16*
X60750Y-21500D03*
X59750Y-21500D03*
X58750Y-21500D03*
X36500Y-30750D03*
X32500Y-30750D03*
G54D17*
X34975Y-26600D03*
G54D18*
X33975Y-26600D03*
X34975Y-25600D03*
X33975Y-25600D03*
X34975Y-24600D03*
X33975Y-24600D03*
X34975Y-23600D03*
X33975Y-23600D03*
X34975Y-22600D03*
X33975Y-22600D03*
G54D19*
X30750Y-49000D03*
X81750Y-20500D03*
X81750Y-49000D03*
X30750Y-20500D03*
G54D14*
X36250Y-37000D03*
G54D13*
X35250Y-37000D03*
X34250Y-37000D03*
X34250Y-40000D03*
X35250Y-40000D03*
X36250Y-40000D03*
G54D14*
X42250Y-37000D03*
G54D13*
X41250Y-37000D03*
X40250Y-37000D03*
X40250Y-40000D03*
X41250Y-40000D03*
X42250Y-40000D03*
G54D14*
X48250Y-37000D03*
G54D13*
X47250Y-37000D03*
X46250Y-37000D03*
X46250Y-40000D03*
X47250Y-40000D03*
X48250Y-40000D03*
G54D14*
X54250Y-37000D03*
G54D13*
X53250Y-37000D03*
X52250Y-37000D03*
X52250Y-40000D03*
X53250Y-40000D03*
X54250Y-40000D03*
G54D14*
X60250Y-37000D03*
G54D13*
X59250Y-37000D03*
X58250Y-37000D03*
X58250Y-40000D03*
X59250Y-40000D03*
X60250Y-40000D03*
G54D14*
X66250Y-37000D03*
G54D13*
X65250Y-37000D03*
X64250Y-37000D03*
X64250Y-40000D03*
X65250Y-40000D03*
X66250Y-40000D03*
G54D14*
X72250Y-37000D03*
G54D13*
X71250Y-37000D03*
X70250Y-37000D03*
X70250Y-40000D03*
X71250Y-40000D03*
X72250Y-40000D03*
G54D14*
X78250Y-37000D03*
G54D13*
X77250Y-37000D03*
X76250Y-37000D03*
X76250Y-40000D03*
X77250Y-40000D03*
X78250Y-40000D03*
G54D20*
X34939Y-48500D03*
G54D21*
X33561Y-48500D03*
G54D20*
X40939Y-48500D03*
G54D21*
X39561Y-48500D03*
G54D20*
X46939Y-48500D03*
G54D21*
X45561Y-48500D03*
G54D20*
X52939Y-48500D03*
G54D21*
X51561Y-48500D03*
G54D20*
X58939Y-48500D03*
G54D21*
X57561Y-48500D03*
G54D20*
X64939Y-48500D03*
G54D21*
X63561Y-48500D03*
G54D20*
X70939Y-48500D03*
G54D21*
X69561Y-48500D03*
G54D20*
X76939Y-48500D03*
G54D21*
X75561Y-48500D03*
G54D15*
X56000Y-21500D03*
G54D16*
X55000Y-21500D03*
X54000Y-21500D03*
X53000Y-21500D03*
X52000Y-21500D03*
G54D22*
X76500Y-22750D03*
G54D23*
X76500Y-25230D03*
G54D22*
X74531Y-23650D03*
G54D13*
X33500Y-44500D03*
X33500Y-42500D03*
X39500Y-44500D03*
X39500Y-42500D03*
X45500Y-44500D03*
X45500Y-42500D03*
X51500Y-44500D03*
X51500Y-42500D03*
X57500Y-44500D03*
X57500Y-42500D03*
X63500Y-44500D03*
X63500Y-42500D03*
X69500Y-44500D03*
X69500Y-42500D03*
X75500Y-44500D03*
X75500Y-42500D03*
X35250Y-42000D03*
X35250Y-45000D03*
X41250Y-42000D03*
X41250Y-45000D03*
X47250Y-42000D03*
X47250Y-45000D03*
X53250Y-42000D03*
X53250Y-45000D03*
X59250Y-42000D03*
X59250Y-45000D03*
X65250Y-42000D03*
X65250Y-45000D03*
X71250Y-42000D03*
X71250Y-45000D03*
X77250Y-42000D03*
X77250Y-45000D03*
X43000Y-45000D03*
X43000Y-42000D03*
X49000Y-45000D03*
X49000Y-42000D03*
X55000Y-45000D03*
X55000Y-42000D03*
X61000Y-45000D03*
X61000Y-42000D03*
X67000Y-45000D03*
X67000Y-42000D03*
X73000Y-45000D03*
X73000Y-42000D03*
X79000Y-45000D03*
X79000Y-42000D03*
X37000Y-45000D03*
X37000Y-42000D03*
G54D24*
X49750Y-48500D03*
X48750Y-48500D03*
X55750Y-48500D03*
X54750Y-48500D03*
X37750Y-48500D03*
X36750Y-48500D03*
X43750Y-48500D03*
X42750Y-48500D03*
X61750Y-48500D03*
X60750Y-48500D03*
X73750Y-48500D03*
X72750Y-48500D03*
X67750Y-48500D03*
X66750Y-48500D03*
X79750Y-48500D03*
X78750Y-48500D03*
G54D25*
X45520Y-33122D03*
X60025Y-27712D03*
X33592Y-27609D03*
X46927Y-36077D03*
G54D26*
X40750Y-30750D02*
X41500Y-31500D01*
X36500Y-30750D02*
X40750Y-30750D01*
X59478Y-28259D02*
X60025Y-27712D01*
X55053Y-28259D02*
X59478Y-28259D01*
X53435Y-29878D02*
X55053Y-28259D01*
X53435Y-30242D02*
X53435Y-29878D01*
X48677Y-35000D02*
X53435Y-30242D01*
X47040Y-35000D02*
X48677Y-35000D01*
X45520Y-33479D02*
X47040Y-35000D01*
X45520Y-33122D02*
X45520Y-33479D01*
G54D27*
X35250Y-42000D02*
X37000Y-42000D01*
X36250Y-41250D02*
X37000Y-42000D01*
X36250Y-40000D02*
X36250Y-41250D01*
X33560Y-47861D02*
X33560Y-48500D01*
X32700Y-47000D02*
X33560Y-47861D01*
X32700Y-43900D02*
X32700Y-47000D01*
X33500Y-43100D02*
X32700Y-43900D01*
X33500Y-43000D02*
X33500Y-43100D01*
X33500Y-42500D02*
X33500Y-43000D01*
X37000Y-44250D02*
X37000Y-45000D01*
X36250Y-43500D02*
X37000Y-44250D01*
X34000Y-43500D02*
X36250Y-43500D01*
X33500Y-43000D02*
X34000Y-43500D01*
X34250Y-41500D02*
X34250Y-40000D01*
X33500Y-42250D02*
X34250Y-41500D01*
X33500Y-42500D02*
X33500Y-42250D01*
X33500Y-42500D02*
X33500Y-43000D01*
X43000Y-42000D02*
X41250Y-42000D01*
X43000Y-41500D02*
X43000Y-42000D01*
X42250Y-40750D02*
X43000Y-41500D01*
X42250Y-40000D02*
X42250Y-40750D01*
X39500Y-42500D02*
X39500Y-42600D01*
X39500Y-41900D02*
X39500Y-42500D01*
X40250Y-41150D02*
X39500Y-41900D01*
X40250Y-40000D02*
X40250Y-41150D01*
X39500Y-42500D02*
X39500Y-42600D01*
X43000Y-44100D02*
X43000Y-45000D01*
X42500Y-43600D02*
X43000Y-44100D01*
X40000Y-43600D02*
X42500Y-43600D01*
X39500Y-43100D02*
X40000Y-43600D01*
X39500Y-42600D02*
X39500Y-43100D01*
X39561Y-47261D02*
X39561Y-47880D01*
X38700Y-46400D02*
X39561Y-47261D01*
X38700Y-43400D02*
X38700Y-46400D01*
X39500Y-42600D02*
X38700Y-43400D01*
X39561Y-47880D02*
X39561Y-48500D01*
G54D26*
X39560Y-47880D02*
X39560Y-48500D01*
X39561Y-47880D02*
X39560Y-47880D01*
G54D27*
X49000Y-42000D02*
X47250Y-42000D01*
X49000Y-41500D02*
X49000Y-42000D01*
X48250Y-40750D02*
X49000Y-41500D01*
X48250Y-40000D02*
X48250Y-40750D01*
X45500Y-42500D02*
X45500Y-42900D01*
X49000Y-44000D02*
X49000Y-45000D01*
X48600Y-43600D02*
X49000Y-44000D01*
X46200Y-43600D02*
X48600Y-43600D01*
X45500Y-42900D02*
X46200Y-43600D01*
X45500Y-41700D02*
X45500Y-42500D01*
X46250Y-40950D02*
X45500Y-41700D01*
X46250Y-40000D02*
X46250Y-40950D01*
X45500Y-42500D02*
X45500Y-42900D01*
X45561Y-47261D02*
X45561Y-47880D01*
X44700Y-46400D02*
X45561Y-47261D01*
X44700Y-43800D02*
X44700Y-46400D01*
X45500Y-43000D02*
X44700Y-43800D01*
X45500Y-42900D02*
X45500Y-43000D01*
X45561Y-47880D02*
X45561Y-48500D01*
G54D26*
X45560Y-47880D02*
X45560Y-48500D01*
X45561Y-47880D02*
X45560Y-47880D01*
X61261Y-20988D02*
X60750Y-21500D01*
X62773Y-20988D02*
X61261Y-20988D01*
X68301Y-26516D02*
X62773Y-20988D01*
X72360Y-26516D02*
X68301Y-26516D01*
X72491Y-26648D02*
X72360Y-26516D01*
X72491Y-27363D02*
X72491Y-26648D01*
X71151Y-28703D02*
X72491Y-27363D01*
X55629Y-28703D02*
X71151Y-28703D01*
X54435Y-29897D02*
X55629Y-28703D01*
X54435Y-30275D02*
X54435Y-29897D01*
X49410Y-35300D02*
X54435Y-30275D01*
X46916Y-35300D02*
X49410Y-35300D01*
X45145Y-33528D02*
X46916Y-35300D01*
X45145Y-25145D02*
X45145Y-33528D01*
X41500Y-21500D02*
X45145Y-25145D01*
G54D27*
X55000Y-42000D02*
X53250Y-42000D01*
X55000Y-41300D02*
X55000Y-42000D01*
X54250Y-40550D02*
X55000Y-41300D01*
X54250Y-40000D02*
X54250Y-40550D01*
X51500Y-42500D02*
X51500Y-43000D01*
X51500Y-41700D02*
X51500Y-42500D01*
X52250Y-40950D02*
X51500Y-41700D01*
X52250Y-40000D02*
X52250Y-40950D01*
X51500Y-42500D02*
X51500Y-43000D01*
X55000Y-44200D02*
X55000Y-45000D01*
X54500Y-43700D02*
X55000Y-44200D01*
X52100Y-43700D02*
X54500Y-43700D01*
X51500Y-43100D02*
X52100Y-43700D01*
X51500Y-43000D02*
X51500Y-43100D01*
X51561Y-46861D02*
X51561Y-47680D01*
X50700Y-46000D02*
X51561Y-46861D01*
X50700Y-43800D02*
X50700Y-46000D01*
X51500Y-43000D02*
X50700Y-43800D01*
X51561Y-47680D02*
X51561Y-48500D01*
G54D26*
X51560Y-47680D02*
X51560Y-48500D01*
X51561Y-47680D02*
X51560Y-47680D01*
G54D27*
X61000Y-42000D02*
X59250Y-42000D01*
X61000Y-41600D02*
X61000Y-42000D01*
X60250Y-40850D02*
X61000Y-41600D01*
X60250Y-40000D02*
X60250Y-40850D01*
X61000Y-44200D02*
X61000Y-45000D01*
X60300Y-43500D02*
X61000Y-44200D01*
X57900Y-43500D02*
X60300Y-43500D01*
X57500Y-43100D02*
X57900Y-43500D01*
X57500Y-42500D02*
X57500Y-43100D01*
X57500Y-41600D02*
X57500Y-42500D01*
X58250Y-40850D02*
X57500Y-41600D01*
X58250Y-40000D02*
X58250Y-40850D01*
X57561Y-46461D02*
X57561Y-47480D01*
X56700Y-45600D02*
X57561Y-46461D01*
X56700Y-43200D02*
X56700Y-45600D01*
X57400Y-42500D02*
X56700Y-43200D01*
X57500Y-42500D02*
X57400Y-42500D01*
X57561Y-47480D02*
X57561Y-48500D01*
G54D26*
X57560Y-47480D02*
X57560Y-48500D01*
X57561Y-47480D02*
X57560Y-47480D01*
G54D27*
X67000Y-42000D02*
X65250Y-42000D01*
X67000Y-41500D02*
X67000Y-42000D01*
X66250Y-40750D02*
X67000Y-41500D01*
X66250Y-40000D02*
X66250Y-40750D01*
X63500Y-42500D02*
X63500Y-42900D01*
X63500Y-41600D02*
X63500Y-42500D01*
X64250Y-40850D02*
X63500Y-41600D01*
X64250Y-40000D02*
X64250Y-40850D01*
X63500Y-42500D02*
X63500Y-42900D01*
X67000Y-44200D02*
X67000Y-45000D01*
X66400Y-43600D02*
X67000Y-44200D01*
X64000Y-43600D02*
X66400Y-43600D01*
X63500Y-43100D02*
X64000Y-43600D01*
X63500Y-42900D02*
X63500Y-43100D01*
X63561Y-47661D02*
X63561Y-48080D01*
X62700Y-46800D02*
X63561Y-47661D01*
X62700Y-43700D02*
X62700Y-46800D01*
X63500Y-42900D02*
X62700Y-43700D01*
X63561Y-48080D02*
X63561Y-48500D01*
G54D26*
X63560Y-48080D02*
X63560Y-48500D01*
X63561Y-48080D02*
X63560Y-48080D01*
G54D27*
X73000Y-42000D02*
X71250Y-42000D01*
X73000Y-41500D02*
X73000Y-42000D01*
X72250Y-40750D02*
X73000Y-41500D01*
X72250Y-40000D02*
X72250Y-40750D01*
X69500Y-42500D02*
X69500Y-43100D01*
X73000Y-44200D02*
X73000Y-45000D01*
X72400Y-43600D02*
X73000Y-44200D01*
X70000Y-43600D02*
X72400Y-43600D01*
X69500Y-43100D02*
X70000Y-43600D01*
X69500Y-41800D02*
X69500Y-42500D01*
X70250Y-41050D02*
X69500Y-41800D01*
X70250Y-40000D02*
X70250Y-41050D01*
X69500Y-42500D02*
X69500Y-43100D01*
X69561Y-46961D02*
X69561Y-47730D01*
X68700Y-46100D02*
X69561Y-46961D01*
X68700Y-44000D02*
X68700Y-46100D01*
X69500Y-43200D02*
X68700Y-44000D01*
X69500Y-43100D02*
X69500Y-43200D01*
X69561Y-47730D02*
X69561Y-48500D01*
G54D26*
X69560Y-47730D02*
X69560Y-48500D01*
X69561Y-47730D02*
X69560Y-47730D01*
G54D27*
X79000Y-42000D02*
X77250Y-42000D01*
X79000Y-41300D02*
X79000Y-42000D01*
X78250Y-40550D02*
X79000Y-41300D01*
X78250Y-40000D02*
X78250Y-40550D01*
X75500Y-42500D02*
X75500Y-42900D01*
X75500Y-41800D02*
X75500Y-42500D01*
X76250Y-41050D02*
X75500Y-41800D01*
X76250Y-40000D02*
X76250Y-41050D01*
X75500Y-42500D02*
X75500Y-42900D01*
X79000Y-44300D02*
X79000Y-45000D01*
X78300Y-43600D02*
X79000Y-44300D01*
X76000Y-43600D02*
X78300Y-43600D01*
X75500Y-43100D02*
X76000Y-43600D01*
X75500Y-42900D02*
X75500Y-43100D01*
X75561Y-47461D02*
X75561Y-47980D01*
X74700Y-46600D02*
X75561Y-47461D01*
X74700Y-43700D02*
X74700Y-46600D01*
X75500Y-42900D02*
X74700Y-43700D01*
X75561Y-47980D02*
X75561Y-48500D01*
G54D26*
X75560Y-47980D02*
X75560Y-48500D01*
X75561Y-47980D02*
X75560Y-47980D01*
X40044Y-22044D02*
X41500Y-23500D01*
X34530Y-22044D02*
X40044Y-22044D01*
X33975Y-22600D02*
X34530Y-22044D01*
X36875Y-24500D02*
X34975Y-22600D01*
X41500Y-24500D02*
X36875Y-24500D01*
X37875Y-26500D02*
X41500Y-26500D01*
X34975Y-23600D02*
X37875Y-26500D01*
X34090Y-27500D02*
X41500Y-27500D01*
X33423Y-26833D02*
X34090Y-27500D01*
X33423Y-25151D02*
X33423Y-26833D01*
X33975Y-24600D02*
X33423Y-25151D01*
X35482Y-29500D02*
X41500Y-29500D01*
X33592Y-27609D02*
X35482Y-29500D01*
X48500Y-21500D02*
X47500Y-22500D01*
X52000Y-21500D02*
X48500Y-21500D01*
X52000Y-20500D02*
X47500Y-20500D01*
X53000Y-21500D02*
X52000Y-20500D01*
X42054Y-19945D02*
X41500Y-20500D01*
X53445Y-19945D02*
X42054Y-19945D01*
X55000Y-21500D02*
X53445Y-19945D01*
X50930Y-27070D02*
X47500Y-30500D01*
X52935Y-27070D02*
X50930Y-27070D01*
X53718Y-27853D02*
X52935Y-27070D01*
X55826Y-27853D02*
X53718Y-27853D01*
X56435Y-27245D02*
X55826Y-27853D01*
X56435Y-26881D02*
X56435Y-27245D01*
X57622Y-25694D02*
X56435Y-26881D01*
X63694Y-25694D02*
X57622Y-25694D01*
X65000Y-27000D02*
X63694Y-25694D01*
X54410Y-27545D02*
X53935Y-27070D01*
X55135Y-27545D02*
X54410Y-27545D01*
X55435Y-27245D02*
X55135Y-27545D01*
X55435Y-26883D02*
X55435Y-27245D01*
X56923Y-25394D02*
X55435Y-26883D01*
X64394Y-25394D02*
X56923Y-25394D01*
X66000Y-27000D02*
X64394Y-25394D01*
X49420Y-26579D02*
X47500Y-28500D01*
X54555Y-26579D02*
X49420Y-26579D01*
X54935Y-26958D02*
X54555Y-26579D01*
X54935Y-26958D02*
X54935Y-27070D01*
X56799Y-25094D02*
X54935Y-26958D01*
X65094Y-25094D02*
X56799Y-25094D01*
X67000Y-27000D02*
X65094Y-25094D01*
X50205Y-24794D02*
X47500Y-27500D01*
X65794Y-24794D02*
X50205Y-24794D01*
X68000Y-27000D02*
X65794Y-24794D01*
X58010Y-25994D02*
X56935Y-27070D01*
X60843Y-25994D02*
X58010Y-25994D01*
X62330Y-27480D02*
X60843Y-25994D01*
X68519Y-27480D02*
X62330Y-27480D01*
X69000Y-27000D02*
X68519Y-27480D01*
X58710Y-26294D02*
X57935Y-27070D01*
X60628Y-26294D02*
X58710Y-26294D01*
X62114Y-27781D02*
X60628Y-26294D01*
X69218Y-27781D02*
X62114Y-27781D01*
X70000Y-27000D02*
X69218Y-27781D01*
X59410Y-26594D02*
X58935Y-27070D01*
X60448Y-26594D02*
X59410Y-26594D01*
X61934Y-28081D02*
X60448Y-26594D01*
X69918Y-28081D02*
X61934Y-28081D01*
X71000Y-27000D02*
X69918Y-28081D01*
X72000Y-27000D02*
X71524Y-27000D01*
X59935Y-27070D02*
X60410Y-27070D01*
X71524Y-27148D02*
X71524Y-27000D01*
X70292Y-28381D02*
X71524Y-27148D01*
X61721Y-28381D02*
X70292Y-28381D01*
X60410Y-27070D02*
X61721Y-28381D01*
X41386Y-32386D02*
X41500Y-32500D01*
X34323Y-32386D02*
X41386Y-32386D01*
X33835Y-32875D02*
X34323Y-32386D01*
X33335Y-32875D02*
X33835Y-32875D01*
X76500Y-25230D02*
X75354Y-25230D01*
X71377Y-29206D02*
X75354Y-25230D01*
X60113Y-29206D02*
X71377Y-29206D01*
X59435Y-29885D02*
X60113Y-29206D01*
X59435Y-30256D02*
X59435Y-29885D01*
X54091Y-35600D02*
X59435Y-30256D01*
X42600Y-35600D02*
X54091Y-35600D01*
X41500Y-34500D02*
X42600Y-35600D01*
X75600Y-23650D02*
X74530Y-23650D01*
X76500Y-22750D02*
X75600Y-23650D01*
X42219Y-49030D02*
X42750Y-48500D01*
X37280Y-49030D02*
X42219Y-49030D01*
X36750Y-48500D02*
X37280Y-49030D01*
X66650Y-23650D02*
X64500Y-21500D01*
X74530Y-23650D02*
X66650Y-23650D01*
X56000Y-21500D02*
X56500Y-21500D01*
X57000Y-20999D02*
X56500Y-21500D01*
X59249Y-20999D02*
X57000Y-20999D01*
X59750Y-21500D02*
X59249Y-20999D01*
X60561Y-20688D02*
X59750Y-21500D01*
X63688Y-20688D02*
X60561Y-20688D01*
X64500Y-21500D02*
X63688Y-20688D01*
X70774Y-37475D02*
X71250Y-37000D01*
X65725Y-37475D02*
X70774Y-37475D01*
X65250Y-37000D02*
X65725Y-37475D01*
X72219Y-49030D02*
X72750Y-48500D01*
X67280Y-49030D02*
X72219Y-49030D01*
X66750Y-48500D02*
X67280Y-49030D01*
X76774Y-37475D02*
X73496Y-37475D01*
X77250Y-37000D02*
X76774Y-37475D01*
X71725Y-37475D02*
X71250Y-37000D01*
X73496Y-37475D02*
X71725Y-37475D01*
X78234Y-49015D02*
X78750Y-48500D01*
X75330Y-49015D02*
X78234Y-49015D01*
X74068Y-47753D02*
X75330Y-49015D01*
X73496Y-47753D02*
X74068Y-47753D01*
X73496Y-37475D02*
X73496Y-47753D01*
X73496Y-47753D02*
X72750Y-48500D01*
X53725Y-37475D02*
X53250Y-37000D01*
X58774Y-37475D02*
X53725Y-37475D01*
X59250Y-37000D02*
X58774Y-37475D01*
X52774Y-37475D02*
X53250Y-37000D01*
X47725Y-37475D02*
X52774Y-37475D01*
X47250Y-37000D02*
X47725Y-37475D01*
X61280Y-49030D02*
X60750Y-48500D01*
X66219Y-49030D02*
X61280Y-49030D01*
X66750Y-48500D02*
X66219Y-49030D01*
X54219Y-49030D02*
X54750Y-48500D01*
X49280Y-49030D02*
X54219Y-49030D01*
X48750Y-48500D02*
X49280Y-49030D01*
X55280Y-49030D02*
X54750Y-48500D01*
X60219Y-49030D02*
X55280Y-49030D01*
X60750Y-48500D02*
X60219Y-49030D01*
X35250Y-36145D02*
X37895Y-33500D01*
X35250Y-37000D02*
X35250Y-36145D01*
X41500Y-33500D02*
X37895Y-33500D01*
X37895Y-33500D02*
X37270Y-32875D01*
G54D27*
X34750Y-45000D02*
X35250Y-45000D01*
X34250Y-44500D02*
X34750Y-45000D01*
X33500Y-44500D02*
X34250Y-44500D01*
X40800Y-45000D02*
X41250Y-45000D01*
X40300Y-44500D02*
X40800Y-45000D01*
X39500Y-44500D02*
X40300Y-44500D01*
G54D26*
X37647Y-36077D02*
X46927Y-36077D01*
X36725Y-37000D02*
X37647Y-36077D01*
X36250Y-37000D02*
X36725Y-37000D01*
X60489Y-29515D02*
X59935Y-30070D01*
X67208Y-29515D02*
X60489Y-29515D01*
X67500Y-29807D02*
X67208Y-29515D01*
X67500Y-30171D02*
X67500Y-29807D01*
X73852Y-36524D02*
X67500Y-30171D01*
X77448Y-36524D02*
X73852Y-36524D01*
X77774Y-36851D02*
X77448Y-36524D01*
X77774Y-37000D02*
X77774Y-36851D01*
X78250Y-37000D02*
X77774Y-37000D01*
G54D27*
X59150Y-44900D02*
X59250Y-45000D01*
X58600Y-44900D02*
X59150Y-44900D01*
X58200Y-44500D02*
X58600Y-44900D01*
X57500Y-44500D02*
X58200Y-44500D01*
X64500Y-45000D02*
X65250Y-45000D01*
X64000Y-44500D02*
X64500Y-45000D01*
X63500Y-44500D02*
X64000Y-44500D01*
X76600Y-45000D02*
X77250Y-45000D01*
X76100Y-44500D02*
X76600Y-45000D01*
X75500Y-44500D02*
X76100Y-44500D01*
X70500Y-45000D02*
X71250Y-45000D01*
X70000Y-44500D02*
X70500Y-45000D01*
X69500Y-44500D02*
X70000Y-44500D01*
X52500Y-45000D02*
X53250Y-45000D01*
X52000Y-44500D02*
X52500Y-45000D01*
X51500Y-44500D02*
X52000Y-44500D01*
X46600Y-45000D02*
X47250Y-45000D01*
X46100Y-44500D02*
X46600Y-45000D01*
X45500Y-44500D02*
X46100Y-44500D01*
G54D26*
X49750Y-48500D02*
X49750Y-47450D01*
X67000Y-32000D02*
X67000Y-30000D01*
X60850Y-38150D02*
X67000Y-32000D01*
X53100Y-38150D02*
X60850Y-38150D01*
X51650Y-39600D02*
X53100Y-38150D01*
X51650Y-40800D02*
X51650Y-39600D01*
X50950Y-41500D02*
X51650Y-40800D01*
X50950Y-42650D02*
X50950Y-41500D01*
X50250Y-43350D02*
X50950Y-42650D01*
X50250Y-46950D02*
X50250Y-43350D01*
X49750Y-47450D02*
X50250Y-46950D01*
X66000Y-30000D02*
X66000Y-32500D01*
X43750Y-47700D02*
X43750Y-48500D01*
X44200Y-47250D02*
X43750Y-47700D01*
X44200Y-43450D02*
X44200Y-47250D01*
X44900Y-42750D02*
X44200Y-43450D01*
X44900Y-41500D02*
X44900Y-42750D01*
X45650Y-40750D02*
X44900Y-41500D01*
X45650Y-39650D02*
X45650Y-40750D01*
X46250Y-39050D02*
X45650Y-39650D01*
X51550Y-39050D02*
X46250Y-39050D01*
X52800Y-37800D02*
X51550Y-39050D01*
X60700Y-37800D02*
X52800Y-37800D01*
X66000Y-32500D02*
X60700Y-37800D01*
G54D10*
G36*
X34051Y-26605D02*
X33980Y-26676D01*
X33975Y-26670D01*
X33969Y-26676D01*
X33898Y-26605D01*
X33904Y-26600D01*
X33898Y-26594D01*
X33969Y-26523D01*
X33975Y-26529D01*
X33980Y-26523D01*
X34051Y-26594D01*
X34045Y-26600D01*
X34051Y-26605D01*
X34051Y-26605D01*
G37*
G54D28*
X34051Y-26605D02*
X33980Y-26676D01*
X33975Y-26670D01*
X33969Y-26676D01*
X33898Y-26605D01*
X33904Y-26600D01*
X33898Y-26594D01*
X33969Y-26523D01*
X33975Y-26529D01*
X33980Y-26523D01*
X34051Y-26594D01*
X34045Y-26600D01*
X34051Y-26605D01*
G54D10*
G36*
X54614Y-28203D02*
X53204Y-29613D01*
X53039Y-29545D01*
X52831Y-29544D01*
X52638Y-29624D01*
X52490Y-29772D01*
X52410Y-29965D01*
X52409Y-30173D01*
X52489Y-30367D01*
X52637Y-30514D01*
X52658Y-30523D01*
X48532Y-34650D01*
X48198Y-34650D01*
X48198Y-31616D01*
X48190Y-31340D01*
X48101Y-31124D01*
X47973Y-31097D01*
X47570Y-31500D01*
X47973Y-31902D01*
X48101Y-31875D01*
X48198Y-31616D01*
X48198Y-34650D01*
X48095Y-34650D01*
X48095Y-34150D01*
X48057Y-34058D01*
X47986Y-33988D01*
X47894Y-33950D01*
X47891Y-33950D01*
X48004Y-33837D01*
X48094Y-33618D01*
X48095Y-33382D01*
X48004Y-33163D01*
X47841Y-32999D01*
X48004Y-32837D01*
X48094Y-32618D01*
X48095Y-32382D01*
X48004Y-32163D01*
X47886Y-32045D01*
X47902Y-31973D01*
X47500Y-31570D01*
X47429Y-31641D01*
X47429Y-31500D01*
X47026Y-31097D01*
X46898Y-31124D01*
X46801Y-31383D01*
X46809Y-31659D01*
X46898Y-31875D01*
X47026Y-31902D01*
X47429Y-31500D01*
X47429Y-31641D01*
X47097Y-31973D01*
X47113Y-32045D01*
X46995Y-32162D01*
X46905Y-32381D01*
X46904Y-32617D01*
X46995Y-32836D01*
X47158Y-33000D01*
X46995Y-33162D01*
X46905Y-33381D01*
X46904Y-33617D01*
X46995Y-33836D01*
X47108Y-33949D01*
X47105Y-33949D01*
X47013Y-33987D01*
X46943Y-34058D01*
X46905Y-34150D01*
X46904Y-34249D01*
X46904Y-34369D01*
X45886Y-33350D01*
X45945Y-33207D01*
X45945Y-33038D01*
X45880Y-32882D01*
X45761Y-32762D01*
X45605Y-32697D01*
X45495Y-32697D01*
X45495Y-25145D01*
X45495Y-25145D01*
X45468Y-25011D01*
X45392Y-24897D01*
X45392Y-24897D01*
X42094Y-21599D01*
X42095Y-21382D01*
X42004Y-21163D01*
X41841Y-20999D01*
X42004Y-20837D01*
X42094Y-20618D01*
X42095Y-20399D01*
X42199Y-20295D01*
X46940Y-20295D01*
X46905Y-20381D01*
X46904Y-20617D01*
X46995Y-20836D01*
X47158Y-21000D01*
X46995Y-21162D01*
X46905Y-21381D01*
X46904Y-21617D01*
X46995Y-21836D01*
X47158Y-22000D01*
X46995Y-22162D01*
X46905Y-22381D01*
X46904Y-22617D01*
X46995Y-22836D01*
X47158Y-23000D01*
X46995Y-23162D01*
X46905Y-23381D01*
X46904Y-23617D01*
X46995Y-23836D01*
X47158Y-24000D01*
X46995Y-24162D01*
X46905Y-24381D01*
X46904Y-24617D01*
X46995Y-24836D01*
X47158Y-25000D01*
X46995Y-25162D01*
X46905Y-25381D01*
X46904Y-25617D01*
X46995Y-25836D01*
X47158Y-26000D01*
X46995Y-26162D01*
X46905Y-26381D01*
X46904Y-26617D01*
X46995Y-26836D01*
X47158Y-27000D01*
X46995Y-27162D01*
X46905Y-27381D01*
X46904Y-27617D01*
X46995Y-27836D01*
X47158Y-28000D01*
X46995Y-28162D01*
X46905Y-28381D01*
X46904Y-28617D01*
X46995Y-28836D01*
X47158Y-29000D01*
X46995Y-29162D01*
X46905Y-29381D01*
X46904Y-29617D01*
X46995Y-29836D01*
X47158Y-30000D01*
X46995Y-30162D01*
X46905Y-30381D01*
X46904Y-30617D01*
X46995Y-30836D01*
X47113Y-30954D01*
X47097Y-31026D01*
X47500Y-31429D01*
X47902Y-31026D01*
X47886Y-30954D01*
X48004Y-30837D01*
X48094Y-30618D01*
X48095Y-30399D01*
X51074Y-27420D01*
X52542Y-27420D01*
X52637Y-27514D01*
X52830Y-27594D01*
X52965Y-27595D01*
X53471Y-28100D01*
X53584Y-28176D01*
X53718Y-28203D01*
X54614Y-28203D01*
X54614Y-28203D01*
G37*
G54D28*
X54614Y-28203D02*
X53204Y-29613D01*
X53039Y-29545D01*
X52831Y-29544D01*
X52638Y-29624D01*
X52490Y-29772D01*
X52410Y-29965D01*
X52409Y-30173D01*
X52489Y-30367D01*
X52637Y-30514D01*
X52658Y-30523D01*
X48532Y-34650D01*
X48198Y-34650D01*
X48198Y-31616D01*
X48190Y-31340D01*
X48101Y-31124D01*
X47973Y-31097D01*
X47570Y-31500D01*
X47973Y-31902D01*
X48101Y-31875D01*
X48198Y-31616D01*
X48198Y-34650D01*
X48095Y-34650D01*
X48095Y-34150D01*
X48057Y-34058D01*
X47986Y-33988D01*
X47894Y-33950D01*
X47891Y-33950D01*
X48004Y-33837D01*
X48094Y-33618D01*
X48095Y-33382D01*
X48004Y-33163D01*
X47841Y-32999D01*
X48004Y-32837D01*
X48094Y-32618D01*
X48095Y-32382D01*
X48004Y-32163D01*
X47886Y-32045D01*
X47902Y-31973D01*
X47500Y-31570D01*
X47429Y-31641D01*
X47429Y-31500D01*
X47026Y-31097D01*
X46898Y-31124D01*
X46801Y-31383D01*
X46809Y-31659D01*
X46898Y-31875D01*
X47026Y-31902D01*
X47429Y-31500D01*
X47429Y-31641D01*
X47097Y-31973D01*
X47113Y-32045D01*
X46995Y-32162D01*
X46905Y-32381D01*
X46904Y-32617D01*
X46995Y-32836D01*
X47158Y-33000D01*
X46995Y-33162D01*
X46905Y-33381D01*
X46904Y-33617D01*
X46995Y-33836D01*
X47108Y-33949D01*
X47105Y-33949D01*
X47013Y-33987D01*
X46943Y-34058D01*
X46905Y-34150D01*
X46904Y-34249D01*
X46904Y-34369D01*
X45886Y-33350D01*
X45945Y-33207D01*
X45945Y-33038D01*
X45880Y-32882D01*
X45761Y-32762D01*
X45605Y-32697D01*
X45495Y-32697D01*
X45495Y-25145D01*
X45495Y-25145D01*
X45468Y-25011D01*
X45392Y-24897D01*
X45392Y-24897D01*
X42094Y-21599D01*
X42095Y-21382D01*
X42004Y-21163D01*
X41841Y-20999D01*
X42004Y-20837D01*
X42094Y-20618D01*
X42095Y-20399D01*
X42199Y-20295D01*
X46940Y-20295D01*
X46905Y-20381D01*
X46904Y-20617D01*
X46995Y-20836D01*
X47158Y-21000D01*
X46995Y-21162D01*
X46905Y-21381D01*
X46904Y-21617D01*
X46995Y-21836D01*
X47158Y-22000D01*
X46995Y-22162D01*
X46905Y-22381D01*
X46904Y-22617D01*
X46995Y-22836D01*
X47158Y-23000D01*
X46995Y-23162D01*
X46905Y-23381D01*
X46904Y-23617D01*
X46995Y-23836D01*
X47158Y-24000D01*
X46995Y-24162D01*
X46905Y-24381D01*
X46904Y-24617D01*
X46995Y-24836D01*
X47158Y-25000D01*
X46995Y-25162D01*
X46905Y-25381D01*
X46904Y-25617D01*
X46995Y-25836D01*
X47158Y-26000D01*
X46995Y-26162D01*
X46905Y-26381D01*
X46904Y-26617D01*
X46995Y-26836D01*
X47158Y-27000D01*
X46995Y-27162D01*
X46905Y-27381D01*
X46904Y-27617D01*
X46995Y-27836D01*
X47158Y-28000D01*
X46995Y-28162D01*
X46905Y-28381D01*
X46904Y-28617D01*
X46995Y-28836D01*
X47158Y-29000D01*
X46995Y-29162D01*
X46905Y-29381D01*
X46904Y-29617D01*
X46995Y-29836D01*
X47158Y-30000D01*
X46995Y-30162D01*
X46905Y-30381D01*
X46904Y-30617D01*
X46995Y-30836D01*
X47113Y-30954D01*
X47097Y-31026D01*
X47500Y-31429D01*
X47902Y-31026D01*
X47886Y-30954D01*
X48004Y-30837D01*
X48094Y-30618D01*
X48095Y-30399D01*
X51074Y-27420D01*
X52542Y-27420D01*
X52637Y-27514D01*
X52830Y-27594D01*
X52965Y-27595D01*
X53471Y-28100D01*
X53584Y-28176D01*
X53718Y-28203D01*
X54614Y-28203D01*
G54D10*
G36*
X82425Y-48402D02*
X82260Y-48237D01*
X81929Y-48100D01*
X81571Y-48099D01*
X81240Y-48236D01*
X80987Y-48489D01*
X80850Y-48820D01*
X80849Y-49178D01*
X80986Y-49509D01*
X81152Y-49675D01*
X80330Y-49675D01*
X80330Y-48385D01*
X80241Y-48171D01*
X80078Y-48008D01*
X79865Y-47920D01*
X79635Y-47919D01*
X79525Y-47965D01*
X79525Y-44896D01*
X79450Y-44714D01*
X79450Y-44300D01*
X79449Y-44299D01*
X79415Y-44127D01*
X79415Y-44127D01*
X79383Y-44079D01*
X79318Y-43981D01*
X79318Y-43981D01*
X78618Y-43281D01*
X78472Y-43184D01*
X78300Y-43150D01*
X76186Y-43150D01*
X75950Y-42913D01*
X75950Y-42900D01*
X75950Y-42785D01*
X76024Y-42604D01*
X76025Y-42396D01*
X75950Y-42214D01*
X75950Y-41986D01*
X76568Y-41368D01*
X76568Y-41368D01*
X76568Y-41368D01*
X76665Y-41222D01*
X76665Y-41222D01*
X76699Y-41050D01*
X76700Y-41050D01*
X76700Y-40285D01*
X76750Y-40164D01*
X76804Y-40297D01*
X76952Y-40444D01*
X77145Y-40524D01*
X77353Y-40525D01*
X77547Y-40445D01*
X77694Y-40297D01*
X77750Y-40164D01*
X77800Y-40285D01*
X77800Y-40550D01*
X77834Y-40722D01*
X77931Y-40868D01*
X78550Y-41486D01*
X78550Y-41550D01*
X77535Y-41550D01*
X77354Y-41475D01*
X77146Y-41474D01*
X76953Y-41554D01*
X76805Y-41702D01*
X76725Y-41895D01*
X76724Y-42103D01*
X76804Y-42297D01*
X76952Y-42444D01*
X77145Y-42524D01*
X77353Y-42525D01*
X77535Y-42450D01*
X78714Y-42450D01*
X78895Y-42524D01*
X79103Y-42525D01*
X79297Y-42445D01*
X79444Y-42297D01*
X79524Y-42104D01*
X79525Y-41896D01*
X79450Y-41714D01*
X79450Y-41300D01*
X79449Y-41299D01*
X79415Y-41127D01*
X79415Y-41127D01*
X79318Y-40981D01*
X79318Y-40981D01*
X78700Y-40363D01*
X78700Y-40285D01*
X78774Y-40104D01*
X78775Y-39896D01*
X78695Y-39703D01*
X78547Y-39555D01*
X78354Y-39475D01*
X78146Y-39474D01*
X77953Y-39554D01*
X77805Y-39702D01*
X77749Y-39835D01*
X77695Y-39703D01*
X77601Y-39609D01*
X77601Y-37422D01*
X77250Y-37070D01*
X76898Y-37422D01*
X76917Y-37543D01*
X77150Y-37629D01*
X77398Y-37619D01*
X77582Y-37543D01*
X77601Y-37422D01*
X77601Y-39609D01*
X77547Y-39555D01*
X77354Y-39475D01*
X77146Y-39474D01*
X76953Y-39554D01*
X76805Y-39702D01*
X76749Y-39835D01*
X76695Y-39703D01*
X76547Y-39555D01*
X76354Y-39475D01*
X76146Y-39474D01*
X75953Y-39554D01*
X75805Y-39702D01*
X75725Y-39895D01*
X75724Y-40103D01*
X75800Y-40285D01*
X75800Y-40863D01*
X75181Y-41481D01*
X75084Y-41627D01*
X75050Y-41800D01*
X75050Y-42214D01*
X74975Y-42395D01*
X74974Y-42603D01*
X75028Y-42734D01*
X74381Y-43381D01*
X74284Y-43527D01*
X74250Y-43700D01*
X74250Y-46600D01*
X74284Y-46772D01*
X74381Y-46918D01*
X75111Y-47647D01*
X75111Y-47980D01*
X75111Y-48150D01*
X75082Y-48179D01*
X74996Y-48387D01*
X74995Y-48611D01*
X75081Y-48819D01*
X75240Y-48978D01*
X75448Y-49064D01*
X75672Y-49065D01*
X75880Y-48979D01*
X76039Y-48820D01*
X76125Y-48612D01*
X76126Y-48388D01*
X76040Y-48180D01*
X76011Y-48151D01*
X76011Y-47980D01*
X76011Y-47461D01*
X75976Y-47288D01*
X75879Y-47142D01*
X75150Y-46413D01*
X75150Y-44892D01*
X75202Y-44944D01*
X75395Y-45024D01*
X75603Y-45025D01*
X75785Y-44950D01*
X75913Y-44950D01*
X76281Y-45318D01*
X76427Y-45415D01*
X76600Y-45450D01*
X76964Y-45450D01*
X77145Y-45524D01*
X77353Y-45525D01*
X77547Y-45445D01*
X77694Y-45297D01*
X77774Y-45104D01*
X77775Y-44896D01*
X77695Y-44703D01*
X77547Y-44555D01*
X77354Y-44475D01*
X77146Y-44474D01*
X76964Y-44550D01*
X76786Y-44550D01*
X76418Y-44181D01*
X76272Y-44084D01*
X76100Y-44050D01*
X78113Y-44050D01*
X78550Y-44486D01*
X78550Y-44714D01*
X78475Y-44895D01*
X78474Y-45103D01*
X78554Y-45297D01*
X78702Y-45444D01*
X78895Y-45524D01*
X79103Y-45525D01*
X79297Y-45445D01*
X79444Y-45297D01*
X79524Y-45104D01*
X79525Y-44896D01*
X79525Y-47965D01*
X79421Y-48008D01*
X79302Y-48126D01*
X79212Y-48108D01*
X79141Y-48179D01*
X79141Y-48037D01*
X79116Y-47911D01*
X78862Y-47815D01*
X78592Y-47824D01*
X78383Y-47911D01*
X78358Y-48037D01*
X78750Y-48429D01*
X79141Y-48037D01*
X79141Y-48179D01*
X78820Y-48500D01*
X79212Y-48891D01*
X79303Y-48873D01*
X79421Y-48991D01*
X79634Y-49079D01*
X79864Y-49080D01*
X80078Y-48991D01*
X80241Y-48828D01*
X80329Y-48615D01*
X80330Y-48385D01*
X80330Y-49675D01*
X79141Y-49675D01*
X79141Y-48962D01*
X78750Y-48570D01*
X78679Y-48641D01*
X78679Y-48500D01*
X78287Y-48108D01*
X78161Y-48133D01*
X78065Y-48387D01*
X78074Y-48657D01*
X78161Y-48866D01*
X78287Y-48891D01*
X78679Y-48500D01*
X78679Y-48641D01*
X78358Y-48962D01*
X78383Y-49088D01*
X78637Y-49184D01*
X78907Y-49175D01*
X79116Y-49088D01*
X79141Y-48962D01*
X79141Y-49675D01*
X77504Y-49675D01*
X77504Y-48765D01*
X77504Y-48135D01*
X77466Y-48043D01*
X77395Y-47973D01*
X77303Y-47935D01*
X77204Y-47934D01*
X76574Y-47934D01*
X76482Y-47972D01*
X76412Y-48043D01*
X76374Y-48135D01*
X76373Y-48234D01*
X76373Y-48864D01*
X76411Y-48956D01*
X76482Y-49026D01*
X76574Y-49064D01*
X76673Y-49065D01*
X77303Y-49065D01*
X77395Y-49027D01*
X77465Y-48956D01*
X77503Y-48864D01*
X77504Y-48765D01*
X77504Y-49675D01*
X74330Y-49675D01*
X74330Y-48385D01*
X74241Y-48171D01*
X74078Y-48008D01*
X73865Y-47920D01*
X73635Y-47919D01*
X73525Y-47965D01*
X73525Y-44896D01*
X73450Y-44714D01*
X73450Y-44200D01*
X73415Y-44027D01*
X73318Y-43881D01*
X72718Y-43281D01*
X72572Y-43184D01*
X72400Y-43150D01*
X70186Y-43150D01*
X69950Y-42913D01*
X69950Y-42785D01*
X70024Y-42604D01*
X70025Y-42396D01*
X69950Y-42214D01*
X69950Y-41986D01*
X70568Y-41368D01*
X70568Y-41368D01*
X70568Y-41368D01*
X70665Y-41222D01*
X70665Y-41222D01*
X70699Y-41050D01*
X70700Y-41050D01*
X70700Y-40285D01*
X70750Y-40164D01*
X70804Y-40297D01*
X70952Y-40444D01*
X71145Y-40524D01*
X71353Y-40525D01*
X71547Y-40445D01*
X71694Y-40297D01*
X71750Y-40164D01*
X71800Y-40285D01*
X71800Y-40750D01*
X71834Y-40922D01*
X71931Y-41068D01*
X72413Y-41550D01*
X71535Y-41550D01*
X71354Y-41475D01*
X71146Y-41474D01*
X70953Y-41554D01*
X70805Y-41702D01*
X70725Y-41895D01*
X70724Y-42103D01*
X70804Y-42297D01*
X70952Y-42444D01*
X71145Y-42524D01*
X71353Y-42525D01*
X71535Y-42450D01*
X72714Y-42450D01*
X72895Y-42524D01*
X73103Y-42525D01*
X73297Y-42445D01*
X73444Y-42297D01*
X73524Y-42104D01*
X73525Y-41896D01*
X73450Y-41714D01*
X73450Y-41500D01*
X73449Y-41499D01*
X73415Y-41327D01*
X73415Y-41327D01*
X73318Y-41181D01*
X73318Y-41181D01*
X72700Y-40563D01*
X72700Y-40285D01*
X72774Y-40104D01*
X72775Y-39896D01*
X72775Y-39895D01*
X72775Y-37225D01*
X72775Y-36675D01*
X72737Y-36583D01*
X72666Y-36513D01*
X72574Y-36475D01*
X72475Y-36474D01*
X71925Y-36474D01*
X71833Y-36512D01*
X71763Y-36583D01*
X71732Y-36657D01*
X71672Y-36648D01*
X71601Y-36718D01*
X71601Y-36577D01*
X71582Y-36456D01*
X71349Y-36370D01*
X71101Y-36380D01*
X70917Y-36456D01*
X70898Y-36577D01*
X71250Y-36929D01*
X71601Y-36577D01*
X71601Y-36718D01*
X71320Y-37000D01*
X71672Y-37351D01*
X71732Y-37342D01*
X71762Y-37416D01*
X71833Y-37486D01*
X71925Y-37524D01*
X72024Y-37525D01*
X72574Y-37525D01*
X72666Y-37487D01*
X72736Y-37416D01*
X72774Y-37324D01*
X72775Y-37225D01*
X72775Y-39895D01*
X72695Y-39703D01*
X72547Y-39555D01*
X72354Y-39475D01*
X72146Y-39474D01*
X71953Y-39554D01*
X71805Y-39702D01*
X71749Y-39835D01*
X71695Y-39703D01*
X71601Y-39609D01*
X71601Y-37422D01*
X71250Y-37070D01*
X71179Y-37141D01*
X71179Y-37000D01*
X70827Y-36648D01*
X70706Y-36667D01*
X70693Y-36701D01*
X70547Y-36555D01*
X70354Y-36475D01*
X70146Y-36474D01*
X69953Y-36554D01*
X69805Y-36702D01*
X69725Y-36895D01*
X69724Y-37103D01*
X69804Y-37297D01*
X69952Y-37444D01*
X70145Y-37524D01*
X70353Y-37525D01*
X70547Y-37445D01*
X70692Y-37299D01*
X70706Y-37332D01*
X70827Y-37351D01*
X71179Y-37000D01*
X71179Y-37141D01*
X70898Y-37422D01*
X70917Y-37543D01*
X71150Y-37629D01*
X71398Y-37619D01*
X71582Y-37543D01*
X71601Y-37422D01*
X71601Y-39609D01*
X71547Y-39555D01*
X71354Y-39475D01*
X71146Y-39474D01*
X70953Y-39554D01*
X70805Y-39702D01*
X70749Y-39835D01*
X70695Y-39703D01*
X70547Y-39555D01*
X70354Y-39475D01*
X70146Y-39474D01*
X69953Y-39554D01*
X69805Y-39702D01*
X69725Y-39895D01*
X69724Y-40103D01*
X69800Y-40285D01*
X69800Y-40863D01*
X69181Y-41481D01*
X69084Y-41627D01*
X69050Y-41800D01*
X69050Y-42214D01*
X68975Y-42395D01*
X68974Y-42603D01*
X69050Y-42785D01*
X69050Y-43013D01*
X68381Y-43681D01*
X68284Y-43827D01*
X68250Y-44000D01*
X68250Y-46100D01*
X68284Y-46272D01*
X68381Y-46418D01*
X69111Y-47147D01*
X69111Y-47730D01*
X69111Y-48150D01*
X69082Y-48179D01*
X68996Y-48387D01*
X68995Y-48611D01*
X69081Y-48819D01*
X69240Y-48978D01*
X69448Y-49064D01*
X69672Y-49065D01*
X69880Y-48979D01*
X70039Y-48820D01*
X70125Y-48612D01*
X70126Y-48388D01*
X70040Y-48180D01*
X70011Y-48151D01*
X70011Y-47730D01*
X70011Y-46961D01*
X69976Y-46788D01*
X69879Y-46642D01*
X69150Y-45913D01*
X69150Y-44892D01*
X69202Y-44944D01*
X69395Y-45024D01*
X69603Y-45025D01*
X69785Y-44950D01*
X69813Y-44950D01*
X70181Y-45318D01*
X70327Y-45415D01*
X70500Y-45450D01*
X70964Y-45450D01*
X71145Y-45524D01*
X71353Y-45525D01*
X71547Y-45445D01*
X71694Y-45297D01*
X71774Y-45104D01*
X71775Y-44896D01*
X71695Y-44703D01*
X71547Y-44555D01*
X71354Y-44475D01*
X71146Y-44474D01*
X70964Y-44550D01*
X70686Y-44550D01*
X70318Y-44181D01*
X70172Y-44084D01*
X70000Y-44050D01*
X72213Y-44050D01*
X72550Y-44386D01*
X72550Y-44714D01*
X72475Y-44895D01*
X72474Y-45103D01*
X72554Y-45297D01*
X72702Y-45444D01*
X72895Y-45524D01*
X73103Y-45525D01*
X73297Y-45445D01*
X73444Y-45297D01*
X73524Y-45104D01*
X73525Y-44896D01*
X73525Y-47965D01*
X73421Y-48008D01*
X73302Y-48126D01*
X73212Y-48108D01*
X73141Y-48179D01*
X73141Y-48037D01*
X73116Y-47911D01*
X72862Y-47815D01*
X72592Y-47824D01*
X72383Y-47911D01*
X72358Y-48037D01*
X72750Y-48429D01*
X73141Y-48037D01*
X73141Y-48179D01*
X72820Y-48500D01*
X73212Y-48891D01*
X73303Y-48873D01*
X73421Y-48991D01*
X73634Y-49079D01*
X73864Y-49080D01*
X74078Y-48991D01*
X74241Y-48828D01*
X74329Y-48615D01*
X74330Y-48385D01*
X74330Y-49675D01*
X73141Y-49675D01*
X73141Y-48962D01*
X72750Y-48570D01*
X72679Y-48641D01*
X72679Y-48500D01*
X72287Y-48108D01*
X72161Y-48133D01*
X72065Y-48387D01*
X72074Y-48657D01*
X72161Y-48866D01*
X72287Y-48891D01*
X72679Y-48500D01*
X72679Y-48641D01*
X72358Y-48962D01*
X72383Y-49088D01*
X72637Y-49184D01*
X72907Y-49175D01*
X73116Y-49088D01*
X73141Y-48962D01*
X73141Y-49675D01*
X71504Y-49675D01*
X71504Y-48765D01*
X71504Y-48135D01*
X71466Y-48043D01*
X71395Y-47973D01*
X71303Y-47935D01*
X71204Y-47934D01*
X70574Y-47934D01*
X70482Y-47972D01*
X70412Y-48043D01*
X70374Y-48135D01*
X70373Y-48234D01*
X70373Y-48864D01*
X70411Y-48956D01*
X70482Y-49026D01*
X70574Y-49064D01*
X70673Y-49065D01*
X71303Y-49065D01*
X71395Y-49027D01*
X71465Y-48956D01*
X71503Y-48864D01*
X71504Y-48765D01*
X71504Y-49675D01*
X68330Y-49675D01*
X68330Y-48385D01*
X68241Y-48171D01*
X68078Y-48008D01*
X67865Y-47920D01*
X67635Y-47919D01*
X67525Y-47965D01*
X67525Y-44896D01*
X67450Y-44714D01*
X67450Y-44200D01*
X67415Y-44027D01*
X67318Y-43881D01*
X66718Y-43281D01*
X66572Y-43184D01*
X66400Y-43150D01*
X64186Y-43150D01*
X63950Y-42913D01*
X63950Y-42900D01*
X63950Y-42785D01*
X64024Y-42604D01*
X64025Y-42396D01*
X63950Y-42214D01*
X63950Y-41786D01*
X64568Y-41168D01*
X64568Y-41168D01*
X64568Y-41168D01*
X64665Y-41022D01*
X64665Y-41022D01*
X64699Y-40850D01*
X64700Y-40850D01*
X64700Y-40285D01*
X64750Y-40164D01*
X64804Y-40297D01*
X64952Y-40444D01*
X65145Y-40524D01*
X65353Y-40525D01*
X65547Y-40445D01*
X65694Y-40297D01*
X65750Y-40164D01*
X65800Y-40285D01*
X65800Y-40750D01*
X65834Y-40922D01*
X65931Y-41068D01*
X66413Y-41550D01*
X65535Y-41550D01*
X65354Y-41475D01*
X65146Y-41474D01*
X64953Y-41554D01*
X64805Y-41702D01*
X64725Y-41895D01*
X64724Y-42103D01*
X64804Y-42297D01*
X64952Y-42444D01*
X65145Y-42524D01*
X65353Y-42525D01*
X65535Y-42450D01*
X66714Y-42450D01*
X66895Y-42524D01*
X67103Y-42525D01*
X67297Y-42445D01*
X67444Y-42297D01*
X67524Y-42104D01*
X67525Y-41896D01*
X67450Y-41714D01*
X67450Y-41500D01*
X67449Y-41499D01*
X67415Y-41327D01*
X67415Y-41327D01*
X67318Y-41181D01*
X67318Y-41181D01*
X66700Y-40563D01*
X66700Y-40285D01*
X66774Y-40104D01*
X66775Y-39896D01*
X66775Y-39895D01*
X66775Y-37225D01*
X66775Y-36675D01*
X66737Y-36583D01*
X66666Y-36513D01*
X66574Y-36475D01*
X66475Y-36474D01*
X65925Y-36474D01*
X65833Y-36512D01*
X65763Y-36583D01*
X65732Y-36657D01*
X65672Y-36648D01*
X65601Y-36718D01*
X65601Y-36577D01*
X65582Y-36456D01*
X65349Y-36370D01*
X65101Y-36380D01*
X64917Y-36456D01*
X64898Y-36577D01*
X65250Y-36929D01*
X65601Y-36577D01*
X65601Y-36718D01*
X65320Y-37000D01*
X65672Y-37351D01*
X65732Y-37342D01*
X65762Y-37416D01*
X65833Y-37486D01*
X65925Y-37524D01*
X66024Y-37525D01*
X66574Y-37525D01*
X66666Y-37487D01*
X66736Y-37416D01*
X66774Y-37324D01*
X66775Y-37225D01*
X66775Y-39895D01*
X66695Y-39703D01*
X66547Y-39555D01*
X66354Y-39475D01*
X66146Y-39474D01*
X65953Y-39554D01*
X65805Y-39702D01*
X65749Y-39835D01*
X65695Y-39703D01*
X65601Y-39609D01*
X65601Y-37422D01*
X65250Y-37070D01*
X65179Y-37141D01*
X65179Y-37000D01*
X64827Y-36648D01*
X64706Y-36667D01*
X64693Y-36701D01*
X64547Y-36555D01*
X64354Y-36475D01*
X64146Y-36474D01*
X63953Y-36554D01*
X63805Y-36702D01*
X63725Y-36895D01*
X63724Y-37103D01*
X63804Y-37297D01*
X63952Y-37444D01*
X64145Y-37524D01*
X64353Y-37525D01*
X64547Y-37445D01*
X64692Y-37299D01*
X64706Y-37332D01*
X64827Y-37351D01*
X65179Y-37000D01*
X65179Y-37141D01*
X64898Y-37422D01*
X64917Y-37543D01*
X65150Y-37629D01*
X65398Y-37619D01*
X65582Y-37543D01*
X65601Y-37422D01*
X65601Y-39609D01*
X65547Y-39555D01*
X65354Y-39475D01*
X65146Y-39474D01*
X64953Y-39554D01*
X64805Y-39702D01*
X64749Y-39835D01*
X64695Y-39703D01*
X64547Y-39555D01*
X64354Y-39475D01*
X64146Y-39474D01*
X63953Y-39554D01*
X63805Y-39702D01*
X63725Y-39895D01*
X63724Y-40103D01*
X63800Y-40285D01*
X63800Y-40663D01*
X63181Y-41281D01*
X63084Y-41427D01*
X63050Y-41600D01*
X63050Y-42214D01*
X62975Y-42395D01*
X62974Y-42603D01*
X63028Y-42734D01*
X62381Y-43381D01*
X62284Y-43527D01*
X62250Y-43700D01*
X62250Y-46800D01*
X62284Y-46972D01*
X62381Y-47118D01*
X63111Y-47847D01*
X63111Y-48080D01*
X63111Y-48150D01*
X63082Y-48179D01*
X62996Y-48387D01*
X62995Y-48611D01*
X63081Y-48819D01*
X63240Y-48978D01*
X63448Y-49064D01*
X63672Y-49065D01*
X63880Y-48979D01*
X64039Y-48820D01*
X64125Y-48612D01*
X64126Y-48388D01*
X64040Y-48180D01*
X64011Y-48151D01*
X64011Y-48080D01*
X64011Y-47661D01*
X63976Y-47488D01*
X63879Y-47342D01*
X63150Y-46613D01*
X63150Y-44892D01*
X63202Y-44944D01*
X63395Y-45024D01*
X63603Y-45025D01*
X63785Y-44950D01*
X63813Y-44950D01*
X64181Y-45318D01*
X64327Y-45415D01*
X64500Y-45450D01*
X64964Y-45450D01*
X65145Y-45524D01*
X65353Y-45525D01*
X65547Y-45445D01*
X65694Y-45297D01*
X65774Y-45104D01*
X65775Y-44896D01*
X65695Y-44703D01*
X65547Y-44555D01*
X65354Y-44475D01*
X65146Y-44474D01*
X64964Y-44550D01*
X64686Y-44550D01*
X64318Y-44181D01*
X64172Y-44084D01*
X64000Y-44050D01*
X66213Y-44050D01*
X66550Y-44386D01*
X66550Y-44714D01*
X66475Y-44895D01*
X66474Y-45103D01*
X66554Y-45297D01*
X66702Y-45444D01*
X66895Y-45524D01*
X67103Y-45525D01*
X67297Y-45445D01*
X67444Y-45297D01*
X67524Y-45104D01*
X67525Y-44896D01*
X67525Y-47965D01*
X67421Y-48008D01*
X67302Y-48126D01*
X67212Y-48108D01*
X67141Y-48179D01*
X67141Y-48037D01*
X67116Y-47911D01*
X66862Y-47815D01*
X66592Y-47824D01*
X66383Y-47911D01*
X66358Y-48037D01*
X66750Y-48429D01*
X67141Y-48037D01*
X67141Y-48179D01*
X66820Y-48500D01*
X67212Y-48891D01*
X67303Y-48873D01*
X67421Y-48991D01*
X67634Y-49079D01*
X67864Y-49080D01*
X68078Y-48991D01*
X68241Y-48828D01*
X68329Y-48615D01*
X68330Y-48385D01*
X68330Y-49675D01*
X67141Y-49675D01*
X67141Y-48962D01*
X66750Y-48570D01*
X66679Y-48641D01*
X66679Y-48500D01*
X66287Y-48108D01*
X66161Y-48133D01*
X66065Y-48387D01*
X66074Y-48657D01*
X66161Y-48866D01*
X66287Y-48891D01*
X66679Y-48500D01*
X66679Y-48641D01*
X66358Y-48962D01*
X66383Y-49088D01*
X66637Y-49184D01*
X66907Y-49175D01*
X67116Y-49088D01*
X67141Y-48962D01*
X67141Y-49675D01*
X65504Y-49675D01*
X65504Y-48765D01*
X65504Y-48135D01*
X65466Y-48043D01*
X65395Y-47973D01*
X65303Y-47935D01*
X65204Y-47934D01*
X64574Y-47934D01*
X64482Y-47972D01*
X64412Y-48043D01*
X64374Y-48135D01*
X64373Y-48234D01*
X64373Y-48864D01*
X64411Y-48956D01*
X64482Y-49026D01*
X64574Y-49064D01*
X64673Y-49065D01*
X65303Y-49065D01*
X65395Y-49027D01*
X65465Y-48956D01*
X65503Y-48864D01*
X65504Y-48765D01*
X65504Y-49675D01*
X62330Y-49675D01*
X62330Y-48385D01*
X62241Y-48171D01*
X62078Y-48008D01*
X61865Y-47920D01*
X61635Y-47919D01*
X61525Y-47965D01*
X61525Y-44896D01*
X61450Y-44714D01*
X61450Y-44200D01*
X61449Y-44199D01*
X61415Y-44027D01*
X61415Y-44027D01*
X61383Y-43979D01*
X61318Y-43881D01*
X61318Y-43881D01*
X60618Y-43181D01*
X60472Y-43084D01*
X60300Y-43050D01*
X58086Y-43050D01*
X57950Y-42913D01*
X57950Y-42785D01*
X58024Y-42604D01*
X58025Y-42396D01*
X57950Y-42214D01*
X57950Y-41786D01*
X58568Y-41168D01*
X58568Y-41168D01*
X58568Y-41168D01*
X58665Y-41022D01*
X58665Y-41022D01*
X58699Y-40850D01*
X58700Y-40850D01*
X58700Y-40285D01*
X58750Y-40164D01*
X58804Y-40297D01*
X58952Y-40444D01*
X59145Y-40524D01*
X59353Y-40525D01*
X59547Y-40445D01*
X59694Y-40297D01*
X59750Y-40164D01*
X59800Y-40285D01*
X59800Y-40850D01*
X59834Y-41022D01*
X59931Y-41168D01*
X60313Y-41550D01*
X59535Y-41550D01*
X59354Y-41475D01*
X59146Y-41474D01*
X58953Y-41554D01*
X58805Y-41702D01*
X58725Y-41895D01*
X58724Y-42103D01*
X58804Y-42297D01*
X58952Y-42444D01*
X59145Y-42524D01*
X59353Y-42525D01*
X59535Y-42450D01*
X60714Y-42450D01*
X60895Y-42524D01*
X61103Y-42525D01*
X61297Y-42445D01*
X61444Y-42297D01*
X61524Y-42104D01*
X61525Y-41896D01*
X61450Y-41714D01*
X61450Y-41600D01*
X61449Y-41599D01*
X61415Y-41427D01*
X61415Y-41427D01*
X61318Y-41281D01*
X61318Y-41281D01*
X60700Y-40663D01*
X60700Y-40285D01*
X60774Y-40104D01*
X60775Y-39896D01*
X60695Y-39703D01*
X60547Y-39555D01*
X60354Y-39475D01*
X60146Y-39474D01*
X59953Y-39554D01*
X59805Y-39702D01*
X59749Y-39835D01*
X59695Y-39703D01*
X59547Y-39555D01*
X59354Y-39475D01*
X59146Y-39474D01*
X58953Y-39554D01*
X58805Y-39702D01*
X58749Y-39835D01*
X58695Y-39703D01*
X58547Y-39555D01*
X58354Y-39475D01*
X58146Y-39474D01*
X57953Y-39554D01*
X57805Y-39702D01*
X57725Y-39895D01*
X57724Y-40103D01*
X57800Y-40285D01*
X57800Y-40663D01*
X57181Y-41281D01*
X57084Y-41427D01*
X57050Y-41600D01*
X57050Y-42213D01*
X56381Y-42881D01*
X56284Y-43027D01*
X56250Y-43200D01*
X56250Y-45600D01*
X56284Y-45772D01*
X56381Y-45918D01*
X57111Y-46647D01*
X57111Y-47480D01*
X57111Y-48150D01*
X57082Y-48179D01*
X56996Y-48387D01*
X56995Y-48611D01*
X57081Y-48819D01*
X57240Y-48978D01*
X57448Y-49064D01*
X57672Y-49065D01*
X57880Y-48979D01*
X58039Y-48820D01*
X58125Y-48612D01*
X58126Y-48388D01*
X58040Y-48180D01*
X58011Y-48151D01*
X58011Y-47480D01*
X58011Y-46461D01*
X57976Y-46288D01*
X57879Y-46142D01*
X57150Y-45413D01*
X57150Y-44892D01*
X57202Y-44944D01*
X57395Y-45024D01*
X57603Y-45025D01*
X57785Y-44950D01*
X58013Y-44950D01*
X58281Y-45218D01*
X58281Y-45218D01*
X58427Y-45315D01*
X58427Y-45315D01*
X58599Y-45349D01*
X58600Y-45350D01*
X58857Y-45350D01*
X58952Y-45444D01*
X59145Y-45524D01*
X59353Y-45525D01*
X59547Y-45445D01*
X59694Y-45297D01*
X59774Y-45104D01*
X59775Y-44896D01*
X59695Y-44703D01*
X59547Y-44555D01*
X59354Y-44475D01*
X59275Y-44475D01*
X59150Y-44450D01*
X58786Y-44450D01*
X58518Y-44181D01*
X58372Y-44084D01*
X58200Y-44050D01*
X57785Y-44050D01*
X57604Y-43975D01*
X57396Y-43974D01*
X57203Y-44054D01*
X57150Y-44107D01*
X57150Y-43386D01*
X57156Y-43380D01*
X57181Y-43418D01*
X57581Y-43818D01*
X57581Y-43818D01*
X57727Y-43915D01*
X57727Y-43915D01*
X57899Y-43949D01*
X57900Y-43950D01*
X60113Y-43950D01*
X60550Y-44386D01*
X60550Y-44714D01*
X60475Y-44895D01*
X60474Y-45103D01*
X60554Y-45297D01*
X60702Y-45444D01*
X60895Y-45524D01*
X61103Y-45525D01*
X61297Y-45445D01*
X61444Y-45297D01*
X61524Y-45104D01*
X61525Y-44896D01*
X61525Y-47965D01*
X61421Y-48008D01*
X61302Y-48126D01*
X61212Y-48108D01*
X61141Y-48179D01*
X61141Y-48037D01*
X61116Y-47911D01*
X60862Y-47815D01*
X60592Y-47824D01*
X60383Y-47911D01*
X60358Y-48037D01*
X60750Y-48429D01*
X61141Y-48037D01*
X61141Y-48179D01*
X60820Y-48500D01*
X61212Y-48891D01*
X61303Y-48873D01*
X61421Y-48991D01*
X61634Y-49079D01*
X61864Y-49080D01*
X62078Y-48991D01*
X62241Y-48828D01*
X62329Y-48615D01*
X62330Y-48385D01*
X62330Y-49675D01*
X61141Y-49675D01*
X61141Y-48962D01*
X60750Y-48570D01*
X60679Y-48641D01*
X60679Y-48500D01*
X60287Y-48108D01*
X60161Y-48133D01*
X60065Y-48387D01*
X60074Y-48657D01*
X60161Y-48866D01*
X60287Y-48891D01*
X60679Y-48500D01*
X60679Y-48641D01*
X60358Y-48962D01*
X60383Y-49088D01*
X60637Y-49184D01*
X60907Y-49175D01*
X61116Y-49088D01*
X61141Y-48962D01*
X61141Y-49675D01*
X59504Y-49675D01*
X59504Y-48765D01*
X59504Y-48135D01*
X59466Y-48043D01*
X59395Y-47973D01*
X59303Y-47935D01*
X59204Y-47934D01*
X58574Y-47934D01*
X58482Y-47972D01*
X58412Y-48043D01*
X58374Y-48135D01*
X58373Y-48234D01*
X58373Y-48864D01*
X58411Y-48956D01*
X58482Y-49026D01*
X58574Y-49064D01*
X58673Y-49065D01*
X59303Y-49065D01*
X59395Y-49027D01*
X59465Y-48956D01*
X59503Y-48864D01*
X59504Y-48765D01*
X59504Y-49675D01*
X56330Y-49675D01*
X56330Y-48385D01*
X56241Y-48171D01*
X56078Y-48008D01*
X55865Y-47920D01*
X55635Y-47919D01*
X55421Y-48008D01*
X55302Y-48126D01*
X55212Y-48108D01*
X55141Y-48179D01*
X55141Y-48037D01*
X55116Y-47911D01*
X54862Y-47815D01*
X54592Y-47824D01*
X54383Y-47911D01*
X54358Y-48037D01*
X54750Y-48429D01*
X55141Y-48037D01*
X55141Y-48179D01*
X54820Y-48500D01*
X55212Y-48891D01*
X55303Y-48873D01*
X55421Y-48991D01*
X55634Y-49079D01*
X55864Y-49080D01*
X56078Y-48991D01*
X56241Y-48828D01*
X56329Y-48615D01*
X56330Y-48385D01*
X56330Y-49675D01*
X55141Y-49675D01*
X55141Y-48962D01*
X54750Y-48570D01*
X54679Y-48641D01*
X54679Y-48500D01*
X54287Y-48108D01*
X54161Y-48133D01*
X54065Y-48387D01*
X54074Y-48657D01*
X54161Y-48866D01*
X54287Y-48891D01*
X54679Y-48500D01*
X54679Y-48641D01*
X54358Y-48962D01*
X54383Y-49088D01*
X54637Y-49184D01*
X54907Y-49175D01*
X55116Y-49088D01*
X55141Y-48962D01*
X55141Y-49675D01*
X53504Y-49675D01*
X53504Y-48765D01*
X53504Y-48135D01*
X53466Y-48043D01*
X53395Y-47973D01*
X53303Y-47935D01*
X53204Y-47934D01*
X52574Y-47934D01*
X52482Y-47972D01*
X52412Y-48043D01*
X52374Y-48135D01*
X52373Y-48234D01*
X52373Y-48864D01*
X52411Y-48956D01*
X52482Y-49026D01*
X52574Y-49064D01*
X52673Y-49065D01*
X53303Y-49065D01*
X53395Y-49027D01*
X53465Y-48956D01*
X53503Y-48864D01*
X53504Y-48765D01*
X53504Y-49675D01*
X49141Y-49675D01*
X49141Y-48962D01*
X48750Y-48570D01*
X48679Y-48641D01*
X48679Y-48500D01*
X48287Y-48108D01*
X48161Y-48133D01*
X48065Y-48387D01*
X48074Y-48657D01*
X48161Y-48866D01*
X48287Y-48891D01*
X48679Y-48500D01*
X48679Y-48641D01*
X48358Y-48962D01*
X48383Y-49088D01*
X48637Y-49184D01*
X48907Y-49175D01*
X49116Y-49088D01*
X49141Y-48962D01*
X49141Y-49675D01*
X47504Y-49675D01*
X47504Y-48765D01*
X47504Y-48135D01*
X47466Y-48043D01*
X47395Y-47973D01*
X47303Y-47935D01*
X47204Y-47934D01*
X46574Y-47934D01*
X46482Y-47972D01*
X46412Y-48043D01*
X46374Y-48135D01*
X46373Y-48234D01*
X46373Y-48864D01*
X46411Y-48956D01*
X46482Y-49026D01*
X46574Y-49064D01*
X46673Y-49065D01*
X47303Y-49065D01*
X47395Y-49027D01*
X47465Y-48956D01*
X47503Y-48864D01*
X47504Y-48765D01*
X47504Y-49675D01*
X43141Y-49675D01*
X43141Y-48962D01*
X42750Y-48570D01*
X42679Y-48641D01*
X42679Y-48500D01*
X42287Y-48108D01*
X42161Y-48133D01*
X42065Y-48387D01*
X42074Y-48657D01*
X42161Y-48866D01*
X42287Y-48891D01*
X42679Y-48500D01*
X42679Y-48641D01*
X42358Y-48962D01*
X42383Y-49088D01*
X42637Y-49184D01*
X42907Y-49175D01*
X43116Y-49088D01*
X43141Y-48962D01*
X43141Y-49675D01*
X41504Y-49675D01*
X41504Y-48765D01*
X41504Y-48135D01*
X41466Y-48043D01*
X41395Y-47973D01*
X41303Y-47935D01*
X41204Y-47934D01*
X40574Y-47934D01*
X40482Y-47972D01*
X40412Y-48043D01*
X40374Y-48135D01*
X40373Y-48234D01*
X40373Y-48864D01*
X40411Y-48956D01*
X40482Y-49026D01*
X40574Y-49064D01*
X40673Y-49065D01*
X41303Y-49065D01*
X41395Y-49027D01*
X41465Y-48956D01*
X41503Y-48864D01*
X41504Y-48765D01*
X41504Y-49675D01*
X38330Y-49675D01*
X38330Y-48385D01*
X38241Y-48171D01*
X38078Y-48008D01*
X37865Y-47920D01*
X37635Y-47919D01*
X37525Y-47965D01*
X37525Y-44896D01*
X37450Y-44714D01*
X37450Y-44250D01*
X37449Y-44249D01*
X37415Y-44077D01*
X37415Y-44077D01*
X37318Y-43931D01*
X37318Y-43931D01*
X36568Y-43181D01*
X36422Y-43084D01*
X36250Y-43050D01*
X34186Y-43050D01*
X33950Y-42813D01*
X33950Y-42785D01*
X34024Y-42604D01*
X34025Y-42396D01*
X34014Y-42371D01*
X34568Y-41818D01*
X34568Y-41818D01*
X34568Y-41818D01*
X34665Y-41672D01*
X34665Y-41672D01*
X34699Y-41500D01*
X34700Y-41500D01*
X34700Y-40285D01*
X34750Y-40164D01*
X34804Y-40297D01*
X34952Y-40444D01*
X35145Y-40524D01*
X35353Y-40525D01*
X35547Y-40445D01*
X35694Y-40297D01*
X35750Y-40164D01*
X35800Y-40285D01*
X35800Y-41250D01*
X35834Y-41422D01*
X35919Y-41550D01*
X35535Y-41550D01*
X35354Y-41475D01*
X35146Y-41474D01*
X34953Y-41554D01*
X34805Y-41702D01*
X34725Y-41895D01*
X34724Y-42103D01*
X34804Y-42297D01*
X34952Y-42444D01*
X35145Y-42524D01*
X35353Y-42525D01*
X35535Y-42450D01*
X36714Y-42450D01*
X36895Y-42524D01*
X37103Y-42525D01*
X37297Y-42445D01*
X37444Y-42297D01*
X37524Y-42104D01*
X37525Y-41896D01*
X37445Y-41703D01*
X37297Y-41555D01*
X37116Y-41479D01*
X36700Y-41063D01*
X36700Y-40285D01*
X36774Y-40104D01*
X36775Y-39896D01*
X36695Y-39703D01*
X36547Y-39555D01*
X36354Y-39475D01*
X36146Y-39474D01*
X35953Y-39554D01*
X35805Y-39702D01*
X35749Y-39835D01*
X35695Y-39703D01*
X35601Y-39609D01*
X35601Y-37422D01*
X35250Y-37070D01*
X35179Y-37141D01*
X35179Y-37000D01*
X34827Y-36648D01*
X34706Y-36667D01*
X34693Y-36701D01*
X34547Y-36555D01*
X34354Y-36475D01*
X34146Y-36474D01*
X33953Y-36554D01*
X33805Y-36702D01*
X33725Y-36895D01*
X33724Y-37103D01*
X33804Y-37297D01*
X33952Y-37444D01*
X34145Y-37524D01*
X34353Y-37525D01*
X34547Y-37445D01*
X34692Y-37299D01*
X34706Y-37332D01*
X34827Y-37351D01*
X35179Y-37000D01*
X35179Y-37141D01*
X34898Y-37422D01*
X34917Y-37543D01*
X35150Y-37629D01*
X35398Y-37619D01*
X35582Y-37543D01*
X35601Y-37422D01*
X35601Y-39609D01*
X35547Y-39555D01*
X35354Y-39475D01*
X35146Y-39474D01*
X34953Y-39554D01*
X34805Y-39702D01*
X34749Y-39835D01*
X34695Y-39703D01*
X34547Y-39555D01*
X34354Y-39475D01*
X34146Y-39474D01*
X33953Y-39554D01*
X33805Y-39702D01*
X33725Y-39895D01*
X33724Y-40103D01*
X33800Y-40285D01*
X33800Y-41313D01*
X33181Y-41931D01*
X33084Y-42077D01*
X33060Y-42196D01*
X33055Y-42202D01*
X32975Y-42395D01*
X32974Y-42603D01*
X33050Y-42785D01*
X33050Y-42913D01*
X32381Y-43581D01*
X32284Y-43727D01*
X32250Y-43900D01*
X32250Y-47000D01*
X32284Y-47172D01*
X32381Y-47318D01*
X33110Y-48047D01*
X33110Y-48150D01*
X33082Y-48179D01*
X32996Y-48387D01*
X32995Y-48611D01*
X33081Y-48819D01*
X33240Y-48978D01*
X33448Y-49064D01*
X33672Y-49065D01*
X33880Y-48979D01*
X34039Y-48820D01*
X34125Y-48612D01*
X34126Y-48388D01*
X34040Y-48180D01*
X34010Y-48151D01*
X34010Y-47861D01*
X34011Y-47861D01*
X33976Y-47688D01*
X33879Y-47542D01*
X33150Y-46813D01*
X33150Y-44892D01*
X33202Y-44944D01*
X33395Y-45024D01*
X33603Y-45025D01*
X33785Y-44950D01*
X34063Y-44950D01*
X34431Y-45318D01*
X34577Y-45415D01*
X34750Y-45450D01*
X34964Y-45450D01*
X35145Y-45524D01*
X35353Y-45525D01*
X35547Y-45445D01*
X35694Y-45297D01*
X35774Y-45104D01*
X35775Y-44896D01*
X35695Y-44703D01*
X35547Y-44555D01*
X35354Y-44475D01*
X35146Y-44474D01*
X34964Y-44550D01*
X34936Y-44550D01*
X34568Y-44181D01*
X34422Y-44084D01*
X34250Y-44050D01*
X33785Y-44050D01*
X33604Y-43975D01*
X33396Y-43974D01*
X33203Y-44054D01*
X33150Y-44107D01*
X33150Y-44086D01*
X33550Y-43686D01*
X33681Y-43818D01*
X33827Y-43915D01*
X34000Y-43950D01*
X36063Y-43950D01*
X36550Y-44436D01*
X36550Y-44714D01*
X36475Y-44895D01*
X36474Y-45103D01*
X36554Y-45297D01*
X36702Y-45444D01*
X36895Y-45524D01*
X37103Y-45525D01*
X37297Y-45445D01*
X37444Y-45297D01*
X37524Y-45104D01*
X37525Y-44896D01*
X37525Y-47965D01*
X37421Y-48008D01*
X37302Y-48126D01*
X37212Y-48108D01*
X37141Y-48179D01*
X37141Y-48037D01*
X37116Y-47911D01*
X36862Y-47815D01*
X36592Y-47824D01*
X36383Y-47911D01*
X36358Y-48037D01*
X36750Y-48429D01*
X37141Y-48037D01*
X37141Y-48179D01*
X36820Y-48500D01*
X37212Y-48891D01*
X37303Y-48873D01*
X37421Y-48991D01*
X37634Y-49079D01*
X37864Y-49080D01*
X38078Y-48991D01*
X38241Y-48828D01*
X38329Y-48615D01*
X38330Y-48385D01*
X38330Y-49675D01*
X37141Y-49675D01*
X37141Y-48962D01*
X36750Y-48570D01*
X36679Y-48641D01*
X36679Y-48500D01*
X36287Y-48108D01*
X36161Y-48133D01*
X36065Y-48387D01*
X36074Y-48657D01*
X36161Y-48866D01*
X36287Y-48891D01*
X36679Y-48500D01*
X36679Y-48641D01*
X36358Y-48962D01*
X36383Y-49088D01*
X36637Y-49184D01*
X36907Y-49175D01*
X37116Y-49088D01*
X37141Y-48962D01*
X37141Y-49675D01*
X35504Y-49675D01*
X35504Y-48765D01*
X35504Y-48135D01*
X35466Y-48043D01*
X35395Y-47973D01*
X35303Y-47935D01*
X35204Y-47934D01*
X34574Y-47934D01*
X34482Y-47972D01*
X34412Y-48043D01*
X34374Y-48135D01*
X34373Y-48234D01*
X34373Y-48864D01*
X34411Y-48956D01*
X34482Y-49026D01*
X34574Y-49064D01*
X34673Y-49065D01*
X35303Y-49065D01*
X35395Y-49027D01*
X35465Y-48956D01*
X35503Y-48864D01*
X35504Y-48765D01*
X35504Y-49675D01*
X31347Y-49675D01*
X31512Y-49510D01*
X31649Y-49179D01*
X31650Y-48821D01*
X31513Y-48490D01*
X31260Y-48237D01*
X30929Y-48100D01*
X30571Y-48099D01*
X30240Y-48236D01*
X30075Y-48402D01*
X30075Y-21097D01*
X30239Y-21262D01*
X30570Y-21399D01*
X30928Y-21400D01*
X31259Y-21263D01*
X31512Y-21010D01*
X31649Y-20679D01*
X31650Y-20321D01*
X31513Y-19990D01*
X31347Y-19825D01*
X41680Y-19825D01*
X41599Y-19905D01*
X41382Y-19904D01*
X41163Y-19995D01*
X40995Y-20162D01*
X40905Y-20381D01*
X40904Y-20617D01*
X40995Y-20836D01*
X41158Y-21000D01*
X40995Y-21162D01*
X40905Y-21381D01*
X40904Y-21617D01*
X40995Y-21836D01*
X41158Y-22000D01*
X40995Y-22162D01*
X40905Y-22381D01*
X40905Y-22410D01*
X40292Y-21797D01*
X40178Y-21721D01*
X40044Y-21694D01*
X34530Y-21694D01*
X34396Y-21721D01*
X34282Y-21797D01*
X34079Y-22000D01*
X33856Y-21999D01*
X33635Y-22091D01*
X33466Y-22259D01*
X33375Y-22480D01*
X33374Y-22718D01*
X33466Y-22939D01*
X33626Y-23100D01*
X33466Y-23259D01*
X33375Y-23480D01*
X33374Y-23718D01*
X33466Y-23939D01*
X33626Y-24100D01*
X33466Y-24259D01*
X33375Y-24480D01*
X33374Y-24705D01*
X33176Y-24903D01*
X33100Y-25017D01*
X33073Y-25151D01*
X33073Y-26833D01*
X33100Y-26967D01*
X33176Y-27081D01*
X33347Y-27252D01*
X33231Y-27368D01*
X33167Y-27524D01*
X33166Y-27693D01*
X33231Y-27849D01*
X33350Y-27969D01*
X33507Y-28034D01*
X33521Y-28034D01*
X35235Y-29747D01*
X35348Y-29823D01*
X35482Y-29850D01*
X41008Y-29850D01*
X41158Y-30000D01*
X40995Y-30162D01*
X40905Y-30381D01*
X40905Y-30440D01*
X40883Y-30426D01*
X40750Y-30400D01*
X36927Y-30400D01*
X36811Y-30284D01*
X36609Y-30200D01*
X36391Y-30199D01*
X36188Y-30283D01*
X36034Y-30438D01*
X35950Y-30640D01*
X35949Y-30858D01*
X36033Y-31061D01*
X36188Y-31215D01*
X36390Y-31299D01*
X36608Y-31300D01*
X36811Y-31216D01*
X36927Y-31100D01*
X40605Y-31100D01*
X40905Y-31400D01*
X40904Y-31617D01*
X40995Y-31836D01*
X41158Y-32000D01*
X41122Y-32036D01*
X34323Y-32036D01*
X34189Y-32062D01*
X34076Y-32138D01*
X33814Y-32400D01*
X33776Y-32363D01*
X33684Y-32325D01*
X33585Y-32324D01*
X33050Y-32324D01*
X33050Y-30641D01*
X32966Y-30438D01*
X32811Y-30284D01*
X32609Y-30200D01*
X32391Y-30199D01*
X32188Y-30283D01*
X32034Y-30438D01*
X31950Y-30640D01*
X31949Y-30858D01*
X32033Y-31061D01*
X32188Y-31215D01*
X32390Y-31299D01*
X32608Y-31300D01*
X32811Y-31216D01*
X32965Y-31061D01*
X33049Y-30859D01*
X33050Y-30641D01*
X33050Y-32324D01*
X32985Y-32324D01*
X32893Y-32362D01*
X32823Y-32433D01*
X32785Y-32525D01*
X32785Y-32547D01*
X32646Y-32409D01*
X32444Y-32325D01*
X32226Y-32324D01*
X32023Y-32408D01*
X31869Y-32563D01*
X31785Y-32765D01*
X31784Y-32983D01*
X31868Y-33186D01*
X32023Y-33340D01*
X32225Y-33424D01*
X32443Y-33425D01*
X32646Y-33341D01*
X32784Y-33202D01*
X32784Y-33224D01*
X32822Y-33316D01*
X32893Y-33386D01*
X32985Y-33424D01*
X33084Y-33425D01*
X33684Y-33425D01*
X33776Y-33387D01*
X33846Y-33316D01*
X33884Y-33224D01*
X33884Y-33215D01*
X33969Y-33198D01*
X33969Y-33198D01*
X34082Y-33122D01*
X34468Y-32736D01*
X34759Y-32736D01*
X34745Y-32770D01*
X34744Y-32978D01*
X34824Y-33172D01*
X34972Y-33319D01*
X35165Y-33399D01*
X35373Y-33400D01*
X35567Y-33320D01*
X35714Y-33172D01*
X35794Y-32979D01*
X35795Y-32771D01*
X35780Y-32736D01*
X36654Y-32736D01*
X36640Y-32775D01*
X36650Y-33023D01*
X36726Y-33207D01*
X36847Y-33226D01*
X37199Y-32875D01*
X37193Y-32869D01*
X37264Y-32798D01*
X37270Y-32804D01*
X37275Y-32798D01*
X37346Y-32869D01*
X37340Y-32875D01*
X37692Y-33226D01*
X37813Y-33207D01*
X37899Y-32974D01*
X37890Y-32736D01*
X40953Y-32736D01*
X40995Y-32836D01*
X41113Y-32954D01*
X41097Y-33026D01*
X41500Y-33429D01*
X41902Y-33026D01*
X41886Y-32954D01*
X42004Y-32837D01*
X42094Y-32618D01*
X42095Y-32382D01*
X42004Y-32163D01*
X41841Y-31999D01*
X42004Y-31837D01*
X42094Y-31618D01*
X42095Y-31382D01*
X42004Y-31163D01*
X41841Y-30999D01*
X42004Y-30837D01*
X42094Y-30618D01*
X42095Y-30382D01*
X42004Y-30163D01*
X41841Y-29999D01*
X42004Y-29837D01*
X42094Y-29618D01*
X42095Y-29382D01*
X42004Y-29163D01*
X41841Y-28999D01*
X42004Y-28837D01*
X42094Y-28618D01*
X42095Y-28382D01*
X42004Y-28163D01*
X41841Y-27999D01*
X42004Y-27837D01*
X42094Y-27618D01*
X42095Y-27382D01*
X42004Y-27163D01*
X41841Y-26999D01*
X42004Y-26837D01*
X42094Y-26618D01*
X42095Y-26382D01*
X42004Y-26163D01*
X41841Y-25999D01*
X42004Y-25837D01*
X42094Y-25618D01*
X42095Y-25382D01*
X42004Y-25163D01*
X41841Y-24999D01*
X42004Y-24837D01*
X42094Y-24618D01*
X42095Y-24382D01*
X42004Y-24163D01*
X41841Y-23999D01*
X42004Y-23837D01*
X42094Y-23618D01*
X42095Y-23382D01*
X42004Y-23163D01*
X41841Y-22999D01*
X42004Y-22837D01*
X42094Y-22618D01*
X42094Y-22589D01*
X44795Y-25290D01*
X44795Y-33528D01*
X44821Y-33662D01*
X44897Y-33776D01*
X46371Y-35250D01*
X42745Y-35250D01*
X42198Y-34704D01*
X42198Y-33616D01*
X42190Y-33340D01*
X42101Y-33124D01*
X41973Y-33097D01*
X41570Y-33500D01*
X41973Y-33902D01*
X42101Y-33875D01*
X42198Y-33616D01*
X42198Y-34704D01*
X42094Y-34599D01*
X42095Y-34382D01*
X42004Y-34163D01*
X41886Y-34045D01*
X41902Y-33973D01*
X41500Y-33570D01*
X41429Y-33641D01*
X41429Y-33500D01*
X41026Y-33097D01*
X40898Y-33124D01*
X40801Y-33383D01*
X40809Y-33659D01*
X40898Y-33875D01*
X41026Y-33902D01*
X41429Y-33500D01*
X41429Y-33641D01*
X41097Y-33973D01*
X41113Y-34045D01*
X40995Y-34162D01*
X40905Y-34381D01*
X40904Y-34617D01*
X40995Y-34836D01*
X41162Y-35004D01*
X41381Y-35094D01*
X41600Y-35095D01*
X42232Y-35727D01*
X37647Y-35727D01*
X37621Y-35732D01*
X37621Y-33297D01*
X37270Y-32945D01*
X36918Y-33297D01*
X36937Y-33418D01*
X37170Y-33504D01*
X37418Y-33494D01*
X37602Y-33418D01*
X37621Y-33297D01*
X37621Y-35732D01*
X37513Y-35754D01*
X37399Y-35830D01*
X36691Y-36538D01*
X36666Y-36513D01*
X36574Y-36475D01*
X36475Y-36474D01*
X35925Y-36474D01*
X35833Y-36512D01*
X35763Y-36583D01*
X35732Y-36657D01*
X35672Y-36648D01*
X35601Y-36718D01*
X35601Y-36577D01*
X35582Y-36456D01*
X35349Y-36370D01*
X35101Y-36380D01*
X34917Y-36456D01*
X34898Y-36577D01*
X35250Y-36929D01*
X35601Y-36577D01*
X35601Y-36718D01*
X35320Y-37000D01*
X35672Y-37351D01*
X35732Y-37342D01*
X35762Y-37416D01*
X35833Y-37486D01*
X35925Y-37524D01*
X36024Y-37525D01*
X36574Y-37525D01*
X36666Y-37487D01*
X36736Y-37416D01*
X36768Y-37341D01*
X36859Y-37323D01*
X36859Y-37323D01*
X36972Y-37247D01*
X37792Y-36427D01*
X40987Y-36427D01*
X40917Y-36456D01*
X40898Y-36577D01*
X41250Y-36929D01*
X41601Y-36577D01*
X41582Y-36456D01*
X41504Y-36427D01*
X46676Y-36427D01*
X46686Y-36437D01*
X46842Y-36502D01*
X46909Y-36502D01*
X46898Y-36577D01*
X47250Y-36929D01*
X47601Y-36577D01*
X47582Y-36456D01*
X47349Y-36370D01*
X47230Y-36375D01*
X47287Y-36318D01*
X47352Y-36162D01*
X47352Y-35993D01*
X47334Y-35950D01*
X54091Y-35950D01*
X54225Y-35923D01*
X54225Y-35923D01*
X54338Y-35847D01*
X59661Y-30524D01*
X59830Y-30594D01*
X60039Y-30595D01*
X60232Y-30515D01*
X60379Y-30367D01*
X60459Y-30174D01*
X60460Y-30039D01*
X60634Y-29865D01*
X64487Y-29865D01*
X64475Y-29895D01*
X64474Y-30103D01*
X64554Y-30297D01*
X64702Y-30444D01*
X64895Y-30524D01*
X65103Y-30525D01*
X65297Y-30445D01*
X65444Y-30297D01*
X65500Y-30164D01*
X65554Y-30297D01*
X65650Y-30392D01*
X65650Y-32355D01*
X60775Y-37229D01*
X60775Y-37225D01*
X60775Y-36675D01*
X60737Y-36583D01*
X60666Y-36513D01*
X60574Y-36475D01*
X60475Y-36474D01*
X59925Y-36474D01*
X59833Y-36512D01*
X59763Y-36583D01*
X59732Y-36657D01*
X59672Y-36648D01*
X59601Y-36718D01*
X59601Y-36577D01*
X59582Y-36456D01*
X59349Y-36370D01*
X59101Y-36380D01*
X58917Y-36456D01*
X58898Y-36577D01*
X59250Y-36929D01*
X59601Y-36577D01*
X59601Y-36718D01*
X59320Y-37000D01*
X59672Y-37351D01*
X59732Y-37342D01*
X59762Y-37416D01*
X59796Y-37450D01*
X59597Y-37450D01*
X59601Y-37422D01*
X59250Y-37070D01*
X58898Y-37422D01*
X58902Y-37450D01*
X58535Y-37450D01*
X58547Y-37445D01*
X58692Y-37299D01*
X58706Y-37332D01*
X58827Y-37351D01*
X59179Y-37000D01*
X58827Y-36648D01*
X58706Y-36667D01*
X58693Y-36701D01*
X58547Y-36555D01*
X58354Y-36475D01*
X58146Y-36474D01*
X57953Y-36554D01*
X57805Y-36702D01*
X57725Y-36895D01*
X57724Y-37103D01*
X57804Y-37297D01*
X57952Y-37444D01*
X57964Y-37450D01*
X54703Y-37450D01*
X54736Y-37416D01*
X54774Y-37324D01*
X54775Y-37225D01*
X54775Y-36675D01*
X54737Y-36583D01*
X54666Y-36513D01*
X54574Y-36475D01*
X54475Y-36474D01*
X53925Y-36474D01*
X53833Y-36512D01*
X53763Y-36583D01*
X53732Y-36657D01*
X53672Y-36648D01*
X53601Y-36718D01*
X53601Y-36577D01*
X53582Y-36456D01*
X53349Y-36370D01*
X53101Y-36380D01*
X52917Y-36456D01*
X52898Y-36577D01*
X53250Y-36929D01*
X53601Y-36577D01*
X53601Y-36718D01*
X53320Y-37000D01*
X53672Y-37351D01*
X53732Y-37342D01*
X53762Y-37416D01*
X53796Y-37450D01*
X53597Y-37450D01*
X53601Y-37422D01*
X53250Y-37070D01*
X53179Y-37141D01*
X53179Y-37000D01*
X52827Y-36648D01*
X52706Y-36667D01*
X52693Y-36701D01*
X52547Y-36555D01*
X52354Y-36475D01*
X52146Y-36474D01*
X51953Y-36554D01*
X51805Y-36702D01*
X51725Y-36895D01*
X51724Y-37103D01*
X51804Y-37297D01*
X51952Y-37444D01*
X52145Y-37524D01*
X52353Y-37525D01*
X52547Y-37445D01*
X52692Y-37299D01*
X52706Y-37332D01*
X52827Y-37351D01*
X53179Y-37000D01*
X53179Y-37141D01*
X52898Y-37422D01*
X52902Y-37450D01*
X52800Y-37450D01*
X52666Y-37476D01*
X52552Y-37552D01*
X51405Y-38700D01*
X48775Y-38700D01*
X48775Y-37225D01*
X48775Y-36675D01*
X48737Y-36583D01*
X48666Y-36513D01*
X48574Y-36475D01*
X48475Y-36474D01*
X47925Y-36474D01*
X47833Y-36512D01*
X47763Y-36583D01*
X47732Y-36657D01*
X47672Y-36648D01*
X47320Y-37000D01*
X47672Y-37351D01*
X47732Y-37342D01*
X47762Y-37416D01*
X47833Y-37486D01*
X47925Y-37524D01*
X48024Y-37525D01*
X48574Y-37525D01*
X48666Y-37487D01*
X48736Y-37416D01*
X48774Y-37324D01*
X48775Y-37225D01*
X48775Y-38700D01*
X47601Y-38700D01*
X47601Y-37422D01*
X47250Y-37070D01*
X47179Y-37141D01*
X47179Y-37000D01*
X46827Y-36648D01*
X46706Y-36667D01*
X46693Y-36701D01*
X46547Y-36555D01*
X46354Y-36475D01*
X46146Y-36474D01*
X45953Y-36554D01*
X45805Y-36702D01*
X45725Y-36895D01*
X45724Y-37103D01*
X45804Y-37297D01*
X45952Y-37444D01*
X46145Y-37524D01*
X46353Y-37525D01*
X46547Y-37445D01*
X46692Y-37299D01*
X46706Y-37332D01*
X46827Y-37351D01*
X47179Y-37000D01*
X47179Y-37141D01*
X46898Y-37422D01*
X46917Y-37543D01*
X47150Y-37629D01*
X47398Y-37619D01*
X47582Y-37543D01*
X47601Y-37422D01*
X47601Y-38700D01*
X46250Y-38700D01*
X46116Y-38726D01*
X46002Y-38802D01*
X45402Y-39402D01*
X45326Y-39516D01*
X45300Y-39650D01*
X45300Y-40605D01*
X44652Y-41252D01*
X44576Y-41366D01*
X44550Y-41500D01*
X44550Y-42605D01*
X43952Y-43202D01*
X43876Y-43316D01*
X43850Y-43450D01*
X43850Y-47105D01*
X43525Y-47429D01*
X43525Y-44896D01*
X43450Y-44714D01*
X43450Y-44100D01*
X43415Y-43927D01*
X43318Y-43781D01*
X42818Y-43281D01*
X42672Y-43184D01*
X42500Y-43150D01*
X40186Y-43150D01*
X39950Y-42913D01*
X39950Y-42785D01*
X40024Y-42604D01*
X40025Y-42396D01*
X39950Y-42214D01*
X39950Y-42086D01*
X40568Y-41468D01*
X40568Y-41468D01*
X40568Y-41468D01*
X40665Y-41322D01*
X40665Y-41322D01*
X40699Y-41150D01*
X40700Y-41150D01*
X40700Y-40285D01*
X40750Y-40164D01*
X40804Y-40297D01*
X40952Y-40444D01*
X41145Y-40524D01*
X41353Y-40525D01*
X41547Y-40445D01*
X41694Y-40297D01*
X41750Y-40164D01*
X41800Y-40285D01*
X41800Y-40750D01*
X41834Y-40922D01*
X41931Y-41068D01*
X42413Y-41550D01*
X41535Y-41550D01*
X41354Y-41475D01*
X41146Y-41474D01*
X40953Y-41554D01*
X40805Y-41702D01*
X40725Y-41895D01*
X40724Y-42103D01*
X40804Y-42297D01*
X40952Y-42444D01*
X41145Y-42524D01*
X41353Y-42525D01*
X41535Y-42450D01*
X42714Y-42450D01*
X42895Y-42524D01*
X43103Y-42525D01*
X43297Y-42445D01*
X43444Y-42297D01*
X43524Y-42104D01*
X43525Y-41896D01*
X43450Y-41714D01*
X43450Y-41500D01*
X43449Y-41499D01*
X43415Y-41327D01*
X43415Y-41327D01*
X43318Y-41181D01*
X43318Y-41181D01*
X42700Y-40563D01*
X42700Y-40285D01*
X42774Y-40104D01*
X42775Y-39896D01*
X42775Y-39895D01*
X42775Y-37225D01*
X42775Y-36675D01*
X42737Y-36583D01*
X42666Y-36513D01*
X42574Y-36475D01*
X42475Y-36474D01*
X41925Y-36474D01*
X41833Y-36512D01*
X41763Y-36583D01*
X41732Y-36657D01*
X41672Y-36648D01*
X41320Y-37000D01*
X41672Y-37351D01*
X41732Y-37342D01*
X41762Y-37416D01*
X41833Y-37486D01*
X41925Y-37524D01*
X42024Y-37525D01*
X42574Y-37525D01*
X42666Y-37487D01*
X42736Y-37416D01*
X42774Y-37324D01*
X42775Y-37225D01*
X42775Y-39895D01*
X42695Y-39703D01*
X42547Y-39555D01*
X42354Y-39475D01*
X42146Y-39474D01*
X41953Y-39554D01*
X41805Y-39702D01*
X41749Y-39835D01*
X41695Y-39703D01*
X41601Y-39609D01*
X41601Y-37422D01*
X41250Y-37070D01*
X41179Y-37141D01*
X41179Y-37000D01*
X40827Y-36648D01*
X40706Y-36667D01*
X40693Y-36701D01*
X40547Y-36555D01*
X40354Y-36475D01*
X40146Y-36474D01*
X39953Y-36554D01*
X39805Y-36702D01*
X39725Y-36895D01*
X39724Y-37103D01*
X39804Y-37297D01*
X39952Y-37444D01*
X40145Y-37524D01*
X40353Y-37525D01*
X40547Y-37445D01*
X40692Y-37299D01*
X40706Y-37332D01*
X40827Y-37351D01*
X41179Y-37000D01*
X41179Y-37141D01*
X40898Y-37422D01*
X40917Y-37543D01*
X41150Y-37629D01*
X41398Y-37619D01*
X41582Y-37543D01*
X41601Y-37422D01*
X41601Y-39609D01*
X41547Y-39555D01*
X41354Y-39475D01*
X41146Y-39474D01*
X40953Y-39554D01*
X40805Y-39702D01*
X40749Y-39835D01*
X40695Y-39703D01*
X40547Y-39555D01*
X40354Y-39475D01*
X40146Y-39474D01*
X39953Y-39554D01*
X39805Y-39702D01*
X39725Y-39895D01*
X39724Y-40103D01*
X39800Y-40285D01*
X39800Y-40963D01*
X39181Y-41581D01*
X39084Y-41727D01*
X39050Y-41900D01*
X39050Y-42214D01*
X38975Y-42395D01*
X38975Y-42488D01*
X38381Y-43081D01*
X38284Y-43227D01*
X38250Y-43400D01*
X38250Y-46400D01*
X38284Y-46572D01*
X38381Y-46718D01*
X39111Y-47447D01*
X39111Y-47880D01*
X39111Y-48150D01*
X39082Y-48179D01*
X38996Y-48387D01*
X38995Y-48611D01*
X39081Y-48819D01*
X39240Y-48978D01*
X39448Y-49064D01*
X39672Y-49065D01*
X39880Y-48979D01*
X40039Y-48820D01*
X40125Y-48612D01*
X40126Y-48388D01*
X40040Y-48180D01*
X40011Y-48151D01*
X40011Y-47880D01*
X40011Y-47261D01*
X39976Y-47088D01*
X39879Y-46942D01*
X39150Y-46213D01*
X39150Y-44892D01*
X39202Y-44944D01*
X39395Y-45024D01*
X39603Y-45025D01*
X39785Y-44950D01*
X40113Y-44950D01*
X40481Y-45318D01*
X40627Y-45415D01*
X40800Y-45450D01*
X40964Y-45450D01*
X41145Y-45524D01*
X41353Y-45525D01*
X41547Y-45445D01*
X41694Y-45297D01*
X41774Y-45104D01*
X41775Y-44896D01*
X41695Y-44703D01*
X41547Y-44555D01*
X41354Y-44475D01*
X41146Y-44474D01*
X40979Y-44543D01*
X40618Y-44181D01*
X40472Y-44084D01*
X40300Y-44050D01*
X42313Y-44050D01*
X42550Y-44286D01*
X42550Y-44714D01*
X42475Y-44895D01*
X42474Y-45103D01*
X42554Y-45297D01*
X42702Y-45444D01*
X42895Y-45524D01*
X43103Y-45525D01*
X43297Y-45445D01*
X43444Y-45297D01*
X43524Y-45104D01*
X43525Y-44896D01*
X43525Y-47429D01*
X43502Y-47452D01*
X43426Y-47566D01*
X43400Y-47700D01*
X43400Y-48029D01*
X43302Y-48126D01*
X43212Y-48108D01*
X43141Y-48179D01*
X43141Y-48037D01*
X43116Y-47911D01*
X42862Y-47815D01*
X42592Y-47824D01*
X42383Y-47911D01*
X42358Y-48037D01*
X42750Y-48429D01*
X43141Y-48037D01*
X43141Y-48179D01*
X42820Y-48500D01*
X43212Y-48891D01*
X43303Y-48873D01*
X43421Y-48991D01*
X43634Y-49079D01*
X43864Y-49080D01*
X44078Y-48991D01*
X44241Y-48828D01*
X44329Y-48615D01*
X44330Y-48385D01*
X44241Y-48171D01*
X44100Y-48029D01*
X44100Y-47844D01*
X44447Y-47497D01*
X44523Y-47383D01*
X44523Y-47383D01*
X44550Y-47250D01*
X44550Y-46886D01*
X45111Y-47447D01*
X45111Y-47880D01*
X45111Y-48150D01*
X45082Y-48179D01*
X44996Y-48387D01*
X44995Y-48611D01*
X45081Y-48819D01*
X45240Y-48978D01*
X45448Y-49064D01*
X45672Y-49065D01*
X45880Y-48979D01*
X46039Y-48820D01*
X46125Y-48612D01*
X46126Y-48388D01*
X46040Y-48180D01*
X46011Y-48151D01*
X46011Y-47880D01*
X46011Y-47261D01*
X45976Y-47088D01*
X45879Y-46942D01*
X45150Y-46213D01*
X45150Y-44892D01*
X45202Y-44944D01*
X45395Y-45024D01*
X45603Y-45025D01*
X45785Y-44950D01*
X45913Y-44950D01*
X46281Y-45318D01*
X46427Y-45415D01*
X46600Y-45450D01*
X46964Y-45450D01*
X47145Y-45524D01*
X47353Y-45525D01*
X47547Y-45445D01*
X47694Y-45297D01*
X47774Y-45104D01*
X47775Y-44896D01*
X47695Y-44703D01*
X47547Y-44555D01*
X47354Y-44475D01*
X47146Y-44474D01*
X46964Y-44550D01*
X46786Y-44550D01*
X46418Y-44181D01*
X46272Y-44084D01*
X46100Y-44050D01*
X45785Y-44050D01*
X45604Y-43975D01*
X45396Y-43974D01*
X45203Y-44054D01*
X45150Y-44107D01*
X45150Y-43986D01*
X45549Y-43586D01*
X45881Y-43918D01*
X45881Y-43918D01*
X45979Y-43983D01*
X46027Y-44015D01*
X46027Y-44015D01*
X46199Y-44049D01*
X46200Y-44050D01*
X48413Y-44050D01*
X48550Y-44186D01*
X48550Y-44714D01*
X48475Y-44895D01*
X48474Y-45103D01*
X48554Y-45297D01*
X48702Y-45444D01*
X48895Y-45524D01*
X49103Y-45525D01*
X49297Y-45445D01*
X49444Y-45297D01*
X49524Y-45104D01*
X49525Y-44896D01*
X49450Y-44714D01*
X49450Y-44000D01*
X49449Y-43999D01*
X49415Y-43827D01*
X49415Y-43827D01*
X49318Y-43681D01*
X49318Y-43681D01*
X48918Y-43281D01*
X48772Y-43184D01*
X48600Y-43150D01*
X46386Y-43150D01*
X45971Y-42734D01*
X46024Y-42604D01*
X46025Y-42396D01*
X45950Y-42214D01*
X45950Y-41886D01*
X46568Y-41268D01*
X46568Y-41268D01*
X46568Y-41268D01*
X46665Y-41122D01*
X46665Y-41122D01*
X46699Y-40950D01*
X46700Y-40950D01*
X46700Y-40285D01*
X46750Y-40164D01*
X46804Y-40297D01*
X46952Y-40444D01*
X47145Y-40524D01*
X47353Y-40525D01*
X47547Y-40445D01*
X47694Y-40297D01*
X47750Y-40164D01*
X47800Y-40285D01*
X47800Y-40750D01*
X47834Y-40922D01*
X47931Y-41068D01*
X48413Y-41550D01*
X47535Y-41550D01*
X47354Y-41475D01*
X47146Y-41474D01*
X46953Y-41554D01*
X46805Y-41702D01*
X46725Y-41895D01*
X46724Y-42103D01*
X46804Y-42297D01*
X46952Y-42444D01*
X47145Y-42524D01*
X47353Y-42525D01*
X47535Y-42450D01*
X48714Y-42450D01*
X48895Y-42524D01*
X49103Y-42525D01*
X49297Y-42445D01*
X49444Y-42297D01*
X49524Y-42104D01*
X49525Y-41896D01*
X49450Y-41714D01*
X49450Y-41500D01*
X49449Y-41499D01*
X49415Y-41327D01*
X49415Y-41327D01*
X49318Y-41181D01*
X49318Y-41181D01*
X48700Y-40563D01*
X48700Y-40285D01*
X48774Y-40104D01*
X48775Y-39896D01*
X48695Y-39703D01*
X48547Y-39555D01*
X48354Y-39475D01*
X48146Y-39474D01*
X47953Y-39554D01*
X47805Y-39702D01*
X47749Y-39835D01*
X47695Y-39703D01*
X47547Y-39555D01*
X47354Y-39475D01*
X47146Y-39474D01*
X46953Y-39554D01*
X46805Y-39702D01*
X46749Y-39835D01*
X46695Y-39703D01*
X46547Y-39555D01*
X46354Y-39475D01*
X46319Y-39475D01*
X46394Y-39400D01*
X51370Y-39400D01*
X51326Y-39466D01*
X51300Y-39600D01*
X51300Y-40655D01*
X50702Y-41252D01*
X50626Y-41366D01*
X50600Y-41500D01*
X50600Y-42505D01*
X50002Y-43102D01*
X49926Y-43216D01*
X49900Y-43350D01*
X49900Y-46805D01*
X49502Y-47202D01*
X49426Y-47316D01*
X49400Y-47450D01*
X49400Y-48029D01*
X49302Y-48126D01*
X49212Y-48108D01*
X49141Y-48179D01*
X49141Y-48037D01*
X49116Y-47911D01*
X48862Y-47815D01*
X48592Y-47824D01*
X48383Y-47911D01*
X48358Y-48037D01*
X48750Y-48429D01*
X49141Y-48037D01*
X49141Y-48179D01*
X48820Y-48500D01*
X49212Y-48891D01*
X49303Y-48873D01*
X49421Y-48991D01*
X49634Y-49079D01*
X49864Y-49080D01*
X50078Y-48991D01*
X50241Y-48828D01*
X50329Y-48615D01*
X50330Y-48385D01*
X50241Y-48171D01*
X50100Y-48029D01*
X50100Y-47594D01*
X50497Y-47197D01*
X50573Y-47083D01*
X50573Y-47083D01*
X50600Y-46950D01*
X50600Y-46536D01*
X51111Y-47047D01*
X51111Y-47680D01*
X51111Y-48150D01*
X51082Y-48179D01*
X50996Y-48387D01*
X50995Y-48611D01*
X51081Y-48819D01*
X51240Y-48978D01*
X51448Y-49064D01*
X51672Y-49065D01*
X51880Y-48979D01*
X52039Y-48820D01*
X52125Y-48612D01*
X52126Y-48388D01*
X52040Y-48180D01*
X52011Y-48151D01*
X52011Y-47680D01*
X52011Y-46861D01*
X51976Y-46688D01*
X51879Y-46542D01*
X51150Y-45813D01*
X51150Y-44892D01*
X51202Y-44944D01*
X51395Y-45024D01*
X51603Y-45025D01*
X51785Y-44950D01*
X51813Y-44950D01*
X52181Y-45318D01*
X52327Y-45415D01*
X52500Y-45450D01*
X52964Y-45450D01*
X53145Y-45524D01*
X53353Y-45525D01*
X53547Y-45445D01*
X53694Y-45297D01*
X53774Y-45104D01*
X53775Y-44896D01*
X53695Y-44703D01*
X53547Y-44555D01*
X53354Y-44475D01*
X53146Y-44474D01*
X52964Y-44550D01*
X52686Y-44550D01*
X52318Y-44181D01*
X52270Y-44150D01*
X54313Y-44150D01*
X54550Y-44386D01*
X54550Y-44714D01*
X54475Y-44895D01*
X54474Y-45103D01*
X54554Y-45297D01*
X54702Y-45444D01*
X54895Y-45524D01*
X55103Y-45525D01*
X55297Y-45445D01*
X55444Y-45297D01*
X55524Y-45104D01*
X55525Y-44896D01*
X55450Y-44714D01*
X55450Y-44200D01*
X55415Y-44027D01*
X55318Y-43881D01*
X54818Y-43381D01*
X54672Y-43284D01*
X54500Y-43250D01*
X52286Y-43250D01*
X51950Y-42913D01*
X51950Y-42785D01*
X52024Y-42604D01*
X52025Y-42396D01*
X51950Y-42214D01*
X51950Y-41886D01*
X52568Y-41268D01*
X52568Y-41268D01*
X52568Y-41268D01*
X52665Y-41122D01*
X52665Y-41122D01*
X52699Y-40950D01*
X52700Y-40950D01*
X52700Y-40285D01*
X52750Y-40164D01*
X52804Y-40297D01*
X52952Y-40444D01*
X53145Y-40524D01*
X53353Y-40525D01*
X53547Y-40445D01*
X53694Y-40297D01*
X53750Y-40164D01*
X53800Y-40285D01*
X53800Y-40550D01*
X53834Y-40722D01*
X53931Y-40868D01*
X54550Y-41486D01*
X54550Y-41550D01*
X53535Y-41550D01*
X53354Y-41475D01*
X53146Y-41474D01*
X52953Y-41554D01*
X52805Y-41702D01*
X52725Y-41895D01*
X52724Y-42103D01*
X52804Y-42297D01*
X52952Y-42444D01*
X53145Y-42524D01*
X53353Y-42525D01*
X53535Y-42450D01*
X54714Y-42450D01*
X54895Y-42524D01*
X55103Y-42525D01*
X55297Y-42445D01*
X55444Y-42297D01*
X55524Y-42104D01*
X55525Y-41896D01*
X55450Y-41714D01*
X55450Y-41300D01*
X55449Y-41299D01*
X55415Y-41127D01*
X55415Y-41127D01*
X55318Y-40981D01*
X55318Y-40981D01*
X54700Y-40363D01*
X54700Y-40285D01*
X54774Y-40104D01*
X54775Y-39896D01*
X54695Y-39703D01*
X54547Y-39555D01*
X54354Y-39475D01*
X54146Y-39474D01*
X53953Y-39554D01*
X53805Y-39702D01*
X53749Y-39835D01*
X53695Y-39703D01*
X53547Y-39555D01*
X53354Y-39475D01*
X53146Y-39474D01*
X52953Y-39554D01*
X52805Y-39702D01*
X52749Y-39835D01*
X52695Y-39703D01*
X52547Y-39555D01*
X52354Y-39475D01*
X52269Y-39475D01*
X53244Y-38500D01*
X60850Y-38500D01*
X60983Y-38473D01*
X60983Y-38473D01*
X61097Y-38397D01*
X67247Y-32247D01*
X67323Y-32133D01*
X67323Y-32133D01*
X67350Y-32000D01*
X67350Y-30516D01*
X73605Y-36772D01*
X73719Y-36848D01*
X73852Y-36874D01*
X75733Y-36874D01*
X75725Y-36895D01*
X75724Y-37103D01*
X75804Y-37297D01*
X75952Y-37444D01*
X76145Y-37524D01*
X76353Y-37525D01*
X76547Y-37445D01*
X76692Y-37299D01*
X76706Y-37332D01*
X76827Y-37351D01*
X77179Y-37000D01*
X77173Y-36994D01*
X77244Y-36923D01*
X77250Y-36929D01*
X77255Y-36923D01*
X77326Y-36994D01*
X77320Y-37000D01*
X77450Y-37130D01*
X77451Y-37133D01*
X77527Y-37247D01*
X77640Y-37323D01*
X77644Y-37324D01*
X77672Y-37351D01*
X77732Y-37342D01*
X77762Y-37416D01*
X77833Y-37486D01*
X77925Y-37524D01*
X78024Y-37525D01*
X78574Y-37525D01*
X78666Y-37487D01*
X78736Y-37416D01*
X78774Y-37324D01*
X78775Y-37225D01*
X78775Y-36675D01*
X78737Y-36583D01*
X78666Y-36513D01*
X78574Y-36475D01*
X78475Y-36474D01*
X77925Y-36474D01*
X77902Y-36484D01*
X77795Y-36376D01*
X77795Y-22494D01*
X77598Y-22017D01*
X77596Y-22014D01*
X77406Y-21914D01*
X77335Y-21985D01*
X77335Y-21843D01*
X77235Y-21653D01*
X76759Y-21455D01*
X76244Y-21454D01*
X75767Y-21651D01*
X75764Y-21653D01*
X75664Y-21843D01*
X76500Y-22679D01*
X77335Y-21843D01*
X77335Y-21985D01*
X76570Y-22750D01*
X77406Y-23585D01*
X77596Y-23485D01*
X77794Y-23009D01*
X77795Y-22494D01*
X77795Y-36376D01*
X77695Y-36277D01*
X77582Y-36201D01*
X77448Y-36174D01*
X73997Y-36174D01*
X68276Y-30453D01*
X68297Y-30445D01*
X68444Y-30297D01*
X68500Y-30164D01*
X68554Y-30297D01*
X68702Y-30444D01*
X68895Y-30524D01*
X69103Y-30525D01*
X69297Y-30445D01*
X69444Y-30297D01*
X69500Y-30164D01*
X69554Y-30297D01*
X69702Y-30444D01*
X69895Y-30524D01*
X70103Y-30525D01*
X70297Y-30445D01*
X70444Y-30297D01*
X70500Y-30164D01*
X70554Y-30297D01*
X70702Y-30444D01*
X70895Y-30524D01*
X71103Y-30525D01*
X71297Y-30445D01*
X71444Y-30297D01*
X71500Y-30164D01*
X71554Y-30297D01*
X71702Y-30444D01*
X71895Y-30524D01*
X72103Y-30525D01*
X72297Y-30445D01*
X72444Y-30297D01*
X72524Y-30104D01*
X72525Y-29896D01*
X72445Y-29703D01*
X72297Y-29555D01*
X72104Y-29475D01*
X71896Y-29474D01*
X71703Y-29554D01*
X71555Y-29702D01*
X71499Y-29835D01*
X71445Y-29703D01*
X71299Y-29556D01*
X71377Y-29556D01*
X71511Y-29530D01*
X71511Y-29530D01*
X71625Y-29454D01*
X75304Y-25774D01*
X75304Y-26224D01*
X75342Y-26316D01*
X75413Y-26386D01*
X75505Y-26424D01*
X75604Y-26425D01*
X77494Y-26425D01*
X77586Y-26387D01*
X77656Y-26316D01*
X77694Y-26224D01*
X77695Y-26125D01*
X77695Y-24235D01*
X77657Y-24143D01*
X77586Y-24073D01*
X77494Y-24035D01*
X77395Y-24034D01*
X76780Y-24034D01*
X77232Y-23848D01*
X77235Y-23846D01*
X77335Y-23656D01*
X76500Y-22820D01*
X76494Y-22826D01*
X76423Y-22755D01*
X76429Y-22750D01*
X75593Y-21914D01*
X75403Y-22014D01*
X75205Y-22490D01*
X75205Y-22527D01*
X74790Y-22355D01*
X74275Y-22354D01*
X73798Y-22551D01*
X73795Y-22553D01*
X73695Y-22743D01*
X74531Y-23579D01*
X74536Y-23573D01*
X74607Y-23644D01*
X74601Y-23650D01*
X74607Y-23655D01*
X74536Y-23726D01*
X74531Y-23720D01*
X74460Y-23791D01*
X74460Y-23650D01*
X73624Y-22814D01*
X73434Y-22914D01*
X73236Y-23390D01*
X73235Y-23905D01*
X73432Y-24382D01*
X73434Y-24385D01*
X73624Y-24485D01*
X74460Y-23650D01*
X74460Y-23791D01*
X73695Y-24556D01*
X73795Y-24746D01*
X74271Y-24944D01*
X74786Y-24945D01*
X75263Y-24748D01*
X75266Y-24746D01*
X75304Y-24673D01*
X75304Y-24889D01*
X75220Y-24906D01*
X75107Y-24982D01*
X72841Y-27248D01*
X72841Y-26648D01*
X72815Y-26514D01*
X72739Y-26400D01*
X72607Y-26268D01*
X72493Y-26192D01*
X72360Y-26166D01*
X68446Y-26166D01*
X67050Y-24770D01*
X67050Y-21750D01*
X67050Y-21150D01*
X67012Y-21058D01*
X66941Y-20988D01*
X66849Y-20950D01*
X66750Y-20949D01*
X66150Y-20949D01*
X66058Y-20987D01*
X65988Y-21058D01*
X65950Y-21150D01*
X65950Y-21172D01*
X65811Y-21034D01*
X65609Y-20950D01*
X65391Y-20949D01*
X65188Y-21033D01*
X65065Y-21156D01*
X65064Y-21152D01*
X64940Y-21130D01*
X64869Y-21200D01*
X64869Y-21059D01*
X64847Y-20935D01*
X64605Y-20845D01*
X64347Y-20855D01*
X64152Y-20935D01*
X64130Y-21059D01*
X64500Y-21429D01*
X64869Y-21059D01*
X64869Y-21200D01*
X64570Y-21500D01*
X64940Y-21869D01*
X65064Y-21847D01*
X65065Y-21843D01*
X65188Y-21965D01*
X65390Y-22049D01*
X65608Y-22050D01*
X65811Y-21966D01*
X65949Y-21827D01*
X65949Y-21849D01*
X65987Y-21941D01*
X66058Y-22011D01*
X66150Y-22049D01*
X66249Y-22050D01*
X66849Y-22050D01*
X66941Y-22012D01*
X67011Y-21941D01*
X67049Y-21849D01*
X67050Y-21750D01*
X67050Y-24770D01*
X64432Y-22152D01*
X64652Y-22144D01*
X64847Y-22064D01*
X64869Y-21940D01*
X64500Y-21570D01*
X64494Y-21576D01*
X64423Y-21505D01*
X64429Y-21500D01*
X64059Y-21130D01*
X63935Y-21152D01*
X63845Y-21394D01*
X63852Y-21572D01*
X63021Y-20741D01*
X62907Y-20665D01*
X62773Y-20638D01*
X61261Y-20638D01*
X61127Y-20665D01*
X61013Y-20741D01*
X61013Y-20741D01*
X61013Y-20741D01*
X60804Y-20950D01*
X60641Y-20949D01*
X60438Y-21033D01*
X60315Y-21156D01*
X60314Y-21152D01*
X60190Y-21130D01*
X60119Y-21200D01*
X60119Y-21059D01*
X60097Y-20935D01*
X59855Y-20845D01*
X59597Y-20855D01*
X59402Y-20935D01*
X59380Y-21059D01*
X59750Y-21429D01*
X60119Y-21059D01*
X60119Y-21200D01*
X59820Y-21500D01*
X60190Y-21869D01*
X60314Y-21847D01*
X60315Y-21843D01*
X60438Y-21965D01*
X60640Y-22049D01*
X60858Y-22050D01*
X61061Y-21966D01*
X61199Y-21827D01*
X61199Y-21849D01*
X61237Y-21941D01*
X61308Y-22011D01*
X61400Y-22049D01*
X61499Y-22050D01*
X62099Y-22050D01*
X62191Y-22012D01*
X62261Y-21941D01*
X62299Y-21849D01*
X62300Y-21750D01*
X62300Y-21338D01*
X62628Y-21338D01*
X65734Y-24444D01*
X60119Y-24444D01*
X60119Y-21940D01*
X59750Y-21570D01*
X59679Y-21641D01*
X59679Y-21500D01*
X59309Y-21130D01*
X59185Y-21152D01*
X59184Y-21156D01*
X59061Y-21034D01*
X58859Y-20950D01*
X58641Y-20949D01*
X58438Y-21033D01*
X58284Y-21188D01*
X58200Y-21390D01*
X58199Y-21608D01*
X58283Y-21811D01*
X58438Y-21965D01*
X58640Y-22049D01*
X58858Y-22050D01*
X59061Y-21966D01*
X59184Y-21843D01*
X59185Y-21847D01*
X59309Y-21869D01*
X59679Y-21500D01*
X59679Y-21641D01*
X59380Y-21940D01*
X59402Y-22064D01*
X59644Y-22154D01*
X59902Y-22144D01*
X60097Y-22064D01*
X60119Y-21940D01*
X60119Y-24444D01*
X56650Y-24444D01*
X56650Y-21730D01*
X56650Y-21269D01*
X56649Y-21130D01*
X56596Y-21001D01*
X56498Y-20903D01*
X56369Y-20849D01*
X56137Y-20850D01*
X56050Y-20937D01*
X56050Y-21450D01*
X56562Y-21450D01*
X56650Y-21362D01*
X56650Y-21269D01*
X56650Y-21730D01*
X56650Y-21637D01*
X56562Y-21550D01*
X56050Y-21550D01*
X56050Y-22062D01*
X56137Y-22150D01*
X56369Y-22150D01*
X56498Y-22096D01*
X56596Y-21998D01*
X56649Y-21869D01*
X56650Y-21730D01*
X56650Y-24444D01*
X50205Y-24444D01*
X50071Y-24470D01*
X49958Y-24546D01*
X49958Y-24546D01*
X49958Y-24546D01*
X48095Y-26409D01*
X48095Y-26382D01*
X48004Y-26163D01*
X47841Y-25999D01*
X48004Y-25837D01*
X48094Y-25618D01*
X48095Y-25382D01*
X48004Y-25163D01*
X47841Y-24999D01*
X48004Y-24837D01*
X48094Y-24618D01*
X48095Y-24382D01*
X48004Y-24163D01*
X47841Y-23999D01*
X48004Y-23837D01*
X48094Y-23618D01*
X48095Y-23382D01*
X48004Y-23163D01*
X47841Y-22999D01*
X48004Y-22837D01*
X48094Y-22618D01*
X48095Y-22399D01*
X48644Y-21850D01*
X51572Y-21850D01*
X51688Y-21965D01*
X51890Y-22049D01*
X52108Y-22050D01*
X52311Y-21966D01*
X52465Y-21811D01*
X52499Y-21730D01*
X52533Y-21811D01*
X52688Y-21965D01*
X52890Y-22049D01*
X53108Y-22050D01*
X53311Y-21966D01*
X53465Y-21811D01*
X53499Y-21730D01*
X53533Y-21811D01*
X53688Y-21965D01*
X53890Y-22049D01*
X54108Y-22050D01*
X54311Y-21966D01*
X54465Y-21811D01*
X54499Y-21730D01*
X54533Y-21811D01*
X54688Y-21965D01*
X54890Y-22049D01*
X55108Y-22050D01*
X55311Y-21966D01*
X55367Y-21910D01*
X55403Y-21998D01*
X55502Y-22096D01*
X55630Y-22150D01*
X55862Y-22150D01*
X55950Y-22062D01*
X55950Y-21550D01*
X55942Y-21550D01*
X55942Y-21450D01*
X55950Y-21450D01*
X55950Y-20937D01*
X55862Y-20850D01*
X55630Y-20849D01*
X55502Y-20903D01*
X55403Y-21001D01*
X55367Y-21089D01*
X55311Y-21034D01*
X55109Y-20950D01*
X54944Y-20949D01*
X53819Y-19825D01*
X81152Y-19825D01*
X80987Y-19989D01*
X80850Y-20320D01*
X80849Y-20678D01*
X80986Y-21009D01*
X81239Y-21262D01*
X81570Y-21399D01*
X81928Y-21400D01*
X82259Y-21263D01*
X82425Y-21097D01*
X82425Y-48402D01*
X82425Y-48402D01*
G37*
G54D28*
X82425Y-48402D02*
X82260Y-48237D01*
X81929Y-48100D01*
X81571Y-48099D01*
X81240Y-48236D01*
X80987Y-48489D01*
X80850Y-48820D01*
X80849Y-49178D01*
X80986Y-49509D01*
X81152Y-49675D01*
X80330Y-49675D01*
X80330Y-48385D01*
X80241Y-48171D01*
X80078Y-48008D01*
X79865Y-47920D01*
X79635Y-47919D01*
X79525Y-47965D01*
X79525Y-44896D01*
X79450Y-44714D01*
X79450Y-44300D01*
X79449Y-44299D01*
X79415Y-44127D01*
X79415Y-44127D01*
X79383Y-44079D01*
X79318Y-43981D01*
X79318Y-43981D01*
X78618Y-43281D01*
X78472Y-43184D01*
X78300Y-43150D01*
X76186Y-43150D01*
X75950Y-42913D01*
X75950Y-42900D01*
X75950Y-42785D01*
X76024Y-42604D01*
X76025Y-42396D01*
X75950Y-42214D01*
X75950Y-41986D01*
X76568Y-41368D01*
X76568Y-41368D01*
X76568Y-41368D01*
X76665Y-41222D01*
X76665Y-41222D01*
X76699Y-41050D01*
X76700Y-41050D01*
X76700Y-40285D01*
X76750Y-40164D01*
X76804Y-40297D01*
X76952Y-40444D01*
X77145Y-40524D01*
X77353Y-40525D01*
X77547Y-40445D01*
X77694Y-40297D01*
X77750Y-40164D01*
X77800Y-40285D01*
X77800Y-40550D01*
X77834Y-40722D01*
X77931Y-40868D01*
X78550Y-41486D01*
X78550Y-41550D01*
X77535Y-41550D01*
X77354Y-41475D01*
X77146Y-41474D01*
X76953Y-41554D01*
X76805Y-41702D01*
X76725Y-41895D01*
X76724Y-42103D01*
X76804Y-42297D01*
X76952Y-42444D01*
X77145Y-42524D01*
X77353Y-42525D01*
X77535Y-42450D01*
X78714Y-42450D01*
X78895Y-42524D01*
X79103Y-42525D01*
X79297Y-42445D01*
X79444Y-42297D01*
X79524Y-42104D01*
X79525Y-41896D01*
X79450Y-41714D01*
X79450Y-41300D01*
X79449Y-41299D01*
X79415Y-41127D01*
X79415Y-41127D01*
X79318Y-40981D01*
X79318Y-40981D01*
X78700Y-40363D01*
X78700Y-40285D01*
X78774Y-40104D01*
X78775Y-39896D01*
X78695Y-39703D01*
X78547Y-39555D01*
X78354Y-39475D01*
X78146Y-39474D01*
X77953Y-39554D01*
X77805Y-39702D01*
X77749Y-39835D01*
X77695Y-39703D01*
X77601Y-39609D01*
X77601Y-37422D01*
X77250Y-37070D01*
X76898Y-37422D01*
X76917Y-37543D01*
X77150Y-37629D01*
X77398Y-37619D01*
X77582Y-37543D01*
X77601Y-37422D01*
X77601Y-39609D01*
X77547Y-39555D01*
X77354Y-39475D01*
X77146Y-39474D01*
X76953Y-39554D01*
X76805Y-39702D01*
X76749Y-39835D01*
X76695Y-39703D01*
X76547Y-39555D01*
X76354Y-39475D01*
X76146Y-39474D01*
X75953Y-39554D01*
X75805Y-39702D01*
X75725Y-39895D01*
X75724Y-40103D01*
X75800Y-40285D01*
X75800Y-40863D01*
X75181Y-41481D01*
X75084Y-41627D01*
X75050Y-41800D01*
X75050Y-42214D01*
X74975Y-42395D01*
X74974Y-42603D01*
X75028Y-42734D01*
X74381Y-43381D01*
X74284Y-43527D01*
X74250Y-43700D01*
X74250Y-46600D01*
X74284Y-46772D01*
X74381Y-46918D01*
X75111Y-47647D01*
X75111Y-47980D01*
X75111Y-48150D01*
X75082Y-48179D01*
X74996Y-48387D01*
X74995Y-48611D01*
X75081Y-48819D01*
X75240Y-48978D01*
X75448Y-49064D01*
X75672Y-49065D01*
X75880Y-48979D01*
X76039Y-48820D01*
X76125Y-48612D01*
X76126Y-48388D01*
X76040Y-48180D01*
X76011Y-48151D01*
X76011Y-47980D01*
X76011Y-47461D01*
X75976Y-47288D01*
X75879Y-47142D01*
X75150Y-46413D01*
X75150Y-44892D01*
X75202Y-44944D01*
X75395Y-45024D01*
X75603Y-45025D01*
X75785Y-44950D01*
X75913Y-44950D01*
X76281Y-45318D01*
X76427Y-45415D01*
X76600Y-45450D01*
X76964Y-45450D01*
X77145Y-45524D01*
X77353Y-45525D01*
X77547Y-45445D01*
X77694Y-45297D01*
X77774Y-45104D01*
X77775Y-44896D01*
X77695Y-44703D01*
X77547Y-44555D01*
X77354Y-44475D01*
X77146Y-44474D01*
X76964Y-44550D01*
X76786Y-44550D01*
X76418Y-44181D01*
X76272Y-44084D01*
X76100Y-44050D01*
X78113Y-44050D01*
X78550Y-44486D01*
X78550Y-44714D01*
X78475Y-44895D01*
X78474Y-45103D01*
X78554Y-45297D01*
X78702Y-45444D01*
X78895Y-45524D01*
X79103Y-45525D01*
X79297Y-45445D01*
X79444Y-45297D01*
X79524Y-45104D01*
X79525Y-44896D01*
X79525Y-47965D01*
X79421Y-48008D01*
X79302Y-48126D01*
X79212Y-48108D01*
X79141Y-48179D01*
X79141Y-48037D01*
X79116Y-47911D01*
X78862Y-47815D01*
X78592Y-47824D01*
X78383Y-47911D01*
X78358Y-48037D01*
X78750Y-48429D01*
X79141Y-48037D01*
X79141Y-48179D01*
X78820Y-48500D01*
X79212Y-48891D01*
X79303Y-48873D01*
X79421Y-48991D01*
X79634Y-49079D01*
X79864Y-49080D01*
X80078Y-48991D01*
X80241Y-48828D01*
X80329Y-48615D01*
X80330Y-48385D01*
X80330Y-49675D01*
X79141Y-49675D01*
X79141Y-48962D01*
X78750Y-48570D01*
X78679Y-48641D01*
X78679Y-48500D01*
X78287Y-48108D01*
X78161Y-48133D01*
X78065Y-48387D01*
X78074Y-48657D01*
X78161Y-48866D01*
X78287Y-48891D01*
X78679Y-48500D01*
X78679Y-48641D01*
X78358Y-48962D01*
X78383Y-49088D01*
X78637Y-49184D01*
X78907Y-49175D01*
X79116Y-49088D01*
X79141Y-48962D01*
X79141Y-49675D01*
X77504Y-49675D01*
X77504Y-48765D01*
X77504Y-48135D01*
X77466Y-48043D01*
X77395Y-47973D01*
X77303Y-47935D01*
X77204Y-47934D01*
X76574Y-47934D01*
X76482Y-47972D01*
X76412Y-48043D01*
X76374Y-48135D01*
X76373Y-48234D01*
X76373Y-48864D01*
X76411Y-48956D01*
X76482Y-49026D01*
X76574Y-49064D01*
X76673Y-49065D01*
X77303Y-49065D01*
X77395Y-49027D01*
X77465Y-48956D01*
X77503Y-48864D01*
X77504Y-48765D01*
X77504Y-49675D01*
X74330Y-49675D01*
X74330Y-48385D01*
X74241Y-48171D01*
X74078Y-48008D01*
X73865Y-47920D01*
X73635Y-47919D01*
X73525Y-47965D01*
X73525Y-44896D01*
X73450Y-44714D01*
X73450Y-44200D01*
X73415Y-44027D01*
X73318Y-43881D01*
X72718Y-43281D01*
X72572Y-43184D01*
X72400Y-43150D01*
X70186Y-43150D01*
X69950Y-42913D01*
X69950Y-42785D01*
X70024Y-42604D01*
X70025Y-42396D01*
X69950Y-42214D01*
X69950Y-41986D01*
X70568Y-41368D01*
X70568Y-41368D01*
X70568Y-41368D01*
X70665Y-41222D01*
X70665Y-41222D01*
X70699Y-41050D01*
X70700Y-41050D01*
X70700Y-40285D01*
X70750Y-40164D01*
X70804Y-40297D01*
X70952Y-40444D01*
X71145Y-40524D01*
X71353Y-40525D01*
X71547Y-40445D01*
X71694Y-40297D01*
X71750Y-40164D01*
X71800Y-40285D01*
X71800Y-40750D01*
X71834Y-40922D01*
X71931Y-41068D01*
X72413Y-41550D01*
X71535Y-41550D01*
X71354Y-41475D01*
X71146Y-41474D01*
X70953Y-41554D01*
X70805Y-41702D01*
X70725Y-41895D01*
X70724Y-42103D01*
X70804Y-42297D01*
X70952Y-42444D01*
X71145Y-42524D01*
X71353Y-42525D01*
X71535Y-42450D01*
X72714Y-42450D01*
X72895Y-42524D01*
X73103Y-42525D01*
X73297Y-42445D01*
X73444Y-42297D01*
X73524Y-42104D01*
X73525Y-41896D01*
X73450Y-41714D01*
X73450Y-41500D01*
X73449Y-41499D01*
X73415Y-41327D01*
X73415Y-41327D01*
X73318Y-41181D01*
X73318Y-41181D01*
X72700Y-40563D01*
X72700Y-40285D01*
X72774Y-40104D01*
X72775Y-39896D01*
X72775Y-39895D01*
X72775Y-37225D01*
X72775Y-36675D01*
X72737Y-36583D01*
X72666Y-36513D01*
X72574Y-36475D01*
X72475Y-36474D01*
X71925Y-36474D01*
X71833Y-36512D01*
X71763Y-36583D01*
X71732Y-36657D01*
X71672Y-36648D01*
X71601Y-36718D01*
X71601Y-36577D01*
X71582Y-36456D01*
X71349Y-36370D01*
X71101Y-36380D01*
X70917Y-36456D01*
X70898Y-36577D01*
X71250Y-36929D01*
X71601Y-36577D01*
X71601Y-36718D01*
X71320Y-37000D01*
X71672Y-37351D01*
X71732Y-37342D01*
X71762Y-37416D01*
X71833Y-37486D01*
X71925Y-37524D01*
X72024Y-37525D01*
X72574Y-37525D01*
X72666Y-37487D01*
X72736Y-37416D01*
X72774Y-37324D01*
X72775Y-37225D01*
X72775Y-39895D01*
X72695Y-39703D01*
X72547Y-39555D01*
X72354Y-39475D01*
X72146Y-39474D01*
X71953Y-39554D01*
X71805Y-39702D01*
X71749Y-39835D01*
X71695Y-39703D01*
X71601Y-39609D01*
X71601Y-37422D01*
X71250Y-37070D01*
X71179Y-37141D01*
X71179Y-37000D01*
X70827Y-36648D01*
X70706Y-36667D01*
X70693Y-36701D01*
X70547Y-36555D01*
X70354Y-36475D01*
X70146Y-36474D01*
X69953Y-36554D01*
X69805Y-36702D01*
X69725Y-36895D01*
X69724Y-37103D01*
X69804Y-37297D01*
X69952Y-37444D01*
X70145Y-37524D01*
X70353Y-37525D01*
X70547Y-37445D01*
X70692Y-37299D01*
X70706Y-37332D01*
X70827Y-37351D01*
X71179Y-37000D01*
X71179Y-37141D01*
X70898Y-37422D01*
X70917Y-37543D01*
X71150Y-37629D01*
X71398Y-37619D01*
X71582Y-37543D01*
X71601Y-37422D01*
X71601Y-39609D01*
X71547Y-39555D01*
X71354Y-39475D01*
X71146Y-39474D01*
X70953Y-39554D01*
X70805Y-39702D01*
X70749Y-39835D01*
X70695Y-39703D01*
X70547Y-39555D01*
X70354Y-39475D01*
X70146Y-39474D01*
X69953Y-39554D01*
X69805Y-39702D01*
X69725Y-39895D01*
X69724Y-40103D01*
X69800Y-40285D01*
X69800Y-40863D01*
X69181Y-41481D01*
X69084Y-41627D01*
X69050Y-41800D01*
X69050Y-42214D01*
X68975Y-42395D01*
X68974Y-42603D01*
X69050Y-42785D01*
X69050Y-43013D01*
X68381Y-43681D01*
X68284Y-43827D01*
X68250Y-44000D01*
X68250Y-46100D01*
X68284Y-46272D01*
X68381Y-46418D01*
X69111Y-47147D01*
X69111Y-47730D01*
X69111Y-48150D01*
X69082Y-48179D01*
X68996Y-48387D01*
X68995Y-48611D01*
X69081Y-48819D01*
X69240Y-48978D01*
X69448Y-49064D01*
X69672Y-49065D01*
X69880Y-48979D01*
X70039Y-48820D01*
X70125Y-48612D01*
X70126Y-48388D01*
X70040Y-48180D01*
X70011Y-48151D01*
X70011Y-47730D01*
X70011Y-46961D01*
X69976Y-46788D01*
X69879Y-46642D01*
X69150Y-45913D01*
X69150Y-44892D01*
X69202Y-44944D01*
X69395Y-45024D01*
X69603Y-45025D01*
X69785Y-44950D01*
X69813Y-44950D01*
X70181Y-45318D01*
X70327Y-45415D01*
X70500Y-45450D01*
X70964Y-45450D01*
X71145Y-45524D01*
X71353Y-45525D01*
X71547Y-45445D01*
X71694Y-45297D01*
X71774Y-45104D01*
X71775Y-44896D01*
X71695Y-44703D01*
X71547Y-44555D01*
X71354Y-44475D01*
X71146Y-44474D01*
X70964Y-44550D01*
X70686Y-44550D01*
X70318Y-44181D01*
X70172Y-44084D01*
X70000Y-44050D01*
X72213Y-44050D01*
X72550Y-44386D01*
X72550Y-44714D01*
X72475Y-44895D01*
X72474Y-45103D01*
X72554Y-45297D01*
X72702Y-45444D01*
X72895Y-45524D01*
X73103Y-45525D01*
X73297Y-45445D01*
X73444Y-45297D01*
X73524Y-45104D01*
X73525Y-44896D01*
X73525Y-47965D01*
X73421Y-48008D01*
X73302Y-48126D01*
X73212Y-48108D01*
X73141Y-48179D01*
X73141Y-48037D01*
X73116Y-47911D01*
X72862Y-47815D01*
X72592Y-47824D01*
X72383Y-47911D01*
X72358Y-48037D01*
X72750Y-48429D01*
X73141Y-48037D01*
X73141Y-48179D01*
X72820Y-48500D01*
X73212Y-48891D01*
X73303Y-48873D01*
X73421Y-48991D01*
X73634Y-49079D01*
X73864Y-49080D01*
X74078Y-48991D01*
X74241Y-48828D01*
X74329Y-48615D01*
X74330Y-48385D01*
X74330Y-49675D01*
X73141Y-49675D01*
X73141Y-48962D01*
X72750Y-48570D01*
X72679Y-48641D01*
X72679Y-48500D01*
X72287Y-48108D01*
X72161Y-48133D01*
X72065Y-48387D01*
X72074Y-48657D01*
X72161Y-48866D01*
X72287Y-48891D01*
X72679Y-48500D01*
X72679Y-48641D01*
X72358Y-48962D01*
X72383Y-49088D01*
X72637Y-49184D01*
X72907Y-49175D01*
X73116Y-49088D01*
X73141Y-48962D01*
X73141Y-49675D01*
X71504Y-49675D01*
X71504Y-48765D01*
X71504Y-48135D01*
X71466Y-48043D01*
X71395Y-47973D01*
X71303Y-47935D01*
X71204Y-47934D01*
X70574Y-47934D01*
X70482Y-47972D01*
X70412Y-48043D01*
X70374Y-48135D01*
X70373Y-48234D01*
X70373Y-48864D01*
X70411Y-48956D01*
X70482Y-49026D01*
X70574Y-49064D01*
X70673Y-49065D01*
X71303Y-49065D01*
X71395Y-49027D01*
X71465Y-48956D01*
X71503Y-48864D01*
X71504Y-48765D01*
X71504Y-49675D01*
X68330Y-49675D01*
X68330Y-48385D01*
X68241Y-48171D01*
X68078Y-48008D01*
X67865Y-47920D01*
X67635Y-47919D01*
X67525Y-47965D01*
X67525Y-44896D01*
X67450Y-44714D01*
X67450Y-44200D01*
X67415Y-44027D01*
X67318Y-43881D01*
X66718Y-43281D01*
X66572Y-43184D01*
X66400Y-43150D01*
X64186Y-43150D01*
X63950Y-42913D01*
X63950Y-42900D01*
X63950Y-42785D01*
X64024Y-42604D01*
X64025Y-42396D01*
X63950Y-42214D01*
X63950Y-41786D01*
X64568Y-41168D01*
X64568Y-41168D01*
X64568Y-41168D01*
X64665Y-41022D01*
X64665Y-41022D01*
X64699Y-40850D01*
X64700Y-40850D01*
X64700Y-40285D01*
X64750Y-40164D01*
X64804Y-40297D01*
X64952Y-40444D01*
X65145Y-40524D01*
X65353Y-40525D01*
X65547Y-40445D01*
X65694Y-40297D01*
X65750Y-40164D01*
X65800Y-40285D01*
X65800Y-40750D01*
X65834Y-40922D01*
X65931Y-41068D01*
X66413Y-41550D01*
X65535Y-41550D01*
X65354Y-41475D01*
X65146Y-41474D01*
X64953Y-41554D01*
X64805Y-41702D01*
X64725Y-41895D01*
X64724Y-42103D01*
X64804Y-42297D01*
X64952Y-42444D01*
X65145Y-42524D01*
X65353Y-42525D01*
X65535Y-42450D01*
X66714Y-42450D01*
X66895Y-42524D01*
X67103Y-42525D01*
X67297Y-42445D01*
X67444Y-42297D01*
X67524Y-42104D01*
X67525Y-41896D01*
X67450Y-41714D01*
X67450Y-41500D01*
X67449Y-41499D01*
X67415Y-41327D01*
X67415Y-41327D01*
X67318Y-41181D01*
X67318Y-41181D01*
X66700Y-40563D01*
X66700Y-40285D01*
X66774Y-40104D01*
X66775Y-39896D01*
X66775Y-39895D01*
X66775Y-37225D01*
X66775Y-36675D01*
X66737Y-36583D01*
X66666Y-36513D01*
X66574Y-36475D01*
X66475Y-36474D01*
X65925Y-36474D01*
X65833Y-36512D01*
X65763Y-36583D01*
X65732Y-36657D01*
X65672Y-36648D01*
X65601Y-36718D01*
X65601Y-36577D01*
X65582Y-36456D01*
X65349Y-36370D01*
X65101Y-36380D01*
X64917Y-36456D01*
X64898Y-36577D01*
X65250Y-36929D01*
X65601Y-36577D01*
X65601Y-36718D01*
X65320Y-37000D01*
X65672Y-37351D01*
X65732Y-37342D01*
X65762Y-37416D01*
X65833Y-37486D01*
X65925Y-37524D01*
X66024Y-37525D01*
X66574Y-37525D01*
X66666Y-37487D01*
X66736Y-37416D01*
X66774Y-37324D01*
X66775Y-37225D01*
X66775Y-39895D01*
X66695Y-39703D01*
X66547Y-39555D01*
X66354Y-39475D01*
X66146Y-39474D01*
X65953Y-39554D01*
X65805Y-39702D01*
X65749Y-39835D01*
X65695Y-39703D01*
X65601Y-39609D01*
X65601Y-37422D01*
X65250Y-37070D01*
X65179Y-37141D01*
X65179Y-37000D01*
X64827Y-36648D01*
X64706Y-36667D01*
X64693Y-36701D01*
X64547Y-36555D01*
X64354Y-36475D01*
X64146Y-36474D01*
X63953Y-36554D01*
X63805Y-36702D01*
X63725Y-36895D01*
X63724Y-37103D01*
X63804Y-37297D01*
X63952Y-37444D01*
X64145Y-37524D01*
X64353Y-37525D01*
X64547Y-37445D01*
X64692Y-37299D01*
X64706Y-37332D01*
X64827Y-37351D01*
X65179Y-37000D01*
X65179Y-37141D01*
X64898Y-37422D01*
X64917Y-37543D01*
X65150Y-37629D01*
X65398Y-37619D01*
X65582Y-37543D01*
X65601Y-37422D01*
X65601Y-39609D01*
X65547Y-39555D01*
X65354Y-39475D01*
X65146Y-39474D01*
X64953Y-39554D01*
X64805Y-39702D01*
X64749Y-39835D01*
X64695Y-39703D01*
X64547Y-39555D01*
X64354Y-39475D01*
X64146Y-39474D01*
X63953Y-39554D01*
X63805Y-39702D01*
X63725Y-39895D01*
X63724Y-40103D01*
X63800Y-40285D01*
X63800Y-40663D01*
X63181Y-41281D01*
X63084Y-41427D01*
X63050Y-41600D01*
X63050Y-42214D01*
X62975Y-42395D01*
X62974Y-42603D01*
X63028Y-42734D01*
X62381Y-43381D01*
X62284Y-43527D01*
X62250Y-43700D01*
X62250Y-46800D01*
X62284Y-46972D01*
X62381Y-47118D01*
X63111Y-47847D01*
X63111Y-48080D01*
X63111Y-48150D01*
X63082Y-48179D01*
X62996Y-48387D01*
X62995Y-48611D01*
X63081Y-48819D01*
X63240Y-48978D01*
X63448Y-49064D01*
X63672Y-49065D01*
X63880Y-48979D01*
X64039Y-48820D01*
X64125Y-48612D01*
X64126Y-48388D01*
X64040Y-48180D01*
X64011Y-48151D01*
X64011Y-48080D01*
X64011Y-47661D01*
X63976Y-47488D01*
X63879Y-47342D01*
X63150Y-46613D01*
X63150Y-44892D01*
X63202Y-44944D01*
X63395Y-45024D01*
X63603Y-45025D01*
X63785Y-44950D01*
X63813Y-44950D01*
X64181Y-45318D01*
X64327Y-45415D01*
X64500Y-45450D01*
X64964Y-45450D01*
X65145Y-45524D01*
X65353Y-45525D01*
X65547Y-45445D01*
X65694Y-45297D01*
X65774Y-45104D01*
X65775Y-44896D01*
X65695Y-44703D01*
X65547Y-44555D01*
X65354Y-44475D01*
X65146Y-44474D01*
X64964Y-44550D01*
X64686Y-44550D01*
X64318Y-44181D01*
X64172Y-44084D01*
X64000Y-44050D01*
X66213Y-44050D01*
X66550Y-44386D01*
X66550Y-44714D01*
X66475Y-44895D01*
X66474Y-45103D01*
X66554Y-45297D01*
X66702Y-45444D01*
X66895Y-45524D01*
X67103Y-45525D01*
X67297Y-45445D01*
X67444Y-45297D01*
X67524Y-45104D01*
X67525Y-44896D01*
X67525Y-47965D01*
X67421Y-48008D01*
X67302Y-48126D01*
X67212Y-48108D01*
X67141Y-48179D01*
X67141Y-48037D01*
X67116Y-47911D01*
X66862Y-47815D01*
X66592Y-47824D01*
X66383Y-47911D01*
X66358Y-48037D01*
X66750Y-48429D01*
X67141Y-48037D01*
X67141Y-48179D01*
X66820Y-48500D01*
X67212Y-48891D01*
X67303Y-48873D01*
X67421Y-48991D01*
X67634Y-49079D01*
X67864Y-49080D01*
X68078Y-48991D01*
X68241Y-48828D01*
X68329Y-48615D01*
X68330Y-48385D01*
X68330Y-49675D01*
X67141Y-49675D01*
X67141Y-48962D01*
X66750Y-48570D01*
X66679Y-48641D01*
X66679Y-48500D01*
X66287Y-48108D01*
X66161Y-48133D01*
X66065Y-48387D01*
X66074Y-48657D01*
X66161Y-48866D01*
X66287Y-48891D01*
X66679Y-48500D01*
X66679Y-48641D01*
X66358Y-48962D01*
X66383Y-49088D01*
X66637Y-49184D01*
X66907Y-49175D01*
X67116Y-49088D01*
X67141Y-48962D01*
X67141Y-49675D01*
X65504Y-49675D01*
X65504Y-48765D01*
X65504Y-48135D01*
X65466Y-48043D01*
X65395Y-47973D01*
X65303Y-47935D01*
X65204Y-47934D01*
X64574Y-47934D01*
X64482Y-47972D01*
X64412Y-48043D01*
X64374Y-48135D01*
X64373Y-48234D01*
X64373Y-48864D01*
X64411Y-48956D01*
X64482Y-49026D01*
X64574Y-49064D01*
X64673Y-49065D01*
X65303Y-49065D01*
X65395Y-49027D01*
X65465Y-48956D01*
X65503Y-48864D01*
X65504Y-48765D01*
X65504Y-49675D01*
X62330Y-49675D01*
X62330Y-48385D01*
X62241Y-48171D01*
X62078Y-48008D01*
X61865Y-47920D01*
X61635Y-47919D01*
X61525Y-47965D01*
X61525Y-44896D01*
X61450Y-44714D01*
X61450Y-44200D01*
X61449Y-44199D01*
X61415Y-44027D01*
X61415Y-44027D01*
X61383Y-43979D01*
X61318Y-43881D01*
X61318Y-43881D01*
X60618Y-43181D01*
X60472Y-43084D01*
X60300Y-43050D01*
X58086Y-43050D01*
X57950Y-42913D01*
X57950Y-42785D01*
X58024Y-42604D01*
X58025Y-42396D01*
X57950Y-42214D01*
X57950Y-41786D01*
X58568Y-41168D01*
X58568Y-41168D01*
X58568Y-41168D01*
X58665Y-41022D01*
X58665Y-41022D01*
X58699Y-40850D01*
X58700Y-40850D01*
X58700Y-40285D01*
X58750Y-40164D01*
X58804Y-40297D01*
X58952Y-40444D01*
X59145Y-40524D01*
X59353Y-40525D01*
X59547Y-40445D01*
X59694Y-40297D01*
X59750Y-40164D01*
X59800Y-40285D01*
X59800Y-40850D01*
X59834Y-41022D01*
X59931Y-41168D01*
X60313Y-41550D01*
X59535Y-41550D01*
X59354Y-41475D01*
X59146Y-41474D01*
X58953Y-41554D01*
X58805Y-41702D01*
X58725Y-41895D01*
X58724Y-42103D01*
X58804Y-42297D01*
X58952Y-42444D01*
X59145Y-42524D01*
X59353Y-42525D01*
X59535Y-42450D01*
X60714Y-42450D01*
X60895Y-42524D01*
X61103Y-42525D01*
X61297Y-42445D01*
X61444Y-42297D01*
X61524Y-42104D01*
X61525Y-41896D01*
X61450Y-41714D01*
X61450Y-41600D01*
X61449Y-41599D01*
X61415Y-41427D01*
X61415Y-41427D01*
X61318Y-41281D01*
X61318Y-41281D01*
X60700Y-40663D01*
X60700Y-40285D01*
X60774Y-40104D01*
X60775Y-39896D01*
X60695Y-39703D01*
X60547Y-39555D01*
X60354Y-39475D01*
X60146Y-39474D01*
X59953Y-39554D01*
X59805Y-39702D01*
X59749Y-39835D01*
X59695Y-39703D01*
X59547Y-39555D01*
X59354Y-39475D01*
X59146Y-39474D01*
X58953Y-39554D01*
X58805Y-39702D01*
X58749Y-39835D01*
X58695Y-39703D01*
X58547Y-39555D01*
X58354Y-39475D01*
X58146Y-39474D01*
X57953Y-39554D01*
X57805Y-39702D01*
X57725Y-39895D01*
X57724Y-40103D01*
X57800Y-40285D01*
X57800Y-40663D01*
X57181Y-41281D01*
X57084Y-41427D01*
X57050Y-41600D01*
X57050Y-42213D01*
X56381Y-42881D01*
X56284Y-43027D01*
X56250Y-43200D01*
X56250Y-45600D01*
X56284Y-45772D01*
X56381Y-45918D01*
X57111Y-46647D01*
X57111Y-47480D01*
X57111Y-48150D01*
X57082Y-48179D01*
X56996Y-48387D01*
X56995Y-48611D01*
X57081Y-48819D01*
X57240Y-48978D01*
X57448Y-49064D01*
X57672Y-49065D01*
X57880Y-48979D01*
X58039Y-48820D01*
X58125Y-48612D01*
X58126Y-48388D01*
X58040Y-48180D01*
X58011Y-48151D01*
X58011Y-47480D01*
X58011Y-46461D01*
X57976Y-46288D01*
X57879Y-46142D01*
X57150Y-45413D01*
X57150Y-44892D01*
X57202Y-44944D01*
X57395Y-45024D01*
X57603Y-45025D01*
X57785Y-44950D01*
X58013Y-44950D01*
X58281Y-45218D01*
X58281Y-45218D01*
X58427Y-45315D01*
X58427Y-45315D01*
X58599Y-45349D01*
X58600Y-45350D01*
X58857Y-45350D01*
X58952Y-45444D01*
X59145Y-45524D01*
X59353Y-45525D01*
X59547Y-45445D01*
X59694Y-45297D01*
X59774Y-45104D01*
X59775Y-44896D01*
X59695Y-44703D01*
X59547Y-44555D01*
X59354Y-44475D01*
X59275Y-44475D01*
X59150Y-44450D01*
X58786Y-44450D01*
X58518Y-44181D01*
X58372Y-44084D01*
X58200Y-44050D01*
X57785Y-44050D01*
X57604Y-43975D01*
X57396Y-43974D01*
X57203Y-44054D01*
X57150Y-44107D01*
X57150Y-43386D01*
X57156Y-43380D01*
X57181Y-43418D01*
X57581Y-43818D01*
X57581Y-43818D01*
X57727Y-43915D01*
X57727Y-43915D01*
X57899Y-43949D01*
X57900Y-43950D01*
X60113Y-43950D01*
X60550Y-44386D01*
X60550Y-44714D01*
X60475Y-44895D01*
X60474Y-45103D01*
X60554Y-45297D01*
X60702Y-45444D01*
X60895Y-45524D01*
X61103Y-45525D01*
X61297Y-45445D01*
X61444Y-45297D01*
X61524Y-45104D01*
X61525Y-44896D01*
X61525Y-47965D01*
X61421Y-48008D01*
X61302Y-48126D01*
X61212Y-48108D01*
X61141Y-48179D01*
X61141Y-48037D01*
X61116Y-47911D01*
X60862Y-47815D01*
X60592Y-47824D01*
X60383Y-47911D01*
X60358Y-48037D01*
X60750Y-48429D01*
X61141Y-48037D01*
X61141Y-48179D01*
X60820Y-48500D01*
X61212Y-48891D01*
X61303Y-48873D01*
X61421Y-48991D01*
X61634Y-49079D01*
X61864Y-49080D01*
X62078Y-48991D01*
X62241Y-48828D01*
X62329Y-48615D01*
X62330Y-48385D01*
X62330Y-49675D01*
X61141Y-49675D01*
X61141Y-48962D01*
X60750Y-48570D01*
X60679Y-48641D01*
X60679Y-48500D01*
X60287Y-48108D01*
X60161Y-48133D01*
X60065Y-48387D01*
X60074Y-48657D01*
X60161Y-48866D01*
X60287Y-48891D01*
X60679Y-48500D01*
X60679Y-48641D01*
X60358Y-48962D01*
X60383Y-49088D01*
X60637Y-49184D01*
X60907Y-49175D01*
X61116Y-49088D01*
X61141Y-48962D01*
X61141Y-49675D01*
X59504Y-49675D01*
X59504Y-48765D01*
X59504Y-48135D01*
X59466Y-48043D01*
X59395Y-47973D01*
X59303Y-47935D01*
X59204Y-47934D01*
X58574Y-47934D01*
X58482Y-47972D01*
X58412Y-48043D01*
X58374Y-48135D01*
X58373Y-48234D01*
X58373Y-48864D01*
X58411Y-48956D01*
X58482Y-49026D01*
X58574Y-49064D01*
X58673Y-49065D01*
X59303Y-49065D01*
X59395Y-49027D01*
X59465Y-48956D01*
X59503Y-48864D01*
X59504Y-48765D01*
X59504Y-49675D01*
X56330Y-49675D01*
X56330Y-48385D01*
X56241Y-48171D01*
X56078Y-48008D01*
X55865Y-47920D01*
X55635Y-47919D01*
X55421Y-48008D01*
X55302Y-48126D01*
X55212Y-48108D01*
X55141Y-48179D01*
X55141Y-48037D01*
X55116Y-47911D01*
X54862Y-47815D01*
X54592Y-47824D01*
X54383Y-47911D01*
X54358Y-48037D01*
X54750Y-48429D01*
X55141Y-48037D01*
X55141Y-48179D01*
X54820Y-48500D01*
X55212Y-48891D01*
X55303Y-48873D01*
X55421Y-48991D01*
X55634Y-49079D01*
X55864Y-49080D01*
X56078Y-48991D01*
X56241Y-48828D01*
X56329Y-48615D01*
X56330Y-48385D01*
X56330Y-49675D01*
X55141Y-49675D01*
X55141Y-48962D01*
X54750Y-48570D01*
X54679Y-48641D01*
X54679Y-48500D01*
X54287Y-48108D01*
X54161Y-48133D01*
X54065Y-48387D01*
X54074Y-48657D01*
X54161Y-48866D01*
X54287Y-48891D01*
X54679Y-48500D01*
X54679Y-48641D01*
X54358Y-48962D01*
X54383Y-49088D01*
X54637Y-49184D01*
X54907Y-49175D01*
X55116Y-49088D01*
X55141Y-48962D01*
X55141Y-49675D01*
X53504Y-49675D01*
X53504Y-48765D01*
X53504Y-48135D01*
X53466Y-48043D01*
X53395Y-47973D01*
X53303Y-47935D01*
X53204Y-47934D01*
X52574Y-47934D01*
X52482Y-47972D01*
X52412Y-48043D01*
X52374Y-48135D01*
X52373Y-48234D01*
X52373Y-48864D01*
X52411Y-48956D01*
X52482Y-49026D01*
X52574Y-49064D01*
X52673Y-49065D01*
X53303Y-49065D01*
X53395Y-49027D01*
X53465Y-48956D01*
X53503Y-48864D01*
X53504Y-48765D01*
X53504Y-49675D01*
X49141Y-49675D01*
X49141Y-48962D01*
X48750Y-48570D01*
X48679Y-48641D01*
X48679Y-48500D01*
X48287Y-48108D01*
X48161Y-48133D01*
X48065Y-48387D01*
X48074Y-48657D01*
X48161Y-48866D01*
X48287Y-48891D01*
X48679Y-48500D01*
X48679Y-48641D01*
X48358Y-48962D01*
X48383Y-49088D01*
X48637Y-49184D01*
X48907Y-49175D01*
X49116Y-49088D01*
X49141Y-48962D01*
X49141Y-49675D01*
X47504Y-49675D01*
X47504Y-48765D01*
X47504Y-48135D01*
X47466Y-48043D01*
X47395Y-47973D01*
X47303Y-47935D01*
X47204Y-47934D01*
X46574Y-47934D01*
X46482Y-47972D01*
X46412Y-48043D01*
X46374Y-48135D01*
X46373Y-48234D01*
X46373Y-48864D01*
X46411Y-48956D01*
X46482Y-49026D01*
X46574Y-49064D01*
X46673Y-49065D01*
X47303Y-49065D01*
X47395Y-49027D01*
X47465Y-48956D01*
X47503Y-48864D01*
X47504Y-48765D01*
X47504Y-49675D01*
X43141Y-49675D01*
X43141Y-48962D01*
X42750Y-48570D01*
X42679Y-48641D01*
X42679Y-48500D01*
X42287Y-48108D01*
X42161Y-48133D01*
X42065Y-48387D01*
X42074Y-48657D01*
X42161Y-48866D01*
X42287Y-48891D01*
X42679Y-48500D01*
X42679Y-48641D01*
X42358Y-48962D01*
X42383Y-49088D01*
X42637Y-49184D01*
X42907Y-49175D01*
X43116Y-49088D01*
X43141Y-48962D01*
X43141Y-49675D01*
X41504Y-49675D01*
X41504Y-48765D01*
X41504Y-48135D01*
X41466Y-48043D01*
X41395Y-47973D01*
X41303Y-47935D01*
X41204Y-47934D01*
X40574Y-47934D01*
X40482Y-47972D01*
X40412Y-48043D01*
X40374Y-48135D01*
X40373Y-48234D01*
X40373Y-48864D01*
X40411Y-48956D01*
X40482Y-49026D01*
X40574Y-49064D01*
X40673Y-49065D01*
X41303Y-49065D01*
X41395Y-49027D01*
X41465Y-48956D01*
X41503Y-48864D01*
X41504Y-48765D01*
X41504Y-49675D01*
X38330Y-49675D01*
X38330Y-48385D01*
X38241Y-48171D01*
X38078Y-48008D01*
X37865Y-47920D01*
X37635Y-47919D01*
X37525Y-47965D01*
X37525Y-44896D01*
X37450Y-44714D01*
X37450Y-44250D01*
X37449Y-44249D01*
X37415Y-44077D01*
X37415Y-44077D01*
X37318Y-43931D01*
X37318Y-43931D01*
X36568Y-43181D01*
X36422Y-43084D01*
X36250Y-43050D01*
X34186Y-43050D01*
X33950Y-42813D01*
X33950Y-42785D01*
X34024Y-42604D01*
X34025Y-42396D01*
X34014Y-42371D01*
X34568Y-41818D01*
X34568Y-41818D01*
X34568Y-41818D01*
X34665Y-41672D01*
X34665Y-41672D01*
X34699Y-41500D01*
X34700Y-41500D01*
X34700Y-40285D01*
X34750Y-40164D01*
X34804Y-40297D01*
X34952Y-40444D01*
X35145Y-40524D01*
X35353Y-40525D01*
X35547Y-40445D01*
X35694Y-40297D01*
X35750Y-40164D01*
X35800Y-40285D01*
X35800Y-41250D01*
X35834Y-41422D01*
X35919Y-41550D01*
X35535Y-41550D01*
X35354Y-41475D01*
X35146Y-41474D01*
X34953Y-41554D01*
X34805Y-41702D01*
X34725Y-41895D01*
X34724Y-42103D01*
X34804Y-42297D01*
X34952Y-42444D01*
X35145Y-42524D01*
X35353Y-42525D01*
X35535Y-42450D01*
X36714Y-42450D01*
X36895Y-42524D01*
X37103Y-42525D01*
X37297Y-42445D01*
X37444Y-42297D01*
X37524Y-42104D01*
X37525Y-41896D01*
X37445Y-41703D01*
X37297Y-41555D01*
X37116Y-41479D01*
X36700Y-41063D01*
X36700Y-40285D01*
X36774Y-40104D01*
X36775Y-39896D01*
X36695Y-39703D01*
X36547Y-39555D01*
X36354Y-39475D01*
X36146Y-39474D01*
X35953Y-39554D01*
X35805Y-39702D01*
X35749Y-39835D01*
X35695Y-39703D01*
X35601Y-39609D01*
X35601Y-37422D01*
X35250Y-37070D01*
X35179Y-37141D01*
X35179Y-37000D01*
X34827Y-36648D01*
X34706Y-36667D01*
X34693Y-36701D01*
X34547Y-36555D01*
X34354Y-36475D01*
X34146Y-36474D01*
X33953Y-36554D01*
X33805Y-36702D01*
X33725Y-36895D01*
X33724Y-37103D01*
X33804Y-37297D01*
X33952Y-37444D01*
X34145Y-37524D01*
X34353Y-37525D01*
X34547Y-37445D01*
X34692Y-37299D01*
X34706Y-37332D01*
X34827Y-37351D01*
X35179Y-37000D01*
X35179Y-37141D01*
X34898Y-37422D01*
X34917Y-37543D01*
X35150Y-37629D01*
X35398Y-37619D01*
X35582Y-37543D01*
X35601Y-37422D01*
X35601Y-39609D01*
X35547Y-39555D01*
X35354Y-39475D01*
X35146Y-39474D01*
X34953Y-39554D01*
X34805Y-39702D01*
X34749Y-39835D01*
X34695Y-39703D01*
X34547Y-39555D01*
X34354Y-39475D01*
X34146Y-39474D01*
X33953Y-39554D01*
X33805Y-39702D01*
X33725Y-39895D01*
X33724Y-40103D01*
X33800Y-40285D01*
X33800Y-41313D01*
X33181Y-41931D01*
X33084Y-42077D01*
X33060Y-42196D01*
X33055Y-42202D01*
X32975Y-42395D01*
X32974Y-42603D01*
X33050Y-42785D01*
X33050Y-42913D01*
X32381Y-43581D01*
X32284Y-43727D01*
X32250Y-43900D01*
X32250Y-47000D01*
X32284Y-47172D01*
X32381Y-47318D01*
X33110Y-48047D01*
X33110Y-48150D01*
X33082Y-48179D01*
X32996Y-48387D01*
X32995Y-48611D01*
X33081Y-48819D01*
X33240Y-48978D01*
X33448Y-49064D01*
X33672Y-49065D01*
X33880Y-48979D01*
X34039Y-48820D01*
X34125Y-48612D01*
X34126Y-48388D01*
X34040Y-48180D01*
X34010Y-48151D01*
X34010Y-47861D01*
X34011Y-47861D01*
X33976Y-47688D01*
X33879Y-47542D01*
X33150Y-46813D01*
X33150Y-44892D01*
X33202Y-44944D01*
X33395Y-45024D01*
X33603Y-45025D01*
X33785Y-44950D01*
X34063Y-44950D01*
X34431Y-45318D01*
X34577Y-45415D01*
X34750Y-45450D01*
X34964Y-45450D01*
X35145Y-45524D01*
X35353Y-45525D01*
X35547Y-45445D01*
X35694Y-45297D01*
X35774Y-45104D01*
X35775Y-44896D01*
X35695Y-44703D01*
X35547Y-44555D01*
X35354Y-44475D01*
X35146Y-44474D01*
X34964Y-44550D01*
X34936Y-44550D01*
X34568Y-44181D01*
X34422Y-44084D01*
X34250Y-44050D01*
X33785Y-44050D01*
X33604Y-43975D01*
X33396Y-43974D01*
X33203Y-44054D01*
X33150Y-44107D01*
X33150Y-44086D01*
X33550Y-43686D01*
X33681Y-43818D01*
X33827Y-43915D01*
X34000Y-43950D01*
X36063Y-43950D01*
X36550Y-44436D01*
X36550Y-44714D01*
X36475Y-44895D01*
X36474Y-45103D01*
X36554Y-45297D01*
X36702Y-45444D01*
X36895Y-45524D01*
X37103Y-45525D01*
X37297Y-45445D01*
X37444Y-45297D01*
X37524Y-45104D01*
X37525Y-44896D01*
X37525Y-47965D01*
X37421Y-48008D01*
X37302Y-48126D01*
X37212Y-48108D01*
X37141Y-48179D01*
X37141Y-48037D01*
X37116Y-47911D01*
X36862Y-47815D01*
X36592Y-47824D01*
X36383Y-47911D01*
X36358Y-48037D01*
X36750Y-48429D01*
X37141Y-48037D01*
X37141Y-48179D01*
X36820Y-48500D01*
X37212Y-48891D01*
X37303Y-48873D01*
X37421Y-48991D01*
X37634Y-49079D01*
X37864Y-49080D01*
X38078Y-48991D01*
X38241Y-48828D01*
X38329Y-48615D01*
X38330Y-48385D01*
X38330Y-49675D01*
X37141Y-49675D01*
X37141Y-48962D01*
X36750Y-48570D01*
X36679Y-48641D01*
X36679Y-48500D01*
X36287Y-48108D01*
X36161Y-48133D01*
X36065Y-48387D01*
X36074Y-48657D01*
X36161Y-48866D01*
X36287Y-48891D01*
X36679Y-48500D01*
X36679Y-48641D01*
X36358Y-48962D01*
X36383Y-49088D01*
X36637Y-49184D01*
X36907Y-49175D01*
X37116Y-49088D01*
X37141Y-48962D01*
X37141Y-49675D01*
X35504Y-49675D01*
X35504Y-48765D01*
X35504Y-48135D01*
X35466Y-48043D01*
X35395Y-47973D01*
X35303Y-47935D01*
X35204Y-47934D01*
X34574Y-47934D01*
X34482Y-47972D01*
X34412Y-48043D01*
X34374Y-48135D01*
X34373Y-48234D01*
X34373Y-48864D01*
X34411Y-48956D01*
X34482Y-49026D01*
X34574Y-49064D01*
X34673Y-49065D01*
X35303Y-49065D01*
X35395Y-49027D01*
X35465Y-48956D01*
X35503Y-48864D01*
X35504Y-48765D01*
X35504Y-49675D01*
X31347Y-49675D01*
X31512Y-49510D01*
X31649Y-49179D01*
X31650Y-48821D01*
X31513Y-48490D01*
X31260Y-48237D01*
X30929Y-48100D01*
X30571Y-48099D01*
X30240Y-48236D01*
X30075Y-48402D01*
X30075Y-21097D01*
X30239Y-21262D01*
X30570Y-21399D01*
X30928Y-21400D01*
X31259Y-21263D01*
X31512Y-21010D01*
X31649Y-20679D01*
X31650Y-20321D01*
X31513Y-19990D01*
X31347Y-19825D01*
X41680Y-19825D01*
X41599Y-19905D01*
X41382Y-19904D01*
X41163Y-19995D01*
X40995Y-20162D01*
X40905Y-20381D01*
X40904Y-20617D01*
X40995Y-20836D01*
X41158Y-21000D01*
X40995Y-21162D01*
X40905Y-21381D01*
X40904Y-21617D01*
X40995Y-21836D01*
X41158Y-22000D01*
X40995Y-22162D01*
X40905Y-22381D01*
X40905Y-22410D01*
X40292Y-21797D01*
X40178Y-21721D01*
X40044Y-21694D01*
X34530Y-21694D01*
X34396Y-21721D01*
X34282Y-21797D01*
X34079Y-22000D01*
X33856Y-21999D01*
X33635Y-22091D01*
X33466Y-22259D01*
X33375Y-22480D01*
X33374Y-22718D01*
X33466Y-22939D01*
X33626Y-23100D01*
X33466Y-23259D01*
X33375Y-23480D01*
X33374Y-23718D01*
X33466Y-23939D01*
X33626Y-24100D01*
X33466Y-24259D01*
X33375Y-24480D01*
X33374Y-24705D01*
X33176Y-24903D01*
X33100Y-25017D01*
X33073Y-25151D01*
X33073Y-26833D01*
X33100Y-26967D01*
X33176Y-27081D01*
X33347Y-27252D01*
X33231Y-27368D01*
X33167Y-27524D01*
X33166Y-27693D01*
X33231Y-27849D01*
X33350Y-27969D01*
X33507Y-28034D01*
X33521Y-28034D01*
X35235Y-29747D01*
X35348Y-29823D01*
X35482Y-29850D01*
X41008Y-29850D01*
X41158Y-30000D01*
X40995Y-30162D01*
X40905Y-30381D01*
X40905Y-30440D01*
X40883Y-30426D01*
X40750Y-30400D01*
X36927Y-30400D01*
X36811Y-30284D01*
X36609Y-30200D01*
X36391Y-30199D01*
X36188Y-30283D01*
X36034Y-30438D01*
X35950Y-30640D01*
X35949Y-30858D01*
X36033Y-31061D01*
X36188Y-31215D01*
X36390Y-31299D01*
X36608Y-31300D01*
X36811Y-31216D01*
X36927Y-31100D01*
X40605Y-31100D01*
X40905Y-31400D01*
X40904Y-31617D01*
X40995Y-31836D01*
X41158Y-32000D01*
X41122Y-32036D01*
X34323Y-32036D01*
X34189Y-32062D01*
X34076Y-32138D01*
X33814Y-32400D01*
X33776Y-32363D01*
X33684Y-32325D01*
X33585Y-32324D01*
X33050Y-32324D01*
X33050Y-30641D01*
X32966Y-30438D01*
X32811Y-30284D01*
X32609Y-30200D01*
X32391Y-30199D01*
X32188Y-30283D01*
X32034Y-30438D01*
X31950Y-30640D01*
X31949Y-30858D01*
X32033Y-31061D01*
X32188Y-31215D01*
X32390Y-31299D01*
X32608Y-31300D01*
X32811Y-31216D01*
X32965Y-31061D01*
X33049Y-30859D01*
X33050Y-30641D01*
X33050Y-32324D01*
X32985Y-32324D01*
X32893Y-32362D01*
X32823Y-32433D01*
X32785Y-32525D01*
X32785Y-32547D01*
X32646Y-32409D01*
X32444Y-32325D01*
X32226Y-32324D01*
X32023Y-32408D01*
X31869Y-32563D01*
X31785Y-32765D01*
X31784Y-32983D01*
X31868Y-33186D01*
X32023Y-33340D01*
X32225Y-33424D01*
X32443Y-33425D01*
X32646Y-33341D01*
X32784Y-33202D01*
X32784Y-33224D01*
X32822Y-33316D01*
X32893Y-33386D01*
X32985Y-33424D01*
X33084Y-33425D01*
X33684Y-33425D01*
X33776Y-33387D01*
X33846Y-33316D01*
X33884Y-33224D01*
X33884Y-33215D01*
X33969Y-33198D01*
X33969Y-33198D01*
X34082Y-33122D01*
X34468Y-32736D01*
X34759Y-32736D01*
X34745Y-32770D01*
X34744Y-32978D01*
X34824Y-33172D01*
X34972Y-33319D01*
X35165Y-33399D01*
X35373Y-33400D01*
X35567Y-33320D01*
X35714Y-33172D01*
X35794Y-32979D01*
X35795Y-32771D01*
X35780Y-32736D01*
X36654Y-32736D01*
X36640Y-32775D01*
X36650Y-33023D01*
X36726Y-33207D01*
X36847Y-33226D01*
X37199Y-32875D01*
X37193Y-32869D01*
X37264Y-32798D01*
X37270Y-32804D01*
X37275Y-32798D01*
X37346Y-32869D01*
X37340Y-32875D01*
X37692Y-33226D01*
X37813Y-33207D01*
X37899Y-32974D01*
X37890Y-32736D01*
X40953Y-32736D01*
X40995Y-32836D01*
X41113Y-32954D01*
X41097Y-33026D01*
X41500Y-33429D01*
X41902Y-33026D01*
X41886Y-32954D01*
X42004Y-32837D01*
X42094Y-32618D01*
X42095Y-32382D01*
X42004Y-32163D01*
X41841Y-31999D01*
X42004Y-31837D01*
X42094Y-31618D01*
X42095Y-31382D01*
X42004Y-31163D01*
X41841Y-30999D01*
X42004Y-30837D01*
X42094Y-30618D01*
X42095Y-30382D01*
X42004Y-30163D01*
X41841Y-29999D01*
X42004Y-29837D01*
X42094Y-29618D01*
X42095Y-29382D01*
X42004Y-29163D01*
X41841Y-28999D01*
X42004Y-28837D01*
X42094Y-28618D01*
X42095Y-28382D01*
X42004Y-28163D01*
X41841Y-27999D01*
X42004Y-27837D01*
X42094Y-27618D01*
X42095Y-27382D01*
X42004Y-27163D01*
X41841Y-26999D01*
X42004Y-26837D01*
X42094Y-26618D01*
X42095Y-26382D01*
X42004Y-26163D01*
X41841Y-25999D01*
X42004Y-25837D01*
X42094Y-25618D01*
X42095Y-25382D01*
X42004Y-25163D01*
X41841Y-24999D01*
X42004Y-24837D01*
X42094Y-24618D01*
X42095Y-24382D01*
X42004Y-24163D01*
X41841Y-23999D01*
X42004Y-23837D01*
X42094Y-23618D01*
X42095Y-23382D01*
X42004Y-23163D01*
X41841Y-22999D01*
X42004Y-22837D01*
X42094Y-22618D01*
X42094Y-22589D01*
X44795Y-25290D01*
X44795Y-33528D01*
X44821Y-33662D01*
X44897Y-33776D01*
X46371Y-35250D01*
X42745Y-35250D01*
X42198Y-34704D01*
X42198Y-33616D01*
X42190Y-33340D01*
X42101Y-33124D01*
X41973Y-33097D01*
X41570Y-33500D01*
X41973Y-33902D01*
X42101Y-33875D01*
X42198Y-33616D01*
X42198Y-34704D01*
X42094Y-34599D01*
X42095Y-34382D01*
X42004Y-34163D01*
X41886Y-34045D01*
X41902Y-33973D01*
X41500Y-33570D01*
X41429Y-33641D01*
X41429Y-33500D01*
X41026Y-33097D01*
X40898Y-33124D01*
X40801Y-33383D01*
X40809Y-33659D01*
X40898Y-33875D01*
X41026Y-33902D01*
X41429Y-33500D01*
X41429Y-33641D01*
X41097Y-33973D01*
X41113Y-34045D01*
X40995Y-34162D01*
X40905Y-34381D01*
X40904Y-34617D01*
X40995Y-34836D01*
X41162Y-35004D01*
X41381Y-35094D01*
X41600Y-35095D01*
X42232Y-35727D01*
X37647Y-35727D01*
X37621Y-35732D01*
X37621Y-33297D01*
X37270Y-32945D01*
X36918Y-33297D01*
X36937Y-33418D01*
X37170Y-33504D01*
X37418Y-33494D01*
X37602Y-33418D01*
X37621Y-33297D01*
X37621Y-35732D01*
X37513Y-35754D01*
X37399Y-35830D01*
X36691Y-36538D01*
X36666Y-36513D01*
X36574Y-36475D01*
X36475Y-36474D01*
X35925Y-36474D01*
X35833Y-36512D01*
X35763Y-36583D01*
X35732Y-36657D01*
X35672Y-36648D01*
X35601Y-36718D01*
X35601Y-36577D01*
X35582Y-36456D01*
X35349Y-36370D01*
X35101Y-36380D01*
X34917Y-36456D01*
X34898Y-36577D01*
X35250Y-36929D01*
X35601Y-36577D01*
X35601Y-36718D01*
X35320Y-37000D01*
X35672Y-37351D01*
X35732Y-37342D01*
X35762Y-37416D01*
X35833Y-37486D01*
X35925Y-37524D01*
X36024Y-37525D01*
X36574Y-37525D01*
X36666Y-37487D01*
X36736Y-37416D01*
X36768Y-37341D01*
X36859Y-37323D01*
X36859Y-37323D01*
X36972Y-37247D01*
X37792Y-36427D01*
X40987Y-36427D01*
X40917Y-36456D01*
X40898Y-36577D01*
X41250Y-36929D01*
X41601Y-36577D01*
X41582Y-36456D01*
X41504Y-36427D01*
X46676Y-36427D01*
X46686Y-36437D01*
X46842Y-36502D01*
X46909Y-36502D01*
X46898Y-36577D01*
X47250Y-36929D01*
X47601Y-36577D01*
X47582Y-36456D01*
X47349Y-36370D01*
X47230Y-36375D01*
X47287Y-36318D01*
X47352Y-36162D01*
X47352Y-35993D01*
X47334Y-35950D01*
X54091Y-35950D01*
X54225Y-35923D01*
X54225Y-35923D01*
X54338Y-35847D01*
X59661Y-30524D01*
X59830Y-30594D01*
X60039Y-30595D01*
X60232Y-30515D01*
X60379Y-30367D01*
X60459Y-30174D01*
X60460Y-30039D01*
X60634Y-29865D01*
X64487Y-29865D01*
X64475Y-29895D01*
X64474Y-30103D01*
X64554Y-30297D01*
X64702Y-30444D01*
X64895Y-30524D01*
X65103Y-30525D01*
X65297Y-30445D01*
X65444Y-30297D01*
X65500Y-30164D01*
X65554Y-30297D01*
X65650Y-30392D01*
X65650Y-32355D01*
X60775Y-37229D01*
X60775Y-37225D01*
X60775Y-36675D01*
X60737Y-36583D01*
X60666Y-36513D01*
X60574Y-36475D01*
X60475Y-36474D01*
X59925Y-36474D01*
X59833Y-36512D01*
X59763Y-36583D01*
X59732Y-36657D01*
X59672Y-36648D01*
X59601Y-36718D01*
X59601Y-36577D01*
X59582Y-36456D01*
X59349Y-36370D01*
X59101Y-36380D01*
X58917Y-36456D01*
X58898Y-36577D01*
X59250Y-36929D01*
X59601Y-36577D01*
X59601Y-36718D01*
X59320Y-37000D01*
X59672Y-37351D01*
X59732Y-37342D01*
X59762Y-37416D01*
X59796Y-37450D01*
X59597Y-37450D01*
X59601Y-37422D01*
X59250Y-37070D01*
X58898Y-37422D01*
X58902Y-37450D01*
X58535Y-37450D01*
X58547Y-37445D01*
X58692Y-37299D01*
X58706Y-37332D01*
X58827Y-37351D01*
X59179Y-37000D01*
X58827Y-36648D01*
X58706Y-36667D01*
X58693Y-36701D01*
X58547Y-36555D01*
X58354Y-36475D01*
X58146Y-36474D01*
X57953Y-36554D01*
X57805Y-36702D01*
X57725Y-36895D01*
X57724Y-37103D01*
X57804Y-37297D01*
X57952Y-37444D01*
X57964Y-37450D01*
X54703Y-37450D01*
X54736Y-37416D01*
X54774Y-37324D01*
X54775Y-37225D01*
X54775Y-36675D01*
X54737Y-36583D01*
X54666Y-36513D01*
X54574Y-36475D01*
X54475Y-36474D01*
X53925Y-36474D01*
X53833Y-36512D01*
X53763Y-36583D01*
X53732Y-36657D01*
X53672Y-36648D01*
X53601Y-36718D01*
X53601Y-36577D01*
X53582Y-36456D01*
X53349Y-36370D01*
X53101Y-36380D01*
X52917Y-36456D01*
X52898Y-36577D01*
X53250Y-36929D01*
X53601Y-36577D01*
X53601Y-36718D01*
X53320Y-37000D01*
X53672Y-37351D01*
X53732Y-37342D01*
X53762Y-37416D01*
X53796Y-37450D01*
X53597Y-37450D01*
X53601Y-37422D01*
X53250Y-37070D01*
X53179Y-37141D01*
X53179Y-37000D01*
X52827Y-36648D01*
X52706Y-36667D01*
X52693Y-36701D01*
X52547Y-36555D01*
X52354Y-36475D01*
X52146Y-36474D01*
X51953Y-36554D01*
X51805Y-36702D01*
X51725Y-36895D01*
X51724Y-37103D01*
X51804Y-37297D01*
X51952Y-37444D01*
X52145Y-37524D01*
X52353Y-37525D01*
X52547Y-37445D01*
X52692Y-37299D01*
X52706Y-37332D01*
X52827Y-37351D01*
X53179Y-37000D01*
X53179Y-37141D01*
X52898Y-37422D01*
X52902Y-37450D01*
X52800Y-37450D01*
X52666Y-37476D01*
X52552Y-37552D01*
X51405Y-38700D01*
X48775Y-38700D01*
X48775Y-37225D01*
X48775Y-36675D01*
X48737Y-36583D01*
X48666Y-36513D01*
X48574Y-36475D01*
X48475Y-36474D01*
X47925Y-36474D01*
X47833Y-36512D01*
X47763Y-36583D01*
X47732Y-36657D01*
X47672Y-36648D01*
X47320Y-37000D01*
X47672Y-37351D01*
X47732Y-37342D01*
X47762Y-37416D01*
X47833Y-37486D01*
X47925Y-37524D01*
X48024Y-37525D01*
X48574Y-37525D01*
X48666Y-37487D01*
X48736Y-37416D01*
X48774Y-37324D01*
X48775Y-37225D01*
X48775Y-38700D01*
X47601Y-38700D01*
X47601Y-37422D01*
X47250Y-37070D01*
X47179Y-37141D01*
X47179Y-37000D01*
X46827Y-36648D01*
X46706Y-36667D01*
X46693Y-36701D01*
X46547Y-36555D01*
X46354Y-36475D01*
X46146Y-36474D01*
X45953Y-36554D01*
X45805Y-36702D01*
X45725Y-36895D01*
X45724Y-37103D01*
X45804Y-37297D01*
X45952Y-37444D01*
X46145Y-37524D01*
X46353Y-37525D01*
X46547Y-37445D01*
X46692Y-37299D01*
X46706Y-37332D01*
X46827Y-37351D01*
X47179Y-37000D01*
X47179Y-37141D01*
X46898Y-37422D01*
X46917Y-37543D01*
X47150Y-37629D01*
X47398Y-37619D01*
X47582Y-37543D01*
X47601Y-37422D01*
X47601Y-38700D01*
X46250Y-38700D01*
X46116Y-38726D01*
X46002Y-38802D01*
X45402Y-39402D01*
X45326Y-39516D01*
X45300Y-39650D01*
X45300Y-40605D01*
X44652Y-41252D01*
X44576Y-41366D01*
X44550Y-41500D01*
X44550Y-42605D01*
X43952Y-43202D01*
X43876Y-43316D01*
X43850Y-43450D01*
X43850Y-47105D01*
X43525Y-47429D01*
X43525Y-44896D01*
X43450Y-44714D01*
X43450Y-44100D01*
X43415Y-43927D01*
X43318Y-43781D01*
X42818Y-43281D01*
X42672Y-43184D01*
X42500Y-43150D01*
X40186Y-43150D01*
X39950Y-42913D01*
X39950Y-42785D01*
X40024Y-42604D01*
X40025Y-42396D01*
X39950Y-42214D01*
X39950Y-42086D01*
X40568Y-41468D01*
X40568Y-41468D01*
X40568Y-41468D01*
X40665Y-41322D01*
X40665Y-41322D01*
X40699Y-41150D01*
X40700Y-41150D01*
X40700Y-40285D01*
X40750Y-40164D01*
X40804Y-40297D01*
X40952Y-40444D01*
X41145Y-40524D01*
X41353Y-40525D01*
X41547Y-40445D01*
X41694Y-40297D01*
X41750Y-40164D01*
X41800Y-40285D01*
X41800Y-40750D01*
X41834Y-40922D01*
X41931Y-41068D01*
X42413Y-41550D01*
X41535Y-41550D01*
X41354Y-41475D01*
X41146Y-41474D01*
X40953Y-41554D01*
X40805Y-41702D01*
X40725Y-41895D01*
X40724Y-42103D01*
X40804Y-42297D01*
X40952Y-42444D01*
X41145Y-42524D01*
X41353Y-42525D01*
X41535Y-42450D01*
X42714Y-42450D01*
X42895Y-42524D01*
X43103Y-42525D01*
X43297Y-42445D01*
X43444Y-42297D01*
X43524Y-42104D01*
X43525Y-41896D01*
X43450Y-41714D01*
X43450Y-41500D01*
X43449Y-41499D01*
X43415Y-41327D01*
X43415Y-41327D01*
X43318Y-41181D01*
X43318Y-41181D01*
X42700Y-40563D01*
X42700Y-40285D01*
X42774Y-40104D01*
X42775Y-39896D01*
X42775Y-39895D01*
X42775Y-37225D01*
X42775Y-36675D01*
X42737Y-36583D01*
X42666Y-36513D01*
X42574Y-36475D01*
X42475Y-36474D01*
X41925Y-36474D01*
X41833Y-36512D01*
X41763Y-36583D01*
X41732Y-36657D01*
X41672Y-36648D01*
X41320Y-37000D01*
X41672Y-37351D01*
X41732Y-37342D01*
X41762Y-37416D01*
X41833Y-37486D01*
X41925Y-37524D01*
X42024Y-37525D01*
X42574Y-37525D01*
X42666Y-37487D01*
X42736Y-37416D01*
X42774Y-37324D01*
X42775Y-37225D01*
X42775Y-39895D01*
X42695Y-39703D01*
X42547Y-39555D01*
X42354Y-39475D01*
X42146Y-39474D01*
X41953Y-39554D01*
X41805Y-39702D01*
X41749Y-39835D01*
X41695Y-39703D01*
X41601Y-39609D01*
X41601Y-37422D01*
X41250Y-37070D01*
X41179Y-37141D01*
X41179Y-37000D01*
X40827Y-36648D01*
X40706Y-36667D01*
X40693Y-36701D01*
X40547Y-36555D01*
X40354Y-36475D01*
X40146Y-36474D01*
X39953Y-36554D01*
X39805Y-36702D01*
X39725Y-36895D01*
X39724Y-37103D01*
X39804Y-37297D01*
X39952Y-37444D01*
X40145Y-37524D01*
X40353Y-37525D01*
X40547Y-37445D01*
X40692Y-37299D01*
X40706Y-37332D01*
X40827Y-37351D01*
X41179Y-37000D01*
X41179Y-37141D01*
X40898Y-37422D01*
X40917Y-37543D01*
X41150Y-37629D01*
X41398Y-37619D01*
X41582Y-37543D01*
X41601Y-37422D01*
X41601Y-39609D01*
X41547Y-39555D01*
X41354Y-39475D01*
X41146Y-39474D01*
X40953Y-39554D01*
X40805Y-39702D01*
X40749Y-39835D01*
X40695Y-39703D01*
X40547Y-39555D01*
X40354Y-39475D01*
X40146Y-39474D01*
X39953Y-39554D01*
X39805Y-39702D01*
X39725Y-39895D01*
X39724Y-40103D01*
X39800Y-40285D01*
X39800Y-40963D01*
X39181Y-41581D01*
X39084Y-41727D01*
X39050Y-41900D01*
X39050Y-42214D01*
X38975Y-42395D01*
X38975Y-42488D01*
X38381Y-43081D01*
X38284Y-43227D01*
X38250Y-43400D01*
X38250Y-46400D01*
X38284Y-46572D01*
X38381Y-46718D01*
X39111Y-47447D01*
X39111Y-47880D01*
X39111Y-48150D01*
X39082Y-48179D01*
X38996Y-48387D01*
X38995Y-48611D01*
X39081Y-48819D01*
X39240Y-48978D01*
X39448Y-49064D01*
X39672Y-49065D01*
X39880Y-48979D01*
X40039Y-48820D01*
X40125Y-48612D01*
X40126Y-48388D01*
X40040Y-48180D01*
X40011Y-48151D01*
X40011Y-47880D01*
X40011Y-47261D01*
X39976Y-47088D01*
X39879Y-46942D01*
X39150Y-46213D01*
X39150Y-44892D01*
X39202Y-44944D01*
X39395Y-45024D01*
X39603Y-45025D01*
X39785Y-44950D01*
X40113Y-44950D01*
X40481Y-45318D01*
X40627Y-45415D01*
X40800Y-45450D01*
X40964Y-45450D01*
X41145Y-45524D01*
X41353Y-45525D01*
X41547Y-45445D01*
X41694Y-45297D01*
X41774Y-45104D01*
X41775Y-44896D01*
X41695Y-44703D01*
X41547Y-44555D01*
X41354Y-44475D01*
X41146Y-44474D01*
X40979Y-44543D01*
X40618Y-44181D01*
X40472Y-44084D01*
X40300Y-44050D01*
X42313Y-44050D01*
X42550Y-44286D01*
X42550Y-44714D01*
X42475Y-44895D01*
X42474Y-45103D01*
X42554Y-45297D01*
X42702Y-45444D01*
X42895Y-45524D01*
X43103Y-45525D01*
X43297Y-45445D01*
X43444Y-45297D01*
X43524Y-45104D01*
X43525Y-44896D01*
X43525Y-47429D01*
X43502Y-47452D01*
X43426Y-47566D01*
X43400Y-47700D01*
X43400Y-48029D01*
X43302Y-48126D01*
X43212Y-48108D01*
X43141Y-48179D01*
X43141Y-48037D01*
X43116Y-47911D01*
X42862Y-47815D01*
X42592Y-47824D01*
X42383Y-47911D01*
X42358Y-48037D01*
X42750Y-48429D01*
X43141Y-48037D01*
X43141Y-48179D01*
X42820Y-48500D01*
X43212Y-48891D01*
X43303Y-48873D01*
X43421Y-48991D01*
X43634Y-49079D01*
X43864Y-49080D01*
X44078Y-48991D01*
X44241Y-48828D01*
X44329Y-48615D01*
X44330Y-48385D01*
X44241Y-48171D01*
X44100Y-48029D01*
X44100Y-47844D01*
X44447Y-47497D01*
X44523Y-47383D01*
X44523Y-47383D01*
X44550Y-47250D01*
X44550Y-46886D01*
X45111Y-47447D01*
X45111Y-47880D01*
X45111Y-48150D01*
X45082Y-48179D01*
X44996Y-48387D01*
X44995Y-48611D01*
X45081Y-48819D01*
X45240Y-48978D01*
X45448Y-49064D01*
X45672Y-49065D01*
X45880Y-48979D01*
X46039Y-48820D01*
X46125Y-48612D01*
X46126Y-48388D01*
X46040Y-48180D01*
X46011Y-48151D01*
X46011Y-47880D01*
X46011Y-47261D01*
X45976Y-47088D01*
X45879Y-46942D01*
X45150Y-46213D01*
X45150Y-44892D01*
X45202Y-44944D01*
X45395Y-45024D01*
X45603Y-45025D01*
X45785Y-44950D01*
X45913Y-44950D01*
X46281Y-45318D01*
X46427Y-45415D01*
X46600Y-45450D01*
X46964Y-45450D01*
X47145Y-45524D01*
X47353Y-45525D01*
X47547Y-45445D01*
X47694Y-45297D01*
X47774Y-45104D01*
X47775Y-44896D01*
X47695Y-44703D01*
X47547Y-44555D01*
X47354Y-44475D01*
X47146Y-44474D01*
X46964Y-44550D01*
X46786Y-44550D01*
X46418Y-44181D01*
X46272Y-44084D01*
X46100Y-44050D01*
X45785Y-44050D01*
X45604Y-43975D01*
X45396Y-43974D01*
X45203Y-44054D01*
X45150Y-44107D01*
X45150Y-43986D01*
X45549Y-43586D01*
X45881Y-43918D01*
X45881Y-43918D01*
X45979Y-43983D01*
X46027Y-44015D01*
X46027Y-44015D01*
X46199Y-44049D01*
X46200Y-44050D01*
X48413Y-44050D01*
X48550Y-44186D01*
X48550Y-44714D01*
X48475Y-44895D01*
X48474Y-45103D01*
X48554Y-45297D01*
X48702Y-45444D01*
X48895Y-45524D01*
X49103Y-45525D01*
X49297Y-45445D01*
X49444Y-45297D01*
X49524Y-45104D01*
X49525Y-44896D01*
X49450Y-44714D01*
X49450Y-44000D01*
X49449Y-43999D01*
X49415Y-43827D01*
X49415Y-43827D01*
X49318Y-43681D01*
X49318Y-43681D01*
X48918Y-43281D01*
X48772Y-43184D01*
X48600Y-43150D01*
X46386Y-43150D01*
X45971Y-42734D01*
X46024Y-42604D01*
X46025Y-42396D01*
X45950Y-42214D01*
X45950Y-41886D01*
X46568Y-41268D01*
X46568Y-41268D01*
X46568Y-41268D01*
X46665Y-41122D01*
X46665Y-41122D01*
X46699Y-40950D01*
X46700Y-40950D01*
X46700Y-40285D01*
X46750Y-40164D01*
X46804Y-40297D01*
X46952Y-40444D01*
X47145Y-40524D01*
X47353Y-40525D01*
X47547Y-40445D01*
X47694Y-40297D01*
X47750Y-40164D01*
X47800Y-40285D01*
X47800Y-40750D01*
X47834Y-40922D01*
X47931Y-41068D01*
X48413Y-41550D01*
X47535Y-41550D01*
X47354Y-41475D01*
X47146Y-41474D01*
X46953Y-41554D01*
X46805Y-41702D01*
X46725Y-41895D01*
X46724Y-42103D01*
X46804Y-42297D01*
X46952Y-42444D01*
X47145Y-42524D01*
X47353Y-42525D01*
X47535Y-42450D01*
X48714Y-42450D01*
X48895Y-42524D01*
X49103Y-42525D01*
X49297Y-42445D01*
X49444Y-42297D01*
X49524Y-42104D01*
X49525Y-41896D01*
X49450Y-41714D01*
X49450Y-41500D01*
X49449Y-41499D01*
X49415Y-41327D01*
X49415Y-41327D01*
X49318Y-41181D01*
X49318Y-41181D01*
X48700Y-40563D01*
X48700Y-40285D01*
X48774Y-40104D01*
X48775Y-39896D01*
X48695Y-39703D01*
X48547Y-39555D01*
X48354Y-39475D01*
X48146Y-39474D01*
X47953Y-39554D01*
X47805Y-39702D01*
X47749Y-39835D01*
X47695Y-39703D01*
X47547Y-39555D01*
X47354Y-39475D01*
X47146Y-39474D01*
X46953Y-39554D01*
X46805Y-39702D01*
X46749Y-39835D01*
X46695Y-39703D01*
X46547Y-39555D01*
X46354Y-39475D01*
X46319Y-39475D01*
X46394Y-39400D01*
X51370Y-39400D01*
X51326Y-39466D01*
X51300Y-39600D01*
X51300Y-40655D01*
X50702Y-41252D01*
X50626Y-41366D01*
X50600Y-41500D01*
X50600Y-42505D01*
X50002Y-43102D01*
X49926Y-43216D01*
X49900Y-43350D01*
X49900Y-46805D01*
X49502Y-47202D01*
X49426Y-47316D01*
X49400Y-47450D01*
X49400Y-48029D01*
X49302Y-48126D01*
X49212Y-48108D01*
X49141Y-48179D01*
X49141Y-48037D01*
X49116Y-47911D01*
X48862Y-47815D01*
X48592Y-47824D01*
X48383Y-47911D01*
X48358Y-48037D01*
X48750Y-48429D01*
X49141Y-48037D01*
X49141Y-48179D01*
X48820Y-48500D01*
X49212Y-48891D01*
X49303Y-48873D01*
X49421Y-48991D01*
X49634Y-49079D01*
X49864Y-49080D01*
X50078Y-48991D01*
X50241Y-48828D01*
X50329Y-48615D01*
X50330Y-48385D01*
X50241Y-48171D01*
X50100Y-48029D01*
X50100Y-47594D01*
X50497Y-47197D01*
X50573Y-47083D01*
X50573Y-47083D01*
X50600Y-46950D01*
X50600Y-46536D01*
X51111Y-47047D01*
X51111Y-47680D01*
X51111Y-48150D01*
X51082Y-48179D01*
X50996Y-48387D01*
X50995Y-48611D01*
X51081Y-48819D01*
X51240Y-48978D01*
X51448Y-49064D01*
X51672Y-49065D01*
X51880Y-48979D01*
X52039Y-48820D01*
X52125Y-48612D01*
X52126Y-48388D01*
X52040Y-48180D01*
X52011Y-48151D01*
X52011Y-47680D01*
X52011Y-46861D01*
X51976Y-46688D01*
X51879Y-46542D01*
X51150Y-45813D01*
X51150Y-44892D01*
X51202Y-44944D01*
X51395Y-45024D01*
X51603Y-45025D01*
X51785Y-44950D01*
X51813Y-44950D01*
X52181Y-45318D01*
X52327Y-45415D01*
X52500Y-45450D01*
X52964Y-45450D01*
X53145Y-45524D01*
X53353Y-45525D01*
X53547Y-45445D01*
X53694Y-45297D01*
X53774Y-45104D01*
X53775Y-44896D01*
X53695Y-44703D01*
X53547Y-44555D01*
X53354Y-44475D01*
X53146Y-44474D01*
X52964Y-44550D01*
X52686Y-44550D01*
X52318Y-44181D01*
X52270Y-44150D01*
X54313Y-44150D01*
X54550Y-44386D01*
X54550Y-44714D01*
X54475Y-44895D01*
X54474Y-45103D01*
X54554Y-45297D01*
X54702Y-45444D01*
X54895Y-45524D01*
X55103Y-45525D01*
X55297Y-45445D01*
X55444Y-45297D01*
X55524Y-45104D01*
X55525Y-44896D01*
X55450Y-44714D01*
X55450Y-44200D01*
X55415Y-44027D01*
X55318Y-43881D01*
X54818Y-43381D01*
X54672Y-43284D01*
X54500Y-43250D01*
X52286Y-43250D01*
X51950Y-42913D01*
X51950Y-42785D01*
X52024Y-42604D01*
X52025Y-42396D01*
X51950Y-42214D01*
X51950Y-41886D01*
X52568Y-41268D01*
X52568Y-41268D01*
X52568Y-41268D01*
X52665Y-41122D01*
X52665Y-41122D01*
X52699Y-40950D01*
X52700Y-40950D01*
X52700Y-40285D01*
X52750Y-40164D01*
X52804Y-40297D01*
X52952Y-40444D01*
X53145Y-40524D01*
X53353Y-40525D01*
X53547Y-40445D01*
X53694Y-40297D01*
X53750Y-40164D01*
X53800Y-40285D01*
X53800Y-40550D01*
X53834Y-40722D01*
X53931Y-40868D01*
X54550Y-41486D01*
X54550Y-41550D01*
X53535Y-41550D01*
X53354Y-41475D01*
X53146Y-41474D01*
X52953Y-41554D01*
X52805Y-41702D01*
X52725Y-41895D01*
X52724Y-42103D01*
X52804Y-42297D01*
X52952Y-42444D01*
X53145Y-42524D01*
X53353Y-42525D01*
X53535Y-42450D01*
X54714Y-42450D01*
X54895Y-42524D01*
X55103Y-42525D01*
X55297Y-42445D01*
X55444Y-42297D01*
X55524Y-42104D01*
X55525Y-41896D01*
X55450Y-41714D01*
X55450Y-41300D01*
X55449Y-41299D01*
X55415Y-41127D01*
X55415Y-41127D01*
X55318Y-40981D01*
X55318Y-40981D01*
X54700Y-40363D01*
X54700Y-40285D01*
X54774Y-40104D01*
X54775Y-39896D01*
X54695Y-39703D01*
X54547Y-39555D01*
X54354Y-39475D01*
X54146Y-39474D01*
X53953Y-39554D01*
X53805Y-39702D01*
X53749Y-39835D01*
X53695Y-39703D01*
X53547Y-39555D01*
X53354Y-39475D01*
X53146Y-39474D01*
X52953Y-39554D01*
X52805Y-39702D01*
X52749Y-39835D01*
X52695Y-39703D01*
X52547Y-39555D01*
X52354Y-39475D01*
X52269Y-39475D01*
X53244Y-38500D01*
X60850Y-38500D01*
X60983Y-38473D01*
X60983Y-38473D01*
X61097Y-38397D01*
X67247Y-32247D01*
X67323Y-32133D01*
X67323Y-32133D01*
X67350Y-32000D01*
X67350Y-30516D01*
X73605Y-36772D01*
X73719Y-36848D01*
X73852Y-36874D01*
X75733Y-36874D01*
X75725Y-36895D01*
X75724Y-37103D01*
X75804Y-37297D01*
X75952Y-37444D01*
X76145Y-37524D01*
X76353Y-37525D01*
X76547Y-37445D01*
X76692Y-37299D01*
X76706Y-37332D01*
X76827Y-37351D01*
X77179Y-37000D01*
X77173Y-36994D01*
X77244Y-36923D01*
X77250Y-36929D01*
X77255Y-36923D01*
X77326Y-36994D01*
X77320Y-37000D01*
X77450Y-37130D01*
X77451Y-37133D01*
X77527Y-37247D01*
X77640Y-37323D01*
X77644Y-37324D01*
X77672Y-37351D01*
X77732Y-37342D01*
X77762Y-37416D01*
X77833Y-37486D01*
X77925Y-37524D01*
X78024Y-37525D01*
X78574Y-37525D01*
X78666Y-37487D01*
X78736Y-37416D01*
X78774Y-37324D01*
X78775Y-37225D01*
X78775Y-36675D01*
X78737Y-36583D01*
X78666Y-36513D01*
X78574Y-36475D01*
X78475Y-36474D01*
X77925Y-36474D01*
X77902Y-36484D01*
X77795Y-36376D01*
X77795Y-22494D01*
X77598Y-22017D01*
X77596Y-22014D01*
X77406Y-21914D01*
X77335Y-21985D01*
X77335Y-21843D01*
X77235Y-21653D01*
X76759Y-21455D01*
X76244Y-21454D01*
X75767Y-21651D01*
X75764Y-21653D01*
X75664Y-21843D01*
X76500Y-22679D01*
X77335Y-21843D01*
X77335Y-21985D01*
X76570Y-22750D01*
X77406Y-23585D01*
X77596Y-23485D01*
X77794Y-23009D01*
X77795Y-22494D01*
X77795Y-36376D01*
X77695Y-36277D01*
X77582Y-36201D01*
X77448Y-36174D01*
X73997Y-36174D01*
X68276Y-30453D01*
X68297Y-30445D01*
X68444Y-30297D01*
X68500Y-30164D01*
X68554Y-30297D01*
X68702Y-30444D01*
X68895Y-30524D01*
X69103Y-30525D01*
X69297Y-30445D01*
X69444Y-30297D01*
X69500Y-30164D01*
X69554Y-30297D01*
X69702Y-30444D01*
X69895Y-30524D01*
X70103Y-30525D01*
X70297Y-30445D01*
X70444Y-30297D01*
X70500Y-30164D01*
X70554Y-30297D01*
X70702Y-30444D01*
X70895Y-30524D01*
X71103Y-30525D01*
X71297Y-30445D01*
X71444Y-30297D01*
X71500Y-30164D01*
X71554Y-30297D01*
X71702Y-30444D01*
X71895Y-30524D01*
X72103Y-30525D01*
X72297Y-30445D01*
X72444Y-30297D01*
X72524Y-30104D01*
X72525Y-29896D01*
X72445Y-29703D01*
X72297Y-29555D01*
X72104Y-29475D01*
X71896Y-29474D01*
X71703Y-29554D01*
X71555Y-29702D01*
X71499Y-29835D01*
X71445Y-29703D01*
X71299Y-29556D01*
X71377Y-29556D01*
X71511Y-29530D01*
X71511Y-29530D01*
X71625Y-29454D01*
X75304Y-25774D01*
X75304Y-26224D01*
X75342Y-26316D01*
X75413Y-26386D01*
X75505Y-26424D01*
X75604Y-26425D01*
X77494Y-26425D01*
X77586Y-26387D01*
X77656Y-26316D01*
X77694Y-26224D01*
X77695Y-26125D01*
X77695Y-24235D01*
X77657Y-24143D01*
X77586Y-24073D01*
X77494Y-24035D01*
X77395Y-24034D01*
X76780Y-24034D01*
X77232Y-23848D01*
X77235Y-23846D01*
X77335Y-23656D01*
X76500Y-22820D01*
X76494Y-22826D01*
X76423Y-22755D01*
X76429Y-22750D01*
X75593Y-21914D01*
X75403Y-22014D01*
X75205Y-22490D01*
X75205Y-22527D01*
X74790Y-22355D01*
X74275Y-22354D01*
X73798Y-22551D01*
X73795Y-22553D01*
X73695Y-22743D01*
X74531Y-23579D01*
X74536Y-23573D01*
X74607Y-23644D01*
X74601Y-23650D01*
X74607Y-23655D01*
X74536Y-23726D01*
X74531Y-23720D01*
X74460Y-23791D01*
X74460Y-23650D01*
X73624Y-22814D01*
X73434Y-22914D01*
X73236Y-23390D01*
X73235Y-23905D01*
X73432Y-24382D01*
X73434Y-24385D01*
X73624Y-24485D01*
X74460Y-23650D01*
X74460Y-23791D01*
X73695Y-24556D01*
X73795Y-24746D01*
X74271Y-24944D01*
X74786Y-24945D01*
X75263Y-24748D01*
X75266Y-24746D01*
X75304Y-24673D01*
X75304Y-24889D01*
X75220Y-24906D01*
X75107Y-24982D01*
X72841Y-27248D01*
X72841Y-26648D01*
X72815Y-26514D01*
X72739Y-26400D01*
X72607Y-26268D01*
X72493Y-26192D01*
X72360Y-26166D01*
X68446Y-26166D01*
X67050Y-24770D01*
X67050Y-21750D01*
X67050Y-21150D01*
X67012Y-21058D01*
X66941Y-20988D01*
X66849Y-20950D01*
X66750Y-20949D01*
X66150Y-20949D01*
X66058Y-20987D01*
X65988Y-21058D01*
X65950Y-21150D01*
X65950Y-21172D01*
X65811Y-21034D01*
X65609Y-20950D01*
X65391Y-20949D01*
X65188Y-21033D01*
X65065Y-21156D01*
X65064Y-21152D01*
X64940Y-21130D01*
X64869Y-21200D01*
X64869Y-21059D01*
X64847Y-20935D01*
X64605Y-20845D01*
X64347Y-20855D01*
X64152Y-20935D01*
X64130Y-21059D01*
X64500Y-21429D01*
X64869Y-21059D01*
X64869Y-21200D01*
X64570Y-21500D01*
X64940Y-21869D01*
X65064Y-21847D01*
X65065Y-21843D01*
X65188Y-21965D01*
X65390Y-22049D01*
X65608Y-22050D01*
X65811Y-21966D01*
X65949Y-21827D01*
X65949Y-21849D01*
X65987Y-21941D01*
X66058Y-22011D01*
X66150Y-22049D01*
X66249Y-22050D01*
X66849Y-22050D01*
X66941Y-22012D01*
X67011Y-21941D01*
X67049Y-21849D01*
X67050Y-21750D01*
X67050Y-24770D01*
X64432Y-22152D01*
X64652Y-22144D01*
X64847Y-22064D01*
X64869Y-21940D01*
X64500Y-21570D01*
X64494Y-21576D01*
X64423Y-21505D01*
X64429Y-21500D01*
X64059Y-21130D01*
X63935Y-21152D01*
X63845Y-21394D01*
X63852Y-21572D01*
X63021Y-20741D01*
X62907Y-20665D01*
X62773Y-20638D01*
X61261Y-20638D01*
X61127Y-20665D01*
X61013Y-20741D01*
X61013Y-20741D01*
X61013Y-20741D01*
X60804Y-20950D01*
X60641Y-20949D01*
X60438Y-21033D01*
X60315Y-21156D01*
X60314Y-21152D01*
X60190Y-21130D01*
X60119Y-21200D01*
X60119Y-21059D01*
X60097Y-20935D01*
X59855Y-20845D01*
X59597Y-20855D01*
X59402Y-20935D01*
X59380Y-21059D01*
X59750Y-21429D01*
X60119Y-21059D01*
X60119Y-21200D01*
X59820Y-21500D01*
X60190Y-21869D01*
X60314Y-21847D01*
X60315Y-21843D01*
X60438Y-21965D01*
X60640Y-22049D01*
X60858Y-22050D01*
X61061Y-21966D01*
X61199Y-21827D01*
X61199Y-21849D01*
X61237Y-21941D01*
X61308Y-22011D01*
X61400Y-22049D01*
X61499Y-22050D01*
X62099Y-22050D01*
X62191Y-22012D01*
X62261Y-21941D01*
X62299Y-21849D01*
X62300Y-21750D01*
X62300Y-21338D01*
X62628Y-21338D01*
X65734Y-24444D01*
X60119Y-24444D01*
X60119Y-21940D01*
X59750Y-21570D01*
X59679Y-21641D01*
X59679Y-21500D01*
X59309Y-21130D01*
X59185Y-21152D01*
X59184Y-21156D01*
X59061Y-21034D01*
X58859Y-20950D01*
X58641Y-20949D01*
X58438Y-21033D01*
X58284Y-21188D01*
X58200Y-21390D01*
X58199Y-21608D01*
X58283Y-21811D01*
X58438Y-21965D01*
X58640Y-22049D01*
X58858Y-22050D01*
X59061Y-21966D01*
X59184Y-21843D01*
X59185Y-21847D01*
X59309Y-21869D01*
X59679Y-21500D01*
X59679Y-21641D01*
X59380Y-21940D01*
X59402Y-22064D01*
X59644Y-22154D01*
X59902Y-22144D01*
X60097Y-22064D01*
X60119Y-21940D01*
X60119Y-24444D01*
X56650Y-24444D01*
X56650Y-21730D01*
X56650Y-21269D01*
X56649Y-21130D01*
X56596Y-21001D01*
X56498Y-20903D01*
X56369Y-20849D01*
X56137Y-20850D01*
X56050Y-20937D01*
X56050Y-21450D01*
X56562Y-21450D01*
X56650Y-21362D01*
X56650Y-21269D01*
X56650Y-21730D01*
X56650Y-21637D01*
X56562Y-21550D01*
X56050Y-21550D01*
X56050Y-22062D01*
X56137Y-22150D01*
X56369Y-22150D01*
X56498Y-22096D01*
X56596Y-21998D01*
X56649Y-21869D01*
X56650Y-21730D01*
X56650Y-24444D01*
X50205Y-24444D01*
X50071Y-24470D01*
X49958Y-24546D01*
X49958Y-24546D01*
X49958Y-24546D01*
X48095Y-26409D01*
X48095Y-26382D01*
X48004Y-26163D01*
X47841Y-25999D01*
X48004Y-25837D01*
X48094Y-25618D01*
X48095Y-25382D01*
X48004Y-25163D01*
X47841Y-24999D01*
X48004Y-24837D01*
X48094Y-24618D01*
X48095Y-24382D01*
X48004Y-24163D01*
X47841Y-23999D01*
X48004Y-23837D01*
X48094Y-23618D01*
X48095Y-23382D01*
X48004Y-23163D01*
X47841Y-22999D01*
X48004Y-22837D01*
X48094Y-22618D01*
X48095Y-22399D01*
X48644Y-21850D01*
X51572Y-21850D01*
X51688Y-21965D01*
X51890Y-22049D01*
X52108Y-22050D01*
X52311Y-21966D01*
X52465Y-21811D01*
X52499Y-21730D01*
X52533Y-21811D01*
X52688Y-21965D01*
X52890Y-22049D01*
X53108Y-22050D01*
X53311Y-21966D01*
X53465Y-21811D01*
X53499Y-21730D01*
X53533Y-21811D01*
X53688Y-21965D01*
X53890Y-22049D01*
X54108Y-22050D01*
X54311Y-21966D01*
X54465Y-21811D01*
X54499Y-21730D01*
X54533Y-21811D01*
X54688Y-21965D01*
X54890Y-22049D01*
X55108Y-22050D01*
X55311Y-21966D01*
X55367Y-21910D01*
X55403Y-21998D01*
X55502Y-22096D01*
X55630Y-22150D01*
X55862Y-22150D01*
X55950Y-22062D01*
X55950Y-21550D01*
X55942Y-21550D01*
X55942Y-21450D01*
X55950Y-21450D01*
X55950Y-20937D01*
X55862Y-20850D01*
X55630Y-20849D01*
X55502Y-20903D01*
X55403Y-21001D01*
X55367Y-21089D01*
X55311Y-21034D01*
X55109Y-20950D01*
X54944Y-20949D01*
X53819Y-19825D01*
X81152Y-19825D01*
X80987Y-19989D01*
X80850Y-20320D01*
X80849Y-20678D01*
X80986Y-21009D01*
X81239Y-21262D01*
X81570Y-21399D01*
X81928Y-21400D01*
X82259Y-21263D01*
X82425Y-21097D01*
X82425Y-48402D01*
M02*
