G04 (created by PCBNEW (2013-mar-13)-testing) date Mon 08 Jul 2013 02:53:21 PM PDT*
%MOIN*%
G04 Gerber Fmt 3.4, Leading zero omitted, Abs format*
%FSLAX34Y34*%
G01*
G70*
G90*
G04 APERTURE LIST*
%ADD10C,0.005906*%
%ADD11R,0.069000X0.060000*%
%ADD12C,0.069000*%
%ADD13C,0.055000*%
%ADD14R,0.055000X0.055000*%
%ADD15R,0.060000X0.060000*%
%ADD16C,0.060000*%
%ADD17R,0.070000X0.070000*%
%ADD18C,0.070000*%
%ADD19C,0.130000*%
%ADD20R,0.063000X0.063000*%
%ADD21C,0.063000*%
%ADD22C,0.189000*%
%ADD23R,0.189000X0.189000*%
%ADD24C,0.066000*%
%ADD25C,0.035000*%
%ADD26C,0.020000*%
%ADD27C,0.040000*%
%ADD28C,0.010000*%
G04 APERTURE END LIST*
G54D10*
G54D11*
X47500Y-34500D03*
G54D12*
X47500Y-33500D03*
X47500Y-32500D03*
X47500Y-31500D03*
X47500Y-30500D03*
X47500Y-29500D03*
X47500Y-28500D03*
X47500Y-27500D03*
X47500Y-26500D03*
X47500Y-25500D03*
X47500Y-24500D03*
X47500Y-23500D03*
X47500Y-22500D03*
X47500Y-21500D03*
X47500Y-20500D03*
X41500Y-20500D03*
X41500Y-21500D03*
X41500Y-22500D03*
X41500Y-23500D03*
X41500Y-24500D03*
X41500Y-25500D03*
X41500Y-26500D03*
X41500Y-27500D03*
X41500Y-28500D03*
X41500Y-29500D03*
X41500Y-30500D03*
X41500Y-31500D03*
X41500Y-32500D03*
X41500Y-33500D03*
X41500Y-34500D03*
G54D13*
X35270Y-32875D03*
X37270Y-32875D03*
G54D14*
X59935Y-27070D03*
G54D13*
X58935Y-27070D03*
X57935Y-27070D03*
X56935Y-27070D03*
X55935Y-27070D03*
X54935Y-27070D03*
X53935Y-27070D03*
X52935Y-27070D03*
X52935Y-30070D03*
X53935Y-30070D03*
X54935Y-30070D03*
X55935Y-30070D03*
X56935Y-30070D03*
X57935Y-30070D03*
X58935Y-30070D03*
X59935Y-30070D03*
G54D14*
X72000Y-27000D03*
G54D13*
X71000Y-27000D03*
X70000Y-27000D03*
X69000Y-27000D03*
X68000Y-27000D03*
X67000Y-27000D03*
X66000Y-27000D03*
X65000Y-27000D03*
X65000Y-30000D03*
X66000Y-30000D03*
X67000Y-30000D03*
X68000Y-30000D03*
X69000Y-30000D03*
X70000Y-30000D03*
X71000Y-30000D03*
X72000Y-30000D03*
G54D15*
X33335Y-32875D03*
G54D16*
X32335Y-32875D03*
G54D15*
X66500Y-21500D03*
G54D16*
X65500Y-21500D03*
X64500Y-21500D03*
G54D15*
X61750Y-21500D03*
G54D16*
X60750Y-21500D03*
X59750Y-21500D03*
X58750Y-21500D03*
X36500Y-30750D03*
X32500Y-30750D03*
G54D17*
X34975Y-26600D03*
G54D18*
X33975Y-26600D03*
X34975Y-25600D03*
X33975Y-25600D03*
X34975Y-24600D03*
X33975Y-24600D03*
X34975Y-23600D03*
X33975Y-23600D03*
X34975Y-22600D03*
X33975Y-22600D03*
G54D19*
X30750Y-49000D03*
X81750Y-20500D03*
X81750Y-49000D03*
X30750Y-20500D03*
G54D14*
X36250Y-37000D03*
G54D13*
X35250Y-37000D03*
X34250Y-37000D03*
X34250Y-40000D03*
X35250Y-40000D03*
X36250Y-40000D03*
G54D14*
X42250Y-37000D03*
G54D13*
X41250Y-37000D03*
X40250Y-37000D03*
X40250Y-40000D03*
X41250Y-40000D03*
X42250Y-40000D03*
G54D14*
X48250Y-37000D03*
G54D13*
X47250Y-37000D03*
X46250Y-37000D03*
X46250Y-40000D03*
X47250Y-40000D03*
X48250Y-40000D03*
G54D14*
X54250Y-37000D03*
G54D13*
X53250Y-37000D03*
X52250Y-37000D03*
X52250Y-40000D03*
X53250Y-40000D03*
X54250Y-40000D03*
G54D14*
X60250Y-37000D03*
G54D13*
X59250Y-37000D03*
X58250Y-37000D03*
X58250Y-40000D03*
X59250Y-40000D03*
X60250Y-40000D03*
G54D14*
X66250Y-37000D03*
G54D13*
X65250Y-37000D03*
X64250Y-37000D03*
X64250Y-40000D03*
X65250Y-40000D03*
X66250Y-40000D03*
G54D14*
X72250Y-37000D03*
G54D13*
X71250Y-37000D03*
X70250Y-37000D03*
X70250Y-40000D03*
X71250Y-40000D03*
X72250Y-40000D03*
G54D14*
X78250Y-37000D03*
G54D13*
X77250Y-37000D03*
X76250Y-37000D03*
X76250Y-40000D03*
X77250Y-40000D03*
X78250Y-40000D03*
G54D20*
X34939Y-48500D03*
G54D21*
X33561Y-48500D03*
G54D20*
X40939Y-48500D03*
G54D21*
X39561Y-48500D03*
G54D20*
X46939Y-48500D03*
G54D21*
X45561Y-48500D03*
G54D20*
X52939Y-48500D03*
G54D21*
X51561Y-48500D03*
G54D20*
X58939Y-48500D03*
G54D21*
X57561Y-48500D03*
G54D20*
X64939Y-48500D03*
G54D21*
X63561Y-48500D03*
G54D20*
X70939Y-48500D03*
G54D21*
X69561Y-48500D03*
G54D20*
X76939Y-48500D03*
G54D21*
X75561Y-48500D03*
G54D15*
X56000Y-21500D03*
G54D16*
X55000Y-21500D03*
X54000Y-21500D03*
X53000Y-21500D03*
X52000Y-21500D03*
G54D22*
X76500Y-22750D03*
G54D23*
X76500Y-25230D03*
G54D22*
X74531Y-23650D03*
G54D13*
X33500Y-44500D03*
X33500Y-42500D03*
X39500Y-44500D03*
X39500Y-42500D03*
X45500Y-44500D03*
X45500Y-42500D03*
X51500Y-44500D03*
X51500Y-42500D03*
X57500Y-44500D03*
X57500Y-42500D03*
X63500Y-44500D03*
X63500Y-42500D03*
X69500Y-44500D03*
X69500Y-42500D03*
X75500Y-44500D03*
X75500Y-42500D03*
X35250Y-42000D03*
X35250Y-45000D03*
X41250Y-42000D03*
X41250Y-45000D03*
X47250Y-42000D03*
X47250Y-45000D03*
X53250Y-42000D03*
X53250Y-45000D03*
X59250Y-42000D03*
X59250Y-45000D03*
X65250Y-42000D03*
X65250Y-45000D03*
X71250Y-42000D03*
X71250Y-45000D03*
X77250Y-42000D03*
X77250Y-45000D03*
X43000Y-45000D03*
X43000Y-42000D03*
X49000Y-45000D03*
X49000Y-42000D03*
X55000Y-45000D03*
X55000Y-42000D03*
X61000Y-45000D03*
X61000Y-42000D03*
X67000Y-45000D03*
X67000Y-42000D03*
X73000Y-45000D03*
X73000Y-42000D03*
X79000Y-45000D03*
X79000Y-42000D03*
X37000Y-45000D03*
X37000Y-42000D03*
G54D24*
X49750Y-48500D03*
X48750Y-48500D03*
X55750Y-48500D03*
X54750Y-48500D03*
X37750Y-48500D03*
X36750Y-48500D03*
X43750Y-48500D03*
X42750Y-48500D03*
X61750Y-48500D03*
X60750Y-48500D03*
X73750Y-48500D03*
X72750Y-48500D03*
X67750Y-48500D03*
X66750Y-48500D03*
X79750Y-48500D03*
X78750Y-48500D03*
G54D25*
X45520Y-33122D03*
X60025Y-27712D03*
X33592Y-27609D03*
X46927Y-36077D03*
G54D26*
X36500Y-28675D02*
X36500Y-30750D01*
X34975Y-27150D02*
X36500Y-28675D01*
X34975Y-26600D02*
X34975Y-27150D01*
X43897Y-31500D02*
X45520Y-33122D01*
X41500Y-31500D02*
X43897Y-31500D01*
X61750Y-21500D02*
X61750Y-22000D01*
X60128Y-27712D02*
X60025Y-27712D01*
X60559Y-27280D02*
X60128Y-27712D01*
X60559Y-23190D02*
X60559Y-27280D01*
X61750Y-22000D02*
X60559Y-23190D01*
G54D27*
X34939Y-47361D02*
X34939Y-48500D01*
X36100Y-46200D02*
X34939Y-47361D01*
X36100Y-44100D02*
X36100Y-46200D01*
X35250Y-43250D02*
X36100Y-44100D01*
X35250Y-42000D02*
X35250Y-43250D01*
X40938Y-47461D02*
X40938Y-47980D01*
X42100Y-46300D02*
X40938Y-47461D01*
X42100Y-43300D02*
X42100Y-46300D01*
X41250Y-42450D02*
X42100Y-43300D01*
X41250Y-42000D02*
X41250Y-42450D01*
X40938Y-47980D02*
X40938Y-48500D01*
G54D26*
X40939Y-47980D02*
X40939Y-48500D01*
X40938Y-47980D02*
X40939Y-47980D01*
G54D27*
X46938Y-47461D02*
X46938Y-47980D01*
X48100Y-46300D02*
X46938Y-47461D01*
X48100Y-43800D02*
X48100Y-46300D01*
X47250Y-42950D02*
X48100Y-43800D01*
X47250Y-42000D02*
X47250Y-42950D01*
X46938Y-47980D02*
X46938Y-48500D01*
G54D26*
X46939Y-47980D02*
X46939Y-48500D01*
X46938Y-47980D02*
X46939Y-47980D01*
G54D27*
X52938Y-46861D02*
X52938Y-47680D01*
X54100Y-45700D02*
X52938Y-46861D01*
X54100Y-43500D02*
X54100Y-45700D01*
X53250Y-42650D02*
X54100Y-43500D01*
X53250Y-42000D02*
X53250Y-42650D01*
X52938Y-47680D02*
X52938Y-48500D01*
G54D26*
X52939Y-47680D02*
X52939Y-48500D01*
X52938Y-47680D02*
X52939Y-47680D01*
G54D27*
X58938Y-47061D02*
X58938Y-47780D01*
X60100Y-45900D02*
X58938Y-47061D01*
X60100Y-43700D02*
X60100Y-45900D01*
X59250Y-42850D02*
X60100Y-43700D01*
X59250Y-42000D02*
X59250Y-42850D01*
X58938Y-47780D02*
X58938Y-48500D01*
G54D26*
X58939Y-47780D02*
X58939Y-48500D01*
X58938Y-47780D02*
X58939Y-47780D01*
G54D27*
X64938Y-47461D02*
X64938Y-47980D01*
X66100Y-46300D02*
X64938Y-47461D01*
X66100Y-43600D02*
X66100Y-46300D01*
X65250Y-42750D02*
X66100Y-43600D01*
X65250Y-42000D02*
X65250Y-42750D01*
X64938Y-47980D02*
X64938Y-48500D01*
G54D26*
X64939Y-47980D02*
X64939Y-48500D01*
X64938Y-47980D02*
X64939Y-47980D01*
G54D27*
X70938Y-46861D02*
X70938Y-47680D01*
X72100Y-45700D02*
X70938Y-46861D01*
X72100Y-43600D02*
X72100Y-45700D01*
X71250Y-42750D02*
X72100Y-43600D01*
X71250Y-42000D02*
X71250Y-42750D01*
X70938Y-47680D02*
X70938Y-48500D01*
G54D26*
X70939Y-47680D02*
X70939Y-48500D01*
X70938Y-47680D02*
X70939Y-47680D01*
G54D27*
X76938Y-47261D02*
X76938Y-47880D01*
X78100Y-46100D02*
X76938Y-47261D01*
X78100Y-43400D02*
X78100Y-46100D01*
X77250Y-42550D02*
X78100Y-43400D01*
X77250Y-42000D02*
X77250Y-42550D01*
X76938Y-47880D02*
X76938Y-48500D01*
G54D26*
X76939Y-47880D02*
X76939Y-48500D01*
X76938Y-47880D02*
X76939Y-47880D01*
X38043Y-22043D02*
X41500Y-25500D01*
X33744Y-22043D02*
X38043Y-22043D01*
X33422Y-22365D02*
X33744Y-22043D01*
X33422Y-23047D02*
X33422Y-22365D01*
X33975Y-23600D02*
X33422Y-23047D01*
X37600Y-24600D02*
X41500Y-28500D01*
X34975Y-24600D02*
X37600Y-24600D01*
X33424Y-27442D02*
X33592Y-27609D01*
X33424Y-26150D02*
X33424Y-27442D01*
X33975Y-25600D02*
X33424Y-26150D01*
X39875Y-30500D02*
X41500Y-30500D01*
X34975Y-25600D02*
X39875Y-30500D01*
X44054Y-19945D02*
X41500Y-22500D01*
X57195Y-19945D02*
X44054Y-19945D01*
X58750Y-21500D02*
X57195Y-19945D01*
X52912Y-28087D02*
X47500Y-33500D01*
X60183Y-28087D02*
X52912Y-28087D01*
X61625Y-26645D02*
X60183Y-28087D01*
X61625Y-23647D02*
X61625Y-26645D01*
X64277Y-20995D02*
X61625Y-23647D01*
X65995Y-20995D02*
X64277Y-20995D01*
X66500Y-21500D02*
X65995Y-20995D01*
X53114Y-28885D02*
X47500Y-34500D01*
X59842Y-28885D02*
X53114Y-28885D01*
X65500Y-23228D02*
X59842Y-28885D01*
X65500Y-21500D02*
X65500Y-23228D01*
X48001Y-22001D02*
X47500Y-21500D01*
X53498Y-22001D02*
X48001Y-22001D01*
X54000Y-21500D02*
X53498Y-22001D01*
X49454Y-27545D02*
X47500Y-29500D01*
X53459Y-27545D02*
X49454Y-27545D01*
X53935Y-27070D02*
X53459Y-27545D01*
X48424Y-26575D02*
X47500Y-27500D01*
X55440Y-26575D02*
X48424Y-26575D01*
X55935Y-27070D02*
X55440Y-26575D01*
X47727Y-26272D02*
X47500Y-26500D01*
X56137Y-26272D02*
X47727Y-26272D01*
X56935Y-27070D02*
X56137Y-26272D01*
X56365Y-25500D02*
X57935Y-27070D01*
X47500Y-25500D02*
X56365Y-25500D01*
X56365Y-24500D02*
X47500Y-24500D01*
X58935Y-27070D02*
X56365Y-24500D01*
X56038Y-23500D02*
X47500Y-23500D01*
X59459Y-26921D02*
X56038Y-23500D01*
X59459Y-27070D02*
X59459Y-26921D01*
X59935Y-27070D02*
X59459Y-27070D01*
X74530Y-25700D02*
X74530Y-23650D01*
X77250Y-28420D02*
X74530Y-25700D01*
X77250Y-37000D02*
X77250Y-28420D01*
X41250Y-35528D02*
X42070Y-34708D01*
X41250Y-37000D02*
X41250Y-35528D01*
X42070Y-34070D02*
X41500Y-33500D01*
X42070Y-34708D02*
X42070Y-34070D01*
X47250Y-37000D02*
X44958Y-34708D01*
X44958Y-34708D02*
X42070Y-34708D01*
X47500Y-31673D02*
X47500Y-31500D01*
X44958Y-34215D02*
X47500Y-31673D01*
X44958Y-34708D02*
X44958Y-34215D01*
X33975Y-29580D02*
X33975Y-26600D01*
X37270Y-32875D02*
X33975Y-29580D01*
X59725Y-37475D02*
X59250Y-37000D01*
X64774Y-37475D02*
X59725Y-37475D01*
X65250Y-37000D02*
X64774Y-37475D01*
X43298Y-49048D02*
X42750Y-48500D01*
X48201Y-49048D02*
X43298Y-49048D01*
X48750Y-48500D02*
X48201Y-49048D01*
X60250Y-33384D02*
X56935Y-30070D01*
X60250Y-37000D02*
X60250Y-33384D01*
X46927Y-36077D02*
X52935Y-30070D01*
X42250Y-37000D02*
X42725Y-37000D01*
X47725Y-36279D02*
X53935Y-30070D01*
X47725Y-37201D02*
X47725Y-36279D01*
X47447Y-37479D02*
X47725Y-37201D01*
X43204Y-37479D02*
X47447Y-37479D01*
X42725Y-37000D02*
X43204Y-37479D01*
X55935Y-34839D02*
X55935Y-30070D01*
X54250Y-36524D02*
X55935Y-34839D01*
X54250Y-37000D02*
X54250Y-36524D01*
X66250Y-37000D02*
X66250Y-36700D01*
X57935Y-30485D02*
X57935Y-30070D01*
X58515Y-31065D02*
X57935Y-30485D01*
X60615Y-31065D02*
X58515Y-31065D01*
X66250Y-36700D02*
X60615Y-31065D01*
X48250Y-37000D02*
X48250Y-36524D01*
X54704Y-30070D02*
X48250Y-36524D01*
X54935Y-30070D02*
X54704Y-30070D01*
X64588Y-29588D02*
X65000Y-30000D01*
X55740Y-29588D02*
X64588Y-29588D01*
X55435Y-29893D02*
X55740Y-29588D01*
X55435Y-30657D02*
X55435Y-29893D01*
X47877Y-38214D02*
X55435Y-30657D01*
X43340Y-38214D02*
X47877Y-38214D01*
X41750Y-39805D02*
X43340Y-38214D01*
X41750Y-40522D02*
X41750Y-39805D01*
X40268Y-42003D02*
X41750Y-40522D01*
X40268Y-45981D02*
X40268Y-42003D01*
X37750Y-48500D02*
X40268Y-45981D01*
X79750Y-43609D02*
X79750Y-48500D01*
X76750Y-40609D02*
X79750Y-43609D01*
X76750Y-34750D02*
X76750Y-40609D01*
X72000Y-30000D02*
X76750Y-34750D01*
X69000Y-36119D02*
X69000Y-30000D01*
X65749Y-39369D02*
X69000Y-36119D01*
X65749Y-40609D02*
X65749Y-39369D01*
X64623Y-41735D02*
X65749Y-40609D01*
X64623Y-45626D02*
X64623Y-41735D01*
X61750Y-48500D02*
X64623Y-45626D01*
X32500Y-30750D02*
X32500Y-32369D01*
X32335Y-32534D02*
X32500Y-32369D01*
X32335Y-32875D02*
X32335Y-32534D01*
X34764Y-32369D02*
X35270Y-32875D01*
X32500Y-32369D02*
X34764Y-32369D01*
X59414Y-30549D02*
X58935Y-30070D01*
X65140Y-30549D02*
X59414Y-30549D01*
X65500Y-30189D02*
X65140Y-30549D01*
X65500Y-29812D02*
X65500Y-30189D01*
X65787Y-29524D02*
X65500Y-29812D01*
X70198Y-29524D02*
X65787Y-29524D01*
X70500Y-29826D02*
X70198Y-29524D01*
X70500Y-34774D02*
X70500Y-29826D01*
X72250Y-36524D02*
X70500Y-34774D01*
X72250Y-37000D02*
X72250Y-36524D01*
X68000Y-36083D02*
X68000Y-30000D01*
X66255Y-37828D02*
X68000Y-36083D01*
X64846Y-37828D02*
X66255Y-37828D01*
X61733Y-40941D02*
X64846Y-37828D01*
X59635Y-40941D02*
X61733Y-40941D01*
X58719Y-41857D02*
X59635Y-40941D01*
X58719Y-45530D02*
X58719Y-41857D01*
X55750Y-48500D02*
X58719Y-45530D01*
X70000Y-36000D02*
X70000Y-30000D01*
X67750Y-38250D02*
X70000Y-36000D01*
X67750Y-48500D02*
X67750Y-38250D01*
X73750Y-32750D02*
X71000Y-30000D01*
X73750Y-48500D02*
X73750Y-32750D01*
G54D10*
G36*
X34346Y-26723D02*
X34098Y-26971D01*
X33975Y-26847D01*
X33774Y-27047D01*
X33774Y-26295D01*
X33846Y-26223D01*
X33975Y-26352D01*
X34098Y-26228D01*
X34346Y-26476D01*
X34222Y-26600D01*
X34346Y-26723D01*
X34346Y-26723D01*
G37*
G54D28*
X34346Y-26723D02*
X34098Y-26971D01*
X33975Y-26847D01*
X33774Y-27047D01*
X33774Y-26295D01*
X33846Y-26223D01*
X33975Y-26352D01*
X34098Y-26228D01*
X34346Y-26476D01*
X34222Y-26600D01*
X34346Y-26723D01*
G54D10*
G36*
X65150Y-23083D02*
X61975Y-26257D01*
X61975Y-23792D01*
X63593Y-22174D01*
X63613Y-22174D01*
X64287Y-21500D01*
X64278Y-21490D01*
X64422Y-21345D01*
X64866Y-21345D01*
X64712Y-21500D01*
X64818Y-21606D01*
X64606Y-21818D01*
X64500Y-21712D01*
X63825Y-22386D01*
X63817Y-22695D01*
X64326Y-22865D01*
X64862Y-22827D01*
X65045Y-22752D01*
X65119Y-22826D01*
X65150Y-22795D01*
X65150Y-23083D01*
X65150Y-23083D01*
G37*
G54D28*
X65150Y-23083D02*
X61975Y-26257D01*
X61975Y-23792D01*
X63593Y-22174D01*
X63613Y-22174D01*
X64287Y-21500D01*
X64278Y-21490D01*
X64422Y-21345D01*
X64866Y-21345D01*
X64712Y-21500D01*
X64818Y-21606D01*
X64606Y-21818D01*
X64500Y-21712D01*
X63825Y-22386D01*
X63817Y-22695D01*
X64326Y-22865D01*
X64862Y-22827D01*
X65045Y-22752D01*
X65119Y-22826D01*
X65150Y-22795D01*
X65150Y-23083D01*
G54D10*
G36*
X82425Y-48402D02*
X82260Y-48237D01*
X81929Y-48100D01*
X81571Y-48099D01*
X81240Y-48236D01*
X80987Y-48489D01*
X80850Y-48820D01*
X80849Y-49178D01*
X80986Y-49509D01*
X81152Y-49675D01*
X79437Y-49675D01*
X79434Y-49417D01*
X78750Y-48733D01*
X78065Y-49417D01*
X78062Y-49675D01*
X76126Y-49675D01*
X76126Y-48388D01*
X76040Y-48180D01*
X76025Y-48165D01*
X76025Y-44396D01*
X76025Y-42396D01*
X75945Y-42203D01*
X75797Y-42055D01*
X75604Y-41975D01*
X75396Y-41974D01*
X75203Y-42054D01*
X75055Y-42202D01*
X74975Y-42395D01*
X74974Y-42603D01*
X75054Y-42797D01*
X75202Y-42944D01*
X75395Y-43024D01*
X75603Y-43025D01*
X75797Y-42945D01*
X75944Y-42797D01*
X76024Y-42604D01*
X76025Y-42396D01*
X76025Y-44396D01*
X75945Y-44203D01*
X75797Y-44055D01*
X75604Y-43975D01*
X75396Y-43974D01*
X75203Y-44054D01*
X75055Y-44202D01*
X74975Y-44395D01*
X74974Y-44603D01*
X75054Y-44797D01*
X75202Y-44944D01*
X75395Y-45024D01*
X75603Y-45025D01*
X75797Y-44945D01*
X75944Y-44797D01*
X76024Y-44604D01*
X76025Y-44396D01*
X76025Y-48165D01*
X75881Y-48021D01*
X75673Y-47935D01*
X75449Y-47934D01*
X75241Y-48020D01*
X75082Y-48179D01*
X74996Y-48387D01*
X74995Y-48611D01*
X75081Y-48819D01*
X75240Y-48978D01*
X75448Y-49064D01*
X75672Y-49065D01*
X75880Y-48979D01*
X76039Y-48820D01*
X76125Y-48612D01*
X76126Y-48388D01*
X76126Y-49675D01*
X73437Y-49675D01*
X73434Y-49417D01*
X72750Y-48733D01*
X72065Y-49417D01*
X72062Y-49675D01*
X70126Y-49675D01*
X70126Y-48388D01*
X70040Y-48180D01*
X70025Y-48165D01*
X70025Y-44396D01*
X70025Y-42396D01*
X69945Y-42203D01*
X69797Y-42055D01*
X69604Y-41975D01*
X69396Y-41974D01*
X69203Y-42054D01*
X69055Y-42202D01*
X68975Y-42395D01*
X68974Y-42603D01*
X69054Y-42797D01*
X69202Y-42944D01*
X69395Y-43024D01*
X69603Y-43025D01*
X69797Y-42945D01*
X69944Y-42797D01*
X70024Y-42604D01*
X70025Y-42396D01*
X70025Y-44396D01*
X69945Y-44203D01*
X69797Y-44055D01*
X69604Y-43975D01*
X69396Y-43974D01*
X69203Y-44054D01*
X69055Y-44202D01*
X68975Y-44395D01*
X68974Y-44603D01*
X69054Y-44797D01*
X69202Y-44944D01*
X69395Y-45024D01*
X69603Y-45025D01*
X69797Y-44945D01*
X69944Y-44797D01*
X70024Y-44604D01*
X70025Y-44396D01*
X70025Y-48165D01*
X69881Y-48021D01*
X69673Y-47935D01*
X69449Y-47934D01*
X69241Y-48020D01*
X69082Y-48179D01*
X68996Y-48387D01*
X68995Y-48611D01*
X69081Y-48819D01*
X69240Y-48978D01*
X69448Y-49064D01*
X69672Y-49065D01*
X69880Y-48979D01*
X70039Y-48820D01*
X70125Y-48612D01*
X70126Y-48388D01*
X70126Y-49675D01*
X67437Y-49675D01*
X67434Y-49417D01*
X66750Y-48733D01*
X66065Y-49417D01*
X66062Y-49675D01*
X64126Y-49675D01*
X64126Y-48388D01*
X64040Y-48180D01*
X63881Y-48021D01*
X63673Y-47935D01*
X63449Y-47934D01*
X63241Y-48020D01*
X63082Y-48179D01*
X62996Y-48387D01*
X62995Y-48611D01*
X63081Y-48819D01*
X63240Y-48978D01*
X63448Y-49064D01*
X63672Y-49065D01*
X63880Y-48979D01*
X64039Y-48820D01*
X64125Y-48612D01*
X64126Y-48388D01*
X64126Y-49675D01*
X61437Y-49675D01*
X61434Y-49417D01*
X60750Y-48733D01*
X60065Y-49417D01*
X60062Y-49675D01*
X58126Y-49675D01*
X58126Y-48388D01*
X58040Y-48180D01*
X57881Y-48021D01*
X57673Y-47935D01*
X57449Y-47934D01*
X57241Y-48020D01*
X57082Y-48179D01*
X56996Y-48387D01*
X56995Y-48611D01*
X57081Y-48819D01*
X57240Y-48978D01*
X57448Y-49064D01*
X57672Y-49065D01*
X57880Y-48979D01*
X58039Y-48820D01*
X58125Y-48612D01*
X58126Y-48388D01*
X58126Y-49675D01*
X55437Y-49675D01*
X55434Y-49417D01*
X54750Y-48733D01*
X54065Y-49417D01*
X54062Y-49675D01*
X52126Y-49675D01*
X52126Y-48388D01*
X52040Y-48180D01*
X52025Y-48165D01*
X52025Y-44396D01*
X52025Y-42396D01*
X51945Y-42203D01*
X51797Y-42055D01*
X51604Y-41975D01*
X51396Y-41974D01*
X51203Y-42054D01*
X51055Y-42202D01*
X50975Y-42395D01*
X50974Y-42603D01*
X51054Y-42797D01*
X51202Y-42944D01*
X51395Y-43024D01*
X51603Y-43025D01*
X51797Y-42945D01*
X51944Y-42797D01*
X52024Y-42604D01*
X52025Y-42396D01*
X52025Y-44396D01*
X51945Y-44203D01*
X51797Y-44055D01*
X51604Y-43975D01*
X51396Y-43974D01*
X51203Y-44054D01*
X51055Y-44202D01*
X50975Y-44395D01*
X50974Y-44603D01*
X51054Y-44797D01*
X51202Y-44944D01*
X51395Y-45024D01*
X51603Y-45025D01*
X51797Y-44945D01*
X51944Y-44797D01*
X52024Y-44604D01*
X52025Y-44396D01*
X52025Y-48165D01*
X51881Y-48021D01*
X51673Y-47935D01*
X51449Y-47934D01*
X51241Y-48020D01*
X51082Y-48179D01*
X50996Y-48387D01*
X50995Y-48611D01*
X51081Y-48819D01*
X51240Y-48978D01*
X51448Y-49064D01*
X51672Y-49065D01*
X51880Y-48979D01*
X52039Y-48820D01*
X52125Y-48612D01*
X52126Y-48388D01*
X52126Y-49675D01*
X50330Y-49675D01*
X50330Y-48385D01*
X50241Y-48171D01*
X50078Y-48008D01*
X50054Y-47998D01*
X49977Y-47812D01*
X49667Y-47815D01*
X49525Y-47958D01*
X49525Y-44896D01*
X49525Y-41896D01*
X49445Y-41703D01*
X49297Y-41555D01*
X49104Y-41475D01*
X48896Y-41474D01*
X48775Y-41524D01*
X48775Y-39896D01*
X48695Y-39703D01*
X48547Y-39555D01*
X48354Y-39475D01*
X48146Y-39474D01*
X47953Y-39554D01*
X47805Y-39702D01*
X47749Y-39835D01*
X47695Y-39703D01*
X47547Y-39555D01*
X47354Y-39475D01*
X47146Y-39474D01*
X46953Y-39554D01*
X46805Y-39702D01*
X46749Y-39835D01*
X46695Y-39703D01*
X46547Y-39555D01*
X46354Y-39475D01*
X46146Y-39474D01*
X45953Y-39554D01*
X45805Y-39702D01*
X45725Y-39895D01*
X45724Y-40103D01*
X45804Y-40297D01*
X45952Y-40444D01*
X46145Y-40524D01*
X46353Y-40525D01*
X46547Y-40445D01*
X46694Y-40297D01*
X46750Y-40164D01*
X46804Y-40297D01*
X46952Y-40444D01*
X47145Y-40524D01*
X47353Y-40525D01*
X47547Y-40445D01*
X47694Y-40297D01*
X47750Y-40164D01*
X47804Y-40297D01*
X47952Y-40444D01*
X48145Y-40524D01*
X48353Y-40525D01*
X48547Y-40445D01*
X48694Y-40297D01*
X48774Y-40104D01*
X48775Y-39896D01*
X48775Y-41524D01*
X48703Y-41554D01*
X48555Y-41702D01*
X48475Y-41895D01*
X48474Y-42103D01*
X48554Y-42297D01*
X48702Y-42444D01*
X48895Y-42524D01*
X49103Y-42525D01*
X49297Y-42445D01*
X49444Y-42297D01*
X49524Y-42104D01*
X49525Y-41896D01*
X49525Y-44896D01*
X49445Y-44703D01*
X49297Y-44555D01*
X49104Y-44475D01*
X48896Y-44474D01*
X48703Y-44554D01*
X48555Y-44702D01*
X48550Y-44714D01*
X48550Y-43800D01*
X48515Y-43627D01*
X48418Y-43481D01*
X47700Y-42763D01*
X47700Y-42285D01*
X47774Y-42104D01*
X47775Y-41896D01*
X47695Y-41703D01*
X47547Y-41555D01*
X47354Y-41475D01*
X47146Y-41474D01*
X46953Y-41554D01*
X46805Y-41702D01*
X46725Y-41895D01*
X46724Y-42103D01*
X46800Y-42285D01*
X46800Y-42950D01*
X46834Y-43122D01*
X46931Y-43268D01*
X47650Y-43986D01*
X47650Y-44657D01*
X47547Y-44555D01*
X47354Y-44475D01*
X47146Y-44474D01*
X46953Y-44554D01*
X46805Y-44702D01*
X46725Y-44895D01*
X46724Y-45103D01*
X46804Y-45297D01*
X46952Y-45444D01*
X47145Y-45524D01*
X47353Y-45525D01*
X47547Y-45445D01*
X47650Y-45342D01*
X47650Y-46113D01*
X46620Y-47142D01*
X46523Y-47288D01*
X46488Y-47461D01*
X46488Y-47970D01*
X46482Y-47973D01*
X46412Y-48043D01*
X46374Y-48135D01*
X46374Y-48234D01*
X46374Y-48864D01*
X46412Y-48956D01*
X46482Y-49026D01*
X46574Y-49065D01*
X46673Y-49065D01*
X47303Y-49065D01*
X47395Y-49026D01*
X47438Y-48984D01*
X47522Y-49187D01*
X47832Y-49184D01*
X48516Y-48500D01*
X47832Y-47815D01*
X47522Y-47812D01*
X47451Y-48029D01*
X47395Y-47973D01*
X47388Y-47970D01*
X47388Y-47647D01*
X48418Y-46618D01*
X48515Y-46472D01*
X48550Y-46300D01*
X48550Y-45285D01*
X48554Y-45297D01*
X48702Y-45444D01*
X48895Y-45524D01*
X49103Y-45525D01*
X49297Y-45445D01*
X49444Y-45297D01*
X49524Y-45104D01*
X49525Y-44896D01*
X49525Y-47958D01*
X49512Y-47970D01*
X49437Y-48001D01*
X49437Y-47272D01*
X48915Y-47102D01*
X48368Y-47145D01*
X48062Y-47272D01*
X48065Y-47582D01*
X48750Y-48266D01*
X49434Y-47582D01*
X49437Y-47272D01*
X49437Y-48001D01*
X49421Y-48008D01*
X49258Y-48171D01*
X49220Y-48262D01*
X48983Y-48500D01*
X49220Y-48737D01*
X49258Y-48828D01*
X49421Y-48991D01*
X49512Y-49029D01*
X49667Y-49184D01*
X49977Y-49187D01*
X50035Y-49009D01*
X50078Y-48991D01*
X50241Y-48828D01*
X50329Y-48615D01*
X50330Y-48385D01*
X50330Y-49675D01*
X49437Y-49675D01*
X49434Y-49417D01*
X48750Y-48733D01*
X48065Y-49417D01*
X48062Y-49675D01*
X46126Y-49675D01*
X46126Y-48388D01*
X46040Y-48180D01*
X46025Y-48165D01*
X46025Y-44396D01*
X46025Y-42396D01*
X45945Y-42203D01*
X45797Y-42055D01*
X45604Y-41975D01*
X45396Y-41974D01*
X45203Y-42054D01*
X45055Y-42202D01*
X44975Y-42395D01*
X44974Y-42603D01*
X45054Y-42797D01*
X45202Y-42944D01*
X45395Y-43024D01*
X45603Y-43025D01*
X45797Y-42945D01*
X45944Y-42797D01*
X46024Y-42604D01*
X46025Y-42396D01*
X46025Y-44396D01*
X45945Y-44203D01*
X45797Y-44055D01*
X45604Y-43975D01*
X45396Y-43974D01*
X45203Y-44054D01*
X45055Y-44202D01*
X44975Y-44395D01*
X44974Y-44603D01*
X45054Y-44797D01*
X45202Y-44944D01*
X45395Y-45024D01*
X45603Y-45025D01*
X45797Y-44945D01*
X45944Y-44797D01*
X46024Y-44604D01*
X46025Y-44396D01*
X46025Y-48165D01*
X45881Y-48021D01*
X45673Y-47935D01*
X45449Y-47934D01*
X45241Y-48020D01*
X45082Y-48179D01*
X44996Y-48387D01*
X44995Y-48611D01*
X45081Y-48819D01*
X45240Y-48978D01*
X45448Y-49064D01*
X45672Y-49065D01*
X45880Y-48979D01*
X46039Y-48820D01*
X46125Y-48612D01*
X46126Y-48388D01*
X46126Y-49675D01*
X44330Y-49675D01*
X44330Y-48385D01*
X44241Y-48171D01*
X44078Y-48008D01*
X44054Y-47998D01*
X43977Y-47812D01*
X43667Y-47815D01*
X43512Y-47970D01*
X43437Y-48001D01*
X43437Y-47272D01*
X42915Y-47102D01*
X42368Y-47145D01*
X42062Y-47272D01*
X42065Y-47582D01*
X42750Y-48266D01*
X43434Y-47582D01*
X43437Y-47272D01*
X43437Y-48001D01*
X43421Y-48008D01*
X43258Y-48171D01*
X43220Y-48262D01*
X42983Y-48500D01*
X43220Y-48737D01*
X43258Y-48828D01*
X43421Y-48991D01*
X43512Y-49029D01*
X43667Y-49184D01*
X43977Y-49187D01*
X44035Y-49009D01*
X44078Y-48991D01*
X44241Y-48828D01*
X44329Y-48615D01*
X44330Y-48385D01*
X44330Y-49675D01*
X43437Y-49675D01*
X43434Y-49417D01*
X42750Y-48733D01*
X42065Y-49417D01*
X42062Y-49675D01*
X40126Y-49675D01*
X40126Y-48388D01*
X40040Y-48180D01*
X39881Y-48021D01*
X39673Y-47935D01*
X39449Y-47934D01*
X39241Y-48020D01*
X39082Y-48179D01*
X38996Y-48387D01*
X38995Y-48611D01*
X39081Y-48819D01*
X39240Y-48978D01*
X39448Y-49064D01*
X39672Y-49065D01*
X39880Y-48979D01*
X40039Y-48820D01*
X40125Y-48612D01*
X40126Y-48388D01*
X40126Y-49675D01*
X37437Y-49675D01*
X37434Y-49417D01*
X36750Y-48733D01*
X36065Y-49417D01*
X36062Y-49675D01*
X34126Y-49675D01*
X34126Y-48388D01*
X34040Y-48180D01*
X34025Y-48165D01*
X34025Y-44396D01*
X34025Y-42396D01*
X33945Y-42203D01*
X33797Y-42055D01*
X33604Y-41975D01*
X33396Y-41974D01*
X33203Y-42054D01*
X33055Y-42202D01*
X32975Y-42395D01*
X32974Y-42603D01*
X33054Y-42797D01*
X33202Y-42944D01*
X33395Y-43024D01*
X33603Y-43025D01*
X33797Y-42945D01*
X33944Y-42797D01*
X34024Y-42604D01*
X34025Y-42396D01*
X34025Y-44396D01*
X33945Y-44203D01*
X33797Y-44055D01*
X33604Y-43975D01*
X33396Y-43974D01*
X33203Y-44054D01*
X33055Y-44202D01*
X32975Y-44395D01*
X32974Y-44603D01*
X33054Y-44797D01*
X33202Y-44944D01*
X33395Y-45024D01*
X33603Y-45025D01*
X33797Y-44945D01*
X33944Y-44797D01*
X34024Y-44604D01*
X34025Y-44396D01*
X34025Y-48165D01*
X33881Y-48021D01*
X33673Y-47935D01*
X33449Y-47934D01*
X33241Y-48020D01*
X33082Y-48179D01*
X32996Y-48387D01*
X32995Y-48611D01*
X33081Y-48819D01*
X33240Y-48978D01*
X33448Y-49064D01*
X33672Y-49065D01*
X33880Y-48979D01*
X34039Y-48820D01*
X34125Y-48612D01*
X34126Y-48388D01*
X34126Y-49675D01*
X31347Y-49675D01*
X31512Y-49510D01*
X31649Y-49179D01*
X31650Y-48821D01*
X31513Y-48490D01*
X31260Y-48237D01*
X30929Y-48100D01*
X30571Y-48099D01*
X30240Y-48236D01*
X30075Y-48402D01*
X30075Y-21097D01*
X30239Y-21262D01*
X30570Y-21399D01*
X30928Y-21400D01*
X31259Y-21263D01*
X31512Y-21010D01*
X31649Y-20679D01*
X31650Y-20321D01*
X31513Y-19990D01*
X31347Y-19825D01*
X43680Y-19825D01*
X42095Y-21409D01*
X42095Y-21382D01*
X42004Y-21163D01*
X41841Y-20999D01*
X42004Y-20837D01*
X42094Y-20618D01*
X42095Y-20382D01*
X42004Y-20163D01*
X41837Y-19995D01*
X41618Y-19905D01*
X41382Y-19904D01*
X41163Y-19995D01*
X40995Y-20162D01*
X40905Y-20381D01*
X40904Y-20617D01*
X40995Y-20836D01*
X41158Y-21000D01*
X40995Y-21162D01*
X40905Y-21381D01*
X40904Y-21617D01*
X40995Y-21836D01*
X41158Y-22000D01*
X40995Y-22162D01*
X40905Y-22381D01*
X40904Y-22617D01*
X40995Y-22836D01*
X41158Y-23000D01*
X40995Y-23162D01*
X40905Y-23381D01*
X40904Y-23617D01*
X40995Y-23836D01*
X41158Y-24000D01*
X40995Y-24162D01*
X40905Y-24381D01*
X40905Y-24410D01*
X38290Y-21795D01*
X38177Y-21719D01*
X38043Y-21693D01*
X33744Y-21693D01*
X33610Y-21719D01*
X33497Y-21795D01*
X33174Y-22118D01*
X33098Y-22232D01*
X33072Y-22365D01*
X33072Y-23047D01*
X33098Y-23181D01*
X33174Y-23294D01*
X33375Y-23495D01*
X33374Y-23718D01*
X33466Y-23939D01*
X33626Y-24100D01*
X33466Y-24259D01*
X33375Y-24480D01*
X33374Y-24718D01*
X33466Y-24939D01*
X33626Y-25100D01*
X33466Y-25259D01*
X33458Y-25278D01*
X33283Y-25351D01*
X33284Y-25661D01*
X33351Y-25728D01*
X33177Y-25902D01*
X33118Y-25990D01*
X33036Y-25909D01*
X32726Y-25908D01*
X32556Y-26439D01*
X32603Y-26994D01*
X32726Y-27291D01*
X33036Y-27290D01*
X33074Y-27252D01*
X33074Y-27442D01*
X33101Y-27576D01*
X33166Y-27674D01*
X33166Y-27693D01*
X33231Y-27849D01*
X33350Y-27969D01*
X33507Y-28034D01*
X33676Y-28034D01*
X33758Y-28000D01*
X33814Y-28018D01*
X34369Y-27971D01*
X34560Y-27892D01*
X34630Y-27962D01*
X34961Y-27631D01*
X36150Y-28820D01*
X36150Y-30322D01*
X36034Y-30438D01*
X35950Y-30640D01*
X35949Y-30858D01*
X36033Y-31061D01*
X36188Y-31215D01*
X36390Y-31299D01*
X36608Y-31300D01*
X36811Y-31216D01*
X36965Y-31061D01*
X37049Y-30859D01*
X37050Y-30641D01*
X36966Y-30438D01*
X36850Y-30322D01*
X36850Y-28675D01*
X36823Y-28541D01*
X36747Y-28427D01*
X35474Y-27154D01*
X35536Y-27091D01*
X35575Y-26999D01*
X35575Y-26900D01*
X35575Y-26694D01*
X39627Y-30747D01*
X39741Y-30823D01*
X39741Y-30823D01*
X39875Y-30850D01*
X41008Y-30850D01*
X41158Y-31000D01*
X40995Y-31162D01*
X40905Y-31381D01*
X40904Y-31617D01*
X40995Y-31836D01*
X41158Y-32000D01*
X40995Y-32162D01*
X40987Y-32182D01*
X40809Y-32256D01*
X40810Y-32567D01*
X40935Y-32691D01*
X40995Y-32836D01*
X41162Y-33004D01*
X41308Y-33064D01*
X41500Y-33256D01*
X41691Y-33064D01*
X41836Y-33004D01*
X42004Y-32837D01*
X42064Y-32691D01*
X42189Y-32567D01*
X42190Y-32256D01*
X42020Y-32201D01*
X42004Y-32163D01*
X41841Y-31999D01*
X41991Y-31850D01*
X43752Y-31850D01*
X45095Y-33192D01*
X45095Y-33207D01*
X45159Y-33363D01*
X45279Y-33483D01*
X45435Y-33547D01*
X45604Y-33547D01*
X45760Y-33483D01*
X45880Y-33363D01*
X45945Y-33207D01*
X45945Y-33038D01*
X45880Y-32882D01*
X45761Y-32762D01*
X45605Y-32697D01*
X45590Y-32697D01*
X44144Y-31252D01*
X44031Y-31176D01*
X43897Y-31150D01*
X41991Y-31150D01*
X41841Y-30999D01*
X42004Y-30837D01*
X42094Y-30618D01*
X42095Y-30382D01*
X42004Y-30163D01*
X41841Y-29999D01*
X42004Y-29837D01*
X42094Y-29618D01*
X42095Y-29382D01*
X42004Y-29163D01*
X41841Y-28999D01*
X42004Y-28837D01*
X42094Y-28618D01*
X42095Y-28382D01*
X42004Y-28163D01*
X41841Y-27999D01*
X42004Y-27837D01*
X42094Y-27618D01*
X42095Y-27382D01*
X42004Y-27163D01*
X41841Y-26999D01*
X42004Y-26837D01*
X42094Y-26618D01*
X42095Y-26382D01*
X42004Y-26163D01*
X41841Y-25999D01*
X42004Y-25837D01*
X42094Y-25618D01*
X42095Y-25382D01*
X42004Y-25163D01*
X41841Y-24999D01*
X42004Y-24837D01*
X42094Y-24618D01*
X42095Y-24382D01*
X42004Y-24163D01*
X41841Y-23999D01*
X42004Y-23837D01*
X42094Y-23618D01*
X42095Y-23382D01*
X42004Y-23163D01*
X41841Y-22999D01*
X42004Y-22837D01*
X42094Y-22618D01*
X42095Y-22399D01*
X44199Y-20295D01*
X46940Y-20295D01*
X46905Y-20381D01*
X46904Y-20617D01*
X46995Y-20836D01*
X47158Y-21000D01*
X46995Y-21162D01*
X46905Y-21381D01*
X46904Y-21617D01*
X46995Y-21836D01*
X47158Y-22000D01*
X46995Y-22162D01*
X46905Y-22381D01*
X46904Y-22617D01*
X46995Y-22836D01*
X47158Y-23000D01*
X46995Y-23162D01*
X46905Y-23381D01*
X46904Y-23617D01*
X46995Y-23836D01*
X47158Y-24000D01*
X46995Y-24162D01*
X46905Y-24381D01*
X46904Y-24617D01*
X46995Y-24836D01*
X47158Y-25000D01*
X46995Y-25162D01*
X46905Y-25381D01*
X46904Y-25617D01*
X46995Y-25836D01*
X47158Y-26000D01*
X46995Y-26162D01*
X46905Y-26381D01*
X46904Y-26617D01*
X46995Y-26836D01*
X47158Y-27000D01*
X46995Y-27162D01*
X46905Y-27381D01*
X46904Y-27617D01*
X46995Y-27836D01*
X47158Y-28000D01*
X46995Y-28162D01*
X46905Y-28381D01*
X46904Y-28617D01*
X46995Y-28836D01*
X47158Y-29000D01*
X46995Y-29162D01*
X46905Y-29381D01*
X46904Y-29617D01*
X46995Y-29836D01*
X47158Y-30000D01*
X46995Y-30162D01*
X46987Y-30182D01*
X46809Y-30256D01*
X46810Y-30567D01*
X46935Y-30691D01*
X46995Y-30836D01*
X47162Y-31004D01*
X47308Y-31064D01*
X47500Y-31256D01*
X47691Y-31064D01*
X47836Y-31004D01*
X48004Y-30837D01*
X48064Y-30691D01*
X48189Y-30567D01*
X48190Y-30256D01*
X48020Y-30201D01*
X48004Y-30163D01*
X47841Y-29999D01*
X48004Y-29837D01*
X48094Y-29618D01*
X48095Y-29399D01*
X49599Y-27895D01*
X52609Y-27895D01*
X48907Y-31597D01*
X48867Y-31108D01*
X48743Y-30809D01*
X48432Y-30810D01*
X47743Y-31500D01*
X47865Y-31621D01*
X47621Y-31865D01*
X47500Y-31743D01*
X47308Y-31935D01*
X47256Y-31957D01*
X47256Y-31500D01*
X46567Y-30810D01*
X46256Y-30809D01*
X46086Y-31338D01*
X46132Y-31891D01*
X46256Y-32190D01*
X46567Y-32189D01*
X47256Y-31500D01*
X47256Y-31957D01*
X47163Y-31995D01*
X46995Y-32162D01*
X46935Y-32308D01*
X46810Y-32432D01*
X46809Y-32743D01*
X46979Y-32798D01*
X46995Y-32836D01*
X47158Y-33000D01*
X46995Y-33162D01*
X46905Y-33381D01*
X46904Y-33617D01*
X46995Y-33836D01*
X47108Y-33950D01*
X47105Y-33950D01*
X47013Y-33988D01*
X46943Y-34058D01*
X46905Y-34150D01*
X46905Y-34249D01*
X46905Y-34849D01*
X46943Y-34941D01*
X47013Y-35011D01*
X47105Y-35050D01*
X47204Y-35050D01*
X47460Y-35050D01*
X46857Y-35652D01*
X46843Y-35652D01*
X46686Y-35717D01*
X46572Y-35831D01*
X46571Y-35831D01*
X46571Y-35832D01*
X46567Y-35836D01*
X46502Y-35992D01*
X46502Y-36161D01*
X46566Y-36318D01*
X46686Y-36437D01*
X46842Y-36502D01*
X46947Y-36502D01*
X47250Y-36805D01*
X47347Y-36708D01*
X47375Y-36736D01*
X47375Y-37056D01*
X47302Y-37129D01*
X46990Y-37129D01*
X46958Y-37097D01*
X47055Y-37000D01*
X46389Y-36333D01*
X46081Y-36321D01*
X46010Y-36531D01*
X45953Y-36554D01*
X45805Y-36702D01*
X45725Y-36895D01*
X45724Y-37103D01*
X45735Y-37129D01*
X43349Y-37129D01*
X42972Y-36752D01*
X42913Y-36712D01*
X42913Y-33661D01*
X42867Y-33108D01*
X42743Y-32809D01*
X42432Y-32810D01*
X41743Y-33500D01*
X42432Y-34189D01*
X42743Y-34190D01*
X42913Y-33661D01*
X42913Y-36712D01*
X42859Y-36676D01*
X42768Y-36658D01*
X42736Y-36583D01*
X42666Y-36513D01*
X42574Y-36475D01*
X42481Y-36475D01*
X42418Y-36321D01*
X42190Y-36330D01*
X42190Y-34743D01*
X42189Y-34432D01*
X42064Y-34308D01*
X42004Y-34163D01*
X41837Y-33995D01*
X41691Y-33935D01*
X41500Y-33743D01*
X41308Y-33935D01*
X41256Y-33957D01*
X41256Y-33500D01*
X40567Y-32810D01*
X40256Y-32809D01*
X40086Y-33338D01*
X40132Y-33891D01*
X40256Y-34190D01*
X40567Y-34189D01*
X41256Y-33500D01*
X41256Y-33957D01*
X41163Y-33995D01*
X40995Y-34162D01*
X40935Y-34308D01*
X40810Y-34432D01*
X40809Y-34743D01*
X40979Y-34798D01*
X40995Y-34836D01*
X41162Y-35004D01*
X41381Y-35094D01*
X41617Y-35095D01*
X41836Y-35004D01*
X42004Y-34837D01*
X42012Y-34817D01*
X42190Y-34743D01*
X42190Y-36330D01*
X42110Y-36333D01*
X41969Y-36475D01*
X41928Y-36475D01*
X41928Y-35831D01*
X41430Y-35661D01*
X40903Y-35694D01*
X40571Y-35831D01*
X40583Y-36139D01*
X41250Y-36805D01*
X41916Y-36139D01*
X41928Y-35831D01*
X41928Y-36475D01*
X41925Y-36475D01*
X41833Y-36513D01*
X41763Y-36583D01*
X41725Y-36675D01*
X41725Y-36719D01*
X41444Y-37000D01*
X41725Y-37280D01*
X41725Y-37324D01*
X41763Y-37416D01*
X41833Y-37486D01*
X41925Y-37525D01*
X41969Y-37525D01*
X42110Y-37666D01*
X42418Y-37678D01*
X42470Y-37525D01*
X42574Y-37525D01*
X42666Y-37486D01*
X42691Y-37461D01*
X42956Y-37726D01*
X43070Y-37802D01*
X43204Y-37829D01*
X46169Y-37829D01*
X46205Y-37864D01*
X43340Y-37864D01*
X43207Y-37891D01*
X43093Y-37966D01*
X41928Y-39131D01*
X41928Y-38168D01*
X41916Y-37860D01*
X41250Y-37194D01*
X41055Y-37388D01*
X41055Y-37000D01*
X40389Y-36333D01*
X40081Y-36321D01*
X40010Y-36531D01*
X39953Y-36554D01*
X39805Y-36702D01*
X39725Y-36895D01*
X39724Y-37103D01*
X39804Y-37297D01*
X39952Y-37444D01*
X39991Y-37461D01*
X40081Y-37678D01*
X40389Y-37666D01*
X41055Y-37000D01*
X41055Y-37388D01*
X40583Y-37860D01*
X40571Y-38168D01*
X41069Y-38338D01*
X41596Y-38305D01*
X41928Y-38168D01*
X41928Y-39131D01*
X41517Y-39542D01*
X41354Y-39475D01*
X41146Y-39474D01*
X40953Y-39554D01*
X40805Y-39702D01*
X40749Y-39835D01*
X40695Y-39703D01*
X40547Y-39555D01*
X40354Y-39475D01*
X40146Y-39474D01*
X39953Y-39554D01*
X39805Y-39702D01*
X39725Y-39895D01*
X39724Y-40103D01*
X39804Y-40297D01*
X39952Y-40444D01*
X40145Y-40524D01*
X40353Y-40525D01*
X40547Y-40445D01*
X40694Y-40297D01*
X40750Y-40164D01*
X40804Y-40297D01*
X40952Y-40444D01*
X41145Y-40524D01*
X41252Y-40525D01*
X40021Y-41755D01*
X39945Y-41869D01*
X39918Y-42003D01*
X39918Y-42176D01*
X39797Y-42055D01*
X39604Y-41975D01*
X39396Y-41974D01*
X39203Y-42054D01*
X39055Y-42202D01*
X38975Y-42395D01*
X38974Y-42603D01*
X39054Y-42797D01*
X39202Y-42944D01*
X39395Y-43024D01*
X39603Y-43025D01*
X39797Y-42945D01*
X39918Y-42823D01*
X39918Y-44176D01*
X39797Y-44055D01*
X39604Y-43975D01*
X39396Y-43974D01*
X39203Y-44054D01*
X39055Y-44202D01*
X38975Y-44395D01*
X38974Y-44603D01*
X39054Y-44797D01*
X39202Y-44944D01*
X39395Y-45024D01*
X39603Y-45025D01*
X39797Y-44945D01*
X39918Y-44823D01*
X39918Y-45836D01*
X38608Y-47146D01*
X38608Y-33055D01*
X38575Y-32528D01*
X38438Y-32196D01*
X38130Y-32208D01*
X37948Y-32390D01*
X37948Y-31706D01*
X37450Y-31536D01*
X36923Y-31569D01*
X36591Y-31706D01*
X36603Y-32014D01*
X37270Y-32680D01*
X37936Y-32014D01*
X37948Y-31706D01*
X37948Y-32390D01*
X37464Y-32875D01*
X38130Y-33541D01*
X38438Y-33553D01*
X38608Y-33055D01*
X38608Y-47146D01*
X37948Y-47806D01*
X37948Y-34043D01*
X37936Y-33735D01*
X37270Y-33069D01*
X37075Y-33263D01*
X37075Y-32875D01*
X36409Y-32208D01*
X36101Y-32196D01*
X35931Y-32694D01*
X35964Y-33221D01*
X36101Y-33553D01*
X36409Y-33541D01*
X37075Y-32875D01*
X37075Y-33263D01*
X36603Y-33735D01*
X36591Y-34043D01*
X37089Y-34213D01*
X37616Y-34180D01*
X37948Y-34043D01*
X37948Y-47806D01*
X37942Y-47812D01*
X37667Y-47815D01*
X37525Y-47958D01*
X37525Y-44896D01*
X37525Y-41896D01*
X37445Y-41703D01*
X37297Y-41555D01*
X37104Y-41475D01*
X36896Y-41474D01*
X36775Y-41524D01*
X36775Y-39896D01*
X36775Y-39895D01*
X36775Y-37324D01*
X36775Y-37225D01*
X36775Y-36675D01*
X36736Y-36583D01*
X36666Y-36513D01*
X36574Y-36475D01*
X36481Y-36475D01*
X36418Y-36321D01*
X36110Y-36333D01*
X35969Y-36475D01*
X35928Y-36475D01*
X35928Y-35831D01*
X35795Y-35786D01*
X35795Y-32771D01*
X35715Y-32578D01*
X35567Y-32430D01*
X35374Y-32350D01*
X35239Y-32349D01*
X35012Y-32122D01*
X34898Y-32046D01*
X34764Y-32019D01*
X32850Y-32019D01*
X32850Y-31177D01*
X32965Y-31061D01*
X33049Y-30859D01*
X33050Y-30641D01*
X32966Y-30438D01*
X32811Y-30284D01*
X32609Y-30200D01*
X32391Y-30199D01*
X32188Y-30283D01*
X32034Y-30438D01*
X31950Y-30640D01*
X31949Y-30858D01*
X32033Y-31061D01*
X32150Y-31177D01*
X32150Y-32224D01*
X32087Y-32287D01*
X32011Y-32400D01*
X32006Y-32425D01*
X31869Y-32563D01*
X31785Y-32765D01*
X31784Y-32983D01*
X31868Y-33186D01*
X32023Y-33340D01*
X32225Y-33424D01*
X32443Y-33425D01*
X32646Y-33341D01*
X32785Y-33202D01*
X32785Y-33224D01*
X32823Y-33316D01*
X32893Y-33386D01*
X32985Y-33425D01*
X33084Y-33425D01*
X33684Y-33425D01*
X33776Y-33386D01*
X33846Y-33316D01*
X33885Y-33224D01*
X33885Y-33125D01*
X33885Y-32719D01*
X34619Y-32719D01*
X34745Y-32845D01*
X34744Y-32978D01*
X34824Y-33172D01*
X34972Y-33319D01*
X35165Y-33399D01*
X35373Y-33400D01*
X35567Y-33320D01*
X35714Y-33172D01*
X35794Y-32979D01*
X35795Y-32771D01*
X35795Y-35786D01*
X35430Y-35661D01*
X34903Y-35694D01*
X34571Y-35831D01*
X34583Y-36139D01*
X35250Y-36805D01*
X35916Y-36139D01*
X35928Y-35831D01*
X35928Y-36475D01*
X35925Y-36475D01*
X35833Y-36513D01*
X35763Y-36583D01*
X35725Y-36675D01*
X35725Y-36719D01*
X35444Y-37000D01*
X35725Y-37280D01*
X35725Y-37324D01*
X35763Y-37416D01*
X35833Y-37486D01*
X35925Y-37525D01*
X35969Y-37525D01*
X36110Y-37666D01*
X36418Y-37678D01*
X36470Y-37525D01*
X36574Y-37525D01*
X36666Y-37486D01*
X36736Y-37416D01*
X36775Y-37324D01*
X36775Y-39895D01*
X36695Y-39703D01*
X36547Y-39555D01*
X36354Y-39475D01*
X36146Y-39474D01*
X35953Y-39554D01*
X35928Y-39578D01*
X35928Y-38168D01*
X35916Y-37860D01*
X35250Y-37194D01*
X35055Y-37388D01*
X35055Y-37000D01*
X34389Y-36333D01*
X34081Y-36321D01*
X34010Y-36531D01*
X33953Y-36554D01*
X33805Y-36702D01*
X33725Y-36895D01*
X33724Y-37103D01*
X33804Y-37297D01*
X33952Y-37444D01*
X33991Y-37461D01*
X34081Y-37678D01*
X34389Y-37666D01*
X35055Y-37000D01*
X35055Y-37388D01*
X34583Y-37860D01*
X34571Y-38168D01*
X35069Y-38338D01*
X35596Y-38305D01*
X35928Y-38168D01*
X35928Y-39578D01*
X35805Y-39702D01*
X35749Y-39835D01*
X35695Y-39703D01*
X35547Y-39555D01*
X35354Y-39475D01*
X35146Y-39474D01*
X34953Y-39554D01*
X34805Y-39702D01*
X34749Y-39835D01*
X34695Y-39703D01*
X34547Y-39555D01*
X34354Y-39475D01*
X34146Y-39474D01*
X33953Y-39554D01*
X33805Y-39702D01*
X33725Y-39895D01*
X33724Y-40103D01*
X33804Y-40297D01*
X33952Y-40444D01*
X34145Y-40524D01*
X34353Y-40525D01*
X34547Y-40445D01*
X34694Y-40297D01*
X34750Y-40164D01*
X34804Y-40297D01*
X34952Y-40444D01*
X35145Y-40524D01*
X35353Y-40525D01*
X35547Y-40445D01*
X35694Y-40297D01*
X35750Y-40164D01*
X35804Y-40297D01*
X35952Y-40444D01*
X36145Y-40524D01*
X36353Y-40525D01*
X36547Y-40445D01*
X36694Y-40297D01*
X36774Y-40104D01*
X36775Y-39896D01*
X36775Y-41524D01*
X36703Y-41554D01*
X36555Y-41702D01*
X36475Y-41895D01*
X36474Y-42103D01*
X36554Y-42297D01*
X36702Y-42444D01*
X36895Y-42524D01*
X37103Y-42525D01*
X37297Y-42445D01*
X37444Y-42297D01*
X37524Y-42104D01*
X37525Y-41896D01*
X37525Y-44896D01*
X37445Y-44703D01*
X37297Y-44555D01*
X37104Y-44475D01*
X36896Y-44474D01*
X36703Y-44554D01*
X36555Y-44702D01*
X36550Y-44714D01*
X36550Y-44100D01*
X36515Y-43927D01*
X36418Y-43781D01*
X35700Y-43063D01*
X35700Y-42285D01*
X35774Y-42104D01*
X35775Y-41896D01*
X35695Y-41703D01*
X35547Y-41555D01*
X35354Y-41475D01*
X35146Y-41474D01*
X34953Y-41554D01*
X34805Y-41702D01*
X34725Y-41895D01*
X34724Y-42103D01*
X34800Y-42285D01*
X34800Y-43250D01*
X34834Y-43422D01*
X34931Y-43568D01*
X35650Y-44286D01*
X35650Y-44657D01*
X35547Y-44555D01*
X35354Y-44475D01*
X35146Y-44474D01*
X34953Y-44554D01*
X34805Y-44702D01*
X34725Y-44895D01*
X34724Y-45103D01*
X34804Y-45297D01*
X34952Y-45444D01*
X35145Y-45524D01*
X35353Y-45525D01*
X35547Y-45445D01*
X35650Y-45342D01*
X35650Y-46013D01*
X34620Y-47042D01*
X34573Y-47112D01*
X34523Y-47188D01*
X34523Y-47188D01*
X34523Y-47188D01*
X34506Y-47270D01*
X34489Y-47361D01*
X34489Y-47361D01*
X34489Y-47970D01*
X34482Y-47973D01*
X34412Y-48043D01*
X34374Y-48135D01*
X34374Y-48234D01*
X34374Y-48864D01*
X34412Y-48956D01*
X34482Y-49026D01*
X34574Y-49065D01*
X34673Y-49065D01*
X35303Y-49065D01*
X35395Y-49026D01*
X35438Y-48984D01*
X35522Y-49187D01*
X35832Y-49184D01*
X36516Y-48500D01*
X35832Y-47815D01*
X35522Y-47812D01*
X35451Y-48029D01*
X35395Y-47973D01*
X35389Y-47970D01*
X35389Y-47547D01*
X36418Y-46518D01*
X36418Y-46518D01*
X36465Y-46448D01*
X36515Y-46372D01*
X36515Y-46372D01*
X36515Y-46372D01*
X36532Y-46290D01*
X36550Y-46200D01*
X36550Y-46199D01*
X36550Y-45285D01*
X36554Y-45297D01*
X36702Y-45444D01*
X36895Y-45524D01*
X37103Y-45525D01*
X37297Y-45445D01*
X37444Y-45297D01*
X37524Y-45104D01*
X37525Y-44896D01*
X37525Y-47958D01*
X37512Y-47970D01*
X37437Y-48001D01*
X37437Y-47272D01*
X36915Y-47102D01*
X36368Y-47145D01*
X36062Y-47272D01*
X36065Y-47582D01*
X36750Y-48266D01*
X37434Y-47582D01*
X37437Y-47272D01*
X37437Y-48001D01*
X37421Y-48008D01*
X37258Y-48171D01*
X37220Y-48262D01*
X36983Y-48500D01*
X37220Y-48737D01*
X37258Y-48828D01*
X37421Y-48991D01*
X37512Y-49029D01*
X37667Y-49184D01*
X37977Y-49187D01*
X38035Y-49009D01*
X38078Y-48991D01*
X38241Y-48828D01*
X38329Y-48615D01*
X38330Y-48414D01*
X40516Y-46228D01*
X40592Y-46115D01*
X40592Y-46115D01*
X40618Y-45981D01*
X40618Y-42148D01*
X40724Y-42042D01*
X40724Y-42103D01*
X40800Y-42285D01*
X40800Y-42450D01*
X40834Y-42622D01*
X40931Y-42768D01*
X41650Y-43486D01*
X41650Y-44657D01*
X41547Y-44555D01*
X41354Y-44475D01*
X41146Y-44474D01*
X40953Y-44554D01*
X40805Y-44702D01*
X40725Y-44895D01*
X40724Y-45103D01*
X40804Y-45297D01*
X40952Y-45444D01*
X41145Y-45524D01*
X41353Y-45525D01*
X41547Y-45445D01*
X41650Y-45342D01*
X41650Y-46113D01*
X40620Y-47142D01*
X40523Y-47288D01*
X40488Y-47461D01*
X40488Y-47970D01*
X40482Y-47973D01*
X40412Y-48043D01*
X40374Y-48135D01*
X40374Y-48234D01*
X40374Y-48864D01*
X40412Y-48956D01*
X40482Y-49026D01*
X40574Y-49065D01*
X40673Y-49065D01*
X41303Y-49065D01*
X41395Y-49026D01*
X41438Y-48984D01*
X41522Y-49187D01*
X41832Y-49184D01*
X42516Y-48500D01*
X41832Y-47815D01*
X41522Y-47812D01*
X41451Y-48029D01*
X41395Y-47973D01*
X41388Y-47970D01*
X41388Y-47647D01*
X42418Y-46618D01*
X42515Y-46472D01*
X42550Y-46300D01*
X42550Y-45285D01*
X42554Y-45297D01*
X42702Y-45444D01*
X42895Y-45524D01*
X43103Y-45525D01*
X43297Y-45445D01*
X43444Y-45297D01*
X43524Y-45104D01*
X43525Y-44896D01*
X43525Y-41896D01*
X43445Y-41703D01*
X43297Y-41555D01*
X43104Y-41475D01*
X42896Y-41474D01*
X42703Y-41554D01*
X42555Y-41702D01*
X42475Y-41895D01*
X42474Y-42103D01*
X42554Y-42297D01*
X42702Y-42444D01*
X42895Y-42524D01*
X43103Y-42525D01*
X43297Y-42445D01*
X43444Y-42297D01*
X43524Y-42104D01*
X43525Y-41896D01*
X43525Y-44896D01*
X43445Y-44703D01*
X43297Y-44555D01*
X43104Y-44475D01*
X42896Y-44474D01*
X42703Y-44554D01*
X42555Y-44702D01*
X42550Y-44714D01*
X42550Y-43300D01*
X42515Y-43127D01*
X42418Y-42981D01*
X41706Y-42269D01*
X41774Y-42104D01*
X41775Y-41896D01*
X41695Y-41703D01*
X41547Y-41555D01*
X41354Y-41475D01*
X41292Y-41475D01*
X41997Y-40769D01*
X42073Y-40656D01*
X42073Y-40656D01*
X42100Y-40522D01*
X42100Y-40506D01*
X42145Y-40524D01*
X42353Y-40525D01*
X42547Y-40445D01*
X42694Y-40297D01*
X42774Y-40104D01*
X42775Y-39896D01*
X42695Y-39703D01*
X42547Y-39555D01*
X42510Y-39539D01*
X43485Y-38564D01*
X47877Y-38564D01*
X48011Y-38537D01*
X48011Y-38537D01*
X48125Y-38461D01*
X55585Y-31002D01*
X55585Y-34694D01*
X54002Y-36277D01*
X53928Y-36387D01*
X53928Y-35831D01*
X53430Y-35661D01*
X52903Y-35694D01*
X52571Y-35831D01*
X52583Y-36139D01*
X53250Y-36805D01*
X53916Y-36139D01*
X53928Y-35831D01*
X53928Y-36387D01*
X53926Y-36390D01*
X53908Y-36481D01*
X53833Y-36513D01*
X53763Y-36583D01*
X53725Y-36675D01*
X53725Y-36719D01*
X53444Y-37000D01*
X53725Y-37280D01*
X53725Y-37324D01*
X53763Y-37416D01*
X53833Y-37486D01*
X53925Y-37525D01*
X53969Y-37525D01*
X54110Y-37666D01*
X54418Y-37678D01*
X54470Y-37525D01*
X54574Y-37525D01*
X54666Y-37486D01*
X54736Y-37416D01*
X54775Y-37324D01*
X54775Y-37225D01*
X54775Y-36675D01*
X54736Y-36583D01*
X54711Y-36558D01*
X56182Y-35087D01*
X56258Y-34973D01*
X56258Y-34973D01*
X56285Y-34839D01*
X56285Y-30462D01*
X56379Y-30367D01*
X56435Y-30234D01*
X56489Y-30367D01*
X56637Y-30514D01*
X56830Y-30594D01*
X56965Y-30595D01*
X59900Y-33529D01*
X59900Y-35740D01*
X59851Y-35691D01*
X59766Y-35776D01*
X59430Y-35661D01*
X58903Y-35694D01*
X58571Y-35831D01*
X58583Y-36139D01*
X59250Y-36805D01*
X59347Y-36708D01*
X59541Y-36902D01*
X59444Y-37000D01*
X59725Y-37280D01*
X59725Y-37324D01*
X59763Y-37416D01*
X59833Y-37486D01*
X59925Y-37525D01*
X59969Y-37525D01*
X60110Y-37666D01*
X60418Y-37678D01*
X60470Y-37525D01*
X60574Y-37525D01*
X60666Y-37486D01*
X60736Y-37416D01*
X60775Y-37324D01*
X60775Y-37225D01*
X60775Y-36675D01*
X60736Y-36583D01*
X60666Y-36513D01*
X60600Y-36485D01*
X60600Y-33384D01*
X60573Y-33251D01*
X60573Y-33251D01*
X60497Y-33137D01*
X58775Y-31415D01*
X60470Y-31415D01*
X64794Y-35739D01*
X64571Y-35831D01*
X64583Y-36139D01*
X65250Y-36805D01*
X65347Y-36708D01*
X65541Y-36902D01*
X65444Y-37000D01*
X65541Y-37097D01*
X65347Y-37291D01*
X65250Y-37194D01*
X65152Y-37291D01*
X65055Y-37194D01*
X64958Y-37097D01*
X65055Y-37000D01*
X64389Y-36333D01*
X64081Y-36321D01*
X64010Y-36531D01*
X63953Y-36554D01*
X63805Y-36702D01*
X63725Y-36895D01*
X63724Y-37103D01*
X63804Y-37297D01*
X63952Y-37444D01*
X63991Y-37461D01*
X64018Y-37524D01*
X63941Y-37601D01*
X64260Y-37919D01*
X61588Y-40591D01*
X60775Y-40591D01*
X60775Y-39896D01*
X60695Y-39703D01*
X60547Y-39555D01*
X60354Y-39475D01*
X60146Y-39474D01*
X59953Y-39554D01*
X59928Y-39578D01*
X59928Y-38168D01*
X59916Y-37860D01*
X59250Y-37194D01*
X59055Y-37388D01*
X59055Y-37000D01*
X58389Y-36333D01*
X58081Y-36321D01*
X58010Y-36531D01*
X57953Y-36554D01*
X57805Y-36702D01*
X57725Y-36895D01*
X57724Y-37103D01*
X57804Y-37297D01*
X57952Y-37444D01*
X57991Y-37461D01*
X58081Y-37678D01*
X58389Y-37666D01*
X59055Y-37000D01*
X59055Y-37388D01*
X58583Y-37860D01*
X58571Y-38168D01*
X59069Y-38338D01*
X59596Y-38305D01*
X59928Y-38168D01*
X59928Y-39578D01*
X59805Y-39702D01*
X59749Y-39835D01*
X59695Y-39703D01*
X59547Y-39555D01*
X59354Y-39475D01*
X59146Y-39474D01*
X58953Y-39554D01*
X58805Y-39702D01*
X58749Y-39835D01*
X58695Y-39703D01*
X58547Y-39555D01*
X58354Y-39475D01*
X58146Y-39474D01*
X57953Y-39554D01*
X57805Y-39702D01*
X57725Y-39895D01*
X57724Y-40103D01*
X57804Y-40297D01*
X57952Y-40444D01*
X58145Y-40524D01*
X58353Y-40525D01*
X58547Y-40445D01*
X58694Y-40297D01*
X58750Y-40164D01*
X58804Y-40297D01*
X58952Y-40444D01*
X59145Y-40524D01*
X59353Y-40525D01*
X59547Y-40445D01*
X59694Y-40297D01*
X59750Y-40164D01*
X59804Y-40297D01*
X59952Y-40444D01*
X60145Y-40524D01*
X60353Y-40525D01*
X60547Y-40445D01*
X60694Y-40297D01*
X60774Y-40104D01*
X60775Y-39896D01*
X60775Y-40591D01*
X59635Y-40591D01*
X59501Y-40617D01*
X59388Y-40693D01*
X58472Y-41609D01*
X58396Y-41723D01*
X58369Y-41857D01*
X58369Y-45385D01*
X58025Y-45729D01*
X58025Y-44396D01*
X58025Y-42396D01*
X57945Y-42203D01*
X57797Y-42055D01*
X57604Y-41975D01*
X57396Y-41974D01*
X57203Y-42054D01*
X57055Y-42202D01*
X56975Y-42395D01*
X56974Y-42603D01*
X57054Y-42797D01*
X57202Y-42944D01*
X57395Y-43024D01*
X57603Y-43025D01*
X57797Y-42945D01*
X57944Y-42797D01*
X58024Y-42604D01*
X58025Y-42396D01*
X58025Y-44396D01*
X57945Y-44203D01*
X57797Y-44055D01*
X57604Y-43975D01*
X57396Y-43974D01*
X57203Y-44054D01*
X57055Y-44202D01*
X56975Y-44395D01*
X56974Y-44603D01*
X57054Y-44797D01*
X57202Y-44944D01*
X57395Y-45024D01*
X57603Y-45025D01*
X57797Y-44945D01*
X57944Y-44797D01*
X58024Y-44604D01*
X58025Y-44396D01*
X58025Y-45729D01*
X55942Y-47812D01*
X55667Y-47815D01*
X55525Y-47958D01*
X55525Y-44896D01*
X55525Y-41896D01*
X55445Y-41703D01*
X55297Y-41555D01*
X55104Y-41475D01*
X54896Y-41474D01*
X54775Y-41524D01*
X54775Y-39896D01*
X54695Y-39703D01*
X54547Y-39555D01*
X54354Y-39475D01*
X54146Y-39474D01*
X53953Y-39554D01*
X53928Y-39578D01*
X53928Y-38168D01*
X53916Y-37860D01*
X53250Y-37194D01*
X53055Y-37388D01*
X53055Y-37000D01*
X52389Y-36333D01*
X52081Y-36321D01*
X52010Y-36531D01*
X51953Y-36554D01*
X51805Y-36702D01*
X51725Y-36895D01*
X51724Y-37103D01*
X51804Y-37297D01*
X51952Y-37444D01*
X51991Y-37461D01*
X52081Y-37678D01*
X52389Y-37666D01*
X53055Y-37000D01*
X53055Y-37388D01*
X52583Y-37860D01*
X52571Y-38168D01*
X53069Y-38338D01*
X53596Y-38305D01*
X53928Y-38168D01*
X53928Y-39578D01*
X53805Y-39702D01*
X53749Y-39835D01*
X53695Y-39703D01*
X53547Y-39555D01*
X53354Y-39475D01*
X53146Y-39474D01*
X52953Y-39554D01*
X52805Y-39702D01*
X52749Y-39835D01*
X52695Y-39703D01*
X52547Y-39555D01*
X52354Y-39475D01*
X52146Y-39474D01*
X51953Y-39554D01*
X51805Y-39702D01*
X51725Y-39895D01*
X51724Y-40103D01*
X51804Y-40297D01*
X51952Y-40444D01*
X52145Y-40524D01*
X52353Y-40525D01*
X52547Y-40445D01*
X52694Y-40297D01*
X52750Y-40164D01*
X52804Y-40297D01*
X52952Y-40444D01*
X53145Y-40524D01*
X53353Y-40525D01*
X53547Y-40445D01*
X53694Y-40297D01*
X53750Y-40164D01*
X53804Y-40297D01*
X53952Y-40444D01*
X54145Y-40524D01*
X54353Y-40525D01*
X54547Y-40445D01*
X54694Y-40297D01*
X54774Y-40104D01*
X54775Y-39896D01*
X54775Y-41524D01*
X54703Y-41554D01*
X54555Y-41702D01*
X54475Y-41895D01*
X54474Y-42103D01*
X54554Y-42297D01*
X54702Y-42444D01*
X54895Y-42524D01*
X55103Y-42525D01*
X55297Y-42445D01*
X55444Y-42297D01*
X55524Y-42104D01*
X55525Y-41896D01*
X55525Y-44896D01*
X55445Y-44703D01*
X55297Y-44555D01*
X55104Y-44475D01*
X54896Y-44474D01*
X54703Y-44554D01*
X54555Y-44702D01*
X54550Y-44714D01*
X54550Y-43500D01*
X54515Y-43327D01*
X54418Y-43181D01*
X53700Y-42463D01*
X53700Y-42285D01*
X53774Y-42104D01*
X53775Y-41896D01*
X53695Y-41703D01*
X53547Y-41555D01*
X53354Y-41475D01*
X53146Y-41474D01*
X52953Y-41554D01*
X52805Y-41702D01*
X52725Y-41895D01*
X52724Y-42103D01*
X52800Y-42285D01*
X52800Y-42650D01*
X52834Y-42822D01*
X52931Y-42968D01*
X53650Y-43686D01*
X53650Y-44657D01*
X53547Y-44555D01*
X53354Y-44475D01*
X53146Y-44474D01*
X52953Y-44554D01*
X52805Y-44702D01*
X52725Y-44895D01*
X52724Y-45103D01*
X52804Y-45297D01*
X52952Y-45444D01*
X53145Y-45524D01*
X53353Y-45525D01*
X53547Y-45445D01*
X53650Y-45342D01*
X53650Y-45513D01*
X52620Y-46542D01*
X52523Y-46688D01*
X52488Y-46861D01*
X52488Y-47680D01*
X52488Y-47970D01*
X52482Y-47973D01*
X52412Y-48043D01*
X52374Y-48135D01*
X52374Y-48234D01*
X52374Y-48864D01*
X52412Y-48956D01*
X52482Y-49026D01*
X52574Y-49065D01*
X52673Y-49065D01*
X53303Y-49065D01*
X53395Y-49026D01*
X53438Y-48984D01*
X53522Y-49187D01*
X53832Y-49184D01*
X54516Y-48500D01*
X53832Y-47815D01*
X53522Y-47812D01*
X53451Y-48029D01*
X53395Y-47973D01*
X53388Y-47970D01*
X53388Y-47680D01*
X53388Y-47047D01*
X54418Y-46018D01*
X54515Y-45872D01*
X54550Y-45700D01*
X54550Y-45285D01*
X54554Y-45297D01*
X54702Y-45444D01*
X54895Y-45524D01*
X55103Y-45525D01*
X55297Y-45445D01*
X55444Y-45297D01*
X55524Y-45104D01*
X55525Y-44896D01*
X55525Y-47958D01*
X55512Y-47970D01*
X55437Y-48001D01*
X55437Y-47272D01*
X54915Y-47102D01*
X54368Y-47145D01*
X54062Y-47272D01*
X54065Y-47582D01*
X54750Y-48266D01*
X55434Y-47582D01*
X55437Y-47272D01*
X55437Y-48001D01*
X55421Y-48008D01*
X55258Y-48171D01*
X55220Y-48262D01*
X54983Y-48500D01*
X55220Y-48737D01*
X55258Y-48828D01*
X55421Y-48991D01*
X55512Y-49029D01*
X55667Y-49184D01*
X55977Y-49187D01*
X56035Y-49009D01*
X56078Y-48991D01*
X56241Y-48828D01*
X56329Y-48615D01*
X56330Y-48414D01*
X58967Y-45777D01*
X59043Y-45664D01*
X59043Y-45664D01*
X59069Y-45530D01*
X59069Y-45493D01*
X59145Y-45524D01*
X59353Y-45525D01*
X59547Y-45445D01*
X59650Y-45342D01*
X59650Y-45713D01*
X58620Y-46742D01*
X58523Y-46888D01*
X58488Y-47061D01*
X58488Y-47780D01*
X58488Y-47970D01*
X58482Y-47973D01*
X58412Y-48043D01*
X58374Y-48135D01*
X58374Y-48234D01*
X58374Y-48864D01*
X58412Y-48956D01*
X58482Y-49026D01*
X58574Y-49065D01*
X58673Y-49065D01*
X59303Y-49065D01*
X59395Y-49026D01*
X59438Y-48984D01*
X59522Y-49187D01*
X59832Y-49184D01*
X60516Y-48500D01*
X59832Y-47815D01*
X59522Y-47812D01*
X59451Y-48029D01*
X59395Y-47973D01*
X59388Y-47970D01*
X59388Y-47780D01*
X59388Y-47247D01*
X60418Y-46218D01*
X60515Y-46072D01*
X60550Y-45900D01*
X60550Y-45285D01*
X60554Y-45297D01*
X60702Y-45444D01*
X60895Y-45524D01*
X61103Y-45525D01*
X61297Y-45445D01*
X61444Y-45297D01*
X61524Y-45104D01*
X61525Y-44896D01*
X61525Y-41896D01*
X61445Y-41703D01*
X61297Y-41555D01*
X61104Y-41475D01*
X60896Y-41474D01*
X60703Y-41554D01*
X60555Y-41702D01*
X60475Y-41895D01*
X60474Y-42103D01*
X60554Y-42297D01*
X60702Y-42444D01*
X60895Y-42524D01*
X61103Y-42525D01*
X61297Y-42445D01*
X61444Y-42297D01*
X61524Y-42104D01*
X61525Y-41896D01*
X61525Y-44896D01*
X61445Y-44703D01*
X61297Y-44555D01*
X61104Y-44475D01*
X60896Y-44474D01*
X60703Y-44554D01*
X60555Y-44702D01*
X60550Y-44714D01*
X60550Y-43700D01*
X60515Y-43527D01*
X60418Y-43381D01*
X59700Y-42663D01*
X59700Y-42285D01*
X59774Y-42104D01*
X59775Y-41896D01*
X59695Y-41703D01*
X59547Y-41555D01*
X59525Y-41546D01*
X59780Y-41291D01*
X61733Y-41291D01*
X61867Y-41264D01*
X61867Y-41264D01*
X61980Y-41188D01*
X64891Y-38277D01*
X65069Y-38338D01*
X65596Y-38305D01*
X65774Y-38231D01*
X65851Y-38308D01*
X65980Y-38178D01*
X66255Y-38178D01*
X66389Y-38151D01*
X66389Y-38151D01*
X66502Y-38075D01*
X68247Y-36331D01*
X68323Y-36217D01*
X68323Y-36217D01*
X68350Y-36083D01*
X68350Y-30392D01*
X68444Y-30297D01*
X68500Y-30164D01*
X68554Y-30297D01*
X68650Y-30392D01*
X68650Y-35974D01*
X65502Y-39121D01*
X65426Y-39235D01*
X65399Y-39369D01*
X65399Y-39493D01*
X65354Y-39475D01*
X65146Y-39474D01*
X64953Y-39554D01*
X64805Y-39702D01*
X64749Y-39835D01*
X64695Y-39703D01*
X64547Y-39555D01*
X64354Y-39475D01*
X64146Y-39474D01*
X63953Y-39554D01*
X63805Y-39702D01*
X63725Y-39895D01*
X63724Y-40103D01*
X63804Y-40297D01*
X63952Y-40444D01*
X64145Y-40524D01*
X64353Y-40525D01*
X64547Y-40445D01*
X64694Y-40297D01*
X64750Y-40164D01*
X64804Y-40297D01*
X64952Y-40444D01*
X65145Y-40524D01*
X65339Y-40525D01*
X64376Y-41488D01*
X64300Y-41602D01*
X64273Y-41735D01*
X64273Y-45481D01*
X64025Y-45729D01*
X64025Y-44396D01*
X64025Y-42396D01*
X63945Y-42203D01*
X63797Y-42055D01*
X63604Y-41975D01*
X63396Y-41974D01*
X63203Y-42054D01*
X63055Y-42202D01*
X62975Y-42395D01*
X62974Y-42603D01*
X63054Y-42797D01*
X63202Y-42944D01*
X63395Y-43024D01*
X63603Y-43025D01*
X63797Y-42945D01*
X63944Y-42797D01*
X64024Y-42604D01*
X64025Y-42396D01*
X64025Y-44396D01*
X63945Y-44203D01*
X63797Y-44055D01*
X63604Y-43975D01*
X63396Y-43974D01*
X63203Y-44054D01*
X63055Y-44202D01*
X62975Y-44395D01*
X62974Y-44603D01*
X63054Y-44797D01*
X63202Y-44944D01*
X63395Y-45024D01*
X63603Y-45025D01*
X63797Y-44945D01*
X63944Y-44797D01*
X64024Y-44604D01*
X64025Y-44396D01*
X64025Y-45729D01*
X61942Y-47812D01*
X61667Y-47815D01*
X61512Y-47970D01*
X61437Y-48001D01*
X61437Y-47272D01*
X60915Y-47102D01*
X60368Y-47145D01*
X60062Y-47272D01*
X60065Y-47582D01*
X60750Y-48266D01*
X61434Y-47582D01*
X61437Y-47272D01*
X61437Y-48001D01*
X61421Y-48008D01*
X61258Y-48171D01*
X61220Y-48262D01*
X60983Y-48500D01*
X61220Y-48737D01*
X61258Y-48828D01*
X61421Y-48991D01*
X61512Y-49029D01*
X61667Y-49184D01*
X61977Y-49187D01*
X62035Y-49009D01*
X62078Y-48991D01*
X62241Y-48828D01*
X62329Y-48615D01*
X62330Y-48414D01*
X64871Y-45873D01*
X64947Y-45760D01*
X64973Y-45626D01*
X64973Y-45453D01*
X65145Y-45524D01*
X65353Y-45525D01*
X65547Y-45445D01*
X65650Y-45342D01*
X65650Y-46113D01*
X64620Y-47142D01*
X64523Y-47288D01*
X64488Y-47461D01*
X64488Y-47970D01*
X64482Y-47973D01*
X64412Y-48043D01*
X64374Y-48135D01*
X64374Y-48234D01*
X64374Y-48864D01*
X64412Y-48956D01*
X64482Y-49026D01*
X64574Y-49065D01*
X64673Y-49065D01*
X65303Y-49065D01*
X65395Y-49026D01*
X65438Y-48984D01*
X65522Y-49187D01*
X65832Y-49184D01*
X66516Y-48500D01*
X65832Y-47815D01*
X65522Y-47812D01*
X65451Y-48029D01*
X65395Y-47973D01*
X65388Y-47970D01*
X65388Y-47647D01*
X66418Y-46618D01*
X66515Y-46472D01*
X66550Y-46300D01*
X66550Y-45285D01*
X66554Y-45297D01*
X66702Y-45444D01*
X66895Y-45524D01*
X67103Y-45525D01*
X67297Y-45445D01*
X67400Y-45342D01*
X67400Y-47161D01*
X67390Y-47152D01*
X67311Y-47231D01*
X66915Y-47102D01*
X66368Y-47145D01*
X66062Y-47272D01*
X66065Y-47582D01*
X66750Y-48266D01*
X66866Y-48149D01*
X67100Y-48383D01*
X66983Y-48500D01*
X67220Y-48737D01*
X67258Y-48828D01*
X67421Y-48991D01*
X67512Y-49029D01*
X67667Y-49184D01*
X67977Y-49187D01*
X68035Y-49009D01*
X68078Y-48991D01*
X68241Y-48828D01*
X68329Y-48615D01*
X68330Y-48385D01*
X68241Y-48171D01*
X68100Y-48029D01*
X68100Y-38394D01*
X70018Y-36476D01*
X70026Y-36483D01*
X70010Y-36531D01*
X69953Y-36554D01*
X69805Y-36702D01*
X69725Y-36895D01*
X69724Y-37103D01*
X69804Y-37297D01*
X69952Y-37444D01*
X69991Y-37461D01*
X70081Y-37678D01*
X70389Y-37666D01*
X71055Y-37000D01*
X70958Y-36902D01*
X71152Y-36708D01*
X71250Y-36805D01*
X71347Y-36708D01*
X71541Y-36902D01*
X71444Y-37000D01*
X71725Y-37280D01*
X71725Y-37324D01*
X71763Y-37416D01*
X71833Y-37486D01*
X71925Y-37525D01*
X71969Y-37525D01*
X72110Y-37666D01*
X72418Y-37678D01*
X72470Y-37525D01*
X72574Y-37525D01*
X72666Y-37486D01*
X72736Y-37416D01*
X72775Y-37324D01*
X72775Y-37225D01*
X72775Y-36675D01*
X72736Y-36583D01*
X72666Y-36513D01*
X72591Y-36481D01*
X72573Y-36390D01*
X72497Y-36277D01*
X70850Y-34629D01*
X70850Y-30506D01*
X70895Y-30524D01*
X71030Y-30525D01*
X73400Y-32894D01*
X73400Y-41657D01*
X73297Y-41555D01*
X73104Y-41475D01*
X72896Y-41474D01*
X72775Y-41524D01*
X72775Y-39896D01*
X72695Y-39703D01*
X72547Y-39555D01*
X72354Y-39475D01*
X72146Y-39474D01*
X71953Y-39554D01*
X71928Y-39578D01*
X71928Y-38168D01*
X71916Y-37860D01*
X71250Y-37194D01*
X70583Y-37860D01*
X70571Y-38168D01*
X71069Y-38338D01*
X71596Y-38305D01*
X71928Y-38168D01*
X71928Y-39578D01*
X71805Y-39702D01*
X71749Y-39835D01*
X71695Y-39703D01*
X71547Y-39555D01*
X71354Y-39475D01*
X71146Y-39474D01*
X70953Y-39554D01*
X70805Y-39702D01*
X70749Y-39835D01*
X70695Y-39703D01*
X70547Y-39555D01*
X70354Y-39475D01*
X70146Y-39474D01*
X69953Y-39554D01*
X69805Y-39702D01*
X69725Y-39895D01*
X69724Y-40103D01*
X69804Y-40297D01*
X69952Y-40444D01*
X70145Y-40524D01*
X70353Y-40525D01*
X70547Y-40445D01*
X70694Y-40297D01*
X70750Y-40164D01*
X70804Y-40297D01*
X70952Y-40444D01*
X71145Y-40524D01*
X71353Y-40525D01*
X71547Y-40445D01*
X71694Y-40297D01*
X71750Y-40164D01*
X71804Y-40297D01*
X71952Y-40444D01*
X72145Y-40524D01*
X72353Y-40525D01*
X72547Y-40445D01*
X72694Y-40297D01*
X72774Y-40104D01*
X72775Y-39896D01*
X72775Y-41524D01*
X72703Y-41554D01*
X72555Y-41702D01*
X72475Y-41895D01*
X72474Y-42103D01*
X72554Y-42297D01*
X72702Y-42444D01*
X72895Y-42524D01*
X73103Y-42525D01*
X73297Y-42445D01*
X73400Y-42342D01*
X73400Y-44657D01*
X73297Y-44555D01*
X73104Y-44475D01*
X72896Y-44474D01*
X72703Y-44554D01*
X72555Y-44702D01*
X72550Y-44714D01*
X72550Y-43600D01*
X72515Y-43427D01*
X72418Y-43281D01*
X71700Y-42563D01*
X71700Y-42285D01*
X71774Y-42104D01*
X71775Y-41896D01*
X71695Y-41703D01*
X71547Y-41555D01*
X71354Y-41475D01*
X71146Y-41474D01*
X70953Y-41554D01*
X70805Y-41702D01*
X70725Y-41895D01*
X70724Y-42103D01*
X70800Y-42285D01*
X70800Y-42750D01*
X70834Y-42922D01*
X70931Y-43068D01*
X71650Y-43786D01*
X71650Y-44657D01*
X71547Y-44555D01*
X71354Y-44475D01*
X71146Y-44474D01*
X70953Y-44554D01*
X70805Y-44702D01*
X70725Y-44895D01*
X70724Y-45103D01*
X70804Y-45297D01*
X70952Y-45444D01*
X71145Y-45524D01*
X71353Y-45525D01*
X71547Y-45445D01*
X71650Y-45342D01*
X71650Y-45513D01*
X70620Y-46542D01*
X70523Y-46688D01*
X70488Y-46861D01*
X70488Y-47680D01*
X70488Y-47970D01*
X70482Y-47973D01*
X70412Y-48043D01*
X70374Y-48135D01*
X70374Y-48234D01*
X70374Y-48864D01*
X70412Y-48956D01*
X70482Y-49026D01*
X70574Y-49065D01*
X70673Y-49065D01*
X71303Y-49065D01*
X71395Y-49026D01*
X71438Y-48984D01*
X71522Y-49187D01*
X71832Y-49184D01*
X72516Y-48500D01*
X71832Y-47815D01*
X71522Y-47812D01*
X71451Y-48029D01*
X71395Y-47973D01*
X71388Y-47970D01*
X71388Y-47680D01*
X71388Y-47047D01*
X72418Y-46018D01*
X72515Y-45872D01*
X72550Y-45700D01*
X72550Y-45285D01*
X72554Y-45297D01*
X72702Y-45444D01*
X72895Y-45524D01*
X73103Y-45525D01*
X73297Y-45445D01*
X73400Y-45342D01*
X73400Y-47161D01*
X73390Y-47152D01*
X73311Y-47231D01*
X72915Y-47102D01*
X72368Y-47145D01*
X72062Y-47272D01*
X72065Y-47582D01*
X72750Y-48266D01*
X72866Y-48149D01*
X73100Y-48383D01*
X72983Y-48500D01*
X73220Y-48737D01*
X73258Y-48828D01*
X73421Y-48991D01*
X73512Y-49029D01*
X73667Y-49184D01*
X73977Y-49187D01*
X74035Y-49009D01*
X74078Y-48991D01*
X74241Y-48828D01*
X74329Y-48615D01*
X74330Y-48385D01*
X74241Y-48171D01*
X74100Y-48029D01*
X74100Y-32750D01*
X74073Y-32616D01*
X74073Y-32616D01*
X73997Y-32502D01*
X72019Y-30525D01*
X72030Y-30525D01*
X76400Y-34894D01*
X76400Y-36344D01*
X76389Y-36333D01*
X76081Y-36321D01*
X76010Y-36531D01*
X75953Y-36554D01*
X75805Y-36702D01*
X75725Y-36895D01*
X75724Y-37103D01*
X75804Y-37297D01*
X75952Y-37444D01*
X75991Y-37461D01*
X76081Y-37678D01*
X76389Y-37666D01*
X76400Y-37655D01*
X76400Y-39493D01*
X76354Y-39475D01*
X76146Y-39474D01*
X75953Y-39554D01*
X75805Y-39702D01*
X75725Y-39895D01*
X75724Y-40103D01*
X75804Y-40297D01*
X75952Y-40444D01*
X76145Y-40524D01*
X76353Y-40525D01*
X76400Y-40506D01*
X76400Y-40609D01*
X76426Y-40743D01*
X76502Y-40857D01*
X77127Y-41482D01*
X76953Y-41554D01*
X76805Y-41702D01*
X76725Y-41895D01*
X76724Y-42103D01*
X76800Y-42285D01*
X76800Y-42550D01*
X76834Y-42722D01*
X76931Y-42868D01*
X77650Y-43586D01*
X77650Y-44657D01*
X77547Y-44555D01*
X77354Y-44475D01*
X77146Y-44474D01*
X76953Y-44554D01*
X76805Y-44702D01*
X76725Y-44895D01*
X76724Y-45103D01*
X76804Y-45297D01*
X76952Y-45444D01*
X77145Y-45524D01*
X77353Y-45525D01*
X77547Y-45445D01*
X77650Y-45342D01*
X77650Y-45913D01*
X76620Y-46942D01*
X76523Y-47088D01*
X76488Y-47261D01*
X76488Y-47880D01*
X76488Y-47970D01*
X76482Y-47973D01*
X76412Y-48043D01*
X76374Y-48135D01*
X76374Y-48234D01*
X76374Y-48864D01*
X76412Y-48956D01*
X76482Y-49026D01*
X76574Y-49065D01*
X76673Y-49065D01*
X77303Y-49065D01*
X77395Y-49026D01*
X77438Y-48984D01*
X77522Y-49187D01*
X77832Y-49184D01*
X78516Y-48500D01*
X77832Y-47815D01*
X77522Y-47812D01*
X77451Y-48029D01*
X77395Y-47973D01*
X77388Y-47970D01*
X77388Y-47880D01*
X77388Y-47447D01*
X78418Y-46418D01*
X78515Y-46272D01*
X78550Y-46100D01*
X78550Y-45285D01*
X78554Y-45297D01*
X78702Y-45444D01*
X78895Y-45524D01*
X79103Y-45525D01*
X79297Y-45445D01*
X79400Y-45342D01*
X79400Y-47161D01*
X79390Y-47152D01*
X79311Y-47231D01*
X78915Y-47102D01*
X78368Y-47145D01*
X78062Y-47272D01*
X78065Y-47582D01*
X78750Y-48266D01*
X78866Y-48149D01*
X79100Y-48383D01*
X78983Y-48500D01*
X79220Y-48737D01*
X79258Y-48828D01*
X79421Y-48991D01*
X79512Y-49029D01*
X79667Y-49184D01*
X79977Y-49187D01*
X80035Y-49009D01*
X80078Y-48991D01*
X80241Y-48828D01*
X80329Y-48615D01*
X80330Y-48385D01*
X80241Y-48171D01*
X80100Y-48029D01*
X80100Y-43609D01*
X80073Y-43475D01*
X79997Y-43362D01*
X79143Y-42508D01*
X79297Y-42445D01*
X79444Y-42297D01*
X79524Y-42104D01*
X79525Y-41896D01*
X79445Y-41703D01*
X79297Y-41555D01*
X79104Y-41475D01*
X78896Y-41474D01*
X78703Y-41554D01*
X78555Y-41702D01*
X78491Y-41856D01*
X77160Y-40524D01*
X77353Y-40525D01*
X77547Y-40445D01*
X77694Y-40297D01*
X77750Y-40164D01*
X77804Y-40297D01*
X77952Y-40444D01*
X78145Y-40524D01*
X78353Y-40525D01*
X78547Y-40445D01*
X78694Y-40297D01*
X78774Y-40104D01*
X78775Y-39896D01*
X78775Y-39895D01*
X78775Y-37324D01*
X78775Y-37225D01*
X78775Y-36675D01*
X78736Y-36583D01*
X78666Y-36513D01*
X78574Y-36475D01*
X78534Y-36475D01*
X78534Y-22752D01*
X78380Y-21973D01*
X78378Y-21969D01*
X78041Y-21876D01*
X77373Y-22545D01*
X77373Y-21208D01*
X77280Y-20871D01*
X76502Y-20715D01*
X75723Y-20869D01*
X75719Y-20871D01*
X75626Y-21208D01*
X76500Y-22081D01*
X77373Y-21208D01*
X77373Y-22545D01*
X77168Y-22750D01*
X78041Y-23623D01*
X78378Y-23530D01*
X78534Y-22752D01*
X78534Y-36475D01*
X78481Y-36475D01*
X78418Y-36321D01*
X78110Y-36333D01*
X77969Y-36475D01*
X77925Y-36475D01*
X77833Y-36513D01*
X77763Y-36583D01*
X77725Y-36675D01*
X77725Y-36719D01*
X77444Y-37000D01*
X77725Y-37280D01*
X77725Y-37324D01*
X77763Y-37416D01*
X77833Y-37486D01*
X77925Y-37525D01*
X77969Y-37525D01*
X78110Y-37666D01*
X78418Y-37678D01*
X78470Y-37525D01*
X78574Y-37525D01*
X78666Y-37486D01*
X78736Y-37416D01*
X78775Y-37324D01*
X78775Y-39895D01*
X78695Y-39703D01*
X78547Y-39555D01*
X78354Y-39475D01*
X78146Y-39474D01*
X77953Y-39554D01*
X77805Y-39702D01*
X77749Y-39835D01*
X77695Y-39703D01*
X77547Y-39555D01*
X77354Y-39475D01*
X77146Y-39474D01*
X77100Y-39493D01*
X77100Y-38337D01*
X77596Y-38305D01*
X77928Y-38168D01*
X77916Y-37860D01*
X77250Y-37194D01*
X77100Y-37344D01*
X77100Y-36655D01*
X77250Y-36805D01*
X77916Y-36139D01*
X77928Y-35831D01*
X77695Y-35751D01*
X77695Y-26224D01*
X77695Y-26125D01*
X77695Y-24235D01*
X77656Y-24143D01*
X77586Y-24073D01*
X77494Y-24035D01*
X77395Y-24035D01*
X77116Y-24035D01*
X76523Y-23441D01*
X76411Y-22873D01*
X76409Y-22869D01*
X76072Y-22776D01*
X75831Y-23017D01*
X75831Y-22750D01*
X75297Y-22215D01*
X75404Y-22108D01*
X75311Y-21771D01*
X74533Y-21615D01*
X73754Y-21769D01*
X73750Y-21771D01*
X73657Y-22108D01*
X74507Y-22958D01*
X74619Y-23526D01*
X74621Y-23530D01*
X74958Y-23623D01*
X75831Y-22750D01*
X75831Y-23017D01*
X75199Y-23650D01*
X75224Y-23675D01*
X74556Y-24343D01*
X74531Y-24318D01*
X73862Y-24986D01*
X73862Y-23650D01*
X72989Y-22776D01*
X72652Y-22869D01*
X72496Y-23647D01*
X72650Y-24426D01*
X72652Y-24430D01*
X72989Y-24523D01*
X73862Y-23650D01*
X73862Y-24986D01*
X73657Y-25191D01*
X73750Y-25528D01*
X74528Y-25684D01*
X75305Y-25530D01*
X75305Y-26224D01*
X75343Y-26316D01*
X75413Y-26386D01*
X75505Y-26425D01*
X75604Y-26425D01*
X77494Y-26425D01*
X77586Y-26386D01*
X77656Y-26316D01*
X77695Y-26224D01*
X77695Y-35751D01*
X77430Y-35661D01*
X77100Y-35681D01*
X77100Y-34750D01*
X77073Y-34616D01*
X77073Y-34616D01*
X76997Y-34502D01*
X72524Y-30029D01*
X72525Y-29896D01*
X72525Y-29895D01*
X72525Y-27324D01*
X72525Y-27225D01*
X72525Y-26675D01*
X72486Y-26583D01*
X72416Y-26513D01*
X72324Y-26475D01*
X72225Y-26475D01*
X71675Y-26475D01*
X71583Y-26513D01*
X71513Y-26583D01*
X71475Y-26675D01*
X71475Y-26774D01*
X71475Y-26774D01*
X71445Y-26703D01*
X71297Y-26555D01*
X71104Y-26475D01*
X70896Y-26474D01*
X70703Y-26554D01*
X70555Y-26702D01*
X70499Y-26835D01*
X70445Y-26703D01*
X70297Y-26555D01*
X70104Y-26475D01*
X69896Y-26474D01*
X69703Y-26554D01*
X69555Y-26702D01*
X69499Y-26835D01*
X69445Y-26703D01*
X69297Y-26555D01*
X69104Y-26475D01*
X68896Y-26474D01*
X68703Y-26554D01*
X68555Y-26702D01*
X68499Y-26835D01*
X68445Y-26703D01*
X68297Y-26555D01*
X68104Y-26475D01*
X67896Y-26474D01*
X67703Y-26554D01*
X67555Y-26702D01*
X67499Y-26835D01*
X67445Y-26703D01*
X67297Y-26555D01*
X67104Y-26475D01*
X66896Y-26474D01*
X66703Y-26554D01*
X66555Y-26702D01*
X66499Y-26835D01*
X66445Y-26703D01*
X66297Y-26555D01*
X66104Y-26475D01*
X65896Y-26474D01*
X65703Y-26554D01*
X65555Y-26702D01*
X65499Y-26835D01*
X65445Y-26703D01*
X65297Y-26555D01*
X65104Y-26475D01*
X64896Y-26474D01*
X64703Y-26554D01*
X64555Y-26702D01*
X64475Y-26895D01*
X64474Y-27103D01*
X64554Y-27297D01*
X64702Y-27444D01*
X64895Y-27524D01*
X65103Y-27525D01*
X65297Y-27445D01*
X65444Y-27297D01*
X65500Y-27164D01*
X65554Y-27297D01*
X65702Y-27444D01*
X65895Y-27524D01*
X66103Y-27525D01*
X66297Y-27445D01*
X66444Y-27297D01*
X66500Y-27164D01*
X66554Y-27297D01*
X66702Y-27444D01*
X66895Y-27524D01*
X67103Y-27525D01*
X67297Y-27445D01*
X67444Y-27297D01*
X67500Y-27164D01*
X67554Y-27297D01*
X67702Y-27444D01*
X67895Y-27524D01*
X68103Y-27525D01*
X68297Y-27445D01*
X68444Y-27297D01*
X68500Y-27164D01*
X68554Y-27297D01*
X68702Y-27444D01*
X68895Y-27524D01*
X69103Y-27525D01*
X69297Y-27445D01*
X69444Y-27297D01*
X69500Y-27164D01*
X69554Y-27297D01*
X69702Y-27444D01*
X69895Y-27524D01*
X70103Y-27525D01*
X70297Y-27445D01*
X70444Y-27297D01*
X70500Y-27164D01*
X70554Y-27297D01*
X70702Y-27444D01*
X70895Y-27524D01*
X71103Y-27525D01*
X71297Y-27445D01*
X71444Y-27297D01*
X71475Y-27225D01*
X71475Y-27324D01*
X71513Y-27416D01*
X71583Y-27486D01*
X71675Y-27525D01*
X71774Y-27525D01*
X72324Y-27525D01*
X72416Y-27486D01*
X72486Y-27416D01*
X72525Y-27324D01*
X72525Y-29895D01*
X72445Y-29703D01*
X72297Y-29555D01*
X72104Y-29475D01*
X71896Y-29474D01*
X71703Y-29554D01*
X71555Y-29702D01*
X71499Y-29835D01*
X71445Y-29703D01*
X71297Y-29555D01*
X71104Y-29475D01*
X70896Y-29474D01*
X70717Y-29548D01*
X70445Y-29277D01*
X70332Y-29201D01*
X70198Y-29174D01*
X65787Y-29174D01*
X65653Y-29201D01*
X65540Y-29277D01*
X65272Y-29544D01*
X65104Y-29475D01*
X64969Y-29474D01*
X64835Y-29341D01*
X64722Y-29265D01*
X64588Y-29238D01*
X55740Y-29238D01*
X55606Y-29265D01*
X55492Y-29341D01*
X55215Y-29618D01*
X55039Y-29545D01*
X54831Y-29544D01*
X54638Y-29624D01*
X54490Y-29772D01*
X54473Y-29811D01*
X54473Y-29811D01*
X54457Y-29822D01*
X54417Y-29862D01*
X54380Y-29773D01*
X54232Y-29625D01*
X54039Y-29545D01*
X53831Y-29544D01*
X53638Y-29624D01*
X53490Y-29772D01*
X53435Y-29905D01*
X53380Y-29773D01*
X53232Y-29625D01*
X53039Y-29545D01*
X52949Y-29545D01*
X53259Y-29235D01*
X59842Y-29235D01*
X59976Y-29208D01*
X59976Y-29208D01*
X60090Y-29132D01*
X65747Y-23475D01*
X65823Y-23362D01*
X65850Y-23228D01*
X65850Y-21927D01*
X65950Y-21827D01*
X65950Y-21849D01*
X65988Y-21941D01*
X66058Y-22011D01*
X66150Y-22050D01*
X66249Y-22050D01*
X66849Y-22050D01*
X66941Y-22011D01*
X67011Y-21941D01*
X67050Y-21849D01*
X67050Y-21750D01*
X67050Y-21150D01*
X67011Y-21058D01*
X66941Y-20988D01*
X66849Y-20950D01*
X66750Y-20950D01*
X66444Y-20950D01*
X66243Y-20748D01*
X66129Y-20672D01*
X65995Y-20645D01*
X65142Y-20645D01*
X65174Y-20613D01*
X65182Y-20304D01*
X64673Y-20134D01*
X64137Y-20172D01*
X63817Y-20304D01*
X63825Y-20613D01*
X63995Y-20783D01*
X63783Y-20995D01*
X63613Y-20825D01*
X63304Y-20817D01*
X63134Y-21326D01*
X63155Y-21623D01*
X61378Y-23400D01*
X61302Y-23513D01*
X61275Y-23647D01*
X61275Y-26500D01*
X60909Y-26866D01*
X60909Y-23335D01*
X61997Y-22247D01*
X62073Y-22134D01*
X62073Y-22134D01*
X62090Y-22050D01*
X62099Y-22050D01*
X62191Y-22011D01*
X62261Y-21941D01*
X62300Y-21849D01*
X62300Y-21750D01*
X62300Y-21150D01*
X62261Y-21058D01*
X62191Y-20988D01*
X62099Y-20950D01*
X62000Y-20950D01*
X61400Y-20950D01*
X61308Y-20988D01*
X61238Y-21058D01*
X61200Y-21150D01*
X61200Y-21172D01*
X61061Y-21034D01*
X61029Y-21020D01*
X60945Y-20817D01*
X60636Y-20825D01*
X60432Y-21029D01*
X60432Y-20304D01*
X59923Y-20134D01*
X59387Y-20172D01*
X59067Y-20304D01*
X59075Y-20613D01*
X59750Y-21287D01*
X60424Y-20613D01*
X60432Y-20304D01*
X60432Y-21029D01*
X59962Y-21500D01*
X60636Y-22174D01*
X60945Y-22182D01*
X61010Y-21987D01*
X61061Y-21966D01*
X61200Y-21827D01*
X61200Y-21849D01*
X61238Y-21941D01*
X61275Y-21979D01*
X60432Y-22822D01*
X60432Y-22695D01*
X60424Y-22386D01*
X59750Y-21712D01*
X59075Y-22386D01*
X59067Y-22695D01*
X59576Y-22865D01*
X60112Y-22827D01*
X60432Y-22695D01*
X60432Y-22822D01*
X60312Y-22942D01*
X60236Y-23056D01*
X60209Y-23190D01*
X60209Y-26545D01*
X60160Y-26545D01*
X59610Y-26545D01*
X59587Y-26554D01*
X57350Y-24316D01*
X57350Y-22008D01*
X57350Y-21912D01*
X57087Y-21650D01*
X56150Y-21650D01*
X56150Y-22587D01*
X56412Y-22850D01*
X56508Y-22850D01*
X56894Y-22690D01*
X57190Y-22394D01*
X57350Y-22008D01*
X57350Y-24316D01*
X56285Y-23252D01*
X56172Y-23176D01*
X56038Y-23150D01*
X47991Y-23150D01*
X47841Y-22999D01*
X48004Y-22837D01*
X48094Y-22618D01*
X48095Y-22382D01*
X48082Y-22351D01*
X53498Y-22351D01*
X53632Y-22325D01*
X53632Y-22325D01*
X53745Y-22249D01*
X53945Y-22049D01*
X54108Y-22050D01*
X54311Y-21966D01*
X54465Y-21811D01*
X54499Y-21730D01*
X54533Y-21811D01*
X54650Y-21927D01*
X54650Y-22000D01*
X54650Y-22008D01*
X54809Y-22394D01*
X55105Y-22690D01*
X55491Y-22850D01*
X55587Y-22850D01*
X55850Y-22587D01*
X55850Y-21650D01*
X55700Y-21650D01*
X55700Y-21350D01*
X55850Y-21350D01*
X55850Y-21200D01*
X56150Y-21200D01*
X56150Y-21350D01*
X57087Y-21350D01*
X57350Y-21087D01*
X57350Y-20991D01*
X57190Y-20605D01*
X56894Y-20309D01*
X56859Y-20295D01*
X57050Y-20295D01*
X58200Y-21445D01*
X58199Y-21608D01*
X58283Y-21811D01*
X58438Y-21965D01*
X58470Y-21979D01*
X58554Y-22182D01*
X58863Y-22174D01*
X59537Y-21500D01*
X58863Y-20825D01*
X58562Y-20817D01*
X57569Y-19825D01*
X81152Y-19825D01*
X80987Y-19989D01*
X80850Y-20320D01*
X80849Y-20678D01*
X80986Y-21009D01*
X81239Y-21262D01*
X81570Y-21399D01*
X81928Y-21400D01*
X82259Y-21263D01*
X82425Y-21097D01*
X82425Y-48402D01*
X82425Y-48402D01*
G37*
G54D28*
X82425Y-48402D02*
X82260Y-48237D01*
X81929Y-48100D01*
X81571Y-48099D01*
X81240Y-48236D01*
X80987Y-48489D01*
X80850Y-48820D01*
X80849Y-49178D01*
X80986Y-49509D01*
X81152Y-49675D01*
X79437Y-49675D01*
X79434Y-49417D01*
X78750Y-48733D01*
X78065Y-49417D01*
X78062Y-49675D01*
X76126Y-49675D01*
X76126Y-48388D01*
X76040Y-48180D01*
X76025Y-48165D01*
X76025Y-44396D01*
X76025Y-42396D01*
X75945Y-42203D01*
X75797Y-42055D01*
X75604Y-41975D01*
X75396Y-41974D01*
X75203Y-42054D01*
X75055Y-42202D01*
X74975Y-42395D01*
X74974Y-42603D01*
X75054Y-42797D01*
X75202Y-42944D01*
X75395Y-43024D01*
X75603Y-43025D01*
X75797Y-42945D01*
X75944Y-42797D01*
X76024Y-42604D01*
X76025Y-42396D01*
X76025Y-44396D01*
X75945Y-44203D01*
X75797Y-44055D01*
X75604Y-43975D01*
X75396Y-43974D01*
X75203Y-44054D01*
X75055Y-44202D01*
X74975Y-44395D01*
X74974Y-44603D01*
X75054Y-44797D01*
X75202Y-44944D01*
X75395Y-45024D01*
X75603Y-45025D01*
X75797Y-44945D01*
X75944Y-44797D01*
X76024Y-44604D01*
X76025Y-44396D01*
X76025Y-48165D01*
X75881Y-48021D01*
X75673Y-47935D01*
X75449Y-47934D01*
X75241Y-48020D01*
X75082Y-48179D01*
X74996Y-48387D01*
X74995Y-48611D01*
X75081Y-48819D01*
X75240Y-48978D01*
X75448Y-49064D01*
X75672Y-49065D01*
X75880Y-48979D01*
X76039Y-48820D01*
X76125Y-48612D01*
X76126Y-48388D01*
X76126Y-49675D01*
X73437Y-49675D01*
X73434Y-49417D01*
X72750Y-48733D01*
X72065Y-49417D01*
X72062Y-49675D01*
X70126Y-49675D01*
X70126Y-48388D01*
X70040Y-48180D01*
X70025Y-48165D01*
X70025Y-44396D01*
X70025Y-42396D01*
X69945Y-42203D01*
X69797Y-42055D01*
X69604Y-41975D01*
X69396Y-41974D01*
X69203Y-42054D01*
X69055Y-42202D01*
X68975Y-42395D01*
X68974Y-42603D01*
X69054Y-42797D01*
X69202Y-42944D01*
X69395Y-43024D01*
X69603Y-43025D01*
X69797Y-42945D01*
X69944Y-42797D01*
X70024Y-42604D01*
X70025Y-42396D01*
X70025Y-44396D01*
X69945Y-44203D01*
X69797Y-44055D01*
X69604Y-43975D01*
X69396Y-43974D01*
X69203Y-44054D01*
X69055Y-44202D01*
X68975Y-44395D01*
X68974Y-44603D01*
X69054Y-44797D01*
X69202Y-44944D01*
X69395Y-45024D01*
X69603Y-45025D01*
X69797Y-44945D01*
X69944Y-44797D01*
X70024Y-44604D01*
X70025Y-44396D01*
X70025Y-48165D01*
X69881Y-48021D01*
X69673Y-47935D01*
X69449Y-47934D01*
X69241Y-48020D01*
X69082Y-48179D01*
X68996Y-48387D01*
X68995Y-48611D01*
X69081Y-48819D01*
X69240Y-48978D01*
X69448Y-49064D01*
X69672Y-49065D01*
X69880Y-48979D01*
X70039Y-48820D01*
X70125Y-48612D01*
X70126Y-48388D01*
X70126Y-49675D01*
X67437Y-49675D01*
X67434Y-49417D01*
X66750Y-48733D01*
X66065Y-49417D01*
X66062Y-49675D01*
X64126Y-49675D01*
X64126Y-48388D01*
X64040Y-48180D01*
X63881Y-48021D01*
X63673Y-47935D01*
X63449Y-47934D01*
X63241Y-48020D01*
X63082Y-48179D01*
X62996Y-48387D01*
X62995Y-48611D01*
X63081Y-48819D01*
X63240Y-48978D01*
X63448Y-49064D01*
X63672Y-49065D01*
X63880Y-48979D01*
X64039Y-48820D01*
X64125Y-48612D01*
X64126Y-48388D01*
X64126Y-49675D01*
X61437Y-49675D01*
X61434Y-49417D01*
X60750Y-48733D01*
X60065Y-49417D01*
X60062Y-49675D01*
X58126Y-49675D01*
X58126Y-48388D01*
X58040Y-48180D01*
X57881Y-48021D01*
X57673Y-47935D01*
X57449Y-47934D01*
X57241Y-48020D01*
X57082Y-48179D01*
X56996Y-48387D01*
X56995Y-48611D01*
X57081Y-48819D01*
X57240Y-48978D01*
X57448Y-49064D01*
X57672Y-49065D01*
X57880Y-48979D01*
X58039Y-48820D01*
X58125Y-48612D01*
X58126Y-48388D01*
X58126Y-49675D01*
X55437Y-49675D01*
X55434Y-49417D01*
X54750Y-48733D01*
X54065Y-49417D01*
X54062Y-49675D01*
X52126Y-49675D01*
X52126Y-48388D01*
X52040Y-48180D01*
X52025Y-48165D01*
X52025Y-44396D01*
X52025Y-42396D01*
X51945Y-42203D01*
X51797Y-42055D01*
X51604Y-41975D01*
X51396Y-41974D01*
X51203Y-42054D01*
X51055Y-42202D01*
X50975Y-42395D01*
X50974Y-42603D01*
X51054Y-42797D01*
X51202Y-42944D01*
X51395Y-43024D01*
X51603Y-43025D01*
X51797Y-42945D01*
X51944Y-42797D01*
X52024Y-42604D01*
X52025Y-42396D01*
X52025Y-44396D01*
X51945Y-44203D01*
X51797Y-44055D01*
X51604Y-43975D01*
X51396Y-43974D01*
X51203Y-44054D01*
X51055Y-44202D01*
X50975Y-44395D01*
X50974Y-44603D01*
X51054Y-44797D01*
X51202Y-44944D01*
X51395Y-45024D01*
X51603Y-45025D01*
X51797Y-44945D01*
X51944Y-44797D01*
X52024Y-44604D01*
X52025Y-44396D01*
X52025Y-48165D01*
X51881Y-48021D01*
X51673Y-47935D01*
X51449Y-47934D01*
X51241Y-48020D01*
X51082Y-48179D01*
X50996Y-48387D01*
X50995Y-48611D01*
X51081Y-48819D01*
X51240Y-48978D01*
X51448Y-49064D01*
X51672Y-49065D01*
X51880Y-48979D01*
X52039Y-48820D01*
X52125Y-48612D01*
X52126Y-48388D01*
X52126Y-49675D01*
X50330Y-49675D01*
X50330Y-48385D01*
X50241Y-48171D01*
X50078Y-48008D01*
X50054Y-47998D01*
X49977Y-47812D01*
X49667Y-47815D01*
X49525Y-47958D01*
X49525Y-44896D01*
X49525Y-41896D01*
X49445Y-41703D01*
X49297Y-41555D01*
X49104Y-41475D01*
X48896Y-41474D01*
X48775Y-41524D01*
X48775Y-39896D01*
X48695Y-39703D01*
X48547Y-39555D01*
X48354Y-39475D01*
X48146Y-39474D01*
X47953Y-39554D01*
X47805Y-39702D01*
X47749Y-39835D01*
X47695Y-39703D01*
X47547Y-39555D01*
X47354Y-39475D01*
X47146Y-39474D01*
X46953Y-39554D01*
X46805Y-39702D01*
X46749Y-39835D01*
X46695Y-39703D01*
X46547Y-39555D01*
X46354Y-39475D01*
X46146Y-39474D01*
X45953Y-39554D01*
X45805Y-39702D01*
X45725Y-39895D01*
X45724Y-40103D01*
X45804Y-40297D01*
X45952Y-40444D01*
X46145Y-40524D01*
X46353Y-40525D01*
X46547Y-40445D01*
X46694Y-40297D01*
X46750Y-40164D01*
X46804Y-40297D01*
X46952Y-40444D01*
X47145Y-40524D01*
X47353Y-40525D01*
X47547Y-40445D01*
X47694Y-40297D01*
X47750Y-40164D01*
X47804Y-40297D01*
X47952Y-40444D01*
X48145Y-40524D01*
X48353Y-40525D01*
X48547Y-40445D01*
X48694Y-40297D01*
X48774Y-40104D01*
X48775Y-39896D01*
X48775Y-41524D01*
X48703Y-41554D01*
X48555Y-41702D01*
X48475Y-41895D01*
X48474Y-42103D01*
X48554Y-42297D01*
X48702Y-42444D01*
X48895Y-42524D01*
X49103Y-42525D01*
X49297Y-42445D01*
X49444Y-42297D01*
X49524Y-42104D01*
X49525Y-41896D01*
X49525Y-44896D01*
X49445Y-44703D01*
X49297Y-44555D01*
X49104Y-44475D01*
X48896Y-44474D01*
X48703Y-44554D01*
X48555Y-44702D01*
X48550Y-44714D01*
X48550Y-43800D01*
X48515Y-43627D01*
X48418Y-43481D01*
X47700Y-42763D01*
X47700Y-42285D01*
X47774Y-42104D01*
X47775Y-41896D01*
X47695Y-41703D01*
X47547Y-41555D01*
X47354Y-41475D01*
X47146Y-41474D01*
X46953Y-41554D01*
X46805Y-41702D01*
X46725Y-41895D01*
X46724Y-42103D01*
X46800Y-42285D01*
X46800Y-42950D01*
X46834Y-43122D01*
X46931Y-43268D01*
X47650Y-43986D01*
X47650Y-44657D01*
X47547Y-44555D01*
X47354Y-44475D01*
X47146Y-44474D01*
X46953Y-44554D01*
X46805Y-44702D01*
X46725Y-44895D01*
X46724Y-45103D01*
X46804Y-45297D01*
X46952Y-45444D01*
X47145Y-45524D01*
X47353Y-45525D01*
X47547Y-45445D01*
X47650Y-45342D01*
X47650Y-46113D01*
X46620Y-47142D01*
X46523Y-47288D01*
X46488Y-47461D01*
X46488Y-47970D01*
X46482Y-47973D01*
X46412Y-48043D01*
X46374Y-48135D01*
X46374Y-48234D01*
X46374Y-48864D01*
X46412Y-48956D01*
X46482Y-49026D01*
X46574Y-49065D01*
X46673Y-49065D01*
X47303Y-49065D01*
X47395Y-49026D01*
X47438Y-48984D01*
X47522Y-49187D01*
X47832Y-49184D01*
X48516Y-48500D01*
X47832Y-47815D01*
X47522Y-47812D01*
X47451Y-48029D01*
X47395Y-47973D01*
X47388Y-47970D01*
X47388Y-47647D01*
X48418Y-46618D01*
X48515Y-46472D01*
X48550Y-46300D01*
X48550Y-45285D01*
X48554Y-45297D01*
X48702Y-45444D01*
X48895Y-45524D01*
X49103Y-45525D01*
X49297Y-45445D01*
X49444Y-45297D01*
X49524Y-45104D01*
X49525Y-44896D01*
X49525Y-47958D01*
X49512Y-47970D01*
X49437Y-48001D01*
X49437Y-47272D01*
X48915Y-47102D01*
X48368Y-47145D01*
X48062Y-47272D01*
X48065Y-47582D01*
X48750Y-48266D01*
X49434Y-47582D01*
X49437Y-47272D01*
X49437Y-48001D01*
X49421Y-48008D01*
X49258Y-48171D01*
X49220Y-48262D01*
X48983Y-48500D01*
X49220Y-48737D01*
X49258Y-48828D01*
X49421Y-48991D01*
X49512Y-49029D01*
X49667Y-49184D01*
X49977Y-49187D01*
X50035Y-49009D01*
X50078Y-48991D01*
X50241Y-48828D01*
X50329Y-48615D01*
X50330Y-48385D01*
X50330Y-49675D01*
X49437Y-49675D01*
X49434Y-49417D01*
X48750Y-48733D01*
X48065Y-49417D01*
X48062Y-49675D01*
X46126Y-49675D01*
X46126Y-48388D01*
X46040Y-48180D01*
X46025Y-48165D01*
X46025Y-44396D01*
X46025Y-42396D01*
X45945Y-42203D01*
X45797Y-42055D01*
X45604Y-41975D01*
X45396Y-41974D01*
X45203Y-42054D01*
X45055Y-42202D01*
X44975Y-42395D01*
X44974Y-42603D01*
X45054Y-42797D01*
X45202Y-42944D01*
X45395Y-43024D01*
X45603Y-43025D01*
X45797Y-42945D01*
X45944Y-42797D01*
X46024Y-42604D01*
X46025Y-42396D01*
X46025Y-44396D01*
X45945Y-44203D01*
X45797Y-44055D01*
X45604Y-43975D01*
X45396Y-43974D01*
X45203Y-44054D01*
X45055Y-44202D01*
X44975Y-44395D01*
X44974Y-44603D01*
X45054Y-44797D01*
X45202Y-44944D01*
X45395Y-45024D01*
X45603Y-45025D01*
X45797Y-44945D01*
X45944Y-44797D01*
X46024Y-44604D01*
X46025Y-44396D01*
X46025Y-48165D01*
X45881Y-48021D01*
X45673Y-47935D01*
X45449Y-47934D01*
X45241Y-48020D01*
X45082Y-48179D01*
X44996Y-48387D01*
X44995Y-48611D01*
X45081Y-48819D01*
X45240Y-48978D01*
X45448Y-49064D01*
X45672Y-49065D01*
X45880Y-48979D01*
X46039Y-48820D01*
X46125Y-48612D01*
X46126Y-48388D01*
X46126Y-49675D01*
X44330Y-49675D01*
X44330Y-48385D01*
X44241Y-48171D01*
X44078Y-48008D01*
X44054Y-47998D01*
X43977Y-47812D01*
X43667Y-47815D01*
X43512Y-47970D01*
X43437Y-48001D01*
X43437Y-47272D01*
X42915Y-47102D01*
X42368Y-47145D01*
X42062Y-47272D01*
X42065Y-47582D01*
X42750Y-48266D01*
X43434Y-47582D01*
X43437Y-47272D01*
X43437Y-48001D01*
X43421Y-48008D01*
X43258Y-48171D01*
X43220Y-48262D01*
X42983Y-48500D01*
X43220Y-48737D01*
X43258Y-48828D01*
X43421Y-48991D01*
X43512Y-49029D01*
X43667Y-49184D01*
X43977Y-49187D01*
X44035Y-49009D01*
X44078Y-48991D01*
X44241Y-48828D01*
X44329Y-48615D01*
X44330Y-48385D01*
X44330Y-49675D01*
X43437Y-49675D01*
X43434Y-49417D01*
X42750Y-48733D01*
X42065Y-49417D01*
X42062Y-49675D01*
X40126Y-49675D01*
X40126Y-48388D01*
X40040Y-48180D01*
X39881Y-48021D01*
X39673Y-47935D01*
X39449Y-47934D01*
X39241Y-48020D01*
X39082Y-48179D01*
X38996Y-48387D01*
X38995Y-48611D01*
X39081Y-48819D01*
X39240Y-48978D01*
X39448Y-49064D01*
X39672Y-49065D01*
X39880Y-48979D01*
X40039Y-48820D01*
X40125Y-48612D01*
X40126Y-48388D01*
X40126Y-49675D01*
X37437Y-49675D01*
X37434Y-49417D01*
X36750Y-48733D01*
X36065Y-49417D01*
X36062Y-49675D01*
X34126Y-49675D01*
X34126Y-48388D01*
X34040Y-48180D01*
X34025Y-48165D01*
X34025Y-44396D01*
X34025Y-42396D01*
X33945Y-42203D01*
X33797Y-42055D01*
X33604Y-41975D01*
X33396Y-41974D01*
X33203Y-42054D01*
X33055Y-42202D01*
X32975Y-42395D01*
X32974Y-42603D01*
X33054Y-42797D01*
X33202Y-42944D01*
X33395Y-43024D01*
X33603Y-43025D01*
X33797Y-42945D01*
X33944Y-42797D01*
X34024Y-42604D01*
X34025Y-42396D01*
X34025Y-44396D01*
X33945Y-44203D01*
X33797Y-44055D01*
X33604Y-43975D01*
X33396Y-43974D01*
X33203Y-44054D01*
X33055Y-44202D01*
X32975Y-44395D01*
X32974Y-44603D01*
X33054Y-44797D01*
X33202Y-44944D01*
X33395Y-45024D01*
X33603Y-45025D01*
X33797Y-44945D01*
X33944Y-44797D01*
X34024Y-44604D01*
X34025Y-44396D01*
X34025Y-48165D01*
X33881Y-48021D01*
X33673Y-47935D01*
X33449Y-47934D01*
X33241Y-48020D01*
X33082Y-48179D01*
X32996Y-48387D01*
X32995Y-48611D01*
X33081Y-48819D01*
X33240Y-48978D01*
X33448Y-49064D01*
X33672Y-49065D01*
X33880Y-48979D01*
X34039Y-48820D01*
X34125Y-48612D01*
X34126Y-48388D01*
X34126Y-49675D01*
X31347Y-49675D01*
X31512Y-49510D01*
X31649Y-49179D01*
X31650Y-48821D01*
X31513Y-48490D01*
X31260Y-48237D01*
X30929Y-48100D01*
X30571Y-48099D01*
X30240Y-48236D01*
X30075Y-48402D01*
X30075Y-21097D01*
X30239Y-21262D01*
X30570Y-21399D01*
X30928Y-21400D01*
X31259Y-21263D01*
X31512Y-21010D01*
X31649Y-20679D01*
X31650Y-20321D01*
X31513Y-19990D01*
X31347Y-19825D01*
X43680Y-19825D01*
X42095Y-21409D01*
X42095Y-21382D01*
X42004Y-21163D01*
X41841Y-20999D01*
X42004Y-20837D01*
X42094Y-20618D01*
X42095Y-20382D01*
X42004Y-20163D01*
X41837Y-19995D01*
X41618Y-19905D01*
X41382Y-19904D01*
X41163Y-19995D01*
X40995Y-20162D01*
X40905Y-20381D01*
X40904Y-20617D01*
X40995Y-20836D01*
X41158Y-21000D01*
X40995Y-21162D01*
X40905Y-21381D01*
X40904Y-21617D01*
X40995Y-21836D01*
X41158Y-22000D01*
X40995Y-22162D01*
X40905Y-22381D01*
X40904Y-22617D01*
X40995Y-22836D01*
X41158Y-23000D01*
X40995Y-23162D01*
X40905Y-23381D01*
X40904Y-23617D01*
X40995Y-23836D01*
X41158Y-24000D01*
X40995Y-24162D01*
X40905Y-24381D01*
X40905Y-24410D01*
X38290Y-21795D01*
X38177Y-21719D01*
X38043Y-21693D01*
X33744Y-21693D01*
X33610Y-21719D01*
X33497Y-21795D01*
X33174Y-22118D01*
X33098Y-22232D01*
X33072Y-22365D01*
X33072Y-23047D01*
X33098Y-23181D01*
X33174Y-23294D01*
X33375Y-23495D01*
X33374Y-23718D01*
X33466Y-23939D01*
X33626Y-24100D01*
X33466Y-24259D01*
X33375Y-24480D01*
X33374Y-24718D01*
X33466Y-24939D01*
X33626Y-25100D01*
X33466Y-25259D01*
X33458Y-25278D01*
X33283Y-25351D01*
X33284Y-25661D01*
X33351Y-25728D01*
X33177Y-25902D01*
X33118Y-25990D01*
X33036Y-25909D01*
X32726Y-25908D01*
X32556Y-26439D01*
X32603Y-26994D01*
X32726Y-27291D01*
X33036Y-27290D01*
X33074Y-27252D01*
X33074Y-27442D01*
X33101Y-27576D01*
X33166Y-27674D01*
X33166Y-27693D01*
X33231Y-27849D01*
X33350Y-27969D01*
X33507Y-28034D01*
X33676Y-28034D01*
X33758Y-28000D01*
X33814Y-28018D01*
X34369Y-27971D01*
X34560Y-27892D01*
X34630Y-27962D01*
X34961Y-27631D01*
X36150Y-28820D01*
X36150Y-30322D01*
X36034Y-30438D01*
X35950Y-30640D01*
X35949Y-30858D01*
X36033Y-31061D01*
X36188Y-31215D01*
X36390Y-31299D01*
X36608Y-31300D01*
X36811Y-31216D01*
X36965Y-31061D01*
X37049Y-30859D01*
X37050Y-30641D01*
X36966Y-30438D01*
X36850Y-30322D01*
X36850Y-28675D01*
X36823Y-28541D01*
X36747Y-28427D01*
X35474Y-27154D01*
X35536Y-27091D01*
X35575Y-26999D01*
X35575Y-26900D01*
X35575Y-26694D01*
X39627Y-30747D01*
X39741Y-30823D01*
X39741Y-30823D01*
X39875Y-30850D01*
X41008Y-30850D01*
X41158Y-31000D01*
X40995Y-31162D01*
X40905Y-31381D01*
X40904Y-31617D01*
X40995Y-31836D01*
X41158Y-32000D01*
X40995Y-32162D01*
X40987Y-32182D01*
X40809Y-32256D01*
X40810Y-32567D01*
X40935Y-32691D01*
X40995Y-32836D01*
X41162Y-33004D01*
X41308Y-33064D01*
X41500Y-33256D01*
X41691Y-33064D01*
X41836Y-33004D01*
X42004Y-32837D01*
X42064Y-32691D01*
X42189Y-32567D01*
X42190Y-32256D01*
X42020Y-32201D01*
X42004Y-32163D01*
X41841Y-31999D01*
X41991Y-31850D01*
X43752Y-31850D01*
X45095Y-33192D01*
X45095Y-33207D01*
X45159Y-33363D01*
X45279Y-33483D01*
X45435Y-33547D01*
X45604Y-33547D01*
X45760Y-33483D01*
X45880Y-33363D01*
X45945Y-33207D01*
X45945Y-33038D01*
X45880Y-32882D01*
X45761Y-32762D01*
X45605Y-32697D01*
X45590Y-32697D01*
X44144Y-31252D01*
X44031Y-31176D01*
X43897Y-31150D01*
X41991Y-31150D01*
X41841Y-30999D01*
X42004Y-30837D01*
X42094Y-30618D01*
X42095Y-30382D01*
X42004Y-30163D01*
X41841Y-29999D01*
X42004Y-29837D01*
X42094Y-29618D01*
X42095Y-29382D01*
X42004Y-29163D01*
X41841Y-28999D01*
X42004Y-28837D01*
X42094Y-28618D01*
X42095Y-28382D01*
X42004Y-28163D01*
X41841Y-27999D01*
X42004Y-27837D01*
X42094Y-27618D01*
X42095Y-27382D01*
X42004Y-27163D01*
X41841Y-26999D01*
X42004Y-26837D01*
X42094Y-26618D01*
X42095Y-26382D01*
X42004Y-26163D01*
X41841Y-25999D01*
X42004Y-25837D01*
X42094Y-25618D01*
X42095Y-25382D01*
X42004Y-25163D01*
X41841Y-24999D01*
X42004Y-24837D01*
X42094Y-24618D01*
X42095Y-24382D01*
X42004Y-24163D01*
X41841Y-23999D01*
X42004Y-23837D01*
X42094Y-23618D01*
X42095Y-23382D01*
X42004Y-23163D01*
X41841Y-22999D01*
X42004Y-22837D01*
X42094Y-22618D01*
X42095Y-22399D01*
X44199Y-20295D01*
X46940Y-20295D01*
X46905Y-20381D01*
X46904Y-20617D01*
X46995Y-20836D01*
X47158Y-21000D01*
X46995Y-21162D01*
X46905Y-21381D01*
X46904Y-21617D01*
X46995Y-21836D01*
X47158Y-22000D01*
X46995Y-22162D01*
X46905Y-22381D01*
X46904Y-22617D01*
X46995Y-22836D01*
X47158Y-23000D01*
X46995Y-23162D01*
X46905Y-23381D01*
X46904Y-23617D01*
X46995Y-23836D01*
X47158Y-24000D01*
X46995Y-24162D01*
X46905Y-24381D01*
X46904Y-24617D01*
X46995Y-24836D01*
X47158Y-25000D01*
X46995Y-25162D01*
X46905Y-25381D01*
X46904Y-25617D01*
X46995Y-25836D01*
X47158Y-26000D01*
X46995Y-26162D01*
X46905Y-26381D01*
X46904Y-26617D01*
X46995Y-26836D01*
X47158Y-27000D01*
X46995Y-27162D01*
X46905Y-27381D01*
X46904Y-27617D01*
X46995Y-27836D01*
X47158Y-28000D01*
X46995Y-28162D01*
X46905Y-28381D01*
X46904Y-28617D01*
X46995Y-28836D01*
X47158Y-29000D01*
X46995Y-29162D01*
X46905Y-29381D01*
X46904Y-29617D01*
X46995Y-29836D01*
X47158Y-30000D01*
X46995Y-30162D01*
X46987Y-30182D01*
X46809Y-30256D01*
X46810Y-30567D01*
X46935Y-30691D01*
X46995Y-30836D01*
X47162Y-31004D01*
X47308Y-31064D01*
X47500Y-31256D01*
X47691Y-31064D01*
X47836Y-31004D01*
X48004Y-30837D01*
X48064Y-30691D01*
X48189Y-30567D01*
X48190Y-30256D01*
X48020Y-30201D01*
X48004Y-30163D01*
X47841Y-29999D01*
X48004Y-29837D01*
X48094Y-29618D01*
X48095Y-29399D01*
X49599Y-27895D01*
X52609Y-27895D01*
X48907Y-31597D01*
X48867Y-31108D01*
X48743Y-30809D01*
X48432Y-30810D01*
X47743Y-31500D01*
X47865Y-31621D01*
X47621Y-31865D01*
X47500Y-31743D01*
X47308Y-31935D01*
X47256Y-31957D01*
X47256Y-31500D01*
X46567Y-30810D01*
X46256Y-30809D01*
X46086Y-31338D01*
X46132Y-31891D01*
X46256Y-32190D01*
X46567Y-32189D01*
X47256Y-31500D01*
X47256Y-31957D01*
X47163Y-31995D01*
X46995Y-32162D01*
X46935Y-32308D01*
X46810Y-32432D01*
X46809Y-32743D01*
X46979Y-32798D01*
X46995Y-32836D01*
X47158Y-33000D01*
X46995Y-33162D01*
X46905Y-33381D01*
X46904Y-33617D01*
X46995Y-33836D01*
X47108Y-33950D01*
X47105Y-33950D01*
X47013Y-33988D01*
X46943Y-34058D01*
X46905Y-34150D01*
X46905Y-34249D01*
X46905Y-34849D01*
X46943Y-34941D01*
X47013Y-35011D01*
X47105Y-35050D01*
X47204Y-35050D01*
X47460Y-35050D01*
X46857Y-35652D01*
X46843Y-35652D01*
X46686Y-35717D01*
X46572Y-35831D01*
X46571Y-35831D01*
X46571Y-35832D01*
X46567Y-35836D01*
X46502Y-35992D01*
X46502Y-36161D01*
X46566Y-36318D01*
X46686Y-36437D01*
X46842Y-36502D01*
X46947Y-36502D01*
X47250Y-36805D01*
X47347Y-36708D01*
X47375Y-36736D01*
X47375Y-37056D01*
X47302Y-37129D01*
X46990Y-37129D01*
X46958Y-37097D01*
X47055Y-37000D01*
X46389Y-36333D01*
X46081Y-36321D01*
X46010Y-36531D01*
X45953Y-36554D01*
X45805Y-36702D01*
X45725Y-36895D01*
X45724Y-37103D01*
X45735Y-37129D01*
X43349Y-37129D01*
X42972Y-36752D01*
X42913Y-36712D01*
X42913Y-33661D01*
X42867Y-33108D01*
X42743Y-32809D01*
X42432Y-32810D01*
X41743Y-33500D01*
X42432Y-34189D01*
X42743Y-34190D01*
X42913Y-33661D01*
X42913Y-36712D01*
X42859Y-36676D01*
X42768Y-36658D01*
X42736Y-36583D01*
X42666Y-36513D01*
X42574Y-36475D01*
X42481Y-36475D01*
X42418Y-36321D01*
X42190Y-36330D01*
X42190Y-34743D01*
X42189Y-34432D01*
X42064Y-34308D01*
X42004Y-34163D01*
X41837Y-33995D01*
X41691Y-33935D01*
X41500Y-33743D01*
X41308Y-33935D01*
X41256Y-33957D01*
X41256Y-33500D01*
X40567Y-32810D01*
X40256Y-32809D01*
X40086Y-33338D01*
X40132Y-33891D01*
X40256Y-34190D01*
X40567Y-34189D01*
X41256Y-33500D01*
X41256Y-33957D01*
X41163Y-33995D01*
X40995Y-34162D01*
X40935Y-34308D01*
X40810Y-34432D01*
X40809Y-34743D01*
X40979Y-34798D01*
X40995Y-34836D01*
X41162Y-35004D01*
X41381Y-35094D01*
X41617Y-35095D01*
X41836Y-35004D01*
X42004Y-34837D01*
X42012Y-34817D01*
X42190Y-34743D01*
X42190Y-36330D01*
X42110Y-36333D01*
X41969Y-36475D01*
X41928Y-36475D01*
X41928Y-35831D01*
X41430Y-35661D01*
X40903Y-35694D01*
X40571Y-35831D01*
X40583Y-36139D01*
X41250Y-36805D01*
X41916Y-36139D01*
X41928Y-35831D01*
X41928Y-36475D01*
X41925Y-36475D01*
X41833Y-36513D01*
X41763Y-36583D01*
X41725Y-36675D01*
X41725Y-36719D01*
X41444Y-37000D01*
X41725Y-37280D01*
X41725Y-37324D01*
X41763Y-37416D01*
X41833Y-37486D01*
X41925Y-37525D01*
X41969Y-37525D01*
X42110Y-37666D01*
X42418Y-37678D01*
X42470Y-37525D01*
X42574Y-37525D01*
X42666Y-37486D01*
X42691Y-37461D01*
X42956Y-37726D01*
X43070Y-37802D01*
X43204Y-37829D01*
X46169Y-37829D01*
X46205Y-37864D01*
X43340Y-37864D01*
X43207Y-37891D01*
X43093Y-37966D01*
X41928Y-39131D01*
X41928Y-38168D01*
X41916Y-37860D01*
X41250Y-37194D01*
X41055Y-37388D01*
X41055Y-37000D01*
X40389Y-36333D01*
X40081Y-36321D01*
X40010Y-36531D01*
X39953Y-36554D01*
X39805Y-36702D01*
X39725Y-36895D01*
X39724Y-37103D01*
X39804Y-37297D01*
X39952Y-37444D01*
X39991Y-37461D01*
X40081Y-37678D01*
X40389Y-37666D01*
X41055Y-37000D01*
X41055Y-37388D01*
X40583Y-37860D01*
X40571Y-38168D01*
X41069Y-38338D01*
X41596Y-38305D01*
X41928Y-38168D01*
X41928Y-39131D01*
X41517Y-39542D01*
X41354Y-39475D01*
X41146Y-39474D01*
X40953Y-39554D01*
X40805Y-39702D01*
X40749Y-39835D01*
X40695Y-39703D01*
X40547Y-39555D01*
X40354Y-39475D01*
X40146Y-39474D01*
X39953Y-39554D01*
X39805Y-39702D01*
X39725Y-39895D01*
X39724Y-40103D01*
X39804Y-40297D01*
X39952Y-40444D01*
X40145Y-40524D01*
X40353Y-40525D01*
X40547Y-40445D01*
X40694Y-40297D01*
X40750Y-40164D01*
X40804Y-40297D01*
X40952Y-40444D01*
X41145Y-40524D01*
X41252Y-40525D01*
X40021Y-41755D01*
X39945Y-41869D01*
X39918Y-42003D01*
X39918Y-42176D01*
X39797Y-42055D01*
X39604Y-41975D01*
X39396Y-41974D01*
X39203Y-42054D01*
X39055Y-42202D01*
X38975Y-42395D01*
X38974Y-42603D01*
X39054Y-42797D01*
X39202Y-42944D01*
X39395Y-43024D01*
X39603Y-43025D01*
X39797Y-42945D01*
X39918Y-42823D01*
X39918Y-44176D01*
X39797Y-44055D01*
X39604Y-43975D01*
X39396Y-43974D01*
X39203Y-44054D01*
X39055Y-44202D01*
X38975Y-44395D01*
X38974Y-44603D01*
X39054Y-44797D01*
X39202Y-44944D01*
X39395Y-45024D01*
X39603Y-45025D01*
X39797Y-44945D01*
X39918Y-44823D01*
X39918Y-45836D01*
X38608Y-47146D01*
X38608Y-33055D01*
X38575Y-32528D01*
X38438Y-32196D01*
X38130Y-32208D01*
X37948Y-32390D01*
X37948Y-31706D01*
X37450Y-31536D01*
X36923Y-31569D01*
X36591Y-31706D01*
X36603Y-32014D01*
X37270Y-32680D01*
X37936Y-32014D01*
X37948Y-31706D01*
X37948Y-32390D01*
X37464Y-32875D01*
X38130Y-33541D01*
X38438Y-33553D01*
X38608Y-33055D01*
X38608Y-47146D01*
X37948Y-47806D01*
X37948Y-34043D01*
X37936Y-33735D01*
X37270Y-33069D01*
X37075Y-33263D01*
X37075Y-32875D01*
X36409Y-32208D01*
X36101Y-32196D01*
X35931Y-32694D01*
X35964Y-33221D01*
X36101Y-33553D01*
X36409Y-33541D01*
X37075Y-32875D01*
X37075Y-33263D01*
X36603Y-33735D01*
X36591Y-34043D01*
X37089Y-34213D01*
X37616Y-34180D01*
X37948Y-34043D01*
X37948Y-47806D01*
X37942Y-47812D01*
X37667Y-47815D01*
X37525Y-47958D01*
X37525Y-44896D01*
X37525Y-41896D01*
X37445Y-41703D01*
X37297Y-41555D01*
X37104Y-41475D01*
X36896Y-41474D01*
X36775Y-41524D01*
X36775Y-39896D01*
X36775Y-39895D01*
X36775Y-37324D01*
X36775Y-37225D01*
X36775Y-36675D01*
X36736Y-36583D01*
X36666Y-36513D01*
X36574Y-36475D01*
X36481Y-36475D01*
X36418Y-36321D01*
X36110Y-36333D01*
X35969Y-36475D01*
X35928Y-36475D01*
X35928Y-35831D01*
X35795Y-35786D01*
X35795Y-32771D01*
X35715Y-32578D01*
X35567Y-32430D01*
X35374Y-32350D01*
X35239Y-32349D01*
X35012Y-32122D01*
X34898Y-32046D01*
X34764Y-32019D01*
X32850Y-32019D01*
X32850Y-31177D01*
X32965Y-31061D01*
X33049Y-30859D01*
X33050Y-30641D01*
X32966Y-30438D01*
X32811Y-30284D01*
X32609Y-30200D01*
X32391Y-30199D01*
X32188Y-30283D01*
X32034Y-30438D01*
X31950Y-30640D01*
X31949Y-30858D01*
X32033Y-31061D01*
X32150Y-31177D01*
X32150Y-32224D01*
X32087Y-32287D01*
X32011Y-32400D01*
X32006Y-32425D01*
X31869Y-32563D01*
X31785Y-32765D01*
X31784Y-32983D01*
X31868Y-33186D01*
X32023Y-33340D01*
X32225Y-33424D01*
X32443Y-33425D01*
X32646Y-33341D01*
X32785Y-33202D01*
X32785Y-33224D01*
X32823Y-33316D01*
X32893Y-33386D01*
X32985Y-33425D01*
X33084Y-33425D01*
X33684Y-33425D01*
X33776Y-33386D01*
X33846Y-33316D01*
X33885Y-33224D01*
X33885Y-33125D01*
X33885Y-32719D01*
X34619Y-32719D01*
X34745Y-32845D01*
X34744Y-32978D01*
X34824Y-33172D01*
X34972Y-33319D01*
X35165Y-33399D01*
X35373Y-33400D01*
X35567Y-33320D01*
X35714Y-33172D01*
X35794Y-32979D01*
X35795Y-32771D01*
X35795Y-35786D01*
X35430Y-35661D01*
X34903Y-35694D01*
X34571Y-35831D01*
X34583Y-36139D01*
X35250Y-36805D01*
X35916Y-36139D01*
X35928Y-35831D01*
X35928Y-36475D01*
X35925Y-36475D01*
X35833Y-36513D01*
X35763Y-36583D01*
X35725Y-36675D01*
X35725Y-36719D01*
X35444Y-37000D01*
X35725Y-37280D01*
X35725Y-37324D01*
X35763Y-37416D01*
X35833Y-37486D01*
X35925Y-37525D01*
X35969Y-37525D01*
X36110Y-37666D01*
X36418Y-37678D01*
X36470Y-37525D01*
X36574Y-37525D01*
X36666Y-37486D01*
X36736Y-37416D01*
X36775Y-37324D01*
X36775Y-39895D01*
X36695Y-39703D01*
X36547Y-39555D01*
X36354Y-39475D01*
X36146Y-39474D01*
X35953Y-39554D01*
X35928Y-39578D01*
X35928Y-38168D01*
X35916Y-37860D01*
X35250Y-37194D01*
X35055Y-37388D01*
X35055Y-37000D01*
X34389Y-36333D01*
X34081Y-36321D01*
X34010Y-36531D01*
X33953Y-36554D01*
X33805Y-36702D01*
X33725Y-36895D01*
X33724Y-37103D01*
X33804Y-37297D01*
X33952Y-37444D01*
X33991Y-37461D01*
X34081Y-37678D01*
X34389Y-37666D01*
X35055Y-37000D01*
X35055Y-37388D01*
X34583Y-37860D01*
X34571Y-38168D01*
X35069Y-38338D01*
X35596Y-38305D01*
X35928Y-38168D01*
X35928Y-39578D01*
X35805Y-39702D01*
X35749Y-39835D01*
X35695Y-39703D01*
X35547Y-39555D01*
X35354Y-39475D01*
X35146Y-39474D01*
X34953Y-39554D01*
X34805Y-39702D01*
X34749Y-39835D01*
X34695Y-39703D01*
X34547Y-39555D01*
X34354Y-39475D01*
X34146Y-39474D01*
X33953Y-39554D01*
X33805Y-39702D01*
X33725Y-39895D01*
X33724Y-40103D01*
X33804Y-40297D01*
X33952Y-40444D01*
X34145Y-40524D01*
X34353Y-40525D01*
X34547Y-40445D01*
X34694Y-40297D01*
X34750Y-40164D01*
X34804Y-40297D01*
X34952Y-40444D01*
X35145Y-40524D01*
X35353Y-40525D01*
X35547Y-40445D01*
X35694Y-40297D01*
X35750Y-40164D01*
X35804Y-40297D01*
X35952Y-40444D01*
X36145Y-40524D01*
X36353Y-40525D01*
X36547Y-40445D01*
X36694Y-40297D01*
X36774Y-40104D01*
X36775Y-39896D01*
X36775Y-41524D01*
X36703Y-41554D01*
X36555Y-41702D01*
X36475Y-41895D01*
X36474Y-42103D01*
X36554Y-42297D01*
X36702Y-42444D01*
X36895Y-42524D01*
X37103Y-42525D01*
X37297Y-42445D01*
X37444Y-42297D01*
X37524Y-42104D01*
X37525Y-41896D01*
X37525Y-44896D01*
X37445Y-44703D01*
X37297Y-44555D01*
X37104Y-44475D01*
X36896Y-44474D01*
X36703Y-44554D01*
X36555Y-44702D01*
X36550Y-44714D01*
X36550Y-44100D01*
X36515Y-43927D01*
X36418Y-43781D01*
X35700Y-43063D01*
X35700Y-42285D01*
X35774Y-42104D01*
X35775Y-41896D01*
X35695Y-41703D01*
X35547Y-41555D01*
X35354Y-41475D01*
X35146Y-41474D01*
X34953Y-41554D01*
X34805Y-41702D01*
X34725Y-41895D01*
X34724Y-42103D01*
X34800Y-42285D01*
X34800Y-43250D01*
X34834Y-43422D01*
X34931Y-43568D01*
X35650Y-44286D01*
X35650Y-44657D01*
X35547Y-44555D01*
X35354Y-44475D01*
X35146Y-44474D01*
X34953Y-44554D01*
X34805Y-44702D01*
X34725Y-44895D01*
X34724Y-45103D01*
X34804Y-45297D01*
X34952Y-45444D01*
X35145Y-45524D01*
X35353Y-45525D01*
X35547Y-45445D01*
X35650Y-45342D01*
X35650Y-46013D01*
X34620Y-47042D01*
X34573Y-47112D01*
X34523Y-47188D01*
X34523Y-47188D01*
X34523Y-47188D01*
X34506Y-47270D01*
X34489Y-47361D01*
X34489Y-47361D01*
X34489Y-47970D01*
X34482Y-47973D01*
X34412Y-48043D01*
X34374Y-48135D01*
X34374Y-48234D01*
X34374Y-48864D01*
X34412Y-48956D01*
X34482Y-49026D01*
X34574Y-49065D01*
X34673Y-49065D01*
X35303Y-49065D01*
X35395Y-49026D01*
X35438Y-48984D01*
X35522Y-49187D01*
X35832Y-49184D01*
X36516Y-48500D01*
X35832Y-47815D01*
X35522Y-47812D01*
X35451Y-48029D01*
X35395Y-47973D01*
X35389Y-47970D01*
X35389Y-47547D01*
X36418Y-46518D01*
X36418Y-46518D01*
X36465Y-46448D01*
X36515Y-46372D01*
X36515Y-46372D01*
X36515Y-46372D01*
X36532Y-46290D01*
X36550Y-46200D01*
X36550Y-46199D01*
X36550Y-45285D01*
X36554Y-45297D01*
X36702Y-45444D01*
X36895Y-45524D01*
X37103Y-45525D01*
X37297Y-45445D01*
X37444Y-45297D01*
X37524Y-45104D01*
X37525Y-44896D01*
X37525Y-47958D01*
X37512Y-47970D01*
X37437Y-48001D01*
X37437Y-47272D01*
X36915Y-47102D01*
X36368Y-47145D01*
X36062Y-47272D01*
X36065Y-47582D01*
X36750Y-48266D01*
X37434Y-47582D01*
X37437Y-47272D01*
X37437Y-48001D01*
X37421Y-48008D01*
X37258Y-48171D01*
X37220Y-48262D01*
X36983Y-48500D01*
X37220Y-48737D01*
X37258Y-48828D01*
X37421Y-48991D01*
X37512Y-49029D01*
X37667Y-49184D01*
X37977Y-49187D01*
X38035Y-49009D01*
X38078Y-48991D01*
X38241Y-48828D01*
X38329Y-48615D01*
X38330Y-48414D01*
X40516Y-46228D01*
X40592Y-46115D01*
X40592Y-46115D01*
X40618Y-45981D01*
X40618Y-42148D01*
X40724Y-42042D01*
X40724Y-42103D01*
X40800Y-42285D01*
X40800Y-42450D01*
X40834Y-42622D01*
X40931Y-42768D01*
X41650Y-43486D01*
X41650Y-44657D01*
X41547Y-44555D01*
X41354Y-44475D01*
X41146Y-44474D01*
X40953Y-44554D01*
X40805Y-44702D01*
X40725Y-44895D01*
X40724Y-45103D01*
X40804Y-45297D01*
X40952Y-45444D01*
X41145Y-45524D01*
X41353Y-45525D01*
X41547Y-45445D01*
X41650Y-45342D01*
X41650Y-46113D01*
X40620Y-47142D01*
X40523Y-47288D01*
X40488Y-47461D01*
X40488Y-47970D01*
X40482Y-47973D01*
X40412Y-48043D01*
X40374Y-48135D01*
X40374Y-48234D01*
X40374Y-48864D01*
X40412Y-48956D01*
X40482Y-49026D01*
X40574Y-49065D01*
X40673Y-49065D01*
X41303Y-49065D01*
X41395Y-49026D01*
X41438Y-48984D01*
X41522Y-49187D01*
X41832Y-49184D01*
X42516Y-48500D01*
X41832Y-47815D01*
X41522Y-47812D01*
X41451Y-48029D01*
X41395Y-47973D01*
X41388Y-47970D01*
X41388Y-47647D01*
X42418Y-46618D01*
X42515Y-46472D01*
X42550Y-46300D01*
X42550Y-45285D01*
X42554Y-45297D01*
X42702Y-45444D01*
X42895Y-45524D01*
X43103Y-45525D01*
X43297Y-45445D01*
X43444Y-45297D01*
X43524Y-45104D01*
X43525Y-44896D01*
X43525Y-41896D01*
X43445Y-41703D01*
X43297Y-41555D01*
X43104Y-41475D01*
X42896Y-41474D01*
X42703Y-41554D01*
X42555Y-41702D01*
X42475Y-41895D01*
X42474Y-42103D01*
X42554Y-42297D01*
X42702Y-42444D01*
X42895Y-42524D01*
X43103Y-42525D01*
X43297Y-42445D01*
X43444Y-42297D01*
X43524Y-42104D01*
X43525Y-41896D01*
X43525Y-44896D01*
X43445Y-44703D01*
X43297Y-44555D01*
X43104Y-44475D01*
X42896Y-44474D01*
X42703Y-44554D01*
X42555Y-44702D01*
X42550Y-44714D01*
X42550Y-43300D01*
X42515Y-43127D01*
X42418Y-42981D01*
X41706Y-42269D01*
X41774Y-42104D01*
X41775Y-41896D01*
X41695Y-41703D01*
X41547Y-41555D01*
X41354Y-41475D01*
X41292Y-41475D01*
X41997Y-40769D01*
X42073Y-40656D01*
X42073Y-40656D01*
X42100Y-40522D01*
X42100Y-40506D01*
X42145Y-40524D01*
X42353Y-40525D01*
X42547Y-40445D01*
X42694Y-40297D01*
X42774Y-40104D01*
X42775Y-39896D01*
X42695Y-39703D01*
X42547Y-39555D01*
X42510Y-39539D01*
X43485Y-38564D01*
X47877Y-38564D01*
X48011Y-38537D01*
X48011Y-38537D01*
X48125Y-38461D01*
X55585Y-31002D01*
X55585Y-34694D01*
X54002Y-36277D01*
X53928Y-36387D01*
X53928Y-35831D01*
X53430Y-35661D01*
X52903Y-35694D01*
X52571Y-35831D01*
X52583Y-36139D01*
X53250Y-36805D01*
X53916Y-36139D01*
X53928Y-35831D01*
X53928Y-36387D01*
X53926Y-36390D01*
X53908Y-36481D01*
X53833Y-36513D01*
X53763Y-36583D01*
X53725Y-36675D01*
X53725Y-36719D01*
X53444Y-37000D01*
X53725Y-37280D01*
X53725Y-37324D01*
X53763Y-37416D01*
X53833Y-37486D01*
X53925Y-37525D01*
X53969Y-37525D01*
X54110Y-37666D01*
X54418Y-37678D01*
X54470Y-37525D01*
X54574Y-37525D01*
X54666Y-37486D01*
X54736Y-37416D01*
X54775Y-37324D01*
X54775Y-37225D01*
X54775Y-36675D01*
X54736Y-36583D01*
X54711Y-36558D01*
X56182Y-35087D01*
X56258Y-34973D01*
X56258Y-34973D01*
X56285Y-34839D01*
X56285Y-30462D01*
X56379Y-30367D01*
X56435Y-30234D01*
X56489Y-30367D01*
X56637Y-30514D01*
X56830Y-30594D01*
X56965Y-30595D01*
X59900Y-33529D01*
X59900Y-35740D01*
X59851Y-35691D01*
X59766Y-35776D01*
X59430Y-35661D01*
X58903Y-35694D01*
X58571Y-35831D01*
X58583Y-36139D01*
X59250Y-36805D01*
X59347Y-36708D01*
X59541Y-36902D01*
X59444Y-37000D01*
X59725Y-37280D01*
X59725Y-37324D01*
X59763Y-37416D01*
X59833Y-37486D01*
X59925Y-37525D01*
X59969Y-37525D01*
X60110Y-37666D01*
X60418Y-37678D01*
X60470Y-37525D01*
X60574Y-37525D01*
X60666Y-37486D01*
X60736Y-37416D01*
X60775Y-37324D01*
X60775Y-37225D01*
X60775Y-36675D01*
X60736Y-36583D01*
X60666Y-36513D01*
X60600Y-36485D01*
X60600Y-33384D01*
X60573Y-33251D01*
X60573Y-33251D01*
X60497Y-33137D01*
X58775Y-31415D01*
X60470Y-31415D01*
X64794Y-35739D01*
X64571Y-35831D01*
X64583Y-36139D01*
X65250Y-36805D01*
X65347Y-36708D01*
X65541Y-36902D01*
X65444Y-37000D01*
X65541Y-37097D01*
X65347Y-37291D01*
X65250Y-37194D01*
X65152Y-37291D01*
X65055Y-37194D01*
X64958Y-37097D01*
X65055Y-37000D01*
X64389Y-36333D01*
X64081Y-36321D01*
X64010Y-36531D01*
X63953Y-36554D01*
X63805Y-36702D01*
X63725Y-36895D01*
X63724Y-37103D01*
X63804Y-37297D01*
X63952Y-37444D01*
X63991Y-37461D01*
X64018Y-37524D01*
X63941Y-37601D01*
X64260Y-37919D01*
X61588Y-40591D01*
X60775Y-40591D01*
X60775Y-39896D01*
X60695Y-39703D01*
X60547Y-39555D01*
X60354Y-39475D01*
X60146Y-39474D01*
X59953Y-39554D01*
X59928Y-39578D01*
X59928Y-38168D01*
X59916Y-37860D01*
X59250Y-37194D01*
X59055Y-37388D01*
X59055Y-37000D01*
X58389Y-36333D01*
X58081Y-36321D01*
X58010Y-36531D01*
X57953Y-36554D01*
X57805Y-36702D01*
X57725Y-36895D01*
X57724Y-37103D01*
X57804Y-37297D01*
X57952Y-37444D01*
X57991Y-37461D01*
X58081Y-37678D01*
X58389Y-37666D01*
X59055Y-37000D01*
X59055Y-37388D01*
X58583Y-37860D01*
X58571Y-38168D01*
X59069Y-38338D01*
X59596Y-38305D01*
X59928Y-38168D01*
X59928Y-39578D01*
X59805Y-39702D01*
X59749Y-39835D01*
X59695Y-39703D01*
X59547Y-39555D01*
X59354Y-39475D01*
X59146Y-39474D01*
X58953Y-39554D01*
X58805Y-39702D01*
X58749Y-39835D01*
X58695Y-39703D01*
X58547Y-39555D01*
X58354Y-39475D01*
X58146Y-39474D01*
X57953Y-39554D01*
X57805Y-39702D01*
X57725Y-39895D01*
X57724Y-40103D01*
X57804Y-40297D01*
X57952Y-40444D01*
X58145Y-40524D01*
X58353Y-40525D01*
X58547Y-40445D01*
X58694Y-40297D01*
X58750Y-40164D01*
X58804Y-40297D01*
X58952Y-40444D01*
X59145Y-40524D01*
X59353Y-40525D01*
X59547Y-40445D01*
X59694Y-40297D01*
X59750Y-40164D01*
X59804Y-40297D01*
X59952Y-40444D01*
X60145Y-40524D01*
X60353Y-40525D01*
X60547Y-40445D01*
X60694Y-40297D01*
X60774Y-40104D01*
X60775Y-39896D01*
X60775Y-40591D01*
X59635Y-40591D01*
X59501Y-40617D01*
X59388Y-40693D01*
X58472Y-41609D01*
X58396Y-41723D01*
X58369Y-41857D01*
X58369Y-45385D01*
X58025Y-45729D01*
X58025Y-44396D01*
X58025Y-42396D01*
X57945Y-42203D01*
X57797Y-42055D01*
X57604Y-41975D01*
X57396Y-41974D01*
X57203Y-42054D01*
X57055Y-42202D01*
X56975Y-42395D01*
X56974Y-42603D01*
X57054Y-42797D01*
X57202Y-42944D01*
X57395Y-43024D01*
X57603Y-43025D01*
X57797Y-42945D01*
X57944Y-42797D01*
X58024Y-42604D01*
X58025Y-42396D01*
X58025Y-44396D01*
X57945Y-44203D01*
X57797Y-44055D01*
X57604Y-43975D01*
X57396Y-43974D01*
X57203Y-44054D01*
X57055Y-44202D01*
X56975Y-44395D01*
X56974Y-44603D01*
X57054Y-44797D01*
X57202Y-44944D01*
X57395Y-45024D01*
X57603Y-45025D01*
X57797Y-44945D01*
X57944Y-44797D01*
X58024Y-44604D01*
X58025Y-44396D01*
X58025Y-45729D01*
X55942Y-47812D01*
X55667Y-47815D01*
X55525Y-47958D01*
X55525Y-44896D01*
X55525Y-41896D01*
X55445Y-41703D01*
X55297Y-41555D01*
X55104Y-41475D01*
X54896Y-41474D01*
X54775Y-41524D01*
X54775Y-39896D01*
X54695Y-39703D01*
X54547Y-39555D01*
X54354Y-39475D01*
X54146Y-39474D01*
X53953Y-39554D01*
X53928Y-39578D01*
X53928Y-38168D01*
X53916Y-37860D01*
X53250Y-37194D01*
X53055Y-37388D01*
X53055Y-37000D01*
X52389Y-36333D01*
X52081Y-36321D01*
X52010Y-36531D01*
X51953Y-36554D01*
X51805Y-36702D01*
X51725Y-36895D01*
X51724Y-37103D01*
X51804Y-37297D01*
X51952Y-37444D01*
X51991Y-37461D01*
X52081Y-37678D01*
X52389Y-37666D01*
X53055Y-37000D01*
X53055Y-37388D01*
X52583Y-37860D01*
X52571Y-38168D01*
X53069Y-38338D01*
X53596Y-38305D01*
X53928Y-38168D01*
X53928Y-39578D01*
X53805Y-39702D01*
X53749Y-39835D01*
X53695Y-39703D01*
X53547Y-39555D01*
X53354Y-39475D01*
X53146Y-39474D01*
X52953Y-39554D01*
X52805Y-39702D01*
X52749Y-39835D01*
X52695Y-39703D01*
X52547Y-39555D01*
X52354Y-39475D01*
X52146Y-39474D01*
X51953Y-39554D01*
X51805Y-39702D01*
X51725Y-39895D01*
X51724Y-40103D01*
X51804Y-40297D01*
X51952Y-40444D01*
X52145Y-40524D01*
X52353Y-40525D01*
X52547Y-40445D01*
X52694Y-40297D01*
X52750Y-40164D01*
X52804Y-40297D01*
X52952Y-40444D01*
X53145Y-40524D01*
X53353Y-40525D01*
X53547Y-40445D01*
X53694Y-40297D01*
X53750Y-40164D01*
X53804Y-40297D01*
X53952Y-40444D01*
X54145Y-40524D01*
X54353Y-40525D01*
X54547Y-40445D01*
X54694Y-40297D01*
X54774Y-40104D01*
X54775Y-39896D01*
X54775Y-41524D01*
X54703Y-41554D01*
X54555Y-41702D01*
X54475Y-41895D01*
X54474Y-42103D01*
X54554Y-42297D01*
X54702Y-42444D01*
X54895Y-42524D01*
X55103Y-42525D01*
X55297Y-42445D01*
X55444Y-42297D01*
X55524Y-42104D01*
X55525Y-41896D01*
X55525Y-44896D01*
X55445Y-44703D01*
X55297Y-44555D01*
X55104Y-44475D01*
X54896Y-44474D01*
X54703Y-44554D01*
X54555Y-44702D01*
X54550Y-44714D01*
X54550Y-43500D01*
X54515Y-43327D01*
X54418Y-43181D01*
X53700Y-42463D01*
X53700Y-42285D01*
X53774Y-42104D01*
X53775Y-41896D01*
X53695Y-41703D01*
X53547Y-41555D01*
X53354Y-41475D01*
X53146Y-41474D01*
X52953Y-41554D01*
X52805Y-41702D01*
X52725Y-41895D01*
X52724Y-42103D01*
X52800Y-42285D01*
X52800Y-42650D01*
X52834Y-42822D01*
X52931Y-42968D01*
X53650Y-43686D01*
X53650Y-44657D01*
X53547Y-44555D01*
X53354Y-44475D01*
X53146Y-44474D01*
X52953Y-44554D01*
X52805Y-44702D01*
X52725Y-44895D01*
X52724Y-45103D01*
X52804Y-45297D01*
X52952Y-45444D01*
X53145Y-45524D01*
X53353Y-45525D01*
X53547Y-45445D01*
X53650Y-45342D01*
X53650Y-45513D01*
X52620Y-46542D01*
X52523Y-46688D01*
X52488Y-46861D01*
X52488Y-47680D01*
X52488Y-47970D01*
X52482Y-47973D01*
X52412Y-48043D01*
X52374Y-48135D01*
X52374Y-48234D01*
X52374Y-48864D01*
X52412Y-48956D01*
X52482Y-49026D01*
X52574Y-49065D01*
X52673Y-49065D01*
X53303Y-49065D01*
X53395Y-49026D01*
X53438Y-48984D01*
X53522Y-49187D01*
X53832Y-49184D01*
X54516Y-48500D01*
X53832Y-47815D01*
X53522Y-47812D01*
X53451Y-48029D01*
X53395Y-47973D01*
X53388Y-47970D01*
X53388Y-47680D01*
X53388Y-47047D01*
X54418Y-46018D01*
X54515Y-45872D01*
X54550Y-45700D01*
X54550Y-45285D01*
X54554Y-45297D01*
X54702Y-45444D01*
X54895Y-45524D01*
X55103Y-45525D01*
X55297Y-45445D01*
X55444Y-45297D01*
X55524Y-45104D01*
X55525Y-44896D01*
X55525Y-47958D01*
X55512Y-47970D01*
X55437Y-48001D01*
X55437Y-47272D01*
X54915Y-47102D01*
X54368Y-47145D01*
X54062Y-47272D01*
X54065Y-47582D01*
X54750Y-48266D01*
X55434Y-47582D01*
X55437Y-47272D01*
X55437Y-48001D01*
X55421Y-48008D01*
X55258Y-48171D01*
X55220Y-48262D01*
X54983Y-48500D01*
X55220Y-48737D01*
X55258Y-48828D01*
X55421Y-48991D01*
X55512Y-49029D01*
X55667Y-49184D01*
X55977Y-49187D01*
X56035Y-49009D01*
X56078Y-48991D01*
X56241Y-48828D01*
X56329Y-48615D01*
X56330Y-48414D01*
X58967Y-45777D01*
X59043Y-45664D01*
X59043Y-45664D01*
X59069Y-45530D01*
X59069Y-45493D01*
X59145Y-45524D01*
X59353Y-45525D01*
X59547Y-45445D01*
X59650Y-45342D01*
X59650Y-45713D01*
X58620Y-46742D01*
X58523Y-46888D01*
X58488Y-47061D01*
X58488Y-47780D01*
X58488Y-47970D01*
X58482Y-47973D01*
X58412Y-48043D01*
X58374Y-48135D01*
X58374Y-48234D01*
X58374Y-48864D01*
X58412Y-48956D01*
X58482Y-49026D01*
X58574Y-49065D01*
X58673Y-49065D01*
X59303Y-49065D01*
X59395Y-49026D01*
X59438Y-48984D01*
X59522Y-49187D01*
X59832Y-49184D01*
X60516Y-48500D01*
X59832Y-47815D01*
X59522Y-47812D01*
X59451Y-48029D01*
X59395Y-47973D01*
X59388Y-47970D01*
X59388Y-47780D01*
X59388Y-47247D01*
X60418Y-46218D01*
X60515Y-46072D01*
X60550Y-45900D01*
X60550Y-45285D01*
X60554Y-45297D01*
X60702Y-45444D01*
X60895Y-45524D01*
X61103Y-45525D01*
X61297Y-45445D01*
X61444Y-45297D01*
X61524Y-45104D01*
X61525Y-44896D01*
X61525Y-41896D01*
X61445Y-41703D01*
X61297Y-41555D01*
X61104Y-41475D01*
X60896Y-41474D01*
X60703Y-41554D01*
X60555Y-41702D01*
X60475Y-41895D01*
X60474Y-42103D01*
X60554Y-42297D01*
X60702Y-42444D01*
X60895Y-42524D01*
X61103Y-42525D01*
X61297Y-42445D01*
X61444Y-42297D01*
X61524Y-42104D01*
X61525Y-41896D01*
X61525Y-44896D01*
X61445Y-44703D01*
X61297Y-44555D01*
X61104Y-44475D01*
X60896Y-44474D01*
X60703Y-44554D01*
X60555Y-44702D01*
X60550Y-44714D01*
X60550Y-43700D01*
X60515Y-43527D01*
X60418Y-43381D01*
X59700Y-42663D01*
X59700Y-42285D01*
X59774Y-42104D01*
X59775Y-41896D01*
X59695Y-41703D01*
X59547Y-41555D01*
X59525Y-41546D01*
X59780Y-41291D01*
X61733Y-41291D01*
X61867Y-41264D01*
X61867Y-41264D01*
X61980Y-41188D01*
X64891Y-38277D01*
X65069Y-38338D01*
X65596Y-38305D01*
X65774Y-38231D01*
X65851Y-38308D01*
X65980Y-38178D01*
X66255Y-38178D01*
X66389Y-38151D01*
X66389Y-38151D01*
X66502Y-38075D01*
X68247Y-36331D01*
X68323Y-36217D01*
X68323Y-36217D01*
X68350Y-36083D01*
X68350Y-30392D01*
X68444Y-30297D01*
X68500Y-30164D01*
X68554Y-30297D01*
X68650Y-30392D01*
X68650Y-35974D01*
X65502Y-39121D01*
X65426Y-39235D01*
X65399Y-39369D01*
X65399Y-39493D01*
X65354Y-39475D01*
X65146Y-39474D01*
X64953Y-39554D01*
X64805Y-39702D01*
X64749Y-39835D01*
X64695Y-39703D01*
X64547Y-39555D01*
X64354Y-39475D01*
X64146Y-39474D01*
X63953Y-39554D01*
X63805Y-39702D01*
X63725Y-39895D01*
X63724Y-40103D01*
X63804Y-40297D01*
X63952Y-40444D01*
X64145Y-40524D01*
X64353Y-40525D01*
X64547Y-40445D01*
X64694Y-40297D01*
X64750Y-40164D01*
X64804Y-40297D01*
X64952Y-40444D01*
X65145Y-40524D01*
X65339Y-40525D01*
X64376Y-41488D01*
X64300Y-41602D01*
X64273Y-41735D01*
X64273Y-45481D01*
X64025Y-45729D01*
X64025Y-44396D01*
X64025Y-42396D01*
X63945Y-42203D01*
X63797Y-42055D01*
X63604Y-41975D01*
X63396Y-41974D01*
X63203Y-42054D01*
X63055Y-42202D01*
X62975Y-42395D01*
X62974Y-42603D01*
X63054Y-42797D01*
X63202Y-42944D01*
X63395Y-43024D01*
X63603Y-43025D01*
X63797Y-42945D01*
X63944Y-42797D01*
X64024Y-42604D01*
X64025Y-42396D01*
X64025Y-44396D01*
X63945Y-44203D01*
X63797Y-44055D01*
X63604Y-43975D01*
X63396Y-43974D01*
X63203Y-44054D01*
X63055Y-44202D01*
X62975Y-44395D01*
X62974Y-44603D01*
X63054Y-44797D01*
X63202Y-44944D01*
X63395Y-45024D01*
X63603Y-45025D01*
X63797Y-44945D01*
X63944Y-44797D01*
X64024Y-44604D01*
X64025Y-44396D01*
X64025Y-45729D01*
X61942Y-47812D01*
X61667Y-47815D01*
X61512Y-47970D01*
X61437Y-48001D01*
X61437Y-47272D01*
X60915Y-47102D01*
X60368Y-47145D01*
X60062Y-47272D01*
X60065Y-47582D01*
X60750Y-48266D01*
X61434Y-47582D01*
X61437Y-47272D01*
X61437Y-48001D01*
X61421Y-48008D01*
X61258Y-48171D01*
X61220Y-48262D01*
X60983Y-48500D01*
X61220Y-48737D01*
X61258Y-48828D01*
X61421Y-48991D01*
X61512Y-49029D01*
X61667Y-49184D01*
X61977Y-49187D01*
X62035Y-49009D01*
X62078Y-48991D01*
X62241Y-48828D01*
X62329Y-48615D01*
X62330Y-48414D01*
X64871Y-45873D01*
X64947Y-45760D01*
X64973Y-45626D01*
X64973Y-45453D01*
X65145Y-45524D01*
X65353Y-45525D01*
X65547Y-45445D01*
X65650Y-45342D01*
X65650Y-46113D01*
X64620Y-47142D01*
X64523Y-47288D01*
X64488Y-47461D01*
X64488Y-47970D01*
X64482Y-47973D01*
X64412Y-48043D01*
X64374Y-48135D01*
X64374Y-48234D01*
X64374Y-48864D01*
X64412Y-48956D01*
X64482Y-49026D01*
X64574Y-49065D01*
X64673Y-49065D01*
X65303Y-49065D01*
X65395Y-49026D01*
X65438Y-48984D01*
X65522Y-49187D01*
X65832Y-49184D01*
X66516Y-48500D01*
X65832Y-47815D01*
X65522Y-47812D01*
X65451Y-48029D01*
X65395Y-47973D01*
X65388Y-47970D01*
X65388Y-47647D01*
X66418Y-46618D01*
X66515Y-46472D01*
X66550Y-46300D01*
X66550Y-45285D01*
X66554Y-45297D01*
X66702Y-45444D01*
X66895Y-45524D01*
X67103Y-45525D01*
X67297Y-45445D01*
X67400Y-45342D01*
X67400Y-47161D01*
X67390Y-47152D01*
X67311Y-47231D01*
X66915Y-47102D01*
X66368Y-47145D01*
X66062Y-47272D01*
X66065Y-47582D01*
X66750Y-48266D01*
X66866Y-48149D01*
X67100Y-48383D01*
X66983Y-48500D01*
X67220Y-48737D01*
X67258Y-48828D01*
X67421Y-48991D01*
X67512Y-49029D01*
X67667Y-49184D01*
X67977Y-49187D01*
X68035Y-49009D01*
X68078Y-48991D01*
X68241Y-48828D01*
X68329Y-48615D01*
X68330Y-48385D01*
X68241Y-48171D01*
X68100Y-48029D01*
X68100Y-38394D01*
X70018Y-36476D01*
X70026Y-36483D01*
X70010Y-36531D01*
X69953Y-36554D01*
X69805Y-36702D01*
X69725Y-36895D01*
X69724Y-37103D01*
X69804Y-37297D01*
X69952Y-37444D01*
X69991Y-37461D01*
X70081Y-37678D01*
X70389Y-37666D01*
X71055Y-37000D01*
X70958Y-36902D01*
X71152Y-36708D01*
X71250Y-36805D01*
X71347Y-36708D01*
X71541Y-36902D01*
X71444Y-37000D01*
X71725Y-37280D01*
X71725Y-37324D01*
X71763Y-37416D01*
X71833Y-37486D01*
X71925Y-37525D01*
X71969Y-37525D01*
X72110Y-37666D01*
X72418Y-37678D01*
X72470Y-37525D01*
X72574Y-37525D01*
X72666Y-37486D01*
X72736Y-37416D01*
X72775Y-37324D01*
X72775Y-37225D01*
X72775Y-36675D01*
X72736Y-36583D01*
X72666Y-36513D01*
X72591Y-36481D01*
X72573Y-36390D01*
X72497Y-36277D01*
X70850Y-34629D01*
X70850Y-30506D01*
X70895Y-30524D01*
X71030Y-30525D01*
X73400Y-32894D01*
X73400Y-41657D01*
X73297Y-41555D01*
X73104Y-41475D01*
X72896Y-41474D01*
X72775Y-41524D01*
X72775Y-39896D01*
X72695Y-39703D01*
X72547Y-39555D01*
X72354Y-39475D01*
X72146Y-39474D01*
X71953Y-39554D01*
X71928Y-39578D01*
X71928Y-38168D01*
X71916Y-37860D01*
X71250Y-37194D01*
X70583Y-37860D01*
X70571Y-38168D01*
X71069Y-38338D01*
X71596Y-38305D01*
X71928Y-38168D01*
X71928Y-39578D01*
X71805Y-39702D01*
X71749Y-39835D01*
X71695Y-39703D01*
X71547Y-39555D01*
X71354Y-39475D01*
X71146Y-39474D01*
X70953Y-39554D01*
X70805Y-39702D01*
X70749Y-39835D01*
X70695Y-39703D01*
X70547Y-39555D01*
X70354Y-39475D01*
X70146Y-39474D01*
X69953Y-39554D01*
X69805Y-39702D01*
X69725Y-39895D01*
X69724Y-40103D01*
X69804Y-40297D01*
X69952Y-40444D01*
X70145Y-40524D01*
X70353Y-40525D01*
X70547Y-40445D01*
X70694Y-40297D01*
X70750Y-40164D01*
X70804Y-40297D01*
X70952Y-40444D01*
X71145Y-40524D01*
X71353Y-40525D01*
X71547Y-40445D01*
X71694Y-40297D01*
X71750Y-40164D01*
X71804Y-40297D01*
X71952Y-40444D01*
X72145Y-40524D01*
X72353Y-40525D01*
X72547Y-40445D01*
X72694Y-40297D01*
X72774Y-40104D01*
X72775Y-39896D01*
X72775Y-41524D01*
X72703Y-41554D01*
X72555Y-41702D01*
X72475Y-41895D01*
X72474Y-42103D01*
X72554Y-42297D01*
X72702Y-42444D01*
X72895Y-42524D01*
X73103Y-42525D01*
X73297Y-42445D01*
X73400Y-42342D01*
X73400Y-44657D01*
X73297Y-44555D01*
X73104Y-44475D01*
X72896Y-44474D01*
X72703Y-44554D01*
X72555Y-44702D01*
X72550Y-44714D01*
X72550Y-43600D01*
X72515Y-43427D01*
X72418Y-43281D01*
X71700Y-42563D01*
X71700Y-42285D01*
X71774Y-42104D01*
X71775Y-41896D01*
X71695Y-41703D01*
X71547Y-41555D01*
X71354Y-41475D01*
X71146Y-41474D01*
X70953Y-41554D01*
X70805Y-41702D01*
X70725Y-41895D01*
X70724Y-42103D01*
X70800Y-42285D01*
X70800Y-42750D01*
X70834Y-42922D01*
X70931Y-43068D01*
X71650Y-43786D01*
X71650Y-44657D01*
X71547Y-44555D01*
X71354Y-44475D01*
X71146Y-44474D01*
X70953Y-44554D01*
X70805Y-44702D01*
X70725Y-44895D01*
X70724Y-45103D01*
X70804Y-45297D01*
X70952Y-45444D01*
X71145Y-45524D01*
X71353Y-45525D01*
X71547Y-45445D01*
X71650Y-45342D01*
X71650Y-45513D01*
X70620Y-46542D01*
X70523Y-46688D01*
X70488Y-46861D01*
X70488Y-47680D01*
X70488Y-47970D01*
X70482Y-47973D01*
X70412Y-48043D01*
X70374Y-48135D01*
X70374Y-48234D01*
X70374Y-48864D01*
X70412Y-48956D01*
X70482Y-49026D01*
X70574Y-49065D01*
X70673Y-49065D01*
X71303Y-49065D01*
X71395Y-49026D01*
X71438Y-48984D01*
X71522Y-49187D01*
X71832Y-49184D01*
X72516Y-48500D01*
X71832Y-47815D01*
X71522Y-47812D01*
X71451Y-48029D01*
X71395Y-47973D01*
X71388Y-47970D01*
X71388Y-47680D01*
X71388Y-47047D01*
X72418Y-46018D01*
X72515Y-45872D01*
X72550Y-45700D01*
X72550Y-45285D01*
X72554Y-45297D01*
X72702Y-45444D01*
X72895Y-45524D01*
X73103Y-45525D01*
X73297Y-45445D01*
X73400Y-45342D01*
X73400Y-47161D01*
X73390Y-47152D01*
X73311Y-47231D01*
X72915Y-47102D01*
X72368Y-47145D01*
X72062Y-47272D01*
X72065Y-47582D01*
X72750Y-48266D01*
X72866Y-48149D01*
X73100Y-48383D01*
X72983Y-48500D01*
X73220Y-48737D01*
X73258Y-48828D01*
X73421Y-48991D01*
X73512Y-49029D01*
X73667Y-49184D01*
X73977Y-49187D01*
X74035Y-49009D01*
X74078Y-48991D01*
X74241Y-48828D01*
X74329Y-48615D01*
X74330Y-48385D01*
X74241Y-48171D01*
X74100Y-48029D01*
X74100Y-32750D01*
X74073Y-32616D01*
X74073Y-32616D01*
X73997Y-32502D01*
X72019Y-30525D01*
X72030Y-30525D01*
X76400Y-34894D01*
X76400Y-36344D01*
X76389Y-36333D01*
X76081Y-36321D01*
X76010Y-36531D01*
X75953Y-36554D01*
X75805Y-36702D01*
X75725Y-36895D01*
X75724Y-37103D01*
X75804Y-37297D01*
X75952Y-37444D01*
X75991Y-37461D01*
X76081Y-37678D01*
X76389Y-37666D01*
X76400Y-37655D01*
X76400Y-39493D01*
X76354Y-39475D01*
X76146Y-39474D01*
X75953Y-39554D01*
X75805Y-39702D01*
X75725Y-39895D01*
X75724Y-40103D01*
X75804Y-40297D01*
X75952Y-40444D01*
X76145Y-40524D01*
X76353Y-40525D01*
X76400Y-40506D01*
X76400Y-40609D01*
X76426Y-40743D01*
X76502Y-40857D01*
X77127Y-41482D01*
X76953Y-41554D01*
X76805Y-41702D01*
X76725Y-41895D01*
X76724Y-42103D01*
X76800Y-42285D01*
X76800Y-42550D01*
X76834Y-42722D01*
X76931Y-42868D01*
X77650Y-43586D01*
X77650Y-44657D01*
X77547Y-44555D01*
X77354Y-44475D01*
X77146Y-44474D01*
X76953Y-44554D01*
X76805Y-44702D01*
X76725Y-44895D01*
X76724Y-45103D01*
X76804Y-45297D01*
X76952Y-45444D01*
X77145Y-45524D01*
X77353Y-45525D01*
X77547Y-45445D01*
X77650Y-45342D01*
X77650Y-45913D01*
X76620Y-46942D01*
X76523Y-47088D01*
X76488Y-47261D01*
X76488Y-47880D01*
X76488Y-47970D01*
X76482Y-47973D01*
X76412Y-48043D01*
X76374Y-48135D01*
X76374Y-48234D01*
X76374Y-48864D01*
X76412Y-48956D01*
X76482Y-49026D01*
X76574Y-49065D01*
X76673Y-49065D01*
X77303Y-49065D01*
X77395Y-49026D01*
X77438Y-48984D01*
X77522Y-49187D01*
X77832Y-49184D01*
X78516Y-48500D01*
X77832Y-47815D01*
X77522Y-47812D01*
X77451Y-48029D01*
X77395Y-47973D01*
X77388Y-47970D01*
X77388Y-47880D01*
X77388Y-47447D01*
X78418Y-46418D01*
X78515Y-46272D01*
X78550Y-46100D01*
X78550Y-45285D01*
X78554Y-45297D01*
X78702Y-45444D01*
X78895Y-45524D01*
X79103Y-45525D01*
X79297Y-45445D01*
X79400Y-45342D01*
X79400Y-47161D01*
X79390Y-47152D01*
X79311Y-47231D01*
X78915Y-47102D01*
X78368Y-47145D01*
X78062Y-47272D01*
X78065Y-47582D01*
X78750Y-48266D01*
X78866Y-48149D01*
X79100Y-48383D01*
X78983Y-48500D01*
X79220Y-48737D01*
X79258Y-48828D01*
X79421Y-48991D01*
X79512Y-49029D01*
X79667Y-49184D01*
X79977Y-49187D01*
X80035Y-49009D01*
X80078Y-48991D01*
X80241Y-48828D01*
X80329Y-48615D01*
X80330Y-48385D01*
X80241Y-48171D01*
X80100Y-48029D01*
X80100Y-43609D01*
X80073Y-43475D01*
X79997Y-43362D01*
X79143Y-42508D01*
X79297Y-42445D01*
X79444Y-42297D01*
X79524Y-42104D01*
X79525Y-41896D01*
X79445Y-41703D01*
X79297Y-41555D01*
X79104Y-41475D01*
X78896Y-41474D01*
X78703Y-41554D01*
X78555Y-41702D01*
X78491Y-41856D01*
X77160Y-40524D01*
X77353Y-40525D01*
X77547Y-40445D01*
X77694Y-40297D01*
X77750Y-40164D01*
X77804Y-40297D01*
X77952Y-40444D01*
X78145Y-40524D01*
X78353Y-40525D01*
X78547Y-40445D01*
X78694Y-40297D01*
X78774Y-40104D01*
X78775Y-39896D01*
X78775Y-39895D01*
X78775Y-37324D01*
X78775Y-37225D01*
X78775Y-36675D01*
X78736Y-36583D01*
X78666Y-36513D01*
X78574Y-36475D01*
X78534Y-36475D01*
X78534Y-22752D01*
X78380Y-21973D01*
X78378Y-21969D01*
X78041Y-21876D01*
X77373Y-22545D01*
X77373Y-21208D01*
X77280Y-20871D01*
X76502Y-20715D01*
X75723Y-20869D01*
X75719Y-20871D01*
X75626Y-21208D01*
X76500Y-22081D01*
X77373Y-21208D01*
X77373Y-22545D01*
X77168Y-22750D01*
X78041Y-23623D01*
X78378Y-23530D01*
X78534Y-22752D01*
X78534Y-36475D01*
X78481Y-36475D01*
X78418Y-36321D01*
X78110Y-36333D01*
X77969Y-36475D01*
X77925Y-36475D01*
X77833Y-36513D01*
X77763Y-36583D01*
X77725Y-36675D01*
X77725Y-36719D01*
X77444Y-37000D01*
X77725Y-37280D01*
X77725Y-37324D01*
X77763Y-37416D01*
X77833Y-37486D01*
X77925Y-37525D01*
X77969Y-37525D01*
X78110Y-37666D01*
X78418Y-37678D01*
X78470Y-37525D01*
X78574Y-37525D01*
X78666Y-37486D01*
X78736Y-37416D01*
X78775Y-37324D01*
X78775Y-39895D01*
X78695Y-39703D01*
X78547Y-39555D01*
X78354Y-39475D01*
X78146Y-39474D01*
X77953Y-39554D01*
X77805Y-39702D01*
X77749Y-39835D01*
X77695Y-39703D01*
X77547Y-39555D01*
X77354Y-39475D01*
X77146Y-39474D01*
X77100Y-39493D01*
X77100Y-38337D01*
X77596Y-38305D01*
X77928Y-38168D01*
X77916Y-37860D01*
X77250Y-37194D01*
X77100Y-37344D01*
X77100Y-36655D01*
X77250Y-36805D01*
X77916Y-36139D01*
X77928Y-35831D01*
X77695Y-35751D01*
X77695Y-26224D01*
X77695Y-26125D01*
X77695Y-24235D01*
X77656Y-24143D01*
X77586Y-24073D01*
X77494Y-24035D01*
X77395Y-24035D01*
X77116Y-24035D01*
X76523Y-23441D01*
X76411Y-22873D01*
X76409Y-22869D01*
X76072Y-22776D01*
X75831Y-23017D01*
X75831Y-22750D01*
X75297Y-22215D01*
X75404Y-22108D01*
X75311Y-21771D01*
X74533Y-21615D01*
X73754Y-21769D01*
X73750Y-21771D01*
X73657Y-22108D01*
X74507Y-22958D01*
X74619Y-23526D01*
X74621Y-23530D01*
X74958Y-23623D01*
X75831Y-22750D01*
X75831Y-23017D01*
X75199Y-23650D01*
X75224Y-23675D01*
X74556Y-24343D01*
X74531Y-24318D01*
X73862Y-24986D01*
X73862Y-23650D01*
X72989Y-22776D01*
X72652Y-22869D01*
X72496Y-23647D01*
X72650Y-24426D01*
X72652Y-24430D01*
X72989Y-24523D01*
X73862Y-23650D01*
X73862Y-24986D01*
X73657Y-25191D01*
X73750Y-25528D01*
X74528Y-25684D01*
X75305Y-25530D01*
X75305Y-26224D01*
X75343Y-26316D01*
X75413Y-26386D01*
X75505Y-26425D01*
X75604Y-26425D01*
X77494Y-26425D01*
X77586Y-26386D01*
X77656Y-26316D01*
X77695Y-26224D01*
X77695Y-35751D01*
X77430Y-35661D01*
X77100Y-35681D01*
X77100Y-34750D01*
X77073Y-34616D01*
X77073Y-34616D01*
X76997Y-34502D01*
X72524Y-30029D01*
X72525Y-29896D01*
X72525Y-29895D01*
X72525Y-27324D01*
X72525Y-27225D01*
X72525Y-26675D01*
X72486Y-26583D01*
X72416Y-26513D01*
X72324Y-26475D01*
X72225Y-26475D01*
X71675Y-26475D01*
X71583Y-26513D01*
X71513Y-26583D01*
X71475Y-26675D01*
X71475Y-26774D01*
X71475Y-26774D01*
X71445Y-26703D01*
X71297Y-26555D01*
X71104Y-26475D01*
X70896Y-26474D01*
X70703Y-26554D01*
X70555Y-26702D01*
X70499Y-26835D01*
X70445Y-26703D01*
X70297Y-26555D01*
X70104Y-26475D01*
X69896Y-26474D01*
X69703Y-26554D01*
X69555Y-26702D01*
X69499Y-26835D01*
X69445Y-26703D01*
X69297Y-26555D01*
X69104Y-26475D01*
X68896Y-26474D01*
X68703Y-26554D01*
X68555Y-26702D01*
X68499Y-26835D01*
X68445Y-26703D01*
X68297Y-26555D01*
X68104Y-26475D01*
X67896Y-26474D01*
X67703Y-26554D01*
X67555Y-26702D01*
X67499Y-26835D01*
X67445Y-26703D01*
X67297Y-26555D01*
X67104Y-26475D01*
X66896Y-26474D01*
X66703Y-26554D01*
X66555Y-26702D01*
X66499Y-26835D01*
X66445Y-26703D01*
X66297Y-26555D01*
X66104Y-26475D01*
X65896Y-26474D01*
X65703Y-26554D01*
X65555Y-26702D01*
X65499Y-26835D01*
X65445Y-26703D01*
X65297Y-26555D01*
X65104Y-26475D01*
X64896Y-26474D01*
X64703Y-26554D01*
X64555Y-26702D01*
X64475Y-26895D01*
X64474Y-27103D01*
X64554Y-27297D01*
X64702Y-27444D01*
X64895Y-27524D01*
X65103Y-27525D01*
X65297Y-27445D01*
X65444Y-27297D01*
X65500Y-27164D01*
X65554Y-27297D01*
X65702Y-27444D01*
X65895Y-27524D01*
X66103Y-27525D01*
X66297Y-27445D01*
X66444Y-27297D01*
X66500Y-27164D01*
X66554Y-27297D01*
X66702Y-27444D01*
X66895Y-27524D01*
X67103Y-27525D01*
X67297Y-27445D01*
X67444Y-27297D01*
X67500Y-27164D01*
X67554Y-27297D01*
X67702Y-27444D01*
X67895Y-27524D01*
X68103Y-27525D01*
X68297Y-27445D01*
X68444Y-27297D01*
X68500Y-27164D01*
X68554Y-27297D01*
X68702Y-27444D01*
X68895Y-27524D01*
X69103Y-27525D01*
X69297Y-27445D01*
X69444Y-27297D01*
X69500Y-27164D01*
X69554Y-27297D01*
X69702Y-27444D01*
X69895Y-27524D01*
X70103Y-27525D01*
X70297Y-27445D01*
X70444Y-27297D01*
X70500Y-27164D01*
X70554Y-27297D01*
X70702Y-27444D01*
X70895Y-27524D01*
X71103Y-27525D01*
X71297Y-27445D01*
X71444Y-27297D01*
X71475Y-27225D01*
X71475Y-27324D01*
X71513Y-27416D01*
X71583Y-27486D01*
X71675Y-27525D01*
X71774Y-27525D01*
X72324Y-27525D01*
X72416Y-27486D01*
X72486Y-27416D01*
X72525Y-27324D01*
X72525Y-29895D01*
X72445Y-29703D01*
X72297Y-29555D01*
X72104Y-29475D01*
X71896Y-29474D01*
X71703Y-29554D01*
X71555Y-29702D01*
X71499Y-29835D01*
X71445Y-29703D01*
X71297Y-29555D01*
X71104Y-29475D01*
X70896Y-29474D01*
X70717Y-29548D01*
X70445Y-29277D01*
X70332Y-29201D01*
X70198Y-29174D01*
X65787Y-29174D01*
X65653Y-29201D01*
X65540Y-29277D01*
X65272Y-29544D01*
X65104Y-29475D01*
X64969Y-29474D01*
X64835Y-29341D01*
X64722Y-29265D01*
X64588Y-29238D01*
X55740Y-29238D01*
X55606Y-29265D01*
X55492Y-29341D01*
X55215Y-29618D01*
X55039Y-29545D01*
X54831Y-29544D01*
X54638Y-29624D01*
X54490Y-29772D01*
X54473Y-29811D01*
X54473Y-29811D01*
X54457Y-29822D01*
X54417Y-29862D01*
X54380Y-29773D01*
X54232Y-29625D01*
X54039Y-29545D01*
X53831Y-29544D01*
X53638Y-29624D01*
X53490Y-29772D01*
X53435Y-29905D01*
X53380Y-29773D01*
X53232Y-29625D01*
X53039Y-29545D01*
X52949Y-29545D01*
X53259Y-29235D01*
X59842Y-29235D01*
X59976Y-29208D01*
X59976Y-29208D01*
X60090Y-29132D01*
X65747Y-23475D01*
X65823Y-23362D01*
X65850Y-23228D01*
X65850Y-21927D01*
X65950Y-21827D01*
X65950Y-21849D01*
X65988Y-21941D01*
X66058Y-22011D01*
X66150Y-22050D01*
X66249Y-22050D01*
X66849Y-22050D01*
X66941Y-22011D01*
X67011Y-21941D01*
X67050Y-21849D01*
X67050Y-21750D01*
X67050Y-21150D01*
X67011Y-21058D01*
X66941Y-20988D01*
X66849Y-20950D01*
X66750Y-20950D01*
X66444Y-20950D01*
X66243Y-20748D01*
X66129Y-20672D01*
X65995Y-20645D01*
X65142Y-20645D01*
X65174Y-20613D01*
X65182Y-20304D01*
X64673Y-20134D01*
X64137Y-20172D01*
X63817Y-20304D01*
X63825Y-20613D01*
X63995Y-20783D01*
X63783Y-20995D01*
X63613Y-20825D01*
X63304Y-20817D01*
X63134Y-21326D01*
X63155Y-21623D01*
X61378Y-23400D01*
X61302Y-23513D01*
X61275Y-23647D01*
X61275Y-26500D01*
X60909Y-26866D01*
X60909Y-23335D01*
X61997Y-22247D01*
X62073Y-22134D01*
X62073Y-22134D01*
X62090Y-22050D01*
X62099Y-22050D01*
X62191Y-22011D01*
X62261Y-21941D01*
X62300Y-21849D01*
X62300Y-21750D01*
X62300Y-21150D01*
X62261Y-21058D01*
X62191Y-20988D01*
X62099Y-20950D01*
X62000Y-20950D01*
X61400Y-20950D01*
X61308Y-20988D01*
X61238Y-21058D01*
X61200Y-21150D01*
X61200Y-21172D01*
X61061Y-21034D01*
X61029Y-21020D01*
X60945Y-20817D01*
X60636Y-20825D01*
X60432Y-21029D01*
X60432Y-20304D01*
X59923Y-20134D01*
X59387Y-20172D01*
X59067Y-20304D01*
X59075Y-20613D01*
X59750Y-21287D01*
X60424Y-20613D01*
X60432Y-20304D01*
X60432Y-21029D01*
X59962Y-21500D01*
X60636Y-22174D01*
X60945Y-22182D01*
X61010Y-21987D01*
X61061Y-21966D01*
X61200Y-21827D01*
X61200Y-21849D01*
X61238Y-21941D01*
X61275Y-21979D01*
X60432Y-22822D01*
X60432Y-22695D01*
X60424Y-22386D01*
X59750Y-21712D01*
X59075Y-22386D01*
X59067Y-22695D01*
X59576Y-22865D01*
X60112Y-22827D01*
X60432Y-22695D01*
X60432Y-22822D01*
X60312Y-22942D01*
X60236Y-23056D01*
X60209Y-23190D01*
X60209Y-26545D01*
X60160Y-26545D01*
X59610Y-26545D01*
X59587Y-26554D01*
X57350Y-24316D01*
X57350Y-22008D01*
X57350Y-21912D01*
X57087Y-21650D01*
X56150Y-21650D01*
X56150Y-22587D01*
X56412Y-22850D01*
X56508Y-22850D01*
X56894Y-22690D01*
X57190Y-22394D01*
X57350Y-22008D01*
X57350Y-24316D01*
X56285Y-23252D01*
X56172Y-23176D01*
X56038Y-23150D01*
X47991Y-23150D01*
X47841Y-22999D01*
X48004Y-22837D01*
X48094Y-22618D01*
X48095Y-22382D01*
X48082Y-22351D01*
X53498Y-22351D01*
X53632Y-22325D01*
X53632Y-22325D01*
X53745Y-22249D01*
X53945Y-22049D01*
X54108Y-22050D01*
X54311Y-21966D01*
X54465Y-21811D01*
X54499Y-21730D01*
X54533Y-21811D01*
X54650Y-21927D01*
X54650Y-22000D01*
X54650Y-22008D01*
X54809Y-22394D01*
X55105Y-22690D01*
X55491Y-22850D01*
X55587Y-22850D01*
X55850Y-22587D01*
X55850Y-21650D01*
X55700Y-21650D01*
X55700Y-21350D01*
X55850Y-21350D01*
X55850Y-21200D01*
X56150Y-21200D01*
X56150Y-21350D01*
X57087Y-21350D01*
X57350Y-21087D01*
X57350Y-20991D01*
X57190Y-20605D01*
X56894Y-20309D01*
X56859Y-20295D01*
X57050Y-20295D01*
X58200Y-21445D01*
X58199Y-21608D01*
X58283Y-21811D01*
X58438Y-21965D01*
X58470Y-21979D01*
X58554Y-22182D01*
X58863Y-22174D01*
X59537Y-21500D01*
X58863Y-20825D01*
X58562Y-20817D01*
X57569Y-19825D01*
X81152Y-19825D01*
X80987Y-19989D01*
X80850Y-20320D01*
X80849Y-20678D01*
X80986Y-21009D01*
X81239Y-21262D01*
X81570Y-21399D01*
X81928Y-21400D01*
X82259Y-21263D01*
X82425Y-21097D01*
X82425Y-48402D01*
M02*
