G04 (created by PCBNEW (2013-mar-13)-testing) date Mon 08 Jul 2013 02:53:21 PM PDT*
%MOIN*%
G04 Gerber Fmt 3.4, Leading zero omitted, Abs format*
%FSLAX34Y34*%
G01*
G70*
G90*
G04 APERTURE LIST*
%ADD10C,0.005906*%
%ADD11C,0.008000*%
%ADD12C,0.015000*%
%ADD13C,0.012000*%
%ADD14C,0.006000*%
%ADD15C,0.010000*%
G04 APERTURE END LIST*
G54D10*
G54D11*
X72971Y-25054D02*
X72971Y-24921D01*
X73180Y-24864D02*
X73180Y-25054D01*
X72780Y-25054D01*
X72780Y-24864D01*
X72780Y-24730D02*
X73180Y-24464D01*
X72780Y-24464D02*
X73180Y-24730D01*
X72780Y-24369D02*
X72780Y-24140D01*
X73180Y-24254D02*
X72780Y-24254D01*
X73180Y-23702D02*
X72780Y-23702D01*
X72780Y-23550D01*
X72800Y-23511D01*
X72819Y-23492D01*
X72857Y-23473D01*
X72914Y-23473D01*
X72952Y-23492D01*
X72971Y-23511D01*
X72990Y-23550D01*
X72990Y-23702D01*
X72780Y-23340D02*
X73180Y-23245D01*
X72895Y-23169D01*
X73180Y-23092D01*
X72780Y-22997D01*
X73180Y-22616D02*
X72990Y-22749D01*
X73180Y-22845D02*
X72780Y-22845D01*
X72780Y-22692D01*
X72800Y-22654D01*
X72819Y-22635D01*
X72857Y-22616D01*
X72914Y-22616D01*
X72952Y-22635D01*
X72971Y-22654D01*
X72990Y-22692D01*
X72990Y-22845D01*
X72780Y-22178D02*
X72780Y-21911D01*
X73180Y-22083D01*
X73028Y-21759D02*
X73028Y-21454D01*
X73180Y-21054D02*
X73180Y-21283D01*
X73180Y-21169D02*
X72780Y-21169D01*
X72838Y-21207D01*
X72876Y-21245D01*
X72895Y-21283D01*
X72819Y-20902D02*
X72800Y-20883D01*
X72780Y-20845D01*
X72780Y-20750D01*
X72800Y-20711D01*
X72819Y-20692D01*
X72857Y-20673D01*
X72895Y-20673D01*
X72952Y-20692D01*
X73180Y-20921D01*
X73180Y-20673D01*
X72780Y-20559D02*
X73180Y-20426D01*
X72780Y-20292D01*
X66369Y-22583D02*
X66559Y-22450D01*
X66369Y-22354D02*
X66769Y-22354D01*
X66769Y-22507D01*
X66750Y-22545D01*
X66730Y-22564D01*
X66692Y-22583D01*
X66635Y-22583D01*
X66597Y-22564D01*
X66578Y-22545D01*
X66559Y-22507D01*
X66559Y-22354D01*
X66769Y-22716D02*
X66369Y-22983D01*
X66769Y-22983D02*
X66369Y-22716D01*
X65669Y-22245D02*
X65669Y-22473D01*
X65269Y-22359D02*
X65669Y-22359D01*
X65669Y-22569D02*
X65269Y-22835D01*
X65669Y-22835D02*
X65269Y-22569D01*
X64650Y-22495D02*
X64669Y-22457D01*
X64669Y-22400D01*
X64650Y-22342D01*
X64611Y-22304D01*
X64573Y-22285D01*
X64497Y-22266D01*
X64440Y-22266D01*
X64364Y-22285D01*
X64326Y-22304D01*
X64288Y-22342D01*
X64269Y-22400D01*
X64269Y-22438D01*
X64288Y-22495D01*
X64307Y-22514D01*
X64440Y-22514D01*
X64440Y-22438D01*
X64269Y-22685D02*
X64669Y-22685D01*
X64269Y-22914D01*
X64669Y-22914D01*
X64269Y-23104D02*
X64669Y-23104D01*
X64669Y-23200D01*
X64650Y-23257D01*
X64611Y-23295D01*
X64573Y-23314D01*
X64497Y-23333D01*
X64440Y-23333D01*
X64364Y-23314D01*
X64326Y-23295D01*
X64288Y-23257D01*
X64269Y-23200D01*
X64269Y-23104D01*
X62019Y-22623D02*
X62019Y-22433D01*
X61828Y-22414D01*
X61847Y-22433D01*
X61866Y-22471D01*
X61866Y-22566D01*
X61847Y-22604D01*
X61828Y-22623D01*
X61790Y-22642D01*
X61695Y-22642D01*
X61657Y-22623D01*
X61638Y-22604D01*
X61619Y-22566D01*
X61619Y-22471D01*
X61638Y-22433D01*
X61657Y-22414D01*
X62019Y-22757D02*
X61619Y-22890D01*
X62019Y-23023D01*
X60869Y-22354D02*
X60869Y-22602D01*
X60716Y-22469D01*
X60716Y-22526D01*
X60697Y-22564D01*
X60678Y-22583D01*
X60640Y-22602D01*
X60545Y-22602D01*
X60507Y-22583D01*
X60488Y-22564D01*
X60469Y-22526D01*
X60469Y-22411D01*
X60488Y-22373D01*
X60507Y-22354D01*
X60869Y-22716D02*
X60469Y-22850D01*
X60869Y-22983D01*
X60869Y-23078D02*
X60869Y-23326D01*
X60716Y-23192D01*
X60716Y-23250D01*
X60697Y-23288D01*
X60678Y-23307D01*
X60640Y-23326D01*
X60545Y-23326D01*
X60507Y-23307D01*
X60488Y-23288D01*
X60469Y-23250D01*
X60469Y-23135D01*
X60488Y-23097D01*
X60507Y-23078D01*
X59900Y-22595D02*
X59919Y-22557D01*
X59919Y-22500D01*
X59900Y-22442D01*
X59861Y-22404D01*
X59823Y-22385D01*
X59747Y-22366D01*
X59690Y-22366D01*
X59614Y-22385D01*
X59576Y-22404D01*
X59538Y-22442D01*
X59519Y-22500D01*
X59519Y-22538D01*
X59538Y-22595D01*
X59557Y-22614D01*
X59690Y-22614D01*
X59690Y-22538D01*
X59519Y-22785D02*
X59919Y-22785D01*
X59519Y-23014D01*
X59919Y-23014D01*
X59519Y-23204D02*
X59919Y-23204D01*
X59919Y-23300D01*
X59900Y-23357D01*
X59861Y-23395D01*
X59823Y-23414D01*
X59747Y-23433D01*
X59690Y-23433D01*
X59614Y-23414D01*
X59576Y-23395D01*
X59538Y-23357D01*
X59519Y-23300D01*
X59519Y-23204D01*
X58683Y-22352D02*
X58683Y-22542D01*
X58569Y-22314D02*
X58969Y-22447D01*
X58569Y-22580D01*
X58569Y-22942D02*
X58759Y-22809D01*
X58569Y-22714D02*
X58969Y-22714D01*
X58969Y-22866D01*
X58950Y-22904D01*
X58930Y-22923D01*
X58892Y-22942D01*
X58835Y-22942D01*
X58797Y-22923D01*
X58778Y-22904D01*
X58759Y-22866D01*
X58759Y-22714D01*
X58778Y-23114D02*
X58778Y-23247D01*
X58569Y-23304D02*
X58569Y-23114D01*
X58969Y-23114D01*
X58969Y-23304D01*
X58778Y-23609D02*
X58778Y-23476D01*
X58569Y-23476D02*
X58969Y-23476D01*
X58969Y-23666D01*
X56300Y-22595D02*
X56319Y-22557D01*
X56319Y-22500D01*
X56300Y-22442D01*
X56261Y-22404D01*
X56223Y-22385D01*
X56147Y-22366D01*
X56090Y-22366D01*
X56014Y-22385D01*
X55976Y-22404D01*
X55938Y-22442D01*
X55919Y-22500D01*
X55919Y-22538D01*
X55938Y-22595D01*
X55957Y-22614D01*
X56090Y-22614D01*
X56090Y-22538D01*
X55919Y-22785D02*
X56319Y-22785D01*
X55919Y-23014D01*
X56319Y-23014D01*
X55919Y-23204D02*
X56319Y-23204D01*
X56319Y-23300D01*
X56300Y-23357D01*
X56261Y-23395D01*
X56223Y-23414D01*
X56147Y-23433D01*
X56090Y-23433D01*
X56014Y-23414D01*
X55976Y-23395D01*
X55938Y-23357D01*
X55919Y-23300D01*
X55919Y-23204D01*
X54888Y-22385D02*
X54869Y-22442D01*
X54869Y-22538D01*
X54888Y-22576D01*
X54907Y-22595D01*
X54945Y-22614D01*
X54983Y-22614D01*
X55021Y-22595D01*
X55040Y-22576D01*
X55059Y-22538D01*
X55078Y-22461D01*
X55097Y-22423D01*
X55116Y-22404D01*
X55154Y-22385D01*
X55192Y-22385D01*
X55230Y-22404D01*
X55250Y-22423D01*
X55269Y-22461D01*
X55269Y-22557D01*
X55250Y-22614D01*
X54907Y-23014D02*
X54888Y-22995D01*
X54869Y-22938D01*
X54869Y-22900D01*
X54888Y-22842D01*
X54926Y-22804D01*
X54964Y-22785D01*
X55040Y-22766D01*
X55097Y-22766D01*
X55173Y-22785D01*
X55211Y-22804D01*
X55250Y-22842D01*
X55269Y-22900D01*
X55269Y-22938D01*
X55250Y-22995D01*
X55230Y-23014D01*
X54869Y-23185D02*
X55269Y-23185D01*
X54869Y-23414D02*
X55097Y-23242D01*
X55269Y-23414D02*
X55040Y-23185D01*
X53819Y-22371D02*
X54219Y-22371D01*
X53933Y-22504D01*
X54219Y-22638D01*
X53819Y-22638D01*
X54219Y-22904D02*
X54219Y-22980D01*
X54200Y-23019D01*
X54161Y-23057D01*
X54085Y-23076D01*
X53952Y-23076D01*
X53876Y-23057D01*
X53838Y-23019D01*
X53819Y-22980D01*
X53819Y-22904D01*
X53838Y-22866D01*
X53876Y-22828D01*
X53952Y-22809D01*
X54085Y-22809D01*
X54161Y-22828D01*
X54200Y-22866D01*
X54219Y-22904D01*
X53838Y-23228D02*
X53819Y-23285D01*
X53819Y-23380D01*
X53838Y-23419D01*
X53857Y-23438D01*
X53895Y-23457D01*
X53933Y-23457D01*
X53971Y-23438D01*
X53990Y-23419D01*
X54009Y-23380D01*
X54028Y-23304D01*
X54047Y-23266D01*
X54066Y-23247D01*
X54104Y-23228D01*
X54142Y-23228D01*
X54180Y-23247D01*
X54200Y-23266D01*
X54219Y-23304D01*
X54219Y-23400D01*
X54200Y-23457D01*
X53819Y-23628D02*
X54219Y-23628D01*
X52819Y-22371D02*
X53219Y-22371D01*
X52933Y-22504D01*
X53219Y-22638D01*
X52819Y-22638D01*
X52819Y-22828D02*
X53219Y-22828D01*
X52838Y-23000D02*
X52819Y-23057D01*
X52819Y-23152D01*
X52838Y-23190D01*
X52857Y-23209D01*
X52895Y-23228D01*
X52933Y-23228D01*
X52971Y-23209D01*
X52990Y-23190D01*
X53009Y-23152D01*
X53028Y-23076D01*
X53047Y-23038D01*
X53066Y-23019D01*
X53104Y-23000D01*
X53142Y-23000D01*
X53180Y-23019D01*
X53200Y-23038D01*
X53219Y-23076D01*
X53219Y-23171D01*
X53200Y-23228D01*
X53219Y-23476D02*
X53219Y-23552D01*
X53200Y-23590D01*
X53161Y-23628D01*
X53085Y-23647D01*
X52952Y-23647D01*
X52876Y-23628D01*
X52838Y-23590D01*
X52819Y-23552D01*
X52819Y-23476D01*
X52838Y-23438D01*
X52876Y-23400D01*
X52952Y-23380D01*
X53085Y-23380D01*
X53161Y-23400D01*
X53200Y-23438D01*
X53219Y-23476D01*
X51838Y-22345D02*
X51819Y-22402D01*
X51819Y-22497D01*
X51838Y-22535D01*
X51857Y-22554D01*
X51895Y-22573D01*
X51933Y-22573D01*
X51971Y-22554D01*
X51990Y-22535D01*
X52009Y-22497D01*
X52028Y-22421D01*
X52047Y-22383D01*
X52066Y-22364D01*
X52104Y-22345D01*
X52142Y-22345D01*
X52180Y-22364D01*
X52200Y-22383D01*
X52219Y-22421D01*
X52219Y-22516D01*
X52200Y-22573D01*
X51838Y-22726D02*
X51819Y-22783D01*
X51819Y-22878D01*
X51838Y-22916D01*
X51857Y-22935D01*
X51895Y-22954D01*
X51933Y-22954D01*
X51971Y-22935D01*
X51990Y-22916D01*
X52009Y-22878D01*
X52028Y-22802D01*
X52047Y-22764D01*
X52066Y-22745D01*
X52104Y-22726D01*
X52142Y-22726D01*
X52180Y-22745D01*
X52200Y-22764D01*
X52219Y-22802D01*
X52219Y-22897D01*
X52200Y-22954D01*
X64709Y-20661D02*
X64766Y-20680D01*
X64861Y-20680D01*
X64900Y-20661D01*
X64919Y-20642D01*
X64938Y-20604D01*
X64938Y-20566D01*
X64919Y-20528D01*
X64900Y-20509D01*
X64861Y-20490D01*
X64785Y-20471D01*
X64747Y-20452D01*
X64728Y-20433D01*
X64709Y-20395D01*
X64709Y-20357D01*
X64728Y-20319D01*
X64747Y-20300D01*
X64785Y-20280D01*
X64880Y-20280D01*
X64938Y-20300D01*
X65261Y-20661D02*
X65223Y-20680D01*
X65147Y-20680D01*
X65109Y-20661D01*
X65090Y-20623D01*
X65090Y-20471D01*
X65109Y-20433D01*
X65147Y-20414D01*
X65223Y-20414D01*
X65261Y-20433D01*
X65280Y-20471D01*
X65280Y-20509D01*
X65090Y-20547D01*
X65452Y-20680D02*
X65452Y-20414D01*
X65452Y-20490D02*
X65471Y-20452D01*
X65490Y-20433D01*
X65528Y-20414D01*
X65566Y-20414D01*
X65700Y-20680D02*
X65700Y-20414D01*
X65700Y-20280D02*
X65680Y-20300D01*
X65700Y-20319D01*
X65719Y-20300D01*
X65700Y-20280D01*
X65700Y-20319D01*
X66061Y-20680D02*
X66061Y-20471D01*
X66042Y-20433D01*
X66004Y-20414D01*
X65928Y-20414D01*
X65890Y-20433D01*
X66061Y-20661D02*
X66023Y-20680D01*
X65928Y-20680D01*
X65890Y-20661D01*
X65871Y-20623D01*
X65871Y-20585D01*
X65890Y-20547D01*
X65928Y-20528D01*
X66023Y-20528D01*
X66061Y-20509D01*
X66309Y-20680D02*
X66271Y-20661D01*
X66252Y-20623D01*
X66252Y-20280D01*
X58752Y-20680D02*
X58752Y-20280D01*
X58885Y-20566D01*
X59019Y-20280D01*
X59019Y-20680D01*
X59209Y-20680D02*
X59209Y-20414D01*
X59209Y-20280D02*
X59190Y-20300D01*
X59209Y-20319D01*
X59228Y-20300D01*
X59209Y-20280D01*
X59209Y-20319D01*
X59380Y-20661D02*
X59419Y-20680D01*
X59495Y-20680D01*
X59533Y-20661D01*
X59552Y-20623D01*
X59552Y-20604D01*
X59533Y-20566D01*
X59495Y-20547D01*
X59438Y-20547D01*
X59400Y-20528D01*
X59380Y-20490D01*
X59380Y-20471D01*
X59400Y-20433D01*
X59438Y-20414D01*
X59495Y-20414D01*
X59533Y-20433D01*
X59895Y-20661D02*
X59857Y-20680D01*
X59780Y-20680D01*
X59742Y-20661D01*
X59723Y-20642D01*
X59704Y-20604D01*
X59704Y-20490D01*
X59723Y-20452D01*
X59742Y-20433D01*
X59780Y-20414D01*
X59857Y-20414D01*
X59895Y-20433D01*
X60371Y-20680D02*
X60371Y-20280D01*
X60523Y-20280D01*
X60561Y-20300D01*
X60580Y-20319D01*
X60600Y-20357D01*
X60600Y-20414D01*
X60580Y-20452D01*
X60561Y-20471D01*
X60523Y-20490D01*
X60371Y-20490D01*
X60733Y-20414D02*
X60809Y-20680D01*
X60885Y-20490D01*
X60961Y-20680D01*
X61038Y-20414D01*
X61190Y-20680D02*
X61190Y-20414D01*
X61190Y-20490D02*
X61209Y-20452D01*
X61228Y-20433D01*
X61266Y-20414D01*
X61304Y-20414D01*
X53590Y-20661D02*
X53647Y-20680D01*
X53742Y-20680D01*
X53780Y-20661D01*
X53800Y-20642D01*
X53819Y-20604D01*
X53819Y-20566D01*
X53800Y-20528D01*
X53780Y-20509D01*
X53742Y-20490D01*
X53666Y-20471D01*
X53628Y-20452D01*
X53609Y-20433D01*
X53590Y-20395D01*
X53590Y-20357D01*
X53609Y-20319D01*
X53628Y-20300D01*
X53666Y-20280D01*
X53761Y-20280D01*
X53819Y-20300D01*
X53990Y-20680D02*
X53990Y-20280D01*
X54142Y-20280D01*
X54180Y-20300D01*
X54200Y-20319D01*
X54219Y-20357D01*
X54219Y-20414D01*
X54200Y-20452D01*
X54180Y-20471D01*
X54142Y-20490D01*
X53990Y-20490D01*
X54390Y-20680D02*
X54390Y-20280D01*
X34004Y-34180D02*
X33871Y-33990D01*
X33776Y-34180D02*
X33776Y-33780D01*
X33928Y-33780D01*
X33966Y-33800D01*
X33985Y-33819D01*
X34004Y-33857D01*
X34004Y-33914D01*
X33985Y-33952D01*
X33966Y-33971D01*
X33928Y-33990D01*
X33776Y-33990D01*
X34328Y-34161D02*
X34290Y-34180D01*
X34214Y-34180D01*
X34176Y-34161D01*
X34157Y-34123D01*
X34157Y-33971D01*
X34176Y-33933D01*
X34214Y-33914D01*
X34290Y-33914D01*
X34328Y-33933D01*
X34347Y-33971D01*
X34347Y-34009D01*
X34157Y-34047D01*
X34500Y-34161D02*
X34538Y-34180D01*
X34614Y-34180D01*
X34652Y-34161D01*
X34671Y-34123D01*
X34671Y-34104D01*
X34652Y-34066D01*
X34614Y-34047D01*
X34557Y-34047D01*
X34519Y-34028D01*
X34500Y-33990D01*
X34500Y-33971D01*
X34519Y-33933D01*
X34557Y-33914D01*
X34614Y-33914D01*
X34652Y-33933D01*
X34995Y-34161D02*
X34957Y-34180D01*
X34880Y-34180D01*
X34842Y-34161D01*
X34823Y-34123D01*
X34823Y-33971D01*
X34842Y-33933D01*
X34880Y-33914D01*
X34957Y-33914D01*
X34995Y-33933D01*
X35014Y-33971D01*
X35014Y-34009D01*
X34823Y-34047D01*
X35128Y-33914D02*
X35280Y-33914D01*
X35185Y-33780D02*
X35185Y-34123D01*
X35204Y-34161D01*
X35242Y-34180D01*
X35280Y-34180D01*
X74554Y-46661D02*
X74611Y-46680D01*
X74707Y-46680D01*
X74745Y-46661D01*
X74764Y-46642D01*
X74783Y-46604D01*
X74783Y-46566D01*
X74764Y-46528D01*
X74745Y-46509D01*
X74707Y-46490D01*
X74630Y-46471D01*
X74592Y-46452D01*
X74573Y-46433D01*
X74554Y-46395D01*
X74554Y-46357D01*
X74573Y-46319D01*
X74592Y-46300D01*
X74630Y-46280D01*
X74726Y-46280D01*
X74783Y-46300D01*
X74935Y-46661D02*
X74992Y-46680D01*
X75088Y-46680D01*
X75126Y-46661D01*
X75145Y-46642D01*
X75164Y-46604D01*
X75164Y-46566D01*
X75145Y-46528D01*
X75126Y-46509D01*
X75088Y-46490D01*
X75011Y-46471D01*
X74973Y-46452D01*
X74954Y-46433D01*
X74935Y-46395D01*
X74935Y-46357D01*
X74954Y-46319D01*
X74973Y-46300D01*
X75011Y-46280D01*
X75107Y-46280D01*
X75164Y-46300D01*
X75564Y-46680D02*
X75430Y-46490D01*
X75335Y-46680D02*
X75335Y-46280D01*
X75488Y-46280D01*
X75526Y-46300D01*
X75545Y-46319D01*
X75564Y-46357D01*
X75564Y-46414D01*
X75545Y-46452D01*
X75526Y-46471D01*
X75488Y-46490D01*
X75335Y-46490D01*
X75792Y-46452D02*
X75754Y-46433D01*
X75735Y-46414D01*
X75716Y-46376D01*
X75716Y-46357D01*
X75735Y-46319D01*
X75754Y-46300D01*
X75792Y-46280D01*
X75869Y-46280D01*
X75907Y-46300D01*
X75926Y-46319D01*
X75945Y-46357D01*
X75945Y-46376D01*
X75926Y-46414D01*
X75907Y-46433D01*
X75869Y-46452D01*
X75792Y-46452D01*
X75754Y-46471D01*
X75735Y-46490D01*
X75716Y-46528D01*
X75716Y-46604D01*
X75735Y-46642D01*
X75754Y-46661D01*
X75792Y-46680D01*
X75869Y-46680D01*
X75907Y-46661D01*
X75926Y-46642D01*
X75945Y-46604D01*
X75945Y-46528D01*
X75926Y-46490D01*
X75907Y-46471D01*
X75869Y-46452D01*
X68554Y-46661D02*
X68611Y-46680D01*
X68707Y-46680D01*
X68745Y-46661D01*
X68764Y-46642D01*
X68783Y-46604D01*
X68783Y-46566D01*
X68764Y-46528D01*
X68745Y-46509D01*
X68707Y-46490D01*
X68630Y-46471D01*
X68592Y-46452D01*
X68573Y-46433D01*
X68554Y-46395D01*
X68554Y-46357D01*
X68573Y-46319D01*
X68592Y-46300D01*
X68630Y-46280D01*
X68726Y-46280D01*
X68783Y-46300D01*
X68935Y-46661D02*
X68992Y-46680D01*
X69088Y-46680D01*
X69126Y-46661D01*
X69145Y-46642D01*
X69164Y-46604D01*
X69164Y-46566D01*
X69145Y-46528D01*
X69126Y-46509D01*
X69088Y-46490D01*
X69011Y-46471D01*
X68973Y-46452D01*
X68954Y-46433D01*
X68935Y-46395D01*
X68935Y-46357D01*
X68954Y-46319D01*
X68973Y-46300D01*
X69011Y-46280D01*
X69107Y-46280D01*
X69164Y-46300D01*
X69564Y-46680D02*
X69430Y-46490D01*
X69335Y-46680D02*
X69335Y-46280D01*
X69488Y-46280D01*
X69526Y-46300D01*
X69545Y-46319D01*
X69564Y-46357D01*
X69564Y-46414D01*
X69545Y-46452D01*
X69526Y-46471D01*
X69488Y-46490D01*
X69335Y-46490D01*
X69697Y-46280D02*
X69964Y-46280D01*
X69792Y-46680D01*
X62554Y-46661D02*
X62611Y-46680D01*
X62707Y-46680D01*
X62745Y-46661D01*
X62764Y-46642D01*
X62783Y-46604D01*
X62783Y-46566D01*
X62764Y-46528D01*
X62745Y-46509D01*
X62707Y-46490D01*
X62630Y-46471D01*
X62592Y-46452D01*
X62573Y-46433D01*
X62554Y-46395D01*
X62554Y-46357D01*
X62573Y-46319D01*
X62592Y-46300D01*
X62630Y-46280D01*
X62726Y-46280D01*
X62783Y-46300D01*
X62935Y-46661D02*
X62992Y-46680D01*
X63088Y-46680D01*
X63126Y-46661D01*
X63145Y-46642D01*
X63164Y-46604D01*
X63164Y-46566D01*
X63145Y-46528D01*
X63126Y-46509D01*
X63088Y-46490D01*
X63011Y-46471D01*
X62973Y-46452D01*
X62954Y-46433D01*
X62935Y-46395D01*
X62935Y-46357D01*
X62954Y-46319D01*
X62973Y-46300D01*
X63011Y-46280D01*
X63107Y-46280D01*
X63164Y-46300D01*
X63564Y-46680D02*
X63430Y-46490D01*
X63335Y-46680D02*
X63335Y-46280D01*
X63488Y-46280D01*
X63526Y-46300D01*
X63545Y-46319D01*
X63564Y-46357D01*
X63564Y-46414D01*
X63545Y-46452D01*
X63526Y-46471D01*
X63488Y-46490D01*
X63335Y-46490D01*
X63907Y-46280D02*
X63830Y-46280D01*
X63792Y-46300D01*
X63773Y-46319D01*
X63735Y-46376D01*
X63716Y-46452D01*
X63716Y-46604D01*
X63735Y-46642D01*
X63754Y-46661D01*
X63792Y-46680D01*
X63869Y-46680D01*
X63907Y-46661D01*
X63926Y-46642D01*
X63945Y-46604D01*
X63945Y-46509D01*
X63926Y-46471D01*
X63907Y-46452D01*
X63869Y-46433D01*
X63792Y-46433D01*
X63754Y-46452D01*
X63735Y-46471D01*
X63716Y-46509D01*
X56554Y-46661D02*
X56611Y-46680D01*
X56707Y-46680D01*
X56745Y-46661D01*
X56764Y-46642D01*
X56783Y-46604D01*
X56783Y-46566D01*
X56764Y-46528D01*
X56745Y-46509D01*
X56707Y-46490D01*
X56630Y-46471D01*
X56592Y-46452D01*
X56573Y-46433D01*
X56554Y-46395D01*
X56554Y-46357D01*
X56573Y-46319D01*
X56592Y-46300D01*
X56630Y-46280D01*
X56726Y-46280D01*
X56783Y-46300D01*
X56935Y-46661D02*
X56992Y-46680D01*
X57088Y-46680D01*
X57126Y-46661D01*
X57145Y-46642D01*
X57164Y-46604D01*
X57164Y-46566D01*
X57145Y-46528D01*
X57126Y-46509D01*
X57088Y-46490D01*
X57011Y-46471D01*
X56973Y-46452D01*
X56954Y-46433D01*
X56935Y-46395D01*
X56935Y-46357D01*
X56954Y-46319D01*
X56973Y-46300D01*
X57011Y-46280D01*
X57107Y-46280D01*
X57164Y-46300D01*
X57564Y-46680D02*
X57430Y-46490D01*
X57335Y-46680D02*
X57335Y-46280D01*
X57488Y-46280D01*
X57526Y-46300D01*
X57545Y-46319D01*
X57564Y-46357D01*
X57564Y-46414D01*
X57545Y-46452D01*
X57526Y-46471D01*
X57488Y-46490D01*
X57335Y-46490D01*
X57926Y-46280D02*
X57735Y-46280D01*
X57716Y-46471D01*
X57735Y-46452D01*
X57773Y-46433D01*
X57869Y-46433D01*
X57907Y-46452D01*
X57926Y-46471D01*
X57945Y-46509D01*
X57945Y-46604D01*
X57926Y-46642D01*
X57907Y-46661D01*
X57869Y-46680D01*
X57773Y-46680D01*
X57735Y-46661D01*
X57716Y-46642D01*
X50554Y-46661D02*
X50611Y-46680D01*
X50707Y-46680D01*
X50745Y-46661D01*
X50764Y-46642D01*
X50783Y-46604D01*
X50783Y-46566D01*
X50764Y-46528D01*
X50745Y-46509D01*
X50707Y-46490D01*
X50630Y-46471D01*
X50592Y-46452D01*
X50573Y-46433D01*
X50554Y-46395D01*
X50554Y-46357D01*
X50573Y-46319D01*
X50592Y-46300D01*
X50630Y-46280D01*
X50726Y-46280D01*
X50783Y-46300D01*
X50935Y-46661D02*
X50992Y-46680D01*
X51088Y-46680D01*
X51126Y-46661D01*
X51145Y-46642D01*
X51164Y-46604D01*
X51164Y-46566D01*
X51145Y-46528D01*
X51126Y-46509D01*
X51088Y-46490D01*
X51011Y-46471D01*
X50973Y-46452D01*
X50954Y-46433D01*
X50935Y-46395D01*
X50935Y-46357D01*
X50954Y-46319D01*
X50973Y-46300D01*
X51011Y-46280D01*
X51107Y-46280D01*
X51164Y-46300D01*
X51564Y-46680D02*
X51430Y-46490D01*
X51335Y-46680D02*
X51335Y-46280D01*
X51488Y-46280D01*
X51526Y-46300D01*
X51545Y-46319D01*
X51564Y-46357D01*
X51564Y-46414D01*
X51545Y-46452D01*
X51526Y-46471D01*
X51488Y-46490D01*
X51335Y-46490D01*
X51907Y-46414D02*
X51907Y-46680D01*
X51811Y-46261D02*
X51716Y-46547D01*
X51964Y-46547D01*
X44804Y-46661D02*
X44861Y-46680D01*
X44957Y-46680D01*
X44995Y-46661D01*
X45014Y-46642D01*
X45033Y-46604D01*
X45033Y-46566D01*
X45014Y-46528D01*
X44995Y-46509D01*
X44957Y-46490D01*
X44880Y-46471D01*
X44842Y-46452D01*
X44823Y-46433D01*
X44804Y-46395D01*
X44804Y-46357D01*
X44823Y-46319D01*
X44842Y-46300D01*
X44880Y-46280D01*
X44976Y-46280D01*
X45033Y-46300D01*
X45185Y-46661D02*
X45242Y-46680D01*
X45338Y-46680D01*
X45376Y-46661D01*
X45395Y-46642D01*
X45414Y-46604D01*
X45414Y-46566D01*
X45395Y-46528D01*
X45376Y-46509D01*
X45338Y-46490D01*
X45261Y-46471D01*
X45223Y-46452D01*
X45204Y-46433D01*
X45185Y-46395D01*
X45185Y-46357D01*
X45204Y-46319D01*
X45223Y-46300D01*
X45261Y-46280D01*
X45357Y-46280D01*
X45414Y-46300D01*
X45814Y-46680D02*
X45680Y-46490D01*
X45585Y-46680D02*
X45585Y-46280D01*
X45738Y-46280D01*
X45776Y-46300D01*
X45795Y-46319D01*
X45814Y-46357D01*
X45814Y-46414D01*
X45795Y-46452D01*
X45776Y-46471D01*
X45738Y-46490D01*
X45585Y-46490D01*
X45947Y-46280D02*
X46195Y-46280D01*
X46061Y-46433D01*
X46119Y-46433D01*
X46157Y-46452D01*
X46176Y-46471D01*
X46195Y-46509D01*
X46195Y-46604D01*
X46176Y-46642D01*
X46157Y-46661D01*
X46119Y-46680D01*
X46004Y-46680D01*
X45966Y-46661D01*
X45947Y-46642D01*
X38804Y-46661D02*
X38861Y-46680D01*
X38957Y-46680D01*
X38995Y-46661D01*
X39014Y-46642D01*
X39033Y-46604D01*
X39033Y-46566D01*
X39014Y-46528D01*
X38995Y-46509D01*
X38957Y-46490D01*
X38880Y-46471D01*
X38842Y-46452D01*
X38823Y-46433D01*
X38804Y-46395D01*
X38804Y-46357D01*
X38823Y-46319D01*
X38842Y-46300D01*
X38880Y-46280D01*
X38976Y-46280D01*
X39033Y-46300D01*
X39185Y-46661D02*
X39242Y-46680D01*
X39338Y-46680D01*
X39376Y-46661D01*
X39395Y-46642D01*
X39414Y-46604D01*
X39414Y-46566D01*
X39395Y-46528D01*
X39376Y-46509D01*
X39338Y-46490D01*
X39261Y-46471D01*
X39223Y-46452D01*
X39204Y-46433D01*
X39185Y-46395D01*
X39185Y-46357D01*
X39204Y-46319D01*
X39223Y-46300D01*
X39261Y-46280D01*
X39357Y-46280D01*
X39414Y-46300D01*
X39814Y-46680D02*
X39680Y-46490D01*
X39585Y-46680D02*
X39585Y-46280D01*
X39738Y-46280D01*
X39776Y-46300D01*
X39795Y-46319D01*
X39814Y-46357D01*
X39814Y-46414D01*
X39795Y-46452D01*
X39776Y-46471D01*
X39738Y-46490D01*
X39585Y-46490D01*
X39966Y-46319D02*
X39985Y-46300D01*
X40023Y-46280D01*
X40119Y-46280D01*
X40157Y-46300D01*
X40176Y-46319D01*
X40195Y-46357D01*
X40195Y-46395D01*
X40176Y-46452D01*
X39947Y-46680D01*
X40195Y-46680D01*
X32804Y-46661D02*
X32861Y-46680D01*
X32957Y-46680D01*
X32995Y-46661D01*
X33014Y-46642D01*
X33033Y-46604D01*
X33033Y-46566D01*
X33014Y-46528D01*
X32995Y-46509D01*
X32957Y-46490D01*
X32880Y-46471D01*
X32842Y-46452D01*
X32823Y-46433D01*
X32804Y-46395D01*
X32804Y-46357D01*
X32823Y-46319D01*
X32842Y-46300D01*
X32880Y-46280D01*
X32976Y-46280D01*
X33033Y-46300D01*
X33185Y-46661D02*
X33242Y-46680D01*
X33338Y-46680D01*
X33376Y-46661D01*
X33395Y-46642D01*
X33414Y-46604D01*
X33414Y-46566D01*
X33395Y-46528D01*
X33376Y-46509D01*
X33338Y-46490D01*
X33261Y-46471D01*
X33223Y-46452D01*
X33204Y-46433D01*
X33185Y-46395D01*
X33185Y-46357D01*
X33204Y-46319D01*
X33223Y-46300D01*
X33261Y-46280D01*
X33357Y-46280D01*
X33414Y-46300D01*
X33814Y-46680D02*
X33680Y-46490D01*
X33585Y-46680D02*
X33585Y-46280D01*
X33738Y-46280D01*
X33776Y-46300D01*
X33795Y-46319D01*
X33814Y-46357D01*
X33814Y-46414D01*
X33795Y-46452D01*
X33776Y-46471D01*
X33738Y-46490D01*
X33585Y-46490D01*
X34195Y-46680D02*
X33966Y-46680D01*
X34080Y-46680D02*
X34080Y-46280D01*
X34042Y-46338D01*
X34004Y-46376D01*
X33966Y-46395D01*
X80411Y-33976D02*
X80430Y-33919D01*
X80430Y-33823D01*
X80411Y-33785D01*
X80392Y-33766D01*
X80354Y-33747D01*
X80316Y-33747D01*
X80278Y-33766D01*
X80259Y-33785D01*
X80240Y-33823D01*
X80221Y-33899D01*
X80202Y-33938D01*
X80183Y-33957D01*
X80145Y-33976D01*
X80107Y-33976D01*
X80069Y-33957D01*
X80050Y-33938D01*
X80030Y-33899D01*
X80030Y-33804D01*
X80050Y-33747D01*
X80411Y-33595D02*
X80430Y-33538D01*
X80430Y-33442D01*
X80411Y-33404D01*
X80392Y-33385D01*
X80354Y-33366D01*
X80316Y-33366D01*
X80278Y-33385D01*
X80259Y-33404D01*
X80240Y-33442D01*
X80221Y-33519D01*
X80202Y-33557D01*
X80183Y-33576D01*
X80145Y-33595D01*
X80107Y-33595D01*
X80069Y-33576D01*
X80050Y-33557D01*
X80030Y-33519D01*
X80030Y-33423D01*
X80050Y-33366D01*
X80430Y-32966D02*
X80240Y-33099D01*
X80430Y-33195D02*
X80030Y-33195D01*
X80030Y-33042D01*
X80050Y-33004D01*
X80069Y-32985D01*
X80107Y-32966D01*
X80164Y-32966D01*
X80202Y-32985D01*
X80221Y-33004D01*
X80240Y-33042D01*
X80240Y-33195D01*
X80164Y-32547D02*
X80164Y-32395D01*
X80430Y-32490D02*
X80088Y-32490D01*
X80050Y-32471D01*
X80030Y-32433D01*
X80030Y-32395D01*
X80430Y-32204D02*
X80411Y-32242D01*
X80392Y-32261D01*
X80354Y-32280D01*
X80240Y-32280D01*
X80202Y-32261D01*
X80183Y-32242D01*
X80164Y-32204D01*
X80164Y-32147D01*
X80183Y-32109D01*
X80202Y-32090D01*
X80240Y-32071D01*
X80354Y-32071D01*
X80392Y-32090D01*
X80411Y-32109D01*
X80430Y-32147D01*
X80430Y-32204D01*
X80430Y-31899D02*
X80164Y-31899D01*
X80240Y-31899D02*
X80202Y-31880D01*
X80183Y-31861D01*
X80164Y-31823D01*
X80164Y-31785D01*
X80430Y-31347D02*
X80030Y-31347D01*
X80430Y-31119D01*
X80030Y-31119D01*
X80430Y-30757D02*
X80221Y-30757D01*
X80183Y-30776D01*
X80164Y-30814D01*
X80164Y-30890D01*
X80183Y-30928D01*
X80411Y-30757D02*
X80430Y-30795D01*
X80430Y-30890D01*
X80411Y-30928D01*
X80373Y-30947D01*
X80335Y-30947D01*
X80297Y-30928D01*
X80278Y-30890D01*
X80278Y-30795D01*
X80259Y-30757D01*
X80164Y-30566D02*
X80430Y-30566D01*
X80202Y-30566D02*
X80183Y-30547D01*
X80164Y-30509D01*
X80164Y-30452D01*
X80183Y-30414D01*
X80221Y-30395D01*
X80430Y-30395D01*
X80430Y-30147D02*
X80411Y-30185D01*
X80392Y-30204D01*
X80354Y-30223D01*
X80240Y-30223D01*
X80202Y-30204D01*
X80183Y-30185D01*
X80164Y-30147D01*
X80164Y-30090D01*
X80183Y-30052D01*
X80202Y-30033D01*
X80240Y-30014D01*
X80354Y-30014D01*
X80392Y-30033D01*
X80411Y-30052D01*
X80430Y-30090D01*
X80430Y-30147D01*
X80278Y-29538D02*
X80278Y-29233D01*
X80316Y-28757D02*
X80316Y-28566D01*
X80430Y-28795D02*
X80030Y-28661D01*
X80430Y-28528D01*
X80392Y-28166D02*
X80411Y-28185D01*
X80430Y-28242D01*
X80430Y-28280D01*
X80411Y-28338D01*
X80373Y-28376D01*
X80335Y-28395D01*
X80259Y-28414D01*
X80202Y-28414D01*
X80126Y-28395D01*
X80088Y-28376D01*
X80050Y-28338D01*
X80030Y-28280D01*
X80030Y-28242D01*
X80050Y-28185D01*
X80069Y-28166D01*
X80011Y-27709D02*
X80526Y-28052D01*
X80430Y-27576D02*
X80030Y-27576D01*
X80030Y-27480D01*
X80050Y-27423D01*
X80088Y-27385D01*
X80126Y-27366D01*
X80202Y-27347D01*
X80259Y-27347D01*
X80335Y-27366D01*
X80373Y-27385D01*
X80411Y-27423D01*
X80430Y-27480D01*
X80430Y-27576D01*
X80392Y-26947D02*
X80411Y-26966D01*
X80430Y-27023D01*
X80430Y-27061D01*
X80411Y-27119D01*
X80373Y-27157D01*
X80335Y-27176D01*
X80259Y-27195D01*
X80202Y-27195D01*
X80126Y-27176D01*
X80088Y-27157D01*
X80050Y-27119D01*
X80030Y-27061D01*
X80030Y-27023D01*
X80050Y-26966D01*
X80069Y-26947D01*
X80392Y-26242D02*
X80411Y-26261D01*
X80430Y-26319D01*
X80430Y-26357D01*
X80411Y-26414D01*
X80373Y-26452D01*
X80335Y-26471D01*
X80259Y-26490D01*
X80202Y-26490D01*
X80126Y-26471D01*
X80088Y-26452D01*
X80050Y-26414D01*
X80030Y-26357D01*
X80030Y-26319D01*
X80050Y-26261D01*
X80069Y-26242D01*
X80430Y-26014D02*
X80411Y-26052D01*
X80392Y-26071D01*
X80354Y-26090D01*
X80240Y-26090D01*
X80202Y-26071D01*
X80183Y-26052D01*
X80164Y-26014D01*
X80164Y-25957D01*
X80183Y-25919D01*
X80202Y-25900D01*
X80240Y-25880D01*
X80354Y-25880D01*
X80392Y-25900D01*
X80411Y-25919D01*
X80430Y-25957D01*
X80430Y-26014D01*
X80164Y-25709D02*
X80430Y-25709D01*
X80202Y-25709D02*
X80183Y-25690D01*
X80164Y-25652D01*
X80164Y-25595D01*
X80183Y-25557D01*
X80221Y-25538D01*
X80430Y-25538D01*
X80164Y-25404D02*
X80164Y-25252D01*
X80430Y-25347D02*
X80088Y-25347D01*
X80050Y-25328D01*
X80030Y-25290D01*
X80030Y-25252D01*
X80430Y-25119D02*
X80164Y-25119D01*
X80030Y-25119D02*
X80050Y-25138D01*
X80069Y-25119D01*
X80050Y-25100D01*
X80030Y-25119D01*
X80069Y-25119D01*
X80164Y-24757D02*
X80488Y-24757D01*
X80526Y-24776D01*
X80545Y-24795D01*
X80564Y-24833D01*
X80564Y-24890D01*
X80545Y-24928D01*
X80411Y-24757D02*
X80430Y-24795D01*
X80430Y-24871D01*
X80411Y-24909D01*
X80392Y-24928D01*
X80354Y-24947D01*
X80240Y-24947D01*
X80202Y-24928D01*
X80183Y-24909D01*
X80164Y-24871D01*
X80164Y-24795D01*
X80183Y-24757D01*
X80164Y-24395D02*
X80430Y-24395D01*
X80164Y-24566D02*
X80373Y-24566D01*
X80411Y-24547D01*
X80430Y-24509D01*
X80430Y-24452D01*
X80411Y-24414D01*
X80392Y-24395D01*
X80430Y-24204D02*
X80164Y-24204D01*
X80240Y-24204D02*
X80202Y-24185D01*
X80183Y-24166D01*
X80164Y-24128D01*
X80164Y-24090D01*
X80430Y-23785D02*
X80221Y-23785D01*
X80183Y-23804D01*
X80164Y-23842D01*
X80164Y-23919D01*
X80183Y-23957D01*
X80411Y-23785D02*
X80430Y-23823D01*
X80430Y-23919D01*
X80411Y-23957D01*
X80373Y-23976D01*
X80335Y-23976D01*
X80297Y-23957D01*
X80278Y-23919D01*
X80278Y-23823D01*
X80259Y-23785D01*
X80164Y-23652D02*
X80164Y-23500D01*
X80030Y-23595D02*
X80373Y-23595D01*
X80411Y-23576D01*
X80430Y-23538D01*
X80430Y-23500D01*
X80430Y-23366D02*
X80164Y-23366D01*
X80030Y-23366D02*
X80050Y-23385D01*
X80069Y-23366D01*
X80050Y-23347D01*
X80030Y-23366D01*
X80069Y-23366D01*
X80430Y-23119D02*
X80411Y-23157D01*
X80392Y-23176D01*
X80354Y-23195D01*
X80240Y-23195D01*
X80202Y-23176D01*
X80183Y-23157D01*
X80164Y-23119D01*
X80164Y-23061D01*
X80183Y-23023D01*
X80202Y-23004D01*
X80240Y-22985D01*
X80354Y-22985D01*
X80392Y-23004D01*
X80411Y-23023D01*
X80430Y-23061D01*
X80430Y-23119D01*
X80164Y-22814D02*
X80430Y-22814D01*
X80202Y-22814D02*
X80183Y-22795D01*
X80164Y-22757D01*
X80164Y-22700D01*
X80183Y-22661D01*
X80221Y-22642D01*
X80430Y-22642D01*
X80030Y-22204D02*
X80430Y-22071D01*
X80030Y-21938D01*
X80430Y-21595D02*
X80430Y-21823D01*
X80430Y-21709D02*
X80030Y-21709D01*
X80088Y-21747D01*
X80126Y-21785D01*
X80145Y-21823D01*
X80392Y-21423D02*
X80411Y-21404D01*
X80430Y-21423D01*
X80411Y-21442D01*
X80392Y-21423D01*
X80430Y-21423D01*
X80030Y-21157D02*
X80030Y-21119D01*
X80050Y-21080D01*
X80069Y-21061D01*
X80107Y-21042D01*
X80183Y-21023D01*
X80278Y-21023D01*
X80354Y-21042D01*
X80392Y-21061D01*
X80411Y-21080D01*
X80430Y-21119D01*
X80430Y-21157D01*
X80411Y-21195D01*
X80392Y-21214D01*
X80354Y-21233D01*
X80278Y-21252D01*
X80183Y-21252D01*
X80107Y-21233D01*
X80069Y-21214D01*
X80050Y-21195D01*
X80030Y-21157D01*
X81070Y-29623D02*
X80670Y-29623D01*
X80670Y-29357D02*
X80670Y-29280D01*
X80690Y-29242D01*
X80728Y-29204D01*
X80804Y-29185D01*
X80937Y-29185D01*
X81013Y-29204D01*
X81051Y-29242D01*
X81070Y-29280D01*
X81070Y-29357D01*
X81051Y-29395D01*
X81013Y-29433D01*
X80937Y-29452D01*
X80804Y-29452D01*
X80728Y-29433D01*
X80690Y-29395D01*
X80670Y-29357D01*
X81070Y-28480D02*
X80880Y-28614D01*
X81070Y-28709D02*
X80670Y-28709D01*
X80670Y-28557D01*
X80690Y-28519D01*
X80709Y-28500D01*
X80747Y-28480D01*
X80804Y-28480D01*
X80842Y-28500D01*
X80861Y-28519D01*
X80880Y-28557D01*
X80880Y-28709D01*
X81070Y-28252D02*
X81051Y-28290D01*
X81032Y-28309D01*
X80994Y-28328D01*
X80880Y-28328D01*
X80842Y-28309D01*
X80823Y-28290D01*
X80804Y-28252D01*
X80804Y-28195D01*
X80823Y-28157D01*
X80842Y-28138D01*
X80880Y-28119D01*
X80994Y-28119D01*
X81032Y-28138D01*
X81051Y-28157D01*
X81070Y-28195D01*
X81070Y-28252D01*
X81070Y-27776D02*
X80670Y-27776D01*
X81051Y-27776D02*
X81070Y-27814D01*
X81070Y-27890D01*
X81051Y-27928D01*
X81032Y-27947D01*
X80994Y-27966D01*
X80880Y-27966D01*
X80842Y-27947D01*
X80823Y-27928D01*
X80804Y-27890D01*
X80804Y-27814D01*
X80823Y-27776D01*
X81051Y-27433D02*
X81070Y-27471D01*
X81070Y-27547D01*
X81051Y-27585D01*
X81013Y-27604D01*
X80861Y-27604D01*
X80823Y-27585D01*
X80804Y-27547D01*
X80804Y-27471D01*
X80823Y-27433D01*
X80861Y-27414D01*
X80899Y-27414D01*
X80937Y-27604D01*
X81070Y-27185D02*
X81051Y-27223D01*
X81032Y-27242D01*
X80994Y-27261D01*
X80880Y-27261D01*
X80842Y-27242D01*
X80823Y-27223D01*
X80804Y-27185D01*
X80804Y-27128D01*
X80823Y-27090D01*
X80842Y-27071D01*
X80880Y-27052D01*
X80994Y-27052D01*
X81032Y-27071D01*
X81051Y-27090D01*
X81070Y-27128D01*
X81070Y-27185D01*
X81070Y-26576D02*
X80670Y-26576D01*
X80804Y-26385D02*
X81070Y-26385D01*
X80842Y-26385D02*
X80823Y-26366D01*
X80804Y-26328D01*
X80804Y-26271D01*
X80823Y-26233D01*
X80861Y-26214D01*
X81070Y-26214D01*
X81051Y-25852D02*
X81070Y-25890D01*
X81070Y-25966D01*
X81051Y-26004D01*
X81032Y-26023D01*
X80994Y-26042D01*
X80880Y-26042D01*
X80842Y-26023D01*
X80823Y-26004D01*
X80804Y-25966D01*
X80804Y-25890D01*
X80823Y-25852D01*
X81032Y-25680D02*
X81051Y-25661D01*
X81070Y-25680D01*
X81051Y-25700D01*
X81032Y-25680D01*
X81070Y-25680D01*
G54D12*
X74250Y-50000D02*
X74250Y-36000D01*
X68250Y-50000D02*
X68250Y-36000D01*
X80250Y-36000D02*
X38250Y-36000D01*
X80250Y-50000D02*
X80250Y-36000D01*
X32250Y-36000D02*
X38250Y-36000D01*
X32250Y-50000D02*
X32250Y-36000D01*
X62250Y-36000D02*
X62000Y-36000D01*
X62250Y-50000D02*
X62250Y-36000D01*
X56250Y-50000D02*
X56250Y-36000D01*
X50250Y-36000D02*
X50000Y-36000D01*
X50250Y-50000D02*
X50250Y-36000D01*
X44250Y-50000D02*
X44250Y-36000D01*
X38250Y-50000D02*
X38250Y-36000D01*
G54D11*
X32066Y-26328D02*
X32066Y-26138D01*
X32180Y-26366D02*
X31780Y-26233D01*
X32180Y-26099D01*
X31914Y-25966D02*
X32180Y-25966D01*
X31952Y-25966D02*
X31933Y-25947D01*
X31914Y-25909D01*
X31914Y-25852D01*
X31933Y-25814D01*
X31971Y-25795D01*
X32180Y-25795D01*
X32180Y-25433D02*
X31971Y-25433D01*
X31933Y-25452D01*
X31914Y-25490D01*
X31914Y-25566D01*
X31933Y-25604D01*
X32161Y-25433D02*
X32180Y-25471D01*
X32180Y-25566D01*
X32161Y-25604D01*
X32123Y-25623D01*
X32085Y-25623D01*
X32047Y-25604D01*
X32028Y-25566D01*
X32028Y-25471D01*
X32009Y-25433D01*
X32180Y-25185D02*
X32161Y-25223D01*
X32123Y-25242D01*
X31780Y-25242D01*
X32180Y-24976D02*
X32161Y-25014D01*
X32142Y-25033D01*
X32104Y-25052D01*
X31990Y-25052D01*
X31952Y-25033D01*
X31933Y-25014D01*
X31914Y-24976D01*
X31914Y-24919D01*
X31933Y-24880D01*
X31952Y-24861D01*
X31990Y-24842D01*
X32104Y-24842D01*
X32142Y-24861D01*
X32161Y-24880D01*
X32180Y-24919D01*
X32180Y-24976D01*
X31914Y-24500D02*
X32238Y-24500D01*
X32276Y-24519D01*
X32295Y-24538D01*
X32314Y-24576D01*
X32314Y-24633D01*
X32295Y-24671D01*
X32161Y-24500D02*
X32180Y-24538D01*
X32180Y-24614D01*
X32161Y-24652D01*
X32142Y-24671D01*
X32104Y-24690D01*
X31990Y-24690D01*
X31952Y-24671D01*
X31933Y-24652D01*
X31914Y-24614D01*
X31914Y-24538D01*
X31933Y-24500D01*
X32180Y-24004D02*
X31780Y-24004D01*
X31914Y-23814D02*
X32180Y-23814D01*
X31952Y-23814D02*
X31933Y-23795D01*
X31914Y-23757D01*
X31914Y-23700D01*
X31933Y-23661D01*
X31971Y-23642D01*
X32180Y-23642D01*
X31914Y-23452D02*
X32314Y-23452D01*
X31933Y-23452D02*
X31914Y-23414D01*
X31914Y-23338D01*
X31933Y-23300D01*
X31952Y-23280D01*
X31990Y-23261D01*
X32104Y-23261D01*
X32142Y-23280D01*
X32161Y-23300D01*
X32180Y-23338D01*
X32180Y-23414D01*
X32161Y-23452D01*
X31914Y-22919D02*
X32180Y-22919D01*
X31914Y-23090D02*
X32123Y-23090D01*
X32161Y-23071D01*
X32180Y-23033D01*
X32180Y-22976D01*
X32161Y-22938D01*
X32142Y-22919D01*
X31914Y-22785D02*
X31914Y-22633D01*
X31780Y-22728D02*
X32123Y-22728D01*
X32161Y-22709D01*
X32180Y-22671D01*
X32180Y-22633D01*
G54D12*
X45000Y-35000D02*
G75*
G03X44500Y-34500I-500J0D01*
G74*
G01*
X44500Y-34500D02*
G75*
G03X44000Y-35000I0J-500D01*
G74*
G01*
X42000Y-35000D02*
X44000Y-35000D01*
X47000Y-35000D02*
X45000Y-35000D01*
X47000Y-35000D02*
X47000Y-20000D01*
X47000Y-20000D02*
X42000Y-20000D01*
X42000Y-20000D02*
X42000Y-35000D01*
G54D13*
X34870Y-32475D02*
X37670Y-32475D01*
X37670Y-32475D02*
X37670Y-33275D01*
X37670Y-33275D02*
X34870Y-33275D01*
X34870Y-33275D02*
X34870Y-32475D01*
X34870Y-32675D02*
X35070Y-32475D01*
G54D12*
X60935Y-29070D02*
X60935Y-29070D01*
X60935Y-29070D02*
X60435Y-29070D01*
X60435Y-29070D02*
X60435Y-28070D01*
X60435Y-28070D02*
X60935Y-28070D01*
X60935Y-29570D02*
X51935Y-29570D01*
X51935Y-29570D02*
X51935Y-27570D01*
X51935Y-27570D02*
X60935Y-27570D01*
X60935Y-27570D02*
X60935Y-29570D01*
X73000Y-29000D02*
X73000Y-29000D01*
X73000Y-29000D02*
X72500Y-29000D01*
X72500Y-29000D02*
X72500Y-28000D01*
X72500Y-28000D02*
X73000Y-28000D01*
X73000Y-29500D02*
X64000Y-29500D01*
X64000Y-29500D02*
X64000Y-27500D01*
X64000Y-27500D02*
X73000Y-27500D01*
X73000Y-27500D02*
X73000Y-29500D01*
G54D14*
X33835Y-32375D02*
X33835Y-33375D01*
X33835Y-33375D02*
X31835Y-33375D01*
X31835Y-33375D02*
X31835Y-32375D01*
X31835Y-32375D02*
X33835Y-32375D01*
X67000Y-21000D02*
X67000Y-22000D01*
X67000Y-22000D02*
X64000Y-22000D01*
X64000Y-22000D02*
X64000Y-21000D01*
X64000Y-21000D02*
X67000Y-21000D01*
G54D12*
X62250Y-22000D02*
X62250Y-21000D01*
X62250Y-21000D02*
X58250Y-21000D01*
X58250Y-21000D02*
X58250Y-22000D01*
X58250Y-22000D02*
X62250Y-22000D01*
G54D13*
X36500Y-30750D02*
X36100Y-30750D01*
X36100Y-30750D02*
X36100Y-31150D01*
X36100Y-31150D02*
X32900Y-31150D01*
X32900Y-31150D02*
X32900Y-30350D01*
X32900Y-30350D02*
X36100Y-30350D01*
X36100Y-30350D02*
X36100Y-30750D01*
X36100Y-30950D02*
X35900Y-31150D01*
X32500Y-30750D02*
X32900Y-30750D01*
G54D12*
X32675Y-28600D02*
X36275Y-28600D01*
X36275Y-28600D02*
X36275Y-20600D01*
X36275Y-20600D02*
X32675Y-20600D01*
X32675Y-20600D02*
X32675Y-28600D01*
X36475Y-26600D02*
X37075Y-27100D01*
X37075Y-27100D02*
X37075Y-26100D01*
X37075Y-26100D02*
X36475Y-26600D01*
X37000Y-39500D02*
X33500Y-39500D01*
X33500Y-39500D02*
X33500Y-37500D01*
X33500Y-37500D02*
X37000Y-37500D01*
X37000Y-37500D02*
X37000Y-39500D01*
X37000Y-38750D02*
X36500Y-38750D01*
X36500Y-38750D02*
X36500Y-38250D01*
X36500Y-38250D02*
X37000Y-38250D01*
X43000Y-39500D02*
X39500Y-39500D01*
X39500Y-39500D02*
X39500Y-37500D01*
X39500Y-37500D02*
X43000Y-37500D01*
X43000Y-37500D02*
X43000Y-39500D01*
X43000Y-38750D02*
X42500Y-38750D01*
X42500Y-38750D02*
X42500Y-38250D01*
X42500Y-38250D02*
X43000Y-38250D01*
X49000Y-39500D02*
X45500Y-39500D01*
X45500Y-39500D02*
X45500Y-37500D01*
X45500Y-37500D02*
X49000Y-37500D01*
X49000Y-37500D02*
X49000Y-39500D01*
X49000Y-38750D02*
X48500Y-38750D01*
X48500Y-38750D02*
X48500Y-38250D01*
X48500Y-38250D02*
X49000Y-38250D01*
X55000Y-39500D02*
X51500Y-39500D01*
X51500Y-39500D02*
X51500Y-37500D01*
X51500Y-37500D02*
X55000Y-37500D01*
X55000Y-37500D02*
X55000Y-39500D01*
X55000Y-38750D02*
X54500Y-38750D01*
X54500Y-38750D02*
X54500Y-38250D01*
X54500Y-38250D02*
X55000Y-38250D01*
X61000Y-39500D02*
X57500Y-39500D01*
X57500Y-39500D02*
X57500Y-37500D01*
X57500Y-37500D02*
X61000Y-37500D01*
X61000Y-37500D02*
X61000Y-39500D01*
X61000Y-38750D02*
X60500Y-38750D01*
X60500Y-38750D02*
X60500Y-38250D01*
X60500Y-38250D02*
X61000Y-38250D01*
X67000Y-39500D02*
X63500Y-39500D01*
X63500Y-39500D02*
X63500Y-37500D01*
X63500Y-37500D02*
X67000Y-37500D01*
X67000Y-37500D02*
X67000Y-39500D01*
X67000Y-38750D02*
X66500Y-38750D01*
X66500Y-38750D02*
X66500Y-38250D01*
X66500Y-38250D02*
X67000Y-38250D01*
X73000Y-39500D02*
X69500Y-39500D01*
X69500Y-39500D02*
X69500Y-37500D01*
X69500Y-37500D02*
X73000Y-37500D01*
X73000Y-37500D02*
X73000Y-39500D01*
X73000Y-38750D02*
X72500Y-38750D01*
X72500Y-38750D02*
X72500Y-38250D01*
X72500Y-38250D02*
X73000Y-38250D01*
X79000Y-39500D02*
X75500Y-39500D01*
X75500Y-39500D02*
X75500Y-37500D01*
X75500Y-37500D02*
X79000Y-37500D01*
X79000Y-37500D02*
X79000Y-39500D01*
X79000Y-38750D02*
X78500Y-38750D01*
X78500Y-38750D02*
X78500Y-38250D01*
X78500Y-38250D02*
X79000Y-38250D01*
X35850Y-49850D02*
X35850Y-47150D01*
X35850Y-47150D02*
X32650Y-47150D01*
X32650Y-47150D02*
X32650Y-49850D01*
X32650Y-49850D02*
X35850Y-49850D01*
X41850Y-49850D02*
X41850Y-47150D01*
X41850Y-47150D02*
X38650Y-47150D01*
X38650Y-47150D02*
X38650Y-49850D01*
X38650Y-49850D02*
X41850Y-49850D01*
X47850Y-49850D02*
X47850Y-47150D01*
X47850Y-47150D02*
X44650Y-47150D01*
X44650Y-47150D02*
X44650Y-49850D01*
X44650Y-49850D02*
X47850Y-49850D01*
X53850Y-49850D02*
X53850Y-47150D01*
X53850Y-47150D02*
X50650Y-47150D01*
X50650Y-47150D02*
X50650Y-49850D01*
X50650Y-49850D02*
X53850Y-49850D01*
X59850Y-49850D02*
X59850Y-47150D01*
X59850Y-47150D02*
X56650Y-47150D01*
X56650Y-47150D02*
X56650Y-49850D01*
X56650Y-49850D02*
X59850Y-49850D01*
X65850Y-49850D02*
X65850Y-47150D01*
X65850Y-47150D02*
X62650Y-47150D01*
X62650Y-47150D02*
X62650Y-49850D01*
X62650Y-49850D02*
X65850Y-49850D01*
X71850Y-49850D02*
X71850Y-47150D01*
X71850Y-47150D02*
X68650Y-47150D01*
X68650Y-47150D02*
X68650Y-49850D01*
X68650Y-49850D02*
X71850Y-49850D01*
X77850Y-49850D02*
X77850Y-47150D01*
X77850Y-47150D02*
X74650Y-47150D01*
X74650Y-47150D02*
X74650Y-49850D01*
X74650Y-49850D02*
X77850Y-49850D01*
G54D13*
X56500Y-22000D02*
X56500Y-21000D01*
X51500Y-21000D02*
X51500Y-22000D01*
X56500Y-22000D02*
X51500Y-22000D01*
X51500Y-21000D02*
X56500Y-21000D01*
G54D12*
X78200Y-19650D02*
X74800Y-19650D01*
X78200Y-19950D02*
X78200Y-19650D01*
X74800Y-19650D02*
X74800Y-19950D01*
X78200Y-21150D02*
X74800Y-21150D01*
X78200Y-24950D02*
X74800Y-24950D01*
X74800Y-19950D02*
X74800Y-24950D01*
X78200Y-19950D02*
X78200Y-24950D01*
G54D13*
X33100Y-44900D02*
X33100Y-42100D01*
X33100Y-42100D02*
X33900Y-42100D01*
X33900Y-42100D02*
X33900Y-44900D01*
X33900Y-44900D02*
X33100Y-44900D01*
X33300Y-44900D02*
X33100Y-44700D01*
X39100Y-44900D02*
X39100Y-42100D01*
X39100Y-42100D02*
X39900Y-42100D01*
X39900Y-42100D02*
X39900Y-44900D01*
X39900Y-44900D02*
X39100Y-44900D01*
X39300Y-44900D02*
X39100Y-44700D01*
X45100Y-44900D02*
X45100Y-42100D01*
X45100Y-42100D02*
X45900Y-42100D01*
X45900Y-42100D02*
X45900Y-44900D01*
X45900Y-44900D02*
X45100Y-44900D01*
X45300Y-44900D02*
X45100Y-44700D01*
X51100Y-44900D02*
X51100Y-42100D01*
X51100Y-42100D02*
X51900Y-42100D01*
X51900Y-42100D02*
X51900Y-44900D01*
X51900Y-44900D02*
X51100Y-44900D01*
X51300Y-44900D02*
X51100Y-44700D01*
X57100Y-44900D02*
X57100Y-42100D01*
X57100Y-42100D02*
X57900Y-42100D01*
X57900Y-42100D02*
X57900Y-44900D01*
X57900Y-44900D02*
X57100Y-44900D01*
X57300Y-44900D02*
X57100Y-44700D01*
X63100Y-44900D02*
X63100Y-42100D01*
X63100Y-42100D02*
X63900Y-42100D01*
X63900Y-42100D02*
X63900Y-44900D01*
X63900Y-44900D02*
X63100Y-44900D01*
X63300Y-44900D02*
X63100Y-44700D01*
X69100Y-44900D02*
X69100Y-42100D01*
X69100Y-42100D02*
X69900Y-42100D01*
X69900Y-42100D02*
X69900Y-44900D01*
X69900Y-44900D02*
X69100Y-44900D01*
X69300Y-44900D02*
X69100Y-44700D01*
X75100Y-44900D02*
X75100Y-42100D01*
X75100Y-42100D02*
X75900Y-42100D01*
X75900Y-42100D02*
X75900Y-44900D01*
X75900Y-44900D02*
X75100Y-44900D01*
X75300Y-44900D02*
X75100Y-44700D01*
X35250Y-42000D02*
X35250Y-42200D01*
X35250Y-45000D02*
X35250Y-44800D01*
X35250Y-44800D02*
X35650Y-44800D01*
X35650Y-44800D02*
X35650Y-42200D01*
X35650Y-42200D02*
X34850Y-42200D01*
X34850Y-42200D02*
X34850Y-44800D01*
X34850Y-44800D02*
X35250Y-44800D01*
X35450Y-42200D02*
X35650Y-42400D01*
X41250Y-42000D02*
X41250Y-42200D01*
X41250Y-45000D02*
X41250Y-44800D01*
X41250Y-44800D02*
X41650Y-44800D01*
X41650Y-44800D02*
X41650Y-42200D01*
X41650Y-42200D02*
X40850Y-42200D01*
X40850Y-42200D02*
X40850Y-44800D01*
X40850Y-44800D02*
X41250Y-44800D01*
X41450Y-42200D02*
X41650Y-42400D01*
X47250Y-42000D02*
X47250Y-42200D01*
X47250Y-45000D02*
X47250Y-44800D01*
X47250Y-44800D02*
X47650Y-44800D01*
X47650Y-44800D02*
X47650Y-42200D01*
X47650Y-42200D02*
X46850Y-42200D01*
X46850Y-42200D02*
X46850Y-44800D01*
X46850Y-44800D02*
X47250Y-44800D01*
X47450Y-42200D02*
X47650Y-42400D01*
X53250Y-42000D02*
X53250Y-42200D01*
X53250Y-45000D02*
X53250Y-44800D01*
X53250Y-44800D02*
X53650Y-44800D01*
X53650Y-44800D02*
X53650Y-42200D01*
X53650Y-42200D02*
X52850Y-42200D01*
X52850Y-42200D02*
X52850Y-44800D01*
X52850Y-44800D02*
X53250Y-44800D01*
X53450Y-42200D02*
X53650Y-42400D01*
X59250Y-42000D02*
X59250Y-42200D01*
X59250Y-45000D02*
X59250Y-44800D01*
X59250Y-44800D02*
X59650Y-44800D01*
X59650Y-44800D02*
X59650Y-42200D01*
X59650Y-42200D02*
X58850Y-42200D01*
X58850Y-42200D02*
X58850Y-44800D01*
X58850Y-44800D02*
X59250Y-44800D01*
X59450Y-42200D02*
X59650Y-42400D01*
X65250Y-42000D02*
X65250Y-42200D01*
X65250Y-45000D02*
X65250Y-44800D01*
X65250Y-44800D02*
X65650Y-44800D01*
X65650Y-44800D02*
X65650Y-42200D01*
X65650Y-42200D02*
X64850Y-42200D01*
X64850Y-42200D02*
X64850Y-44800D01*
X64850Y-44800D02*
X65250Y-44800D01*
X65450Y-42200D02*
X65650Y-42400D01*
X71250Y-42000D02*
X71250Y-42200D01*
X71250Y-45000D02*
X71250Y-44800D01*
X71250Y-44800D02*
X71650Y-44800D01*
X71650Y-44800D02*
X71650Y-42200D01*
X71650Y-42200D02*
X70850Y-42200D01*
X70850Y-42200D02*
X70850Y-44800D01*
X70850Y-44800D02*
X71250Y-44800D01*
X71450Y-42200D02*
X71650Y-42400D01*
X77250Y-42000D02*
X77250Y-42200D01*
X77250Y-45000D02*
X77250Y-44800D01*
X77250Y-44800D02*
X77650Y-44800D01*
X77650Y-44800D02*
X77650Y-42200D01*
X77650Y-42200D02*
X76850Y-42200D01*
X76850Y-42200D02*
X76850Y-44800D01*
X76850Y-44800D02*
X77250Y-44800D01*
X77450Y-42200D02*
X77650Y-42400D01*
X43000Y-45000D02*
X43000Y-44700D01*
X43000Y-44700D02*
X43400Y-44700D01*
X43400Y-44700D02*
X43400Y-42300D01*
X43400Y-42300D02*
X43000Y-42300D01*
X43000Y-42300D02*
X43000Y-42000D01*
X43000Y-42300D02*
X42600Y-42300D01*
X42600Y-42300D02*
X42600Y-44700D01*
X42600Y-44700D02*
X43000Y-44700D01*
X49000Y-45000D02*
X49000Y-44700D01*
X49000Y-44700D02*
X49400Y-44700D01*
X49400Y-44700D02*
X49400Y-42300D01*
X49400Y-42300D02*
X49000Y-42300D01*
X49000Y-42300D02*
X49000Y-42000D01*
X49000Y-42300D02*
X48600Y-42300D01*
X48600Y-42300D02*
X48600Y-44700D01*
X48600Y-44700D02*
X49000Y-44700D01*
X55000Y-45000D02*
X55000Y-44700D01*
X55000Y-44700D02*
X55400Y-44700D01*
X55400Y-44700D02*
X55400Y-42300D01*
X55400Y-42300D02*
X55000Y-42300D01*
X55000Y-42300D02*
X55000Y-42000D01*
X55000Y-42300D02*
X54600Y-42300D01*
X54600Y-42300D02*
X54600Y-44700D01*
X54600Y-44700D02*
X55000Y-44700D01*
X61000Y-45000D02*
X61000Y-44700D01*
X61000Y-44700D02*
X61400Y-44700D01*
X61400Y-44700D02*
X61400Y-42300D01*
X61400Y-42300D02*
X61000Y-42300D01*
X61000Y-42300D02*
X61000Y-42000D01*
X61000Y-42300D02*
X60600Y-42300D01*
X60600Y-42300D02*
X60600Y-44700D01*
X60600Y-44700D02*
X61000Y-44700D01*
X67000Y-45000D02*
X67000Y-44700D01*
X67000Y-44700D02*
X67400Y-44700D01*
X67400Y-44700D02*
X67400Y-42300D01*
X67400Y-42300D02*
X67000Y-42300D01*
X67000Y-42300D02*
X67000Y-42000D01*
X67000Y-42300D02*
X66600Y-42300D01*
X66600Y-42300D02*
X66600Y-44700D01*
X66600Y-44700D02*
X67000Y-44700D01*
X73000Y-45000D02*
X73000Y-44700D01*
X73000Y-44700D02*
X73400Y-44700D01*
X73400Y-44700D02*
X73400Y-42300D01*
X73400Y-42300D02*
X73000Y-42300D01*
X73000Y-42300D02*
X73000Y-42000D01*
X73000Y-42300D02*
X72600Y-42300D01*
X72600Y-42300D02*
X72600Y-44700D01*
X72600Y-44700D02*
X73000Y-44700D01*
X79000Y-45000D02*
X79000Y-44700D01*
X79000Y-44700D02*
X79400Y-44700D01*
X79400Y-44700D02*
X79400Y-42300D01*
X79400Y-42300D02*
X79000Y-42300D01*
X79000Y-42300D02*
X79000Y-42000D01*
X79000Y-42300D02*
X78600Y-42300D01*
X78600Y-42300D02*
X78600Y-44700D01*
X78600Y-44700D02*
X79000Y-44700D01*
X37000Y-45000D02*
X37000Y-44700D01*
X37000Y-44700D02*
X37400Y-44700D01*
X37400Y-44700D02*
X37400Y-42300D01*
X37400Y-42300D02*
X37000Y-42300D01*
X37000Y-42300D02*
X37000Y-42000D01*
X37000Y-42300D02*
X36600Y-42300D01*
X36600Y-42300D02*
X36600Y-44700D01*
X36600Y-44700D02*
X37000Y-44700D01*
G54D15*
X48530Y-48000D02*
X48530Y-49000D01*
G54D14*
X49610Y-48884D02*
G75*
G03X49750Y-48500I-460J384D01*
G74*
G01*
X49749Y-48499D02*
G75*
G03X49598Y-48102I-599J0D01*
G74*
G01*
X48550Y-48500D02*
G75*
G03X48695Y-48890I599J0D01*
G74*
G01*
X48689Y-48115D02*
G75*
G03X48550Y-48500I460J-384D01*
G74*
G01*
X48662Y-48849D02*
G75*
G03X49150Y-49100I487J349D01*
G74*
G01*
X49150Y-49100D02*
G75*
G03X49630Y-48860I0J600D01*
G74*
G01*
X49149Y-47900D02*
G75*
G03X48677Y-48132I0J-599D01*
G74*
G01*
X49623Y-48131D02*
G75*
G03X49150Y-47900I-473J-368D01*
G74*
G01*
X49150Y-48750D02*
G75*
G03X49400Y-48500I0J250D01*
G74*
G01*
X49150Y-48900D02*
G75*
G03X49550Y-48500I0J400D01*
G74*
G01*
X49150Y-48250D02*
G75*
G03X48900Y-48500I0J-250D01*
G74*
G01*
X49150Y-48100D02*
G75*
G03X48750Y-48500I0J-400D01*
G74*
G01*
G54D15*
X48536Y-49013D02*
G75*
G03X49150Y-49300I613J513D01*
G74*
G01*
X49150Y-49299D02*
G75*
G03X49855Y-48876I0J799D01*
G74*
G01*
X49148Y-47701D02*
G75*
G03X48540Y-47984I1J-798D01*
G74*
G01*
X49844Y-48102D02*
G75*
G03X49150Y-47700I-694J-397D01*
G74*
G01*
X49854Y-48879D02*
G75*
G03X49950Y-48500I-704J379D01*
G74*
G01*
X49949Y-48499D02*
G75*
G03X49831Y-48081I-799J0D01*
G74*
G01*
X54530Y-48000D02*
X54530Y-49000D01*
G54D14*
X55610Y-48884D02*
G75*
G03X55750Y-48500I-460J384D01*
G74*
G01*
X55749Y-48499D02*
G75*
G03X55598Y-48102I-599J0D01*
G74*
G01*
X54550Y-48500D02*
G75*
G03X54695Y-48890I599J0D01*
G74*
G01*
X54689Y-48115D02*
G75*
G03X54550Y-48500I460J-384D01*
G74*
G01*
X54662Y-48849D02*
G75*
G03X55150Y-49100I487J349D01*
G74*
G01*
X55150Y-49100D02*
G75*
G03X55630Y-48860I0J600D01*
G74*
G01*
X55149Y-47900D02*
G75*
G03X54677Y-48132I0J-599D01*
G74*
G01*
X55623Y-48131D02*
G75*
G03X55150Y-47900I-473J-368D01*
G74*
G01*
X55150Y-48750D02*
G75*
G03X55400Y-48500I0J250D01*
G74*
G01*
X55150Y-48900D02*
G75*
G03X55550Y-48500I0J400D01*
G74*
G01*
X55150Y-48250D02*
G75*
G03X54900Y-48500I0J-250D01*
G74*
G01*
X55150Y-48100D02*
G75*
G03X54750Y-48500I0J-400D01*
G74*
G01*
G54D15*
X54536Y-49013D02*
G75*
G03X55150Y-49300I613J513D01*
G74*
G01*
X55150Y-49299D02*
G75*
G03X55855Y-48876I0J799D01*
G74*
G01*
X55148Y-47701D02*
G75*
G03X54540Y-47984I1J-798D01*
G74*
G01*
X55844Y-48102D02*
G75*
G03X55150Y-47700I-694J-397D01*
G74*
G01*
X55854Y-48879D02*
G75*
G03X55950Y-48500I-704J379D01*
G74*
G01*
X55949Y-48499D02*
G75*
G03X55831Y-48081I-799J0D01*
G74*
G01*
X36530Y-48000D02*
X36530Y-49000D01*
G54D14*
X37610Y-48884D02*
G75*
G03X37750Y-48500I-460J384D01*
G74*
G01*
X37749Y-48499D02*
G75*
G03X37598Y-48102I-599J0D01*
G74*
G01*
X36550Y-48500D02*
G75*
G03X36695Y-48890I599J0D01*
G74*
G01*
X36689Y-48115D02*
G75*
G03X36550Y-48500I460J-384D01*
G74*
G01*
X36662Y-48849D02*
G75*
G03X37150Y-49100I487J349D01*
G74*
G01*
X37150Y-49100D02*
G75*
G03X37630Y-48860I0J600D01*
G74*
G01*
X37149Y-47900D02*
G75*
G03X36677Y-48132I0J-599D01*
G74*
G01*
X37623Y-48131D02*
G75*
G03X37150Y-47900I-473J-368D01*
G74*
G01*
X37150Y-48750D02*
G75*
G03X37400Y-48500I0J250D01*
G74*
G01*
X37150Y-48900D02*
G75*
G03X37550Y-48500I0J400D01*
G74*
G01*
X37150Y-48250D02*
G75*
G03X36900Y-48500I0J-250D01*
G74*
G01*
X37150Y-48100D02*
G75*
G03X36750Y-48500I0J-400D01*
G74*
G01*
G54D15*
X36536Y-49013D02*
G75*
G03X37150Y-49300I613J513D01*
G74*
G01*
X37150Y-49299D02*
G75*
G03X37855Y-48876I0J799D01*
G74*
G01*
X37148Y-47701D02*
G75*
G03X36540Y-47984I1J-798D01*
G74*
G01*
X37844Y-48102D02*
G75*
G03X37150Y-47700I-694J-397D01*
G74*
G01*
X37854Y-48879D02*
G75*
G03X37950Y-48500I-704J379D01*
G74*
G01*
X37949Y-48499D02*
G75*
G03X37831Y-48081I-799J0D01*
G74*
G01*
X42530Y-48000D02*
X42530Y-49000D01*
G54D14*
X43610Y-48884D02*
G75*
G03X43750Y-48500I-460J384D01*
G74*
G01*
X43749Y-48499D02*
G75*
G03X43598Y-48102I-599J0D01*
G74*
G01*
X42550Y-48500D02*
G75*
G03X42695Y-48890I599J0D01*
G74*
G01*
X42689Y-48115D02*
G75*
G03X42550Y-48500I460J-384D01*
G74*
G01*
X42662Y-48849D02*
G75*
G03X43150Y-49100I487J349D01*
G74*
G01*
X43150Y-49100D02*
G75*
G03X43630Y-48860I0J600D01*
G74*
G01*
X43149Y-47900D02*
G75*
G03X42677Y-48132I0J-599D01*
G74*
G01*
X43623Y-48131D02*
G75*
G03X43150Y-47900I-473J-368D01*
G74*
G01*
X43150Y-48750D02*
G75*
G03X43400Y-48500I0J250D01*
G74*
G01*
X43150Y-48900D02*
G75*
G03X43550Y-48500I0J400D01*
G74*
G01*
X43150Y-48250D02*
G75*
G03X42900Y-48500I0J-250D01*
G74*
G01*
X43150Y-48100D02*
G75*
G03X42750Y-48500I0J-400D01*
G74*
G01*
G54D15*
X42536Y-49013D02*
G75*
G03X43150Y-49300I613J513D01*
G74*
G01*
X43150Y-49299D02*
G75*
G03X43855Y-48876I0J799D01*
G74*
G01*
X43148Y-47701D02*
G75*
G03X42540Y-47984I1J-798D01*
G74*
G01*
X43844Y-48102D02*
G75*
G03X43150Y-47700I-694J-397D01*
G74*
G01*
X43854Y-48879D02*
G75*
G03X43950Y-48500I-704J379D01*
G74*
G01*
X43949Y-48499D02*
G75*
G03X43831Y-48081I-799J0D01*
G74*
G01*
X60530Y-48000D02*
X60530Y-49000D01*
G54D14*
X61610Y-48884D02*
G75*
G03X61750Y-48500I-460J384D01*
G74*
G01*
X61749Y-48499D02*
G75*
G03X61598Y-48102I-599J0D01*
G74*
G01*
X60550Y-48500D02*
G75*
G03X60695Y-48890I599J0D01*
G74*
G01*
X60689Y-48115D02*
G75*
G03X60550Y-48500I460J-384D01*
G74*
G01*
X60662Y-48849D02*
G75*
G03X61150Y-49100I487J349D01*
G74*
G01*
X61150Y-49100D02*
G75*
G03X61630Y-48860I0J600D01*
G74*
G01*
X61149Y-47900D02*
G75*
G03X60677Y-48132I0J-599D01*
G74*
G01*
X61623Y-48131D02*
G75*
G03X61150Y-47900I-473J-368D01*
G74*
G01*
X61150Y-48750D02*
G75*
G03X61400Y-48500I0J250D01*
G74*
G01*
X61150Y-48900D02*
G75*
G03X61550Y-48500I0J400D01*
G74*
G01*
X61150Y-48250D02*
G75*
G03X60900Y-48500I0J-250D01*
G74*
G01*
X61150Y-48100D02*
G75*
G03X60750Y-48500I0J-400D01*
G74*
G01*
G54D15*
X60536Y-49013D02*
G75*
G03X61150Y-49300I613J513D01*
G74*
G01*
X61150Y-49299D02*
G75*
G03X61855Y-48876I0J799D01*
G74*
G01*
X61148Y-47701D02*
G75*
G03X60540Y-47984I1J-798D01*
G74*
G01*
X61844Y-48102D02*
G75*
G03X61150Y-47700I-694J-397D01*
G74*
G01*
X61854Y-48879D02*
G75*
G03X61950Y-48500I-704J379D01*
G74*
G01*
X61949Y-48499D02*
G75*
G03X61831Y-48081I-799J0D01*
G74*
G01*
X72530Y-48000D02*
X72530Y-49000D01*
G54D14*
X73610Y-48884D02*
G75*
G03X73750Y-48500I-460J384D01*
G74*
G01*
X73749Y-48499D02*
G75*
G03X73598Y-48102I-599J0D01*
G74*
G01*
X72550Y-48500D02*
G75*
G03X72695Y-48890I599J0D01*
G74*
G01*
X72689Y-48115D02*
G75*
G03X72550Y-48500I460J-384D01*
G74*
G01*
X72662Y-48849D02*
G75*
G03X73150Y-49100I487J349D01*
G74*
G01*
X73150Y-49100D02*
G75*
G03X73630Y-48860I0J600D01*
G74*
G01*
X73149Y-47900D02*
G75*
G03X72677Y-48132I0J-599D01*
G74*
G01*
X73623Y-48131D02*
G75*
G03X73150Y-47900I-473J-368D01*
G74*
G01*
X73150Y-48750D02*
G75*
G03X73400Y-48500I0J250D01*
G74*
G01*
X73150Y-48900D02*
G75*
G03X73550Y-48500I0J400D01*
G74*
G01*
X73150Y-48250D02*
G75*
G03X72900Y-48500I0J-250D01*
G74*
G01*
X73150Y-48100D02*
G75*
G03X72750Y-48500I0J-400D01*
G74*
G01*
G54D15*
X72536Y-49013D02*
G75*
G03X73150Y-49300I613J513D01*
G74*
G01*
X73150Y-49299D02*
G75*
G03X73855Y-48876I0J799D01*
G74*
G01*
X73148Y-47701D02*
G75*
G03X72540Y-47984I1J-798D01*
G74*
G01*
X73844Y-48102D02*
G75*
G03X73150Y-47700I-694J-397D01*
G74*
G01*
X73854Y-48879D02*
G75*
G03X73950Y-48500I-704J379D01*
G74*
G01*
X73949Y-48499D02*
G75*
G03X73831Y-48081I-799J0D01*
G74*
G01*
X66530Y-48000D02*
X66530Y-49000D01*
G54D14*
X67610Y-48884D02*
G75*
G03X67750Y-48500I-460J384D01*
G74*
G01*
X67749Y-48499D02*
G75*
G03X67598Y-48102I-599J0D01*
G74*
G01*
X66550Y-48500D02*
G75*
G03X66695Y-48890I599J0D01*
G74*
G01*
X66689Y-48115D02*
G75*
G03X66550Y-48500I460J-384D01*
G74*
G01*
X66662Y-48849D02*
G75*
G03X67150Y-49100I487J349D01*
G74*
G01*
X67150Y-49100D02*
G75*
G03X67630Y-48860I0J600D01*
G74*
G01*
X67149Y-47900D02*
G75*
G03X66677Y-48132I0J-599D01*
G74*
G01*
X67623Y-48131D02*
G75*
G03X67150Y-47900I-473J-368D01*
G74*
G01*
X67150Y-48750D02*
G75*
G03X67400Y-48500I0J250D01*
G74*
G01*
X67150Y-48900D02*
G75*
G03X67550Y-48500I0J400D01*
G74*
G01*
X67150Y-48250D02*
G75*
G03X66900Y-48500I0J-250D01*
G74*
G01*
X67150Y-48100D02*
G75*
G03X66750Y-48500I0J-400D01*
G74*
G01*
G54D15*
X66536Y-49013D02*
G75*
G03X67150Y-49300I613J513D01*
G74*
G01*
X67150Y-49299D02*
G75*
G03X67855Y-48876I0J799D01*
G74*
G01*
X67148Y-47701D02*
G75*
G03X66540Y-47984I1J-798D01*
G74*
G01*
X67844Y-48102D02*
G75*
G03X67150Y-47700I-694J-397D01*
G74*
G01*
X67854Y-48879D02*
G75*
G03X67950Y-48500I-704J379D01*
G74*
G01*
X67949Y-48499D02*
G75*
G03X67831Y-48081I-799J0D01*
G74*
G01*
X78530Y-48000D02*
X78530Y-49000D01*
G54D14*
X79610Y-48884D02*
G75*
G03X79750Y-48500I-460J384D01*
G74*
G01*
X79749Y-48499D02*
G75*
G03X79598Y-48102I-599J0D01*
G74*
G01*
X78550Y-48500D02*
G75*
G03X78695Y-48890I599J0D01*
G74*
G01*
X78689Y-48115D02*
G75*
G03X78550Y-48500I460J-384D01*
G74*
G01*
X78662Y-48849D02*
G75*
G03X79150Y-49100I487J349D01*
G74*
G01*
X79150Y-49100D02*
G75*
G03X79630Y-48860I0J600D01*
G74*
G01*
X79149Y-47900D02*
G75*
G03X78677Y-48132I0J-599D01*
G74*
G01*
X79623Y-48131D02*
G75*
G03X79150Y-47900I-473J-368D01*
G74*
G01*
X79150Y-48750D02*
G75*
G03X79400Y-48500I0J250D01*
G74*
G01*
X79150Y-48900D02*
G75*
G03X79550Y-48500I0J400D01*
G74*
G01*
X79150Y-48250D02*
G75*
G03X78900Y-48500I0J-250D01*
G74*
G01*
X79150Y-48100D02*
G75*
G03X78750Y-48500I0J-400D01*
G74*
G01*
G54D15*
X78536Y-49013D02*
G75*
G03X79150Y-49300I613J513D01*
G74*
G01*
X79150Y-49299D02*
G75*
G03X79855Y-48876I0J799D01*
G74*
G01*
X79148Y-47701D02*
G75*
G03X78540Y-47984I1J-798D01*
G74*
G01*
X79844Y-48102D02*
G75*
G03X79150Y-47700I-694J-397D01*
G74*
G01*
X79854Y-48879D02*
G75*
G03X79950Y-48500I-704J379D01*
G74*
G01*
X79949Y-48499D02*
G75*
G03X79831Y-48081I-799J0D01*
G74*
G01*
G54D11*
X44280Y-29554D02*
X44604Y-29554D01*
X44642Y-29535D01*
X44661Y-29516D01*
X44680Y-29478D01*
X44680Y-29402D01*
X44661Y-29364D01*
X44642Y-29345D01*
X44604Y-29326D01*
X44280Y-29326D01*
X44680Y-28926D02*
X44680Y-29154D01*
X44680Y-29040D02*
X44280Y-29040D01*
X44338Y-29078D01*
X44376Y-29116D01*
X44395Y-29154D01*
X44566Y-27921D02*
X44566Y-27730D01*
X44680Y-27959D02*
X44280Y-27826D01*
X44680Y-27692D01*
X44680Y-27330D02*
X44490Y-27464D01*
X44680Y-27559D02*
X44280Y-27559D01*
X44280Y-27407D01*
X44300Y-27369D01*
X44319Y-27350D01*
X44357Y-27330D01*
X44414Y-27330D01*
X44452Y-27350D01*
X44471Y-27369D01*
X44490Y-27407D01*
X44490Y-27559D01*
X44680Y-27159D02*
X44280Y-27159D01*
X44280Y-27064D01*
X44300Y-27007D01*
X44338Y-26969D01*
X44376Y-26950D01*
X44452Y-26930D01*
X44509Y-26930D01*
X44585Y-26950D01*
X44623Y-26969D01*
X44661Y-27007D01*
X44680Y-27064D01*
X44680Y-27159D01*
X44280Y-26759D02*
X44604Y-26759D01*
X44642Y-26740D01*
X44661Y-26721D01*
X44680Y-26683D01*
X44680Y-26607D01*
X44661Y-26569D01*
X44642Y-26550D01*
X44604Y-26530D01*
X44280Y-26530D01*
X44680Y-26340D02*
X44280Y-26340D01*
X44680Y-26149D02*
X44280Y-26149D01*
X44680Y-25921D01*
X44280Y-25921D01*
X44280Y-25654D02*
X44280Y-25578D01*
X44300Y-25540D01*
X44338Y-25502D01*
X44414Y-25483D01*
X44547Y-25483D01*
X44623Y-25502D01*
X44661Y-25540D01*
X44680Y-25578D01*
X44680Y-25654D01*
X44661Y-25692D01*
X44623Y-25730D01*
X44547Y-25749D01*
X44414Y-25749D01*
X44338Y-25730D01*
X44300Y-25692D01*
X44280Y-25654D01*
X44719Y-25407D02*
X44719Y-25102D01*
X44680Y-25007D02*
X44280Y-25007D01*
X44680Y-24778D01*
X44280Y-24778D01*
X44566Y-24607D02*
X44566Y-24416D01*
X44680Y-24645D02*
X44280Y-24511D01*
X44680Y-24378D01*
X44680Y-24245D02*
X44280Y-24245D01*
X44680Y-24016D01*
X44280Y-24016D01*
X44280Y-23749D02*
X44280Y-23673D01*
X44300Y-23635D01*
X44338Y-23597D01*
X44414Y-23578D01*
X44547Y-23578D01*
X44623Y-23597D01*
X44661Y-23635D01*
X44680Y-23673D01*
X44680Y-23749D01*
X44661Y-23788D01*
X44623Y-23826D01*
X44547Y-23845D01*
X44414Y-23845D01*
X44338Y-23826D01*
X44300Y-23788D01*
X44280Y-23749D01*
X36433Y-33892D02*
X36414Y-33911D01*
X36357Y-33930D01*
X36319Y-33930D01*
X36261Y-33911D01*
X36223Y-33873D01*
X36204Y-33835D01*
X36185Y-33759D01*
X36185Y-33702D01*
X36204Y-33626D01*
X36223Y-33588D01*
X36261Y-33550D01*
X36319Y-33530D01*
X36357Y-33530D01*
X36414Y-33550D01*
X36433Y-33569D01*
X36814Y-33930D02*
X36585Y-33930D01*
X36700Y-33930D02*
X36700Y-33530D01*
X36661Y-33588D01*
X36623Y-33626D01*
X36585Y-33645D01*
X50983Y-28680D02*
X50850Y-28490D01*
X50754Y-28680D02*
X50754Y-28280D01*
X50907Y-28280D01*
X50945Y-28300D01*
X50964Y-28319D01*
X50983Y-28357D01*
X50983Y-28414D01*
X50964Y-28452D01*
X50945Y-28471D01*
X50907Y-28490D01*
X50754Y-28490D01*
X51154Y-28680D02*
X51154Y-28280D01*
X51307Y-28280D01*
X51345Y-28300D01*
X51364Y-28319D01*
X51383Y-28357D01*
X51383Y-28414D01*
X51364Y-28452D01*
X51345Y-28471D01*
X51307Y-28490D01*
X51154Y-28490D01*
X51535Y-28319D02*
X51554Y-28300D01*
X51592Y-28280D01*
X51688Y-28280D01*
X51726Y-28300D01*
X51745Y-28319D01*
X51764Y-28357D01*
X51764Y-28395D01*
X51745Y-28452D01*
X51516Y-28680D01*
X51764Y-28680D01*
X63043Y-28755D02*
X62910Y-28565D01*
X62814Y-28755D02*
X62814Y-28355D01*
X62967Y-28355D01*
X63005Y-28375D01*
X63024Y-28394D01*
X63043Y-28432D01*
X63043Y-28489D01*
X63024Y-28527D01*
X63005Y-28546D01*
X62967Y-28565D01*
X62814Y-28565D01*
X63214Y-28755D02*
X63214Y-28355D01*
X63367Y-28355D01*
X63405Y-28375D01*
X63424Y-28394D01*
X63443Y-28432D01*
X63443Y-28489D01*
X63424Y-28527D01*
X63405Y-28546D01*
X63367Y-28565D01*
X63214Y-28565D01*
X63824Y-28755D02*
X63595Y-28755D01*
X63710Y-28755D02*
X63710Y-28355D01*
X63671Y-28413D01*
X63633Y-28451D01*
X63595Y-28470D01*
X32454Y-33930D02*
X32454Y-33530D01*
X32607Y-33530D01*
X32645Y-33550D01*
X32664Y-33569D01*
X32683Y-33607D01*
X32683Y-33664D01*
X32664Y-33702D01*
X32645Y-33721D01*
X32607Y-33740D01*
X32454Y-33740D01*
X33026Y-33664D02*
X33026Y-33930D01*
X32930Y-33511D02*
X32835Y-33797D01*
X33083Y-33797D01*
G54D14*
X63204Y-21680D02*
X63204Y-21280D01*
X63433Y-21680D02*
X63261Y-21452D01*
X63433Y-21280D02*
X63204Y-21509D01*
X63814Y-21680D02*
X63585Y-21680D01*
X63700Y-21680D02*
X63700Y-21280D01*
X63661Y-21338D01*
X63623Y-21376D01*
X63585Y-21395D01*
G54D11*
X57454Y-21680D02*
X57454Y-21280D01*
X57607Y-21280D01*
X57645Y-21300D01*
X57664Y-21319D01*
X57683Y-21357D01*
X57683Y-21414D01*
X57664Y-21452D01*
X57645Y-21471D01*
X57607Y-21490D01*
X57454Y-21490D01*
X57816Y-21280D02*
X58064Y-21280D01*
X57930Y-21433D01*
X57988Y-21433D01*
X58026Y-21452D01*
X58045Y-21471D01*
X58064Y-21509D01*
X58064Y-21604D01*
X58045Y-21642D01*
X58026Y-21661D01*
X57988Y-21680D01*
X57873Y-21680D01*
X57835Y-21661D01*
X57816Y-21642D01*
X34388Y-31780D02*
X34255Y-31590D01*
X34159Y-31780D02*
X34159Y-31380D01*
X34312Y-31380D01*
X34350Y-31400D01*
X34369Y-31419D01*
X34388Y-31457D01*
X34388Y-31514D01*
X34369Y-31552D01*
X34350Y-31571D01*
X34312Y-31590D01*
X34159Y-31590D01*
X34769Y-31780D02*
X34540Y-31780D01*
X34655Y-31780D02*
X34655Y-31380D01*
X34616Y-31438D01*
X34578Y-31476D01*
X34540Y-31495D01*
X32430Y-28295D02*
X32030Y-28295D01*
X32030Y-28142D01*
X32050Y-28104D01*
X32069Y-28085D01*
X32107Y-28066D01*
X32164Y-28066D01*
X32202Y-28085D01*
X32221Y-28104D01*
X32240Y-28142D01*
X32240Y-28295D01*
X32069Y-27914D02*
X32050Y-27895D01*
X32030Y-27857D01*
X32030Y-27761D01*
X32050Y-27723D01*
X32069Y-27704D01*
X32107Y-27685D01*
X32145Y-27685D01*
X32202Y-27704D01*
X32430Y-27933D01*
X32430Y-27685D01*
G54D15*
X32994Y-26714D02*
X32975Y-26695D01*
X32955Y-26657D01*
X32955Y-26561D01*
X32975Y-26523D01*
X32994Y-26504D01*
X33032Y-26485D01*
X33070Y-26485D01*
X33127Y-26504D01*
X33355Y-26733D01*
X33355Y-26485D01*
X33355Y-22676D02*
X33355Y-22904D01*
X33355Y-22790D02*
X32955Y-22790D01*
X33013Y-22828D01*
X33051Y-22866D01*
X33070Y-22904D01*
X32955Y-22428D02*
X32955Y-22390D01*
X32975Y-22352D01*
X32994Y-22333D01*
X33032Y-22314D01*
X33108Y-22295D01*
X33203Y-22295D01*
X33279Y-22314D01*
X33317Y-22333D01*
X33336Y-22352D01*
X33355Y-22390D01*
X33355Y-22428D01*
X33336Y-22466D01*
X33317Y-22485D01*
X33279Y-22504D01*
X33203Y-22523D01*
X33108Y-22523D01*
X33032Y-22504D01*
X32994Y-22485D01*
X32975Y-22466D01*
X32955Y-22428D01*
X36055Y-22676D02*
X36055Y-22599D01*
X36036Y-22561D01*
X36017Y-22542D01*
X35960Y-22504D01*
X35884Y-22485D01*
X35732Y-22485D01*
X35694Y-22504D01*
X35675Y-22523D01*
X35655Y-22561D01*
X35655Y-22638D01*
X35675Y-22676D01*
X35694Y-22695D01*
X35732Y-22714D01*
X35827Y-22714D01*
X35865Y-22695D01*
X35884Y-22676D01*
X35903Y-22638D01*
X35903Y-22561D01*
X35884Y-22523D01*
X35865Y-22504D01*
X35827Y-22485D01*
G54D11*
X32780Y-38804D02*
X33104Y-38804D01*
X33142Y-38785D01*
X33161Y-38766D01*
X33180Y-38728D01*
X33180Y-38652D01*
X33161Y-38614D01*
X33142Y-38595D01*
X33104Y-38576D01*
X32780Y-38576D01*
X33180Y-38366D02*
X33180Y-38290D01*
X33161Y-38252D01*
X33142Y-38233D01*
X33085Y-38195D01*
X33009Y-38176D01*
X32857Y-38176D01*
X32819Y-38195D01*
X32800Y-38214D01*
X32780Y-38252D01*
X32780Y-38328D01*
X32800Y-38366D01*
X32819Y-38385D01*
X32857Y-38404D01*
X32952Y-38404D01*
X32990Y-38385D01*
X33009Y-38366D01*
X33028Y-38328D01*
X33028Y-38252D01*
X33009Y-38214D01*
X32990Y-38195D01*
X32952Y-38176D01*
X38780Y-38804D02*
X39104Y-38804D01*
X39142Y-38785D01*
X39161Y-38766D01*
X39180Y-38728D01*
X39180Y-38652D01*
X39161Y-38614D01*
X39142Y-38595D01*
X39104Y-38576D01*
X38780Y-38576D01*
X38952Y-38328D02*
X38933Y-38366D01*
X38914Y-38385D01*
X38876Y-38404D01*
X38857Y-38404D01*
X38819Y-38385D01*
X38800Y-38366D01*
X38780Y-38328D01*
X38780Y-38252D01*
X38800Y-38214D01*
X38819Y-38195D01*
X38857Y-38176D01*
X38876Y-38176D01*
X38914Y-38195D01*
X38933Y-38214D01*
X38952Y-38252D01*
X38952Y-38328D01*
X38971Y-38366D01*
X38990Y-38385D01*
X39028Y-38404D01*
X39104Y-38404D01*
X39142Y-38385D01*
X39161Y-38366D01*
X39180Y-38328D01*
X39180Y-38252D01*
X39161Y-38214D01*
X39142Y-38195D01*
X39104Y-38176D01*
X39028Y-38176D01*
X38990Y-38195D01*
X38971Y-38214D01*
X38952Y-38252D01*
X44780Y-38804D02*
X45104Y-38804D01*
X45142Y-38785D01*
X45161Y-38766D01*
X45180Y-38728D01*
X45180Y-38652D01*
X45161Y-38614D01*
X45142Y-38595D01*
X45104Y-38576D01*
X44780Y-38576D01*
X44780Y-38423D02*
X44780Y-38157D01*
X45180Y-38328D01*
X50780Y-38804D02*
X51104Y-38804D01*
X51142Y-38785D01*
X51161Y-38766D01*
X51180Y-38728D01*
X51180Y-38652D01*
X51161Y-38614D01*
X51142Y-38595D01*
X51104Y-38576D01*
X50780Y-38576D01*
X50780Y-38214D02*
X50780Y-38290D01*
X50800Y-38328D01*
X50819Y-38347D01*
X50876Y-38385D01*
X50952Y-38404D01*
X51104Y-38404D01*
X51142Y-38385D01*
X51161Y-38366D01*
X51180Y-38328D01*
X51180Y-38252D01*
X51161Y-38214D01*
X51142Y-38195D01*
X51104Y-38176D01*
X51009Y-38176D01*
X50971Y-38195D01*
X50952Y-38214D01*
X50933Y-38252D01*
X50933Y-38328D01*
X50952Y-38366D01*
X50971Y-38385D01*
X51009Y-38404D01*
X56780Y-38804D02*
X57104Y-38804D01*
X57142Y-38785D01*
X57161Y-38766D01*
X57180Y-38728D01*
X57180Y-38652D01*
X57161Y-38614D01*
X57142Y-38595D01*
X57104Y-38576D01*
X56780Y-38576D01*
X56780Y-38195D02*
X56780Y-38385D01*
X56971Y-38404D01*
X56952Y-38385D01*
X56933Y-38347D01*
X56933Y-38252D01*
X56952Y-38214D01*
X56971Y-38195D01*
X57009Y-38176D01*
X57104Y-38176D01*
X57142Y-38195D01*
X57161Y-38214D01*
X57180Y-38252D01*
X57180Y-38347D01*
X57161Y-38385D01*
X57142Y-38404D01*
X62780Y-38804D02*
X63104Y-38804D01*
X63142Y-38785D01*
X63161Y-38766D01*
X63180Y-38728D01*
X63180Y-38652D01*
X63161Y-38614D01*
X63142Y-38595D01*
X63104Y-38576D01*
X62780Y-38576D01*
X62914Y-38214D02*
X63180Y-38214D01*
X62761Y-38309D02*
X63047Y-38404D01*
X63047Y-38157D01*
X68780Y-38804D02*
X69104Y-38804D01*
X69142Y-38785D01*
X69161Y-38766D01*
X69180Y-38728D01*
X69180Y-38652D01*
X69161Y-38614D01*
X69142Y-38595D01*
X69104Y-38576D01*
X68780Y-38576D01*
X68780Y-38423D02*
X68780Y-38176D01*
X68933Y-38309D01*
X68933Y-38252D01*
X68952Y-38214D01*
X68971Y-38195D01*
X69009Y-38176D01*
X69104Y-38176D01*
X69142Y-38195D01*
X69161Y-38214D01*
X69180Y-38252D01*
X69180Y-38366D01*
X69161Y-38404D01*
X69142Y-38423D01*
X74780Y-38804D02*
X75104Y-38804D01*
X75142Y-38785D01*
X75161Y-38766D01*
X75180Y-38728D01*
X75180Y-38652D01*
X75161Y-38614D01*
X75142Y-38595D01*
X75104Y-38576D01*
X74780Y-38576D01*
X74819Y-38404D02*
X74800Y-38385D01*
X74780Y-38347D01*
X74780Y-38252D01*
X74800Y-38214D01*
X74819Y-38195D01*
X74857Y-38176D01*
X74895Y-38176D01*
X74952Y-38195D01*
X75180Y-38423D01*
X75180Y-38176D01*
X35014Y-46930D02*
X35014Y-46530D01*
X35166Y-46530D01*
X35204Y-46550D01*
X35223Y-46569D01*
X35242Y-46607D01*
X35242Y-46664D01*
X35223Y-46702D01*
X35204Y-46721D01*
X35166Y-46740D01*
X35014Y-46740D01*
X35623Y-46930D02*
X35395Y-46930D01*
X35509Y-46930D02*
X35509Y-46530D01*
X35471Y-46588D01*
X35433Y-46626D01*
X35395Y-46645D01*
X35776Y-46569D02*
X35795Y-46550D01*
X35833Y-46530D01*
X35928Y-46530D01*
X35966Y-46550D01*
X35985Y-46569D01*
X36004Y-46607D01*
X36004Y-46645D01*
X35985Y-46702D01*
X35757Y-46930D01*
X36004Y-46930D01*
X41014Y-46930D02*
X41014Y-46530D01*
X41166Y-46530D01*
X41204Y-46550D01*
X41223Y-46569D01*
X41242Y-46607D01*
X41242Y-46664D01*
X41223Y-46702D01*
X41204Y-46721D01*
X41166Y-46740D01*
X41014Y-46740D01*
X41623Y-46930D02*
X41395Y-46930D01*
X41509Y-46930D02*
X41509Y-46530D01*
X41471Y-46588D01*
X41433Y-46626D01*
X41395Y-46645D01*
X42004Y-46930D02*
X41776Y-46930D01*
X41890Y-46930D02*
X41890Y-46530D01*
X41852Y-46588D01*
X41814Y-46626D01*
X41776Y-46645D01*
X46764Y-46930D02*
X46764Y-46530D01*
X46916Y-46530D01*
X46954Y-46550D01*
X46973Y-46569D01*
X46992Y-46607D01*
X46992Y-46664D01*
X46973Y-46702D01*
X46954Y-46721D01*
X46916Y-46740D01*
X46764Y-46740D01*
X47373Y-46930D02*
X47145Y-46930D01*
X47259Y-46930D02*
X47259Y-46530D01*
X47221Y-46588D01*
X47183Y-46626D01*
X47145Y-46645D01*
X47621Y-46530D02*
X47659Y-46530D01*
X47697Y-46550D01*
X47716Y-46569D01*
X47735Y-46607D01*
X47754Y-46683D01*
X47754Y-46778D01*
X47735Y-46854D01*
X47716Y-46892D01*
X47697Y-46911D01*
X47659Y-46930D01*
X47621Y-46930D01*
X47583Y-46911D01*
X47564Y-46892D01*
X47545Y-46854D01*
X47526Y-46778D01*
X47526Y-46683D01*
X47545Y-46607D01*
X47564Y-46569D01*
X47583Y-46550D01*
X47621Y-46530D01*
X53204Y-46930D02*
X53204Y-46530D01*
X53357Y-46530D01*
X53395Y-46550D01*
X53414Y-46569D01*
X53433Y-46607D01*
X53433Y-46664D01*
X53414Y-46702D01*
X53395Y-46721D01*
X53357Y-46740D01*
X53204Y-46740D01*
X53623Y-46930D02*
X53700Y-46930D01*
X53738Y-46911D01*
X53757Y-46892D01*
X53795Y-46835D01*
X53814Y-46759D01*
X53814Y-46607D01*
X53795Y-46569D01*
X53776Y-46550D01*
X53738Y-46530D01*
X53661Y-46530D01*
X53623Y-46550D01*
X53604Y-46569D01*
X53585Y-46607D01*
X53585Y-46702D01*
X53604Y-46740D01*
X53623Y-46759D01*
X53661Y-46778D01*
X53738Y-46778D01*
X53776Y-46759D01*
X53795Y-46740D01*
X53814Y-46702D01*
X59204Y-46930D02*
X59204Y-46530D01*
X59357Y-46530D01*
X59395Y-46550D01*
X59414Y-46569D01*
X59433Y-46607D01*
X59433Y-46664D01*
X59414Y-46702D01*
X59395Y-46721D01*
X59357Y-46740D01*
X59204Y-46740D01*
X59661Y-46702D02*
X59623Y-46683D01*
X59604Y-46664D01*
X59585Y-46626D01*
X59585Y-46607D01*
X59604Y-46569D01*
X59623Y-46550D01*
X59661Y-46530D01*
X59738Y-46530D01*
X59776Y-46550D01*
X59795Y-46569D01*
X59814Y-46607D01*
X59814Y-46626D01*
X59795Y-46664D01*
X59776Y-46683D01*
X59738Y-46702D01*
X59661Y-46702D01*
X59623Y-46721D01*
X59604Y-46740D01*
X59585Y-46778D01*
X59585Y-46854D01*
X59604Y-46892D01*
X59623Y-46911D01*
X59661Y-46930D01*
X59738Y-46930D01*
X59776Y-46911D01*
X59795Y-46892D01*
X59814Y-46854D01*
X59814Y-46778D01*
X59795Y-46740D01*
X59776Y-46721D01*
X59738Y-46702D01*
X65204Y-46930D02*
X65204Y-46530D01*
X65357Y-46530D01*
X65395Y-46550D01*
X65414Y-46569D01*
X65433Y-46607D01*
X65433Y-46664D01*
X65414Y-46702D01*
X65395Y-46721D01*
X65357Y-46740D01*
X65204Y-46740D01*
X65566Y-46530D02*
X65833Y-46530D01*
X65661Y-46930D01*
X71204Y-46930D02*
X71204Y-46530D01*
X71357Y-46530D01*
X71395Y-46550D01*
X71414Y-46569D01*
X71433Y-46607D01*
X71433Y-46664D01*
X71414Y-46702D01*
X71395Y-46721D01*
X71357Y-46740D01*
X71204Y-46740D01*
X71776Y-46530D02*
X71700Y-46530D01*
X71661Y-46550D01*
X71642Y-46569D01*
X71604Y-46626D01*
X71585Y-46702D01*
X71585Y-46854D01*
X71604Y-46892D01*
X71623Y-46911D01*
X71661Y-46930D01*
X71738Y-46930D01*
X71776Y-46911D01*
X71795Y-46892D01*
X71814Y-46854D01*
X71814Y-46759D01*
X71795Y-46721D01*
X71776Y-46702D01*
X71738Y-46683D01*
X71661Y-46683D01*
X71623Y-46702D01*
X71604Y-46721D01*
X71585Y-46759D01*
X77204Y-46930D02*
X77204Y-46530D01*
X77357Y-46530D01*
X77395Y-46550D01*
X77414Y-46569D01*
X77433Y-46607D01*
X77433Y-46664D01*
X77414Y-46702D01*
X77395Y-46721D01*
X77357Y-46740D01*
X77204Y-46740D01*
X77795Y-46530D02*
X77604Y-46530D01*
X77585Y-46721D01*
X77604Y-46702D01*
X77642Y-46683D01*
X77738Y-46683D01*
X77776Y-46702D01*
X77795Y-46721D01*
X77814Y-46759D01*
X77814Y-46854D01*
X77795Y-46892D01*
X77776Y-46911D01*
X77738Y-46930D01*
X77642Y-46930D01*
X77604Y-46911D01*
X77585Y-46892D01*
X50704Y-21680D02*
X50704Y-21280D01*
X50857Y-21280D01*
X50895Y-21300D01*
X50914Y-21319D01*
X50933Y-21357D01*
X50933Y-21414D01*
X50914Y-21452D01*
X50895Y-21471D01*
X50857Y-21490D01*
X50704Y-21490D01*
X51314Y-21680D02*
X51085Y-21680D01*
X51200Y-21680D02*
X51200Y-21280D01*
X51161Y-21338D01*
X51123Y-21376D01*
X51085Y-21395D01*
G54D15*
X78880Y-23145D02*
X78480Y-23145D01*
X78880Y-22916D02*
X78652Y-23088D01*
X78480Y-22916D02*
X78709Y-23145D01*
X78519Y-22764D02*
X78500Y-22745D01*
X78480Y-22707D01*
X78480Y-22611D01*
X78500Y-22573D01*
X78519Y-22554D01*
X78557Y-22535D01*
X78595Y-22535D01*
X78652Y-22554D01*
X78880Y-22783D01*
X78880Y-22535D01*
G54D11*
X32892Y-43566D02*
X32911Y-43585D01*
X32930Y-43642D01*
X32930Y-43680D01*
X32911Y-43738D01*
X32873Y-43776D01*
X32835Y-43795D01*
X32759Y-43814D01*
X32702Y-43814D01*
X32626Y-43795D01*
X32588Y-43776D01*
X32550Y-43738D01*
X32530Y-43680D01*
X32530Y-43642D01*
X32550Y-43585D01*
X32569Y-43566D01*
X32569Y-43414D02*
X32550Y-43395D01*
X32530Y-43357D01*
X32530Y-43261D01*
X32550Y-43223D01*
X32569Y-43204D01*
X32607Y-43185D01*
X32645Y-43185D01*
X32702Y-43204D01*
X32930Y-43433D01*
X32930Y-43185D01*
X38892Y-43566D02*
X38911Y-43585D01*
X38930Y-43642D01*
X38930Y-43680D01*
X38911Y-43738D01*
X38873Y-43776D01*
X38835Y-43795D01*
X38759Y-43814D01*
X38702Y-43814D01*
X38626Y-43795D01*
X38588Y-43776D01*
X38550Y-43738D01*
X38530Y-43680D01*
X38530Y-43642D01*
X38550Y-43585D01*
X38569Y-43566D01*
X38530Y-43433D02*
X38530Y-43185D01*
X38683Y-43319D01*
X38683Y-43261D01*
X38702Y-43223D01*
X38721Y-43204D01*
X38759Y-43185D01*
X38854Y-43185D01*
X38892Y-43204D01*
X38911Y-43223D01*
X38930Y-43261D01*
X38930Y-43376D01*
X38911Y-43414D01*
X38892Y-43433D01*
X44892Y-43566D02*
X44911Y-43585D01*
X44930Y-43642D01*
X44930Y-43680D01*
X44911Y-43738D01*
X44873Y-43776D01*
X44835Y-43795D01*
X44759Y-43814D01*
X44702Y-43814D01*
X44626Y-43795D01*
X44588Y-43776D01*
X44550Y-43738D01*
X44530Y-43680D01*
X44530Y-43642D01*
X44550Y-43585D01*
X44569Y-43566D01*
X44664Y-43223D02*
X44930Y-43223D01*
X44511Y-43319D02*
X44797Y-43414D01*
X44797Y-43166D01*
X50892Y-43566D02*
X50911Y-43585D01*
X50930Y-43642D01*
X50930Y-43680D01*
X50911Y-43738D01*
X50873Y-43776D01*
X50835Y-43795D01*
X50759Y-43814D01*
X50702Y-43814D01*
X50626Y-43795D01*
X50588Y-43776D01*
X50550Y-43738D01*
X50530Y-43680D01*
X50530Y-43642D01*
X50550Y-43585D01*
X50569Y-43566D01*
X50530Y-43204D02*
X50530Y-43395D01*
X50721Y-43414D01*
X50702Y-43395D01*
X50683Y-43357D01*
X50683Y-43261D01*
X50702Y-43223D01*
X50721Y-43204D01*
X50759Y-43185D01*
X50854Y-43185D01*
X50892Y-43204D01*
X50911Y-43223D01*
X50930Y-43261D01*
X50930Y-43357D01*
X50911Y-43395D01*
X50892Y-43414D01*
X56892Y-43566D02*
X56911Y-43585D01*
X56930Y-43642D01*
X56930Y-43680D01*
X56911Y-43738D01*
X56873Y-43776D01*
X56835Y-43795D01*
X56759Y-43814D01*
X56702Y-43814D01*
X56626Y-43795D01*
X56588Y-43776D01*
X56550Y-43738D01*
X56530Y-43680D01*
X56530Y-43642D01*
X56550Y-43585D01*
X56569Y-43566D01*
X56530Y-43223D02*
X56530Y-43299D01*
X56550Y-43338D01*
X56569Y-43357D01*
X56626Y-43395D01*
X56702Y-43414D01*
X56854Y-43414D01*
X56892Y-43395D01*
X56911Y-43376D01*
X56930Y-43338D01*
X56930Y-43261D01*
X56911Y-43223D01*
X56892Y-43204D01*
X56854Y-43185D01*
X56759Y-43185D01*
X56721Y-43204D01*
X56702Y-43223D01*
X56683Y-43261D01*
X56683Y-43338D01*
X56702Y-43376D01*
X56721Y-43395D01*
X56759Y-43414D01*
X62892Y-43566D02*
X62911Y-43585D01*
X62930Y-43642D01*
X62930Y-43680D01*
X62911Y-43738D01*
X62873Y-43776D01*
X62835Y-43795D01*
X62759Y-43814D01*
X62702Y-43814D01*
X62626Y-43795D01*
X62588Y-43776D01*
X62550Y-43738D01*
X62530Y-43680D01*
X62530Y-43642D01*
X62550Y-43585D01*
X62569Y-43566D01*
X62530Y-43433D02*
X62530Y-43166D01*
X62930Y-43338D01*
X68892Y-43566D02*
X68911Y-43585D01*
X68930Y-43642D01*
X68930Y-43680D01*
X68911Y-43738D01*
X68873Y-43776D01*
X68835Y-43795D01*
X68759Y-43814D01*
X68702Y-43814D01*
X68626Y-43795D01*
X68588Y-43776D01*
X68550Y-43738D01*
X68530Y-43680D01*
X68530Y-43642D01*
X68550Y-43585D01*
X68569Y-43566D01*
X68702Y-43338D02*
X68683Y-43376D01*
X68664Y-43395D01*
X68626Y-43414D01*
X68607Y-43414D01*
X68569Y-43395D01*
X68550Y-43376D01*
X68530Y-43338D01*
X68530Y-43261D01*
X68550Y-43223D01*
X68569Y-43204D01*
X68607Y-43185D01*
X68626Y-43185D01*
X68664Y-43204D01*
X68683Y-43223D01*
X68702Y-43261D01*
X68702Y-43338D01*
X68721Y-43376D01*
X68740Y-43395D01*
X68778Y-43414D01*
X68854Y-43414D01*
X68892Y-43395D01*
X68911Y-43376D01*
X68930Y-43338D01*
X68930Y-43261D01*
X68911Y-43223D01*
X68892Y-43204D01*
X68854Y-43185D01*
X68778Y-43185D01*
X68740Y-43204D01*
X68721Y-43223D01*
X68702Y-43261D01*
X74892Y-43566D02*
X74911Y-43585D01*
X74930Y-43642D01*
X74930Y-43680D01*
X74911Y-43738D01*
X74873Y-43776D01*
X74835Y-43795D01*
X74759Y-43814D01*
X74702Y-43814D01*
X74626Y-43795D01*
X74588Y-43776D01*
X74550Y-43738D01*
X74530Y-43680D01*
X74530Y-43642D01*
X74550Y-43585D01*
X74569Y-43566D01*
X74930Y-43376D02*
X74930Y-43299D01*
X74911Y-43261D01*
X74892Y-43242D01*
X74835Y-43204D01*
X74759Y-43185D01*
X74607Y-43185D01*
X74569Y-43204D01*
X74550Y-43223D01*
X74530Y-43261D01*
X74530Y-43338D01*
X74550Y-43376D01*
X74569Y-43395D01*
X74607Y-43414D01*
X74702Y-43414D01*
X74740Y-43395D01*
X74759Y-43376D01*
X74778Y-43338D01*
X74778Y-43261D01*
X74759Y-43223D01*
X74740Y-43204D01*
X74702Y-43185D01*
X34680Y-43566D02*
X34490Y-43699D01*
X34680Y-43795D02*
X34280Y-43795D01*
X34280Y-43642D01*
X34300Y-43604D01*
X34319Y-43585D01*
X34357Y-43566D01*
X34414Y-43566D01*
X34452Y-43585D01*
X34471Y-43604D01*
X34490Y-43642D01*
X34490Y-43795D01*
X34319Y-43414D02*
X34300Y-43395D01*
X34280Y-43357D01*
X34280Y-43261D01*
X34300Y-43223D01*
X34319Y-43204D01*
X34357Y-43185D01*
X34395Y-43185D01*
X34452Y-43204D01*
X34680Y-43433D01*
X34680Y-43185D01*
X40680Y-43566D02*
X40490Y-43699D01*
X40680Y-43795D02*
X40280Y-43795D01*
X40280Y-43642D01*
X40300Y-43604D01*
X40319Y-43585D01*
X40357Y-43566D01*
X40414Y-43566D01*
X40452Y-43585D01*
X40471Y-43604D01*
X40490Y-43642D01*
X40490Y-43795D01*
X40280Y-43433D02*
X40280Y-43185D01*
X40433Y-43319D01*
X40433Y-43261D01*
X40452Y-43223D01*
X40471Y-43204D01*
X40509Y-43185D01*
X40604Y-43185D01*
X40642Y-43204D01*
X40661Y-43223D01*
X40680Y-43261D01*
X40680Y-43376D01*
X40661Y-43414D01*
X40642Y-43433D01*
X46680Y-43566D02*
X46490Y-43699D01*
X46680Y-43795D02*
X46280Y-43795D01*
X46280Y-43642D01*
X46300Y-43604D01*
X46319Y-43585D01*
X46357Y-43566D01*
X46414Y-43566D01*
X46452Y-43585D01*
X46471Y-43604D01*
X46490Y-43642D01*
X46490Y-43795D01*
X46414Y-43223D02*
X46680Y-43223D01*
X46261Y-43319D02*
X46547Y-43414D01*
X46547Y-43166D01*
X52680Y-43566D02*
X52490Y-43699D01*
X52680Y-43795D02*
X52280Y-43795D01*
X52280Y-43642D01*
X52300Y-43604D01*
X52319Y-43585D01*
X52357Y-43566D01*
X52414Y-43566D01*
X52452Y-43585D01*
X52471Y-43604D01*
X52490Y-43642D01*
X52490Y-43795D01*
X52280Y-43204D02*
X52280Y-43395D01*
X52471Y-43414D01*
X52452Y-43395D01*
X52433Y-43357D01*
X52433Y-43261D01*
X52452Y-43223D01*
X52471Y-43204D01*
X52509Y-43185D01*
X52604Y-43185D01*
X52642Y-43204D01*
X52661Y-43223D01*
X52680Y-43261D01*
X52680Y-43357D01*
X52661Y-43395D01*
X52642Y-43414D01*
X58680Y-43566D02*
X58490Y-43699D01*
X58680Y-43795D02*
X58280Y-43795D01*
X58280Y-43642D01*
X58300Y-43604D01*
X58319Y-43585D01*
X58357Y-43566D01*
X58414Y-43566D01*
X58452Y-43585D01*
X58471Y-43604D01*
X58490Y-43642D01*
X58490Y-43795D01*
X58280Y-43223D02*
X58280Y-43299D01*
X58300Y-43338D01*
X58319Y-43357D01*
X58376Y-43395D01*
X58452Y-43414D01*
X58604Y-43414D01*
X58642Y-43395D01*
X58661Y-43376D01*
X58680Y-43338D01*
X58680Y-43261D01*
X58661Y-43223D01*
X58642Y-43204D01*
X58604Y-43185D01*
X58509Y-43185D01*
X58471Y-43204D01*
X58452Y-43223D01*
X58433Y-43261D01*
X58433Y-43338D01*
X58452Y-43376D01*
X58471Y-43395D01*
X58509Y-43414D01*
X64680Y-43566D02*
X64490Y-43699D01*
X64680Y-43795D02*
X64280Y-43795D01*
X64280Y-43642D01*
X64300Y-43604D01*
X64319Y-43585D01*
X64357Y-43566D01*
X64414Y-43566D01*
X64452Y-43585D01*
X64471Y-43604D01*
X64490Y-43642D01*
X64490Y-43795D01*
X64280Y-43433D02*
X64280Y-43166D01*
X64680Y-43338D01*
X70680Y-43566D02*
X70490Y-43699D01*
X70680Y-43795D02*
X70280Y-43795D01*
X70280Y-43642D01*
X70300Y-43604D01*
X70319Y-43585D01*
X70357Y-43566D01*
X70414Y-43566D01*
X70452Y-43585D01*
X70471Y-43604D01*
X70490Y-43642D01*
X70490Y-43795D01*
X70452Y-43338D02*
X70433Y-43376D01*
X70414Y-43395D01*
X70376Y-43414D01*
X70357Y-43414D01*
X70319Y-43395D01*
X70300Y-43376D01*
X70280Y-43338D01*
X70280Y-43261D01*
X70300Y-43223D01*
X70319Y-43204D01*
X70357Y-43185D01*
X70376Y-43185D01*
X70414Y-43204D01*
X70433Y-43223D01*
X70452Y-43261D01*
X70452Y-43338D01*
X70471Y-43376D01*
X70490Y-43395D01*
X70528Y-43414D01*
X70604Y-43414D01*
X70642Y-43395D01*
X70661Y-43376D01*
X70680Y-43338D01*
X70680Y-43261D01*
X70661Y-43223D01*
X70642Y-43204D01*
X70604Y-43185D01*
X70528Y-43185D01*
X70490Y-43204D01*
X70471Y-43223D01*
X70452Y-43261D01*
X76680Y-43566D02*
X76490Y-43699D01*
X76680Y-43795D02*
X76280Y-43795D01*
X76280Y-43642D01*
X76300Y-43604D01*
X76319Y-43585D01*
X76357Y-43566D01*
X76414Y-43566D01*
X76452Y-43585D01*
X76471Y-43604D01*
X76490Y-43642D01*
X76490Y-43795D01*
X76680Y-43376D02*
X76680Y-43299D01*
X76661Y-43261D01*
X76642Y-43242D01*
X76585Y-43204D01*
X76509Y-43185D01*
X76357Y-43185D01*
X76319Y-43204D01*
X76300Y-43223D01*
X76280Y-43261D01*
X76280Y-43338D01*
X76300Y-43376D01*
X76319Y-43395D01*
X76357Y-43414D01*
X76452Y-43414D01*
X76490Y-43395D01*
X76509Y-43376D01*
X76528Y-43338D01*
X76528Y-43261D01*
X76509Y-43223D01*
X76490Y-43204D01*
X76452Y-43185D01*
X41980Y-43804D02*
X41980Y-43576D01*
X42380Y-43690D02*
X41980Y-43690D01*
X42019Y-43461D02*
X42000Y-43442D01*
X41980Y-43404D01*
X41980Y-43309D01*
X42000Y-43271D01*
X42019Y-43252D01*
X42057Y-43233D01*
X42095Y-43233D01*
X42152Y-43252D01*
X42380Y-43480D01*
X42380Y-43233D01*
X47980Y-43804D02*
X47980Y-43576D01*
X48380Y-43690D02*
X47980Y-43690D01*
X47980Y-43480D02*
X47980Y-43233D01*
X48133Y-43366D01*
X48133Y-43309D01*
X48152Y-43271D01*
X48171Y-43252D01*
X48209Y-43233D01*
X48304Y-43233D01*
X48342Y-43252D01*
X48361Y-43271D01*
X48380Y-43309D01*
X48380Y-43423D01*
X48361Y-43461D01*
X48342Y-43480D01*
X53980Y-43804D02*
X53980Y-43576D01*
X54380Y-43690D02*
X53980Y-43690D01*
X54114Y-43271D02*
X54380Y-43271D01*
X53961Y-43366D02*
X54247Y-43461D01*
X54247Y-43214D01*
X59980Y-43804D02*
X59980Y-43576D01*
X60380Y-43690D02*
X59980Y-43690D01*
X59980Y-43252D02*
X59980Y-43442D01*
X60171Y-43461D01*
X60152Y-43442D01*
X60133Y-43404D01*
X60133Y-43309D01*
X60152Y-43271D01*
X60171Y-43252D01*
X60209Y-43233D01*
X60304Y-43233D01*
X60342Y-43252D01*
X60361Y-43271D01*
X60380Y-43309D01*
X60380Y-43404D01*
X60361Y-43442D01*
X60342Y-43461D01*
X65980Y-43804D02*
X65980Y-43576D01*
X66380Y-43690D02*
X65980Y-43690D01*
X65980Y-43271D02*
X65980Y-43347D01*
X66000Y-43385D01*
X66019Y-43404D01*
X66076Y-43442D01*
X66152Y-43461D01*
X66304Y-43461D01*
X66342Y-43442D01*
X66361Y-43423D01*
X66380Y-43385D01*
X66380Y-43309D01*
X66361Y-43271D01*
X66342Y-43252D01*
X66304Y-43233D01*
X66209Y-43233D01*
X66171Y-43252D01*
X66152Y-43271D01*
X66133Y-43309D01*
X66133Y-43385D01*
X66152Y-43423D01*
X66171Y-43442D01*
X66209Y-43461D01*
X71980Y-43804D02*
X71980Y-43576D01*
X72380Y-43690D02*
X71980Y-43690D01*
X71980Y-43480D02*
X71980Y-43214D01*
X72380Y-43385D01*
X77980Y-43804D02*
X77980Y-43576D01*
X78380Y-43690D02*
X77980Y-43690D01*
X78152Y-43385D02*
X78133Y-43423D01*
X78114Y-43442D01*
X78076Y-43461D01*
X78057Y-43461D01*
X78019Y-43442D01*
X78000Y-43423D01*
X77980Y-43385D01*
X77980Y-43309D01*
X78000Y-43271D01*
X78019Y-43252D01*
X78057Y-43233D01*
X78076Y-43233D01*
X78114Y-43252D01*
X78133Y-43271D01*
X78152Y-43309D01*
X78152Y-43385D01*
X78171Y-43423D01*
X78190Y-43442D01*
X78228Y-43461D01*
X78304Y-43461D01*
X78342Y-43442D01*
X78361Y-43423D01*
X78380Y-43385D01*
X78380Y-43309D01*
X78361Y-43271D01*
X78342Y-43252D01*
X78304Y-43233D01*
X78228Y-43233D01*
X78190Y-43252D01*
X78171Y-43271D01*
X78152Y-43309D01*
X35980Y-43804D02*
X35980Y-43576D01*
X36380Y-43690D02*
X35980Y-43690D01*
X36380Y-43233D02*
X36380Y-43461D01*
X36380Y-43347D02*
X35980Y-43347D01*
X36038Y-43385D01*
X36076Y-43423D01*
X36095Y-43461D01*
X48954Y-47580D02*
X48954Y-47180D01*
X49050Y-47180D01*
X49107Y-47200D01*
X49145Y-47238D01*
X49164Y-47276D01*
X49183Y-47352D01*
X49183Y-47409D01*
X49164Y-47485D01*
X49145Y-47523D01*
X49107Y-47561D01*
X49050Y-47580D01*
X48954Y-47580D01*
X49526Y-47180D02*
X49450Y-47180D01*
X49411Y-47200D01*
X49392Y-47219D01*
X49354Y-47276D01*
X49335Y-47352D01*
X49335Y-47504D01*
X49354Y-47542D01*
X49373Y-47561D01*
X49411Y-47580D01*
X49488Y-47580D01*
X49526Y-47561D01*
X49545Y-47542D01*
X49564Y-47504D01*
X49564Y-47409D01*
X49545Y-47371D01*
X49526Y-47352D01*
X49488Y-47333D01*
X49411Y-47333D01*
X49373Y-47352D01*
X49354Y-47371D01*
X49335Y-47409D01*
X54954Y-47580D02*
X54954Y-47180D01*
X55050Y-47180D01*
X55107Y-47200D01*
X55145Y-47238D01*
X55164Y-47276D01*
X55183Y-47352D01*
X55183Y-47409D01*
X55164Y-47485D01*
X55145Y-47523D01*
X55107Y-47561D01*
X55050Y-47580D01*
X54954Y-47580D01*
X55545Y-47180D02*
X55354Y-47180D01*
X55335Y-47371D01*
X55354Y-47352D01*
X55392Y-47333D01*
X55488Y-47333D01*
X55526Y-47352D01*
X55545Y-47371D01*
X55564Y-47409D01*
X55564Y-47504D01*
X55545Y-47542D01*
X55526Y-47561D01*
X55488Y-47580D01*
X55392Y-47580D01*
X55354Y-47561D01*
X55335Y-47542D01*
X36954Y-47580D02*
X36954Y-47180D01*
X37050Y-47180D01*
X37107Y-47200D01*
X37145Y-47238D01*
X37164Y-47276D01*
X37183Y-47352D01*
X37183Y-47409D01*
X37164Y-47485D01*
X37145Y-47523D01*
X37107Y-47561D01*
X37050Y-47580D01*
X36954Y-47580D01*
X37411Y-47352D02*
X37373Y-47333D01*
X37354Y-47314D01*
X37335Y-47276D01*
X37335Y-47257D01*
X37354Y-47219D01*
X37373Y-47200D01*
X37411Y-47180D01*
X37488Y-47180D01*
X37526Y-47200D01*
X37545Y-47219D01*
X37564Y-47257D01*
X37564Y-47276D01*
X37545Y-47314D01*
X37526Y-47333D01*
X37488Y-47352D01*
X37411Y-47352D01*
X37373Y-47371D01*
X37354Y-47390D01*
X37335Y-47428D01*
X37335Y-47504D01*
X37354Y-47542D01*
X37373Y-47561D01*
X37411Y-47580D01*
X37488Y-47580D01*
X37526Y-47561D01*
X37545Y-47542D01*
X37564Y-47504D01*
X37564Y-47428D01*
X37545Y-47390D01*
X37526Y-47371D01*
X37488Y-47352D01*
X42954Y-47580D02*
X42954Y-47180D01*
X43050Y-47180D01*
X43107Y-47200D01*
X43145Y-47238D01*
X43164Y-47276D01*
X43183Y-47352D01*
X43183Y-47409D01*
X43164Y-47485D01*
X43145Y-47523D01*
X43107Y-47561D01*
X43050Y-47580D01*
X42954Y-47580D01*
X43316Y-47180D02*
X43583Y-47180D01*
X43411Y-47580D01*
X60954Y-47580D02*
X60954Y-47180D01*
X61050Y-47180D01*
X61107Y-47200D01*
X61145Y-47238D01*
X61164Y-47276D01*
X61183Y-47352D01*
X61183Y-47409D01*
X61164Y-47485D01*
X61145Y-47523D01*
X61107Y-47561D01*
X61050Y-47580D01*
X60954Y-47580D01*
X61526Y-47314D02*
X61526Y-47580D01*
X61430Y-47161D02*
X61335Y-47447D01*
X61583Y-47447D01*
X72954Y-47580D02*
X72954Y-47180D01*
X73050Y-47180D01*
X73107Y-47200D01*
X73145Y-47238D01*
X73164Y-47276D01*
X73183Y-47352D01*
X73183Y-47409D01*
X73164Y-47485D01*
X73145Y-47523D01*
X73107Y-47561D01*
X73050Y-47580D01*
X72954Y-47580D01*
X73335Y-47219D02*
X73354Y-47200D01*
X73392Y-47180D01*
X73488Y-47180D01*
X73526Y-47200D01*
X73545Y-47219D01*
X73564Y-47257D01*
X73564Y-47295D01*
X73545Y-47352D01*
X73316Y-47580D01*
X73564Y-47580D01*
X66954Y-47580D02*
X66954Y-47180D01*
X67050Y-47180D01*
X67107Y-47200D01*
X67145Y-47238D01*
X67164Y-47276D01*
X67183Y-47352D01*
X67183Y-47409D01*
X67164Y-47485D01*
X67145Y-47523D01*
X67107Y-47561D01*
X67050Y-47580D01*
X66954Y-47580D01*
X67316Y-47180D02*
X67564Y-47180D01*
X67430Y-47333D01*
X67488Y-47333D01*
X67526Y-47352D01*
X67545Y-47371D01*
X67564Y-47409D01*
X67564Y-47504D01*
X67545Y-47542D01*
X67526Y-47561D01*
X67488Y-47580D01*
X67373Y-47580D01*
X67335Y-47561D01*
X67316Y-47542D01*
X78954Y-47580D02*
X78954Y-47180D01*
X79050Y-47180D01*
X79107Y-47200D01*
X79145Y-47238D01*
X79164Y-47276D01*
X79183Y-47352D01*
X79183Y-47409D01*
X79164Y-47485D01*
X79145Y-47523D01*
X79107Y-47561D01*
X79050Y-47580D01*
X78954Y-47580D01*
X79564Y-47580D02*
X79335Y-47580D01*
X79450Y-47580D02*
X79450Y-47180D01*
X79411Y-47238D01*
X79373Y-47276D01*
X79335Y-47295D01*
M02*
