M48
;DRILL file {Pcbnew (2013-mar-13)-testing} date Mon 08 Jul 2013 02:53:27 PM PDT
;FORMAT={2:4/ absolute / inch / suppress trailing zeros}
FMAT,2
INCH,LZ
T1C0.025
T2C0.032
T3C0.039
T4C0.039
T5C0.040
T6C0.110
T7C0.120
T8C0.130
%
G90
G05
M72
T1
X033592Y-027609
X04552Y-033123
X046927Y-036078
X060026Y-027712
T2
X0325Y-03075
X0335Y-0425
X0335Y-0445
X03425Y-037
X03425Y-04
X03525Y-037
X03525Y-04
X03525Y-042
X03525Y-045
X03527Y-032875
X03625Y-037
X03625Y-04
X0365Y-03075
X03675Y-0485
X037Y-042
X037Y-045
X03727Y-032875
X03775Y-0485
X0395Y-0425
X0395Y-0445
X04025Y-037
X04025Y-04
X04125Y-037
X04125Y-04
X04125Y-042
X04125Y-045
X04225Y-037
X04225Y-04
X04275Y-0485
X043Y-042
X043Y-045
X04375Y-0485
X0455Y-0425
X0455Y-0445
X04625Y-037
X04625Y-04
X04725Y-037
X04725Y-04
X04725Y-042
X04725Y-045
X04825Y-037
X04825Y-04
X04875Y-0485
X049Y-042
X049Y-045
X04975Y-0485
X0515Y-0425
X0515Y-0445
X05225Y-037
X05225Y-04
X052935Y-02707
X052935Y-03007
X05325Y-037
X05325Y-04
X05325Y-042
X05325Y-045
X053935Y-02707
X053935Y-03007
X05425Y-037
X05425Y-04
X05475Y-0485
X054935Y-02707
X054935Y-03007
X055Y-042
X055Y-045
X05575Y-0485
X055935Y-02707
X055935Y-03007
X056935Y-02707
X056935Y-03007
X0575Y-0425
X0575Y-0445
X057935Y-02707
X057935Y-03007
X05825Y-037
X05825Y-04
X058935Y-02707
X058935Y-03007
X05925Y-037
X05925Y-04
X05925Y-042
X05925Y-045
X059935Y-02707
X059935Y-03007
X06025Y-037
X06025Y-04
X06075Y-0485
X061Y-042
X061Y-045
X06175Y-0485
X0635Y-0425
X0635Y-0445
X06425Y-037
X06425Y-04
X065Y-027
X065Y-03
X06525Y-037
X06525Y-04
X06525Y-042
X06525Y-045
X066Y-027
X066Y-03
X06625Y-037
X06625Y-04
X06675Y-0485
X067Y-027
X067Y-03
X067Y-042
X067Y-045
X06775Y-0485
X068Y-027
X068Y-03
X069Y-027
X069Y-03
X0695Y-0425
X0695Y-0445
X07Y-027
X07Y-03
X07025Y-037
X07025Y-04
X071Y-027
X071Y-03
X07125Y-037
X07125Y-04
X07125Y-042
X07125Y-045
X072Y-027
X072Y-03
X07225Y-037
X07225Y-04
X07275Y-0485
X073Y-042
X073Y-045
X07375Y-0485
X0755Y-0425
X0755Y-0445
X07625Y-037
X07625Y-04
X07725Y-037
X07725Y-04
X07725Y-042
X07725Y-045
X07825Y-037
X07825Y-04
X07875Y-0485
X079Y-042
X079Y-045
X07975Y-0485
T3
X033975Y-0226
X033975Y-0236
X033975Y-0246
X033975Y-0256
X033975Y-0266
X034975Y-0226
X034975Y-0236
X034975Y-0246
X034975Y-0256
X034975Y-0266
X0415Y-0205
X0415Y-0215
X0415Y-0225
X0415Y-0235
X0415Y-0245
X0415Y-0255
X0415Y-0265
X0415Y-0275
X0415Y-0285
X0415Y-0295
X0415Y-0305
X0415Y-0315
X0415Y-0325
X0415Y-0335
X0415Y-0345
X0475Y-0205
X0475Y-0215
X0475Y-0225
X0475Y-0235
X0475Y-0245
X0475Y-0255
X0475Y-0265
X0475Y-0275
X0475Y-0285
X0475Y-0295
X0475Y-0305
X0475Y-0315
X0475Y-0325
X0475Y-0335
X0475Y-0345
T4
X033561Y-0485
X034939Y-0485
X039561Y-0485
X040939Y-0485
X045561Y-0485
X046939Y-0485
X051561Y-0485
X052939Y-0485
X057561Y-0485
X058939Y-0485
X063561Y-0485
X064939Y-0485
X069561Y-0485
X070939Y-0485
X075561Y-0485
X076939Y-0485
T5
X032335Y-032875
X033335Y-032875
X052Y-0215
X053Y-0215
X054Y-0215
X055Y-0215
X056Y-0215
X05875Y-0215
X05975Y-0215
X06075Y-0215
X06175Y-0215
X0645Y-0215
X0655Y-0215
X0665Y-0215
T6
X074531Y-02365
X0765Y-02275
T7
X03075Y-0205
X03075Y-049
X08175Y-0205
X08175Y-049
T8
X0765Y-02523
T0
M30
