G04 (created by PCBnew (20090216-final)) date Mon 29 Nov 2010 07:03:00 PM PST*
G01*
G70*
G90*
%MOIN*%
G04 Gerber Fmt 3.4, Leading zero omitted, Abs format*
%FSLAX34Y34*%
G04 APERTURE LIST*
%ADD10C,0.015000*%
%ADD11R,0.069000X0.060000*%
%ADD12C,0.069000*%
%ADD13C,0.055000*%
%ADD14R,0.055000X0.055000*%
%ADD15C,0.189000*%
%ADD16R,0.189000X0.189000*%
%ADD17C,0.066000*%
%ADD18R,0.060000X0.060000*%
%ADD19C,0.060000*%
%ADD20R,0.070000X0.070000*%
%ADD21C,0.070000*%
%ADD22C,0.130000*%
%ADD23R,0.063000X0.063000*%
%ADD24C,0.063000*%
%ADD25C,0.045000*%
%ADD26C,0.020000*%
%ADD27C,0.010000*%
%ADD28C,0.030000*%
%ADD29C,0.005000*%
%ADD30C,0.015000*%
%ADD31C,0.006000*%
%ADD32C,0.008000*%
%ADD33C,0.003500*%
%ADD34R,0.089000X0.080000*%
%ADD35C,0.089000*%
%ADD36C,0.075000*%
%ADD37R,0.075000X0.075000*%
%ADD38C,0.209000*%
%ADD39R,0.209000X0.209000*%
%ADD40R,0.080000X0.080000*%
%ADD41C,0.080000*%
%ADD42R,0.090000X0.090000*%
%ADD43C,0.090000*%
%ADD44C,0.150000*%
%ADD45R,0.083000X0.083000*%
%ADD46C,0.083000*%
G04 APERTURE END LIST*
G54D10*
X29750Y-19500D02*
X29750Y-50000D01*
X82750Y-19500D02*
X29750Y-19500D01*
X82750Y-50000D02*
X82750Y-19500D01*
X29750Y-50000D02*
X82750Y-50000D01*
G54D34*
X47500Y-34500D03*
G54D35*
X47500Y-33500D03*
X47500Y-32500D03*
X47500Y-31500D03*
X47500Y-30500D03*
X47500Y-29500D03*
X47500Y-28500D03*
X47500Y-27500D03*
X47500Y-26500D03*
X47500Y-25500D03*
X47500Y-24500D03*
X47500Y-23500D03*
X47500Y-22500D03*
X47500Y-21500D03*
X47500Y-20500D03*
X41500Y-20500D03*
X41500Y-21500D03*
X41500Y-22500D03*
X41500Y-23500D03*
X41500Y-24500D03*
X41500Y-25500D03*
X41500Y-26500D03*
X41500Y-27500D03*
X41500Y-28500D03*
X41500Y-29500D03*
X41500Y-30500D03*
X41500Y-31500D03*
X41500Y-32500D03*
X41500Y-33500D03*
X41500Y-34500D03*
G54D36*
X36500Y-36750D03*
X38500Y-36750D03*
G54D37*
X60500Y-30500D03*
G54D36*
X59500Y-30500D03*
X58500Y-30500D03*
X57500Y-30500D03*
X56500Y-30500D03*
X55500Y-30500D03*
X54500Y-30500D03*
X53500Y-30500D03*
X53500Y-33500D03*
X54500Y-33500D03*
X55500Y-33500D03*
X56500Y-33500D03*
X57500Y-33500D03*
X58500Y-33500D03*
X59500Y-33500D03*
X60500Y-33500D03*
G54D37*
X73500Y-30500D03*
G54D36*
X72500Y-30500D03*
X71500Y-30500D03*
X70500Y-30500D03*
X69500Y-30500D03*
X68500Y-30500D03*
X67500Y-30500D03*
X66500Y-30500D03*
X66500Y-33500D03*
X67500Y-33500D03*
X68500Y-33500D03*
X69500Y-33500D03*
X70500Y-33500D03*
X71500Y-33500D03*
X72500Y-33500D03*
X73500Y-33500D03*
G54D38*
X76500Y-22750D03*
G54D39*
X76500Y-25230D03*
G54D38*
X74531Y-23650D03*
G54D40*
X34250Y-36750D03*
G54D41*
X33250Y-36750D03*
G54D40*
X66500Y-21500D03*
G54D41*
X65500Y-21500D03*
X64500Y-21500D03*
X38250Y-34250D03*
X34250Y-34250D03*
G54D42*
X33900Y-29050D03*
G54D43*
X32900Y-29050D03*
X33900Y-28050D03*
X32900Y-28050D03*
X33900Y-27050D03*
X32900Y-27050D03*
X33900Y-26050D03*
X32900Y-26050D03*
X33900Y-25050D03*
X32900Y-25050D03*
G54D44*
X30750Y-49000D03*
X81750Y-20500D03*
X81750Y-49000D03*
X30750Y-20500D03*
G54D37*
X35000Y-41000D03*
G54D36*
X34000Y-41000D03*
X33000Y-41000D03*
X33000Y-44000D03*
X34000Y-44000D03*
X35000Y-44000D03*
G54D37*
X41000Y-41000D03*
G54D36*
X40000Y-41000D03*
X39000Y-41000D03*
X39000Y-44000D03*
X40000Y-44000D03*
X41000Y-44000D03*
G54D37*
X47000Y-41000D03*
G54D36*
X46000Y-41000D03*
X45000Y-41000D03*
X45000Y-44000D03*
X46000Y-44000D03*
X47000Y-44000D03*
G54D37*
X53000Y-41000D03*
G54D36*
X52000Y-41000D03*
X51000Y-41000D03*
X51000Y-44000D03*
X52000Y-44000D03*
X53000Y-44000D03*
G54D37*
X59000Y-41000D03*
G54D36*
X58000Y-41000D03*
X57000Y-41000D03*
X57000Y-44000D03*
X58000Y-44000D03*
X59000Y-44000D03*
G54D37*
X65000Y-41000D03*
G54D36*
X64000Y-41000D03*
X63000Y-41000D03*
X63000Y-44000D03*
X64000Y-44000D03*
X65000Y-44000D03*
G54D37*
X71000Y-41000D03*
G54D36*
X70000Y-41000D03*
X69000Y-41000D03*
X69000Y-44000D03*
X70000Y-44000D03*
X71000Y-44000D03*
G54D37*
X77000Y-41000D03*
G54D36*
X76000Y-41000D03*
X75000Y-41000D03*
X75000Y-44000D03*
X76000Y-44000D03*
X77000Y-44000D03*
G54D45*
X34939Y-48500D03*
G54D46*
X33561Y-48500D03*
G54D45*
X40939Y-48500D03*
G54D46*
X39561Y-48500D03*
G54D45*
X46939Y-48500D03*
G54D46*
X45561Y-48500D03*
G54D45*
X52939Y-48500D03*
G54D46*
X51561Y-48500D03*
G54D45*
X58939Y-48500D03*
G54D46*
X57561Y-48500D03*
G54D45*
X64939Y-48500D03*
G54D46*
X63561Y-48500D03*
G54D45*
X70939Y-48500D03*
G54D46*
X69561Y-48500D03*
G54D45*
X76939Y-48500D03*
G54D46*
X75561Y-48500D03*
G54D40*
X56000Y-21500D03*
G54D41*
X55000Y-21500D03*
X54000Y-21500D03*
X53000Y-21500D03*
X52000Y-21500D03*
M02*
