G04 (created by PCBnew (20090216-final)) date Mon 29 Nov 2010 07:03:00 PM PST*
G01*
G70*
G90*
%MOIN*%
G04 Gerber Fmt 3.4, Leading zero omitted, Abs format*
%FSLAX34Y34*%
G04 APERTURE LIST*
%ADD10C,0.015000*%
%ADD11R,0.069000X0.060000*%
%ADD12C,0.069000*%
%ADD13C,0.055000*%
%ADD14R,0.055000X0.055000*%
%ADD15C,0.189000*%
%ADD16R,0.189000X0.189000*%
%ADD17C,0.066000*%
%ADD18R,0.060000X0.060000*%
%ADD19C,0.060000*%
%ADD20R,0.070000X0.070000*%
%ADD21C,0.070000*%
%ADD22C,0.130000*%
%ADD23R,0.063000X0.063000*%
%ADD24C,0.063000*%
%ADD25C,0.045000*%
%ADD26C,0.020000*%
%ADD27C,0.010000*%
%ADD28C,0.030000*%
%ADD29C,0.005000*%
G04 APERTURE END LIST*
G54D10*
X29750Y-19500D02*
X29750Y-50000D01*
X82750Y-19500D02*
X29750Y-19500D01*
X82750Y-50000D02*
X82750Y-19500D01*
X29750Y-50000D02*
X82750Y-50000D01*
G54D29*
X34250Y-29400D02*
X33550Y-29400D01*
X33550Y-29400D02*
X33550Y-28700D01*
X33550Y-28700D02*
X34250Y-28700D01*
X34250Y-28700D02*
X34250Y-29400D01*
X33250Y-29050D02*
X33243Y-29117D01*
X33243Y-29117D02*
X33223Y-29183D01*
X33223Y-29183D02*
X33191Y-29243D01*
X33191Y-29243D02*
X33148Y-29296D01*
X33148Y-29296D02*
X33095Y-29340D01*
X33095Y-29340D02*
X33035Y-29372D01*
X33035Y-29372D02*
X32970Y-29392D01*
X32970Y-29392D02*
X32902Y-29399D01*
X32902Y-29399D02*
X32835Y-29393D01*
X32835Y-29393D02*
X32769Y-29374D01*
X32769Y-29374D02*
X32709Y-29342D01*
X32709Y-29342D02*
X32656Y-29300D01*
X32656Y-29300D02*
X32612Y-29247D01*
X32612Y-29247D02*
X32579Y-29187D01*
X32579Y-29187D02*
X32558Y-29122D01*
X32558Y-29122D02*
X32551Y-29054D01*
X32551Y-29054D02*
X32556Y-28987D01*
X32556Y-28987D02*
X32575Y-28922D01*
X32575Y-28922D02*
X32606Y-28861D01*
X32606Y-28861D02*
X32649Y-28807D01*
X32649Y-28807D02*
X32701Y-28763D01*
X32701Y-28763D02*
X32760Y-28730D01*
X32760Y-28730D02*
X32825Y-28709D01*
X32825Y-28709D02*
X32893Y-28701D01*
X32893Y-28701D02*
X32960Y-28706D01*
X32960Y-28706D02*
X33026Y-28724D01*
X33026Y-28724D02*
X33087Y-28755D01*
X33087Y-28755D02*
X33141Y-28797D01*
X33141Y-28797D02*
X33186Y-28849D01*
X33186Y-28849D02*
X33219Y-28908D01*
X33219Y-28908D02*
X33241Y-28973D01*
X33241Y-28973D02*
X33249Y-29041D01*
X33249Y-29041D02*
X33250Y-29050D01*
X34250Y-28050D02*
X34243Y-28117D01*
X34243Y-28117D02*
X34223Y-28183D01*
X34223Y-28183D02*
X34191Y-28243D01*
X34191Y-28243D02*
X34148Y-28296D01*
X34148Y-28296D02*
X34095Y-28340D01*
X34095Y-28340D02*
X34035Y-28372D01*
X34035Y-28372D02*
X33970Y-28392D01*
X33970Y-28392D02*
X33902Y-28399D01*
X33902Y-28399D02*
X33835Y-28393D01*
X33835Y-28393D02*
X33769Y-28374D01*
X33769Y-28374D02*
X33709Y-28342D01*
X33709Y-28342D02*
X33656Y-28300D01*
X33656Y-28300D02*
X33612Y-28247D01*
X33612Y-28247D02*
X33579Y-28187D01*
X33579Y-28187D02*
X33558Y-28122D01*
X33558Y-28122D02*
X33551Y-28054D01*
X33551Y-28054D02*
X33556Y-27987D01*
X33556Y-27987D02*
X33575Y-27922D01*
X33575Y-27922D02*
X33606Y-27861D01*
X33606Y-27861D02*
X33649Y-27807D01*
X33649Y-27807D02*
X33701Y-27763D01*
X33701Y-27763D02*
X33760Y-27730D01*
X33760Y-27730D02*
X33825Y-27709D01*
X33825Y-27709D02*
X33893Y-27701D01*
X33893Y-27701D02*
X33960Y-27706D01*
X33960Y-27706D02*
X34026Y-27724D01*
X34026Y-27724D02*
X34087Y-27755D01*
X34087Y-27755D02*
X34141Y-27797D01*
X34141Y-27797D02*
X34186Y-27849D01*
X34186Y-27849D02*
X34219Y-27908D01*
X34219Y-27908D02*
X34241Y-27973D01*
X34241Y-27973D02*
X34249Y-28041D01*
X34249Y-28041D02*
X34250Y-28050D01*
X33250Y-28050D02*
X33243Y-28117D01*
X33243Y-28117D02*
X33223Y-28183D01*
X33223Y-28183D02*
X33191Y-28243D01*
X33191Y-28243D02*
X33148Y-28296D01*
X33148Y-28296D02*
X33095Y-28340D01*
X33095Y-28340D02*
X33035Y-28372D01*
X33035Y-28372D02*
X32970Y-28392D01*
X32970Y-28392D02*
X32902Y-28399D01*
X32902Y-28399D02*
X32835Y-28393D01*
X32835Y-28393D02*
X32769Y-28374D01*
X32769Y-28374D02*
X32709Y-28342D01*
X32709Y-28342D02*
X32656Y-28300D01*
X32656Y-28300D02*
X32612Y-28247D01*
X32612Y-28247D02*
X32579Y-28187D01*
X32579Y-28187D02*
X32558Y-28122D01*
X32558Y-28122D02*
X32551Y-28054D01*
X32551Y-28054D02*
X32556Y-27987D01*
X32556Y-27987D02*
X32575Y-27922D01*
X32575Y-27922D02*
X32606Y-27861D01*
X32606Y-27861D02*
X32649Y-27807D01*
X32649Y-27807D02*
X32701Y-27763D01*
X32701Y-27763D02*
X32760Y-27730D01*
X32760Y-27730D02*
X32825Y-27709D01*
X32825Y-27709D02*
X32893Y-27701D01*
X32893Y-27701D02*
X32960Y-27706D01*
X32960Y-27706D02*
X33026Y-27724D01*
X33026Y-27724D02*
X33087Y-27755D01*
X33087Y-27755D02*
X33141Y-27797D01*
X33141Y-27797D02*
X33186Y-27849D01*
X33186Y-27849D02*
X33219Y-27908D01*
X33219Y-27908D02*
X33241Y-27973D01*
X33241Y-27973D02*
X33249Y-28041D01*
X33249Y-28041D02*
X33250Y-28050D01*
X34250Y-27050D02*
X34243Y-27117D01*
X34243Y-27117D02*
X34223Y-27183D01*
X34223Y-27183D02*
X34191Y-27243D01*
X34191Y-27243D02*
X34148Y-27296D01*
X34148Y-27296D02*
X34095Y-27340D01*
X34095Y-27340D02*
X34035Y-27372D01*
X34035Y-27372D02*
X33970Y-27392D01*
X33970Y-27392D02*
X33902Y-27399D01*
X33902Y-27399D02*
X33835Y-27393D01*
X33835Y-27393D02*
X33769Y-27374D01*
X33769Y-27374D02*
X33709Y-27342D01*
X33709Y-27342D02*
X33656Y-27300D01*
X33656Y-27300D02*
X33612Y-27247D01*
X33612Y-27247D02*
X33579Y-27187D01*
X33579Y-27187D02*
X33558Y-27122D01*
X33558Y-27122D02*
X33551Y-27054D01*
X33551Y-27054D02*
X33556Y-26987D01*
X33556Y-26987D02*
X33575Y-26922D01*
X33575Y-26922D02*
X33606Y-26861D01*
X33606Y-26861D02*
X33649Y-26807D01*
X33649Y-26807D02*
X33701Y-26763D01*
X33701Y-26763D02*
X33760Y-26730D01*
X33760Y-26730D02*
X33825Y-26709D01*
X33825Y-26709D02*
X33893Y-26701D01*
X33893Y-26701D02*
X33960Y-26706D01*
X33960Y-26706D02*
X34026Y-26724D01*
X34026Y-26724D02*
X34087Y-26755D01*
X34087Y-26755D02*
X34141Y-26797D01*
X34141Y-26797D02*
X34186Y-26849D01*
X34186Y-26849D02*
X34219Y-26908D01*
X34219Y-26908D02*
X34241Y-26973D01*
X34241Y-26973D02*
X34249Y-27041D01*
X34249Y-27041D02*
X34250Y-27050D01*
X33250Y-27050D02*
X33243Y-27117D01*
X33243Y-27117D02*
X33223Y-27183D01*
X33223Y-27183D02*
X33191Y-27243D01*
X33191Y-27243D02*
X33148Y-27296D01*
X33148Y-27296D02*
X33095Y-27340D01*
X33095Y-27340D02*
X33035Y-27372D01*
X33035Y-27372D02*
X32970Y-27392D01*
X32970Y-27392D02*
X32902Y-27399D01*
X32902Y-27399D02*
X32835Y-27393D01*
X32835Y-27393D02*
X32769Y-27374D01*
X32769Y-27374D02*
X32709Y-27342D01*
X32709Y-27342D02*
X32656Y-27300D01*
X32656Y-27300D02*
X32612Y-27247D01*
X32612Y-27247D02*
X32579Y-27187D01*
X32579Y-27187D02*
X32558Y-27122D01*
X32558Y-27122D02*
X32551Y-27054D01*
X32551Y-27054D02*
X32556Y-26987D01*
X32556Y-26987D02*
X32575Y-26922D01*
X32575Y-26922D02*
X32606Y-26861D01*
X32606Y-26861D02*
X32649Y-26807D01*
X32649Y-26807D02*
X32701Y-26763D01*
X32701Y-26763D02*
X32760Y-26730D01*
X32760Y-26730D02*
X32825Y-26709D01*
X32825Y-26709D02*
X32893Y-26701D01*
X32893Y-26701D02*
X32960Y-26706D01*
X32960Y-26706D02*
X33026Y-26724D01*
X33026Y-26724D02*
X33087Y-26755D01*
X33087Y-26755D02*
X33141Y-26797D01*
X33141Y-26797D02*
X33186Y-26849D01*
X33186Y-26849D02*
X33219Y-26908D01*
X33219Y-26908D02*
X33241Y-26973D01*
X33241Y-26973D02*
X33249Y-27041D01*
X33249Y-27041D02*
X33250Y-27050D01*
X34250Y-26050D02*
X34243Y-26117D01*
X34243Y-26117D02*
X34223Y-26183D01*
X34223Y-26183D02*
X34191Y-26243D01*
X34191Y-26243D02*
X34148Y-26296D01*
X34148Y-26296D02*
X34095Y-26340D01*
X34095Y-26340D02*
X34035Y-26372D01*
X34035Y-26372D02*
X33970Y-26392D01*
X33970Y-26392D02*
X33902Y-26399D01*
X33902Y-26399D02*
X33835Y-26393D01*
X33835Y-26393D02*
X33769Y-26374D01*
X33769Y-26374D02*
X33709Y-26342D01*
X33709Y-26342D02*
X33656Y-26300D01*
X33656Y-26300D02*
X33612Y-26247D01*
X33612Y-26247D02*
X33579Y-26187D01*
X33579Y-26187D02*
X33558Y-26122D01*
X33558Y-26122D02*
X33551Y-26054D01*
X33551Y-26054D02*
X33556Y-25987D01*
X33556Y-25987D02*
X33575Y-25922D01*
X33575Y-25922D02*
X33606Y-25861D01*
X33606Y-25861D02*
X33649Y-25807D01*
X33649Y-25807D02*
X33701Y-25763D01*
X33701Y-25763D02*
X33760Y-25730D01*
X33760Y-25730D02*
X33825Y-25709D01*
X33825Y-25709D02*
X33893Y-25701D01*
X33893Y-25701D02*
X33960Y-25706D01*
X33960Y-25706D02*
X34026Y-25724D01*
X34026Y-25724D02*
X34087Y-25755D01*
X34087Y-25755D02*
X34141Y-25797D01*
X34141Y-25797D02*
X34186Y-25849D01*
X34186Y-25849D02*
X34219Y-25908D01*
X34219Y-25908D02*
X34241Y-25973D01*
X34241Y-25973D02*
X34249Y-26041D01*
X34249Y-26041D02*
X34250Y-26050D01*
X33250Y-26050D02*
X33243Y-26117D01*
X33243Y-26117D02*
X33223Y-26183D01*
X33223Y-26183D02*
X33191Y-26243D01*
X33191Y-26243D02*
X33148Y-26296D01*
X33148Y-26296D02*
X33095Y-26340D01*
X33095Y-26340D02*
X33035Y-26372D01*
X33035Y-26372D02*
X32970Y-26392D01*
X32970Y-26392D02*
X32902Y-26399D01*
X32902Y-26399D02*
X32835Y-26393D01*
X32835Y-26393D02*
X32769Y-26374D01*
X32769Y-26374D02*
X32709Y-26342D01*
X32709Y-26342D02*
X32656Y-26300D01*
X32656Y-26300D02*
X32612Y-26247D01*
X32612Y-26247D02*
X32579Y-26187D01*
X32579Y-26187D02*
X32558Y-26122D01*
X32558Y-26122D02*
X32551Y-26054D01*
X32551Y-26054D02*
X32556Y-25987D01*
X32556Y-25987D02*
X32575Y-25922D01*
X32575Y-25922D02*
X32606Y-25861D01*
X32606Y-25861D02*
X32649Y-25807D01*
X32649Y-25807D02*
X32701Y-25763D01*
X32701Y-25763D02*
X32760Y-25730D01*
X32760Y-25730D02*
X32825Y-25709D01*
X32825Y-25709D02*
X32893Y-25701D01*
X32893Y-25701D02*
X32960Y-25706D01*
X32960Y-25706D02*
X33026Y-25724D01*
X33026Y-25724D02*
X33087Y-25755D01*
X33087Y-25755D02*
X33141Y-25797D01*
X33141Y-25797D02*
X33186Y-25849D01*
X33186Y-25849D02*
X33219Y-25908D01*
X33219Y-25908D02*
X33241Y-25973D01*
X33241Y-25973D02*
X33249Y-26041D01*
X33249Y-26041D02*
X33250Y-26050D01*
X34250Y-25050D02*
X34243Y-25117D01*
X34243Y-25117D02*
X34223Y-25183D01*
X34223Y-25183D02*
X34191Y-25243D01*
X34191Y-25243D02*
X34148Y-25296D01*
X34148Y-25296D02*
X34095Y-25340D01*
X34095Y-25340D02*
X34035Y-25372D01*
X34035Y-25372D02*
X33970Y-25392D01*
X33970Y-25392D02*
X33902Y-25399D01*
X33902Y-25399D02*
X33835Y-25393D01*
X33835Y-25393D02*
X33769Y-25374D01*
X33769Y-25374D02*
X33709Y-25342D01*
X33709Y-25342D02*
X33656Y-25300D01*
X33656Y-25300D02*
X33612Y-25247D01*
X33612Y-25247D02*
X33579Y-25187D01*
X33579Y-25187D02*
X33558Y-25122D01*
X33558Y-25122D02*
X33551Y-25054D01*
X33551Y-25054D02*
X33556Y-24987D01*
X33556Y-24987D02*
X33575Y-24922D01*
X33575Y-24922D02*
X33606Y-24861D01*
X33606Y-24861D02*
X33649Y-24807D01*
X33649Y-24807D02*
X33701Y-24763D01*
X33701Y-24763D02*
X33760Y-24730D01*
X33760Y-24730D02*
X33825Y-24709D01*
X33825Y-24709D02*
X33893Y-24701D01*
X33893Y-24701D02*
X33960Y-24706D01*
X33960Y-24706D02*
X34026Y-24724D01*
X34026Y-24724D02*
X34087Y-24755D01*
X34087Y-24755D02*
X34141Y-24797D01*
X34141Y-24797D02*
X34186Y-24849D01*
X34186Y-24849D02*
X34219Y-24908D01*
X34219Y-24908D02*
X34241Y-24973D01*
X34241Y-24973D02*
X34249Y-25041D01*
X34249Y-25041D02*
X34250Y-25050D01*
X33250Y-25050D02*
X33243Y-25117D01*
X33243Y-25117D02*
X33223Y-25183D01*
X33223Y-25183D02*
X33191Y-25243D01*
X33191Y-25243D02*
X33148Y-25296D01*
X33148Y-25296D02*
X33095Y-25340D01*
X33095Y-25340D02*
X33035Y-25372D01*
X33035Y-25372D02*
X32970Y-25392D01*
X32970Y-25392D02*
X32902Y-25399D01*
X32902Y-25399D02*
X32835Y-25393D01*
X32835Y-25393D02*
X32769Y-25374D01*
X32769Y-25374D02*
X32709Y-25342D01*
X32709Y-25342D02*
X32656Y-25300D01*
X32656Y-25300D02*
X32612Y-25247D01*
X32612Y-25247D02*
X32579Y-25187D01*
X32579Y-25187D02*
X32558Y-25122D01*
X32558Y-25122D02*
X32551Y-25054D01*
X32551Y-25054D02*
X32556Y-24987D01*
X32556Y-24987D02*
X32575Y-24922D01*
X32575Y-24922D02*
X32606Y-24861D01*
X32606Y-24861D02*
X32649Y-24807D01*
X32649Y-24807D02*
X32701Y-24763D01*
X32701Y-24763D02*
X32760Y-24730D01*
X32760Y-24730D02*
X32825Y-24709D01*
X32825Y-24709D02*
X32893Y-24701D01*
X32893Y-24701D02*
X32960Y-24706D01*
X32960Y-24706D02*
X33026Y-24724D01*
X33026Y-24724D02*
X33087Y-24755D01*
X33087Y-24755D02*
X33141Y-24797D01*
X33141Y-24797D02*
X33186Y-24849D01*
X33186Y-24849D02*
X33219Y-24908D01*
X33219Y-24908D02*
X33241Y-24973D01*
X33241Y-24973D02*
X33249Y-25041D01*
X33249Y-25041D02*
X33250Y-25050D01*
X31400Y-49000D02*
X31387Y-49126D01*
X31387Y-49126D02*
X31350Y-49247D01*
X31350Y-49247D02*
X31291Y-49359D01*
X31291Y-49359D02*
X31211Y-49458D01*
X31211Y-49458D02*
X31113Y-49538D01*
X31113Y-49538D02*
X31001Y-49599D01*
X31001Y-49599D02*
X30880Y-49636D01*
X30880Y-49636D02*
X30754Y-49649D01*
X30754Y-49649D02*
X30629Y-49638D01*
X30629Y-49638D02*
X30507Y-49602D01*
X30507Y-49602D02*
X30395Y-49543D01*
X30395Y-49543D02*
X30296Y-49464D01*
X30296Y-49464D02*
X30214Y-49367D01*
X30214Y-49367D02*
X30153Y-49256D01*
X30153Y-49256D02*
X30115Y-49135D01*
X30115Y-49135D02*
X30101Y-49009D01*
X30101Y-49009D02*
X30111Y-48883D01*
X30111Y-48883D02*
X30146Y-48761D01*
X30146Y-48761D02*
X30204Y-48648D01*
X30204Y-48648D02*
X30283Y-48549D01*
X30283Y-48549D02*
X30380Y-48467D01*
X30380Y-48467D02*
X30490Y-48405D01*
X30490Y-48405D02*
X30611Y-48366D01*
X30611Y-48366D02*
X30737Y-48351D01*
X30737Y-48351D02*
X30862Y-48360D01*
X30862Y-48360D02*
X30985Y-48394D01*
X30985Y-48394D02*
X31098Y-48452D01*
X31098Y-48452D02*
X31198Y-48530D01*
X31198Y-48530D02*
X31281Y-48626D01*
X31281Y-48626D02*
X31343Y-48736D01*
X31343Y-48736D02*
X31383Y-48856D01*
X31383Y-48856D02*
X31399Y-48982D01*
X31399Y-48982D02*
X31400Y-49000D01*
X82400Y-20500D02*
X82387Y-20626D01*
X82387Y-20626D02*
X82350Y-20747D01*
X82350Y-20747D02*
X82291Y-20859D01*
X82291Y-20859D02*
X82211Y-20958D01*
X82211Y-20958D02*
X82113Y-21038D01*
X82113Y-21038D02*
X82001Y-21099D01*
X82001Y-21099D02*
X81880Y-21136D01*
X81880Y-21136D02*
X81754Y-21149D01*
X81754Y-21149D02*
X81629Y-21138D01*
X81629Y-21138D02*
X81507Y-21102D01*
X81507Y-21102D02*
X81395Y-21043D01*
X81395Y-21043D02*
X81296Y-20964D01*
X81296Y-20964D02*
X81214Y-20867D01*
X81214Y-20867D02*
X81153Y-20756D01*
X81153Y-20756D02*
X81115Y-20635D01*
X81115Y-20635D02*
X81101Y-20509D01*
X81101Y-20509D02*
X81111Y-20383D01*
X81111Y-20383D02*
X81146Y-20261D01*
X81146Y-20261D02*
X81204Y-20148D01*
X81204Y-20148D02*
X81283Y-20049D01*
X81283Y-20049D02*
X81380Y-19967D01*
X81380Y-19967D02*
X81490Y-19905D01*
X81490Y-19905D02*
X81611Y-19866D01*
X81611Y-19866D02*
X81737Y-19851D01*
X81737Y-19851D02*
X81862Y-19860D01*
X81862Y-19860D02*
X81985Y-19894D01*
X81985Y-19894D02*
X82098Y-19952D01*
X82098Y-19952D02*
X82198Y-20030D01*
X82198Y-20030D02*
X82281Y-20126D01*
X82281Y-20126D02*
X82343Y-20236D01*
X82343Y-20236D02*
X82383Y-20356D01*
X82383Y-20356D02*
X82399Y-20482D01*
X82399Y-20482D02*
X82400Y-20500D01*
X82400Y-49000D02*
X82387Y-49126D01*
X82387Y-49126D02*
X82350Y-49247D01*
X82350Y-49247D02*
X82291Y-49359D01*
X82291Y-49359D02*
X82211Y-49458D01*
X82211Y-49458D02*
X82113Y-49538D01*
X82113Y-49538D02*
X82001Y-49599D01*
X82001Y-49599D02*
X81880Y-49636D01*
X81880Y-49636D02*
X81754Y-49649D01*
X81754Y-49649D02*
X81629Y-49638D01*
X81629Y-49638D02*
X81507Y-49602D01*
X81507Y-49602D02*
X81395Y-49543D01*
X81395Y-49543D02*
X81296Y-49464D01*
X81296Y-49464D02*
X81214Y-49367D01*
X81214Y-49367D02*
X81153Y-49256D01*
X81153Y-49256D02*
X81115Y-49135D01*
X81115Y-49135D02*
X81101Y-49009D01*
X81101Y-49009D02*
X81111Y-48883D01*
X81111Y-48883D02*
X81146Y-48761D01*
X81146Y-48761D02*
X81204Y-48648D01*
X81204Y-48648D02*
X81283Y-48549D01*
X81283Y-48549D02*
X81380Y-48467D01*
X81380Y-48467D02*
X81490Y-48405D01*
X81490Y-48405D02*
X81611Y-48366D01*
X81611Y-48366D02*
X81737Y-48351D01*
X81737Y-48351D02*
X81862Y-48360D01*
X81862Y-48360D02*
X81985Y-48394D01*
X81985Y-48394D02*
X82098Y-48452D01*
X82098Y-48452D02*
X82198Y-48530D01*
X82198Y-48530D02*
X82281Y-48626D01*
X82281Y-48626D02*
X82343Y-48736D01*
X82343Y-48736D02*
X82383Y-48856D01*
X82383Y-48856D02*
X82399Y-48982D01*
X82399Y-48982D02*
X82400Y-49000D01*
X31400Y-20500D02*
X31387Y-20626D01*
X31387Y-20626D02*
X31350Y-20747D01*
X31350Y-20747D02*
X31291Y-20859D01*
X31291Y-20859D02*
X31211Y-20958D01*
X31211Y-20958D02*
X31113Y-21038D01*
X31113Y-21038D02*
X31001Y-21099D01*
X31001Y-21099D02*
X30880Y-21136D01*
X30880Y-21136D02*
X30754Y-21149D01*
X30754Y-21149D02*
X30629Y-21138D01*
X30629Y-21138D02*
X30507Y-21102D01*
X30507Y-21102D02*
X30395Y-21043D01*
X30395Y-21043D02*
X30296Y-20964D01*
X30296Y-20964D02*
X30214Y-20867D01*
X30214Y-20867D02*
X30153Y-20756D01*
X30153Y-20756D02*
X30115Y-20635D01*
X30115Y-20635D02*
X30101Y-20509D01*
X30101Y-20509D02*
X30111Y-20383D01*
X30111Y-20383D02*
X30146Y-20261D01*
X30146Y-20261D02*
X30204Y-20148D01*
X30204Y-20148D02*
X30283Y-20049D01*
X30283Y-20049D02*
X30380Y-19967D01*
X30380Y-19967D02*
X30490Y-19905D01*
X30490Y-19905D02*
X30611Y-19866D01*
X30611Y-19866D02*
X30737Y-19851D01*
X30737Y-19851D02*
X30862Y-19860D01*
X30862Y-19860D02*
X30985Y-19894D01*
X30985Y-19894D02*
X31098Y-19952D01*
X31098Y-19952D02*
X31198Y-20030D01*
X31198Y-20030D02*
X31281Y-20126D01*
X31281Y-20126D02*
X31343Y-20236D01*
X31343Y-20236D02*
X31383Y-20356D01*
X31383Y-20356D02*
X31399Y-20482D01*
X31399Y-20482D02*
X31400Y-20500D01*
M02*
